<svg width="300" height="270" viewBox="0 0 300 270" fill="none" xmlns="http://www.w3.org/2000/svg">
<g opacity="0.15">
<path fill-rule="evenodd" clip-rule="evenodd" d="M32.8708 217.639C32.6477 217.276 32.762 216.803 33.1265 216.58C157.547 140.425 203.074 112.267 247.059 84.226M32.8708 217.639C33.0938 218.002 33.5703 218.118 33.937 217.899L32.8708 217.639ZM33.937 217.899C49.9701 208.306 65.7475 198.797 81.3334 189.335L33.937 217.899ZM247.061 84.2247C247.061 84.2246 247.061 84.2244 247.061 84.2243C247.423 83.9939 247.904 84.0979 248.137 84.4567C248.369 84.8155 248.265 85.2934 247.904 85.5242C239.782 90.7137 231.673 95.8776 223.567 101.022C231.831 96.0337 240.084 91.0963 248.338 86.2107C248.703 85.9947 249.175 86.1092 249.399 86.4679C249.622 86.8266 249.515 87.2969 249.158 87.5246C181.399 130.696 114.134 171.719 43.9417 214.527L39.1647 217.441L39.16 217.444C38.7948 217.666 38.3167 217.554 38.0909 217.192C37.8651 216.83 37.9765 216.355 38.3401 216.13C52.9302 207.088 67.2429 198.155 81.3334 189.335M30.3004 216.465C30.0729 216.103 30.1828 215.628 30.5462 215.401C30.5471 215.4 30.548 215.4 30.5489 215.399C40.3458 209.293 49.6629 203.505 58.5349 198.009C65.7146 193.532 73.3806 188.744 81.4632 183.697C97.4898 173.688 115.154 162.656 133.913 150.991C103.911 169.516 70.1818 190.226 30.1114 214.715C29.7472 214.937 29.2702 214.826 29.0434 214.466C28.8166 214.106 28.9252 213.631 29.2865 213.404C72.1731 186.419 109.872 163.288 145.072 141.72C146.821 140.648 148.564 139.581 150.301 138.516C179.512 120.62 207.071 103.735 234.552 86.522C238.334 84.1484 242.105 81.7787 245.876 79.4073C246.239 79.1791 246.72 79.2861 246.95 79.6463C247.18 80.0066 247.073 80.4837 246.71 80.7123C246.71 80.7124 246.71 80.7126 246.709 80.7127M235.391 87.8239C217.085 99.316 198.553 110.9 178.739 123.22C200.957 109.515 224.003 95.3998 247.143 81.3986C247.503 81.1807 247.973 81.2875 248.202 81.6394C248.431 81.9913 248.336 82.4601 247.987 82.6964C225.161 98.178 201.178 112.726 163.52 135.568C137.023 151.641 103.757 171.82 59.3602 199.32C48.936 205.82 39.5356 211.668 31.3716 216.711C31.0072 216.936 30.528 216.826 30.3004 216.465M235.391 87.8239C239.163 85.4616 242.933 83.0932 246.706 80.7151L235.391 87.8239ZM41.9873 217.556C41.7629 217.194 41.8746 216.721 42.2375 216.496C110.56 174.142 160.355 143.302 206.457 114.828C221.074 105.664 234.595 97.2705 248.269 89.0288C248.635 88.8082 249.112 88.9227 249.336 89.2851C249.56 89.6474 249.448 90.1214 249.084 90.3457C235.213 98.8962 221.422 107.406 207.284 116.138C200.144 120.614 192.74 125.276 184.928 130.195C179.408 133.671 173.683 137.276 167.703 141.034C135.938 161 96.9618 185.313 43.054 217.812C42.6883 218.032 42.2118 217.918 41.9873 217.556ZM26.4704 213.287C26.241 212.926 26.3494 212.449 26.7125 212.222C82.717 177.095 123.334 151.654 156.067 131.347C148.51 136.005 140.889 140.7 133.199 145.437C105.139 162.842 70.2459 184.44 24.9626 212.349C24.5981 212.574 24.1191 212.463 23.8919 212.101C23.6646 211.74 23.7749 211.264 24.1385 211.038C61.6539 187.691 97.2237 165.78 131.418 144.715C131.736 144.519 132.054 144.323 132.372 144.128C148.237 134.287 161.918 125.786 174.059 118.243C203.032 100.24 223.228 87.6923 243.373 75.4031C243.738 75.1806 244.215 75.2924 244.441 75.6533C244.668 76.0141 244.558 76.4886 244.196 76.7151C226.26 87.9357 208.088 99.2164 189.58 110.661C209.639 98.3561 227.064 87.8305 244.637 77.3967C245.004 77.1787 245.479 77.2959 245.701 77.659C245.923 78.0221 245.809 78.495 245.445 78.7177C175.949 121.208 103.951 165.707 27.5443 213.528C27.5436 213.528 27.5443 213.528 27.5436 213.528C27.1803 213.756 26.6999 213.648 26.4704 213.287ZM45.8868 217.925C45.6592 217.565 45.768 217.089 46.1302 216.862C80.5042 195.293 141.799 157.483 208.374 116.417C221.498 108.321 234.827 100.098 248.196 91.8491C248.56 91.6248 249.037 91.7341 249.266 92.0939C249.494 92.4536 249.386 92.9285 249.025 93.1569C197.401 125.817 145.121 157.896 96.5072 187.725C79.4788 198.174 62.9 208.347 46.9568 218.172C46.5927 218.396 46.1144 218.286 45.8868 217.925ZM21.3124 210.914C21.0879 210.551 21.2018 210.076 21.567 209.853C80.8757 173.551 154.607 127.758 231.578 79.9539C235.522 77.5043 239.474 75.0494 243.434 72.5903C243.798 72.3644 244.277 72.4735 244.506 72.8342C244.734 73.1949 244.625 73.671 244.263 73.8985C164.217 124.108 84.2986 173.661 22.3811 211.17C22.0149 211.392 21.5368 211.277 21.3124 210.914ZM51.0993 217.466C50.8774 217.105 50.9886 216.634 51.3488 216.409C111.459 178.86 180.44 135.88 248.135 94.6631C248.499 94.4416 248.975 94.5525 249.202 94.9117C249.429 95.2709 249.322 95.7443 248.962 95.9726C232.872 106.19 216.796 116.393 200.729 126.54C217.86 115.898 233.593 106.203 249.393 96.6615C249.755 96.4431 250.226 96.5519 250.454 96.9064C250.681 97.2608 250.582 97.7309 250.23 97.9642C245.307 101.227 240.356 104.441 235.327 107.65C239.994 104.893 244.657 102.169 249.341 99.4695C249.709 99.2572 250.181 99.3784 250.399 99.7413C250.618 100.104 250.502 100.574 250.14 100.796C243.428 104.895 236.723 108.975 229.729 113.232C209.115 125.778 185.984 139.856 152.741 160.448C150.888 161.617 149.02 162.795 147.135 163.984C121.461 180.175 92.738 198.289 58.6459 219.268C58.282 219.492 57.8041 219.382 57.5765 219.021C57.349 218.661 57.4572 218.186 57.8188 217.959C96.8554 193.385 127.175 174.464 151.902 159.147C160.045 154.012 167.89 149.07 175.514 144.288C174.284 145.028 173.044 145.775 171.793 146.527C169.656 147.814 167.488 149.119 165.288 150.445C135.871 168.793 101.12 190.447 56.0702 218.087C55.707 218.309 55.2308 218.2 55.0028 217.841C54.7749 217.483 54.8804 217.009 55.2394 216.78C62.3541 212.232 69.2152 207.874 75.8401 203.69C67.948 208.409 60.0548 213.09 52.16 217.728C51.7937 217.943 51.3212 217.826 51.0993 217.466ZM20.0597 208.918C19.8328 208.556 19.9447 208.08 20.3095 207.854C26.7802 203.861 33.1547 199.932 39.439 196.062C118.797 147.128 170.948 114.777 218.839 85.0676C226.7 80.1911 234.446 75.3859 242.179 70.5901C242.542 70.365 243.02 70.4733 243.249 70.8325C243.478 71.1916 243.372 71.6668 243.012 71.896C197.217 101.026 150.247 129.846 97.3749 162.288C79.0987 173.502 60.1173 185.149 40.2353 197.391C34.0391 201.211 27.677 205.133 21.1382 209.163C21.136 209.164 21.1338 209.165 21.1316 209.167C21.1315 209.167 21.1313 209.167 21.1312 209.167C20.7662 209.392 20.2865 209.281 20.0597 208.918ZM218.131 255.685C217.916 255.326 218.027 254.862 218.381 254.638C221.432 252.709 225.053 250.555 229.05 248.179C236.491 243.754 245.233 238.556 254.018 232.59C254.362 232.356 254.832 232.434 255.081 232.766C255.331 233.099 255.272 233.568 254.947 233.828C253.172 235.254 251.321 236.642 249.315 238.049C250.868 237.143 252.438 236.246 254.012 235.37C254.362 235.175 254.804 235.277 255.033 235.605C255.261 235.932 255.201 236.378 254.894 236.635C248.457 242.02 241.142 246.431 223.072 256.33C222.703 256.532 222.239 256.406 222.026 256.045C221.812 255.685 221.926 255.221 222.283 254.999C223.967 253.952 226.102 252.57 228.575 250.97C229.56 250.333 230.599 249.662 231.683 248.963C228.011 251.062 223.883 253.367 219.178 255.965C218.811 256.168 218.347 256.044 218.131 255.685ZM18.8027 206.917C18.5783 206.556 18.6897 206.082 19.0521 205.857C25.993 201.543 32.74 197.35 39.3067 193.269C61.0174 179.775 80.7579 167.505 99.0252 156.161C100.807 155.032 102.59 153.902 104.372 152.772C90.1335 161.519 76.6952 169.742 64.3662 177.272C49.764 186.225 34.5584 195.503 18.6198 205.169M99.9198 157.428C156.37 122.371 198.749 96.1484 241.744 69.9053C242.107 69.6837 242.223 69.2135 242.004 68.8504C241.785 68.4873 241.313 68.3665 240.945 68.5794C234.078 72.5484 227.236 76.5634 220.415 80.6165C227.112 76.3899 233.815 72.1465 240.501 67.898C240.862 67.6689 240.968 67.1935 240.739 66.8343C240.51 66.475 240.032 66.3667 239.669 66.592C221.425 77.9149 203.168 89.3089 184.419 101.01C147.306 124.173 108.261 148.541 63.5601 175.95C51.8287 183.115 41.1013 189.652 31.6444 195.416C26.6653 198.45 22.0384 201.27 17.8025 203.854C17.4367 204.077 17.3223 204.552 17.5467 204.916C17.7711 205.279 18.2497 205.394 18.616 205.172C18.6166 205.171 18.6172 205.171 18.6178 205.171M99.9198 157.428C73.2909 174.296 46.6831 191.037 19.8688 207.173C19.5032 207.393 19.0271 207.279 18.8027 206.917M225.916 256.399C225.708 256.035 225.831 255.572 226.193 255.357C227.129 254.8 228.029 254.265 228.896 253.75C233.271 251.149 236.799 249.052 239.748 247.283C241.937 245.895 244.18 244.453 246.441 242.999C249.369 241.118 252.326 239.217 255.231 237.391C255.587 237.168 256.058 237.266 256.293 237.613C256.529 237.959 256.443 238.429 256.101 238.672C251.748 241.765 247.955 244.164 240.566 248.598C235.623 251.731 230.937 254.601 226.959 256.702C226.587 256.898 226.124 256.764 225.916 256.399ZM216.865 253.665C216.657 253.294 216.789 252.826 217.162 252.617C224.675 248.403 231.647 244.126 238.268 239.935C239.494 239.124 240.647 238.35 241.735 237.613C242.673 236.978 243.567 236.369 244.421 235.786C248.849 232.766 252.244 230.45 255.506 228.898C255.877 228.722 256.322 228.862 256.522 229.219C256.723 229.576 256.609 230.025 256.263 230.245C253.886 231.76 251.478 233.31 249.029 234.886C245.805 236.962 242.509 239.084 239.118 241.23C233.759 244.773 226.986 249.02 217.92 253.967C217.545 254.171 217.074 254.037 216.865 253.665ZM229.826 256.786C229.612 256.438 229.707 255.985 230.043 255.751C235.268 252.116 242.677 247.654 251.224 242.645C251.579 242.437 252.035 242.54 252.265 242.879C252.495 243.218 252.42 243.676 252.093 243.924C246.259 248.354 241.323 251.577 230.853 257.067C230.49 257.257 230.04 257.135 229.826 256.786ZM65.4337 216.932C65.2078 216.569 65.3202 216.094 65.6848 215.869C73.1102 211.292 80.9203 206.503 89.0479 201.53C115.162 185.452 140.683 169.585 165.907 153.902C193.921 136.484 221.569 119.294 249.258 102.297C249.621 102.074 250.097 102.183 250.325 102.542C250.553 102.9 250.448 103.374 250.089 103.603C235.161 113.16 220.054 122.686 205.027 132.068C220.062 122.75 234.633 113.822 249.199 105.108C249.565 104.889 250.041 105.005 250.264 105.366C250.488 105.728 250.376 106.201 250.013 106.426C239.324 113.047 228.618 119.684 217.554 126.543C190.777 143.143 161.908 161.039 126.135 183.145C109.991 193.121 92.4415 203.954 73.0434 215.912L72.6327 215.255L72.2246 214.597C91.197 203.005 108.756 192.14 125.268 181.86M125.268 181.86C138.262 173.77 150.608 166.043 162.485 158.611C171.062 153.242 179.394 148.028 187.548 142.94C161.418 159.138 135.84 174.759 112.197 189.199C104.528 193.882 97.0632 198.441 89.8492 202.855C82.1205 207.613 74.3411 212.389 66.5039 217.183C66.1385 217.407 65.6597 217.294 65.4337 216.932M214.313 252.524C214.086 252.173 214.181 251.706 214.528 251.47C231.6 239.863 242.141 233.674 250.958 228.681C252.474 227.791 253.991 226.934 255.537 226.1C255.913 225.898 256.382 226.034 256.589 226.404C256.797 226.775 256.664 227.242 256.293 227.451C256.049 227.589 255.804 227.727 255.558 227.865C254.312 228.566 253.044 229.279 251.738 230.018C247.746 232.36 243.74 234.934 239.143 237.903C238.876 238.075 238.607 238.249 238.336 238.424C232.183 242.397 224.961 247.062 215.369 252.77C215.008 252.985 214.541 252.876 214.313 252.524ZM211.742 251.35C211.51 251.001 211.601 250.531 211.946 250.292C216.102 247.408 219.834 244.895 223.236 242.666C219.003 245.293 214.674 247.893 210.202 250.415C209.839 250.619 209.379 250.504 209.158 250.154C208.936 249.803 209.032 249.342 209.375 249.107C212.495 246.969 215.659 244.825 218.875 242.686C218.787 242.737 218.699 242.788 218.611 242.839C215.189 244.826 211.545 246.942 207.636 249.227C207.27 249.44 206.8 249.324 206.578 248.966C206.356 248.607 206.463 248.138 206.82 247.911C219.377 239.901 230.02 233.404 240.157 227.215C246.297 223.466 252.251 219.831 258.332 216.042C258.685 215.822 259.15 215.917 259.386 216.257C259.623 216.598 259.548 217.062 259.216 217.312C257.141 218.874 255.054 220.377 252.922 221.853C254.269 221.112 255.626 220.377 256.992 219.648C257.366 219.449 257.831 219.583 258.039 219.95C258.247 220.317 258.121 220.782 257.755 220.995C250.674 225.124 243.731 229.589 236.652 234.141C235.948 234.594 235.243 235.047 234.537 235.501C234.262 235.678 233.986 235.855 233.71 236.032C238.776 232.938 243.086 230.474 247.207 228.118C250.459 226.259 253.595 224.466 256.891 222.484C257.257 222.264 257.732 222.378 257.957 222.739C258.181 223.1 258.071 223.573 257.71 223.799C247.123 230.421 237.375 236.453 212.802 251.582C212.444 251.802 211.974 251.699 211.742 251.35ZM16.2935 202.921C16.0672 202.559 16.1789 202.083 16.5431 201.858C42.2902 185.938 68.1025 169.913 93.9632 153.857C141.983 124.044 190.169 94.1271 238.416 64.5908C238.779 64.3682 239.256 64.4783 239.483 64.8374C239.711 65.1965 239.604 65.6703 239.244 65.8991C182.448 102.019 124.767 137.362 18.278 202.611L17.3672 203.169C17.3669 203.169 17.3666 203.17 17.3664 203.17L17.3637 203.171C16.9985 203.395 16.5197 203.283 16.2935 202.921ZM203.985 247.756C203.777 247.387 203.906 246.921 204.275 246.71C216.006 239.993 225.629 234.163 234.39 228.66C237.314 226.781 240.188 224.914 243.011 223.08C247.851 219.936 252.541 216.89 257.075 214.045C257.436 213.818 257.913 213.923 258.145 214.279C258.376 214.636 258.275 215.11 257.919 215.343C250.453 220.222 243.203 224.953 235.241 229.954C225.703 236.085 215.608 242.365 205.035 248.058C204.661 248.26 204.193 248.125 203.985 247.756ZM13.7221 201.747C13.4934 201.39 13.5953 200.918 13.9508 200.686C23.6083 194.386 34.425 187.444 46.1823 179.987C35.713 186.388 24.8473 193.042 13.5329 199.989C13.1682 200.213 12.6897 200.102 12.4629 199.74C12.2361 199.379 12.3465 198.903 12.7097 198.677C117.047 133.732 176.448 96.9782 235.906 60.5924C236.268 60.3708 236.742 60.4792 236.971 60.8358C237.199 61.1924 237.097 61.6649 236.741 61.8964C228.762 67.0869 220.779 72.2235 212.727 77.3549C220.859 72.4327 229.015 67.5047 237.165 62.5883C237.532 62.3668 238.011 62.4827 238.234 62.8471C238.458 63.2115 238.341 63.6866 237.975 63.9084C202.01 85.6601 165.68 108.32 126.257 132.909C92.0267 154.259 55.4651 177.063 14.7873 201.989C14.4253 202.211 13.9508 202.103 13.7221 201.747ZM201.444 246.631C201.204 246.28 201.293 245.803 201.645 245.561C205.725 242.756 209.831 240.096 213.94 237.529C217.718 235.099 221.22 232.883 224.501 230.837C224.45 230.867 224.399 230.898 224.348 230.929C217.996 234.907 210.467 239.491 201.226 244.865C200.858 245.079 200.384 244.959 200.165 244.595C199.945 244.231 200.062 243.76 200.427 243.539C208.713 238.518 215.787 234.267 221.906 230.589C222.459 230.257 223.004 229.93 223.541 229.607C228.231 226.67 232.278 224.063 235.899 221.714C237.039 220.974 238.138 220.259 239.201 219.567C246.077 215.092 251.49 211.569 257.243 208.39C257.602 208.192 258.056 208.305 258.277 208.65C258.499 208.994 258.412 209.45 258.079 209.691C253.936 212.679 249.329 215.689 243.428 219.352C245.146 218.334 246.816 217.348 248.455 216.38C251.425 214.626 254.293 212.933 257.153 211.22C257.515 211.003 257.985 211.113 258.212 211.468C258.439 211.822 258.339 212.291 257.988 212.524C249.83 217.929 241.398 222.907 232.888 227.932C232.097 228.399 231.306 228.866 230.514 229.335C225.28 232.428 220.021 235.556 214.777 238.832C210.987 241.27 206.919 243.924 202.52 246.839C202.165 247.075 201.685 246.982 201.444 246.631ZM197.603 243.436C197.373 243.084 197.468 242.614 197.817 242.378C202.268 239.361 206.365 236.602 210.157 234.068C206.429 236.306 202.724 238.523 199.057 240.717C198.063 241.311 197.071 241.905 196.083 242.496C195.717 242.715 195.24 242.6 195.017 242.237C194.794 241.874 194.908 241.401 195.271 241.177C198.906 238.944 202.672 236.636 206.541 234.264C222.339 224.58 239.872 213.832 257.333 202.781C257.693 202.554 258.17 202.656 258.403 203.011C258.637 203.365 258.539 203.84 258.185 204.075C255.857 205.621 253.511 207.16 251.151 208.69C253.247 207.586 255.292 206.553 257.343 205.555C257.712 205.376 258.159 205.512 258.362 205.867C258.566 206.222 258.456 206.672 258.112 206.896C243.813 216.175 230.163 224.485 213.55 234.599C208.852 237.459 203.918 240.463 198.664 243.674C198.304 243.894 197.833 243.789 197.603 243.436ZM78.5155 214.403C78.2842 214.044 78.3892 213.567 78.7501 213.337C114.982 190.226 153.679 166.513 193.032 142.399C211.647 130.992 230.409 119.496 249.125 107.931C249.487 107.707 249.963 107.814 250.192 108.171C250.422 108.528 250.32 109.001 249.963 109.233C244.474 112.801 238.972 116.344 233.474 119.856C238.736 116.737 243.895 113.721 249.08 110.734C249.448 110.522 249.92 110.643 250.138 111.006C250.357 111.369 250.241 111.839 249.879 112.061C213.048 134.569 176.439 157.308 138.171 181.076C121.202 191.616 103.907 202.358 86.1218 213.373C85.7579 213.598 85.2789 213.489 85.0507 213.128C84.8226 212.767 84.9313 212.291 85.2938 212.064C103.133 200.874 118.88 190.974 132.969 182.116C136.215 180.075 139.372 178.09 142.447 176.157C139.714 177.814 137.013 179.451 134.348 181.066C113.428 193.746 94.6878 205.103 79.5889 214.639C79.2269 214.868 78.7467 214.762 78.5155 214.403ZM12.5283 196.925C12.3015 196.566 12.4091 196.092 12.7694 195.864C67.7156 161.099 109.124 135.62 143.662 114.514C151.159 109.934 158.331 105.559 165.248 101.34C190.198 86.1228 211.819 72.9355 233.317 59.4178M12.5283 196.925C12.7552 197.285 13.2316 197.396 13.5956 197.174L12.5283 196.925ZM13.5956 197.174C124.443 129.516 179.518 95.3253 234.156 60.7194L13.5956 197.174ZM233.319 59.4166C233.32 59.4161 233.32 59.4157 233.321 59.4153C233.684 59.1872 234.164 59.2939 234.394 59.6536C234.625 60.0133 234.518 60.4902 234.156 60.7194M193.752 240.221C193.541 239.858 193.659 239.395 194.018 239.176C202.224 234.164 210.262 229.076 218.253 224.017C220.285 222.73 222.314 221.445 224.342 220.164C214.13 226.434 203.517 232.74 192.244 239.318C191.88 239.531 191.412 239.416 191.189 239.06C190.966 238.704 191.069 238.237 191.422 238.006C215.297 222.435 229.898 213.738 241.383 206.897C246.779 203.683 251.487 200.878 256.146 197.963C256.506 197.738 256.98 197.841 257.213 198.194C257.445 198.548 257.349 199.021 256.997 199.257C251.193 203.152 245.347 206.967 239.403 210.752C240.042 210.359 240.682 209.967 241.322 209.575C246.205 206.507 251.132 203.533 256.116 200.759C256.489 200.552 256.96 200.682 257.172 201.05C257.385 201.418 257.258 201.888 256.888 202.101C251.934 204.962 247.038 207.893 242.171 210.871C236.961 214.144 231.794 217.529 226.646 220.902C226.29 221.135 225.934 221.368 225.578 221.601C215.287 228.342 205.07 234.995 194.797 240.514C194.426 240.713 193.963 240.583 193.752 240.221ZM11.2718 194.925C11.0455 194.564 11.1553 194.09 11.5175 193.863C73.6255 155.031 119.784 126.565 159.841 101.915C188.262 84.0792 209.827 70.5832 232.084 57.4045C232.45 57.1875 232.925 57.3042 233.147 57.666C233.369 58.0278 233.257 58.4997 232.894 58.7238C214.161 70.3163 195.489 81.8026 175.524 94.0848C170.652 97.0816 165.704 100.126 160.659 103.23C159.22 104.133 157.764 105.047 156.29 105.972C122.244 127.341 78.2955 154.924 12.3402 195.175C11.9755 195.398 11.4981 195.286 11.2718 194.925ZM189.941 237.073C189.709 236.717 189.809 236.242 190.165 236.009C203.814 227.063 215.692 219.871 226.308 213.506C226.383 213.462 226.458 213.417 226.532 213.372C231.617 210.243 236.065 207.522 240.155 205.02C245.465 201.77 250.173 198.889 254.893 195.963C255.255 195.739 255.73 195.845 255.961 196.201C256.191 196.557 256.09 197.03 255.735 197.263C248.102 202.262 239.892 207.178 230.766 212.641C229.64 213.316 228.499 213.999 227.344 214.691C217.983 220.451 206.459 227.594 191.011 237.307C190.65 237.533 190.173 237.429 189.941 237.073ZM187.368 235.896C187.14 235.553 187.223 235.093 187.557 234.849C190.606 232.623 194.033 230.272 197.77 227.814C194.057 230.043 190.092 232.416 185.843 234.952C185.478 235.169 185.004 235.055 184.78 234.696C184.556 234.336 184.664 233.865 185.023 233.638C192.282 229.049 200.636 223.997 209.624 218.562C223.779 210.003 239.507 200.493 255.008 190.341C255.366 190.106 255.848 190.204 256.085 190.56C256.322 190.915 256.224 191.394 255.867 191.63C249.977 195.505 244.202 199.256 237.264 203.636C238.778 202.739 240.303 201.836 241.838 200.928C246.156 198.372 250.547 195.773 254.972 193.14C255.338 192.921 255.813 193.038 256.036 193.4C256.259 193.762 256.146 194.234 255.783 194.458C249.68 198.229 243.477 202.17 236.935 206.325C223.054 215.143 207.645 224.932 188.412 236.138C188.055 236.346 187.596 236.24 187.368 235.896ZM91.5878 211.86C91.359 211.499 91.4683 211.022 91.832 210.795C95.0654 208.776 98.2377 206.795 101.351 204.85C168.361 163.008 208.312 138.062 249.002 113.558C249.368 113.339 249.843 113.452 250.068 113.813C250.293 114.174 250.182 114.647 249.821 114.873C216.485 135.715 181.97 156.972 151.569 175.695C128.924 189.641 108.562 202.181 92.6705 212.097C92.6674 212.099 92.6642 212.101 92.661 212.103C92.6609 212.103 92.6609 212.103 92.6608 212.103C92.297 212.33 91.8167 212.221 91.5878 211.86ZM11.3441 192.119C11.1123 191.761 11.2149 191.285 11.5737 191.053C26.4363 181.45 43.9927 170.331 63.507 158.124C47.6936 167.876 30.3404 178.563 11.153 190.359C10.7882 190.584 10.3094 190.472 10.0825 190.111C9.85563 189.749 9.9664 189.273 10.3301 189.048C58.2038 159.312 97.947 134.79 133.731 112.711C150.059 102.636 165.564 93.0699 180.64 83.749C197.899 73.0237 213.025 63.6268 228.235 54.2344M228.237 54.2329C228.238 54.2324 228.239 54.232 228.24 54.2315C228.604 54.0064 229.083 54.1169 229.311 54.4784C229.538 54.8398 229.428 55.3158 229.064 55.5422C213.369 65.3127 197.667 75.0425 181.47 85.0566C180.504 85.657 179.531 86.2615 178.551 86.8704C167.747 93.5843 156.083 100.833 143.039 108.927C171.19 91.6618 200.888 73.569 230.821 55.4104C231.186 55.1893 231.662 55.3014 231.888 55.6615C232.114 56.0216 232.005 56.495 231.644 56.7222C192.01 81.6806 151.876 106.323 114.314 129.357C112.459 130.495 110.61 131.629 108.768 132.759C73.3085 154.503 40.3141 174.735 12.4163 192.353C12.0551 192.581 11.5759 192.476 11.3441 192.119M183.519 232.688C183.298 232.323 183.416 231.851 183.782 231.63C190.989 227.291 199.701 221.805 209.301 215.76C211.324 214.487 213.385 213.189 215.481 211.871C227.518 204.303 240.658 196.101 253.782 188.322C254.151 188.104 254.628 188.223 254.849 188.589C255.07 188.955 254.95 189.429 254.582 189.648C246.931 194.207 239.006 199.244 230.13 204.885C228.252 206.079 226.331 207.3 224.362 208.549C213.087 215.698 200.221 223.765 184.583 232.956C184.214 233.172 183.739 233.053 183.519 232.688ZM180.951 231.519C180.724 231.16 180.83 230.687 181.189 230.458C192.636 223.173 204.682 215.807 217.237 208.13C229.013 200.929 241.237 193.454 253.83 185.518C254.191 185.29 254.669 185.394 254.901 185.751C255.133 186.107 255.032 186.583 254.675 186.816C238.901 197.095 222.78 206.921 194.377 224.232C190.497 226.597 186.387 229.102 182.017 231.767C181.654 231.989 181.178 231.878 180.951 231.519ZM179.691 229.512C179.467 229.149 179.581 228.675 179.945 228.452C186.379 224.504 192.189 220.941 197.477 217.699C225.205 200.696 238.602 192.481 252.568 183.522C252.928 183.291 253.408 183.393 253.642 183.749C253.876 184.106 253.776 184.583 253.418 184.817C237.017 195.529 219.679 206.348 180.758 229.77C180.392 229.99 179.915 229.875 179.691 229.512ZM8.82491 188.107C8.60078 187.744 8.71355 187.271 9.07727 187.046C47.0174 163.658 97.9171 132.141 152.725 98.2038C176.813 83.2258 201.839 67.7034 226.983 52.2327M8.82491 188.107C9.04905 188.469 9.52586 188.584 9.89188 188.363L8.82491 188.107ZM226.984 52.232C226.985 52.2316 226.985 52.2313 226.986 52.2309C227.351 52.0064 227.83 52.1178 228.057 52.4799C228.283 52.842 228.172 53.3179 227.808 53.5433C202.82 69.0064 177.814 84.4904 153.571 99.5013C142.479 106.398 131.585 113.181 120.969 119.79C77.4051 146.911 38.5294 171.114 9.89188 188.363M99.4388 209.76C99.221 209.399 99.3336 208.932 99.6923 208.708C119.931 196.098 139.869 183.904 159.609 171.832C186.193 155.574 212.416 139.537 238.525 123C241.988 120.798 245.454 118.592 248.918 116.386C248.919 116.385 248.919 116.385 248.92 116.385C249.281 116.155 249.762 116.259 249.995 116.617C250.227 116.976 250.123 117.454 249.762 117.685C246.3 119.899 242.837 122.102 239.371 124.297C233.499 128.032 227.635 131.757 221.807 135.452C230.84 129.924 239.869 124.485 248.879 119.187C249.245 118.972 249.717 119.088 249.939 119.448C250.161 119.809 250.051 120.279 249.692 120.505C212.131 144.084 174.665 167.205 136.445 190.697C126.586 196.84 116.781 202.882 107.048 208.753C106.681 208.974 106.204 208.859 105.98 208.496C105.756 208.134 105.869 207.659 106.234 207.436C116.062 201.402 125.827 195.406 135.543 189.434C138.662 187.49 141.788 185.536 144.919 183.574C127.801 194.069 112.62 203.151 100.493 210.034C100.125 210.242 99.6567 210.121 99.4388 209.76ZM177.109 228.32C176.893 227.959 177.008 227.493 177.367 227.271C183.92 223.221 190.83 218.97 198.024 214.545C201.502 212.405 205.047 210.224 208.65 208.006C209.582 207.408 210.519 206.805 211.462 206.2C211.751 206.014 212.042 205.827 212.332 205.641C225.146 197.409 238.865 188.615 252.666 180.686C253.033 180.476 253.502 180.595 253.722 180.955C253.942 181.315 253.831 181.783 253.473 182.008C238.261 191.561 223.436 200.72 209.484 209.311C198.072 216.639 187.425 223.421 178.16 228.6C177.792 228.806 177.325 228.682 177.109 228.32ZM174.551 227.165C174.322 226.816 174.414 226.349 174.759 226.111C187.315 217.437 202.644 208.226 219.699 197.978C230.136 191.707 241.219 185.047 252.708 177.885C253.07 177.659 253.547 177.765 253.777 178.122C254.008 178.479 253.906 178.953 253.549 179.185C233.836 191.993 214.501 204.084 175.606 227.406C175.246 227.622 174.779 227.515 174.551 227.165ZM173.286 225.153C173.063 224.795 173.17 224.325 173.526 224.097C192.155 212.187 208.336 202.315 223.65 192.974C229.932 189.142 236.067 185.399 242.165 181.641C245.254 179.722 248.354 177.799 251.454 175.883C251.819 175.658 252.298 175.768 252.526 176.129C252.753 176.49 252.644 176.966 252.28 177.193C249.178 179.129 246.082 181.047 242.978 182.959C235.441 187.643 227.975 192.309 220.77 196.812C202.615 208.156 186.12 218.464 174.346 225.411C173.981 225.626 173.51 225.511 173.286 225.153ZM8.89394 185.298C8.66558 184.937 8.77351 184.462 9.13533 184.234C62.2373 150.781 113.758 119.115 163.65 88.4506C184.18 75.8324 204.434 63.3837 224.41 51.0497C224.773 50.8253 225.251 50.9345 225.479 51.2941C225.707 51.6536 225.601 52.1286 225.24 52.3571C188.391 75.7045 151.077 98.6391 105.793 126.473C77.5556 143.828 46.2194 163.089 9.96459 185.542C9.601 185.767 9.12233 185.658 8.89394 185.298ZM170.71 223.971C170.485 223.611 170.594 223.139 170.954 222.912C177.748 218.631 184.234 214.517 190.493 210.547C192.314 209.392 194.116 208.249 195.901 207.118C188.523 211.602 180.149 216.602 170.511 222.23C170.145 222.445 169.673 222.327 169.452 221.966C169.231 221.604 169.342 221.134 169.703 220.91C176.84 216.467 183.84 212.129 190.713 207.88C183.376 212.267 175.407 216.909 166.603 221.872C166.233 222.08 165.763 221.955 165.548 221.591C165.332 221.226 165.452 220.758 165.816 220.539C178.306 213.035 191.618 204.693 205.559 195.956L206.158 195.581C220.314 186.71 235.111 177.441 250.336 168.248C250.7 168.028 251.174 168.14 251.4 168.498C251.627 168.856 251.521 169.328 251.163 169.557C246.178 172.748 241.235 175.962 236.173 179.255C229.633 183.508 222.894 187.891 215.606 192.52C223.692 187.535 231.601 182.655 239.35 177.854C243.472 175.3 247.548 172.768 251.582 170.253L251.996 170.908L252.397 171.57C248.397 173.957 244.446 176.435 240.186 179.158M227.174 187.534C235.332 182.535 243.374 177.732 251.543 173.055C251.909 172.845 252.378 172.965 252.597 173.324C252.816 173.683 252.706 174.151 252.349 174.376C249.377 176.251 246.355 178.176 243.093 180.253C228.968 189.249 210.343 201.11 171.774 224.226C171.409 224.445 170.935 224.331 170.71 223.971M227.174 187.534C229.014 186.35 230.772 185.216 232.464 184.125C235.185 182.369 237.736 180.723 240.186 179.158M111.204 208.055C110.975 207.696 111.079 207.222 111.438 206.992C141.631 187.611 166.445 172.47 188.473 159.122C191.172 157.487 193.83 155.878 196.45 154.292C215.214 142.933 232.072 132.728 248.787 122.018C249.147 121.788 249.627 121.89 249.861 122.246C250.095 122.602 249.996 123.079 249.638 123.313C238.776 130.412 227.767 137.413 216.595 144.396C228.103 137.346 238.374 131.103 248.74 124.824C249.106 124.602 249.585 124.717 249.809 125.082C250.033 125.446 249.918 125.921 249.551 126.143C249.551 126.143 249.551 126.144 249.551 126.144M111.204 208.055C111.433 208.413 111.91 208.521 112.272 208.297L111.204 208.055ZM112.272 208.297C128.596 198.206 144.555 188.504 160.183 179.004L112.272 208.297ZM160.183 179.004C167.787 174.382 175.312 169.807 182.764 165.258L160.183 179.004ZM8.95746 182.478C8.73122 182.116 8.8422 181.641 9.20562 181.415C30.5652 168.151 50.3979 155.865 69.0793 144.31C50.7929 155.453 31.2506 167.257 10.0848 179.916C9.7183 180.135 9.24217 180.019 9.019 179.656C8.79581 179.294 8.90933 178.821 9.27309 178.597C22.1915 170.655 36.438 161.862 51.7016 152.423C35.4591 162.216 21.3338 170.598 10.1425 177.104C9.7758 177.318 9.30454 177.199 9.0839 176.839C8.86325 176.478 8.97476 176.008 9.33444 175.784C44.5649 153.784 77.3303 133.684 108.592 114.507C146.714 91.1209 182.6 69.1067 217.994 46.6916C218.355 46.463 218.835 46.5671 219.067 46.9246C219.299 47.2821 219.196 47.7585 218.838 47.9905C204.454 57.2897 190.002 66.5392 175.719 75.6035C190.553 66.4214 205.561 57.1406 220.578 47.8691C220.941 47.6448 221.419 47.7539 221.647 48.1131C221.876 48.4724 221.769 48.9472 221.409 49.1761C197.249 64.5206 172.94 79.9406 146.592 96.4313C173.152 80.033 198.107 64.6129 223.151 49.0521C223.514 48.8263 223.993 48.935 224.222 49.2952C224.451 49.6554 224.343 50.1313 223.981 50.3594C165.092 87.4769 107.604 123.051 10.0269 182.728C9.66191 182.951 9.18371 182.839 8.95746 182.478ZM164.319 219.632C164.079 219.279 164.172 218.8 164.527 218.561C170.494 214.542 176.037 210.836 181.215 207.405C174.576 211.565 168.407 215.367 162.785 218.682C162.417 218.899 161.941 218.78 161.721 218.416C161.5 218.052 161.617 217.579 161.982 217.358C167.194 214.205 173.492 210.346 180.569 205.982C185.442 202.928 190.572 199.68 195.929 196.288C197.56 195.255 199.212 194.208 200.885 193.15C215.6 183.841 231.878 173.61 249.154 163.429C249.521 163.213 249.994 163.33 250.216 163.692C250.438 164.053 250.326 164.524 249.964 164.749C246.304 167.019 242.633 169.297 238.974 171.57C242.864 169.415 246.646 167.389 250.445 165.408C250.815 165.215 251.274 165.347 251.482 165.707C251.69 166.068 251.574 166.527 251.219 166.747C239.718 173.875 227.965 181.032 216.714 187.884C196.557 200.159 178.01 211.455 165.397 219.842C165.041 220.079 164.558 219.985 164.319 219.632ZM116.412 207.589C116.193 207.229 116.304 206.76 116.662 206.536C143.768 189.525 165.018 176.263 182.764 165.258M116.412 207.589C116.632 207.949 117.102 208.068 117.468 207.857L116.412 207.589ZM117.468 207.857C124.763 203.662 131.915 199.446 138.947 195.223L117.468 207.857ZM138.947 195.223C133.539 198.641 128.28 201.993 123.192 205.272C122.837 205.502 122.731 205.972 122.956 206.329C123.181 206.687 123.653 206.8 124.016 206.583C144.141 194.615 165.964 180.923 188.656 166.687C201.641 158.54 214.911 150.214 228.31 141.931C235.349 137.626 242.421 133.297 249.489 128.957C249.853 128.733 249.967 128.259 249.742 127.896C249.517 127.533 249.039 127.419 248.673 127.641C241.57 131.946 234.487 136.291 227.445 140.645C223.597 142.998 219.758 145.344 215.935 147.681C206.509 153.442 197.174 159.147 188.016 164.765C191.786 162.374 195.536 159.99 199.269 157.617C216.224 146.84 232.846 136.274 249.548 126.145M159.147 217.236C158.925 216.871 159.041 216.398 159.407 216.176C175.5 206.444 188.899 198.21 200.494 191.019C206.961 186.991 213.528 182.884 220.155 178.739C224.748 175.866 229.37 172.976 234.006 170.082C239.304 166.765 244.303 163.646 249.205 160.621C249.57 160.396 250.049 160.507 250.276 160.868C250.504 161.23 250.393 161.706 250.029 161.932C244.967 165.072 239.904 168.226 234.856 171.376C232.603 172.787 230.295 174.234 227.916 175.724C220.019 180.674 211.348 186.109 201.333 192.321C186.977 201.263 173.115 209.813 160.213 217.499C159.845 217.718 159.369 217.6 159.147 217.236ZM156.56 216.037C156.349 215.669 156.475 215.201 156.843 214.987C171.433 206.516 190.521 194.539 211.588 181.321C211.765 181.209 211.943 181.098 212.12 180.987C224.291 173.177 236.661 165.292 249.282 157.798C249.649 157.58 250.124 157.697 250.346 158.059C250.569 158.421 250.456 158.893 250.093 159.117C237.403 166.953 224.87 174.815 212.953 182.293C211.68 183.109 210.409 183.926 209.14 184.741C207.101 186.05 205.067 187.356 203.037 188.656C187.671 198.505 172.567 208.05 157.615 216.329C157.243 216.535 156.772 216.405 156.56 216.037ZM155.316 214.058C155.092 213.693 155.208 213.218 155.575 212.996C171.358 203.432 188.16 192.956 205.127 182.378C219.479 173.43 233.948 164.409 248.019 155.803C248.382 155.581 248.858 155.691 249.085 156.049C249.313 156.408 249.207 156.881 248.849 157.111C222.139 174.191 195.44 190.705 156.386 214.315C156.386 214.315 156.386 214.315 156.386 214.315C156.019 214.537 155.54 214.422 155.316 214.058ZM126.848 206.686C126.628 206.328 126.737 205.86 127.093 205.634C165.922 180.993 197.996 161.393 229.493 142.145C235.87 138.248 242.223 134.366 248.604 130.459C248.969 130.236 249.446 130.346 249.673 130.707C249.9 131.067 249.791 131.541 249.43 131.769C240.714 137.255 231.948 142.809 223.169 148.371C221.837 149.215 220.504 150.06 219.171 150.904C228.866 144.973 238.681 139.063 248.553 133.266C248.918 133.052 249.388 133.167 249.611 133.525C249.834 133.883 249.727 134.353 249.371 134.581C235.472 143.469 220.927 152.4 199.836 165.35C184.019 175.062 164.521 187.034 138.853 202.944C136.485 204.418 134.141 205.872 131.822 207.305C131.457 207.53 130.978 207.42 130.75 207.058C130.523 206.696 130.634 206.22 130.998 205.994C130.998 205.994 130.999 205.993 130.999 205.993C133.388 204.51 135.727 203.06 138.016 201.641C144.677 197.495 151.527 193.193 158.536 188.781C148.187 195.075 137.954 201.167 127.903 206.953C127.537 207.164 127.068 207.045 126.848 206.686ZM146.275 211.34C146.045 210.98 146.151 210.504 146.513 210.274C153.236 206.009 159.659 201.996 165.827 198.185C168.165 196.724 170.509 195.26 172.859 193.793C164.537 198.81 155.247 204.315 144.749 210.41C144.384 210.622 143.916 210.506 143.694 210.149C143.471 209.792 143.576 209.325 143.93 209.096C148.364 206.227 153.549 202.959 159.319 199.37C153.123 203.034 147.364 206.35 142.159 209.236C141.789 209.44 141.323 209.315 141.108 208.953C140.894 208.59 141.01 208.125 141.37 207.904C171.293 189.537 192.008 176.626 208.617 166.274C223.49 157.004 235.072 149.786 247.027 142.538C247.39 142.318 247.864 142.428 248.091 142.786C248.318 143.143 248.214 143.615 247.858 143.845C232.332 153.89 216.709 163.908 201.878 173.25C211.7 167.237 221.933 160.953 232.208 154.572C237.126 151.518 242.053 148.441 246.95 145.361L247.367 146.014L247.772 146.673C242.857 149.651 238.071 152.663 233.097 155.843C229.679 158.028 226.172 160.293 222.475 162.681C218.252 165.408 213.779 168.297 208.904 171.412C221.928 163.373 235.054 155.33 248.216 147.353C248.578 147.134 249.05 147.242 249.278 147.596C249.506 147.951 249.407 148.421 249.054 148.655C233.274 159.112 217.178 168.828 199.171 179.699C189.011 185.832 178.243 192.333 166.579 199.541C160.12 203.577 153.707 207.593 147.347 211.579C146.985 211.806 146.505 211.699 146.275 211.34ZM152.752 212.894C152.521 212.541 152.617 212.07 152.968 211.834C158.932 207.822 164.943 203.826 171.007 199.854C164.138 204.033 157.514 208.075 151.239 211.947C150.876 212.171 150.399 212.063 150.17 211.704C149.942 211.345 150.047 210.871 150.407 210.641C164.974 201.342 180.544 191.851 196.648 182.035L197.621 181.442C214.073 171.414 231.073 161.042 248.137 150.178C248.498 149.949 248.977 150.052 249.211 150.409C249.444 150.765 249.342 151.242 248.984 151.475C244.739 154.235 240.453 156.986 236.148 159.722C240.107 157.454 244.094 155.203 248.111 152.97C248.482 152.765 248.95 152.892 249.164 153.256C249.378 153.621 249.258 154.088 248.894 154.306C229.318 166.054 209.467 178.447 188.08 191.801C177.119 198.644 165.755 205.739 153.816 213.129C153.456 213.352 152.983 213.247 152.752 212.894ZM134.642 207.416C134.42 207.054 134.533 206.582 134.895 206.358C147.957 198.301 160.188 190.782 171.781 183.656C200.256 166.151 224.876 151.017 248.465 136.096C248.826 135.867 249.306 135.972 249.538 136.33C249.77 136.688 249.666 137.165 249.306 137.396C233.898 147.286 218.308 157.144 203.019 166.677C204.427 165.832 205.801 165.009 207.144 164.206C209.836 162.596 212.402 161.066 214.861 159.6C221.97 155.361 228.189 151.652 233.997 148.073C238.532 145.225 242.819 142.494 247.071 139.735C247.429 139.502 247.91 139.601 248.146 139.955C248.382 140.31 248.286 140.787 247.93 141.024C243.659 143.86 239.363 146.584 234.819 149.385C225.304 155.36 214.699 161.852 201.053 170.205C185.491 179.73 165.976 191.676 139.617 208.034C139.255 208.259 138.778 208.152 138.548 207.795C138.318 207.437 138.422 206.963 138.779 206.732C147.111 201.349 154.753 196.476 161.796 192.033C152.76 197.511 144.023 202.75 135.705 207.678C135.339 207.895 134.864 207.779 134.642 207.416ZM10.473 173.212C10.2475 172.85 10.3583 172.376 10.721 172.15C53.8464 145.316 88.6771 123.968 118.806 105.502C129.941 98.6768 140.435 92.2455 150.467 86.0762C172.683 72.2389 194.705 58.4725 216.742 44.6909C217.105 44.4643 217.583 44.5711 217.814 44.9298C218.044 45.2885 217.939 45.7643 217.579 45.9944C196.47 59.4847 175.19 72.6912 151.299 87.3827C106.094 115.539 60.0885 143.991 11.5407 173.464C11.1755 173.686 10.6984 173.573 10.473 173.212ZM10.5378 170.396C10.3112 170.033 10.4233 169.557 10.7883 169.332C10.7884 169.332 10.7886 169.332 10.7887 169.332M10.5378 170.396C10.7645 170.758 11.2441 170.87 11.6092 170.645L10.5378 170.396ZM135.91 91.9334C164.775 74.0172 190.182 58.2474 215.492 42.6879C215.856 42.4641 216.334 42.5745 216.562 42.9349C216.789 43.2953 216.681 43.7703 216.319 43.9977C168.734 73.8984 121.527 102.961 62.8783 139.069C53.597 144.783 44.0291 150.673 34.1278 156.772C26.8634 161.252 19.3643 165.872 11.6092 170.645M135.91 91.9334C106.484 110.198 73.4645 130.692 33.2896 155.469L135.91 91.9334ZM33.2896 155.469C25.9784 159.972 18.4854 164.588 10.7916 169.33L33.2896 155.469ZM10.6016 167.576C10.3769 167.213 10.4917 166.737 10.858 166.514C10.8581 166.514 10.8582 166.514 10.8582 166.514C10.8864 166.497 10.9145 166.48 10.9426 166.462C68.6041 131.36 134.999 90.0199 203.074 47.6334C206.35 45.5938 209.63 43.5518 212.912 41.508C213.276 41.2815 213.756 41.3906 213.985 41.7518C214.213 42.113 214.104 42.5897 213.74 42.8167C204.949 48.305 196.033 53.8891 186.688 59.7419C145.438 85.5763 95.8283 116.646 11.6717 167.831C11.3054 168.054 10.8263 167.94 10.6016 167.576ZM11.9927 163.95C11.7646 163.591 11.8709 163.117 12.2308 162.888C97.8622 108.416 154.23 73.1626 210.354 40.3148C210.721 40.0999 211.194 40.2184 211.415 40.5804C211.636 40.9425 211.522 41.4134 211.16 41.6367C192.075 53.409 172.809 65.3633 150.81 79.0135C115.472 100.94 73.0819 127.242 13.0612 164.195C12.6979 164.419 12.2208 164.31 11.9927 163.95ZM13.3767 160.316C13.149 159.954 13.2588 159.478 13.6223 159.252C48.2019 137.693 78.8348 118.628 107.264 101.007C111.433 98.4014 115.444 95.8934 119.312 93.4751C158.751 68.817 183.271 53.4867 207.777 39.1327C208.145 38.9174 208.619 39.0365 208.84 39.3996C209.06 39.7628 208.945 40.2344 208.581 40.4564C176.263 60.184 143.934 80.0996 108.105 102.308C83.402 117.747 53.1603 136.618 14.4481 160.562C14.0838 160.787 13.6045 160.677 13.3767 160.316ZM14.7629 156.682C14.535 156.321 14.6442 155.845 15.0069 155.618C52.1547 132.363 81.2931 114.153 105.146 99.3045C109.452 96.6077 113.733 93.9287 117.995 91.2661C113.061 94.2713 108.201 97.2255 103.428 100.123C75.6682 117.438 47.5361 134.912 18.5347 152.481C18.1726 152.7 17.7001 152.591 17.4725 152.236C17.2448 151.88 17.3459 151.409 17.6997 151.177C34.9752 139.835 60.0857 124.604 89.2878 106.892C91.7562 105.395 94.2538 103.88 96.7784 102.348C98.7078 101.177 100.653 99.9966 102.613 98.8065C108.012 95.4391 113.397 92.0777 118.771 88.7225C146.806 71.2218 174.566 53.8927 202.614 36.7759C202.977 36.5543 203.453 36.6642 203.68 37.0223C203.907 37.3804 203.802 37.8535 203.444 38.0831C194.663 43.7161 185.866 49.2906 177.118 54.7821C186.449 49.1245 195.792 43.5194 205.2 37.9527C205.568 37.7346 206.045 37.8539 206.266 38.2193C206.486 38.5847 206.367 39.0584 206 39.2782C179.289 55.2539 152.835 71.4431 105.98 100.61C99.4403 104.706 92.8443 108.844 86.1755 113.027C63.7612 127.088 40.5245 141.664 15.8338 156.928C15.4698 157.153 14.9908 157.043 14.7629 156.682ZM18.858 148.603C18.6283 148.245 18.7333 147.769 19.093 147.539C33.5983 138.262 52.8749 126.123 75.1906 112.225C57.7045 122.975 39.7905 133.942 21.308 145.213C20.9427 145.436 20.4646 145.323 20.2389 144.961C20.0132 144.599 20.1248 144.124 20.4886 143.899C47.3919 127.248 70.7233 112.709 91.9875 99.4591C130.509 75.4551 162.247 55.6786 196.145 35.2276C196.51 35.0075 196.985 35.1204 197.21 35.4806C197.435 35.8409 197.326 36.3139 196.966 36.5406C177.039 49.0686 156.981 61.6061 136.533 74.3138C156.588 62.0061 177.576 49.2067 198.72 36.4106C198.72 36.4105 198.72 36.4104 198.72 36.4103C199.087 36.1883 199.566 36.3035 199.79 36.6677C200.014 37.0318 199.898 37.5071 199.531 37.7294C154.617 64.962 109.842 92.8484 51.3673 129.267C41.3159 135.527 30.8596 142.039 19.9282 148.844C19.5658 149.069 19.0877 148.962 18.858 148.603ZM22.9481 140.517C22.7201 140.156 22.8284 139.681 23.1906 139.453C62.4845 114.757 93.5842 95.6734 120.441 79.2328C122.683 77.8609 124.894 76.5075 127.078 75.1707C140.252 67.1084 152.433 59.6533 164.127 52.4261C173.518 46.5815 182.903 40.7212 192.236 34.8686C192.599 34.6411 193.079 34.7482 193.309 35.108C193.539 35.4678 193.432 35.9444 193.07 36.1734C183.84 42.0144 174.56 47.7988 164.953 53.7363C134.119 72.9266 103.225 91.949 73.9459 109.977C56.6229 120.644 39.8649 130.962 24.0187 140.762C23.6549 140.987 23.1762 140.877 22.9481 140.517ZM25.6517 136.061C25.4264 135.699 25.539 135.224 25.9035 134.999C33.4005 130.381 40.5407 125.984 47.355 121.787C117.759 78.4247 153.374 56.4898 188.339 34.5049C188.7 34.2775 189.179 34.383 189.41 34.741C189.642 35.099 189.538 35.575 189.179 35.8061C143.864 64.9534 97.995 92.9555 26.7207 136.315C26.3551 136.537 25.8769 136.424 25.6517 136.061ZM29.6797 130.793C29.455 130.431 29.5672 129.957 29.9307 129.732C53.0192 115.46 73.8732 102.426 93.2984 90.2855C127.026 69.2059 156.447 50.8183 185.778 33.3133C186.141 33.0965 186.612 33.2083 186.838 33.5648C187.063 33.9213 186.96 34.3913 186.606 34.6218C140.41 64.664 93.6763 93.0142 30.7471 131.048C30.3814 131.269 29.9043 131.155 29.6797 130.793ZM32.3868 126.345C32.1599 125.983 32.2715 125.507 32.6361 125.281C41.4263 119.849 49.6735 114.747 57.4366 109.943C68.7086 102.952 79.9617 95.951 91.2285 88.9418C94.5685 86.864 97.9097 84.7854 101.253 82.7061C82.979 93.8705 61.8119 106.676 36.1587 122.147C35.7931 122.368 35.3165 122.254 35.092 121.892C34.8675 121.53 34.9792 121.056 35.3421 120.831C61.5251 104.603 83.4613 91.1235 102.85 79.2096C131.654 61.5101 154.836 47.2655 177.966 32.5942C178.326 32.3658 178.804 32.4685 179.037 32.8242C179.271 33.1799 179.171 33.6555 178.815 33.8896C169.058 40.3 159.235 46.629 148.676 53.3074C159.669 46.5276 170.726 39.7418 181.876 32.9512C182.242 32.7283 182.721 32.8421 182.946 33.2055C183.171 33.5688 183.057 34.0444 182.691 34.2679C182.691 34.2681 182.69 34.2683 182.69 34.2684M32.3868 126.345C32.6138 126.707 33.0934 126.818 33.4583 126.594L32.3868 126.345ZM33.4583 126.594C41.7504 121.482 50.0182 116.366 58.2748 111.245L33.4583 126.594ZM58.2748 111.245C81.2916 96.9994 100.05 85.3606 116.08 75.4143C143.802 58.2138 163.366 46.075 182.688 34.2695M39.1186 116.623C38.8959 116.262 39.0078 115.79 39.3694 115.565C60.4477 102.472 77.8524 91.686 92.556 82.5895C96.172 80.2816 99.7628 77.9841 103.334 75.699C105.334 74.4196 107.327 73.1442 109.315 71.8729C114.394 68.6262 119.439 65.4072 124.468 62.2219C106.858 73.2601 88.9189 84.4814 70.1905 95.9335C60.3832 102.095 51.2262 107.69 42.8749 112.44C42.5048 112.651 42.0328 112.526 41.8168 112.161C41.6007 111.795 41.7211 111.326 42.0868 111.107C51.3912 105.557 60.4665 100.064 69.3628 94.6245C77.7317 89.3663 86.581 83.6902 95.8184 77.7653C97.6356 76.5996 99.4679 75.4244 101.314 74.2408C112.03 67.3727 123.224 60.2259 134.754 53.0553C125.619 58.6846 116.423 64.2983 107.172 69.9424L105.257 71.1107C85.6074 83.098 65.7102 95.2364 45.6136 107.971C45.2529 108.199 44.7739 108.096 44.5414 107.739C44.3088 107.382 44.41 106.906 44.7679 106.673C69.95 90.2873 111.574 64.8841 156.755 37.3093C159.917 35.3798 163.096 33.4397 166.288 31.4913C166.651 31.2695 167.127 31.3796 167.354 31.7383C167.582 32.097 167.476 32.5703 167.117 32.7994C158.979 37.9935 150.785 43.13 142.539 48.243C152.451 42.1567 162.581 36.0944 172.845 30.2122C173.212 30.0013 173.683 30.1224 173.901 30.4843C174.12 30.8461 174.006 31.3149 173.645 31.5375C162.841 38.2042 152.077 44.924 141.243 51.7086C152.56 44.7062 163.889 37.9106 175.425 31.392C175.793 31.1842 176.261 31.3064 176.478 31.6672C176.695 32.0279 176.583 32.4948 176.224 32.7181C165.046 39.678 154.074 46.442 139.686 55.3117C127.461 62.8485 112.769 71.9057 93.3888 83.8953M48.5691 102.47C48.3391 102.116 48.4369 101.645 48.7891 101.41C54.466 97.6273 60.8054 93.4546 67.672 89.0004C62.735 91.999 57.6321 95.0813 52.3327 98.2623C51.9663 98.4822 51.4896 98.3668 51.2661 98.0041C51.0426 97.6413 51.1562 97.1676 51.5203 96.944C55.2187 94.6733 59.1106 92.2865 63.1719 89.7958C68.7923 86.3491 74.7371 82.7034 80.9416 78.8913C72.753 83.8233 64.1789 88.7925 55.0122 93.8265C54.6445 94.0285 54.1816 93.904 53.9666 93.5454C53.7516 93.1868 53.8621 92.7237 54.2163 92.4992C69.7056 82.682 84.9006 73.3729 99.8849 64.1928C111.633 56.9957 123.251 49.878 134.78 42.6568C135.141 42.4307 135.618 42.5357 135.849 42.8921C136.081 43.2485 135.98 43.7232 135.623 43.956C132.708 45.8581 129.808 47.756 126.913 49.6511C116.478 56.4819 106.097 63.2777 95.2046 70.1139C106.756 62.9919 118.965 55.4281 131.48 47.6002C131.66 47.4869 131.841 47.3736 132.021 47.2604C136.444 44.4821 140.85 41.7141 145.28 38.9368C145.643 38.7092 146.123 38.8167 146.353 39.1769C146.583 39.5372 146.476 40.014 146.113 40.2425C142.447 42.5526 138.796 44.8461 135.168 47.1187C142.414 42.8366 149.76 38.5708 157.129 34.3829C157.497 34.1739 157.965 34.2955 158.183 34.6564C158.401 35.0173 158.288 35.4848 157.929 35.7082C117.22 61.036 76.4024 86.2517 49.6329 102.708C49.2723 102.93 48.7991 102.824 48.5691 102.47ZM57.9987 88.2859C57.7824 87.9336 57.8829 87.4748 58.2272 87.2438C64.0523 83.3349 69.5129 79.7825 74.7137 76.4823C71.6714 78.3362 68.3446 80.3215 64.6063 82.5039C63.2645 83.2969 61.8759 84.1031 60.4356 84.9219C60.0634 85.1334 59.5889 85.0061 59.3746 84.6371C59.1603 84.2681 59.287 83.7967 59.658 83.5831C61.0996 82.7528 62.4831 81.9505 63.8142 81.1735C69.2188 77.9792 73.8653 74.9971 78.0982 72.2535C78.6026 71.9266 79.1013 71.6029 79.5949 71.2826C84.2611 68.2543 88.4681 65.5239 92.6813 63.1519C93.0452 62.947 93.5073 63.0646 93.7273 63.4181C93.9474 63.7716 93.8464 64.2345 93.4989 64.4658C90.4358 66.5047 87.4068 68.4997 84.1504 70.5865C89.1608 67.5028 93.9692 64.6131 98.6867 61.807C103.582 58.7491 108.61 55.7343 113.752 52.8922C114.124 52.6869 114.593 52.8158 114.805 53.1815C115.018 53.5473 114.895 54.0146 114.53 54.2308C112.592 55.3786 110.66 56.5198 108.726 57.6625C105.668 59.469 102.603 61.2793 99.5 63.1249C94.5621 66.2098 89.752 69.3431 85.0827 72.3943C84.7072 72.6397 84.3325 72.8845 83.9588 73.1288C75.1019 78.9178 66.7489 84.3774 59.0366 88.562C58.672 88.7598 58.2151 88.6383 57.9987 88.2859Z" fill="#C3C8E1"/>
<path fill-rule="evenodd" clip-rule="evenodd" d="M139.623 207.086C149.08 208.839 158.152 213.781 166.929 219.824C172.507 223.663 178.019 227.988 183.451 232.25C186.552 234.684 189.628 237.097 192.674 239.387C201.099 245.721 209.342 251.151 217.554 253.775C225.718 256.384 233.837 256.217 242.101 251.366C257.697 240.898 258.853 223.157 256.105 202.777C255.177 195.903 253.816 188.792 252.441 181.607C251.779 178.151 251.114 174.678 250.493 171.206C248.588 160.559 247.099 149.958 247.44 140.098C247.185 133.891 247.506 127.723 247.926 121.65C248.023 120.254 248.125 118.864 248.227 117.479C248.568 112.82 248.905 108.225 249.023 103.687C249.33 91.9365 248.163 80.7108 241.865 70.1999C228.197 50.1045 206.92 36.7382 182.138 33.8688L182.133 33.8683C171.769 32.6052 161.552 35.0203 151.277 38.874C146.142 40.8002 141.007 43.0794 135.841 45.4276C134.909 45.8516 133.975 46.2779 133.039 46.7048C128.809 48.6359 124.554 50.5781 120.279 52.3644C114.616 55.1065 108.945 57.5713 103.417 59.9741C102.604 60.3274 101.794 60.6793 100.988 61.0307C94.6847 63.7771 88.5983 66.484 82.9118 69.4926C71.5432 75.5076 61.8337 82.6984 55.2951 93.7148C55.2867 93.729 55.2778 93.7429 55.2685 93.7566C52.5533 97.7261 49.6085 101.876 46.5676 106.161C36.6976 120.069 25.8158 135.404 18.4932 150.629C8.91196 170.55 5.59247 189.941 18.3 205.533L18.3128 205.549L18.3126 205.549C24.3811 213.408 32.3643 216.909 41.625 217.868C50.9213 218.832 61.4742 217.23 72.6054 214.881C76.5818 214.042 80.6382 213.105 84.731 212.16C92.0429 210.472 99.4708 208.757 106.766 207.522C118.161 205.592 129.379 204.8 139.623 207.086ZM17.0838 206.497C23.4636 214.754 31.874 218.411 41.464 219.405C51.0215 220.396 61.7804 218.746 72.9297 216.392C76.9691 215.54 81.0536 214.597 85.1577 213.649C92.4337 211.969 99.7714 210.274 107.028 209.045C118.357 207.126 129.343 206.373 139.296 208.597C139.305 208.599 139.315 208.601 139.324 208.602C148.463 210.294 157.323 215.09 166.043 221.093C171.588 224.911 177.022 229.175 182.422 233.413C185.533 235.854 188.632 238.286 191.734 240.618C200.175 246.964 208.596 252.536 217.078 255.246C225.601 257.97 234.199 257.807 242.914 252.684C242.927 252.676 242.94 252.668 242.953 252.659C259.392 241.64 260.401 222.992 257.647 202.573C256.714 195.657 255.339 188.473 253.96 181.265C253.3 177.819 252.639 174.367 252.025 170.936C250.121 160.297 248.658 149.82 248.996 140.123C248.997 140.103 248.997 140.084 248.996 140.064C248.743 133.936 249.059 127.828 249.479 121.757C249.575 120.375 249.676 118.994 249.777 117.616C250.119 112.949 250.46 108.306 250.579 103.728C250.889 91.8536 249.72 80.2751 243.191 69.3909C243.183 69.3784 243.175 69.3661 243.167 69.354C229.255 48.8891 207.576 35.2596 182.321 32.3345C171.595 31.0275 161.101 33.5374 150.727 37.4285C145.538 39.3747 140.362 41.673 135.193 44.0227C134.255 44.4489 133.318 44.8767 132.381 45.3045C128.145 47.2381 123.911 49.1706 119.655 50.9485C119.641 50.954 119.628 50.96 119.615 50.9662C113.977 53.6971 108.331 56.151 102.794 58.5575C101.981 58.911 101.17 59.2635 100.362 59.6157C94.0589 62.362 87.9236 65.0897 82.1793 68.1289C70.6933 74.206 60.7099 81.5594 53.9668 92.9085C51.2883 96.8241 48.3713 100.934 45.3506 105.19C35.4673 119.117 24.4738 134.607 17.0886 149.963C7.44632 170.011 3.78642 190.173 17.0838 206.497Z" fill="#C3C8E1"/>
</g>
</svg>
