<svg width="368" height="396" viewBox="0 0 368 396" fill="none" xmlns="http://www.w3.org/2000/svg">
<g opacity="0.15">
<path fill-rule="evenodd" clip-rule="evenodd" d="M301.14 303.929C300.642 304.175 300.039 303.978 299.785 303.485C271.247 248.266 243.933 190.212 216.837 132.624C201.541 100.114 186.314 67.7512 170.977 36.1313C170.733 35.6282 170.942 35.0226 171.444 34.7761C171.946 34.5296 172.554 34.7348 172.803 35.2354C210.65 111.244 247.062 187.67 301.607 302.583C301.845 303.084 301.637 303.683 301.14 303.929ZM299.26 309.343C298.754 309.585 298.148 309.371 297.905 308.865C284.969 281.883 273.391 257.597 262.88 235.488C239.591 186.935 220.317 147.224 202.924 111.39C190.35 85.4845 178.759 61.605 167.346 37.8756C167.105 37.3746 167.312 36.7732 167.81 36.5256C168.308 36.2781 168.913 36.4763 169.167 36.9705C191.737 80.8097 212.821 125.255 243.638 190.218C250.191 204.031 257.184 218.772 264.725 234.633C275.473 257.04 287.075 281.331 299.741 307.99C299.982 308.497 299.767 309.102 299.26 309.343ZM297.392 314.752C296.887 314.991 296.282 314.778 296.04 314.274C272.158 264.561 251.063 220.913 231.515 180.468C207.327 130.423 185.509 85.2811 163.714 39.6176C163.474 39.1131 163.686 38.5089 164.189 38.2655C164.693 38.022 165.299 38.2308 165.545 38.7326C207.236 123.652 248.058 207.011 297.878 313.403C298.115 313.91 297.898 314.512 297.392 314.752ZM295.531 320.159C295.024 320.402 294.417 320.189 294.174 319.684C278.78 287.679 263.183 255.76 247.574 223.819C218.012 163.322 188.41 102.746 160.079 41.353C159.847 40.8498 160.061 40.2534 160.561 40.0125C161.06 39.7715 161.661 39.9748 161.911 40.4695C184.422 85.0243 206.117 130.532 239.61 200.785C255.363 233.826 273.724 272.341 296.008 318.804C296.25 319.31 296.037 319.917 295.531 320.159ZM294.143 324.21C294.387 324.715 294.175 325.322 293.67 325.566C293.165 325.81 292.557 325.6 292.312 325.095C292.311 325.094 292.311 325.094 292.311 325.093C285.107 310.266 277.651 294.951 270.003 279.242C234.344 205.992 194.505 124.155 156.451 43.1039C156.214 42.5984 156.43 41.9962 156.934 41.7555C157.438 41.5147 158.042 41.7256 158.287 42.2276C190.043 107.442 221.096 172.157 249.274 230.881C265.293 264.263 280.382 295.709 294.143 324.21ZM291.81 330.971C291.308 331.218 290.7 331.013 290.451 330.512C275.794 301.132 262.733 274.658 250.909 250.467C262.718 275.529 275.772 303.459 290.417 335.041C290.652 335.548 290.434 336.149 289.928 336.388C289.423 336.626 288.819 336.412 288.578 335.908C262.155 280.867 238.121 231.065 215.398 183.99L211.966 176.879C190.513 132.437 170.192 90.3385 150.078 48.4365C149.837 47.9342 150.046 47.3314 150.546 47.0854C151.047 46.8393 151.652 47.0417 151.903 47.539C165.038 73.5358 177.966 99.2617 192.655 129.156C187.401 118.038 182.359 107.34 177.441 96.903C169.982 81.0744 162.806 65.8478 155.602 50.6761C154.97 49.3455 154.338 48.0153 153.706 46.6855C153.465 46.1786 153.681 45.5726 154.188 45.3319C154.696 45.0911 155.302 45.3068 155.543 45.8136C155.543 45.8137 155.543 45.8138 155.543 45.8139C155.545 45.8169 155.546 45.8198 155.548 45.8228C156.176 47.145 156.805 48.4671 157.433 49.7897C198.889 137.009 241.854 225.809 292.276 329.615C292.52 330.118 292.312 330.724 291.81 330.971ZM301.23 294.864C300.725 295.107 300.119 294.896 299.874 294.392C283.886 261.473 260.279 212.634 233.522 157.059C213.56 115.935 194.462 76.4662 175.485 36.2064C175.246 35.6999 175.462 35.0957 175.969 34.8556C176.475 34.6154 177.08 34.8296 177.322 35.3347C197.188 76.8103 217.012 118.077 235.355 156.178C238.039 161.706 240.738 167.264 243.454 172.858C261.877 210.795 281.104 250.388 301.707 293.51C301.948 294.016 301.735 294.621 301.23 294.864ZM287.185 339.963C286.678 340.204 286.072 339.99 285.83 339.485C268.859 304.046 251.177 267.717 233.257 230.898C204.578 171.975 175.288 111.797 147.326 52.0047C147.09 51.4998 147.305 50.8991 147.808 50.6582C148.311 50.4173 148.914 50.6261 149.16 51.1263C204.099 162.843 257.96 276.051 287.665 338.607C287.665 338.608 287.665 338.609 287.666 338.61C287.906 339.117 287.691 339.722 287.185 339.963ZM302.207 287.628C301.699 287.867 301.093 287.65 300.854 287.142C254.008 187.969 225.98 130.595 203.605 84.7922C195.169 67.5233 187.536 51.8994 180.002 36.3005C179.758 35.7962 179.969 35.1901 180.473 34.9451C180.977 34.7001 181.584 34.9086 181.831 35.4113C218.768 110.662 254.408 183.456 302.694 286.277C302.933 286.785 302.715 287.389 302.207 287.628ZM305.062 274.977C304.557 275.219 303.952 275.008 303.707 274.505C275.428 216.326 255.252 173.657 239.352 139.946C223.092 106.261 206.138 71.3756 189.028 36.474C188.783 35.9753 188.985 35.3728 189.48 35.1212C189.976 34.8695 190.582 35.0618 190.841 35.5531C205.301 62.9659 218.348 90.6346 237.913 132.125C238.987 134.404 240.081 136.724 241.196 139.087C264.616 187.605 286.598 233.631 305.541 273.626C305.781 274.132 305.566 274.735 305.062 274.977ZM284.44 343.539C283.936 343.782 283.33 343.571 283.085 343.068C259.457 294.529 240.056 254.934 223.772 221.7C184.368 141.282 163.212 98.1065 144.569 55.5595C144.346 55.0508 144.573 54.4574 145.079 54.2272C145.585 53.997 146.182 54.2152 146.419 54.7172C165.033 94.0237 184.254 133.619 205.723 177.845C228.834 225.454 254.551 278.429 284.918 342.187C285.159 342.692 284.945 343.296 284.44 343.539ZM303.2 280.384C302.698 280.626 302.094 280.419 301.846 279.919C265.652 206.742 222.788 119.338 184.507 36.3677C184.273 35.8604 184.493 35.2594 184.999 35.0222C185.505 34.785 186.108 35.0005 186.349 35.5047C196.898 57.6068 207.541 79.4174 219.62 104.169C240.808 147.59 266.413 200.062 303.678 279.036C303.916 279.54 303.703 280.142 303.2 280.384ZM306.045 267.738C305.542 267.978 304.94 267.769 304.694 267.269C287.678 232.665 271.339 198.146 255.149 163.94C248.386 149.652 241.649 135.419 234.9 121.257C234.779 121.012 234.659 120.767 234.538 120.522C230.099 111.496 225.968 103.136 222.078 95.2635C210.795 72.4307 201.539 53.6986 192.651 34.7128C192.415 34.2098 192.628 33.611 193.127 33.3683C193.627 33.1255 194.23 33.3287 194.48 33.8244C208.828 62.2437 222.799 91.143 236.719 120.347C253.989 155.466 275.936 200.679 306.529 266.393C306.764 266.898 306.548 267.498 306.045 267.738ZM282.17 345.768C282.409 346.275 282.192 346.879 281.685 347.119C281.179 347.358 280.574 347.143 280.332 346.638C272.263 329.738 264.224 312.874 256.197 296.033C248.597 280.088 241.007 264.164 233.409 248.25C211.491 202.716 187.659 153.601 163.432 103.674C155.962 88.2796 148.455 72.8077 140.954 57.3398C140.71 56.8363 140.919 56.2302 141.422 55.9841C141.925 55.738 142.533 55.9446 142.781 56.4461C174.444 120.411 204.905 183.821 235.245 247.375C252.281 282.768 268.161 316 282.17 345.768ZM307.025 260.502C306.517 260.742 305.911 260.525 305.671 260.018C305.628 259.927 305.584 259.835 305.541 259.743C292.87 232.976 275.932 198.002 256.961 158.83C246.864 137.983 236.193 115.947 225.282 93.3268C215.624 73.4633 206.743 55.07 198.046 36.6309C197.807 36.1242 198.024 35.5198 198.53 35.2796C199.037 35.0395 199.642 35.2542 199.884 35.7596C208.997 54.8241 218.138 73.835 227.118 92.4531C230.962 100.359 234.929 108.499 239.056 116.968C241.048 121.054 243.077 125.218 245.147 129.468C262.292 164.664 282.286 205.856 307.51 259.149C307.75 259.656 307.533 260.262 307.025 260.502ZM309.87 247.856C309.362 248.094 308.757 247.876 308.518 247.368C308.518 247.367 308.518 247.367 308.517 247.366C305.481 240.914 302.528 234.656 299.652 228.58C285.715 199.316 272.463 172.691 259.937 147.528C259.742 147.135 259.546 146.742 259.351 146.35C275.096 178.998 291.245 213.524 308.501 251.927C308.728 252.433 308.507 253.028 308.004 253.264C307.501 253.499 306.902 253.287 306.659 252.788C256.952 150.779 233.424 101.431 214.606 61.9593C210.438 53.2171 206.501 44.9593 202.561 36.7211C202.321 36.2192 202.53 35.6177 203.029 35.3716C203.529 35.1256 204.133 35.3265 204.385 35.8224C212.823 52.4051 221.139 68.8531 229.442 85.4728C221.93 69.7653 214.759 54.2593 207.941 38.604C207.719 38.0953 207.947 37.5031 208.452 37.2735C208.958 37.0438 209.554 37.2616 209.792 37.7628C219.619 58.4567 229.751 79.1992 241.254 102.75C257.551 136.117 276.602 175.12 301.442 227.608C304.383 233.784 307.356 240.079 310.36 246.506C310.598 247.014 310.378 247.618 309.87 247.856ZM279.419 349.336C279.662 349.841 279.451 350.447 278.946 350.692C278.441 350.936 277.834 350.727 277.588 350.223C277.588 350.222 277.587 350.22 277.587 350.219M215.322 221.93C182.982 155.522 159.825 107.969 138.198 60.8981C137.965 60.3921 138.183 59.7934 138.687 59.5554C139.191 59.3175 139.793 59.529 140.036 60.0298C168.116 117.743 195.951 175.804 221.125 228.314C233.031 253.149 244.342 276.743 254.802 298.47C262.538 314.419 270.724 331.329 279.419 349.336M215.322 221.93C226.646 245.184 239.095 270.748 252.999 299.414L215.322 221.93ZM252.999 299.414C261.862 317.825 270.111 334.888 277.586 350.218L252.999 299.414ZM276.198 354.268C275.694 354.511 275.088 354.302 274.842 353.8C207.398 216.114 172.797 143.204 140.65 75.4644C138.617 71.1794 136.593 66.9151 134.572 62.6564C134.331 62.1494 134.547 61.5435 135.055 61.3029C135.562 61.0623 136.168 61.2782 136.409 61.785C136.409 61.7851 136.409 61.7852 136.409 61.7853C136.411 61.7883 136.412 61.7912 136.414 61.7942C156.707 104.511 177.012 146.417 199.721 193.286C222.233 239.746 247.106 291.081 276.673 352.915C276.914 353.42 276.702 354.024 276.198 354.268ZM273.448 357.847C272.945 358.088 272.342 357.879 272.096 357.38C258.676 330.153 239.86 290.791 218.058 245.183C191.926 190.518 161.506 126.88 130.949 64.4151C130.949 64.4142 130.948 64.4133 130.948 64.4125C130.702 63.9088 130.91 63.3009 131.414 63.054C131.918 62.807 132.526 63.0144 132.774 63.5173C188.945 177.523 243.794 291.959 273.93 356.501C274.165 357.006 273.95 357.606 273.448 357.847ZM309.098 236.949C308.593 237.192 307.986 236.98 307.742 236.475C301.562 223.677 295.27 210.628 288.886 197.372C280.642 180.43 272.832 164.55 265.384 149.406C246.363 110.733 229.704 76.8619 214.221 42.3598C213.994 41.8529 214.216 41.2574 214.72 41.0229C215.224 40.7884 215.823 41.0019 216.065 41.5022C233.256 77.0794 250.262 112.424 266.805 146.807C274.89 163.611 282.865 180.186 290.697 196.446C296.745 208.876 303.029 221.883 309.576 235.596C309.818 236.101 309.604 236.707 309.098 236.949ZM270.699 361.425C270.193 361.667 269.586 361.453 269.344 360.948C264.41 350.679 259.357 340.209 254.204 329.558C247.518 315.798 239.994 300.397 231.842 283.711C202.222 223.078 164.311 145.475 128.192 67.9727C127.955 67.4643 128.175 66.8604 128.684 66.623C129.192 66.3857 129.797 66.6048 130.035 67.1125C161.389 133.992 193.84 200.704 224.295 263.314C235.168 285.666 245.786 307.494 256.01 328.621C261.718 340.37 266.818 350.926 271.179 360.071C271.42 360.577 271.205 361.183 270.699 361.425ZM309.214 227.872C308.717 228.12 308.112 227.924 307.856 227.431C286.883 187.065 265.315 141.411 243.653 95.3103C234.64 76.7241 227.433 61.5497 220.497 46.1077C220.269 45.5993 220.493 45.0019 220.999 44.7687C221.506 44.5355 222.106 44.7535 222.344 45.2573C228.651 58.5901 234.962 72.0267 241.267 85.449C242.677 88.4504 244.087 91.4512 245.496 94.4499C250.208 104.168 255.416 114.821 261.339 126.938C273.679 152.184 289.126 183.785 309.676 226.523C309.916 227.023 309.711 227.624 309.214 227.872ZM267.955 365.001C267.45 365.244 266.844 365.034 266.599 364.531C225.018 279.255 194.154 214.816 166.087 156.217C152.176 127.173 138.952 99.5635 125.45 71.5622C125.207 71.0571 125.419 70.4503 125.924 70.2063C126.429 69.9622 127.037 70.1732 127.282 70.6777C180.065 179.445 232.656 288.843 268.43 363.647C268.672 364.152 268.459 364.757 267.955 365.001ZM309.299 218.811C308.794 219.051 308.189 218.838 307.946 218.335C292.566 186.471 280.153 160.958 269.686 139.444C265.58 131.004 261.773 123.18 258.204 115.83C246.721 92.4893 236.42 71.2946 226.775 49.8544C226.546 49.3441 226.772 48.7445 227.282 48.5128C227.792 48.2812 228.393 48.5047 228.627 49.0129C237.95 69.2585 247.537 89.2026 260.054 114.983C262.208 119.36 264.403 123.813 266.644 128.358C279.344 154.118 293.502 182.836 309.782 217.461C310.02 217.967 309.804 218.57 309.299 218.811ZM264.326 366.746C263.822 366.991 263.215 366.782 262.968 366.279C230.063 299.18 205.495 248.953 185.902 208.543C191.406 220.215 196.963 232.053 202.61 244.081C220.809 282.844 239.936 323.583 261.165 367.129M148.767 131.153C139.888 113.116 130.94 95.3692 121.771 77.8054C121.515 77.3142 120.912 77.1188 120.416 77.3661C119.919 77.6134 119.713 78.2122 119.951 78.7123C170.374 184.506 220.985 289.591 259.339 368.024C259.585 368.528 260.194 368.737 260.699 368.491C261.203 368.245 261.413 367.637 261.167 367.133C261.167 367.132 261.167 367.132 261.167 367.131M148.767 131.153C139.303 111.139 130.956 93.1844 122.692 75.1205C122.461 74.6142 122.68 74.0159 123.184 73.7787C123.688 73.5415 124.289 73.7536 124.532 74.2545C145.899 118.276 168.095 164.458 193.246 216.785C214.547 261.105 237.968 309.833 264.797 365.391C265.041 365.895 264.83 366.501 264.326 366.746M308.533 207.903C308.032 208.152 307.424 207.949 307.172 207.449C294.34 181.957 282.468 157.39 270.87 133.07C256.517 103.413 245.793 80.8174 234.82 57.2766C234.584 56.7699 234.801 56.1677 235.307 55.9288C235.813 55.69 236.417 55.9042 236.659 56.4082C243.851 71.4009 250.875 86.2145 257.888 101.007C262.814 111.393 267.734 121.77 272.703 132.19C282.633 152.708 294.301 176.608 308.994 206.545C309.24 207.047 309.034 207.654 308.533 207.903ZM257.93 372.077C257.42 372.312 256.816 372.09 256.58 371.581C256.58 371.581 256.58 371.58 256.58 371.58M257.93 372.077C258.439 371.842 258.662 371.239 258.427 370.729L257.93 372.077ZM193.546 240.419C169.869 191.819 143.418 137.527 117.203 82.2883C116.963 81.7831 117.177 81.1793 117.681 80.937C118.186 80.6948 118.791 80.9051 119.036 81.4078C168.922 183.733 218.335 285.423 248.255 348.971C251.913 356.708 255.314 363.978 258.427 370.729M193.546 240.419C213.824 282.041 232.068 319.487 246.388 349.778L193.546 240.419ZM246.388 349.778C250.096 357.654 253.505 364.944 256.578 371.576L246.388 349.778ZM254.317 373.816C253.812 374.06 253.206 373.851 252.96 373.348C197.413 259.829 163.93 189.598 134.864 128.632C127.889 114 121.167 99.9027 114.457 85.8684C114.215 85.3628 114.429 84.7571 114.934 84.5144C115.44 84.2717 116.046 84.4836 116.29 84.9881C122.254 97.3223 128.263 109.736 134.461 122.542C164.547 184.704 199.104 256.102 254.791 372.463C255.033 372.968 254.821 373.573 254.317 373.816ZM305.105 191.508C304.612 191.752 304.014 191.56 303.756 191.075C284.977 155.806 273.094 129.673 262.84 107.123C261.769 104.768 260.715 102.451 259.673 100.167C257.404 95.4762 255.361 91.0825 253.436 86.6328C253.215 86.123 253.445 85.5307 253.952 85.3028C254.459 85.0749 255.055 85.296 255.291 85.7991C257.354 90.2084 259.413 94.695 261.519 99.3118C264.074 104.593 266.923 110.264 270.229 116.844C271.206 118.788 272.223 120.812 273.284 122.928C281.112 138.545 291.321 159.177 305.578 190.173C305.807 190.672 305.598 191.264 305.105 191.508ZM249.804 373.731C249.301 373.974 248.696 373.766 248.449 373.266C215.968 307.447 191.314 255.176 170.016 210.019C162.845 194.817 156.056 180.421 149.475 166.586C136.1 139.093 123.915 114.256 111.714 89.456C111.468 88.955 111.672 88.3491 112.172 88.0991C112.671 87.8491 113.279 88.0488 113.533 88.5462C126.16 113.299 138.311 138.38 151.277 165.639C177.005 218.52 207.139 281.221 250.281 372.382C250.519 372.886 250.306 373.489 249.804 373.731ZM246.171 375.48C245.667 375.721 245.063 375.511 244.818 375.01C185.685 253.995 147.191 173.438 108.961 93.0212C108.721 92.5178 108.933 91.9156 109.434 91.6716C109.936 91.4276 110.54 91.6327 110.789 92.1314C151.057 172.776 190.77 255.033 246.653 374.132C246.89 374.638 246.675 375.239 246.171 375.48ZM242.543 377.224C242.037 377.467 241.43 377.256 241.186 376.751C217.611 328.011 198.388 288.48 182.112 255.008C148.294 185.463 127.196 142.076 106.206 96.5875C105.973 96.083 106.189 95.4851 106.691 95.2454C107.193 95.0056 107.794 95.2128 108.041 95.7106C129.699 139.363 150.614 183.08 179.646 243.763C197.165 280.382 217.64 323.179 243.018 375.868C243.261 376.373 243.049 376.98 242.543 377.224ZM238.922 378.967C238.419 379.215 237.811 379.01 237.561 378.509C178.815 260.575 139.937 180.687 103.456 100.159C103.225 99.6491 103.449 99.0491 103.958 98.8159C104.467 98.5827 105.069 98.8039 105.304 99.3109C137.639 168.796 170.105 236.079 239.385 377.609C239.632 378.112 239.424 378.719 238.922 378.967ZM234.404 378.884C233.9 379.129 233.293 378.921 233.046 378.418C190.573 291.962 144.823 198.325 100.713 103.746C100.477 103.24 100.694 102.638 101.199 102.399C101.704 102.159 102.308 102.372 102.551 102.875C105.014 107.978 107.474 113.071 109.967 118.235C135.088 170.258 163.655 229.418 234.876 377.53C235.118 378.035 234.907 378.64 234.404 378.884ZM229.892 378.799C229.39 379.043 228.784 378.837 228.536 378.337C189.189 299.102 143.436 203.499 97.9675 107.328C97.7285 106.823 97.9434 106.219 98.4484 105.978C98.9534 105.736 99.5586 105.948 99.8025 106.451L99.8067 106.46L101.88 110.74C138.374 186.062 173.336 258.221 230.364 377.447C230.605 377.951 230.394 378.554 229.892 378.799ZM225.383 378.713C224.885 378.956 224.284 378.757 224.031 378.264C205.501 342.192 178.198 284.821 147.307 219.912C130.713 185.043 113.084 147.999 95.2231 110.912C94.981 110.41 95.1899 109.806 95.691 109.56C96.192 109.314 96.798 109.517 97.0485 110.016C128.951 173.514 161.709 239.754 225.858 377.371C226.092 377.873 225.881 378.47 225.383 378.713ZM220.862 378.634C220.356 378.876 219.749 378.662 219.506 378.156C203.632 345.082 187.461 311.739 171.143 278.094C145.088 224.373 118.66 169.882 92.4724 114.483C92.2331 113.977 92.4488 113.373 92.9549 113.132C93.4609 112.891 94.0664 113.105 94.3089 113.609C104.409 134.638 114.675 155.833 126.512 180.269C149.127 226.96 177.474 285.482 221.34 377.278C221.34 377.278 221.341 377.279 221.341 377.279C221.583 377.785 221.368 378.391 220.862 378.634ZM216.338 378.554C215.83 378.788 215.229 378.57 214.99 378.065C187.993 320.807 156.574 256.006 124.208 189.25C116.349 173.04 108.434 156.715 100.513 140.355C96.9131 132.932 93.3154 125.497 89.729 118.066C89.4851 117.561 89.6973 116.953 90.203 116.71C90.7087 116.466 91.3166 116.677 91.5608 117.183C91.5609 117.183 91.561 117.183 91.5611 117.183M216.338 378.554C216.845 378.319 217.068 377.72 216.836 377.211L216.338 378.554ZM216.836 377.211C196.517 332.534 168.032 274.185 137.44 211.522L216.836 377.211ZM137.44 211.522C125.925 187.935 114.112 163.737 102.323 139.427L137.44 211.522ZM102.323 139.427C98.736 132.018 95.1477 124.602 91.5629 117.187L102.323 139.427ZM210.973 376.624C210.476 376.874 209.869 376.678 209.613 376.183C193.695 345.448 169.587 294.721 142.347 237.402C135.993 224.033 129.469 210.305 122.839 196.389C118.758 187.883 114.648 179.313 110.517 170.702C102.72 154.447 94.8518 138.044 86.9801 121.644C86.9795 121.643 86.979 121.642 86.9785 121.641C86.7359 121.136 86.9488 120.529 87.4542 120.286C87.9595 120.043 88.5666 120.254 88.811 120.759C100.873 145.664 112.954 170.912 124.698 195.562C157.166 263.237 187.745 326.876 211.43 375.27C211.675 375.77 211.471 376.374 210.973 376.624ZM205.557 374.717C205.05 374.957 204.444 374.741 204.203 374.234C204.203 374.233 204.203 374.233 204.202 374.232M205.557 374.717C206.064 374.478 206.282 373.873 206.042 373.365L205.557 374.717ZM152.251 266.315C131.148 222.766 107.424 173.808 84.23 125.216C83.9893 124.712 84.2013 124.108 84.7046 123.865C85.2079 123.621 85.8136 123.829 86.0605 124.33L86.0659 124.341L87.0525 126.345C110.273 173.498 134.098 221.879 198.617 357.724C201.265 363.274 203.746 368.499 206.042 373.365M152.251 266.315C169.381 301.666 184.784 333.452 196.776 358.588L152.251 266.315ZM196.776 358.588C199.193 363.677 201.667 368.889 204.2 374.228L196.776 358.588ZM199.285 370.97C198.779 371.211 198.173 370.999 197.93 370.495C157.467 286.654 119.812 208.491 81.4837 128.797C81.2405 128.291 81.4537 127.684 81.9598 127.441C82.466 127.197 83.0736 127.41 83.317 127.916C83.317 127.916 83.317 127.916 83.3171 127.916C83.32 127.922 83.3229 127.928 83.3258 127.934C91.9543 145.866 100.687 163.804 110.403 183.763C132.057 228.246 158.598 282.767 199.765 369.618C200.005 370.124 199.79 370.728 199.285 370.97ZM193.02 367.216C192.518 367.464 191.91 367.26 191.659 366.76C174.913 333.344 159.295 301.588 144.46 270.963C152.755 288.547 160.972 306.106 169.148 323.579C175.187 336.484 181.203 349.342 187.213 362.127C187.45 362.632 187.236 363.234 186.733 363.475C186.229 363.717 185.625 363.508 185.379 363.007C140.891 272.398 116.95 221.945 98.9728 184.059C90.4955 166.194 83.3444 151.123 75.99 135.954C75.7475 135.454 75.9523 134.852 76.4498 134.603C76.9472 134.354 77.5526 134.55 77.8084 135.044C84.0698 147.127 90.2443 159.277 96.345 171.473C90.1307 158.105 84.3259 145.247 78.7199 132.338C78.4984 131.828 78.7283 131.235 79.2358 131.007C79.7433 130.779 80.3399 131.001 80.5748 131.505C100.549 174.365 121.067 217.902 143.32 263.938C146.553 270.497 149.901 277.281 153.374 284.319C165.164 308.211 178.395 335.025 193.482 365.859C193.728 366.361 193.521 366.968 193.02 367.216ZM181.347 361.556C180.843 361.803 180.234 361.596 179.986 361.094C169.341 339.539 156.359 312.835 142.018 283.107C117.52 232.494 99.174 193.974 82.5396 159.047C79.3882 152.43 76.2982 145.942 73.2395 139.526C72.9981 139.019 73.2133 138.413 73.7204 138.171C74.2274 137.93 74.8342 138.145 75.0759 138.652C75.0832 138.667 75.0906 138.682 75.0979 138.698C98.8874 188.576 122.829 238.647 143.847 282.218C155.069 305.401 167.581 331.122 181.812 360.197C182.058 360.701 181.85 361.309 181.347 361.556ZM175.055 357.816C174.549 358.054 173.946 357.839 173.705 357.335C129.079 264.118 105.382 215.186 86.9488 177.123C81.1002 165.046 75.7815 154.063 70.4922 143.107C70.2484 142.602 70.4602 141.995 70.9654 141.751C71.4706 141.507 72.0783 141.717 72.3232 142.222C80.5365 159.139 88.7564 176.033 96.8366 192.639C127.913 256.509 156.923 316.132 175.546 356.471C175.78 356.978 175.561 357.579 175.055 357.816ZM167.912 352.23C167.411 352.477 166.804 352.272 166.554 351.773C133.19 285.09 104.985 225.439 77.7262 167.788C74.3863 160.724 71.0606 153.69 67.7413 146.677C67.5016 146.171 67.7173 145.566 68.2235 145.326C68.7297 145.085 69.3354 145.299 69.5777 145.804C73.3321 153.629 77.105 161.497 80.949 169.513C103.851 217.274 129.28 270.303 168.378 350.875C168.622 351.378 168.414 351.983 167.912 352.23ZM160.749 346.653C160.245 346.899 159.637 346.69 159.39 346.187C146.42 319.701 131.243 288.03 114.64 253.382C99.126 221.008 82.3666 186.035 64.9981 150.264C64.7542 149.762 64.9616 149.157 65.4626 148.91C65.9635 148.662 66.5703 148.865 66.8215 149.363C78.5858 172.716 90.0109 196.723 105.437 229.137C119.564 258.821 137.047 295.556 161.219 345.296C161.464 345.8 161.254 346.408 160.749 346.653ZM153.579 341.082C153.073 341.319 152.471 341.105 152.23 340.602C141.659 318.597 131.866 298.107 122.562 278.64C112.13 256.814 102.312 236.272 92.6991 216.316C91.0137 212.932 89.3823 209.66 87.8003 206.488C77.6562 186.146 69.5411 169.873 62.2396 153.818C62.01 153.313 62.2282 152.717 62.7299 152.48C63.2317 152.242 63.8314 152.45 64.0774 152.948C74.3224 173.667 84.3085 194.213 94.5251 215.421C95.624 217.628 96.7459 219.884 97.8924 222.192C112.079 250.758 129.992 287.373 154.071 339.738C154.304 340.245 154.084 340.845 153.579 341.082ZM146.43 335.499C145.928 335.741 145.324 335.535 145.076 335.035C127.474 299.536 92.5344 228.167 59.4963 157.405C59.2617 156.902 59.4736 156.305 59.9726 156.062C60.4715 155.819 61.0731 156.021 61.3246 156.515C82.0888 197.333 102.76 240.715 146.907 334.15C147.145 334.654 146.932 335.256 146.43 335.499ZM139.268 329.923C138.765 330.163 138.164 329.955 137.918 329.456C122.884 299.027 109.253 270.302 96.1422 242.674L95.7774 241.905C87.1091 223.639 78.6654 205.85 70.1888 188.36C65.7058 179.243 61.239 170.155 56.7568 160.999C56.5107 160.496 56.718 159.889 57.2204 159.642C57.7229 159.394 58.3312 159.599 58.5809 160.1C63.0942 169.159 67.5608 178.274 72.0179 187.471C72.4445 188.339 72.8714 189.207 73.2983 190.075C93.9978 232.17 115.119 275.123 139.754 328.581C139.986 329.086 139.77 329.684 139.268 329.923ZM132.108 324.345C131.602 324.586 130.997 324.373 130.754 323.869C115.773 292.78 103.503 267.713 93.1096 246.478C76.367 212.272 64.4917 188.01 53.9925 164.544C53.7642 164.034 53.9911 163.436 54.5003 163.205C55.0095 162.973 55.6099 163.196 55.8443 163.704C64.6288 182.718 74.0252 201.907 85.3923 225.121C98.054 250.979 113.161 281.83 132.59 322.995C132.829 323.501 132.613 324.104 132.108 324.345ZM124.962 318.762C124.464 319.009 123.86 318.81 123.606 318.316C79.9438 233.378 65.7456 201.093 52.8488 171.768C52.3118 170.547 51.7769 169.331 51.2424 168.116C51.0191 167.609 51.2439 167.016 51.7477 166.784C52.2516 166.552 52.8485 166.766 53.0894 167.266C59.3208 180.179 65.5344 193.031 71.7786 205.948C89.0804 241.737 106.618 278.015 125.428 317.414C125.668 317.915 125.46 318.516 124.962 318.762ZM118.686 315.015C118.185 315.262 117.578 315.06 117.327 314.562C87.5041 255.478 67.1193 213.045 49.3797 173.531C49.152 173.023 49.3744 172.428 49.8789 172.193C50.3834 171.959 50.9827 172.173 51.224 172.674C58.8602 188.523 66.5101 204.438 74.1373 220.304C89.3274 251.904 104.428 283.317 119.15 313.661C119.394 314.163 119.186 314.768 118.686 315.015ZM112.406 311.269C111.902 311.516 111.293 311.307 111.046 310.803C111.046 310.803 111.046 310.803 111.045 310.803C111.042 310.795 111.038 310.787 111.034 310.778C98.2584 284.699 88.222 263.885 79.7871 246.268C69.6162 225.143 58.5421 202.048 47.5239 178.96C47.283 178.455 47.4956 177.85 47.9996 177.607C48.5036 177.364 49.1095 177.573 49.3554 178.076C55.8623 191.368 62.1684 204.604 69.5781 220.156C71.2548 223.676 72.9881 227.314 74.793 231.098C76.957 235.635 79.2242 240.382 81.6207 245.388C93.928 270.95 104.912 293.625 112.873 309.911C113.12 310.415 112.91 311.023 112.406 311.269ZM106.116 307.529C105.608 307.769 105.002 307.552 104.762 307.045C104.762 307.045 104.762 307.045 104.762 307.044C104.754 307.028 104.746 307.012 104.739 306.996C85.9736 267.326 72.2279 239.078 60.5846 215.151C59.5723 213.07 58.5759 211.023 57.5934 209.003C52.8384 199.284 48.8346 191.079 44.7755 182.535C44.5351 182.029 44.7501 181.424 45.2562 181.183C45.7622 180.941 46.3683 181.155 46.611 181.66C50.6829 190.131 54.8649 198.744 59.3373 207.938C59.8114 208.908 60.293 209.892 60.783 210.893C70.6048 230.966 83.7679 257.867 106.601 306.176C106.841 306.684 106.623 307.289 106.116 307.529ZM98.9715 301.945C98.4684 302.192 97.8606 301.985 97.6122 301.483C94.8191 295.84 92.0853 290.328 89.4069 284.927C71.8688 249.564 56.7105 219 42.8985 187.922C42.6714 187.411 42.9 186.812 43.4101 186.583C43.9202 186.353 44.5202 186.578 44.7528 187.086C58.114 216.281 72.1847 244.961 85.7385 272.586C90.3823 282.051 94.9654 291.393 99.4385 300.589C99.6834 301.092 99.4746 301.699 98.9715 301.945ZM92.7164 298.186C92.229 298.44 91.6278 298.261 91.3591 297.782C81.2181 279.702 72.9471 262.114 64.9502 244.565C63.471 241.319 62.0015 238.075 60.5313 234.83C59.6666 232.921 58.8017 231.012 57.9346 229.102C51.8098 216.404 45.8926 203.956 40.1567 191.512C39.9246 191.008 40.1392 190.412 40.6389 190.171C41.1386 189.931 41.7391 190.134 41.9887 190.629C48.3999 203.344 54.1446 215.832 59.7791 228.245M92.7164 298.186C93.2039 297.932 93.4012 297.337 93.1618 296.842L92.7164 298.186ZM93.1618 296.842C87.5435 285.234 82.0947 274.078 76.8004 263.237L93.1618 296.842ZM76.8004 263.237C70.9447 251.247 65.2778 239.644 59.7791 228.245L76.8004 263.237ZM86.4052 294.457C85.8978 294.697 85.2917 294.481 85.0512 293.974C84.8329 293.514 84.6106 293.045 84.3843 292.565C70.0337 262.249 57.6385 236.742 46.111 213.021C43.4659 207.578 40.8664 202.229 38.2994 196.937C38.0574 196.438 38.2605 195.838 38.7558 195.587C39.2511 195.337 39.8558 195.53 40.1144 196.02C54.9091 224.08 68.6186 253.724 78.5807 275.266C81.4682 281.51 84.0409 287.073 86.2339 291.719C86.4507 292.177 86.6679 292.636 86.8855 293.096C86.8867 293.099 86.8879 293.101 86.8891 293.104C86.8893 293.104 86.8894 293.104 86.8896 293.105C87.1295 293.612 86.9127 294.217 86.4052 294.457ZM79.2741 288.865C78.7788 289.119 78.1718 288.927 77.9117 288.436C69.602 272.734 63.2207 259.224 57.7289 247.182C51.9977 235.28 47.6329 226.026 43.7514 217.797C40.872 211.692 38.2584 206.151 35.5501 200.511C35.3123 200.016 35.5116 199.421 36.0001 199.169C36.4887 198.917 37.0894 199.098 37.3563 199.578C43.4571 210.558 48.6226 222.039 54.5259 235.159C54.8942 235.978 55.2655 236.803 55.64 237.635C56.907 240.448 58.2122 243.34 59.5713 246.32C64.8798 257.344 71.3618 270.642 79.7221 287.51C79.969 288.008 79.7694 288.612 79.2741 288.865ZM72.9658 285.134C72.461 285.37 71.8603 285.156 71.6188 284.654C62.7317 266.198 55.9722 252.535 50.659 241.797C42.9197 226.154 38.2494 216.715 34.5437 207.698C34.3336 207.187 34.5711 206.601 35.0782 206.38C35.5854 206.159 36.1762 206.384 36.408 206.886C41.2722 217.417 46.4614 227.897 51.9226 238.925C52.5936 240.28 53.2687 241.643 53.9478 243.016C60.1522 255.557 66.6866 268.875 73.4613 283.793C73.6916 284.3 73.4706 284.898 72.9658 285.134ZM65.8348 279.542C65.335 279.794 64.7249 279.596 64.4701 279.097C60.6332 271.591 57.3445 264.878 54.4371 258.782C50.8612 251.424 47.898 245.188 45.3118 239.698C44.0931 237.111 42.9589 234.691 41.8843 232.398C38.8276 225.876 36.2534 220.384 33.589 215C33.3432 214.503 33.5408 213.902 34.0332 213.647C34.5257 213.392 35.1314 213.579 35.3951 214.066C39.5847 221.806 43.2653 229.828 47.6505 239.385C47.8618 239.846 48.0747 240.31 48.2894 240.778C50.6669 245.958 53.2649 251.6 56.2697 257.9C59.1644 263.856 62.4612 270.55 66.2852 278.18C66.536 278.68 66.3346 279.289 65.8348 279.542ZM56.9426 270.287C56.4604 270.552 55.855 270.385 55.5762 269.912C51.2322 262.53 44.9349 248.845 38.4493 234.751C37.0884 231.793 35.7192 228.818 34.3581 225.879C34.1297 225.386 34.3299 224.8 34.8125 224.55C35.2951 224.3 35.8894 224.473 36.1615 224.943C38.7293 229.381 41.1512 234.712 44.2191 241.464L44.5382 242.167C47.7655 249.269 51.7376 257.968 57.3581 268.933C57.6088 269.422 57.4248 270.022 56.9426 270.287ZM46.2245 257.4C45.7347 257.648 45.1368 257.462 44.8733 256.981C43.1843 253.897 41.7041 251.247 40.4117 248.933C38.5657 245.628 37.1027 243.009 35.9606 240.788C34.0025 236.981 32.923 234.227 32.411 231.02C32.3345 230.54 32.6079 230.074 33.0637 229.906C33.5195 229.738 34.0304 229.916 34.2834 230.33C36.5536 234.047 38.3978 238.065 41.9186 245.737C43.2366 248.609 44.7894 251.993 46.6874 256.064C46.9191 256.561 46.7143 257.152 46.2245 257.4Z" fill="white"/>
<path fill-rule="evenodd" clip-rule="evenodd" d="M302.046 292.052C305.311 275.958 307.158 259.235 308.717 243.477C312.725 202.242 297.806 167.677 279.245 135.307C273.779 126.203 268.673 116.389 263.576 106.592C262.772 105.048 261.969 103.505 261.165 101.965C255.247 90.6313 249.262 79.4647 242.628 69.4981C229.353 49.5548 213.615 34.6201 190.905 32.7377C185.772 32.3566 180.897 32.6461 176.249 33.5133C160.351 36.7289 146.9 47.4859 134.464 61.5162C126.431 70.5791 118.868 80.9557 111.373 91.4549C110.45 92.7479 109.527 94.0429 108.606 95.3375C102.059 104.532 95.5267 113.706 88.7732 121.998C83.8284 128.713 78.4934 135.36 73.1689 141.993C71.7251 143.791 70.282 145.589 68.8478 147.387C62.1092 155.833 55.5548 164.294 49.9493 172.948C38.7366 190.259 31.3964 208.229 33.9495 228.209C36.5439 248.284 48.9279 263.01 65.2049 275.81C66.9986 277.221 68.838 278.607 70.7151 279.973C77.6791 284.854 85.1058 289.451 92.5277 294.038L92.7795 294.194C101.938 299.855 111.082 305.507 119.241 311.629C129.791 318.807 139.983 327.194 150.042 335.47L150.627 335.952C160.897 344.402 171.031 352.709 181.339 359.553C201.945 373.235 223.051 380.941 247.004 372.267C271.031 363.509 285.397 343.493 294.298 319.497C297.547 310.738 300.06 301.468 302.046 292.052ZM118.066 313.294C111.041 308.434 103.619 303.796 96.1722 299.142C94.3159 297.982 92.4581 296.821 90.6046 295.656C83.38 291.113 76.2272 286.504 69.5291 281.63C67.7874 280.409 66.0731 279.17 64.3942 277.908C47.4892 265.203 33.9851 250.104 31.9273 228.465C28.7437 207.765 36.1166 189.217 47.452 171.7C54.8376 160.287 63.9873 149.2 73.0603 138.207C77.8739 132.374 82.6659 126.568 87.1615 120.753L87.1622 120.752C92.8564 113.403 98.4498 105.195 104.184 96.7796C105.493 94.8588 106.809 92.9272 108.136 90.9926C115.261 80.6007 122.67 70.1392 130.756 60.9186C143.486 46.4019 157.988 34.8561 175.842 31.5156C180.672 30.5387 185.732 30.2288 191.058 30.7063C215.312 31.9221 232.322 47.7019 245.963 68.1072C252.79 78.3203 258.807 89.7403 264.487 101.161C266.314 104.835 268.104 108.505 269.876 112.136C273.616 119.803 277.271 127.295 281.005 134.277C302.719 168.431 317.374 206.34 310.742 243.708C309.386 259.048 307.522 275.96 304.039 292.475C302.021 302.413 299.463 312.132 296.101 321.252C287.24 345.287 272.74 365.304 247.711 374.177C223.589 383.828 201.388 375.621 180.205 361.599C169.608 354.585 159.21 346.079 148.906 337.555C148.262 337.022 147.617 336.488 146.973 335.955C137.309 327.955 127.723 320.018 118.066 313.294Z" fill="white"/>
</g>
</svg>
