<svg width="560" height="514" viewBox="0 0 560 514" fill="none" xmlns="http://www.w3.org/2000/svg">
<g opacity="0.3">
<path fill-rule="evenodd" clip-rule="evenodd" d="M28.691 330.515C28.9171 331.151 29.6943 331.454 30.4302 331.193C281.638 242.014 373.954 209.66 464.275 179.201M28.691 330.515C28.465 329.878 28.8751 329.148 29.6087 328.88L28.691 330.515ZM29.6087 328.88C61.681 317.178 93.3358 305.729 124.699 294.483L29.6087 328.88ZM464.279 179.199C464.28 179.199 464.28 179.199 464.281 179.199C465.023 178.949 465.455 178.223 465.246 177.579C465.037 176.934 464.266 176.615 463.523 176.864C446.83 182.477 430.186 188.098 413.572 193.734C430.163 187.743 446.671 181.719 463.112 175.644C463.838 175.375 464.245 174.652 464.026 174.02C463.806 173.387 463.042 173.078 462.308 173.326C323.204 220.273 187.593 268.627 46.0827 319.085L36.4522 322.519L36.4426 322.523C35.7063 322.785 35.2896 323.514 35.5107 324.153C35.7318 324.792 36.5074 325.1 37.2453 324.842C66.8541 314.49 95.9856 304.396 124.699 294.483M27.2214 334.977C27.4397 335.618 28.2149 335.929 28.9541 335.672C28.9559 335.671 28.9577 335.671 28.9595 335.67C48.8888 328.753 67.816 322.157 85.8171 315.86C100.425 310.793 116.032 305.389 132.487 299.691C165.115 288.394 201.077 275.942 239.201 262.672C178.407 284.023 110.218 308.135 29.3659 336.892C28.6309 337.153 28.2135 337.88 28.4312 338.518C28.649 339.157 29.4204 339.468 30.1582 339.215C117.743 309.177 193.933 282.21 265.036 257.001C268.568 255.748 272.088 254.5 275.597 253.256C334.598 232.336 390.263 212.598 446.279 193.275C453.994 190.621 461.691 187.977 469.391 185.334C470.132 185.08 470.559 184.353 470.346 183.71C470.132 183.067 469.358 182.751 468.617 183.005C468.617 183.005 468.616 183.005 468.616 183.005M445.516 190.942C408.166 203.79 370.423 216.842 330.158 230.861C375.16 215.037 421.702 198.528 468.203 181.787C468.927 181.527 469.341 180.814 469.138 180.181C468.934 179.548 468.186 179.224 467.451 179.452C419.32 194.372 371.076 211.688 295.323 238.877C242.023 258.008 175.104 282.026 85.0252 313.537C63.8157 320.894 44.7083 327.541 28.1625 333.349C27.4242 333.608 27.0031 334.337 27.2214 334.977M445.516 190.942C453.203 188.29 460.897 185.646 468.608 183.008L445.516 190.942ZM39.6557 318.738C39.8782 319.375 40.6525 319.682 41.389 319.424C180.059 270.963 281.087 235.618 374.513 202.818C404.321 192.549 431.779 182.969 459.214 173.047C459.948 172.781 460.361 172.052 460.137 171.415C459.913 170.778 459.137 170.472 458.401 170.731C430.313 180.616 402.376 190.435 373.725 200.494C359.164 205.511 344.041 210.693 328.081 216.161C316.804 220.025 305.11 224.032 292.903 228.224C228.059 250.494 148.748 277.994 40.5796 317.108C39.8459 317.373 39.4331 318.101 39.6557 318.738ZM26.9643 342.988C27.1796 343.631 27.9543 343.945 28.695 343.69C142.917 304.357 225.71 275.797 292.168 252.595C276.864 257.981 261.437 263.414 245.87 268.897C188.904 288.789 118.127 313.57 26.4394 345.844C25.7013 346.103 25.281 346.832 25.4999 347.472C25.7188 348.113 26.4943 348.423 27.2333 348.166C103.498 321.643 175.505 296.282 244.727 271.901C245.371 271.674 246.014 271.448 246.658 271.221C278.866 259.974 306.66 250.289 331.324 241.694C390.186 221.183 431.214 206.886 471.833 192.407C472.568 192.145 472.985 191.418 472.765 190.78C472.546 190.141 471.773 189.831 471.036 190.086C434.494 202.711 397.591 215.585 360.065 228.739C400.602 214.388 435.594 201.765 470.638 188.863C471.37 188.594 471.777 187.863 471.55 187.228C471.323 186.593 470.546 186.292 469.811 186.553C329.561 236.408 183.611 287.603 27.9164 341.362C27.9149 341.363 27.9165 341.362 27.9151 341.363C27.1746 341.618 26.749 342.346 26.9643 342.988ZM43.7977 313.315C44.015 313.955 44.788 314.267 45.5268 314.013C115.646 289.88 239.798 246.226 374.645 198.811C401.228 189.464 428.226 179.971 455.309 170.452C456.045 170.193 456.466 169.468 456.25 168.828C456.035 168.188 455.264 167.875 454.525 168.126C348.857 204.116 243.195 241.512 144.941 276.285C110.525 288.466 77.0179 300.325 44.7378 311.689C44.0007 311.948 43.5805 312.675 43.7977 313.315ZM24.0366 351.959C24.261 352.597 25.0395 352.902 25.7768 352.64C145.523 310.13 295.288 257.915 451.63 203.407C459.642 200.614 467.67 197.815 475.713 195.011C476.452 194.753 476.875 194.026 476.658 193.385C476.442 192.743 475.668 192.431 474.928 192.685C311.669 248.901 149.449 305.574 24.9627 350.325C24.2264 350.59 23.8121 351.321 24.0366 351.959ZM50.6249 306.975C50.8492 307.607 51.6187 307.912 52.3521 307.658C174.741 265.296 315.043 216.576 451.427 167.847C452.16 167.585 452.576 166.861 452.36 166.223C452.143 165.586 451.375 165.274 450.638 165.524C417.651 176.705 384.702 187.881 351.839 199.098C386.639 186.968 418.493 175.755 450.218 164.306C450.944 164.044 451.358 163.328 451.149 162.693C450.941 162.059 450.186 161.74 449.451 161.976C439.173 165.266 428.929 168.64 418.598 172.12C427.886 168.68 437.124 165.213 446.354 161.697C447.08 161.42 447.478 160.691 447.247 160.06C447.016 159.43 446.242 159.132 445.51 159.393C431.971 164.212 418.466 169.04 404.377 174.076C362.853 188.92 316.26 205.575 248.81 229.168C245.022 230.464 241.203 231.77 237.349 233.087C184.867 251.035 126.153 271.113 57.1685 295.442C56.4322 295.702 56.0124 296.429 56.2291 297.068C56.4459 297.708 57.2178 298.02 57.9564 297.766C137.694 270.436 199.402 249.05 249.572 231.501C266.217 225.808 282.247 220.319 297.796 214.964C295.329 215.858 292.843 216.759 290.335 217.668C286.049 219.22 281.701 220.794 277.287 222.391C217.43 243.15 146.747 267.692 55.7016 299.918C54.9677 300.178 54.5488 300.902 54.7629 301.54C54.977 302.179 55.7441 302.493 56.482 302.245C71.1081 297.33 85.1756 292.563 98.7266 287.938C82.9432 293.701 67.2099 299.502 51.5322 305.345C50.8049 305.616 50.4007 306.342 50.6249 306.975ZM25.2478 355.492C25.4684 356.132 26.2462 356.441 26.9854 356.181C40.0947 351.575 53.0021 347.032 65.7212 342.549C226.436 286.013 332.314 249.045 429.544 215.096C445.503 209.524 461.23 204.033 476.927 198.55C477.664 198.292 478.087 197.567 477.873 196.927C477.659 196.287 476.89 195.972 476.15 196.222C382.2 227.996 287.271 261.594 180.412 299.415C143.474 312.488 105.111 326.066 64.8708 340.247C52.3224 344.661 39.4396 349.195 26.2006 353.856C26.1962 353.857 26.1917 353.859 26.1873 353.86C26.187 353.86 26.1867 353.861 26.1864 353.861C25.4474 354.121 25.0272 354.851 25.2478 355.492ZM197.715 53.3118C197.945 53.9343 198.704 54.2325 199.431 53.9851C205.673 51.8578 212.899 49.2019 220.875 46.2703C235.721 40.8136 253.166 34.4019 271.7 28.6671C272.427 28.4421 272.881 27.7575 272.727 27.1159C272.574 26.4742 271.869 26.1043 271.13 26.2777C267.086 27.2259 263.003 28.3103 258.711 29.5777C261.788 28.4213 264.87 27.2352 267.93 26.0232C268.61 25.7537 268.998 25.0822 268.827 24.4727C268.655 23.8631 267.98 23.5153 267.267 23.6696C252.314 26.9066 237.635 32.212 202.723 46.2711C202.011 46.5582 201.629 47.2819 201.863 47.9039C202.096 48.5259 202.86 48.82 203.586 48.5674C207.008 47.3763 211.421 45.9162 216.53 44.2256C218.565 43.5524 220.71 42.8426 222.947 42.0986C215.733 44.8721 207.7 48.0425 198.583 51.6835C197.87 51.9681 197.486 52.6893 197.715 53.3118ZM26.4604 359.034C26.6826 359.671 27.456 359.977 28.1923 359.721C42.2948 354.808 56.0035 350.033 69.346 345.386C113.459 330.02 153.568 316.049 190.672 303.112C194.321 301.871 197.972 300.63 201.624 299.39C172.833 309.566 145.704 319.2 120.833 328.052C91.3294 338.503 60.6683 349.43 28.6091 360.939M190.021 300.74C304.678 260.761 390.627 230.656 477.337 199.769C478.069 199.508 478.843 199.806 479.074 200.437C479.305 201.068 478.906 201.797 478.18 202.073C464.633 207.217 451.053 212.286 437.446 217.291C451.14 212.613 464.863 207.943 478.574 203.299C479.314 203.049 480.084 203.364 480.298 204.004C480.511 204.645 480.089 205.37 479.351 205.627C442.305 218.555 405.148 231.431 366.986 244.654C291.45 270.83 211.982 298.368 121.664 330.361C97.9983 338.784 76.3778 346.5 57.3178 353.302C47.2826 356.884 37.9573 360.212 29.417 363.256C28.6795 363.519 27.8999 363.215 27.6749 362.576C27.4499 361.938 27.8645 361.206 28.6014 360.942C28.6026 360.941 28.6037 360.941 28.6049 360.94M190.021 300.74C135.485 319.283 81.1475 337.921 27.3833 357.404C26.6502 357.67 26.2381 358.398 26.4604 359.034M206.014 42.5066C206.261 43.1248 207.034 43.406 207.756 43.1404C209.623 42.4544 211.419 41.7941 213.149 41.1582C221.877 37.9491 228.916 35.3611 234.822 33.2136C239.307 31.6903 243.93 30.1477 248.589 28.5932C254.622 26.5802 260.714 24.5473 266.645 22.5103C267.371 22.2608 267.798 21.5553 267.609 20.9185C267.42 20.2816 266.682 19.9444 265.945 20.1577C256.577 22.8691 248.813 25.5146 234.015 30.8956C223.89 34.336 214.426 37.6924 206.847 40.862C206.137 41.1588 205.768 41.8885 206.014 42.5066ZM198.942 56.8842C199.196 57.5093 199.988 57.7837 200.715 57.4985C215.363 51.7457 229.453 46.7579 243.008 42.1443C245.566 41.3228 247.985 40.5625 250.278 39.8496C252.255 39.2352 254.143 38.6546 255.95 38.099C265.309 35.2213 272.485 33.0149 278.47 30.2517C279.15 29.9378 279.49 29.2251 279.245 28.6247C279.001 28.0242 278.257 27.743 277.547 27.9828C272.668 29.6299 267.703 31.2832 262.653 32.9647C256.004 35.1786 249.208 37.4415 242.266 39.8044C231.091 43.3945 217.279 48.1524 199.789 55.2255C199.066 55.518 198.687 56.2591 198.942 56.8842ZM210.145 37.0531C210.361 37.6638 211.088 37.9726 211.805 37.7583C222.946 34.4294 237.806 29.0499 254.762 22.7112C255.465 22.4483 255.869 21.7573 255.685 21.1347C255.5 20.512 254.789 20.1732 254.064 20.3617C241.122 23.7244 230.883 27.07 210.988 35.4494C210.298 35.7401 209.929 36.4424 210.145 37.0531ZM68.4116 288.843C68.6334 289.483 69.4109 289.79 70.1492 289.53C85.1841 284.238 100.965 278.649 117.372 272.821C170.225 254.193 222.086 236.136 273.344 218.29C330.272 198.468 386.456 178.906 442.428 159.108C443.162 158.849 443.581 158.125 443.367 157.487C443.153 156.849 442.387 156.534 441.649 156.781C410.941 167.081 380.061 177.642 349.472 188.237C379.984 177.572 409.416 167.136 438.552 156.503C439.284 156.236 439.694 155.508 439.471 154.872C439.247 154.236 438.473 153.931 437.738 154.188C416.049 161.774 394.319 169.368 371.863 177.216C317.516 196.208 258.922 216.683 186.41 242.125C153.688 253.605 118.131 266.097 78.8508 279.92L79.2506 281.08L79.6556 282.238C117.934 268.62 153.546 256.147 187.118 244.477M187.118 244.477C213.538 235.293 238.696 226.606 262.896 218.25C280.373 212.215 297.352 206.352 313.946 200.599C260.913 219.134 209.315 237.5 161.623 254.477C146.154 259.983 131.096 265.343 116.532 270.516C100.89 276.029 85.1642 281.591 69.345 287.212C68.6074 287.474 68.1898 288.204 68.4116 288.843M197.449 61.2908C197.655 61.9215 198.4 62.243 199.133 62.0168C235.169 50.8845 256.095 43.0785 273.35 36.3744C276.359 35.2505 279.326 34.0962 282.295 32.88C283.016 32.585 283.391 31.845 283.135 31.2219C282.88 30.5988 282.09 30.3253 281.365 30.609C280.888 30.7956 280.41 30.9828 279.93 31.1706C277.498 32.1227 275.023 33.0914 272.468 34.0842C264.545 37.0422 256.292 39.797 246.801 42.9447C246.25 43.1276 245.694 43.3119 245.134 43.4976C232.431 47.7091 217.519 52.6534 198.373 59.6842C197.653 59.9486 197.244 60.6601 197.449 61.2908ZM195.978 65.7543C196.175 66.3892 196.918 66.7192 197.653 66.4985C206.504 63.8436 214.35 61.3867 221.416 59.0887C212.821 62.0882 204.149 65.238 195.41 68.6494C194.702 68.9256 194.311 69.6336 194.521 70.2557C194.732 70.8778 195.47 71.1934 196.196 70.9717C202.805 68.9534 209.475 66.8824 216.199 64.741C216.025 64.8067 215.851 64.8724 215.676 64.9383C208.914 67.4928 201.71 70.2142 193.964 73.1194C193.24 73.3908 192.838 74.113 193.059 74.7438C193.279 75.3746 194.042 75.682 194.774 75.4352C220.566 66.7434 242.032 59.0992 262.478 51.8184C274.861 47.4086 286.871 43.1321 299.239 38.837C299.957 38.5879 300.381 37.8932 300.202 37.2608C300.024 36.6284 299.305 36.2825 298.572 36.4759C293.987 37.6858 289.469 38.9663 284.932 40.3316C287.538 39.2862 290.148 38.2228 292.762 37.1406C293.476 36.8449 293.848 36.1114 293.599 35.4911C293.349 34.8708 292.57 34.592 291.846 34.8642C277.828 40.1355 263.518 44.9068 248.927 49.7715C247.478 50.255 246.025 50.7393 244.569 51.2252C244.002 51.4145 243.435 51.6041 242.867 51.794C253.086 48.1561 261.551 44.9014 269.646 41.7892C276.036 39.3326 282.195 36.9647 288.803 34.5674C289.535 34.3018 289.946 33.5751 289.725 32.939C289.504 32.3029 288.733 31.9952 287.997 32.2495C266.429 39.7015 246.66 46.6266 196.926 64.1548C196.202 64.4102 195.781 65.1194 195.978 65.7543ZM28.8838 366.108C29.1047 366.748 29.8815 367.056 30.6199 366.797C82.8216 348.496 135.244 330.211 187.765 311.892C285.288 277.875 383.15 243.741 480.569 209.165C481.303 208.904 481.722 208.18 481.506 207.542C481.291 206.903 480.522 206.59 479.785 206.84C363.274 246.256 246.763 287.563 31.6655 363.823L29.8257 364.475C29.8252 364.475 29.8246 364.476 29.8241 364.476L29.8186 364.478C29.0811 364.739 28.6628 365.469 28.8838 366.108ZM191.61 79.2692C191.862 79.8916 192.647 80.1682 193.372 79.89C216.429 71.0405 235.776 64.0853 253.656 57.9396C259.681 55.9292 265.63 53.9719 271.473 52.0496C281.491 48.7534 291.198 45.5599 300.446 42.3767C301.182 42.1234 301.609 41.4028 301.402 40.7619C301.196 40.1211 300.433 39.7993 299.693 40.0408C284.201 45.0977 269.166 50.0135 252.917 55.5985C233.264 62.1563 212.745 69.2952 192.451 77.6154C191.733 77.9099 191.358 78.6469 191.61 79.2692ZM27.4126 370.572C27.6227 371.209 28.3836 371.527 29.1208 371.286C49.146 364.735 71.4202 357.288 95.511 349.11C74.3831 356.621 52.4406 364.405 29.567 372.494C28.8298 372.755 28.4108 373.483 28.6301 374.123C28.8495 374.763 29.6244 375.073 30.363 374.816C242.49 301.064 362.957 258.865 482.994 216.242C483.726 215.983 484.144 215.262 483.933 214.625C483.722 213.988 482.96 213.671 482.223 213.913C465.699 219.338 449.242 224.822 432.71 230.399C449.054 224.518 465.434 218.611 481.792 212.701C482.528 212.435 482.941 211.702 482.714 211.064C482.486 210.426 481.705 210.124 480.968 210.39C408.709 236.416 334.784 262.053 254.566 289.872C184.915 314.027 110.521 339.827 28.3523 368.956C27.621 369.215 27.2025 369.935 27.4126 370.572ZM190.109 83.6463C190.297 84.2933 191.05 84.6323 191.795 84.4059C200.45 81.7745 208.939 78.9722 217.306 76.076C225.092 73.4806 232.262 71.0387 238.938 68.7239C238.836 68.7609 238.734 68.798 238.631 68.8351C225.684 73.3023 210.515 78.7223 192.239 85.6144C191.511 85.8892 191.11 86.6201 191.342 87.2523C191.574 87.8845 192.351 88.1818 193.084 87.9184C209.745 81.93 223.92 76.7853 236.184 72.3342C237.291 71.9324 238.383 71.5362 239.459 71.1456C249.019 67.8475 257.365 65.0697 264.856 62.6019C267.215 61.8247 269.491 61.0777 271.694 60.3546C285.937 55.6802 297.149 52.0003 308.301 47.5508C308.998 47.2727 309.384 46.5746 309.181 45.958C308.979 45.3413 308.258 45.0194 307.536 45.2233C298.559 47.7616 289.001 50.8819 277.017 55.0622C280.439 53.7998 283.762 52.5683 287.023 51.36C292.935 49.1694 298.641 47.0548 304.364 44.9688C305.088 44.7047 305.499 43.9883 305.289 43.3554C305.079 42.7225 304.325 42.4048 303.591 42.64C286.564 48.0942 269.786 54.3121 252.853 60.5875C251.279 61.1705 249.705 61.7541 248.129 62.3375C237.71 66.194 227.215 70.0488 216.537 73.7453C208.725 76.3491 200.29 79.108 191.107 82.0488C190.365 82.2862 189.92 82.9993 190.109 83.6463ZM189.861 91.6879C190.064 92.3229 190.813 92.6475 191.549 92.4192C200.931 89.5072 209.543 86.8116 217.488 84.297C210.021 87.0096 202.609 89.7141 195.274 92.3909C193.285 93.1166 191.302 93.8403 189.325 94.5616C188.591 94.8291 188.181 95.5588 188.406 96.1949C188.632 96.831 189.408 97.1348 190.144 96.8748C197.494 94.2775 205.102 91.5818 212.919 88.8116C244.835 77.5022 280.256 64.9507 316.002 52.7817C316.738 52.5312 317.168 51.8132 316.966 51.1718C316.764 50.5304 316.005 50.2043 315.265 50.4407C310.401 51.9933 305.525 53.5771 300.643 55.1869C304.633 53.5139 308.465 51.8398 312.259 50.1238C312.941 49.815 313.288 49.1043 313.05 48.5013C312.812 47.8984 312.071 47.6112 311.359 47.8457C281.776 57.5916 254.278 67.4179 220.809 79.3778C211.345 82.7596 201.403 86.3121 190.802 90.0816C190.076 90.3397 189.658 91.0529 189.861 91.6879ZM87.407 274.242C87.6177 274.885 88.3884 275.204 89.1297 274.954C163.548 249.876 241.715 222.165 321.207 193.984C358.808 180.654 396.706 167.219 434.643 153.908C435.377 153.651 435.798 152.93 435.588 152.291C435.378 151.652 434.616 151.334 433.877 151.576C422.512 155.312 411.166 159.089 399.868 162.889C410.354 159.021 420.579 155.188 430.793 151.293C431.519 151.017 431.916 150.288 431.685 149.657C431.454 149.027 430.68 148.729 429.949 148.99C355.634 175.421 281.27 201.346 203.538 228.444C169.07 240.461 133.939 252.708 97.8562 265.333C97.118 265.591 96.6961 266.319 96.9127 266.959C97.1294 267.6 97.903 267.913 98.6425 267.658C135.027 255.13 167.176 244.093 195.939 234.218C202.565 231.943 209.011 229.73 215.288 227.575C209.791 229.549 204.361 231.5 199.002 233.425C156.933 248.54 119.248 262.079 88.3655 272.621C87.6251 272.874 87.1963 273.599 87.407 274.242ZM32.5189 376.722C32.7357 377.36 33.5053 377.672 34.2428 377.421C146.715 339.119 230.502 309.567 300.188 284.779C315.314 279.398 329.774 274.243 343.719 269.271C394.021 251.337 437.611 235.795 481.503 220.729M32.5189 376.722C32.3021 376.084 32.7191 375.359 33.4532 375.098L32.5189 376.722ZM33.4532 375.098C257.001 295.466 368.85 256.449 480.74 218.396L33.4532 375.098ZM481.507 220.727C481.509 220.727 481.51 220.726 481.511 220.726C482.252 220.472 482.679 219.746 482.466 219.103C482.254 218.46 481.481 218.144 480.74 218.396M189.63 99.7624C189.87 100.382 190.637 100.67 191.361 100.413C207.914 94.5215 224.371 88.9212 240.733 83.3537C244.894 81.9377 249.049 80.524 253.197 79.108C232.552 86.4104 211.381 94.1979 189.057 102.584C188.336 102.855 187.934 103.573 188.15 104.203C188.367 104.832 189.123 105.144 189.854 104.904C239.355 88.706 268.51 78.012 291.443 69.6001C302.218 65.6479 311.62 62.1994 321.113 58.9205C321.845 58.6676 322.271 57.9519 322.069 57.3127C321.867 56.6736 321.113 56.3474 320.374 56.5799C308.192 60.4138 296.068 64.3781 283.867 68.4975C285.16 68.0414 286.453 67.584 287.745 67.1253C297.711 63.7008 307.603 60.1295 317.291 56.2932C318.016 56.0063 318.401 55.2692 318.155 54.642C317.909 54.0148 317.122 53.7324 316.394 54.0093C306.623 57.7239 296.828 61.2956 287.001 64.7857C276.369 68.4394 265.634 71.931 254.941 75.4091C254.201 75.6499 253.461 75.8905 252.722 76.1311C231.348 83.0854 210.177 90.0277 190.477 98.1247C189.766 98.4167 189.391 99.1427 189.63 99.7624ZM33.731 380.264C33.9503 380.902 34.7233 381.212 35.4611 380.957C161.966 337.221 255.449 304.339 336.505 275.754C394.484 255.802 438.425 240.629 482.761 224.252C483.491 223.983 483.898 223.255 483.672 222.621C483.447 221.986 482.674 221.683 481.94 221.94C443.945 235.248 406.168 248.575 365.774 262.827C355.918 266.304 345.906 269.836 335.697 273.437C332.763 274.446 329.793 275.468 326.785 276.503C257.328 300.401 167.669 331.249 34.6641 378.636C33.9287 378.898 33.5118 379.625 33.731 380.264ZM189.355 107.72C189.56 108.361 190.322 108.684 191.062 108.443C219.422 99.2253 243.298 90.6371 264.551 82.9006C264.701 82.8462 264.85 82.7918 264.999 82.7375C275.289 79.1083 284.266 75.9198 292.523 72.9875C303.244 69.18 312.748 65.8044 322.329 62.4569C323.062 62.2007 323.485 61.4809 323.277 60.8421C323.069 60.2032 322.309 59.8827 321.57 60.123C305.716 65.2816 289.289 71.271 271.029 77.9282C268.775 78.7501 266.493 79.5822 264.18 80.4241C245.239 87.1049 221.851 95.2796 190.312 106.107C189.576 106.359 189.149 107.079 189.355 107.72ZM187.885 112.188C188.079 112.812 188.801 113.144 189.527 112.942C196.172 111.099 203.432 108.885 211.21 106.369C203.773 109.072 195.84 111.966 187.348 115.073C186.619 115.34 186.21 116.065 186.429 116.699C186.649 117.334 187.417 117.642 188.152 117.392C203.005 112.328 219.788 106.281 237.846 99.7756C266.283 89.5304 297.88 78.1466 330.076 67.6698C330.821 67.4275 331.262 66.7069 331.063 66.0595C330.864 65.4121 330.099 65.0828 329.354 65.3236C317.096 69.2866 305.144 73.2201 290.955 78.0654C293.972 76.9517 297.01 75.8292 300.066 74.7C308.666 71.5222 317.412 68.2905 326.244 65.0478C326.976 64.7793 327.384 64.0508 327.159 63.4158C326.935 62.7807 326.161 62.4767 325.426 62.7346C313.055 67.0754 300.337 71.3842 286.923 75.9289C258.462 85.5715 226.867 96.276 188.801 110.601C188.094 110.867 187.691 111.565 187.885 112.188ZM106.411 259.668C106.628 260.31 107.404 260.622 108.144 260.366C114.726 258.086 121.184 255.85 127.523 253.655C263.938 206.414 345.267 178.25 426.878 148.701C427.61 148.436 428.023 147.709 427.802 147.072C427.581 146.436 426.809 146.128 426.073 146.383C358.174 169.858 288.309 194.473 226.773 216.154C180.936 232.303 139.72 246.824 107.379 258.034C107.373 258.036 107.366 258.038 107.36 258.04C107.36 258.04 107.36 258.04 107.359 258.041C106.619 258.297 106.195 259.026 106.411 259.668ZM37.6162 382.846C37.8243 383.488 38.5911 383.809 39.3321 383.563C70.0251 373.393 105.977 361.165 145.734 347.429C113.706 358.693 78.5812 371.069 39.7706 384.772C39.0329 385.033 38.6134 385.762 38.833 386.401C39.0526 387.041 39.8284 387.351 40.5672 387.093C137.811 353.192 218.32 324.893 290.807 299.414C323.885 287.787 355.292 276.747 385.857 266.03C420.922 253.813 451.65 243.104 482.471 232.281M482.476 232.279C482.477 232.279 482.479 232.278 482.481 232.278C483.219 232.018 483.64 231.29 483.421 230.649C483.203 230.009 482.427 229.698 481.688 229.955C449.777 241.049 417.913 252.189 385.075 263.704C383.112 264.387 381.136 265.076 379.145 265.769C357.195 273.417 333.497 281.673 307.011 290.918C363.895 270.774 423.742 249.406 483.958 227.796C484.691 227.533 485.106 226.807 484.887 226.17C484.669 225.532 483.898 225.222 483.161 225.475C402.192 253.216 321.056 281.909 245.159 308.79C241.41 310.117 237.674 311.441 233.951 312.759C162.303 338.136 95.6358 361.749 38.5757 381.228C37.8369 381.481 37.4081 382.203 37.6162 382.846M187.646 120.254C187.878 120.888 188.658 121.186 189.392 120.92C203.845 115.686 221.643 109.588 241.254 102.868C245.386 101.452 249.597 100.009 253.875 98.5405C278.452 90.1041 305.196 80.8379 331.35 71.1881C332.085 70.917 332.492 70.1824 332.259 69.5465C332.026 68.9107 331.242 68.614 330.507 68.8836C315.229 74.486 298.976 79.9886 280.772 86.1518C276.92 87.4557 272.981 88.7893 268.946 90.1596C245.846 98.0037 219.609 107.043 188.55 118.615C187.819 118.887 187.415 119.62 187.646 120.254ZM186.172 124.708C186.387 125.346 187.155 125.659 187.892 125.409C211.381 117.471 235.694 108.83 261.031 99.8249C284.799 91.3771 309.469 82.609 335.205 73.8007C335.942 73.5484 336.37 72.8272 336.163 72.1855C335.957 71.5438 335.193 71.2219 334.452 71.4644C301.759 82.1743 269.267 93.7687 212.02 114.197C204.198 116.988 195.915 119.944 187.106 123.085C186.373 123.346 185.956 124.07 186.172 124.708ZM187.39 128.26C187.614 128.897 188.391 129.202 189.128 128.941C202.132 124.339 213.87 120.181 224.556 116.396C280.58 96.5515 307.65 86.963 336.404 77.345C337.144 77.0972 337.579 76.3758 337.375 75.7314C337.171 75.087 336.406 74.762 335.663 75.0046C301.637 86.1177 266.352 98.348 188.311 126.627C187.577 126.893 187.165 127.623 187.39 128.26ZM40.0491 389.948C40.2728 390.585 41.0487 390.89 41.7852 390.631C118.613 363.596 221.871 327.459 333.058 288.547C382.01 271.506 432.815 253.763 483.69 235.818M40.0491 389.948C39.8253 389.311 40.2377 388.582 40.9719 388.316L40.0491 389.948ZM483.693 235.817C483.694 235.817 483.695 235.816 483.696 235.816C484.435 235.556 484.854 234.826 484.634 234.186C484.414 233.546 483.637 233.237 482.898 233.495C432.219 251.244 381.489 268.998 332.309 286.209C309.768 294.057 287.618 301.756 266.034 309.259C177.458 340.048 98.4145 367.524 40.9719 388.316M118.6 251.46C118.829 252.088 119.596 252.387 120.325 252.134C161.489 237.84 201.732 223.539 241.573 209.381C295.228 190.314 348.156 171.505 401.624 153.322C408.728 150.919 415.84 148.515 422.95 146.114C422.951 146.114 422.952 146.113 422.953 146.113C423.695 145.863 424.127 145.138 423.918 144.493C423.709 143.849 422.938 143.529 422.196 143.778C415.078 146.169 407.971 148.571 400.874 150.985C388.827 155.06 376.805 159.134 364.865 163.189C383.101 156.713 401.214 150.158 419.111 143.494C419.838 143.224 420.242 142.498 420.019 141.866C419.796 141.233 419.028 140.928 418.295 141.18C341.66 167.541 265.759 194.214 188.46 221.514C168.408 228.477 148.555 235.466 129.02 242.526C128.285 242.791 127.873 243.521 128.097 244.159C128.321 244.796 129.099 245.101 129.835 244.84C149.703 237.814 169.444 230.833 189.095 223.892C195.44 221.689 201.806 219.488 208.191 217.287C173.605 229.54 143.237 240.621 119.484 249.829C118.764 250.108 118.371 250.833 118.6 251.46ZM185.929 132.755C186.162 133.38 186.929 133.676 187.657 133.42C200.942 128.76 214.922 123.827 229.476 118.693C236.514 116.21 243.686 113.679 250.978 111.109C252.897 110.468 254.828 109.823 256.77 109.175C257.366 108.976 257.964 108.776 258.563 108.576C284.962 99.7628 313.197 90.3072 340.36 79.9212C341.082 79.6452 341.479 78.9209 341.253 78.2921C341.027 77.6633 340.261 77.361 339.53 77.6123C308.49 88.2849 278.442 98.8289 250.203 108.78C226.698 116.633 204.843 124.011 186.802 131.121C186.085 131.404 185.697 132.129 185.929 132.755ZM184.448 137.183C184.649 137.814 185.391 138.14 186.123 137.918C212.813 129.862 243.531 118.71 277.706 106.304C298.621 98.7115 320.83 90.6491 344.203 82.5383C344.938 82.2831 345.363 81.5618 345.154 80.9217C344.945 80.2816 344.182 79.9618 343.442 80.2049C302.637 93.626 263.252 107.24 185.378 135.581C184.658 135.843 184.246 136.552 184.448 137.183ZM185.667 140.746C185.886 141.378 186.649 141.688 187.383 141.441C225.682 128.574 258.308 116.944 289.185 105.938C301.85 101.423 314.22 97.0138 326.567 92.6667C332.842 90.4809 339.136 88.2822 345.42 86.0781C346.159 85.8192 346.58 85.091 346.362 84.4504C346.144 83.8098 345.369 83.4986 344.63 83.7548C338.315 85.943 332.034 88.1404 325.75 90.3527C310.437 95.687 295.232 100.947 280.56 106.024C243.59 118.814 210 130.435 186.579 139.123C185.854 139.392 185.448 140.114 185.667 140.746ZM43.9344 392.537C44.1502 393.178 44.9225 393.491 45.6618 393.238C154.163 356.083 258.362 319.28 359.268 283.64C400.789 268.975 441.753 254.507 482.229 240.292C482.965 240.034 483.386 239.308 483.171 238.668C482.956 238.029 482.186 237.715 481.447 237.966C405.975 263.621 330.508 290.275 238.92 322.622C181.81 342.792 118.433 365.176 44.8782 390.912C44.1406 391.17 43.7186 391.897 43.9344 392.537ZM184.201 145.224C184.421 145.859 185.19 146.168 185.925 145.916C199.808 141.163 213.098 136.652 225.924 132.298C229.655 131.031 233.348 129.778 237.004 128.536C222.151 133.854 205.412 139.976 186.32 147.142C185.594 147.415 185.192 148.141 185.418 148.773C185.643 149.405 186.413 149.707 187.146 149.453C201.657 144.409 215.863 139.442 229.796 134.556C215.123 139.913 199.353 145.85 182.154 152.566C181.431 152.849 181.041 153.58 181.278 154.207C181.515 154.835 182.291 155.127 183.021 154.862C208.048 145.774 235.189 136.418 263.611 126.621L264.832 126.199C293.693 116.25 323.856 105.846 354.426 94.813C355.156 94.5494 355.57 93.8265 355.354 93.1908C355.138 92.555 354.373 92.2425 353.637 92.4894C343.384 95.9294 333.148 99.2915 322.665 102.735C309.122 107.184 295.166 111.768 280.224 116.831C296.598 111.071 312.618 105.438 328.344 99.9394C336.707 97.015 344.988 94.1284 353.194 91.2805L352.8 90.1181L352.381 88.9649C344.388 91.8909 336.329 94.6659 327.573 97.6094M300.745 106.542C317.224 100.7 333.298 94.8233 349.354 88.6603C350.074 88.3837 350.47 87.6604 350.245 87.0323C350.019 86.4042 349.255 86.1016 348.525 86.3512C342.448 88.4284 336.245 90.5231 329.55 92.7842C300.557 102.575 262.329 115.485 185.122 143.597C184.391 143.863 183.981 144.589 184.201 145.224M300.745 106.542C304.537 105.279 308.164 104.074 311.656 102.915C317.272 101.05 322.538 99.302 327.573 97.6094M134.913 237.787C135.126 238.426 135.892 238.743 136.631 238.496C198.81 217.713 248.847 199.883 293.139 183.965C298.567 182.015 303.908 180.093 309.175 178.198C346.889 164.629 380.771 152.438 415.169 140.913C415.909 140.665 416.343 139.943 416.139 139.299C415.935 138.655 415.171 138.33 414.428 138.572C391.887 145.928 369.304 153.568 346.551 161.437C369.796 153.195 390.474 145.791 411.313 138.299C412.05 138.034 412.464 137.302 412.238 136.663C412.012 136.024 411.23 135.721 410.493 135.986C410.493 135.986 410.493 135.986 410.492 135.986M134.913 237.787C134.701 237.148 135.123 236.424 135.858 236.167L134.913 237.787ZM135.858 236.167C168.951 224.561 201.081 213.059 232.546 201.796L135.858 236.167ZM232.546 201.796C247.855 196.315 263.007 190.891 278.036 185.539L232.546 201.796ZM47.8278 395.144C48.0481 395.783 48.8234 396.092 49.5616 395.834C92.9447 380.706 133.186 366.631 171.069 353.356C134.215 366.51 94.9711 380.667 52.6382 396.121C51.9052 396.388 51.4952 397.118 51.7204 397.754C51.9456 398.39 52.7216 398.694 53.4573 398.434C79.5869 389.208 108.45 379.066 139.398 368.218C106.806 380.002 78.643 390.377 56.5127 398.727C55.7876 399 55.3869 399.726 55.6126 400.357C55.8382 400.988 56.6067 401.291 57.3389 401.037C129.06 376.201 195.276 352.759 258.452 330.393C335.492 303.119 408.014 277.444 480.492 252.792C481.231 252.54 481.661 251.817 481.453 251.174C481.246 250.532 480.479 250.21 479.738 250.456C450.026 260.293 420.3 270.267 391.027 280.197C421.116 269.662 451.546 258.996 481.974 248.308C482.71 248.05 483.131 247.325 482.916 246.685C482.702 246.046 481.932 245.731 481.193 245.982C431.661 262.767 381.847 279.675 328.157 298.214C381.974 279.311 432.556 261.564 483.435 243.834C484.173 243.577 484.596 242.85 484.381 242.209C484.166 241.568 483.393 241.255 482.654 241.508C362.302 282.694 245.708 323.529 48.7617 393.514C48.0251 393.776 47.6075 394.505 47.8278 395.144ZM182.467 157.674C182.659 158.322 183.419 158.658 184.165 158.424C196.709 154.496 208.324 150.821 219.133 147.36C205.598 152.028 193.108 156.424 181.927 160.574C181.195 160.845 180.79 161.577 181.02 162.211C181.25 162.846 182.029 163.145 182.764 162.88C193.236 159.109 205.958 154.599 220.29 149.558C230.226 146.133 240.729 142.559 251.699 138.827C255.039 137.691 258.423 136.54 261.846 135.374C291.966 125.117 325.193 113.704 359.542 100.946C360.271 100.675 360.676 99.9475 360.451 99.3142C360.226 98.6809 359.454 98.3775 358.72 98.6338C351.289 101.229 343.835 103.829 336.402 106.421C343.951 103.416 351.195 100.431 358.4 97.3802C359.103 97.0826 359.469 96.3606 359.229 95.7458C358.989 95.1311 358.229 94.8439 357.508 95.0958C334.168 103.256 310.488 111.714 287.82 119.811C247.206 134.318 209.835 147.667 183.466 156.071C182.721 156.308 182.274 157.025 182.467 157.674ZM141.744 231.458C141.97 232.087 142.736 232.389 143.467 232.137C198.764 213.109 242.014 198.122 278.036 185.539M141.744 231.458C141.518 230.829 141.916 230.104 142.638 229.828L141.744 231.458ZM142.638 229.828C157.001 224.343 171.222 219.063 185.31 213.945L142.638 229.828ZM185.31 213.945C174.246 217.718 163.446 221.361 152.951 224.85C152.217 225.094 151.455 224.782 151.239 224.149C151.023 223.516 151.431 222.795 152.157 222.528C192.317 207.77 236.829 192.447 283.116 176.514C309.603 167.397 336.67 158.079 363.835 148.553C378.042 143.504 392.32 138.437 406.609 133.384C407.347 133.123 408.124 133.428 408.348 134.067C408.572 134.705 408.157 135.435 407.421 135.7C393.137 140.831 378.823 145.898 364.547 150.905C356.78 153.665 349.034 156.42 341.319 159.163C322.298 165.928 303.462 172.627 284.957 179.179C292.681 176.556 300.371 173.953 308.028 171.361C342.801 159.59 376.893 148.049 410.488 135.988M179.554 166.684C179.783 167.321 180.563 167.621 181.299 167.356C213.631 155.709 240.727 146.136 264.267 137.915C277.417 133.347 290.796 128.723 304.296 124.058C313.652 120.824 323.067 117.57 332.504 114.301C343.301 110.574 353.473 107.048 363.405 103.557C364.144 103.298 364.564 102.569 364.345 101.928C364.126 101.287 363.349 100.978 362.61 101.236C352.335 104.824 342.037 108.401 331.763 111.96C327.171 113.546 322.465 115.168 317.615 116.839C301.514 122.389 283.834 128.482 263.503 135.583C234.307 145.725 206.231 155.598 180.468 165.047C179.734 165.316 179.325 166.048 179.554 166.684ZM178.098 171.191C178.344 171.817 179.128 172.1 179.856 171.825C208.692 160.929 247.63 147.528 290.602 132.737C290.964 132.612 291.326 132.488 291.688 132.363C316.748 123.983 342.15 115.415 367.319 106.149C368.05 105.88 368.457 105.151 368.232 104.517C368.007 103.882 367.233 103.578 366.498 103.836C340.784 112.867 315.22 121.668 290.911 130.035C288.29 130.911 285.672 131.786 283.058 132.659C278.858 134.062 274.669 135.462 270.492 136.861C238.867 147.451 207.966 157.991 178.959 169.541C178.236 169.829 177.852 170.565 178.098 171.191ZM179.297 174.696C179.524 175.335 180.305 175.637 181.042 175.372C212.778 163.967 246.961 152.107 281.48 140.13C310.677 130 340.115 119.786 368.515 109.694C369.248 109.434 369.666 108.71 369.451 108.073C369.237 107.435 368.47 107.121 367.733 107.368C312.814 125.814 258.674 144.787 180.222 173.059C180.222 173.06 180.221 173.06 180.221 173.06C179.484 173.325 179.07 174.058 179.297 174.696ZM155.388 218.747C155.612 219.376 156.375 219.68 157.106 219.432C236.686 192.435 301.4 169.416 364.952 146.811C377.819 142.234 390.639 137.675 403.524 133.102C404.26 132.841 404.678 132.115 404.46 131.476C404.243 130.837 403.471 130.526 402.733 130.779C384.93 136.882 366.976 142.985 348.996 149.097C346.267 150.025 343.537 150.953 340.808 151.881C360.379 144.929 380.063 137.801 399.662 130.492C400.386 130.222 400.79 129.5 400.571 128.869C400.351 128.237 399.589 127.929 398.856 128.175C370.277 137.772 340.872 148.171 298.233 163.249C266.257 174.557 226.839 188.497 174.744 206.704C169.931 208.378 165.172 210.039 160.471 211.689C159.733 211.948 159.311 212.677 159.531 213.318C159.75 213.959 160.526 214.269 161.266 214.011C161.266 214.011 161.267 214.01 161.268 214.01C166.12 212.317 170.867 210.659 175.513 209.035C189.055 204.327 203.033 199.52 217.35 194.613C196.509 202.07 176.081 209.568 156.283 217.121C155.562 217.396 155.165 218.118 155.388 218.747ZM172.214 189.046C172.427 189.688 173.199 190.004 173.939 189.753C187.717 185.077 200.796 180.55 213.297 176.165C218.059 174.517 222.832 172.865 227.615 171.207C210.916 177.245 192.405 184.077 171.655 191.917C170.935 192.19 170.534 192.909 170.753 193.538C170.971 194.167 171.729 194.476 172.461 194.235C181.623 191.205 192.218 187.579 203.946 183.497C191.611 188.061 180.266 192.387 170.162 196.405C169.446 196.691 169.061 197.417 169.296 198.041C169.53 198.666 170.299 198.959 171.026 198.702C231.513 177.303 273.65 162.676 307.436 150.949C337.69 140.447 361.249 132.269 385.293 123.634C386.022 123.372 386.437 122.651 386.224 122.015C386.011 121.379 385.249 121.064 384.512 121.307C352.432 131.92 320.272 142.681 289.97 153.061C309.802 146.022 330.491 138.707 351.361 131.43C361.35 127.947 371.381 124.473 381.379 121.042L380.992 119.878L380.582 118.721C370.699 122.273 360.925 125.626 350.698 129.062C343.671 131.423 336.431 133.823 328.797 136.354C320.077 139.245 310.842 142.307 300.822 145.676C327.208 136.405 353.722 127.005 380.191 117.496C380.918 117.235 381.333 116.518 381.124 115.883C380.916 115.249 380.161 114.929 379.425 115.165C346.484 125.714 314.169 137.38 278.016 150.431C257.619 157.794 236 165.599 212.358 173.893C199.204 178.443 186.133 182.954 173.167 187.423C172.428 187.678 172.002 188.404 172.214 189.046ZM177.819 179.14C178.022 179.778 178.775 180.103 179.512 179.872C192.043 175.941 204.608 171.934 217.204 167.837C203.369 172.784 190.013 177.543 177.3 182.011C176.565 182.27 176.144 182.994 176.358 183.633C176.571 184.272 177.339 184.588 178.078 184.339C208.008 174.263 239.391 163.065 271.851 151.484L273.811 150.784C306.973 138.953 341.25 126.735 376.271 114.904C377.011 114.655 377.443 113.933 377.237 113.289C377.031 112.646 376.265 112.323 375.524 112.567C366.734 115.456 357.908 118.405 349.079 121.394C356.861 118.409 364.655 115.371 372.46 112.276C373.18 111.99 373.566 111.259 373.327 110.634C373.088 110.008 372.312 109.719 371.584 109.984C332.376 124.239 291.968 138.235 248.43 153.314C226.118 161.042 202.984 169.055 178.769 177.533C178.039 177.788 177.617 178.503 177.819 179.14ZM163.677 207.915C163.903 208.55 164.677 208.853 165.412 208.595C191.868 199.293 216.608 190.557 240.055 182.277C297.65 161.939 347.446 144.355 395.726 127.908C396.466 127.656 396.896 126.932 396.687 126.289C396.477 125.646 395.708 125.326 394.967 125.574C363.237 136.18 331.332 147.053 300.227 157.845C303.047 156.819 305.797 155.817 308.483 154.837C313.867 152.871 318.992 150.994 323.905 149.194C338.105 143.992 350.529 139.44 362.289 135.301C371.543 132.12 380.343 129.148 389.141 126.25C389.882 126.006 390.321 125.287 390.122 124.642C389.923 123.996 389.162 123.667 388.418 123.904C379.494 126.754 370.692 129.742 361.492 132.981C342.077 139.656 320.663 147.257 293.11 157.038C261.69 168.191 222.287 182.177 168.763 200.856C168.028 201.113 167.605 201.835 167.816 202.475C168.026 203.115 168.791 203.433 169.53 203.188C186.735 197.485 202.429 192.196 216.828 187.273C198.656 193.8 181.162 200.166 164.589 206.283C163.859 206.553 163.452 207.281 163.677 207.915ZM62.1762 402.009C62.3971 402.647 63.171 402.955 63.9083 402.699C151.573 372.206 221.936 347.269 282.801 325.697C305.297 317.725 326.495 310.212 346.789 303.049C391.967 287.354 436.82 271.843 481.711 256.327C482.449 256.072 482.874 255.348 482.662 254.706C482.451 254.065 481.682 253.748 480.942 253.997C437.551 268.583 394.339 283.663 346.01 300.722C254.08 332.657 160.797 365.352 63.1053 400.38C62.3705 400.643 61.9553 401.371 62.1762 402.009ZM66.0655 404.61C66.2865 405.25 67.0647 405.559 67.8037 405.299C67.804 405.298 67.8042 405.298 67.8045 405.298M66.0655 404.61C65.8445 403.969 66.2643 403.239 67.0032 402.979L66.0655 404.61ZM321.531 316.394C380.147 295.942 431.74 277.94 482.934 259.863C483.671 259.603 484.09 258.876 483.873 258.237C483.656 257.597 482.883 257.286 482.145 257.539C385.02 290.907 289.48 324.582 170.782 366.418C151.998 373.039 132.634 379.864 112.592 386.925C97.879 392.1 82.6968 397.446 67.0032 402.979M321.531 316.394C261.776 337.244 194.724 360.639 113.357 389.257L321.531 316.394ZM113.357 389.257C98.558 394.471 83.3889 399.813 67.8104 405.296L113.357 389.257ZM69.9588 407.216C70.1838 407.855 70.9643 408.159 71.7021 407.896C71.7023 407.895 71.7025 407.895 71.7027 407.895C71.7593 407.875 71.816 407.855 71.8726 407.835C188.034 366.323 323.037 319.403 461.457 271.296C468.117 268.981 474.786 266.663 481.46 264.343C482.2 264.086 482.624 263.358 482.407 262.716C482.19 262.074 481.415 261.762 480.674 262.018C462.779 268.218 444.606 274.487 425.558 281.059C341.479 310.066 240.361 344.951 70.8871 405.581C70.1493 405.845 69.7337 406.577 69.9588 407.216ZM76.5234 408.865C76.738 409.504 77.5069 409.818 78.2453 409.568C253.925 350.155 368.751 310.47 480.031 268.808C480.758 268.535 481.161 267.807 480.934 267.175C480.707 266.542 479.934 266.241 479.201 266.499C440.545 280.092 401.427 293.746 356.759 309.338C285.009 334.384 198.94 364.427 77.4641 407.242C76.7288 407.501 76.3088 408.225 76.5234 408.865ZM83.092 410.531C83.31 411.172 84.0853 411.483 84.8247 411.226C155.174 386.816 217.449 365.16 275.147 344.993C283.638 342.057 291.808 339.232 299.686 336.508C380.016 308.735 429.959 291.467 478.564 273.286C479.293 273.013 479.696 272.283 479.467 271.65C479.237 271.017 478.462 270.718 477.728 270.979C412.549 294.194 347.104 317.244 274.387 342.66C224.079 360.061 162.532 381.394 84.034 408.903C83.2954 409.162 82.8739 409.89 83.092 410.531ZM89.6613 412.193C89.8786 412.834 90.6526 413.146 91.3919 412.89C167.095 386.759 226.435 366.231 274.931 349.371C283.707 346.344 292.431 343.331 301.108 340.328C291.167 343.878 281.382 347.382 271.778 350.824C215.291 370.413 158.147 390.334 99.8385 411.294C99.1104 411.556 98.6957 412.275 98.906 412.91C99.1164 413.545 99.8742 413.863 100.61 413.624C136.529 401.974 187.04 383.844 245.782 362.759C250.747 360.977 255.771 359.173 260.85 357.351C264.732 355.958 268.646 354.554 272.59 353.14C283.576 349.331 294.536 345.534 305.476 341.744C362.541 321.975 419.047 302.401 475.608 282.248C476.34 281.987 476.757 281.264 476.543 280.627C476.329 279.99 475.564 279.675 474.827 279.922C456.748 285.969 438.729 292.094 420.881 298.233C439.647 291.495 458.357 284.69 477.093 277.764C477.827 277.493 478.233 276.759 478.001 276.123C477.769 275.488 476.986 275.191 476.251 275.459C422.826 294.96 369.419 313.923 274.157 347.042C260.826 351.64 247.372 356.272 233.771 360.955C188.054 376.696 140.659 393.014 90.6034 410.566C89.8654 410.825 89.444 411.553 89.6613 412.193ZM105.473 414.572C105.685 415.213 106.454 415.529 107.193 415.281C137.02 405.265 176.4 391.772 221.78 376.006C186.411 388.494 150.239 401.332 112.979 414.619C112.243 414.881 111.826 415.611 112.048 416.249C112.269 416.888 113.045 417.196 113.783 416.937C168.351 397.83 215.807 381.353 259.058 366.336C337.411 339.131 401.964 316.718 470.003 292.138C470.736 291.873 471.149 291.147 470.929 290.511C470.709 289.874 469.939 289.565 469.203 289.818C428.522 303.785 387.672 317.913 346.126 332.387C386.662 318.043 428.974 302.954 471.467 287.661C471.467 287.661 471.467 287.661 471.468 287.661C472.205 287.395 472.619 286.663 472.392 286.024C472.166 285.386 471.385 285.083 470.647 285.348C380.314 317.787 289.261 349.422 170.35 390.735C149.91 397.837 128.646 405.224 106.422 412.951C105.685 413.207 105.261 413.931 105.473 414.572ZM121.29 416.964C121.506 417.605 122.279 417.917 123.018 417.664C203.228 390.115 266.084 367.87 320.312 348.622C324.837 347.015 329.302 345.43 333.712 343.864C360.308 334.421 384.902 325.689 408.606 317.374C427.697 310.735 446.803 304.119 465.836 297.564C466.576 297.309 467.002 296.582 466.789 295.94C466.576 295.298 465.804 294.982 465.063 295.234C446.167 301.668 427.29 308.219 407.816 315.051C345.131 336.848 282.603 358.884 223.342 379.768C188.28 392.124 154.362 404.076 122.232 415.339C121.495 415.597 121.073 416.324 121.29 416.964ZM130.54 417.698C130.763 418.336 131.54 418.643 132.278 418.383C147.454 413.037 161.907 407.945 175.7 403.086C318.213 352.88 390.304 327.483 461.69 302.978C462.428 302.725 462.855 302.001 462.646 301.359C462.436 300.717 461.668 300.398 460.928 300.645C367.526 331.778 275.014 364.726 131.47 416.066C130.733 416.329 130.317 417.059 130.54 417.698ZM142.467 417.484C142.69 418.121 143.466 418.427 144.203 418.169C191.009 401.754 233.478 387.063 273.038 373.38C341.725 349.62 401.64 328.895 460.254 307.445C460.98 307.179 461.39 306.46 461.176 305.827C460.962 305.193 460.202 304.879 459.468 305.121C363.806 336.547 269.794 370.286 143.393 415.852C142.658 416.117 142.245 416.846 142.467 417.484ZM151.712 418.205C151.932 418.845 152.709 419.154 153.448 418.895C171.267 412.644 187.99 406.784 203.736 401.27C226.619 393.278 249.492 385.32 272.393 377.353C279.182 374.991 285.973 372.628 292.768 370.263C255.9 383.381 213.367 398.696 161.885 417.303C161.151 417.568 160.738 418.296 160.96 418.933C161.183 419.57 161.957 419.877 162.694 419.619C215.832 401.046 260.193 385.373 299.403 371.52C357.653 350.941 404.533 334.378 451.929 318.29C452.667 318.039 453.097 317.319 452.893 316.677C452.689 316.034 451.927 315.71 451.185 315.95C430.893 322.525 410.631 329.264 389.02 336.628C411.285 328.797 433.634 320.889 456.1 312.865C456.837 312.601 457.253 311.87 457.029 311.231C456.805 310.591 456.026 310.286 455.288 310.549C455.287 310.549 455.286 310.549 455.286 310.549M151.712 418.205C151.491 417.564 151.912 416.834 152.651 416.574L151.712 418.205ZM152.651 416.574C169.441 410.665 186.21 404.792 202.971 398.938L152.651 416.574ZM202.971 398.938C249.656 382.591 287.742 369.296 320.29 357.935C376.576 338.287 416.298 324.421 455.282 310.551M172.886 418.721C173.111 419.355 173.883 419.66 174.617 419.404C217.435 404.479 252.755 392.131 282.573 381.684C290.002 379.182 297.387 376.704 304.732 374.239C308.844 372.858 312.944 371.482 317.032 370.109C327.472 366.601 337.836 363.109 348.135 359.607C312.228 371.982 275.682 384.61 237.884 398.044C217.868 404.922 199.394 411.495 183.021 417.825C182.296 418.106 181.902 418.839 182.14 419.468C182.377 420.097 183.157 420.389 183.887 420.121C202.478 413.314 220.716 406.75 238.671 400.369C255.752 394.5 273.971 388.405 292.988 382.042C296.729 380.79 300.501 379.528 304.302 378.256C326.355 370.871 349.356 363.129 372.789 354.973C354.294 361.483 335.747 368.089 317.093 374.738L313.232 376.114C273.613 390.235 233.495 404.535 192.332 418.526C191.593 418.777 191.163 419.499 191.369 420.141C191.576 420.784 192.341 421.107 193.082 420.863C245.242 403.741 329.181 373.837 420.297 341.376C426.672 339.105 433.083 336.821 439.52 334.528C440.253 334.267 440.67 333.543 440.455 332.906C440.24 332.268 439.473 331.955 438.736 332.203C422.018 337.832 405.31 343.589 388.572 349.437C408.61 342.352 428.877 334.959 449.057 327.221C449.781 326.944 450.176 326.217 449.947 325.588C449.717 324.958 448.946 324.66 448.216 324.917C426.329 332.61 404.418 340.199 382.336 347.818C405.288 339.779 427.975 331.526 450.532 322.74C451.251 322.46 451.642 321.735 451.413 321.109C451.183 320.482 450.416 320.183 449.687 320.437C426.958 328.336 404.74 336.155 375.606 346.407C350.849 355.118 321.098 365.587 281.797 379.356M203.297 419.928C203.503 420.565 204.257 420.887 204.994 420.653C216.873 416.878 230.068 412.613 244.272 407.931C234.336 411.491 224.089 415.188 213.474 419.046C212.74 419.313 212.329 420.043 212.554 420.68C212.779 421.316 213.555 421.62 214.292 421.36C221.768 418.716 229.632 415.931 237.839 413.024C249.196 409.002 261.208 404.748 273.754 400.315C257.33 406.26 240.396 412.672 222.669 419.792C221.958 420.077 221.575 420.798 221.805 421.42C222.034 422.041 222.793 422.339 223.518 422.093C255.247 411.312 285.938 400.429 316.203 389.697C339.931 381.283 363.397 372.962 386.898 364.855C387.634 364.601 388.06 363.88 387.852 363.24C387.645 362.599 386.882 362.278 386.142 362.52C380.097 364.497 374.076 366.458 368.064 368.415C346.395 375.471 324.836 382.491 302.616 390.137C326.009 381.906 350.782 373.242 376.277 364.432C376.645 364.305 377.013 364.179 377.381 364.053C386.407 360.95 395.4 357.86 404.433 354.747C405.173 354.492 405.6 353.765 405.386 353.123C405.171 352.48 404.398 352.165 403.657 352.419C396.166 354.983 388.715 357.544 381.319 360.095C395.742 354.756 410.261 349.271 424.703 343.681C425.424 343.402 425.817 342.677 425.588 342.049C425.359 341.422 424.591 341.123 423.862 341.376C341.113 370.163 258.386 399.199 204.241 418.318C203.511 418.575 203.092 419.291 203.297 419.928ZM233.725 421.192C233.944 421.809 234.685 422.116 235.408 421.888C247.634 418.041 258.943 414.327 269.602 410.711C263.471 412.899 256.823 415.333 249.418 418.113C246.747 419.102 244.003 420.138 241.18 421.231C240.451 421.513 240.058 422.252 240.302 422.882C240.547 423.513 241.336 423.797 242.067 423.519C244.907 422.436 247.64 421.402 250.276 420.412C261.035 416.429 270.603 413.231 279.356 410.342C280.399 409.998 281.431 409.658 282.452 409.322C292.106 406.142 300.811 403.274 309.037 400.057C309.748 399.779 310.139 399.066 309.922 398.443C309.706 397.82 308.959 397.51 308.232 397.741C301.825 399.78 295.519 401.817 288.817 404.061C298.956 400.486 308.592 396.989 318.007 393.53C327.974 390.08 338.04 386.417 348.01 382.439C348.73 382.152 349.114 381.42 348.871 380.794C348.629 380.169 347.851 379.883 347.123 380.151C343.263 381.577 339.418 383.001 335.568 384.427C329.482 386.681 323.383 388.941 317.191 391.216C307.136 394.695 297.169 397.962 287.48 401.125C286.7 401.379 285.923 401.633 285.147 401.886C266.767 407.884 249.432 413.54 234.587 419.579C233.885 419.864 233.505 420.574 233.725 421.192Z" fill="white"/>
<path fill-rule="evenodd" clip-rule="evenodd" d="M170.055 201.753C178.939 187.781 183.048 171.272 185.316 154.095C186.756 143.18 187.463 131.887 188.159 120.76C188.557 114.406 188.951 108.105 189.476 101.96C190.93 84.9631 193.391 69.0658 199.614 55.8834C205.8 42.7784 215.69 32.38 232.096 26.2595C264.833 15.9599 290.228 31.3743 314.546 54.3834C322.75 62.1449 330.756 70.6963 338.845 79.3359C342.737 83.4922 346.648 87.6689 350.608 91.7879C362.755 104.419 375.334 116.463 389.089 125.424C397.188 131.674 405.92 137.139 414.643 142.383C416.648 143.589 418.652 144.782 420.647 145.97C427.362 149.97 433.983 153.913 440.267 158.087C456.541 168.894 470.349 181.116 477.082 199.33C488.017 236.269 480.785 276.684 455.17 311.649L455.165 311.655C444.538 326.338 429.107 337.321 411.658 347.008C402.937 351.85 393.739 356.353 384.411 360.832C382.726 361.641 381.037 362.449 379.346 363.258C371.696 366.918 364.002 370.598 356.494 374.455C346.041 379.204 335.953 384.228 326.12 389.126C324.674 389.847 323.233 390.564 321.798 391.278C310.577 396.855 299.667 402.189 288.824 406.715C267.148 415.763 245.855 421.533 223.157 419.53C223.128 419.528 223.099 419.526 223.069 419.525C214.463 419.27 205.34 419.143 195.919 419.011C165.34 418.583 131.626 418.111 102.297 413.114C63.922 406.577 33.719 392.402 27.7367 361.008L27.7307 360.976L27.7302 360.976C24.3147 345.59 29.0782 331.87 38.8025 318.911C48.5642 305.903 63.2945 293.707 79.7257 281.472C85.5954 277.101 91.6919 272.719 97.8431 268.298C108.832 260.399 119.996 252.374 130.353 244.066C146.531 231.087 160.956 217.254 170.055 201.753ZM24.9842 361.67C21.3999 345.499 26.4601 331.074 36.5303 317.655C46.5662 304.281 61.6075 291.864 78.0656 279.609C84.0282 275.169 90.1672 270.757 96.3358 266.323C107.272 258.464 118.3 250.537 128.603 242.272C144.686 229.369 158.784 215.801 167.621 200.737C167.629 200.723 167.638 200.709 167.647 200.695C176.236 187.197 180.289 171.102 182.541 154.037C183.974 143.186 184.669 132.052 185.361 120.989C185.759 114.615 186.156 108.265 186.691 102.007C188.147 84.979 190.629 68.7145 197.056 55.1002C203.514 41.4189 213.969 30.3917 231.279 23.9449C231.306 23.9351 231.332 23.926 231.359 23.9176C265.845 13.0476 292.294 29.5182 316.66 52.5722C324.912 60.3805 333.001 69.0189 341.117 77.6876C344.997 81.8314 348.884 85.982 352.798 90.0522C364.935 102.674 377.377 114.569 390.908 123.376C390.935 123.394 390.961 123.413 390.987 123.432C398.981 129.606 407.627 135.019 416.347 140.262C418.331 141.455 420.321 142.641 422.308 143.824C429.033 147.829 435.725 151.814 442.064 156.024C458.509 166.946 472.792 179.508 479.756 198.377C479.764 198.399 479.771 198.421 479.778 198.443C490.923 236.051 483.568 277.241 457.465 312.874C446.466 328.069 430.577 339.321 412.96 349.102C404.148 353.995 394.875 358.534 385.541 363.015C383.848 363.828 382.153 364.639 380.458 365.45C372.798 369.114 365.142 372.777 357.668 376.617C357.645 376.629 357.621 376.64 357.597 376.651C347.189 381.379 337.146 386.381 327.297 391.287C325.85 392.007 324.407 392.726 322.968 393.441C311.747 399.019 300.751 404.396 289.799 408.968C267.899 418.11 246.059 424.08 222.668 422.026C214.178 421.776 205.142 421.65 195.784 421.519C165.165 421.091 131.107 420.616 101.527 415.576C62.9076 408.997 31.2549 394.53 24.9842 361.67Z" fill="white"/>
</g>
</svg>
