<svg width="146" height="170" viewBox="0 0 146 170" fill="none" xmlns="http://www.w3.org/2000/svg">
<g opacity="0.3">
<path fill-rule="evenodd" clip-rule="evenodd" d="M76.4867 0.23124C76.7469 0.49304 76.7427 0.911363 76.4774 1.1682C48.9193 27.8467 33.2934 42.5945 21.0826 54.0088C16.2044 58.6104 11.2638 63.2273 6.24732 67.8486C5.97481 68.0996 5.5463 68.0875 5.28898 67.8216C5.03166 67.5556 5.04244 67.1359 5.3131 66.8829C7.59826 64.7471 9.86882 62.6311 12.2043 60.4546C14.7466 58.0853 17.3658 55.6443 20.1644 53.0282C29.2899 44.42 38.1908 35.871 46.9671 27.4419C56.5943 18.1954 66.0714 9.09305 75.5301 0.214963C75.7994 -0.037827 76.2265 -0.03056 76.4867 0.23124ZM86.7395 1.03395C86.9924 1.29625 86.9857 1.70824 86.7244 1.96253C79.6951 8.80145 69.7642 18.1308 58.1669 29.0257C56.0984 30.9689 53.9769 32.9618 51.8094 34.9994C37.4864 48.4636 21.1485 63.879 4.80397 79.7437C4.53839 80.0015 4.11001 80.0006 3.84562 79.7416C3.58124 79.4827 3.58031 79.0631 3.84354 78.8031C32.9904 50.0066 61.8369 22.0601 85.792 0.995748C86.0661 0.754699 86.4865 0.771648 86.7395 1.03395ZM83.0017 1.07962C83.2563 1.34554 83.2449 1.76262 82.9762 2.01482C68.3596 15.7305 51.8296 31.4765 34.555 47.9319C25.9268 56.1509 17.1128 64.5469 8.25855 72.9554C7.48342 73.6919 6.70847 74.4276 5.93394 75.1623C5.66454 75.4179 5.23463 75.4112 4.97366 75.1474C4.71268 74.8836 4.71945 74.4625 4.98878 74.2069C4.98883 74.2069 4.98887 74.2068 4.98892 74.2068C4.99037 74.2054 4.99181 74.204 4.99326 74.2027C5.76194 73.4731 6.53043 72.7435 7.29863 72.014C17.0729 62.7267 26.8844 53.3078 36.2488 44.3182C54.3523 26.9393 70.7849 11.1644 82.0471 1.04446C82.3214 0.798011 82.7471 0.813689 83.0017 1.07962ZM79.2631 1.12574C79.5125 1.38871 79.5039 1.7981 79.2437 2.05082C60.3952 20.3505 44.2023 35.5816 28.9243 49.9522C23.7732 54.7974 18.7261 59.5448 13.7162 64.2789C11.202 66.6791 8.66027 69.0893 6.092 71.5035C5.82193 71.7574 5.39303 71.7494 5.13305 71.4856C4.87307 71.2218 4.88007 70.8017 5.14869 70.5464C7.67931 68.1408 10.2102 65.7435 12.7502 63.3432C20.7668 55.6902 28.5174 48.1266 35.9647 40.859C51.5192 25.6796 65.7507 11.7915 78.3196 1.07677C78.5961 0.841092 79.0136 0.862763 79.2631 1.12574ZM71.768 1.19837C72.0295 1.45859 72.0279 1.87662 71.7645 2.13496C52.6599 20.8678 37.9474 34.6164 24.7567 46.9429C18.7422 52.5633 13.044 57.8881 7.39022 63.2549C7.12105 63.5105 6.69141 63.5041 6.43028 63.2407C6.16915 62.9773 6.17529 62.5565 6.444 62.3005C19.866 49.5149 33.5582 36.4845 70.8117 1.1869C71.0796 0.933022 71.5064 0.93814 71.768 1.19837ZM89.5039 1.91607C89.7602 2.18056 89.7513 2.59788 89.4838 2.85164C78.4308 13.3403 67.9535 23.3347 57.8062 33.0143C39.4895 50.4868 22.2478 66.9338 4.63473 83.4118C4.3652 83.664 3.93852 83.6563 3.67867 83.3945C3.41882 83.1328 3.42293 82.7149 3.68786 82.4581C37.3313 49.85 69.2539 19.4552 88.5488 1.88683C88.8215 1.63853 89.2475 1.65157 89.5039 1.91607ZM67.0424 2.15884C67.3059 2.41086 67.3162 2.82262 67.0658 3.08705C53.8561 17.0324 39.5236 30.1738 24.7801 43.692C19.0833 48.9153 13.3253 54.1949 7.54686 59.5988C7.27597 59.8521 6.84681 59.8429 6.58759 59.5781C6.32837 59.3133 6.33697 58.893 6.6068 58.6386C21.0212 45.0485 35.9426 30.8796 66.0943 2.1579C66.3583 1.90641 66.7789 1.90683 67.0424 2.15884ZM63.3077 2.20731C63.5713 2.46586 63.5726 2.88422 63.3106 3.14433C52.2408 14.1358 43.5338 22.4165 36.4478 29.0031C27.1674 37.8791 18.0426 46.4855 8.67593 55.018C8.40845 55.2617 7.9921 55.2545 7.73357 55.0018C7.47503 54.749 7.46694 54.3413 7.71525 54.0789C12.2309 49.3072 17.0904 44.8866 23.7027 38.8717C24.7519 37.9172 25.8453 36.9225 26.9885 35.88C29.5528 33.5414 32.3702 30.9592 35.5055 28.045C41.4048 22.4027 47.3685 16.65 53.4999 10.7356C56.4088 7.92963 59.3555 5.08724 62.3509 2.20297C62.6169 1.94683 63.0441 1.94877 63.3077 2.20731ZM92.2679 2.79651C92.5231 3.05821 92.5179 3.47173 92.2561 3.72714C65.2514 30.0736 45.1569 48.869 28.2897 64.6459C19.2967 73.0575 11.2211 80.611 3.50464 87.9934C3.2375 88.249 2.80979 88.2454 2.54718 87.9854C2.28457 87.7253 2.2856 87.3064 2.54948 87.0476C36.0411 54.2023 70.2314 21.6771 91.3181 2.7654C91.5906 2.52099 92.0127 2.53481 92.2679 2.79651ZM58.6054 3.19098C58.8617 3.45749 58.8499 3.87678 58.579 4.12906C55.547 6.95219 52.6457 9.6493 49.8595 12.2394C45.6559 16.1472 41.7144 19.8113 37.9817 23.2969C30.1382 30.7286 23.3282 37.3285 17.054 43.409C14.2256 46.1501 11.5061 48.7857 8.8499 51.3443C8.58487 51.5996 8.1595 51.5988 7.8955 51.3425C7.63149 51.0862 7.62698 50.6696 7.88536 50.4078C16.6948 41.4832 25.9543 32.6903 37.0453 22.3333C43.1975 16.504 49.9857 10.1629 57.6476 3.16073C57.921 2.91094 58.349 2.92446 58.6054 3.19098ZM54.859 3.22911C55.1183 3.4924 55.1119 3.9114 54.8446 4.16693C50.7405 8.08957 47.0087 11.6598 43.5855 14.935C40.9796 17.4761 38.4593 19.9592 35.9945 22.3878C27.067 31.1838 18.8662 39.2639 9.95262 46.7885C9.67278 47.0247 9.25145 46.9986 9.00433 46.7296C8.75721 46.4606 8.77497 46.0475 9.0443 45.7998C17.7424 37.8007 26.812 29.1234 42.0903 14.5058C42.2493 14.3537 42.4088 14.201 42.5691 14.0477C46.1488 10.5568 49.8985 6.9485 53.9015 3.2096C54.1718 2.9571 54.5996 2.96582 54.859 3.22911ZM95.0338 3.6789C95.2927 3.94476 95.2824 4.36576 95.0109 4.6193C66.8619 30.907 45.6895 51.1706 26.5091 69.5276C18.2241 77.457 10.3108 85.0306 2.36749 92.5804C2.09994 92.8347 1.67308 92.8302 1.41116 92.5703C1.14924 92.3105 1.15019 91.8924 1.41329 91.6337C23.886 69.5359 47.3122 47.3172 94.0627 3.66671C94.0664 3.6633 94.07 3.65989 94.0737 3.65648C94.3451 3.40301 94.775 3.41305 95.0338 3.6789ZM97.7963 4.55909C98.0566 4.82305 98.0495 5.24362 97.7804 5.49894C72.3463 29.6263 54.2301 46.8498 39.9038 60.4702C24.3856 75.2236 13.3142 85.7495 2.2057 96.2427C1.93841 96.4952 1.51359 96.4906 1.25205 96.2324C0.990512 95.9742 0.989242 95.5581 1.2492 95.2984C21.4994 75.0654 42.5771 55.3599 66.2396 33.2377C75.9616 24.1485 86.12 14.6514 96.8367 4.54214C97.1066 4.28755 97.536 4.29514 97.7963 4.55909ZM100.56 5.43901C100.819 5.69928 100.816 6.11485 100.555 6.37238C87.0058 19.7033 71.6696 34.021 55.6284 48.9969C54.9106 49.667 54.1914 50.3384 53.4708 51.0112C44.1454 59.7181 34.5988 68.6417 25.0388 77.7202C17.3835 85.0757 9.70901 92.4806 2.05147 99.8965C1.78548 100.154 1.35685 100.152 1.09282 99.893C0.828785 99.6334 0.828765 99.2137 1.09278 98.9541C8.69599 91.4791 16.3981 84.0728 24.0901 76.7681C49.9428 51.9281 75.5786 27.6504 99.607 5.41965C99.8767 5.17013 100.301 5.17875 100.56 5.43901ZM103.333 6.32861C103.588 6.59329 103.578 7.00959 103.311 7.26283C86.7428 22.9834 72.4973 36.5954 59.581 48.9375C38.2103 69.358 20.4779 86.3019 1.8809 103.567C1.61103 103.818 1.18561 103.809 0.926509 103.548C0.667409 103.287 0.670979 102.87 0.934518 102.613C40.2653 64.2699 78.6145 27.6903 102.379 6.29545C102.653 6.04914 103.078 6.06392 103.333 6.32861ZM47.2053 6.96343C47.4722 7.21982 47.4773 7.63926 47.2167 7.90184C44.4671 10.6727 41.8757 13.1964 39.4286 15.5223C30.3445 24.3162 21.5564 32.5081 13.0605 40.3308C12.7963 40.5741 12.3836 40.5712 12.123 40.3242C11.8624 40.0773 11.8459 39.6734 12.0854 39.4068C16.1249 34.9109 20.784 30.7173 26.3572 25.7035L26.4144 25.6521C30.0153 22.4126 34.0061 18.8224 38.4774 14.5726C41.0438 12.0882 43.6336 9.55591 46.247 6.97035C46.51 6.71014 46.9384 6.70704 47.2053 6.96343ZM106.089 7.20261C106.351 7.46381 106.348 7.88296 106.083 8.14065C79.8585 33.6144 60.3105 52.032 44.0475 67.2581C41.2312 69.8948 38.5137 72.4356 35.8772 74.9006C32.1063 78.4263 28.5013 81.7968 25.0104 85.0712C17.1697 92.5188 9.44585 99.8648 1.72706 107.222C1.45915 107.477 1.03089 107.473 0.768901 107.211C0.506908 106.95 0.509699 106.531 0.775146 106.273C8.3569 98.9095 15.9026 91.7722 24.069 84.1123C34.8942 73.8297 45.9428 63.3531 57.5084 52.3861C72.3276 38.3339 87.9959 23.4767 105.131 7.19109C105.4 6.93626 105.828 6.9414 106.089 7.20261ZM108.857 8.0864C109.117 8.34806 109.113 8.7662 108.848 9.02311C54.0924 62.1011 27.1403 87.3618 2.53297 109.964C2.26103 110.214 1.83432 110.202 1.57696 109.938C1.31961 109.674 1.32783 109.256 1.59539 109.002C12.3126 98.816 23.0613 88.569 33.8218 78.3107C58.5317 54.7541 83.3039 31.1381 107.9 8.07C108.17 7.81741 108.596 7.82473 108.857 8.0864ZM41.5365 8.88179C41.7874 9.14698 41.7761 9.55992 41.511 9.81155C37.6308 13.4942 34.1971 16.7607 30.9712 19.8294C28.4097 22.2662 25.9791 24.5784 23.5601 26.8753C20.8893 29.5062 18.1732 32.1263 15.1648 34.8242C14.8906 35.07 14.4656 35.0543 14.2111 34.789C13.9566 34.5236 13.9672 34.1072 14.2349 33.8546C17.1271 31.1253 19.8585 28.5373 22.6045 25.9299C23.5497 24.9987 24.4906 24.0649 25.4388 23.1239C25.8765 22.6895 26.3157 22.2535 26.7576 21.8157C30.8541 17.7563 35.1713 13.537 40.5879 8.83611C40.8642 8.59631 41.2855 8.6166 41.5365 8.88179ZM37.8217 8.95347C38.0516 9.22675 38.0226 9.62856 37.7557 9.86745C27.954 18.6406 23.9617 22.6522 19.8738 26.76C19.3475 27.2888 18.8196 27.8193 18.2776 28.3617C18.0223 28.6171 17.6067 28.6293 17.3362 28.3894C17.0658 28.1495 17.0373 27.7432 17.2716 27.4693C23.2691 20.4586 31.2858 12.9145 36.893 8.84222C37.1835 8.63129 37.5917 8.6802 37.8217 8.95347ZM110.654 9.9024C110.91 10.1681 110.9 10.587 110.63 10.84C97.9885 22.6913 86.7795 33.3121 76.6146 43.0024C72.6692 46.7983 68.6329 50.6911 64.5177 54.66C63.3182 55.8169 62.112 56.9803 60.8993 58.1496C42.5088 75.8828 22.6502 94.9792 2.37694 113.621C2.37565 113.622 2.37436 113.623 2.37307 113.625C2.37303 113.625 2.37299 113.625 2.37296 113.625C2.09953 113.876 1.66977 113.863 1.41301 113.595C1.15626 113.327 1.16973 112.907 1.44309 112.655C16.4488 98.8507 30.9018 84.97 48.0655 68.486C56.4913 60.3938 65.5704 51.6742 75.6889 42.0283C88.0317 30.1533 99.4925 19.22 109.696 9.87376C109.969 9.62387 110.397 9.63666 110.654 9.9024ZM113.414 10.7795C113.674 11.0432 113.667 11.4634 113.399 11.7188C102.365 22.2086 91.5331 32.5266 80.8383 42.7143C54.1189 68.1667 28.2533 92.8058 2.2181 117.279C1.94819 117.533 1.5196 117.525 1.25955 117.262C0.999502 116.998 1.00593 116.579 1.27393 116.323L1.27751 116.32L2.8387 114.83C38.9432 80.3898 74.1679 46.7885 112.455 10.7619C112.725 10.5078 113.154 10.5157 113.414 10.7795ZM116.178 11.6609C116.437 11.9227 116.432 12.3395 116.168 12.5959C78.3242 49.3253 50.2954 75.7914 24.66 99.7967C16.96 107.207 10.0725 113.705 3.02131 120.025C2.74663 120.271 2.32075 120.255 2.06654 119.989C1.81233 119.722 1.82459 119.305 2.09402 119.053L2.10426 119.044L4.17168 117.112C10.6117 111.096 17.083 105.051 23.7143 98.8417C28.1397 94.5827 32.8361 90.0197 37.9905 85.0117C39.8173 83.2368 41.7017 81.4059 43.652 79.5129C60.6699 62.9942 82.6886 41.7548 115.223 11.6401C115.494 11.3899 115.919 11.3992 116.178 11.6609ZM117.969 13.4707C118.229 13.7344 118.222 14.1543 117.953 14.4097C101.734 29.8436 87.9724 42.9539 75.9839 54.3748C48.936 80.1421 30.915 97.3099 14.0667 113.161C10.6775 116.352 7.27321 119.546 3.84836 122.748M117.969 13.4707C117.709 13.2071 117.28 13.1989 117.01 13.4525L117.969 13.4707ZM3.84686 122.749C3.8468 122.749 3.84675 122.749 3.8467 122.749C3.57539 123.003 3.14555 122.993 2.88656 122.727C2.62757 122.462 2.63748 122.041 2.90869 121.787C6.35788 118.561 9.78878 115.342 13.2707 112.066C29.3339 96.9428 45.0359 81.9295 60.9977 66.6677C79.0378 49.4189 97.4098 31.8527 117.01 13.4525M120.737 14.355C120.995 14.6193 120.986 15.038 120.718 15.2924C107.751 27.591 94.4905 40.2487 81.0059 53.1206C55.8662 77.1183 29.9461 101.861 3.68645 126.41C3.41668 126.662 2.98973 126.654 2.73004 126.392C2.47035 126.13 2.4751 125.712 2.74066 125.455C6.65689 121.674 10.5778 117.881 14.5511 114.038C41.9301 87.5563 71.7981 58.6669 119.78 14.3308C120.051 14.0799 120.479 14.0907 120.737 14.355ZM122.518 16.154C122.78 16.4127 122.781 16.8296 122.52 17.0892C88.9673 50.4539 59.8942 77.5131 31.856 103.609C22.6674 112.161 13.59 120.61 4.50251 129.143C4.232 129.397 3.80252 129.388 3.54282 129.124C3.28312 128.859 3.29138 128.438 3.56128 128.184C22.3492 110.457 41.4713 92.2709 65.206 69.6982C81.3937 54.3029 99.7271 36.8672 121.563 16.1448C121.83 15.8913 122.256 15.8954 122.518 16.154ZM124.31 17.9648C124.573 18.2257 124.57 18.6455 124.305 18.9036C119.058 24.0049 113.516 29.31 107.734 34.7939C99.2927 42.899 91.4981 50.396 84.2288 57.3878C82.3002 59.2428 80.4085 61.0622 78.5516 62.848C92.5788 49.6115 107.895 35.3996 125.155 19.7513C125.428 19.5037 125.854 19.5175 126.11 19.7823C126.366 20.0471 126.356 20.4642 126.089 20.7176C90.5559 54.3664 65.3076 78.3753 43.8748 98.756C30.6766 111.306 18.9252 122.481 7.11013 133.683C6.84186 133.938 6.41425 133.932 6.15282 133.671C5.89139 133.41 5.8942 132.991 6.15911 132.734C10.5846 128.429 15.0108 124.113 19.4754 119.76C26.7989 112.618 34.2255 105.377 41.9201 97.9191C28.8452 110.324 17.1789 121.193 5.30726 131.887C5.03551 132.132 4.61383 132.119 4.35791 131.859C4.10199 131.598 4.1056 131.185 4.36604 130.929C25.5133 110.114 47.1043 89.8007 67.4846 70.7274C70.2102 68.1766 72.9141 65.648 75.5923 63.1434C86.5037 52.9395 96.9894 43.1336 106.784 33.8435C112.045 28.7925 117.558 23.505 123.351 17.9561C123.619 17.6999 124.047 17.7038 124.31 17.9648ZM127.894 21.585C128.155 21.8479 128.149 22.268 127.881 22.5243C124.24 26.0096 120.463 29.5945 116.567 33.2719C109.048 40.435 100.902 48.2272 92.283 56.4712C66.9352 80.7169 37.502 108.87 7.92075 136.423C7.65205 136.673 7.22802 136.666 6.96818 136.407C6.70833 136.148 6.70874 135.732 6.96909 135.474C34.6578 107.969 62.8116 81.6944 88.1329 58.0628C97.7705 49.0684 106.998 40.4569 115.633 32.3064C119.58 28.5464 123.354 24.9592 126.935 21.5703C127.204 21.3155 127.633 21.3221 127.894 21.585ZM129.691 23.3998C129.947 23.6653 129.936 24.0833 129.667 24.3362C116.561 36.6618 104.994 47.5246 94.6799 57.2117C63.7922 86.2204 44.132 104.685 27.9688 120.307C21.8706 126.26 15.7876 132.232 9.72371 138.217C9.46007 138.477 9.03114 138.479 8.76467 138.222C8.49819 137.965 8.49463 137.544 8.75671 137.283C14.6107 131.437 20.529 125.63 27.0082 119.367C60.6547 86.5221 94.7694 54.2408 128.735 23.3689C129.008 23.1205 129.435 23.1343 129.691 23.3998ZM131.47 25.1975C131.733 25.4574 131.732 25.8765 131.468 26.1354C79.979 76.6592 51.1708 103.303 28.758 124.032C22.2772 130.026 16.3312 135.525 10.5261 140.964C10.2564 141.217 9.82898 141.209 9.5691 140.947C9.30921 140.684 9.31426 140.266 9.58041 140.009C25.7929 124.395 42.147 108.97 60.4573 91.6985C80.6268 72.6739 103.17 51.4104 130.512 25.1903C130.779 24.9344 131.207 24.9376 131.47 25.1975ZM133.265 27.0104C133.525 27.2726 133.52 27.6907 133.254 27.9471C112.845 47.6504 93.6024 65.6711 75.1455 82.9564C63.3939 93.962 51.9607 104.669 40.7471 115.323C30.325 125.332 21.3255 134.046 12.3244 142.764C12.0585 143.022 11.63 143.02 11.3659 142.761C11.1019 142.502 11.1016 142.082 11.3653 141.822C20.703 132.628 30.1478 123.541 39.757 114.411C60.849 94.156 87.7626 68.6052 132.309 26.9921C132.579 26.74 133.005 26.7482 133.265 27.0104ZM134.082 29.7473C134.342 30.0118 134.334 30.4324 134.064 30.6871C134.064 30.6876 134.063 30.688 134.063 30.6884M134.082 29.7473C133.822 29.4828 133.393 29.4744 133.122 29.7285L134.082 29.7473ZM91.5654 71.1285C68.0514 93.6131 41.1827 119.306 14.1057 144.581C13.8365 144.832 13.4109 144.824 13.1511 144.564C12.8913 144.303 12.8939 143.886 13.157 143.629C33.1806 124.03 54.1036 104.292 92.1394 68.411C101.305 59.7643 111.465 50.1801 122.846 39.4344C126.446 36.0203 129.878 32.7773 133.122 29.7285M91.5654 71.1285C103.275 59.9313 114.153 49.5297 123.81 40.3713L91.5654 71.1285ZM123.81 40.3713C127.122 37.2442 130.538 34.0186 134.062 30.6891L123.81 40.3713ZM135.864 31.5469C136.126 31.8043 136.128 32.2198 135.869 32.4801C130.19 38.1964 124.374 44.0007 118.439 49.8716C124.944 43.884 131.067 38.3378 136.717 33.3309C136.994 33.0856 137.421 33.1051 137.674 33.3746C137.926 33.644 137.909 34.0624 137.635 34.3113C122.206 48.3555 101.012 68.67 76.9729 91.7117C58.455 109.461 38.2486 128.829 17.6884 148.196C17.4198 148.449 16.9931 148.442 16.7323 148.181C16.4716 147.921 16.4742 147.503 16.7382 147.245C24.5116 139.658 32.2919 132.077 40.0034 124.586C32.0178 131.902 23.9676 139.186 15.8848 146.4C15.6114 146.644 15.1888 146.629 14.9343 146.366C14.6799 146.103 14.6872 145.689 14.9508 145.434C47.6129 113.933 81.0216 82.4036 113.1 52.1297C120.449 45.1946 127.727 38.3255 134.911 31.5376C135.178 31.2854 135.602 31.2896 135.864 31.5469ZM87.9755 77.7013C78.1088 87.1876 68.0195 96.7535 57.7782 106.316C67.8764 96.7167 77.9622 87.1663 87.9755 77.7013ZM138.48 36.1009C138.737 36.3657 138.728 36.784 138.46 37.0378C108.887 64.9853 86.334 86.4823 67.247 104.675C65.2364 106.592 63.2643 108.471 61.3265 110.318C46.835 124.321 33.1373 137.469 19.4723 150.011C19.1997 150.261 18.7721 150.248 18.5151 149.983C18.258 149.718 18.2682 149.299 18.5377 149.045C31.7101 136.669 44.9554 124.064 60.3741 109.37C62.9195 106.91 65.4896 104.424 68.0888 101.91C69.7083 100.343 71.3391 98.7659 72.9821 97.1773C92.2711 78.5267 113.244 58.3353 137.524 36.0736C137.796 35.8239 138.223 35.8361 138.48 36.1009ZM139.296 38.8359C139.554 39.1028 139.542 39.5235 139.27 39.7759C109.026 67.8041 87.1184 89.1238 68.9744 106.782L68.9012 106.853C50.7937 124.476 36.4232 138.461 21.2524 151.828C20.9789 152.069 20.5592 152.052 20.3058 151.791C20.0524 151.53 20.0574 151.119 20.3171 150.864C57.635 114.201 95.5263 78.4008 138.337 38.8092C138.609 38.5571 139.039 38.5691 139.296 38.8359ZM140.105 41.5639C140.366 41.8267 140.36 42.2469 140.093 42.5033C119.559 62.1753 103.086 78.0868 89.3215 91.3828C58.8593 120.808 41.6583 137.423 23.0397 153.639C22.7644 153.879 22.3439 153.86 22.0923 153.597C21.8406 153.333 21.8495 152.921 22.1124 152.668C47.43 128.305 73.4272 103.725 101.164 77.499C113.452 65.8802 126.082 53.9386 139.145 41.55C139.414 41.2949 139.843 41.3012 140.105 41.5639ZM141.895 43.3735C142.156 43.6377 142.148 44.0587 141.879 44.3139C141.879 44.314 141.879 44.3141 141.879 44.3141M141.895 43.3735C141.635 43.1094 141.205 43.1021 140.935 43.3572L141.895 43.3735ZM140.935 43.3572C131.901 51.9015 123.01 60.2986 114.244 68.5767L140.935 43.3572ZM114.244 68.5767C83.1061 97.9829 53.5584 125.887 24.8774 153.55L114.244 68.5767ZM95.8084 88.1047C73.0502 109.779 49.4526 132.252 25.8247 154.504C25.5554 154.757 25.1277 154.75 24.8672 154.488C24.6067 154.226 24.6112 153.807 24.8774 153.55M95.8084 88.1047C111.663 73.0054 127.11 58.2942 141.877 44.3161L95.8084 88.1047ZM142.71 46.1079C142.969 46.3705 142.964 46.7893 142.698 47.0454C90.7181 97.0097 59.1789 127.169 27.6101 156.316C27.3386 156.567 26.9114 156.556 26.6534 156.292C26.3955 156.028 26.4034 155.609 26.6711 155.355C34.7009 147.719 42.6916 140.067 51.3475 131.777C73.3391 110.716 99.6241 85.5433 141.752 46.09C142.022 45.8373 142.45 45.8453 142.71 46.1079ZM142.549 49.7676C142.809 50.0306 142.804 50.4498 142.536 50.7058C130.448 62.2853 118.302 73.6197 106.176 84.89C82.7563 106.976 55.9485 132.426 29.4119 158.114C29.1472 158.37 28.7214 158.37 28.4568 158.114C28.1923 157.858 28.1876 157.441 28.4462 157.179C51.3807 133.954 75.0704 111.95 98.8687 89.8453C101 87.8654 103.133 85.8846 105.266 83.9021C118.726 71.208 131.067 59.6261 141.592 49.75C141.862 49.4968 142.29 49.5047 142.549 49.7676ZM143.36 52.498C143.623 52.7594 143.621 53.1805 143.354 53.4385C143.354 53.4386 143.354 53.4387 143.354 53.4387C143.35 53.4418 143.347 53.4449 143.344 53.448C142.113 54.6389 140.895 55.8154 139.692 56.978C112.971 82.8055 72.4886 121.922 31.1898 159.934C30.9188 160.183 30.4933 160.173 30.2354 159.91C29.9774 159.648 29.983 159.231 30.2479 158.975C40.3006 149.271 50.5318 139.682 62.7864 128.196C66.257 124.943 69.8898 121.538 73.7268 117.935C90.3855 102.294 110.9 82.9179 138.708 56.0599C138.895 55.8786 139.082 55.6979 139.269 55.5179C140.335 54.4873 141.379 53.4783 142.399 52.4919C142.666 52.2339 143.096 52.2366 143.36 52.498ZM144.176 55.2333C144.438 55.4942 144.435 55.9129 144.17 56.1706C121.228 78.5148 103.091 95.9146 87.7052 110.506C69.0747 128.506 51.8747 144.911 33.9463 160.825C33.6708 161.07 33.2456 161.052 32.9925 160.785C32.7395 160.518 32.7527 160.101 33.0222 159.85C36.1901 156.9 39.35 153.96 42.5427 150.991C55.7574 138.7 69.5325 125.888 86.7537 109.556C90.6942 105.749 94.6993 101.87 98.7895 97.9084C112.402 84.7243 126.958 70.6262 143.219 55.2209C143.488 54.9668 143.915 54.9723 144.176 55.2333ZM144.992 57.9691C145.253 58.2304 145.25 58.6488 144.985 58.9062C91.245 111.127 63.9927 137.187 36.7136 161.704C36.4397 161.951 36.0147 161.935 35.7599 161.67C35.5051 161.405 35.5152 160.989 35.7825 160.736C57.3026 140.375 78.8958 119.831 98.0652 101.594C116.297 84.2478 132.337 68.988 144.035 57.9549C144.304 57.7015 144.731 57.7078 144.992 57.9691ZM145.806 60.7018C146.069 60.9638 146.065 61.3847 145.798 61.6421C120.997 85.5145 101.368 103.898 84.5744 119.627C84.0283 120.138 83.4851 120.647 82.9449 121.153C68.3749 134.926 53.3338 149.21 38.5212 163.496C38.2551 163.753 37.8274 163.751 37.5638 163.492C37.3001 163.233 37.2993 162.814 37.562 162.554C51.155 149.109 65.1744 135.956 82.0219 120.177C88.6243 113.935 95.1307 107.798 101.474 101.815C117.286 86.9015 132.087 72.9412 144.844 60.6942M145.806 60.7018C145.544 60.4398 145.114 60.4357 144.846 60.6927L145.806 60.7018ZM144.846 60.6927C144.846 60.6929 144.846 60.6931 144.845 60.6934L144.846 60.6927ZM145.656 64.3731C145.912 64.6396 145.9 65.0583 145.629 65.3104C120.38 88.8414 80.4266 126.637 41.2867 164.379C41.0199 164.637 40.5908 164.634 40.3274 164.373C40.0641 164.113 40.0658 163.693 40.3312 163.434C44.4063 159.464 48.4473 155.513 52.5354 151.516C76.3219 128.257 101.705 103.438 144.699 64.3412C144.973 64.0923 145.4 64.1066 145.656 64.3731ZM145.485 68.0213C145.748 68.2825 145.745 68.7029 145.479 68.9609C135.525 78.6089 125.935 87.7268 116.644 96.4826C112.26 100.64 107.988 104.682 103.813 108.627C117.226 96.0787 130.741 83.7821 144.384 71.6565C144.659 71.4122 145.083 71.4293 145.337 71.695C145.59 71.9607 145.579 72.3764 145.311 72.6285C138.863 78.7022 132.464 84.718 126.108 90.6926C99.0217 116.156 72.7307 140.872 46.8204 166.141C46.5568 166.398 46.131 166.399 45.8654 166.144C45.5999 165.889 45.5936 165.472 45.8512 165.209C60.9295 149.821 76.0874 134.916 91.3664 120.371C91.1231 120.601 90.8802 120.83 90.6375 121.058C89.7276 121.916 88.8218 122.77 87.92 123.62C72.4308 138.223 58.1176 151.718 44.0518 165.262C43.7855 165.518 43.3578 165.516 43.0943 165.257C42.8309 164.997 42.8306 164.579 43.0937 164.319C59.4148 148.214 76.2201 132.499 93.991 115.88C101.095 109.236 108.354 102.448 115.798 95.4327C124.852 86.8448 134.383 77.7614 144.525 68.0135C144.793 67.7565 145.222 67.76 145.485 68.0213ZM145.167 75.3465C145.428 75.6093 145.423 76.029 145.155 76.2853C140.77 80.4886 136.066 85.0087 131.098 89.782C107.541 112.416 78.0606 140.74 48.5975 167.962C48.3265 168.213 47.9 168.203 47.6418 167.939C47.3836 167.676 47.3901 167.259 47.6563 167.003C80.7799 135.236 114.418 103.467 139.628 79.6573C141.188 78.1842 142.716 76.7415 144.209 75.3312C144.478 75.0769 144.907 75.0837 145.167 75.3465ZM144.035 79.9352C144.295 80.2004 144.286 80.6213 144.015 80.8755C144.015 80.8756 144.015 80.8756 144.015 80.8757C144.011 80.8789 144.008 80.8821 144.004 80.8853C115.98 107.196 95.348 126.904 77.9031 143.568C68.3304 152.713 59.7173 160.94 51.3689 168.839C51.1004 169.093 50.673 169.087 50.4118 168.826C50.1506 168.565 50.1536 168.146 50.4185 167.889C81.9864 137.193 114.343 106.856 136.3 86.2687C138.686 84.0317 140.949 81.9098 143.075 79.9151C143.346 79.661 143.776 79.67 144.035 79.9352ZM139.973 87.2986C140.232 87.5626 140.225 87.9821 139.956 88.2371C126.775 100.76 115.732 111.176 106.134 120.211C102.401 123.773 98.7407 127.273 95.1346 130.723C93.8372 131.965 92.5468 133.2 91.2626 134.429C78.8759 146.283 67.0673 157.584 55.1074 168.797C54.8389 169.049 54.4135 169.042 54.1531 168.783C53.8926 168.523 53.894 168.106 54.1561 167.848C67.2625 154.934 79.8878 143.058 97.4138 126.571C99.9033 124.229 102.492 121.794 105.194 119.25C115.758 109.17 126.899 98.5969 139.015 87.2785C139.285 87.0257 139.714 87.0347 139.973 87.2986ZM138.836 91.8839C139.093 92.1438 139.09 92.5572 138.831 92.8144C126.875 104.643 111.241 119.336 94.1912 135.359C82.5081 146.338 70.1607 157.942 57.8776 169.676C57.6102 169.931 57.1825 169.928 56.9201 169.667C56.6577 169.407 56.659 168.988 56.9231 168.73C81.9775 144.191 106.615 120.27 137.886 91.8589C138.157 91.6128 138.579 91.6239 138.836 91.8839ZM118.194 114.987C118.453 115.248 118.45 115.663 118.188 115.92C107.255 126.655 98.5827 134.84 91.4758 141.418C82.338 150.187 72.0867 159.959 61.6102 169.64C61.3455 169.884 60.9309 169.881 60.6702 169.632C60.4095 169.384 60.3954 168.978 60.6382 168.712C65.9245 162.931 71.5214 157.834 79.5502 150.523C79.9003 150.204 80.255 149.881 80.6145 149.554C83.5623 146.869 86.8359 143.882 90.5336 140.46C91.4869 139.545 92.4282 138.641 93.3564 137.749C94.9668 136.201 96.5381 134.69 98.0648 133.222C105.849 125.735 112.477 119.361 117.241 114.966C117.511 114.717 117.936 114.726 118.194 114.987ZM114.141 122.358C114.397 122.624 114.386 123.042 114.118 123.294C108.275 128.794 103.072 133.71 98.3746 138.16C96.1656 140.303 93.9506 142.466 91.7281 144.635C91.158 145.192 90.5874 145.749 90.0163 146.306C81.9089 154.217 73.7 162.182 65.3411 169.605C65.0665 169.849 64.643 169.832 64.3895 169.567C64.136 169.302 64.146 168.887 64.4121 168.635C67.8496 165.37 71.4175 161.966 75.3488 158.214C81.5139 152.331 88.5726 145.596 97.4231 137.211C102.7 132.092 107.949 127.074 113.186 122.327C113.459 122.079 113.885 122.093 114.141 122.358ZM111.055 128.797C111.307 129.059 111.301 129.469 111.042 129.723C96.9367 143.559 84.8323 154.858 73.3685 165.559C71.9343 166.898 70.51 168.227 69.0932 169.551C68.828 169.799 68.41 169.796 68.1485 169.544C67.8871 169.293 67.8764 168.884 68.1244 168.619L68.1794 168.561C76.3703 159.837 85.6315 149.973 110.111 128.755C110.386 128.517 110.804 128.536 111.055 128.797ZM106.956 136.126C107.224 136.364 107.254 136.766 107.024 137.04C100.494 144.822 88.9444 155.309 76.003 166.719C74.9361 167.672 73.8823 168.599 72.8152 169.524C72.535 169.767 72.107 169.742 71.858 169.468C71.6091 169.195 71.6331 168.775 71.9116 168.531C72.982 167.59 74.0446 166.655 75.0973 165.727C82.0016 159.558 89.469 152.279 104.77 137.366L106.02 136.146C106.277 135.896 106.689 135.887 106.956 136.126ZM102.94 143.534C103.19 143.803 103.174 144.219 102.902 144.468C96.7653 150.093 92.1524 154.558 88.089 158.509C87.814 158.776 87.5415 159.041 87.2712 159.304C83.5484 162.925 80.24 166.144 76.5671 169.47C76.292 169.719 75.863 169.703 75.6081 169.434C75.3533 169.165 75.3689 168.745 75.643 168.495C78.6745 165.73 81.6856 162.756 84.9343 159.547C85.7519 158.74 86.5846 157.917 87.4364 157.08C91.6682 152.918 96.359 148.394 101.986 143.485C102.264 143.243 102.689 143.265 102.94 143.534ZM101.816 148.132C102.058 148.405 102.032 148.818 101.759 149.06C98.6964 151.779 95.813 154.599 92.8168 157.533L92.7202 157.627C92.6032 157.742 92.4861 157.857 92.3687 157.972C92.0496 158.312 91.7359 158.648 91.4263 158.979L91.3349 159.077C88.5761 162.032 86.1108 164.672 83.1635 166.704C82.8709 166.906 82.4686 166.851 82.2439 166.578C82.0192 166.305 82.0492 165.908 82.3126 165.671C85.5956 162.711 88.5382 159.841 91.3875 157.051C93.9688 154.301 96.9367 151.244 100.87 148.055C101.154 147.825 101.574 147.859 101.816 148.132Z" fill="#FFEE75"/>
<path fill-rule="evenodd" clip-rule="evenodd" d="M128.051 22.8811C115.657 9.27223 94.4787 0.453807 75.7795 1.39952L75.7729 1.39982C56.8098 2.17981 35.9395 7.57025 21.7277 21.2755C15.0163 27.8642 11.1709 36.5407 8.70728 45.8842C6.58832 53.9207 5.5041 62.3955 4.47907 70.4077C4.31198 71.7138 4.14646 73.0076 3.97829 74.2852C3.6901 77.536 3.34429 80.7846 2.99982 84.0206C2.12524 92.2364 1.25936 100.371 1.36742 108.252C1.51769 119.213 3.55674 129.573 10.0469 138.772C24.1845 158.624 50.6173 172.225 75.5963 167.847C87.3959 164.74 94.1825 155.956 99.7388 145.568C101.617 142.056 103.339 138.392 105.068 134.715C105.902 132.941 106.737 131.164 107.592 129.399C110.208 124 112.995 118.75 116.434 114.232C118.948 110.878 121.804 107.645 124.679 104.454C125.091 103.997 125.504 103.54 125.916 103.084C128.384 100.352 130.833 97.641 133.084 94.8768C138.342 88.4219 142.437 81.7765 143.085 74.1586C143.087 74.1362 143.09 74.1138 143.094 74.0917C146.338 57.0908 139.718 36.5876 128.051 22.8811ZM75.7127 0.0708596C94.8325 -0.894978 116.41 8.09496 129.072 22.0039L129.087 22.0206C140.967 35.9721 147.751 56.8547 144.436 74.3028C143.745 82.3092 139.444 89.2022 134.146 95.7064C131.871 98.4993 129.396 101.239 126.93 103.969C126.518 104.424 126.107 104.879 125.698 105.334C122.823 108.525 120.003 111.718 117.528 115.021L117.525 115.025C114.168 119.434 111.428 124.587 108.819 129.969C107.979 131.703 107.151 133.464 106.321 135.231C104.584 138.925 102.836 142.643 100.942 146.185C95.3333 156.672 88.3046 165.89 75.9202 169.139C75.9018 169.144 75.8832 169.148 75.8645 169.151C50.2525 173.654 23.3135 159.728 8.93159 139.531L8.92993 139.529C2.22989 130.033 0.161517 119.378 0.00922699 108.27C-0.099974 100.305 0.778776 92.0497 1.65653 83.8036C1.99962 80.5805 2.34256 77.3587 2.62629 74.1563C2.62711 74.1471 2.62812 74.1379 2.62932 74.1288C2.79697 72.8554 2.96229 71.5627 3.12952 70.255C4.15353 62.2477 5.24948 53.6778 7.39211 45.5516C9.88647 36.0914 13.8161 27.1579 20.7681 20.3339L20.7724 20.3298C35.3206 6.29862 56.5797 0.858363 75.7127 0.0708596Z" fill="#FFEE75"/>
</g>
</svg>
