<svg width="196" height="119" viewBox="0 0 196 119" fill="none" xmlns="http://www.w3.org/2000/svg">
<path opacity="0.4" d="M99.7199 112.507C98.7104 113.165 97.5984 112.507 97.5984 112.507L19.1362 78.0608C12.4939 75.0059 20.7968 49.5998 34.0814 49.5998L161.115 49.5998C174.4 49.5998 182.703 75.0059 176.061 78.0608L99.7199 112.507Z" fill="#FFEE75"/>
<path fill-rule="evenodd" clip-rule="evenodd" d="M162.235 80.8835C150.226 77.88 122.738 57.6465 97.7165 57.4975C67.9355 57.3202 38.1162 80.8835 19.0529 80.0308C3.81315 79.3491 -4.99505 73.9807 3.02658 52.6032C11.1072 31.0686 32.4929 13.8105 60.509 5.45611C88.5822 -2.91534 120.695 -1.73775 147.327 9.57262C173.686 20.7668 192.404 40.6239 195.564 62.8133C199.568 90.9273 175.009 84.0783 162.235 80.8835Z" fill="#FFEE75"/>
<path d="M97.4992 39.8217C97.6161 37.9266 99.1863 37.9266 99.3031 39.8217L103.596 109.436C103.654 110.378 103.234 111.2 102.694 111.2H94.1085C93.5688 111.2 93.1485 110.378 93.2065 109.436L97.4992 39.8217Z" fill="#F26348"/>
<path fill-rule="evenodd" clip-rule="evenodd" d="M98.6662 103.205C100.888 103.153 103.226 103.477 104.812 104.989C106.409 106.513 106.841 108.786 106.797 110.96C106.754 113.085 106.167 115.244 104.574 116.7C103.02 118.121 100.8 118.449 98.6662 118.395C96.5994 118.341 94.6122 117.734 93.0625 116.404C91.4041 114.981 90.0496 113.109 90.0014 110.96C89.9525 108.775 91.1584 106.755 92.8133 105.274C94.4006 103.853 96.5086 103.257 98.6662 103.205Z" fill="#F6927F"/>
</svg>
