<svg width="196" height="119" viewBox="0 0 196 119" fill="none" xmlns="http://www.w3.org/2000/svg">
<path opacity="0.4" d="M99.7199 112.507C98.7104 113.165 97.5984 112.507 97.5984 112.507L19.1362 78.0606C12.4939 75.0056 20.7968 49.5996 34.0814 49.5996L161.115 49.5996C174.4 49.5996 182.703 75.0056 176.061 78.0606L99.7199 112.507Z" fill="#FFEE75"/>
<path fill-rule="evenodd" clip-rule="evenodd" d="M162.235 80.8835C150.226 77.88 122.738 57.6465 97.7165 57.4975C67.9355 57.3202 38.1162 80.8835 19.0529 80.0308C3.81315 79.3491 -4.99505 73.9807 3.02658 52.6032C11.1072 31.0686 32.4929 13.8105 60.509 5.45611C88.5822 -2.91534 120.695 -1.73775 147.327 9.57262C173.686 20.7668 192.404 40.6239 195.564 62.8133C199.568 90.9273 175.009 84.0783 162.235 80.8835Z" fill="#FFEE75"/>
<path d="M159.301 67.3355C160.92 66.3442 161.821 67.6305 160.336 68.8132L105.773 112.259C105.035 112.847 104.12 112.974 103.81 112.532L98.8862 105.499C98.5766 105.057 99.009 104.241 99.8139 103.748L159.301 67.3355Z" fill="#F26348"/>
<path fill-rule="evenodd" clip-rule="evenodd" d="M98.6662 103.204C100.888 103.152 103.226 103.475 104.812 104.988C106.409 106.511 106.841 108.785 106.797 110.959C106.754 113.084 106.167 115.243 104.574 116.699C103.02 118.12 100.8 118.448 98.6662 118.393C96.5994 118.34 94.6122 117.733 93.0625 116.403C91.4041 114.98 90.0496 113.108 90.0014 110.959C89.9525 108.774 91.1584 106.754 92.8133 105.273C94.4006 103.852 96.5086 103.255 98.6662 103.204Z" fill="#F6927F"/>
</svg>
