<svg width="24" height="24" viewBox="0 0 24 24" fill="none" xmlns="http://www.w3.org/2000/svg">
<mask id="mask0_2012_1880" style="mask-type:luminance" maskUnits="userSpaceOnUse" x="0" y="0" width="24" height="24">
<path d="M24 0H0V24H24V0Z" fill="white"/>
</mask>
<g mask="url(#mask0_2012_1880)">
<path fill-rule="evenodd" clip-rule="evenodd" d="M15.1083 1.68103C15.3681 1.90497 15.4025 2.29497 15.1859 2.5609C14.9901 2.80127 14.6691 3.09293 14.4023 3.33183C14.1428 3.56416 13.7444 3.54342 13.5104 3.28539C13.2764 3.02737 13.2947 2.62886 13.5512 2.39326C13.8435 2.12486 14.0498 1.92784 14.2266 1.73396C14.4578 1.48055 14.8486 1.45709 15.1083 1.68103ZM16.4894 3.09061C16.7156 3.31957 16.7341 3.68175 16.5325 3.93264C16.187 4.36273 15.7139 4.76396 15.2697 5.14081C15.2132 5.18871 15.1572 5.23622 15.1019 5.28335C14.9877 5.4002 14.8705 5.52094 14.751 5.64407C14.3886 6.01736 14.0051 6.41248 13.6184 6.78692C13.3815 7.01634 13.0083 7.02565 12.7602 6.80834C12.5122 6.59103 12.4724 6.21978 12.6686 5.95478C13.1442 5.31272 13.7221 4.79645 14.2359 4.3568C14.2383 4.35435 14.2407 4.3519 14.2431 4.34946C14.7246 3.85808 15.2044 3.38489 15.6479 3.03725C15.9012 2.83871 16.2632 2.86166 16.4894 3.09061ZM7.43896 3.84441C7.68558 4.08068 7.7005 4.46991 7.47271 4.72438C6.4917 5.82028 5.95276 6.38428 5.22699 6.91142C4.95801 7.10679 4.58376 7.06099 4.36981 6.80653C4.15587 6.55207 4.17502 6.17552 4.41368 5.94408C4.88962 5.48252 5.28607 5.09393 5.69476 4.69336C5.96802 4.42551 6.24675 4.15231 6.55836 3.84836C6.80284 3.60989 7.19235 3.60814 7.43896 3.84441ZM8.79717 5.23446C9.04152 5.4838 9.03808 5.88384 8.78949 6.12895C8.11951 6.78954 7.60181 7.27309 7.18918 7.6585C7.11362 7.72908 7.04157 7.79637 6.97277 7.86085C6.52443 8.281 6.22853 8.56835 5.97055 8.8782C5.74958 9.14358 5.35678 9.18311 5.08737 8.96706C4.81797 8.75101 4.77123 8.359 4.98229 8.08567C5.26997 7.71311 5.62704 7.36598 6.08089 6.94203C6.18647 6.8434 6.29826 6.73976 6.41722 6.62946C6.81814 6.25775 7.30066 5.81039 7.9027 5.22403C8.1528 4.98045 8.55282 4.98511 8.79717 5.23446ZM9.42896 7.31132C9.66482 7.55507 9.66686 7.94134 9.43358 8.18755C9.22183 8.41105 9.02869 8.59355 8.85824 8.74711C8.83889 8.76657 8.8192 8.78638 8.79917 8.80654L8.79903 8.80667C8.55649 9.05071 8.2746 9.33399 7.97438 9.6135C7.73922 9.83245 7.37739 9.84067 7.13252 9.63263C6.88766 9.42459 6.83732 9.06618 7.01541 8.79874C7.20865 8.50853 7.45905 8.2883 7.68975 8.08725C7.70893 8.07054 7.72826 8.05374 7.74775 8.03678C7.82402 7.97046 7.90288 7.90188 7.98521 7.82818C8.19173 7.6205 8.38916 7.42353 8.55336 7.2779C8.80711 7.05284 9.1931 7.06758 9.42896 7.31132ZM20.6819 7.30873C20.9255 7.55763 20.9225 7.95653 20.6752 8.20174C20.3312 8.54273 19.9879 8.89212 19.6858 9.20043C19.6468 9.24026 19.6084 9.2795 19.5707 9.31801C19.394 9.49838 19.2331 9.66278 19.0995 9.79726C19.0381 9.85966 18.9846 9.91314 18.9411 9.95522C18.6905 10.1976 18.291 10.1919 18.0474 9.94239C17.8038 9.69287 17.8077 9.2934 18.056 9.04863C18.1 9.00536 18.1498 8.95555 18.205 8.89996C18.2886 8.81492 18.3912 8.70884 18.5108 8.5853C18.5799 8.51394 18.6546 8.43676 18.7345 8.35443C19.0408 8.03902 19.41 7.66247 19.7889 7.2963C20.0394 7.05427 20.4383 7.05982 20.6819 7.30873ZM21.9534 8.55673C22.1971 8.80563 22.1941 9.20453 21.9467 9.44974C21.6041 9.78936 21.091 10.3156 20.6162 10.8038C20.5511 10.8707 20.4866 10.9371 20.4233 11.0022C20.1338 11.3 19.8697 11.5717 19.6894 11.7545C19.6198 11.8255 19.5643 11.8812 19.5271 11.9172C19.2765 12.1596 18.877 12.1539 18.6334 11.9044C18.3898 11.6549 18.3937 11.2554 18.642 11.0106C18.6813 10.9719 18.735 10.9179 18.8004 10.8515C18.9254 10.7238 19.103 10.5398 19.3112 10.3241C19.4208 10.2105 19.539 10.088 19.6624 9.96035C20.1375 9.46904 20.68 8.91201 21.0605 8.5443C21.3109 8.30227 21.7098 8.30782 21.9534 8.55673ZM14.2192 10.788C14.4203 11.0444 14.394 11.4116 14.1584 11.6368C12.7219 13.0098 11.7922 13.8987 11.0705 14.6097C10.7012 14.9993 10.3024 15.4093 9.86901 15.8283C9.62119 16.0679 9.2273 16.0654 8.98258 15.8226C8.73786 15.5799 8.73212 15.186 8.96967 14.9363C9.33734 14.5497 9.71315 14.1687 10.1659 13.7224C10.3892 13.4866 10.6031 13.2568 10.8108 13.0336C10.9921 12.8389 11.1686 12.6492 11.3425 12.4651C12.0248 11.7428 12.6802 11.0905 13.3804 10.6445C13.6553 10.4694 14.0182 10.5315 14.2192 10.788ZM5.07335 11.4356C5.33182 11.671 5.35063 12.0714 5.11537 12.3301C4.68438 12.804 3.85136 13.593 3.09924 14.3055C3.04449 14.3573 2.99017 14.4088 2.93647 14.4597C2.69824 14.6854 2.32701 14.6919 2.08111 14.4745C1.83521 14.2571 1.79607 13.8879 1.99093 13.6237C2.34414 13.145 2.75042 12.7749 3.12757 12.4469C3.18914 12.3933 3.24958 12.3411 3.30897 12.2899C3.62471 12.0174 3.91069 11.7706 4.17878 11.4768C4.41449 11.2185 4.81487 11.2001 5.07335 11.4356ZM15.5432 12.1397C15.7689 12.3998 15.7454 12.7925 15.4905 13.0239C14.9974 13.4716 14.5522 13.895 14.143 14.2963C13.9084 14.5344 13.6611 14.7895 13.3994 15.0595L13.3382 15.1226C12.8514 15.6249 12.3224 16.1692 11.7501 16.7284C11.3175 17.1631 10.8985 17.5649 10.4671 17.9303C10.2027 18.1542 9.80737 18.1242 9.57986 17.8628C9.35234 17.6014 9.37708 17.2057 9.6354 16.9746C10.0613 16.5937 10.4674 16.2102 10.8553 15.8313C11.1195 15.5656 11.395 15.2814 11.6911 14.9759L11.7501 14.9151C12.1972 14.4537 12.6863 13.9505 13.2433 13.404C13.7498 12.8902 14.2238 12.4289 14.6605 12.0671C14.9256 11.8474 15.3176 11.8796 15.5432 12.1397ZM6.45235 12.8526C6.71082 13.088 6.72963 13.4884 6.49437 13.7471C6.06338 14.221 5.23036 15.01 4.47824 15.7225C4.42349 15.7743 4.36917 15.8258 4.31547 15.8767C4.07724 16.1024 3.70601 16.1089 3.46011 15.8915C3.21421 15.6741 3.17507 15.3049 3.36993 15.0407C3.72314 14.562 4.12942 14.1919 4.50657 13.8639C4.56814 13.8103 4.62858 13.7581 4.68797 13.7069C5.00371 13.4344 5.28969 13.1876 5.55778 12.8938C5.79349 12.6355 6.19387 12.6171 6.45235 12.8526ZM16.8626 13.488C17.1053 13.7373 17.1015 14.1357 16.8541 14.3803C16.2676 14.9602 15.6501 15.5843 15.0101 16.2312C13.3359 17.9232 11.5075 19.7711 9.67568 21.3931C9.41736 21.6219 9.0235 21.6018 8.78974 21.348C8.55599 21.0943 8.56832 20.7001 8.81747 20.4614C9.55003 19.7596 10.2288 19.0871 11.0407 18.2826C11.2253 18.0996 11.4169 17.9098 11.6175 17.7113C12.699 16.6412 14.0378 15.3244 15.9704 13.4725C16.2216 13.2317 16.62 13.2387 16.8626 13.488ZM18.1903 14.8478C18.4405 15.0868 18.4526 15.4823 18.2176 15.7362C15.1979 18.9984 13.529 20.5149 11.023 22.7652C10.7683 22.9939 10.378 22.9789 10.1415 22.7314C9.90514 22.4838 9.90816 22.0932 10.1484 21.8493C11.2472 20.7336 12.3075 19.7198 13.4097 18.6658C13.4604 18.6174 13.5112 18.5688 13.5621 18.5201C14.7206 17.4123 15.9322 16.2504 17.3015 14.8611C17.5444 14.6147 17.9401 14.6088 18.1903 14.8478ZM19.5438 16.2321C19.7803 16.4676 19.7934 16.8462 19.5738 17.0976C18.7106 18.0859 17.0782 19.7476 15.2187 21.3533C14.9634 21.5738 14.5802 21.5555 14.347 21.3118C14.1138 21.0681 14.1125 20.6844 14.344 20.4391C14.444 20.3331 14.551 20.216 14.6715 20.0843C15.3108 19.3854 16.3284 18.273 18.6782 16.2053C18.9288 15.9848 19.3074 15.9965 19.5438 16.2321Z" fill="#7782B8"/>
<path fill-rule="evenodd" clip-rule="evenodd" d="M12.7587 4.09989C12.9499 4.72596 13.0537 5.28738 13.1278 5.75624C13.1502 5.89782 13.1694 6.02608 13.1868 6.1428C13.233 6.45231 13.2671 6.68078 13.3175 6.86182C13.341 6.94617 13.361 6.99352 13.3743 7.01854C13.3981 7.01702 13.439 7.01144 13.502 6.99392C13.6189 6.96138 13.7798 6.89684 13.9993 6.78529C14.0623 6.75329 14.1311 6.73508 14.2013 6.73162C14.2151 6.71942 14.238 6.69627 14.2702 6.65482C14.3702 6.5261 14.4822 6.31912 14.6221 6.02379C14.6761 5.90987 14.7331 5.78495 14.7937 5.6522C15.005 5.18928 15.2597 4.6312 15.5806 4.11293C15.3049 2.75051 14.7449 1.86717 13.9828 1.61701C13.7114 1.53141 13.5539 1.53207 13.4633 1.55561C13.3932 1.57386 13.3137 1.61773 13.2226 1.76704C13.1229 1.93064 13.0262 2.19621 12.9436 2.61068C12.8661 2.99989 12.8064 3.49065 12.7587 4.09989ZM13.3913 7.04324C13.3912 7.04391 13.3886 7.04177 13.3839 7.03483C13.3892 7.03911 13.3915 7.04258 13.3913 7.04324ZM13.2117 0.587794C13.5612 0.4969 13.929 0.551124 14.2867 0.664309L14.2911 0.665695C15.6551 1.11112 16.3283 2.59089 16.6012 4.12762C16.6236 4.25399 16.5966 4.38415 16.5257 4.49115C16.1996 4.98345 15.954 5.52046 15.7215 6.02899C15.6558 6.17282 15.591 6.31437 15.5258 6.45199C15.3861 6.74678 15.2341 7.04412 15.0599 7.2683C14.9155 7.45417 14.6848 7.68071 14.3574 7.7241C14.1455 7.82744 13.95 7.90724 13.77 7.95732C13.5659 8.01412 13.3469 8.04267 13.1312 7.99484C12.6313 7.88397 12.4437 7.45153 12.3542 7.13021C12.2857 6.88435 12.2382 6.56496 12.1884 6.23055C12.1728 6.12538 12.1569 6.01873 12.1401 5.91241C12.0659 5.44316 11.9647 4.904 11.7761 4.30779C11.7569 4.24706 11.7495 4.18323 11.7543 4.11972C11.8044 3.44941 11.8699 2.8821 11.9629 2.41522C12.0549 1.9537 12.1802 1.55589 12.3688 1.24649C12.5662 0.922805 12.8415 0.684049 13.2117 0.587794ZM5.13292 3.11585C4.94287 3.02817 4.73726 3.02862 4.55334 3.09368C4.35104 3.16525 4.19234 3.30624 4.07561 3.44476C3.83883 3.72576 3.65824 4.1344 3.56287 4.57855C3.37316 5.46207 3.48836 6.65944 4.41527 7.57151C4.50753 7.70542 4.59471 7.84793 4.69204 8.00703C4.7577 8.11437 4.82799 8.22926 4.90757 8.35417C5.1001 8.65633 5.33225 8.99027 5.61923 9.25716C5.91163 9.52908 6.2855 9.75408 6.75586 9.79009C7.22039 9.82565 7.70161 9.67094 8.20247 9.33983C8.57773 9.117 8.86562 8.84645 9.05061 8.51219C9.23862 8.17248 9.29785 7.80759 9.27976 7.43807C9.24551 6.73838 8.92326 5.93323 8.57367 5.08365C8.35379 4.5086 8.12147 4.08181 7.8494 3.77722C7.56322 3.45682 7.24691 3.28723 6.90321 3.20918C6.60549 3.14157 6.29287 3.14633 6.02211 3.15045C6.00618 3.1507 5.99039 3.15094 5.97476 3.15116C5.70147 3.15506 5.43145 3.15675 5.13292 3.11585ZM4.54059 4.78848C4.39959 5.44515 4.50022 6.27152 5.14285 6.8841C5.1664 6.90656 5.18771 6.93126 5.20647 6.95785C5.32484 7.1257 5.45125 7.33176 5.57154 7.52784C5.63361 7.62902 5.69405 7.72755 5.75092 7.8168C5.93405 8.1042 6.11059 8.34851 6.30023 8.52487C6.48446 8.6962 6.65515 8.77945 6.8322 8.793C7.0115 8.80673 7.27669 8.75499 7.65967 8.49988C7.66743 8.49471 7.67534 8.48976 7.68338 8.48503C7.95169 8.32722 8.09596 8.17199 8.17567 8.02796C8.25435 7.8858 8.29212 7.71494 8.28096 7.48696C8.25679 6.99327 8.01696 6.35854 7.64648 5.4583L7.64154 5.4463C7.44112 4.92095 7.26103 4.61964 7.10359 4.44338C6.9593 4.28183 6.82793 4.21755 6.68175 4.18435C6.50712 4.14469 6.307 4.14651 5.98905 4.15106C5.68833 4.15535 5.31654 4.15948 4.89014 4.09062C4.87552 4.08826 4.86105 4.08525 4.84676 4.08162C4.84467 4.08402 4.84252 4.08653 4.84032 4.08914C4.73657 4.21227 4.61185 4.45663 4.54059 4.78848ZM18.9381 9.56323C19.0404 9.97119 19.0809 10.341 19.1019 10.6563C19.1108 10.7894 19.1164 10.9182 19.1213 11.0314C19.1232 11.0735 19.1249 11.1135 19.1267 11.1507C19.1337 11.2966 19.1413 11.4028 19.1544 11.4856C19.158 11.5089 19.1617 11.5275 19.165 11.5422C19.1823 11.5423 19.2046 11.5415 19.2328 11.539C19.3313 11.5301 19.4724 11.5025 19.6717 11.4448C19.8207 11.4016 19.9806 11.4301 20.1051 11.5207C20.2168 11.4343 20.3534 11.3115 20.4993 11.1562C20.7412 10.8987 20.9633 10.6002 21.0976 10.3353C21.1648 10.2028 21.2008 10.0967 21.214 10.0208C21.2212 9.97921 21.2198 9.95749 21.2189 9.95C21.1556 9.81779 21.1534 9.66425 21.2133 9.53011C21.4338 9.03636 21.4957 8.73193 21.4928 8.54942C21.4904 8.3991 21.4463 8.33794 21.3876 8.28669C21.2996 8.21 21.1524 8.13961 20.8985 8.05106C20.842 8.03139 20.7791 8.01047 20.7118 7.9881C20.5192 7.92411 20.291 7.84828 20.0776 7.75577C19.8802 7.69181 19.7399 7.66325 19.6422 7.65478C19.5716 7.64866 19.5345 7.65402 19.5195 7.65743C19.5088 7.67395 19.4879 7.71645 19.463 7.81249C19.4388 7.90615 19.4192 8.01651 19.3937 8.16241L19.3924 8.16956C19.3684 8.30715 19.3401 8.46936 19.3001 8.63858C19.2326 8.92395 19.1287 9.24478 18.9381 9.56323ZM19.5271 7.64839C19.5272 7.64883 19.5256 7.65101 19.522 7.65368C19.5252 7.64929 19.527 7.64796 19.5271 7.64839ZM19.1245 6.73752C19.4934 6.58282 19.9373 6.65632 20.4126 6.81321C20.4279 6.81828 20.4431 6.8241 20.4579 6.83064C20.6311 6.90717 20.7999 6.96325 20.9852 7.02484C21.0626 7.05057 21.1429 7.07726 21.2277 7.10681C21.4852 7.19661 21.7982 7.31791 22.0449 7.53309C22.3208 7.77372 22.4858 8.10462 22.4927 8.53339C22.4983 8.88703 22.3966 9.29244 22.2016 9.76342C22.2295 9.91352 22.2219 10.0611 22.1992 10.1918C22.1634 10.398 22.0838 10.6015 21.9894 10.7877C21.8004 11.1604 21.5147 11.5358 21.2282 11.8408C20.9502 12.1368 20.6241 12.417 20.3358 12.5532C20.2596 12.5891 20.167 12.6243 20.065 12.6409C19.9651 12.6571 19.8183 12.6612 19.6677 12.5898C19.6165 12.5655 19.5724 12.537 19.5344 12.5056C19.461 12.5189 19.3905 12.5288 19.3229 12.5349C19.1381 12.5516 18.9436 12.5432 18.7608 12.4733C18.3299 12.3086 18.2099 11.9161 18.1666 11.6414C18.1442 11.4997 18.1349 11.3453 18.1278 11.1985C18.1257 11.1534 18.1237 11.1088 18.1218 11.0639C18.117 10.9543 18.1122 10.8436 18.1041 10.7227C18.082 10.3905 18.0375 10.0219 17.917 9.62086C17.8719 9.47064 17.8999 9.30794 17.9926 9.18143C18.1674 8.94292 18.2621 8.68257 18.3269 8.40851C18.3597 8.26958 18.3836 8.13316 18.4086 7.9903L18.4101 7.98172C18.4335 7.84785 18.4595 7.69907 18.4949 7.56204C18.5646 7.29265 18.7088 6.91191 19.1245 6.73752ZM12.5942 10.5183C12.6311 10.5457 12.6742 10.5793 12.7241 10.6196C12.9838 10.83 13.3427 11.1581 13.781 11.5684C13.9431 11.7202 14.1151 11.8822 14.2952 12.0519C15.0767 12.7885 16.011 13.6691 16.9558 14.4761C17.0823 14.5857 17.2397 14.7586 17.4533 15.0115C17.5497 15.1258 17.6535 15.2513 17.7678 15.3896L17.7982 15.4264C17.9098 15.5614 18.0305 15.7073 18.1608 15.8622C18.2871 16.1268 18.5153 16.2714 18.6768 16.3535C18.7721 16.402 18.8702 16.4415 18.9498 16.4729C18.9644 16.4787 18.9784 16.4842 18.9918 16.4894C19.058 16.5154 19.1104 16.536 19.1603 16.5586C19.1879 16.571 19.209 16.5817 19.2249 16.5905C19.217 16.6133 19.2043 16.6443 19.1839 16.6849C19.1258 16.8008 19.1149 16.9348 19.1538 17.0586C19.1803 17.1432 19.1821 17.2854 19.1169 17.5022C19.0533 17.7135 18.9402 17.9492 18.7997 18.1905C18.7092 18.3461 18.6112 18.4974 18.515 18.6387C18.3912 18.6054 18.2609 18.5926 18.1358 18.5923C17.7916 18.5914 17.3513 18.6884 16.9586 18.9125C16.8834 18.9186 16.8146 18.9357 16.7797 18.9443L16.7775 18.9449C16.7153 18.9603 16.6465 18.9795 16.5705 19.0007C16.3435 19.0639 16.0524 19.1451 15.682 19.1981C15.6122 19.208 15.5454 19.2327 15.4858 19.2703C15.0665 19.5352 14.7878 19.5231 14.3964 19.5061C14.3726 19.5051 14.3484 19.5041 14.3238 19.5031C14.1 19.4939 13.8229 19.4882 13.5125 19.5667C13.279 19.6258 13.043 19.7278 12.7967 19.8889C12.7865 19.8856 12.7764 19.8825 12.7663 19.8794C12.6063 19.831 12.3892 19.789 12.173 19.8005C11.9788 19.8108 11.6286 19.8762 11.4393 20.2077C11.3555 20.3544 11.3285 20.5098 11.3367 20.6634C10.9098 20.8422 10.6362 21.056 10.453 21.2444C10.3449 21.249 10.2397 21.2885 10.1544 21.3593C9.84738 21.6143 9.33618 21.6538 8.95244 21.4434C8.77227 21.3447 8.63416 21.1975 8.55953 21.0041C8.50078 20.8519 8.47176 20.6458 8.51873 20.3753C8.54681 20.3599 8.57426 20.3427 8.60039 20.3233C8.67168 20.2704 8.76518 20.1782 8.81186 20.0336C8.86037 19.8835 8.8355 19.7483 8.80055 19.6564C8.74986 19.5232 8.65099 19.4198 8.61949 19.3868C8.61742 19.3846 8.61563 19.3827 8.61418 19.3812C8.60114 19.3673 8.58966 19.3553 8.57929 19.3444C8.54855 19.3121 8.52753 19.2901 8.50453 19.2617C8.45379 19.1992 8.44789 19.1697 8.44922 19.1402C8.45119 19.0967 8.47752 18.9496 8.71678 18.6734C8.79193 18.5866 8.83495 18.4767 8.8386 18.3619C8.84458 18.1743 8.89176 17.9732 8.9721 17.6527L8.9779 17.6296C9.05408 17.3259 9.1486 16.949 9.21781 16.4679C9.55528 14.5061 9.98856 13.1183 10.3643 12.1986C10.5525 11.738 10.7254 11.397 10.8632 11.1613C10.9321 11.0433 10.9909 10.954 11.0369 10.8905C11.0599 10.8588 11.0786 10.8351 11.0927 10.8183C11.1075 10.8007 11.114 10.7947 11.1123 10.7963C11.1178 10.7911 11.1232 10.7858 11.1285 10.7804C11.1447 10.7832 11.1606 10.7858 11.1752 10.7881C11.5227 10.8421 12.0251 10.8597 12.5942 10.5183ZM11.2707 10.4181C11.2707 10.418 11.2707 10.4182 11.2707 10.4181V10.4181ZM16.4713 20.0614C16.6587 20.2216 16.9379 20.2218 17.1258 20.0567C17.2033 19.9886 17.271 19.9273 17.3232 19.8748C17.3311 19.8668 17.3393 19.8584 17.3477 19.8497C17.5234 19.7235 17.7437 19.6416 17.9428 19.6087C17.9428 19.755 18.0069 19.8992 18.1279 19.9973C18.3244 20.1568 18.6091 20.1442 18.7908 19.9681C18.8843 19.8774 18.9781 19.765 19.0389 19.6298C19.0791 19.5742 19.1253 19.5101 19.1779 19.4363C19.3256 19.2287 19.5023 18.9713 19.664 18.6935C19.8243 18.4181 19.9794 18.1065 20.0745 17.7902C20.1504 17.5377 20.1983 17.2489 20.1542 16.9598C20.252 16.6999 20.2797 16.4217 20.152 16.1565C20.0096 15.8607 19.7328 15.7199 19.5719 15.6472C19.497 15.6134 19.4171 15.582 19.3511 15.5562C19.3392 15.5515 19.3277 15.547 19.3168 15.5427C19.2383 15.5117 19.1793 15.4872 19.1303 15.4623C19.0905 15.442 19.0695 15.4275 19.0596 15.4197C19.0396 15.3676 19.011 15.3192 18.9749 15.2765C18.829 15.1036 18.6945 14.9412 18.5689 14.7893L18.538 14.7519C18.4246 14.6146 18.3175 14.485 18.2174 14.3665C18.0036 14.1131 17.8013 13.8853 17.609 13.7189L17.6066 13.7168C16.682 12.9271 15.7698 12.0674 14.9882 11.331C14.806 11.1593 14.6309 10.9942 14.4644 10.8384C14.0294 10.4311 13.6453 10.0789 13.3535 9.84256C13.211 9.72714 13.0685 9.62107 12.9412 9.55122C12.8811 9.51822 12.79 9.47373 12.6837 9.45402C12.59 9.43666 12.384 9.4237 12.2091 9.5739C11.8364 9.85071 11.551 9.83449 11.3288 9.79995C11.2834 9.7929 11.2536 9.78733 11.2202 9.7811C11.1946 9.77633 11.167 9.77118 11.1287 9.76467C11.0696 9.75461 10.9617 9.73684 10.8502 9.74626C10.7217 9.75714 10.5259 9.81071 10.3908 10.0022C10.341 10.0728 10.3114 10.1465 10.294 10.2156C10.2027 10.3303 10.103 10.4801 9.99977 10.6567C9.83511 10.9385 9.64205 11.3225 9.43863 11.8204C9.03159 12.8166 8.57943 14.2777 8.23108 16.3054L8.22889 16.3192C8.16701 16.752 8.08252 17.0889 8.00605 17.3939L7.99891 17.4223C7.93944 17.6595 7.87831 17.9033 7.85175 18.1514C7.60271 18.4714 7.46434 18.7834 7.45024 19.095C7.43695 19.3891 7.53702 19.6169 7.64571 19.7803C7.63372 19.8048 7.62365 19.8305 7.6157 19.8572C7.44892 20.4165 7.45824 20.928 7.62662 21.3642C7.79493 21.8003 8.1067 22.1202 8.47177 22.3203C9.05699 22.6411 9.81639 22.6716 10.4315 22.3643C10.5911 22.4035 10.7298 22.3584 10.8157 22.31C10.8948 22.2654 10.9467 22.2096 10.9667 22.1875C10.9914 22.1603 11.0129 22.1326 11.026 22.1155C11.0341 22.1049 11.0415 22.0952 11.0485 22.0861C11.0688 22.0593 11.0859 22.0368 11.1098 22.0083C11.2124 21.8858 11.4512 21.6402 12.0724 21.4653C12.2135 21.4256 12.33 21.326 12.3912 21.1928C12.4455 21.0745 12.4514 20.9404 12.4088 20.8188C12.4325 20.8241 12.4554 20.8301 12.4766 20.8365C12.4931 20.8415 12.5069 20.8462 12.5179 20.8503C12.5689 20.8944 12.6291 20.9284 12.6954 20.9492C12.8547 20.999 13.0283 20.9662 13.1583 20.8616C13.4077 20.6609 13.6007 20.5759 13.7576 20.5362C13.92 20.4951 14.0752 20.4937 14.283 20.5022C14.309 20.5033 14.3355 20.5045 14.3625 20.5057C14.7656 20.5241 15.283 20.5476 15.9268 20.1723C16.1251 20.1403 16.3101 20.1005 16.4713 20.0614ZM12.5491 20.8633C12.5492 20.8633 12.5496 20.8636 12.5491 20.8633V20.8633ZM3.92037 11.0361C4.66865 11.1975 5.53035 11.7401 5.91703 12.7715C5.93908 12.8303 5.9495 12.8916 5.94883 12.9524C5.96298 12.9771 5.98251 13.0098 6.00917 13.053C6.02054 13.0714 6.0328 13.0911 6.04581 13.112C6.15063 13.2802 6.3035 13.5255 6.4172 13.8001C6.54702 14.1137 6.64648 14.5106 6.56437 14.9445C6.48024 15.3891 6.21886 15.8029 5.75544 16.1664C5.69726 16.2121 5.62968 16.2442 5.55757 16.2606C5.1401 16.3554 4.78647 16.4351 4.49156 16.4732C4.19362 16.5116 3.90208 16.516 3.62012 16.422C3.32952 16.3251 3.10689 16.1437 2.90979 15.9171C2.72377 15.7033 2.53897 15.4236 2.33131 15.0925C2.28162 15.0212 2.25006 14.9363 2.24325 14.8446C2.24199 14.8281 2.24155 14.8116 2.24192 14.7952C2.24597 14.0068 2.09114 13.3491 1.97165 12.8415C1.95298 12.7622 1.93517 12.6866 1.91896 12.6147C1.88988 12.4856 1.86235 12.3522 1.8497 12.2322C1.83911 12.1318 1.82625 11.9472 1.90572 11.7711C1.95232 11.6679 2.03166 11.5651 2.15273 11.4937C2.23953 11.4425 2.32776 11.4193 2.40608 11.4107C2.52502 11.2509 2.68611 11.149 2.84228 11.0865C3.16233 10.9585 3.55286 10.9569 3.92037 11.0361ZM3.24117 14.6605C3.41742 14.9381 3.54825 15.1275 3.6642 15.2607C3.78901 15.4042 3.87032 15.4513 3.93635 15.4733C4.01101 15.4982 4.12878 15.5117 4.3635 15.4814C4.57948 15.4535 4.84877 15.3956 5.22054 15.3116C5.46783 15.0958 5.55387 14.9062 5.58181 14.7585C5.61468 14.5849 5.58107 14.3947 5.49326 14.1827C5.41315 13.9892 5.30514 13.8151 5.19731 13.6413C5.18425 13.6203 5.1712 13.5993 5.1582 13.5782C5.10595 13.4935 5.03803 13.3823 4.9943 13.2771C4.97236 13.2243 4.94185 13.1395 4.93478 13.0386C4.93409 13.0288 4.93363 13.0187 4.93342 13.0081C4.66833 12.4225 4.15631 12.11 3.7096 12.0137C3.4919 11.9667 3.32973 11.9799 3.24223 12.0053C3.23487 12.1509 3.16396 12.288 3.04531 12.3782C3.00292 12.4104 2.95639 12.4351 2.9076 12.4521C2.91843 12.4989 2.93026 12.5488 2.94279 12.6017C3.05638 13.081 3.22788 13.8047 3.24117 14.6605ZM5.91777 12.8934C5.91663 12.8903 5.91668 12.8908 5.91777 12.8934V12.8934Z" fill="#7782B8"/>
</g>
</svg>
