<svg width="306" height="119" viewBox="0 0 306 119" fill="none" xmlns="http://www.w3.org/2000/svg">
<path d="M40.732 89.984H52.748V91.872H42.684V101.456H40.732V89.984ZM51.756 89.984H53.708V99.216C53.708 100.24 53.516 100.8 52.828 101.104C52.14 101.408 51.132 101.44 49.74 101.44C49.676 100.88 49.372 100.016 49.1 99.488C49.98 99.536 51.068 99.536 51.372 99.52C51.66 99.52 51.756 99.424 51.756 99.184V89.984ZM43.612 87.072H47.196V88.752H43.612V87.072ZM45.948 87.072H47.996C48.14 91.184 49.052 94.56 52.044 96.016C51.628 96.4 50.972 97.184 50.668 97.696C47.516 95.824 46.46 92.16 46.252 87.936H45.948V87.072ZM46.092 90.432L47.852 90.736C47.308 94.096 46.076 96.464 43.564 97.808C43.308 97.36 42.684 96.576 42.3 96.256C44.492 95.216 45.692 93.184 46.092 90.432ZM57.196 89.104H69.244V90.976H59.1V101.424H57.196V89.104ZM68.556 89.104H70.492V99.216C70.492 100.256 70.268 100.8 69.596 101.104C68.908 101.408 67.884 101.456 66.444 101.456C66.364 100.912 66.076 100.016 65.804 99.504C66.748 99.568 67.836 99.568 68.156 99.552C68.46 99.552 68.556 99.472 68.556 99.184V89.104ZM62.46 86.416L64.924 86.768C64.364 88.048 63.676 89.36 63.164 90.24L61.308 89.824C61.756 88.848 62.236 87.456 62.46 86.416ZM60.668 92.528H62.412V99.136H60.668V92.528ZM61.42 92.528H66.956V98.016H61.42V96.336H65.18V94.208H61.42V92.528Z" fill="#F6927F"/>
<path d="M238.668 88.752H242.524V90.56H238.668V88.752ZM244.588 86.432H246.62V101.44H244.588V86.432ZM237.164 92.64L238.444 91.44C239.468 92.416 240.972 93.808 241.676 94.688L240.3 96.08C239.644 95.168 238.22 93.696 237.164 92.64ZM238.38 86.4L240.3 86.752C239.676 89.84 238.572 92.784 237.132 94.656C236.796 94.32 235.964 93.712 235.532 93.44C236.924 91.824 237.868 89.168 238.38 86.4ZM241.836 88.752H242.22L242.572 88.688L243.948 89.072C243.212 95.584 240.876 99.536 237.292 101.424C236.972 100.944 236.172 100.128 235.66 99.808C239.18 98.16 241.244 94.864 241.836 89.216V88.752ZM245.804 92.352L247.324 91.232C248.428 92.336 250.06 93.904 250.844 94.896L249.212 96.208C248.508 95.184 246.94 93.536 245.804 92.352ZM253.196 89.104H265.244V90.976H255.1V101.424H253.196V89.104ZM264.556 89.104H266.492V99.216C266.492 100.256 266.268 100.8 265.596 101.104C264.908 101.408 263.884 101.456 262.444 101.456C262.364 100.912 262.076 100.016 261.804 99.504C262.748 99.568 263.836 99.568 264.156 99.552C264.46 99.552 264.556 99.472 264.556 99.184V89.104ZM258.46 86.416L260.924 86.768C260.364 88.048 259.676 89.36 259.164 90.24L257.308 89.824C257.756 88.848 258.236 87.456 258.46 86.416ZM256.668 92.528H258.412V99.136H256.668V92.528ZM257.42 92.528H262.956V98.016H257.42V96.336H261.18V94.208H257.42V92.528Z" fill="#F6927F"/>
<path opacity="0.4" d="M154.721 112.508C153.711 113.166 152.599 112.508 152.599 112.508L74.1372 78.0613C67.4949 75.0064 75.7978 49.6003 89.0824 49.6003L216.116 49.6003C229.401 49.6003 237.704 75.0064 231.062 78.0613L154.721 112.508Z" fill="#FFEE75"/>
<path fill-rule="evenodd" clip-rule="evenodd" d="M217.235 80.8839C205.226 77.8805 177.738 57.647 152.716 57.498C122.936 57.3207 93.1162 80.884 74.0529 80.0312C58.8132 79.3496 50.005 73.9812 58.0266 52.6037C66.1072 31.0691 87.4929 13.811 115.509 5.4566C143.582 -2.91485 175.695 -1.73727 202.327 9.57311C228.686 20.7673 247.404 40.6244 250.564 62.8138C254.568 90.9278 230.009 84.0788 217.235 80.8839Z" fill="#FFEE75"/>
<path d="M214.302 67.336C215.921 66.3447 216.822 67.631 215.337 68.8137L160.774 112.259C160.036 112.847 159.121 112.974 158.811 112.532L153.887 105.5C153.578 105.058 154.01 104.242 154.815 103.749L214.302 67.336Z" fill="#F26348"/>
<path fill-rule="evenodd" clip-rule="evenodd" d="M153.666 103.206C155.888 103.153 158.226 103.477 159.812 104.99C161.409 106.513 161.841 108.787 161.797 110.961C161.754 113.085 161.167 115.244 159.574 116.701C158.02 118.122 155.8 118.45 153.666 118.395C151.599 118.342 149.612 117.734 148.063 116.405C146.404 114.982 145.05 113.11 145.001 110.961C144.953 108.775 146.158 106.756 147.813 105.275C149.401 103.854 151.509 103.257 153.666 103.206Z" fill="#F6927F"/>
</svg>
