<svg width="274" height="26" viewBox="0 0 274 26" fill="none" xmlns="http://www.w3.org/2000/svg">
<path fill-rule="evenodd" clip-rule="evenodd" d="M69.2127 3.6331C58.9351 1.86824 48.8914 3.53693 38.4717 5.54177C36.5897 5.90388 34.6588 6.25022 32.7027 6.60108C23.3841 8.27256 13.4928 10.0467 5.58115 14.1192C5.28478 14.2718 4.10394 14.9328 3.31439 15.5981C3.57817 15.9515 3.67758 16.4209 3.54226 16.8762C3.31503 17.6409 2.512 18.0762 1.74865 17.8486C1.31095 17.7181 0.781821 17.4801 0.408175 16.9973C-0.0240951 16.4387 -0.0691717 15.793 0.0711342 15.265C0.194412 14.801 0.454715 14.4252 0.672873 14.1618C0.904482 13.8822 1.17704 13.6248 1.44378 13.3991C2.48296 12.5199 3.90034 11.7363 4.26284 11.5497C12.5996 7.25841 23.0264 5.39381 32.3449 3.72741C34.262 3.38458 36.1322 3.05014 37.9276 2.70469C48.3285 0.703461 58.8467 -1.07802 69.7001 0.785692L69.8248 0.807115C73.744 1.48003 78.4845 2.29396 82.9846 3.6982C87.5196 5.11331 91.9711 7.17404 95.145 10.4412C95.5934 10.9027 96.2481 11.8732 96.8959 12.9598C97.4656 13.9156 98.0899 15.0636 98.6536 16.2557C99.6435 15.8555 100.647 15.5283 101.523 15.2425C101.751 15.1682 101.97 15.0966 102.178 15.0273C111.569 11.9028 121.386 10.6915 131.065 9.81203C162.334 6.97066 194.467 7.03525 225.787 8.05804C237.18 8.43008 248.302 9.83962 259.478 11.6056C260.014 11.6902 260.546 11.7783 261.076 11.866C263.9 12.3336 266.641 12.7875 269.298 12.6139C269.384 12.6083 269.466 12.6032 269.546 12.5982C269.839 12.5799 270.097 12.5638 270.351 12.5356C270.671 12.4999 270.89 12.4534 271.037 12.4C271.07 12.3879 271.095 12.377 271.113 12.3681C271.115 12.3522 271.116 12.3319 271.116 12.3065C271.116 11.5087 271.761 10.862 272.558 10.862C273.354 10.862 274 11.5087 274 12.3065C274 12.9774 273.821 13.6137 273.409 14.1436C273.009 14.6567 272.488 14.9455 272.022 15.1152C271.264 15.3912 270.341 15.4458 269.705 15.4834C269.627 15.488 269.554 15.4923 269.486 15.4968C266.466 15.694 263.342 15.1735 260.527 14.7046C260.017 14.6196 259.516 14.5363 259.029 14.4593C247.904 12.7014 236.915 11.3119 225.693 10.9455C194.423 9.92431 162.424 9.86326 131.326 12.6892C121.679 13.5657 112.143 14.7559 103.088 17.769C102.849 17.8483 102.609 17.9268 102.368 18.0057C101.499 18.2895 100.617 18.578 99.7618 18.9226C100.033 19.6981 100.247 20.4649 100.367 21.1784C100.478 21.8408 100.521 22.5424 100.4 23.1995C100.275 23.8732 99.9551 24.5932 99.2689 25.0912C97.5363 26.3485 95.4261 26.2572 94.0502 25.089C93.3665 24.5084 92.896 23.6774 92.8025 22.7083C92.7089 21.7379 93.0025 20.7458 93.6328 19.8331C94.2875 18.8849 95.1496 18.145 96.0754 17.5525C95.5494 16.4341 94.9584 15.345 94.4195 14.4408C93.7634 13.3402 93.2617 12.6451 93.078 12.4559C90.3934 9.69255 86.4756 7.8134 82.1268 6.4564C77.8099 5.10935 73.2262 4.32227 69.2645 3.64199L69.2127 3.6331ZM97.1796 20.2962C96.7001 20.653 96.3039 21.0434 96.0049 21.4764C95.6935 21.9274 95.6561 22.2509 95.6734 22.4305C95.6908 22.6113 95.7732 22.7647 95.9152 22.8853C96.186 23.1152 96.8019 23.2913 97.5367 22.7801C97.544 22.7602 97.5541 22.7263 97.5639 22.6732C97.6006 22.4749 97.6038 22.1432 97.5222 21.6559C97.4539 21.2472 97.3366 20.7889 97.1796 20.2962Z" fill="#C3C8E1"/>
</svg>
