<svg width="96" height="96" viewBox="0 0 96 96" fill="none" xmlns="http://www.w3.org/2000/svg">
<g opacity="0.5" filter="url(#filter0_d_1940_4345)">
<rect x="8" y="8" width="80" height="80" rx="40" fill="white"/>
<path fill-rule="evenodd" clip-rule="evenodd" d="M28.9393 49.0607C28.3536 48.4749 28.3536 47.5251 28.9393 46.9393L45.9393 29.9393C46.5251 29.3536 47.4749 29.3536 48.0607 29.9393C48.6464 30.5251 48.6464 31.4749 48.0607 32.0607L33.6213 46.5L66 46.5C66.8284 46.5 67.5 47.1716 67.5 48C67.5 48.8284 66.8284 49.5 66 49.5L33.6213 49.5L48.0607 63.9393C48.6464 64.5251 48.6464 65.4749 48.0607 66.0607C47.4749 66.6464 46.5251 66.6464 45.9393 66.0607L28.9393 49.0607Z" fill="#7782B8"/>
</g>
<defs>
<filter id="filter0_d_1940_4345" x="0" y="0" width="96" height="96" filterUnits="userSpaceOnUse" color-interpolation-filters="sRGB">
<feFlood flood-opacity="0" result="BackgroundImageFix"/>
<feColorMatrix in="SourceAlpha" type="matrix" values="0 0 0 0 0 0 0 0 0 0 0 0 0 0 0 0 0 0 127 0" result="hardAlpha"/>
<feOffset/>
<feGaussianBlur stdDeviation="4"/>
<feComposite in2="hardAlpha" operator="out"/>
<feColorMatrix type="matrix" values="0 0 0 0 0.466667 0 0 0 0 0.509804 0 0 0 0 0.721569 0 0 0 1 0"/>
<feBlend mode="normal" in2="BackgroundImageFix" result="effect1_dropShadow_1940_4345"/>
<feBlend mode="normal" in="SourceGraphic" in2="effect1_dropShadow_1940_4345" result="shape"/>
</filter>
</defs>
</svg>
