<svg width="80" height="80" viewBox="0 0 80 80" fill="none" xmlns="http://www.w3.org/2000/svg">
<g opacity="0.5">
<mask id="mask0_2621_5638" style="mask-type:luminance" maskUnits="userSpaceOnUse" x="0" y="0" width="80" height="80">
<path d="M80 0H0V80H80V0Z" fill="white"/>
</mask>
<g mask="url(#mask0_2621_5638)">
<path fill-rule="evenodd" clip-rule="evenodd" d="M50.3598 5.60335C51.2257 6.34981 51.3403 7.64982 50.6184 8.53626C49.9659 9.33748 48.8957 10.3097 48.0063 11.106C47.1413 11.8804 45.8133 11.8113 45.0334 10.9512C44.2535 10.0911 44.3142 8.76277 45.1694 7.97745C46.1436 7.08278 46.8314 6.42604 47.4208 5.77978C48.1912 4.93509 49.4939 4.85689 50.3598 5.60335ZM54.9632 10.302C55.7172 11.0651 55.7791 12.2724 55.1072 13.1087C53.9553 14.5423 52.3785 15.8798 50.8976 17.1359C50.7093 17.2956 50.5226 17.454 50.3385 17.6111C49.9576 18.0006 49.5669 18.4031 49.1685 18.8135C47.9607 20.0578 46.6822 21.3748 45.3935 22.623C44.6038 23.3877 43.3596 23.4188 42.5328 22.6944C41.706 21.97 41.5732 20.7325 42.2275 19.8492C43.8128 17.709 45.7391 15.9881 47.4518 14.5226C47.4598 14.5144 47.4678 14.5063 47.4757 14.4981C49.0808 12.8602 50.6799 11.2829 52.1584 10.1241C53.0028 9.46227 54.2092 9.53878 54.9632 10.302ZM24.7952 12.8146C25.6173 13.6022 25.667 14.8996 24.9077 15.7478C21.6377 19.4009 19.8412 21.2809 17.422 23.038C16.5254 23.6892 15.2779 23.5366 14.5647 22.6884C13.8516 21.8402 13.9154 20.585 14.711 19.8135C16.2974 18.275 17.6189 16.9797 18.9812 15.6444C19.8921 14.7516 20.8212 13.841 21.8599 12.8278C22.6748 12.0329 23.9732 12.0271 24.7952 12.8146ZM29.3226 17.4481C30.1371 18.2793 30.1256 19.6127 29.297 20.4298C27.0637 22.6317 25.338 24.2436 23.9626 25.5282C23.7107 25.7635 23.4706 25.9878 23.2413 26.2027C21.7468 27.6033 20.7605 28.5611 19.9005 29.5939C19.164 30.4785 17.8546 30.6103 16.9566 29.8901C16.0586 29.17 15.9028 27.8633 16.6063 26.9522C17.5653 25.7103 18.7555 24.5532 20.2683 23.14C20.6203 22.8113 20.9929 22.4658 21.3894 22.0981C22.7258 20.8591 24.3342 19.3679 26.341 17.4133C27.1747 16.6014 28.5081 16.617 29.3226 17.4481ZM31.4286 24.371C32.2148 25.1835 32.2215 26.471 31.444 27.2918C30.7381 28.0367 30.0943 28.6451 29.5262 29.157C29.4617 29.2218 29.396 29.2879 29.3293 29.355L29.3288 29.3555C28.5203 30.169 27.5807 31.1132 26.58 32.0449C25.7961 32.7748 24.59 32.8022 23.7738 32.1087C22.9576 31.4152 22.7898 30.2205 23.3834 29.329C24.0275 28.3617 24.8622 27.6276 25.6312 26.9574C25.6951 26.9017 25.7596 26.8457 25.8245 26.7892C26.0788 26.5681 26.3416 26.3395 26.6161 26.0938C27.3045 25.4016 27.9626 24.745 28.5099 24.2596C29.3557 23.5094 30.6424 23.5585 31.4286 24.371ZM68.9383 24.3623C69.7504 25.192 69.7404 26.5217 68.9159 27.3391C67.7694 28.4757 66.6249 29.6403 65.6181 30.668C65.488 30.8008 65.36 30.9316 65.2343 31.06C64.6455 31.6612 64.1089 32.2092 63.6637 32.6574C63.459 32.8654 63.2808 33.0437 63.1357 33.184C62.3002 33.9921 60.9687 33.973 60.1567 33.1412C59.3447 32.3095 59.3576 30.9779 60.1855 30.162C60.3319 30.0178 60.498 29.8517 60.682 29.6664C60.9606 29.383 61.3028 29.0294 61.7015 28.6176C61.9317 28.3797 62.1807 28.1225 62.4471 27.848C63.4679 26.7967 64.6987 25.5415 65.9618 24.3209C66.7966 23.5141 68.1262 23.5327 68.9383 24.3623ZM73.1768 28.5223C73.9889 29.352 73.9789 30.6817 73.1544 31.4991C72.0125 32.6311 70.3019 34.3854 68.7194 36.0125C68.5024 36.2357 68.2874 36.4569 68.0764 36.6739C67.1112 37.6667 66.231 38.5721 65.6301 39.1815C65.398 39.4182 65.2132 39.604 65.0891 39.724C64.2535 40.5321 62.922 40.513 62.1101 39.6812C61.2981 38.8495 61.3109 37.5179 62.1388 36.702C62.2698 36.573 62.4487 36.3931 62.6668 36.1717C63.0835 35.7458 63.6752 35.1326 64.3692 34.4135C64.7347 34.0348 65.1286 33.6267 65.5401 33.2011C67.1238 31.5634 68.9319 29.7066 70.2003 28.4809C71.0352 27.6742 72.3647 27.6927 73.1768 28.5223ZM47.3962 35.9598C48.0664 36.8147 47.9788 38.0387 47.1934 38.7893C42.4051 43.366 39.3061 46.329 36.9004 48.699C35.6693 49.9976 34.3401 51.3644 32.8954 52.761C32.0693 53.5596 30.7564 53.5511 29.9406 52.742C29.1249 51.9329 29.1058 50.62 29.8976 49.7875C31.1232 48.4989 32.3759 47.2288 33.885 45.7412C34.6293 44.9552 35.3424 44.1892 36.0348 43.4453C36.639 42.7962 37.2274 42.164 37.8072 41.5502C40.0814 39.1425 42.2659 36.9682 44.6 35.4816C45.5163 34.8981 46.7259 35.1049 47.3962 35.9598ZM16.9099 38.1184C17.7714 38.9034 17.8341 40.2379 17.0499 41.1002C15.6133 42.6798 12.8366 45.31 10.3295 47.6848C10.147 47.8576 9.96595 48.0292 9.78693 48.1988C8.99282 48.9514 7.75541 48.9728 6.93573 48.2481C6.11605 47.5235 5.9856 46.2928 6.63513 45.4124C7.81249 43.8166 9.16675 42.583 10.4239 41.4895C10.6292 41.311 10.8306 41.1371 11.0286 40.9662C12.0811 40.0579 13.0343 39.2351 13.928 38.2559C14.7137 37.395 16.0483 37.3335 16.9099 38.1184ZM51.8095 40.4657C52.5616 41.3327 52.4835 42.6415 51.6337 43.413C49.99 44.9051 48.5061 46.3167 47.1419 47.6543C46.36 48.4478 45.5355 49.2984 44.6635 50.1981L44.4594 50.4087C42.8367 52.0828 41.0735 53.8971 39.1658 55.7612C37.7237 57.2103 36.3272 58.5495 34.8892 59.7674C34.0077 60.514 32.6899 60.4138 31.9316 59.5425C31.1732 58.6711 31.2556 57.3521 32.1167 56.5821C33.5365 55.3123 34.8899 54.0338 36.183 52.7709C37.0638 51.8854 37.9822 50.9378 38.9692 49.9194L39.1656 49.7168C40.6561 48.179 42.2863 46.5016 44.1431 44.6799C45.8313 42.9671 47.4114 41.4297 48.867 40.2235C49.7507 39.4912 51.0575 39.5987 51.8095 40.4657ZM21.5065 42.8418C22.3681 43.6267 22.4308 44.9613 21.6466 45.8235C20.21 47.4032 17.4332 50.0334 14.9262 52.4081C14.7437 52.581 14.5626 52.7525 14.3836 52.9221C13.5895 53.6747 12.3521 53.6961 11.5324 52.9715C10.7127 52.2468 10.5823 51.0161 11.2318 50.1357C12.4092 48.5399 13.7634 47.3063 15.0206 46.2128C15.2258 46.0343 15.4273 45.8604 15.6253 45.6895C16.6777 44.7812 17.631 43.9584 18.5246 42.9793C19.3103 42.1184 20.6449 42.0568 21.5065 42.8418ZM56.2075 44.9598C57.0165 45.7909 57.0038 47.1189 56.1791 47.9343C54.2241 49.8674 52.1658 51.9477 50.0322 54.104C44.4519 59.7438 38.3569 65.9036 32.251 71.3104C31.3899 72.0728 30.077 72.006 29.2978 71.16C28.5187 70.3141 28.5597 69.0002 29.3903 68.2045C31.8321 65.8653 34.0947 63.6234 36.8009 60.9419C37.4164 60.3319 38.0549 59.6993 38.7237 59.0375C42.3287 55.4705 46.7913 51.0814 53.2334 44.9081C54.0707 44.1057 55.3986 44.1288 56.2075 44.9598ZM60.633 49.4925C61.467 50.2891 61.5075 51.6075 60.724 52.4539C50.6585 63.3278 45.0952 68.383 36.7419 75.8839C35.8929 76.6463 34.5919 76.5963 33.8039 75.7711C33.0158 74.9459 33.0259 73.6439 33.8266 72.831C37.4894 69.112 41.0236 65.7327 44.6978 62.2194C44.8668 62.0578 45.0361 61.8959 45.2057 61.7337C49.0672 58.0409 53.1059 54.1679 57.6705 49.5371C58.4801 48.7157 59.799 48.6958 60.633 49.4925ZM65.1448 54.1068C65.9329 54.892 65.9766 56.154 65.2448 56.9919C62.3675 60.2861 56.9261 65.8254 50.7278 71.1777C49.8768 71.9125 48.5992 71.8517 47.8219 71.0393C47.0446 70.2269 47.0402 68.9478 47.8119 68.1301C48.1453 67.7769 48.5022 67.3867 48.9038 66.9476C51.0348 64.618 54.4266 60.9101 62.2594 54.0175C63.0946 53.2825 64.3567 53.3216 65.1448 54.1068Z" fill="#FFEE75"/>
<path fill-rule="evenodd" clip-rule="evenodd" d="M42.5283 13.6663C43.1657 15.7532 43.5117 17.6246 43.7588 19.1875C43.8335 19.6594 43.8973 20.0869 43.9553 20.476C44.1093 21.5077 44.2229 22.2693 44.3911 22.8727C44.4694 23.1539 44.5361 23.3117 44.5803 23.3951C44.6597 23.3901 44.796 23.3715 45.0059 23.3131C45.3957 23.2046 45.9321 22.9895 46.6637 22.6176C46.8735 22.511 47.103 22.4503 47.3369 22.4387C47.383 22.3981 47.4594 22.3209 47.5667 22.1827C47.9 21.7537 48.2733 21.0637 48.7398 20.0793C48.9197 19.6996 49.1098 19.2832 49.3117 18.8407C50.0159 17.2976 50.8649 15.4373 51.9347 13.7098C51.0157 9.16837 49.1489 6.2239 46.6086 5.39004C45.7039 5.1047 45.1789 5.1069 44.8771 5.18537C44.6432 5.24619 44.3783 5.39242 44.0748 5.89014C43.7424 6.43548 43.4202 7.3207 43.1448 8.70228C42.8862 9.99965 42.6873 11.6355 42.5283 13.6663ZM44.6372 23.4775C44.6367 23.4797 44.6279 23.4726 44.6122 23.4494C44.6299 23.4637 44.6377 23.4753 44.6372 23.4775ZM44.0382 1.95931C45.2034 1.65633 46.4293 1.83708 47.6217 2.21436L47.6363 2.21898C52.183 3.70373 54.4272 8.63632 55.3365 13.7587C55.4113 14.18 55.3213 14.6138 55.085 14.9705C53.9979 16.6115 53.1795 18.4015 52.4044 20.0966C52.1852 20.5761 51.9695 21.0479 51.7521 21.5066C51.2865 22.4893 50.7796 23.4804 50.1991 24.2277C49.7177 24.8472 48.9487 25.6024 47.8572 25.747C47.151 26.0915 46.4994 26.3575 45.8995 26.5244C45.219 26.7137 44.4889 26.8089 43.7701 26.6495C42.1038 26.2799 41.4784 24.8384 41.18 23.7674C40.9517 22.9478 40.7933 21.8832 40.6275 20.7685C40.5753 20.4179 40.5224 20.0624 40.4664 19.708C40.2191 18.1439 39.8817 16.3467 39.2531 14.3593C39.1891 14.1569 39.1643 13.9441 39.1802 13.7324C39.3473 11.498 39.5656 9.60701 39.8758 8.05074C40.1824 6.51232 40.6 5.18629 41.2287 4.15496C41.8865 3.07602 42.8043 2.28016 44.0382 1.95931ZM17.1091 10.3862C16.4756 10.0939 15.7902 10.0954 15.1772 10.3123C14.5028 10.5508 13.9738 11.0208 13.5847 11.4825C12.7955 12.4192 12.1935 13.7813 11.8756 15.2618C11.2432 18.2069 11.6272 22.1981 14.7169 25.2384C15.0244 25.6847 15.315 26.1598 15.6395 26.6901C15.8584 27.0479 16.0926 27.4309 16.3579 27.8472C16.9997 28.8544 17.7735 29.9676 18.7301 30.8572C19.7048 31.7636 20.951 32.5136 22.5189 32.6336C24.0673 32.7522 25.6714 32.2365 27.3409 31.1328C28.5918 30.39 29.5514 29.4881 30.1681 28.374C30.7947 27.2416 30.9922 26.0253 30.9319 24.7936C30.8177 22.4613 29.7435 19.7774 28.5782 16.9455C27.8453 15.0287 27.0709 13.606 26.164 12.5907C25.2101 11.5227 24.1557 10.9574 23.0101 10.6973C22.0177 10.4719 20.9756 10.4878 20.0731 10.5015C20.02 10.5023 19.9673 10.5031 19.9152 10.5039C19.0042 10.5169 18.1042 10.5225 17.1091 10.3862ZM15.1346 15.9616C14.6646 18.1505 15.0001 20.9051 17.1422 22.947C17.2207 23.0219 17.2917 23.1042 17.3542 23.1928C17.7488 23.7523 18.1702 24.4392 18.5711 25.0928C18.7781 25.4301 18.9795 25.7585 19.1691 26.056C19.7795 27.014 20.368 27.8284 21.0001 28.4162C21.6142 28.9873 22.1832 29.2648 22.7733 29.31C23.371 29.3558 24.255 29.1833 25.5316 28.3329C25.5575 28.3157 25.5838 28.2992 25.6106 28.2834C26.505 27.7574 26.9859 27.24 27.2516 26.7599C27.5138 26.286 27.6397 25.7165 27.6025 24.9565C27.522 23.3109 26.7225 21.1951 25.4876 18.1943L25.4712 18.1543C24.8031 16.4032 24.2028 15.3988 23.678 14.8113C23.197 14.2728 22.7591 14.0585 22.2719 13.9478C21.6897 13.8156 21.0227 13.8217 19.9628 13.8369C18.9604 13.8512 17.7211 13.8649 16.2998 13.6354C16.2511 13.6275 16.2028 13.6175 16.1552 13.6054C16.1482 13.6134 16.1411 13.6218 16.1338 13.6305C15.7879 14.0409 15.3722 14.8554 15.1346 15.9616ZM63.1263 31.8774C63.4674 33.2373 63.6025 34.4699 63.6724 35.5209C63.702 35.9646 63.7207 36.3938 63.7372 36.7715C63.7433 36.9118 63.7491 37.0449 63.755 37.1691C63.7783 37.6552 63.8037 38.0092 63.8473 38.2853C63.8595 38.3629 63.8716 38.4251 63.8826 38.4742C63.9403 38.4744 64.0147 38.4718 64.1087 38.4633C64.4369 38.4336 64.9073 38.3418 65.5717 38.1492C66.0682 38.0053 66.6013 38.1005 67.0162 38.4024C67.3887 38.1145 67.844 37.7051 68.3303 37.1873C69.1366 36.329 69.8769 35.3339 70.3246 34.4511C70.5488 34.0092 70.6686 33.6556 70.7125 33.4027C70.7366 33.264 70.7321 33.1916 70.7291 33.1667C70.518 32.726 70.5107 32.2142 70.7104 31.767C71.4455 30.1212 71.6517 29.1064 71.642 28.4981C71.6339 27.997 71.4871 27.7931 71.2912 27.6223C70.9981 27.3667 70.5074 27.132 69.6609 26.8369C69.4727 26.7713 69.2629 26.7016 69.0386 26.627C68.3967 26.4137 67.6361 26.1609 66.9246 25.8526C66.2666 25.6394 65.7989 25.5442 65.4734 25.5159C65.2382 25.4955 65.1145 25.5134 65.0643 25.5248C65.0287 25.5798 64.959 25.7215 64.8762 26.0416C64.7954 26.3538 64.7299 26.7217 64.6449 27.208L64.6408 27.2319C64.5607 27.6905 64.4662 28.2312 64.3329 28.7953C64.108 29.7465 63.7618 30.8159 63.1263 31.8774ZM65.0896 25.4946C65.0899 25.4961 65.0846 25.5034 65.0728 25.5123C65.0834 25.4976 65.0894 25.4932 65.0896 25.4946ZM63.7478 22.4584C64.9773 21.9427 66.4569 22.1877 68.0413 22.7107C68.0925 22.7276 68.1429 22.747 68.1922 22.7688C68.7698 23.0239 69.3322 23.2108 69.95 23.4161C70.208 23.5019 70.4757 23.5909 70.7582 23.6894C71.6168 23.9887 72.66 24.393 73.4823 25.1103C74.4019 25.9124 74.952 27.0154 74.9749 28.4446C74.9937 29.6234 74.6548 30.9748 74.0046 32.5447C74.0977 33.0451 74.0724 33.537 73.9967 33.9728C73.8775 34.6599 73.6121 35.3384 73.2974 35.959C72.6673 37.2012 71.7149 38.4528 70.7599 39.4695C69.8334 40.4559 68.7465 41.39 67.7852 41.8438C67.5315 41.9636 67.2227 42.0811 66.8825 42.1363C66.5496 42.1903 66.0603 42.2041 65.5584 41.966C65.3878 41.885 65.2407 41.7901 65.1141 41.6854C64.8694 41.7297 64.6343 41.7627 64.4089 41.7831C63.7929 41.8388 63.1448 41.8107 62.5355 41.5778C61.0991 41.0287 60.6991 39.7203 60.5547 38.8048C60.4801 38.3322 60.4489 37.8176 60.4255 37.3283C60.4183 37.1781 60.4118 37.0293 60.4053 36.8797C60.3894 36.5145 60.3733 36.1452 60.3465 35.7423C60.2728 34.635 60.1242 33.4064 59.7227 32.0695C59.5722 31.5688 59.6655 31.0265 59.9746 30.6048C60.5574 29.8097 60.873 28.9419 61.0889 28.0284C61.1984 27.5653 61.2782 27.1105 61.3614 26.6343L61.3664 26.6057C61.4443 26.1595 61.5309 25.6636 61.6491 25.2068C61.8814 24.3088 62.3619 23.0397 63.7478 22.4584ZM41.98 35.0609C42.1029 35.1524 42.2468 35.2642 42.4129 35.3988C43.2788 36.1001 44.475 37.1935 45.9361 38.5613C46.4765 39.0672 47.0496 39.6074 47.6499 40.1731C50.2551 42.6285 53.3694 45.5635 56.5186 48.2535C56.9404 48.6191 57.4652 49.1953 58.177 50.0385C58.4985 50.4193 58.8442 50.8377 59.2253 51.2988L59.3265 51.4212C59.6986 51.8714 60.101 52.3576 60.5354 52.8741C60.9562 53.7559 61.717 54.2379 62.2554 54.5118C62.5731 54.6735 62.8999 54.805 63.1653 54.9097C63.2141 54.9289 63.2607 54.9472 63.3054 54.9648C63.526 55.0515 63.7007 55.1201 63.8671 55.1953C63.959 55.2368 64.0293 55.2724 64.0823 55.3015C64.0559 55.3777 64.0135 55.4811 63.9457 55.6162C63.7519 56.0027 63.7158 56.4495 63.8452 56.8621C63.9336 57.144 63.9396 57.6178 63.7223 58.3406C63.5104 59.0451 63.1333 59.8305 62.6651 60.635C62.3632 61.1537 62.0367 61.658 61.7159 62.1291C61.3034 62.0182 60.869 61.9752 60.4521 61.9742C59.3048 61.9714 57.8372 62.2946 56.5279 63.0417C56.2774 63.0618 56.0478 63.1189 55.9316 63.1478L55.9243 63.1496C55.717 63.2011 55.4877 63.265 55.2343 63.3356C54.4778 63.5464 53.5073 63.8168 52.2727 63.9935C52.0402 64.0268 51.8173 64.1089 51.6187 64.2344C50.2209 65.1175 49.2921 65.0771 47.9872 65.0205C47.908 65.017 47.8274 65.0135 47.7452 65.0102C46.9992 64.9797 46.0758 64.9607 45.0409 65.2224C44.2627 65.4192 43.4761 65.7592 42.6549 66.2963C42.6211 66.2854 42.5873 66.2749 42.5536 66.2647C42.0203 66.1032 41.2968 65.9632 40.5762 66.0016C39.9286 66.036 38.7615 66.2539 38.1302 67.359C37.8509 67.8479 37.7609 68.3661 37.7882 68.878C36.3654 69.4742 35.4532 70.1866 34.8426 70.8148C34.4824 70.8299 34.1318 70.9617 33.8475 71.1978C32.8239 72.0477 31.1199 72.1793 29.8408 71.4781C29.2402 71.1489 28.7799 70.6582 28.5311 70.0138C28.3353 69.5064 28.2385 68.8193 28.3951 67.9176C28.4887 67.8663 28.5802 67.8089 28.6673 67.7443C28.905 67.5681 29.2166 67.2606 29.3722 66.7788C29.5339 66.2782 29.451 65.8277 29.3345 65.5215C29.1656 65.0774 28.836 64.7325 28.731 64.6226C28.7241 64.6154 28.7181 64.6092 28.7133 64.604C28.6698 64.5578 28.6315 64.5177 28.597 64.4814C28.4945 64.3738 28.4245 64.3002 28.3478 64.2058C28.1786 63.9975 28.159 63.8992 28.1634 63.8006C28.17 63.6557 28.2577 63.1653 29.0553 62.2446C29.3058 61.9555 29.4492 61.5889 29.4614 61.2065C29.4813 60.581 29.6385 59.9106 29.9063 58.8424L29.9257 58.7653C30.1796 57.7529 30.4947 56.4967 30.7254 54.8929C31.8503 48.3538 33.2945 43.7278 34.5471 40.6621C35.1745 39.1266 35.7507 37.99 36.2099 37.2043C36.4397 36.811 36.6357 36.5134 36.7891 36.3017C36.8657 36.1961 36.9279 36.117 36.975 36.061C37.0245 36.0022 37.046 35.9823 37.0402 35.9877C37.0587 35.9705 37.0767 35.9528 37.0943 35.9348C37.1485 35.944 37.2012 35.9527 37.2499 35.9603C38.4085 36.1404 40.083 36.199 41.98 35.0609ZM37.5683 34.727C37.5683 34.7268 37.5683 34.7272 37.5683 34.727V34.727ZM54.9037 66.8712C55.5284 67.4053 56.4589 67.4059 57.0854 66.8556C57.3436 66.6288 57.5692 66.4242 57.7434 66.2493C57.7698 66.2228 57.7971 66.1948 57.8249 66.1656C58.4105 65.7449 59.145 65.4719 59.8088 65.3622C59.8088 65.85 60.0224 66.3307 60.4256 66.6577C61.0807 67.1892 62.0297 67.1473 62.6355 66.5602C62.9471 66.2581 63.2598 65.8833 63.4623 65.4326C63.5963 65.2473 63.7504 65.0337 63.9257 64.7875C64.4179 64.0958 65.0071 63.2377 65.546 62.3117C66.0803 61.3938 66.5973 60.355 66.9144 59.3005C67.1675 58.459 67.327 57.4964 67.1799 56.5325C67.5062 55.6664 67.5985 54.739 67.1728 53.8551C66.698 52.8691 65.7752 52.3995 65.239 52.1573C64.9893 52.0446 64.7229 51.9401 64.5031 51.8539C64.4633 51.8383 64.425 51.8233 64.3886 51.809C64.1271 51.7058 63.9305 51.6241 63.7669 51.5409C63.6344 51.4734 63.5643 51.4251 63.5314 51.3991C63.4647 51.2254 63.3693 51.064 63.249 50.9215C62.7626 50.3454 62.3145 49.8041 61.8958 49.2976L61.7928 49.1729C61.4146 48.7153 61.0576 48.2833 60.7241 47.8883C60.0112 47.0438 59.3369 46.2842 58.696 45.7297L58.688 45.7227C55.606 43.0904 52.5652 40.2248 49.9601 37.7698C49.3528 37.1975 48.7691 36.6475 48.2142 36.1279C46.764 34.7703 45.4838 33.5965 44.511 32.8085C44.036 32.4238 43.561 32.0702 43.1368 31.8374C42.9364 31.7274 42.6328 31.5791 42.2782 31.5134C41.9661 31.4555 41.2794 31.4123 40.6962 31.913C39.4539 32.8357 38.5027 32.7816 37.762 32.6665C37.6108 32.643 37.5113 32.6244 37.4 32.6037C37.3148 32.5878 37.2227 32.5706 37.0951 32.5489C36.8979 32.5154 36.5382 32.4561 36.1668 32.4875C35.7384 32.5238 35.0857 32.7024 34.6355 33.3407C34.4694 33.5761 34.3705 33.8217 34.3125 34.0521C34.0083 34.4344 33.6761 34.9336 33.3319 35.5225C32.7831 36.4617 32.1395 37.7418 31.4614 39.4013C30.1046 42.7221 28.5975 47.5923 27.4363 54.3512L27.429 54.3974C27.2227 55.8399 26.9411 56.9629 26.6862 57.9795L26.6624 58.0745C26.4642 58.865 26.2604 59.6775 26.1718 60.5046C25.3417 61.5714 24.8805 62.6113 24.8335 63.65C24.7892 64.6302 25.1227 65.3895 25.485 65.9343C25.4451 66.0161 25.4115 66.1017 25.385 66.1905C24.8291 68.0551 24.8601 69.7601 25.4214 71.2141C25.9825 72.6675 27.0217 73.7341 28.2386 74.4011C30.1893 75.4704 32.7206 75.5719 34.7711 74.5476C35.3032 74.6782 35.7655 74.528 36.0518 74.3666C36.3153 74.218 36.4882 74.0319 36.5551 73.9582C36.6373 73.8678 36.709 73.7752 36.7527 73.7184C36.7798 73.6831 36.8044 73.6508 36.8277 73.6202C36.8953 73.5312 36.9524 73.456 37.0321 73.3609C37.3741 72.9525 38.1701 72.1342 40.2407 71.551C40.7109 71.4185 41.0993 71.0865 41.3033 70.6427C41.4844 70.2485 41.5039 69.8013 41.3619 69.3959C41.4411 69.4136 41.5174 69.4337 41.5878 69.455C41.6431 69.4717 41.6891 69.4875 41.7257 69.501C41.8958 69.6481 42.0964 69.7613 42.3173 69.8305C42.8482 69.9968 43.427 69.8873 43.8604 69.5385C44.6916 68.8696 45.3349 68.5863 45.8581 68.454C46.3995 68.3171 46.9168 68.3125 47.6092 68.3407C47.6959 68.3443 47.7843 68.3483 47.8744 68.3524C49.2179 68.4136 50.9427 68.4922 53.0887 67.2409C53.7497 67.1344 54.3664 67.0015 54.9037 66.8712ZM41.8297 69.5443C41.8299 69.5444 41.8313 69.5452 41.8297 69.5443V69.5443ZM13.0672 36.7871C15.5615 37.3249 18.4339 39.1338 19.7228 42.5716C19.7963 42.7676 19.831 42.9721 19.8288 43.1748C19.876 43.257 19.9411 43.366 20.0299 43.51C20.0678 43.5713 20.1087 43.637 20.1521 43.7066C20.5014 44.2672 21.011 45.085 21.39 46.0004C21.8227 47.0455 22.1543 48.3687 21.8806 49.8149C21.6001 51.2969 20.7289 52.6765 19.1842 53.8881C18.9902 54.0402 18.7649 54.1474 18.5246 54.202C17.133 54.518 15.9542 54.7836 14.9712 54.9105C13.9781 55.0388 13.0063 55.0532 12.0664 54.7399C11.0978 54.4171 10.3556 53.8122 9.69866 53.0571C9.07858 52.3445 8.4626 51.412 7.77038 50.3083C7.60476 50.0705 7.49956 49.7877 7.47684 49.4821C7.47264 49.4271 7.47117 49.3721 7.47241 49.3173C7.48592 46.6894 6.96981 44.4971 6.5715 42.8051C6.50927 42.5408 6.44991 42.2886 6.3959 42.049C6.29896 41.6188 6.20717 41.1739 6.16502 40.7741C6.12973 40.4394 6.08686 39.8242 6.35174 39.2372C6.50707 38.8929 6.77154 38.5504 7.17511 38.3124C7.46446 38.1418 7.75854 38.0642 8.01961 38.0357C8.41609 37.5031 8.95305 37.1633 9.47363 36.9551C10.5405 36.5283 11.8422 36.5229 13.0672 36.7871ZM10.8033 48.8684C11.3907 49.7936 11.8268 50.4249 12.2134 50.8691C12.6294 51.3473 12.9004 51.5043 13.1205 51.5777C13.3694 51.6606 13.762 51.7057 14.5443 51.6047C15.2643 51.5117 16.1619 51.3187 17.4011 51.0387C18.2255 50.3193 18.5123 49.6872 18.6054 49.1951C18.7149 48.6162 18.6029 47.9825 18.3102 47.2755C18.0432 46.6306 17.6831 46.0503 17.3237 45.4711C17.2802 45.401 17.2367 45.3309 17.1933 45.2606C17.0192 44.9785 16.7928 44.6077 16.647 44.2569C16.5739 44.0809 16.4722 43.7984 16.4486 43.4619C16.4463 43.4295 16.4448 43.3956 16.4441 43.3604C15.5604 41.4083 13.8537 40.3666 12.3647 40.0455C11.639 39.8891 11.0984 39.933 10.8068 40.0176C10.7822 40.5031 10.5459 40.9601 10.1504 41.2605C10.0091 41.3679 9.85398 41.4503 9.69134 41.507C9.72744 41.663 9.76687 41.8293 9.80864 42.0056C10.1873 43.6032 10.759 46.0156 10.8033 48.8684ZM19.7252 42.9779C19.7215 42.9676 19.7216 42.9692 19.7252 42.9779V42.9779Z" fill="#FFEE75"/>
</g>
</g>
</svg>
