<svg width="380" height="36" viewBox="0 0 380 36" fill="none" xmlns="http://www.w3.org/2000/svg">
<path fill-rule="evenodd" clip-rule="evenodd" d="M95.9883 5.03034C81.7346 2.58675 67.8054 4.89719 53.3548 7.67306C50.7447 8.17444 48.0669 8.65397 45.3541 9.13977C32.4304 11.4541 18.7126 13.9106 7.74027 19.5493C7.32924 19.7605 5.69159 20.6758 4.59659 21.597C4.96242 22.0862 5.10028 22.7362 4.91261 23.3666C4.59748 24.4253 3.4838 25.028 2.42513 24.7129C1.8181 24.5322 1.08428 24.2027 0.566081 23.5342C-0.0334166 22.7608 -0.0959313 21.8668 0.098653 21.1357C0.269622 20.4933 0.630625 19.973 0.93318 19.6083C1.25439 19.2211 1.63239 18.8647 2.00231 18.5523C3.44351 17.335 5.40922 16.2499 5.91196 15.9916C17.4739 10.0499 31.9344 7.4682 44.8578 5.16092C47.5166 4.68625 50.1102 4.22319 52.6002 3.74488C67.0248 0.974003 81.6121 -1.49262 96.6642 1.08786L96.8372 1.11752C102.272 2.04923 108.847 3.17619 115.088 5.12048C121.377 7.07982 127.551 9.93308 131.953 14.4568C132.575 15.0958 133.483 16.4395 134.381 17.944C135.171 19.2674 136.037 20.8569 136.819 22.5075C138.192 21.9533 139.583 21.5003 140.798 21.1046C141.114 21.0017 141.418 20.9026 141.707 20.8066C154.731 16.4805 168.345 14.8034 181.769 13.5856C225.135 9.65149 269.698 9.74092 313.135 11.1571C328.935 11.6722 344.36 13.6238 359.86 16.069C360.602 16.1861 361.341 16.3082 362.075 16.4295C365.992 17.077 369.794 17.7053 373.478 17.4651C373.597 17.4573 373.712 17.4502 373.823 17.4433C374.229 17.418 374.587 17.3957 374.938 17.3566C375.382 17.3072 375.686 17.2428 375.89 17.1689C375.936 17.1521 375.971 17.137 375.996 17.1248C375.998 17.1027 375.999 17.0746 375.999 17.0394C375.999 15.9349 376.895 15.0394 377.999 15.0394C379.104 15.0394 379.999 15.9349 379.999 17.0394C379.999 17.9683 379.751 18.8493 379.179 19.583C378.625 20.2935 377.903 20.6933 377.256 20.9283C376.204 21.3105 374.925 21.386 374.043 21.4381C373.935 21.4444 373.833 21.4504 373.738 21.4566C369.551 21.7297 365.218 21.009 361.314 20.3598C360.606 20.2421 359.913 20.1268 359.236 20.0201C343.808 17.5862 328.567 15.6623 313.005 15.1549C269.637 13.7411 225.26 13.6566 182.13 17.5693C168.752 18.7829 155.527 20.4309 142.968 24.6027C142.637 24.7125 142.304 24.8212 141.969 24.9305C140.765 25.3235 139.541 25.7228 138.355 26.2C138.731 27.2738 139.029 28.3354 139.195 29.3233C139.348 30.2405 139.409 31.212 139.24 32.1217C139.068 33.0545 138.624 34.0515 137.672 34.741C135.269 36.4818 132.343 36.3554 130.434 34.7379C129.486 33.9341 128.834 32.7835 128.704 31.4417C128.574 30.0981 128.981 28.7244 129.855 27.4606C130.763 26.1478 131.959 25.1234 133.243 24.303C132.513 22.7545 131.694 21.2464 130.946 19.9946C130.037 18.4707 129.341 17.5082 129.086 17.2463C125.363 13.4202 119.929 10.8183 113.898 8.93946C107.911 7.07434 101.554 5.98456 96.0601 5.04265L95.9883 5.03034ZM134.774 28.1018C134.109 28.5959 133.56 29.1364 133.145 29.736C132.713 30.3605 132.661 30.8083 132.685 31.057C132.71 31.3074 132.824 31.5197 133.021 31.6866C133.396 32.005 134.251 32.2489 135.27 31.5411C135.28 31.5135 135.294 31.4666 135.307 31.3931C135.358 31.1185 135.363 30.6592 135.25 29.9844C135.155 29.4186 134.992 28.784 134.774 28.1018ZM135.255 31.5738C135.255 31.5735 135.256 31.5707 135.259 31.5658C135.257 31.5716 135.255 31.574 135.255 31.5738ZM375.985 17.192C375.985 17.1919 375.986 17.1898 375.987 17.1859C375.986 17.1901 375.985 17.192 375.985 17.192ZM3.45211 20.838C3.45234 20.8378 3.45692 20.8398 3.46512 20.8442C3.45597 20.8403 3.45187 20.8381 3.45211 20.838Z" fill="#F6927F"/>
</svg>
