<svg width="48" height="48" viewBox="0 0 48 48" fill="none" xmlns="http://www.w3.org/2000/svg">
<g opacity="0.5">
<mask id="mask0_2621_5900" style="mask-type:luminance" maskUnits="userSpaceOnUse" x="0" y="0" width="48" height="48">
<path d="M48 0H0V48H48V0Z" fill="white"/>
</mask>
<g mask="url(#mask0_2621_5900)">
<path fill-rule="evenodd" clip-rule="evenodd" d="M30.2167 3.36206C30.7362 3.80993 30.805 4.58994 30.3718 5.1218C29.9803 5.60254 29.3382 6.18586 28.8045 6.66365C28.2855 7.12832 27.4888 7.08683 27.0208 6.57078C26.5529 6.05473 26.5893 5.25771 27.1024 4.78652C27.6869 4.24972 28.0996 3.85567 28.4533 3.46792C28.9155 2.9611 29.6971 2.91418 30.2167 3.36206ZM32.9787 6.18123C33.4311 6.63914 33.4683 7.3635 33.0651 7.86529C32.374 8.72545 31.4279 9.52792 30.5393 10.2816C30.4264 10.3774 30.3143 10.4724 30.2039 10.5667C29.9754 10.8004 29.7409 11.0419 29.5019 11.2881C28.7772 12.0347 28.0101 12.825 27.2369 13.5738C26.7631 14.0327 26.0166 14.0513 25.5205 13.6167C25.0244 13.1821 24.9447 12.4396 25.3373 11.9096C26.2885 10.6254 27.4442 9.5929 28.4718 8.7136C28.4766 8.7087 28.4814 8.70381 28.4862 8.69891C29.4493 7.71617 30.4087 6.76977 31.2958 6.0745C31.8025 5.67741 32.5263 5.72332 32.9787 6.18123ZM14.8779 7.68882C15.3712 8.16137 15.401 8.93983 14.9454 9.44876C12.9834 11.6406 11.9055 12.7686 10.454 13.8228C9.91601 14.2136 9.16752 14.122 8.73963 13.6131C8.31174 13.1041 8.35005 12.351 8.82736 11.8882C9.77924 10.965 10.5721 10.1879 11.3895 9.38671C11.936 8.85103 12.4935 8.30463 13.1167 7.69672C13.6057 7.21977 14.3847 7.21628 14.8779 7.68882ZM17.5943 10.4689C18.083 10.9676 18.0762 11.7677 17.579 12.2579C16.239 13.5791 15.2036 14.5462 14.3784 15.317C14.2272 15.4582 14.0831 15.5927 13.9455 15.7217C13.0489 16.562 12.4571 17.1367 11.9411 17.7564C11.4992 18.2872 10.7136 18.3662 10.1747 17.9341C9.63594 17.502 9.54247 16.718 9.96458 16.1713C10.5399 15.4262 11.2541 14.732 12.1618 13.8841C12.3729 13.6868 12.5965 13.4795 12.8344 13.2589C13.6363 12.5155 14.6013 11.6208 15.8054 10.4481C16.3056 9.96089 17.1056 9.97022 17.5943 10.4689ZM18.8579 14.6226C19.3296 15.1101 19.3337 15.8827 18.8672 16.3751C18.4437 16.8221 18.0574 17.1871 17.7165 17.4942C17.6778 17.5331 17.6384 17.5728 17.5983 17.6131L17.5981 17.6133C17.113 18.1014 16.5492 18.668 15.9488 19.227C15.4784 19.6649 14.7548 19.6813 14.265 19.2653C13.7753 18.8492 13.6746 18.1324 14.0308 17.5975C14.4173 17.0171 14.9181 16.5766 15.3795 16.1745C15.4179 16.1411 15.4565 16.1075 15.4955 16.0736C15.648 15.9409 15.8058 15.8038 15.9704 15.6564C16.3835 15.241 16.7783 14.8471 17.1067 14.5558C17.6142 14.1057 18.3862 14.1352 18.8579 14.6226ZM41.3638 14.6175C41.851 15.1153 41.845 15.9131 41.3503 16.4035C40.6624 17.0855 39.9757 17.7843 39.3716 18.4009C39.2936 18.4805 39.2168 18.559 39.1413 18.636C38.7881 18.9968 38.4661 19.3256 38.199 19.5945C38.0762 19.7193 37.9692 19.8263 37.8822 19.9104C37.3809 20.3953 36.582 20.3838 36.0948 19.8848C35.6076 19.3857 35.6153 18.5868 36.1121 18.0973C36.1999 18.0107 36.2996 17.9111 36.41 17.7999C36.5771 17.6298 36.7825 17.4177 37.0217 17.1706C37.1598 17.0279 37.3092 16.8735 37.4691 16.7089C38.0815 16.0781 38.82 15.3249 39.5779 14.5926C40.0788 14.1085 40.8765 14.1196 41.3638 14.6175ZM43.9069 17.1135C44.3941 17.6113 44.3881 18.4091 43.8934 18.8995C43.2083 19.5787 42.1819 20.6313 41.2324 21.6075C41.1022 21.7415 40.9732 21.8742 40.8466 22.0044C40.2675 22.6001 39.7394 23.1433 39.3788 23.5089C39.2396 23.6509 39.1287 23.7624 39.0542 23.8344C38.5529 24.3193 37.754 24.3078 37.2668 23.8088C36.7796 23.3097 36.7873 22.5108 37.2841 22.0213C37.3626 21.9439 37.47 21.8359 37.6008 21.7031C37.8509 21.4475 38.2059 21.0796 38.6223 20.6482C38.8416 20.4209 39.0779 20.1761 39.3249 19.9207C40.2751 18.9381 41.3599 17.824 42.121 17.0886C42.6219 16.6045 43.4196 16.6156 43.9069 17.1135ZM28.4385 21.5759C28.8406 22.0889 28.788 22.8233 28.3168 23.2736C25.4438 26.0196 23.5844 27.7975 22.141 29.2195C21.4023 29.9986 20.6049 30.8187 19.738 31.6566C19.2424 32.1358 18.4546 32.1307 17.9652 31.6452C17.4757 31.1598 17.4642 30.3721 17.9393 29.8725C18.6747 29.0994 19.4263 28.3373 20.3318 27.4448C20.7784 26.9732 21.2062 26.5135 21.6217 26.0672C21.9842 25.6778 22.3372 25.2985 22.6851 24.9302C24.0496 23.4856 25.3603 22.1809 26.7608 21.289C27.3106 20.9389 28.0363 21.063 28.4385 21.5759ZM10.1467 22.8711C10.6636 23.3421 10.7013 24.1428 10.2307 24.6602C9.36876 25.608 7.70273 27.1861 6.19849 28.6109C6.08899 28.7146 5.98035 28.8175 5.87294 28.9193C5.39647 29.3709 4.65403 29.3837 4.16222 28.9489C3.67041 28.5142 3.59214 27.7757 3.98186 27.2475C4.68828 26.29 5.50083 25.5499 6.25514 24.8937C6.37828 24.7866 6.49917 24.6823 6.61794 24.5798C7.24941 24.0348 7.82138 23.5411 8.35756 22.9536C8.82898 22.4371 9.62975 22.4002 10.1467 22.8711ZM31.0865 24.2795C31.5377 24.7996 31.4909 25.585 30.981 26.0478C29.9948 26.9431 29.1044 27.7901 28.2859 28.5926C27.8168 29.0687 27.3221 29.5791 26.7989 30.1189L26.6764 30.2453C25.7028 31.2497 24.6449 32.3383 23.5002 33.4568C22.635 34.3262 21.7971 35.1297 20.9343 35.8605C20.4054 36.3085 19.6147 36.2483 19.1597 35.7255C18.7047 35.2027 18.7542 34.4113 19.2708 33.9493C20.1227 33.1874 20.9347 32.4203 21.7106 31.6626C22.2391 31.1313 22.7901 30.5628 23.3823 29.9517L23.5001 29.8301C24.3945 28.9075 25.3725 27.901 26.4866 26.808C27.4995 25.7803 28.4476 24.8579 29.321 24.1342C29.8512 23.6948 30.6353 23.7593 31.0865 24.2795ZM12.9047 25.7051C13.4216 26.1761 13.4593 26.9768 12.9887 27.4942C12.1268 28.442 10.4607 30.0201 8.95649 31.4449C8.84699 31.5486 8.73835 31.6515 8.63094 31.7533C8.15447 32.2049 7.41203 32.2177 6.92022 31.7829C6.42841 31.3482 6.35014 30.6097 6.73986 30.0815C7.44628 29.124 8.25883 28.3839 9.01314 27.7277C9.13628 27.6206 9.25717 27.5163 9.37594 27.4138C10.0074 26.8688 10.5794 26.3751 11.1156 25.7876C11.587 25.2711 12.3877 25.2341 12.9047 25.7051ZM33.7253 26.9759C34.2107 27.4746 34.2031 28.2714 33.7083 28.7606C32.5353 29.9205 31.3003 31.1687 30.0201 32.4624C26.6719 35.8463 23.0149 39.5422 19.3514 42.7863C18.8347 43.2437 18.047 43.2037 17.5795 42.6961C17.112 42.1885 17.1366 41.4001 17.6349 40.9228C19.1001 39.5192 20.4576 38.1741 22.0813 36.5652C22.4506 36.1992 22.8337 35.8196 23.235 35.4226C25.398 33.2823 28.0756 30.6489 31.9408 26.9449C32.4432 26.4635 33.2399 26.4773 33.7253 26.9759ZM36.3806 29.6955C36.881 30.1735 36.9053 30.9646 36.4352 31.4724C30.3959 37.9967 27.0579 41.0299 22.0459 45.5304C21.5365 45.9878 20.7559 45.9579 20.2831 45.4627C19.8103 44.9676 19.8163 44.1864 20.2967 43.6986C22.4944 41.4673 24.6149 39.4396 26.8195 37.3317C26.9209 37.2347 27.0225 37.1376 27.1242 37.0403C29.4411 34.8246 31.8643 32.5008 34.6031 29.7223C35.0888 29.2295 35.8802 29.2175 36.3806 29.6955ZM39.0877 32.4641C39.5605 32.9353 39.5868 33.6925 39.1477 34.1952C37.4213 36.1717 34.1564 39.4953 30.4375 42.7067C29.9269 43.1476 29.1603 43.1111 28.6939 42.6236C28.2276 42.1362 28.2249 41.3688 28.6879 40.8781C28.888 40.6662 29.1021 40.4321 29.3431 40.1686C30.6217 38.7709 32.6568 36.5461 37.3564 32.4105C37.8575 31.9696 38.6148 31.993 39.0877 32.4641Z" fill="#FFEE75"/>
<path fill-rule="evenodd" clip-rule="evenodd" d="M25.5174 8.19978C25.8998 9.45192 26.1074 10.5748 26.2557 11.5125C26.3005 11.7956 26.3387 12.0522 26.3736 12.2856C26.466 12.9046 26.5341 13.3616 26.635 13.7236C26.682 13.8923 26.7221 13.987 26.7486 14.0371C26.7962 14.034 26.878 14.0229 27.004 13.9878C27.2378 13.9228 27.5597 13.7937 27.9986 13.5706C28.1245 13.5066 28.2622 13.4702 28.4025 13.4632C28.4302 13.4388 28.476 13.3925 28.5404 13.3096C28.7404 13.0522 28.9644 12.6382 29.2443 12.0476C29.3522 11.8197 29.4663 11.5699 29.5874 11.3044C30.0099 10.3786 30.5193 9.26239 31.1612 8.22587C30.6098 5.50102 29.4897 3.73434 27.9655 3.23402C27.4227 3.06282 27.1077 3.06414 26.9267 3.11122C26.7863 3.14771 26.6274 3.23545 26.4453 3.53408C26.2458 3.86129 26.0525 4.39242 25.8873 5.22137C25.7321 5.99979 25.6128 6.9813 25.5174 8.19978ZM26.7827 14.0865C26.7824 14.0878 26.7771 14.0835 26.7677 14.0697C26.7783 14.0782 26.783 14.0852 26.7827 14.0865ZM26.4233 1.17559C27.1225 0.9938 27.858 1.10225 28.5734 1.32862L28.5821 1.33139C31.3102 2.22224 32.6567 5.18179 33.2023 8.25524C33.2472 8.50798 33.1931 8.76829 33.0514 8.98229C32.3991 9.96689 31.9081 11.0409 31.443 12.058C31.3115 12.3456 31.1821 12.6287 31.0516 12.904C30.7723 13.4936 30.4681 14.0882 30.1198 14.5366C29.831 14.9083 29.3696 15.3614 28.7147 15.4482C28.291 15.6549 27.9 15.8145 27.5401 15.9146C27.1318 16.0282 26.6937 16.0853 26.2624 15.9897C25.2627 15.7679 24.8874 14.9031 24.7084 14.2604C24.5714 13.7687 24.4764 13.1299 24.3769 12.4611C24.3456 12.2508 24.3139 12.0375 24.2802 11.8248C24.1318 10.8863 23.9294 9.808 23.5523 8.61558C23.5139 8.49413 23.499 8.36646 23.5085 8.23944C23.6088 6.89881 23.7397 5.7642 23.9258 4.83044C24.1098 3.90739 24.3604 3.11177 24.7376 2.49297C25.1323 1.84561 25.683 1.3681 26.4233 1.17559ZM10.2658 6.23169C9.88575 6.05633 9.47452 6.05723 9.10669 6.18737C8.70208 6.33051 8.38467 6.61249 8.15122 6.88953C7.67766 7.45153 7.31649 8.26879 7.12575 9.15709C6.74633 10.9241 6.97672 13.3189 8.83054 15.143C9.01506 15.4108 9.18942 15.6959 9.38408 16.0141C9.51541 16.2287 9.65598 16.4585 9.81515 16.7083C10.2002 17.3127 10.6645 17.9805 11.2385 18.5143C11.8233 19.0582 12.571 19.5082 13.5117 19.5802C14.4408 19.6513 15.4032 19.3419 16.4049 18.6797C17.1555 18.234 17.7312 17.6929 18.1012 17.0244C18.4772 16.345 18.5957 15.6152 18.5595 14.8761C18.491 13.4768 17.8465 11.8665 17.1473 10.1673C16.7076 9.01721 16.2429 8.16361 15.6988 7.55443C15.1264 6.91364 14.4938 6.57447 13.8064 6.41836C13.211 6.28314 12.5857 6.29266 12.0442 6.30091C12.0124 6.30139 11.9808 6.30187 11.9495 6.30232C11.4029 6.31013 10.8629 6.31351 10.2658 6.23169ZM9.08118 9.57697C8.79917 10.8903 9.00045 12.543 10.2857 13.7682C10.3328 13.8131 10.3754 13.8625 10.4129 13.9157C10.6497 14.2514 10.9025 14.6635 11.1431 15.0557C11.2672 15.258 11.3881 15.4551 11.5018 15.6336C11.8681 16.2084 12.2212 16.697 12.6005 17.0497C12.9689 17.3924 13.3103 17.5589 13.6644 17.586C14.023 17.6135 14.5534 17.51 15.3193 16.9998C15.3349 16.9894 15.3507 16.9795 15.3668 16.9701C15.9034 16.6544 16.1919 16.344 16.3513 16.0559C16.5087 15.7716 16.5842 15.4299 16.5619 14.9739C16.5136 13.9865 16.0339 12.7171 15.293 10.9166L15.2831 10.8926C14.8822 9.8419 14.5221 9.23928 14.2072 8.88675C13.9186 8.56367 13.6559 8.43509 13.3635 8.3687C13.0142 8.28938 12.614 8.29303 11.9781 8.30211C11.3767 8.31071 10.6331 8.31897 9.78028 8.18124C9.75104 8.17652 9.7221 8.17051 9.69352 8.16325C9.68934 8.16805 9.68505 8.17305 9.68064 8.17828C9.47314 8.42453 9.22369 8.91327 9.08118 9.57697ZM37.8761 19.1265C38.0808 19.9424 38.1619 20.6819 38.2038 21.3126C38.2216 21.5787 38.2328 21.8363 38.2427 22.0629C38.2464 22.1471 38.2498 22.227 38.2534 22.3014C38.2674 22.5931 38.2826 22.8055 38.3087 22.9712C38.3161 23.0178 38.3233 23.055 38.33 23.0845C38.3645 23.0847 38.4092 23.0831 38.4656 23.078C38.6625 23.0602 38.9448 23.0051 39.3434 22.8895C39.6413 22.8032 39.9612 22.8603 40.2101 23.0415C40.4336 22.8687 40.7068 22.6231 40.9986 22.3124C41.4823 21.7974 41.9265 21.2003 42.1952 20.6707C42.3297 20.4055 42.4016 20.1934 42.4279 20.0416C42.4423 19.9584 42.4397 19.915 42.4378 19.9C42.3112 19.6356 42.3068 19.3285 42.4266 19.0602C42.8677 18.0727 42.9914 17.4639 42.9856 17.0988C42.9807 16.7982 42.8926 16.6759 42.7751 16.5734C42.5993 16.42 42.3049 16.2792 41.7969 16.1021C41.684 16.0628 41.5581 16.0209 41.4235 15.9762C41.0384 15.8482 40.582 15.6966 40.1552 15.5115C39.7603 15.3836 39.4797 15.3265 39.2845 15.3096C39.1433 15.2973 39.0691 15.308 39.039 15.3149C39.0176 15.3479 38.9758 15.4329 38.9261 15.625C38.8776 15.8123 38.8383 16.033 38.7874 16.3248L38.7849 16.3391C38.7368 16.6143 38.6801 16.9387 38.6001 17.2772C38.4652 17.8479 38.2575 18.4896 37.8761 19.1265ZM39.0542 15.2968C39.0543 15.2977 39.0512 15.302 39.0441 15.3074C39.0504 15.2986 39.054 15.2959 39.0542 15.2968ZM38.2491 13.475C38.9868 13.1656 39.8745 13.3126 40.8252 13.6264C40.8559 13.6366 40.8861 13.6482 40.9157 13.6613C41.2623 13.8143 41.5997 13.9265 41.9704 14.0497C42.1252 14.1011 42.2858 14.1545 42.4553 14.2136C42.9704 14.3932 43.5964 14.6358 44.0898 15.0662C44.6415 15.5474 44.9716 16.2092 44.9853 17.0668C44.9966 17.7741 44.7933 18.5849 44.4031 19.5268C44.459 19.827 44.4438 20.1222 44.3984 20.3837C44.3269 20.7959 44.1677 21.2031 43.9788 21.5754C43.6008 22.3207 43.0294 23.0717 42.4563 23.6817C41.9004 24.2735 41.2483 24.834 40.6715 25.1063C40.5193 25.1782 40.334 25.2487 40.1299 25.2818C39.9301 25.3142 39.6365 25.3225 39.3355 25.1796C39.233 25.131 39.1448 25.0741 39.0688 25.0112C38.922 25.0378 38.781 25.0576 38.6458 25.0699C38.2761 25.1033 37.8873 25.0864 37.5217 24.9467C36.6599 24.6172 36.4198 23.8322 36.3332 23.2829C36.2884 22.9993 36.2697 22.6906 36.2557 22.397C36.2514 22.3069 36.2475 22.2176 36.2436 22.1278C36.234 21.9087 36.2244 21.6871 36.2083 21.4454C36.1641 20.781 36.0749 20.0438 35.834 19.2417C35.7437 18.9413 35.7997 18.6159 35.9852 18.3629C36.3348 17.8858 36.5242 17.3651 36.6538 16.817C36.7194 16.5392 36.7673 16.2663 36.8172 15.9806L36.8202 15.9634C36.867 15.6957 36.9189 15.3981 36.9898 15.1241C37.1292 14.5853 37.4175 13.8238 38.2491 13.475ZM25.1884 21.0366C25.2621 21.0915 25.3485 21.1585 25.4481 21.2393C25.9677 21.6601 26.6854 22.3161 27.562 23.1368C27.8863 23.4403 28.2302 23.7645 28.5903 24.1039C30.1535 25.5771 32.022 27.3381 33.9115 28.9521C34.1646 29.1715 34.4795 29.5172 34.9066 30.0231C35.0995 30.2516 35.3069 30.5026 35.5356 30.7793L35.5963 30.8528C35.8196 31.1228 36.061 31.4145 36.3216 31.7244C36.5741 32.2535 37.0306 32.5427 37.3536 32.7071C37.5443 32.8041 37.7403 32.883 37.8995 32.9458C37.9288 32.9574 37.9568 32.9683 37.9836 32.9789C38.116 33.0309 38.2208 33.0721 38.3206 33.1172C38.3758 33.1421 38.418 33.1635 38.4497 33.1809C38.4339 33.2266 38.4085 33.2886 38.3678 33.3697C38.2515 33.6016 38.2299 33.8697 38.3075 34.1172C38.3606 34.2864 38.3642 34.5707 38.2338 35.0044C38.1067 35.427 37.8804 35.8983 37.5994 36.381C37.4183 36.6922 37.2224 36.9948 37.0299 37.2775C36.7824 37.2109 36.5218 37.1851 36.2717 37.1845C35.5833 37.1829 34.7027 37.3768 33.9171 37.825C33.7668 37.8371 33.6291 37.8713 33.5594 37.8887L33.555 37.8898C33.4306 37.9206 33.293 37.959 33.1409 38.0014C32.6871 38.1278 32.1048 38.2901 31.364 38.3961C31.2245 38.4161 31.0908 38.4653 30.9716 38.5406C30.133 39.0705 29.5756 39.0463 28.7927 39.0123C28.7452 39.0102 28.6968 39.0081 28.6475 39.0061C28.1999 38.9878 27.6458 38.9764 27.0249 39.1335C26.558 39.2515 26.0861 39.4555 25.5933 39.7778C25.5731 39.7712 25.5528 39.7649 25.5326 39.7588C25.2126 39.6619 24.7785 39.5779 24.3461 39.6009C23.9576 39.6216 23.2573 39.7523 22.8785 40.4154C22.711 40.7087 22.6569 41.0196 22.6733 41.3268C21.8196 41.6845 21.2723 42.1119 20.906 42.4889C20.6898 42.4979 20.4795 42.577 20.3089 42.7187C19.6948 43.2286 18.6724 43.3076 17.9049 42.8869C17.5445 42.6894 17.2683 42.3949 17.1191 42.0083C17.0016 41.7039 16.9435 41.2916 17.0375 40.7506C17.0936 40.7198 17.1485 40.6853 17.2008 40.6466C17.3434 40.5408 17.5304 40.3564 17.6237 40.0673C17.7207 39.7669 17.671 39.4966 17.6011 39.3129C17.4997 39.0464 17.302 38.8395 17.239 38.7736C17.2348 38.7692 17.2313 38.7655 17.2284 38.7624C17.2023 38.7347 17.1793 38.7106 17.1586 38.6888C17.0971 38.6243 17.0551 38.5801 17.0091 38.5235C16.9076 38.3985 16.8958 38.3395 16.8984 38.2804C16.9024 38.1934 16.955 37.8992 17.4336 37.3468C17.5839 37.1733 17.6699 36.9533 17.6772 36.7239C17.6892 36.3486 17.7835 35.9464 17.9442 35.3055L17.9558 35.2592C18.1082 34.6518 18.2972 33.898 18.4356 32.9358C19.1106 29.0123 19.9771 26.2367 20.7287 24.3973C21.1051 23.476 21.4508 22.794 21.7263 22.3226C21.8642 22.0866 21.9818 21.908 22.0738 21.781C22.1198 21.7176 22.1572 21.6702 22.1854 21.6366C22.2151 21.6013 22.228 21.5894 22.2245 21.5926C22.2356 21.5823 22.2464 21.5717 22.257 21.5609C22.2895 21.5664 22.3211 21.5716 22.3504 21.5762C23.0455 21.6842 24.0502 21.7194 25.1884 21.0366ZM22.5414 20.8362C22.5414 20.8361 22.5414 20.8363 22.5414 20.8362V20.8362ZM32.9426 40.1227C33.3174 40.4432 33.8757 40.4435 34.2516 40.1134C34.4066 39.9773 34.5419 39.8545 34.6464 39.7496C34.6623 39.7337 34.6787 39.7169 34.6953 39.6994C35.0467 39.4469 35.4874 39.2831 35.8857 39.2173C35.8856 39.51 36.0138 39.7984 36.2557 39.9946C36.6488 40.3135 37.2182 40.2884 37.5817 39.9361C37.7687 39.7549 37.9563 39.53 38.0778 39.2596C38.1582 39.1484 38.2507 39.0202 38.3558 38.8725C38.6511 38.4575 39.0047 37.9426 39.328 37.387C39.6486 36.8363 39.9588 36.213 40.149 35.5803C40.3009 35.0754 40.3966 34.4979 40.3083 33.9195C40.5041 33.3998 40.5595 32.8434 40.3041 32.313C40.0192 31.7214 39.4655 31.4397 39.1438 31.2944C38.994 31.2267 38.8341 31.1641 38.7022 31.1124C38.6784 31.103 38.6554 31.094 38.6336 31.0854C38.4767 31.0235 38.3587 30.9745 38.2605 30.9245C38.181 30.8841 38.139 30.855 38.1192 30.8394C38.0792 30.7352 38.022 30.6384 37.9498 30.5529C37.658 30.2072 37.3891 29.8825 37.1379 29.5786L37.0761 29.5038C36.8491 29.2292 36.6349 28.97 36.4348 28.733C36.0071 28.2263 35.6026 27.7705 35.218 27.4378L35.2132 27.4336C33.364 25.8543 31.5395 24.1349 29.9765 22.6619C29.6121 22.3185 29.2619 21.9885 28.9289 21.6768C28.0588 20.8622 27.2906 20.1579 26.707 19.6851C26.422 19.4543 26.137 19.2421 25.8825 19.1024C25.7622 19.0364 25.5801 18.9475 25.3673 18.908C25.18 18.8733 24.768 18.8474 24.4181 19.1478C23.6727 19.7014 23.102 19.669 22.6576 19.5999C22.5668 19.5858 22.5072 19.5747 22.4404 19.5622C22.3893 19.5527 22.334 19.5424 22.2574 19.5293C22.1391 19.5092 21.9233 19.4737 21.7005 19.4925C21.4434 19.5143 21.0518 19.6214 20.7817 20.0044C20.6821 20.1457 20.6227 20.293 20.5879 20.4313C20.4054 20.6607 20.206 20.9601 19.9995 21.3135C19.6702 21.877 19.2841 22.6451 18.8773 23.6408C18.0632 25.6332 17.1589 28.5554 16.4622 32.6107L16.4578 32.6385C16.334 33.5039 16.165 34.1778 16.0121 34.7877L15.9978 34.8447C15.8789 35.319 15.7566 35.8065 15.7035 36.3028C15.2054 36.9428 14.9287 37.5668 14.9005 38.19C14.8739 38.7781 15.074 39.2337 15.2914 39.5606C15.2674 39.6096 15.2473 39.661 15.2314 39.7143C14.8978 40.8331 14.9165 41.8561 15.2532 42.7285C15.5899 43.6005 16.2134 44.2405 16.9435 44.6407C18.114 45.2822 19.6328 45.3432 20.8631 44.7286C21.1823 44.8069 21.4597 44.7168 21.6315 44.6199C21.7895 44.5308 21.8933 44.4191 21.9335 44.3749C21.9827 44.3207 22.0258 44.2651 22.052 44.2311C22.0683 44.2099 22.083 44.1905 22.097 44.1721C22.1376 44.1187 22.1719 44.0736 22.2197 44.0165C22.4248 43.7715 22.9025 43.2805 24.1448 42.9306C24.4269 42.8511 24.66 42.6519 24.7824 42.3856C24.891 42.1491 24.9027 41.8808 24.8175 41.6375C24.8651 41.6481 24.9108 41.6602 24.9531 41.673C24.9863 41.6831 25.0139 41.6925 25.0358 41.7006C25.1379 41.7888 25.2582 41.8568 25.3908 41.8983C25.7093 41.9981 26.0566 41.9324 26.3166 41.7231C26.8154 41.3218 27.2014 41.1518 27.5153 41.0724C27.8401 40.9903 28.1505 40.9875 28.5659 41.0044C28.6179 41.0066 28.671 41.009 28.725 41.0115C29.5311 41.0482 30.566 41.0953 31.8536 40.3446C32.2502 40.2806 32.6202 40.2009 32.9426 40.1227ZM25.0982 41.7266C25.0983 41.7267 25.0992 41.7271 25.0982 41.7266V41.7266ZM7.84074 22.0722C9.3373 22.3949 11.0607 23.4803 11.8341 25.543C11.8782 25.6606 11.899 25.7833 11.8977 25.9049C11.926 25.9542 11.965 26.0196 12.0183 26.106C12.0411 26.1428 12.0656 26.1822 12.0916 26.2239C12.3013 26.5603 12.607 27.051 12.8344 27.6002C13.094 28.2273 13.293 29.0212 13.1287 29.8889C12.9605 30.7781 12.4377 31.6059 11.5109 32.3329C11.3945 32.4241 11.2594 32.4885 11.1151 32.5212C10.2802 32.7108 9.57293 32.8702 8.98312 32.9463C8.38724 33.0233 7.80415 33.0319 7.24024 32.844C6.65905 32.6502 6.21378 32.2873 5.81959 31.8343C5.44754 31.4067 5.07795 30.8472 4.66262 30.185C4.56325 30.0423 4.50012 29.8726 4.4865 29.6893C4.48397 29.6563 4.48309 29.6233 4.48384 29.5904C4.49194 28.0136 4.18228 26.6982 3.94329 25.6831C3.90595 25.5245 3.87034 25.3732 3.83793 25.2294C3.77977 24.9713 3.7247 24.7043 3.6994 24.4645C3.67823 24.2636 3.65251 23.8945 3.81143 23.5423C3.90463 23.3357 4.06332 23.1302 4.30546 22.9874C4.47907 22.8851 4.65551 22.8385 4.81216 22.8214C5.05004 22.5019 5.37222 22.298 5.68457 22.173C6.32466 21.917 7.10571 21.9138 7.84074 22.0722ZM6.48234 29.321C6.83483 29.8762 7.09649 30.2549 7.32841 30.5215C7.57803 30.8084 7.74063 30.9026 7.87269 30.9466C8.02203 30.9964 8.25756 31.0234 8.72699 30.9628C9.15895 30.907 9.69755 30.7912 10.4411 30.6232C10.9357 30.1916 11.1077 29.8123 11.1636 29.5171C11.2294 29.1697 11.1621 28.7895 10.9865 28.3653C10.8263 27.9783 10.6103 27.6302 10.3946 27.2827C10.3685 27.2406 10.3424 27.1985 10.3164 27.1564C10.2119 26.9871 10.0761 26.7646 9.98859 26.5541C9.94472 26.4485 9.88369 26.279 9.86955 26.0772C9.86819 26.0577 9.86725 26.0373 9.86684 26.0162C9.33665 24.845 8.31262 24.22 7.41919 24.0273C6.98379 23.9334 6.65946 23.9598 6.48446 24.0106C6.46973 24.3018 6.32791 24.5761 6.09063 24.7563C6.00585 24.8207 5.91278 24.8702 5.81519 24.9042C5.83686 24.9978 5.86051 25.0976 5.88558 25.2034C6.11275 26.1619 6.45577 27.6094 6.48234 29.321ZM11.8355 25.7868C11.8333 25.7805 11.8334 25.7815 11.8355 25.7868V25.7868Z" fill="#FFEE75"/>
</g>
</g>
</svg>
