<svg width="224" height="284" viewBox="0 0 224 284" fill="none" xmlns="http://www.w3.org/2000/svg">
<g clip-path="url(#clip0_3943_5701)">
<path d="M73.6973 208.507C80.2413 213.016 86.5268 219.788 85.7997 227.691C85.315 232.928 81.6955 237.502 77.2359 240.281C72.7763 243.061 67.541 244.322 62.3543 245.227C56.9252 246.181 51.4152 246.795 45.9053 246.472C35.6772 245.89 24.9321 242.205 15.5765 246.358C14.8009 246.698 14.0092 247.134 13.5245 247.829C13.0236 248.54 12.862 249.494 12.1833 250.043C11.0684 250.932 9.27487 249.995 8.80628 248.653C8.32154 247.312 8.72549 245.841 9.12945 244.467C9.79193 245.987 6.89963 246.908 5.9463 245.55C4.99297 244.193 5.62313 242.318 6.38257 240.863C6.46336 242.415 3.89422 242.884 3.00552 241.607C2.11682 240.33 2.68236 238.504 3.73263 237.356C3.52258 238.342 1.98756 238.536 1.30892 237.776C0.630275 237.017 0.727224 235.821 1.22813 234.932C3.02168 231.764 7.70753 232.508 11.1007 231.215C14.9141 229.76 17.0308 225.639 20.5371 223.57C25.4491 220.677 31.8639 222.487 36.6629 225.574C37.4708 226.091 38.311 226.657 39.2643 226.722C40.4116 226.786 41.4457 226.091 42.399 225.445C52.2231 218.721 62.9198 213.275 74.1497 209.331L73.6811 208.539L73.6973 208.507Z" fill="#F9BE96"/>
<path d="M27.5986 98.3628C4.7995 116.771 -4.63684 150.098 5.10651 177.735C5.36504 178.478 5.67204 179.27 6.30221 179.755C6.90006 180.224 7.67565 180.353 8.43508 180.45C29.99 183.505 51.9974 183.375 73.52 180.046L27.6148 98.3467L27.5986 98.3628Z" fill="#E05F65"/>
<path d="M122.284 126.322C124.223 130.815 125.532 135.567 126.162 140.416C126.76 144.989 126.679 149.951 124.078 153.765C118.455 150.323 116.532 149.434 109.18 145.765C107.451 140.302 101.456 134.646 97.2715 130.735C105.48 127.551 114.351 126.112 123.141 126.549L122.284 126.338V126.322Z" fill="#E05F65"/>
<path d="M108.632 201.153C111.815 204.337 113.56 208.895 113.334 213.388C113.107 217.881 110.894 222.228 107.404 225.073C105.368 226.721 102.96 227.853 100.52 228.822C91.31 232.443 81.2435 233.833 71.4032 232.831C69.3027 223.634 67.2021 214.422 65.1016 205.226C78.7067 206.196 92.4896 204.628 105.545 200.636L108.648 201.169L108.632 201.153Z" fill="#F9BE96"/>
<path d="M128.684 27.1687C125.776 19.3139 119.167 12.9299 111.217 10.2954C103.268 7.66103 94.1544 8.8247 87.1418 13.3662C85.3644 14.5138 83.4092 15.9522 81.3249 15.4835C80.4846 15.2895 79.7414 14.8047 79.0142 14.3521C65.3929 5.89936 46.5849 6.80444 33.8523 16.5502C28.8918 20.3483 24.6099 25.9888 25.03 32.2274C19.1969 30.789 12.8144 33.5203 9.06575 38.2074C5.31707 42.8944 3.97595 49.1976 4.52532 55.1775C5.0747 61.1575 7.35299 66.8465 10.1645 72.1477C4.55764 72.9235 1.0998 79.4206 2.00466 85.0127C2.90951 90.6048 7.02983 95.1463 11.6026 98.4757C14.7373 100.755 18.389 102.678 22.2669 102.581C23.5919 107.446 27.3406 111.567 32.0588 113.329C36.7769 115.107 42.3192 114.46 46.5041 111.68C48.1038 116.157 54.26 116.949 58.7843 115.511C65.4899 113.377 71.4361 106.67 69.8526 99.8172C73.2943 102.338 78.2063 101.207 81.9227 99.1222C89.6624 94.7908 95.1077 86.6128 96.1418 77.8044C104.124 77.9176 112.09 74.7821 117.858 69.2547C123.627 63.7434 127.117 55.921 127.375 47.9369C129.815 48.7935 132.546 46.9834 133.629 44.6237C134.711 42.264 134.534 39.565 134.291 36.979C134.065 34.6032 133.79 32.1789 132.659 30.0778C131.544 27.9768 129.379 26.2636 127.004 26.3444L128.668 27.1687H128.684Z" fill="#7D8ACC"/>
<path d="M128.505 26.3442C129.685 24.7765 131.995 24.7603 133.951 24.9543C143.322 25.9563 152.839 29.0433 159.561 35.6697C166.283 42.2962 169.498 52.9793 165.54 61.5452C172.1 61.6099 176.915 67.7838 179.533 73.8122C182.279 80.1154 183.831 87.0167 183.217 93.8694C182.603 100.722 179.71 107.462 174.621 112.068C177.739 114.832 178.692 119.325 178.725 123.478C178.757 129.798 176.479 136.747 170.888 139.705C168.998 140.707 166.865 141.176 164.845 141.935C161.371 143.245 158.285 145.41 154.94 147.026C151.595 148.643 147.717 149.709 144.162 148.61C140.608 147.511 137.764 143.616 138.927 140.077C136.245 144.408 130.606 146.655 125.678 145.346C120.766 144.036 116.968 139.269 116.807 134.194C110.069 132.933 104.042 128.278 101.133 122.072C100.778 121.313 100.455 120.456 100.697 119.664C100.94 118.872 101.99 118.29 102.636 118.824C95.4619 112.343 91.6971 102.274 92.8928 92.6734C94.0885 83.0731 100.196 74.2163 108.744 69.7071L128.505 26.3765V26.3442Z" fill="#7D8ACC"/>
<path d="M156.427 80.5036C150.368 96.0838 142.903 111.131 134.145 125.386C132.869 127.471 131.527 129.572 129.653 131.156C127.73 132.788 125.371 133.774 122.996 134.63C115.676 137.281 107.888 138.913 100.1 138.445C92.3279 137.992 84.5558 135.341 78.6743 130.218C68.4623 121.345 65.5377 107.009 61.175 94.1928C60.965 93.5787 60.7226 92.9483 60.2055 92.5766C59.5107 92.1079 58.6059 92.2695 57.7657 92.3342C53.4999 92.6898 49.4281 89.7967 47.4245 86.0148C45.4209 82.2329 45.1946 77.7398 45.7117 73.4892C46.051 70.6932 46.6973 67.881 48.1031 65.4405C50.8661 60.6727 56.6023 57.812 62.0637 58.4746C67.5252 59.1535 72.4049 63.3071 73.9399 68.6083C80.6617 58.814 88.0944 49.5209 96.1735 40.8257C96.8683 40.066 97.6277 39.2903 98.6134 39.0155C99.3243 38.8054 100.1 38.8862 100.843 38.967C122.56 41.5691 142.628 55.3715 152.824 74.7337L156.411 80.4712L156.427 80.5036Z" fill="#F9BE96"/>
<path d="M1.72765 177.476C-2.06951 189.888 0.45116 204.062 8.30401 214.406C15.559 223.99 26.6919 229.954 38.1319 233.655C38.8105 233.865 39.5053 234.091 40.2163 233.978C40.9434 233.865 41.5736 233.429 42.1876 233.008C53.5306 225.057 64.8736 217.105 76.2166 209.153C74.5846 207.311 72.5972 205.792 70.3835 204.709C74.1483 206.438 77.897 208.184 81.6619 209.913C82.389 210.252 83.1323 210.592 83.9402 210.656C84.9096 210.737 85.8468 210.414 86.7678 210.107C96.3011 206.81 105.834 203.513 115.352 200.216C109.26 194.042 101.94 189.096 93.9259 185.767C92.6009 185.217 91.2113 184.668 90.2903 183.569C87.9474 180.756 90.0318 176.587 90.0641 172.934C61.2218 169.766 32.315 167.18 3.37578 165.192L1.74381 177.492L1.72765 177.476Z" fill="#B03537"/>
<path d="M35.8546 144.31C35.1922 153.91 38.747 163.446 44.1114 171.446C49.4759 179.446 56.5532 186.121 63.7112 192.554C66.4581 195.027 69.2535 197.499 72.4366 199.358C78.6737 203.011 86.0256 204.142 93.1675 205.209C94.6379 205.435 96.1083 205.645 97.5787 205.467C99.1298 205.273 100.584 204.643 102.006 204.013C113.527 198.938 124.805 193.33 135.809 187.204C126.889 180.594 121.622 161.652 109.18 147.559C98.0957 135.001 79.4977 127.421 76.1207 118.127C73.8101 118.16 67.4115 118.095 65.1008 118.127L35.8546 144.278V144.31Z" fill="#EFA02A"/>
<path d="M98.2402 158.017C106.578 153.282 117.598 154.267 125.434 159.811C133.271 165.338 137.844 174.923 138.054 184.507C138.135 188.386 137.601 192.41 138.91 196.046C140.106 199.327 142.659 201.897 145.341 204.144C149.607 207.715 154.309 210.722 159.237 213.308C161.37 214.423 163.632 215.554 164.973 217.542C166.314 219.53 166.234 222.714 164.165 223.926C162.453 224.928 160.271 224.201 158.445 223.425C148.621 219.255 139.169 214.213 130.217 208.378C128.714 207.392 127.163 206.342 126.21 204.806C125.386 203.481 125.063 201.929 124.643 200.426C122.17 191.473 115.723 183.699 107.402 179.593C105.964 178.882 104.429 178.252 103.282 177.137C100.163 174.114 100.955 169.007 101.973 164.773L98.2402 158.033V158.017Z" fill="#EFA02A"/>
<path d="M222.852 48.8407C223.127 48.8407 223.401 48.8407 223.692 48.8407C223.854 48.8407 223.999 48.6955 223.999 48.5341C223.999 48.3728 223.87 48.2275 223.692 48.2275C223.417 48.2275 223.143 48.2275 222.852 48.2275C222.69 48.2275 222.545 48.3728 222.545 48.5341C222.545 48.6955 222.674 48.8407 222.852 48.8407Z" fill="#F9BE96"/>
<path d="M73.5356 68.5438C78.0275 72.2934 84.9917 70.1439 89.6775 66.6205C94.3472 63.0972 98.306 58.2971 103.864 56.4546C106.143 55.695 108.76 55.5333 110.829 56.7617C112.735 57.893 113.818 59.9779 115.272 61.6588C118.584 65.4892 124.159 67.2024 129.055 65.8609C130.897 65.3599 132.836 64.471 134.613 65.1659C136.116 65.7639 136.956 67.3155 138.12 68.4468C140.559 70.8388 144.761 71.1297 147.524 69.1256C144.761 72.148 144.195 76.9966 146.199 80.5846C146.958 81.9422 148.057 83.2028 148.138 84.7544C148.218 86.3544 147.168 87.7605 146.619 89.2636C145.407 92.5283 146.829 96.5688 149.818 98.3628C154.439 92.6576 158.98 86.2574 159.368 78.9199C159.707 72.6005 156.879 66.5074 153.308 61.2709C141.206 43.4764 120.879 33.0196 100.407 26.3931C96.4155 25.1002 92.1013 23.9203 88.0617 25.1002C85.331 25.8921 83.0042 27.7023 81.0653 29.771C76.1532 34.9913 73.3902 41.8117 70.7402 48.4544C69.4314 51.7514 68.1065 55.0323 66.7977 58.3294C66.6522 58.6849 66.5068 59.0728 66.5876 59.4446C66.733 60.2042 67.6217 60.4951 68.3327 60.7699C71.532 62.0143 73.681 65.5538 73.2932 68.9802L73.5194 68.5761L73.5356 68.5438Z" fill="#7D8ACC"/>
<path d="M127.584 110.838C127.584 112.875 125.936 114.507 123.9 114.507C121.864 114.507 120.232 112.859 120.232 110.822C120.232 108.786 121.881 107.153 123.916 107.153C125.952 107.153 127.584 108.802 127.584 110.838Z" fill="black"/>
<path d="M94.5082 94.2738C94.5082 96.3102 92.8601 97.9426 90.8241 97.9426C88.7882 97.9426 87.1562 96.2941 87.1562 94.2577C87.1562 92.2212 88.8044 90.5889 90.8403 90.5889C92.8762 90.5889 94.5082 92.2374 94.5082 94.2738Z" fill="black"/>
<path d="M103.396 102.904C105.642 103.308 107.888 103.809 110.102 104.391C111.201 104.682 112.299 104.989 113.382 105.312C113.915 105.474 114.448 105.635 114.982 105.813C115.24 105.894 115.515 105.991 115.773 106.072C115.87 106.104 115.983 106.136 116.08 106.185C116.129 106.201 116.161 106.217 116.21 106.233C116.097 106.185 116.129 106.201 116.21 106.233C116.387 106.314 116.565 106.411 116.743 106.524C116.824 106.573 116.904 106.637 116.969 106.686C116.775 106.557 117.05 106.75 117.098 106.799C117.147 106.847 117.244 106.912 117.276 106.993C117.211 106.831 117.211 106.896 117.244 106.961C117.26 106.993 117.292 107.041 117.308 107.074C117.405 107.219 117.276 107.025 117.292 107.025C117.292 107.025 117.325 107.155 117.341 107.171C117.341 107.171 117.341 107.187 117.341 107.203C117.341 107.284 117.341 107.284 117.341 107.203C117.341 107.122 117.341 107.122 117.341 107.203C117.341 107.219 117.341 107.252 117.341 107.268C117.341 107.445 117.341 107.203 117.341 107.219C117.341 107.219 117.292 107.445 117.325 107.332C117.357 107.219 117.308 107.381 117.292 107.397C117.26 107.445 117.228 107.494 117.211 107.526C117.147 107.639 117.308 107.445 117.211 107.526C117.179 107.559 117.147 107.607 117.098 107.656C117.001 107.753 116.904 107.849 116.807 107.946C116.436 108.302 116.048 108.641 115.66 108.981C115.289 109.304 114.901 109.627 114.513 109.934C114.416 110.015 114.335 110.08 114.238 110.161C114.19 110.193 114.141 110.241 114.093 110.274C114.093 110.274 113.883 110.435 113.98 110.371C114.061 110.306 113.915 110.419 113.899 110.435C113.851 110.468 113.802 110.5 113.754 110.549C113.64 110.629 113.511 110.726 113.398 110.807C112.59 111.405 111.75 111.971 110.877 112.52C109.908 113.118 108.906 113.684 107.888 114.201C107.387 114.46 106.886 114.686 106.385 114.928C106.111 115.042 105.852 115.171 105.578 115.284C105.61 115.284 105.723 115.219 105.561 115.284C105.481 115.316 105.4 115.349 105.319 115.381C105.19 115.43 105.044 115.494 104.915 115.543C104.463 115.72 104.107 116.173 104.269 116.674C104.414 117.11 104.915 117.498 105.4 117.32C109.504 115.688 113.301 113.425 116.662 110.549C117.082 110.193 117.486 109.837 117.874 109.466C118.262 109.094 118.698 108.722 118.94 108.221C119.441 107.171 119.07 106.056 118.181 105.344C117.325 104.666 116.307 104.342 115.289 104.019C114.141 103.647 112.994 103.308 111.831 102.985C109.213 102.257 106.563 101.659 103.897 101.158C103.429 101.078 102.879 101.288 102.766 101.805C102.669 102.257 102.895 102.839 103.412 102.936L103.396 102.904Z" fill="#996441"/>
<path d="M104.752 122.137C100.825 121.426 97.2541 118.921 95.2344 115.479L95.7838 119.163C96.4139 123.463 101.681 125.208 104.752 122.137Z" fill="white"/>
<path d="M104.994 121.248C104.235 121.102 103.508 120.908 102.781 120.65C102.603 120.585 102.441 120.52 102.28 120.456C102.183 120.423 102.312 120.456 102.312 120.472C102.264 120.456 102.215 120.423 102.167 120.407C102.07 120.359 101.973 120.326 101.876 120.278C101.52 120.116 101.181 119.939 100.842 119.745C100.518 119.551 100.195 119.357 99.8883 119.147C99.7429 119.05 99.5975 118.936 99.452 118.839C99.3712 118.791 99.3066 118.726 99.242 118.678C99.3874 118.791 99.1612 118.613 99.1289 118.581C98.531 118.096 97.9817 117.579 97.4646 116.997C97.3192 116.835 97.1737 116.658 97.0445 116.496C97.0122 116.448 96.8344 116.221 96.9475 116.383C96.8829 116.302 96.8183 116.221 96.7698 116.14C96.5113 115.785 96.2689 115.413 96.0427 115.041C95.8165 114.654 95.3156 114.492 94.8955 114.67C94.443 114.864 94.2976 115.3 94.3622 115.753C94.4753 116.48 94.5723 117.223 94.6854 117.951C94.7985 118.743 94.8631 119.583 95.1217 120.343C95.9619 122.945 98.5149 124.739 101.262 124.642C102.829 124.577 104.316 123.931 105.431 122.815C105.77 122.476 105.802 121.846 105.431 121.522C105.059 121.183 104.493 121.167 104.138 121.522C104.041 121.619 103.96 121.7 103.863 121.781C103.815 121.829 103.734 121.926 103.669 121.943C103.669 121.943 103.815 121.846 103.734 121.894C103.685 121.926 103.653 121.959 103.605 121.991C103.362 122.153 103.12 122.314 102.845 122.427C102.813 122.444 102.781 122.46 102.732 122.476C102.651 122.524 102.813 122.444 102.813 122.444C102.781 122.444 102.635 122.508 102.587 122.524C102.457 122.573 102.312 122.621 102.167 122.654C102.037 122.686 101.908 122.718 101.779 122.751C101.714 122.751 101.633 122.751 101.585 122.783C101.585 122.783 101.811 122.751 101.666 122.783C101.633 122.783 101.585 122.783 101.553 122.783C101.278 122.815 100.987 122.815 100.712 122.783C100.648 122.783 100.583 122.783 100.518 122.767C100.308 122.751 100.68 122.799 100.518 122.767C100.373 122.751 100.244 122.718 100.098 122.686C99.8237 122.621 99.5651 122.524 99.2905 122.427C99.1935 122.395 99.3874 122.46 99.3874 122.46C99.3712 122.444 99.3066 122.427 99.2905 122.411C99.2258 122.379 99.1774 122.363 99.1127 122.331C98.9835 122.266 98.8703 122.201 98.7411 122.12C98.628 122.04 98.4987 121.975 98.3856 121.878C98.2079 121.765 98.4826 121.975 98.3694 121.878C98.3048 121.829 98.2563 121.781 98.1917 121.733C97.9817 121.539 97.7716 121.345 97.5939 121.118C97.5777 121.102 97.5615 121.07 97.5454 121.054C97.4646 120.957 97.6423 121.199 97.5777 121.102C97.5454 121.054 97.4969 120.989 97.4646 120.941C97.3838 120.811 97.303 120.698 97.2384 120.569C97.1737 120.44 97.1091 120.326 97.0445 120.197C96.9475 119.987 97.093 120.326 97.0445 120.165C97.0122 120.084 96.9798 120.019 96.9637 119.939C96.7213 119.211 96.6405 118.435 96.5436 117.676C96.4305 116.868 96.3012 116.06 96.1881 115.268C95.6226 115.51 95.0732 115.736 94.5077 115.979C96.2043 118.856 98.8703 121.07 101.957 122.298C102.797 122.638 103.669 122.88 104.558 123.058C105.027 123.139 105.576 122.928 105.689 122.411C105.786 121.959 105.56 121.377 105.043 121.28L104.994 121.248Z" fill="#996441"/>
<path d="M55.3898 67.0399C56.2624 67.7349 57.0864 68.5107 57.8459 69.3511C58.0236 69.545 58.2013 69.7551 58.3791 69.9491C58.4599 70.046 58.5568 70.1592 58.6376 70.2562C58.6861 70.3208 58.7346 70.3855 58.783 70.4501C58.9123 70.5956 58.7022 70.3531 58.8315 70.5148C59.1708 70.9673 59.494 71.4198 59.801 71.8885C60.415 72.8259 60.9482 73.828 61.4006 74.8462C61.4168 74.8947 61.4491 74.9432 61.4653 74.9916C61.5784 75.2341 61.4006 74.8139 61.4976 75.0725C61.5461 75.2018 61.5945 75.3149 61.643 75.4442C61.7561 75.7189 61.8531 75.9937 61.95 76.2684C62.1278 76.8018 62.2893 77.3351 62.4348 77.8847C62.5963 78.4827 62.7094 79.0807 62.8226 79.6786C62.8549 79.8403 62.871 80.0019 62.9033 80.1473C62.9357 80.4059 62.9033 80.0181 62.9033 80.1797C62.9033 80.2766 62.9195 80.3575 62.9357 80.4544C62.968 80.7777 63.0003 81.0847 63.0164 81.408C63.0488 81.8929 63.4204 82.3454 63.9375 82.3292C64.406 82.3131 64.8908 81.9252 64.8585 81.408C64.5353 76.6402 62.6287 72.0663 59.5263 68.446C58.6699 67.444 57.7327 66.5389 56.7148 65.7146C56.3431 65.4075 55.7776 65.3267 55.4221 65.7146C55.1151 66.054 55.0182 66.7005 55.4221 67.0076L55.3898 67.0399Z" fill="#996441"/>
<path d="M53.5152 73.9735C53.9191 73.9735 54.3392 73.9896 54.7432 74.0381C54.8563 74.0381 54.9533 74.0543 55.0664 74.0704C54.9048 74.0543 55.0664 74.0704 55.1472 74.0704C55.3411 74.1028 55.5188 74.1351 55.7127 74.1674C56.1166 74.2482 56.5044 74.3452 56.9084 74.4745C57.0861 74.5391 57.2639 74.5876 57.4578 74.6523C57.5547 74.6846 57.6678 74.7331 57.7648 74.7654C57.8132 74.7816 57.8617 74.7977 57.9102 74.8301C57.8294 74.7977 57.8132 74.7977 57.8779 74.8301C58.605 75.1533 59.2998 75.525 59.9623 75.9776C60.1239 76.0907 60.3016 76.22 60.4632 76.3331C60.3177 76.22 60.5116 76.3655 60.5278 76.3978C60.6086 76.4624 60.6894 76.5432 60.7863 76.6079C61.0933 76.8665 61.4003 77.1574 61.675 77.4483C62.0144 77.8039 62.6445 77.8039 62.9677 77.4483C63.307 77.0766 63.3232 76.5271 62.9677 76.1553C60.5278 73.6017 57.0538 72.1148 53.5152 72.131C53.0304 72.131 52.578 72.5512 52.5942 73.0522C52.6103 73.5533 52.9981 73.9735 53.5152 73.9735Z" fill="#996441"/>
<path d="M132.722 95.614C131.93 96.6161 132.415 98.0868 133.013 99.202C134.419 101.901 136.277 104.358 138.491 106.459C138.765 102.499 137.279 98.4424 134.516 95.5979C133.869 94.9352 132.399 94.612 132.351 95.5332L132.738 95.5979L132.722 95.614Z" fill="#152151"/>
<path d="M108.647 80.4215C107.936 81.4882 106.401 81.4882 105.141 81.2781C102.136 80.7771 99.2272 79.7912 96.5449 78.3528C100.213 76.8497 104.527 76.9952 108.098 78.7407C108.922 79.1447 109.698 80.4539 108.841 80.7771L108.647 80.4377V80.4215Z" fill="#152151"/>
<path d="M145.714 69.3675C150.949 68.4139 155.974 66.329 160.337 63.2906C161.581 62.434 162.777 61.4966 163.908 60.4784C164.199 60.2198 163.763 59.7834 163.472 60.042C159.561 63.5168 154.892 66.1512 149.883 67.7028C148.461 68.1392 147.023 68.4947 145.552 68.7695C145.165 68.8341 145.326 69.4321 145.714 69.3675Z" fill="#152151"/>
<path d="M153.841 59.9772C155.279 61.6419 155.99 63.8399 155.828 66.038C155.796 66.4259 156.41 66.4259 156.442 66.038C156.62 63.6945 155.812 61.3348 154.277 59.557C154.019 59.2661 153.582 59.6863 153.841 59.9933V59.9772Z" fill="#152151"/>
<path d="M157.428 60.0093C158.333 61.2538 158.543 62.8862 157.977 64.3084C157.832 64.6801 158.43 64.8418 158.575 64.47C159.189 62.9023 158.947 61.0437 157.961 59.6861C157.735 59.3628 157.202 59.6861 157.428 59.9931V60.0093Z" fill="#152151"/>
<path d="M152.21 68.3655C153.567 69.2705 154.359 70.9837 154.132 72.6161C154.116 72.7777 154.165 72.9393 154.342 72.9878C154.488 73.0363 154.698 72.9393 154.714 72.7777C154.973 70.8544 154.116 68.915 152.517 67.8321C152.193 67.6059 151.886 68.1392 152.21 68.3655Z" fill="#152151"/>
<path d="M154.357 66.5708C156.135 67.395 157.573 68.8819 158.284 70.7244C158.429 71.0961 159.011 70.9345 158.881 70.5628C158.122 68.591 156.603 66.9425 154.664 66.0536C154.309 65.892 154.002 66.4253 154.357 66.5869V66.5708Z" fill="#152151"/>
<path d="M146.231 62.6439C145.811 60.559 144.195 59.056 142.321 58.1994C140.188 57.2296 137.909 57.0357 135.599 57.1488C132.674 57.2943 129.653 57.8115 126.776 57.0195C124.821 56.4862 123.125 55.3064 121.638 53.9487C118.73 51.2982 116.468 47.8395 113.058 45.7707C111.297 44.7202 109.277 44.1868 107.241 44.4454C104.624 44.7687 102.297 46.1263 100.148 47.5486C98.0311 48.9547 96.0113 50.4901 93.6038 51.3951C91.4871 52.2032 88.9503 52.6719 86.8012 51.7022C86.2842 51.4759 85.8156 51.1689 85.3955 50.7971C85.1046 50.5385 84.6684 50.9749 84.9592 51.2335C88.7564 54.5791 94.3471 52.1871 97.9503 49.7789C100.132 48.3243 102.281 46.692 104.753 45.7222C106.902 44.8818 109.196 44.7364 111.345 45.5929C113.107 46.2879 114.593 47.5486 115.934 48.8738C117.356 50.2799 118.665 51.8153 120.071 53.2538C121.444 54.6437 122.931 55.969 124.676 56.8579C127.1 58.0701 129.782 58.1509 132.432 57.9893C135.001 57.8276 137.602 57.4721 140.139 58.0862C142.094 58.5711 144.146 59.5731 145.164 61.4156C145.407 61.852 145.568 62.3207 145.665 62.8217C145.746 63.2096 146.328 63.048 146.263 62.6601L146.231 62.6439Z" fill="#152151"/>
<path d="M146.037 57.6503C146.101 56.0826 145.391 54.628 144.308 53.5128C143.128 52.3006 141.593 51.5733 139.961 51.2016C136.326 50.3612 132.48 51.1531 128.909 49.9895C128.085 49.7147 127.293 49.3268 126.582 48.8096C125.904 48.3086 125.306 47.6944 124.773 47.0318C123.706 45.7227 122.866 44.2519 121.832 42.9266C119.861 40.3892 117.211 38.3689 114.27 37.0436C111.329 35.7183 108.081 35.0719 104.85 35.2496C104.446 35.2658 104.042 35.3143 103.654 35.3628C103.266 35.4113 103.266 36.0254 103.654 35.9769C106.805 35.5891 110.004 36.0254 112.961 37.1568C115.918 38.2881 118.617 40.1306 120.701 42.5064C122.85 44.9631 124.175 48.2601 127.148 49.8763C130.38 51.6218 134.193 51.1208 137.715 51.444C139.461 51.6057 141.238 51.9774 142.724 52.9633C143.969 53.7875 145.019 55.032 145.326 56.5189C145.407 56.8745 145.423 57.2301 145.407 57.6018C145.391 57.9897 146.005 57.9897 146.021 57.6018L146.037 57.6503Z" fill="#152151"/>
<path d="M151.256 56.1302C153.292 52.1867 151.66 46.8694 147.831 44.6552C146.57 43.9279 145.132 43.6208 143.71 43.3299C142.288 43.0228 140.899 42.6511 139.541 42.1824C136.891 41.245 134.387 39.9358 132.093 38.3035C130.8 37.3822 129.572 36.3802 128.441 35.2488C127.52 34.3438 126.324 32.776 127.116 31.4507C127.326 31.1113 126.793 30.8043 126.583 31.1437C125.872 32.3235 126.405 33.6811 127.148 34.6993C127.972 35.8145 129.087 36.7357 130.154 37.5923C132.335 39.354 134.759 40.8247 137.328 41.9399C138.62 42.5056 139.962 42.9905 141.319 43.3622C142.789 43.7662 144.292 43.9925 145.746 44.4289C146.893 44.7683 147.927 45.3178 148.8 46.1259C149.592 46.8694 150.238 47.7744 150.691 48.7603C151.708 50.9584 151.822 53.6251 150.691 55.807C150.513 56.1626 151.046 56.4696 151.224 56.1141L151.256 56.1302Z" fill="#152151"/>
<path d="M144.033 36.9953C146.764 37.1246 149.462 38.1428 151.595 39.8399C153.793 41.5854 155.344 44.0258 156.039 46.7411C156.442 48.2765 156.556 49.8765 156.378 51.4442C156.329 51.8321 156.943 51.8321 156.992 51.4442C157.299 48.5351 156.636 45.5451 155.15 43.0238C153.679 40.5187 151.385 38.5792 148.719 37.4479C147.232 36.8175 145.649 36.462 144.033 36.3812C143.645 36.365 143.645 36.9792 144.033 36.9953Z" fill="#152151"/>
<path d="M154.375 78.0305C153.631 80.2771 153.389 82.6852 153.68 85.0449C153.954 87.453 154.779 89.6834 155.99 91.7845C157.138 93.7886 158.398 95.6957 159.093 97.9261C159.674 99.8332 159.917 101.821 159.836 103.809C159.674 107.866 158.269 111.825 156.071 115.219C154.94 116.949 153.599 118.533 152.08 119.939C150.287 121.571 148.299 123.026 146.796 124.949C145.439 126.678 144.421 128.893 144.712 131.139C144.954 133.014 146.231 134.824 148.057 135.471C148.509 135.632 148.978 135.697 149.446 135.681C149.834 135.681 149.834 135.067 149.446 135.067C147.491 135.115 145.924 133.483 145.439 131.689C144.841 129.539 145.811 127.26 147.087 125.547C148.509 123.624 150.48 122.201 152.242 120.618C153.761 119.26 155.118 117.725 156.265 116.044C158.511 112.763 159.998 108.916 160.369 104.94C160.547 103.017 160.45 101.062 160.046 99.1705C159.594 97.0533 158.689 95.1462 157.59 93.2875C156.96 92.237 156.314 91.2026 155.78 90.1036C155.263 89.0531 154.875 87.9541 154.601 86.8227C154.068 84.5439 154.035 82.1519 154.52 79.873C154.633 79.3073 154.795 78.7578 154.972 78.2083C155.102 77.8366 154.504 77.675 154.375 78.0467V78.0305Z" fill="#152151"/>
<path d="M163.229 79.7429C165.201 82.0056 166.606 84.7208 167.414 87.5977C168.222 90.4745 168.448 93.513 168.044 96.4706C167.641 99.4606 166.606 102.337 164.958 104.875C164.021 106.33 162.938 107.703 162.05 109.206C161.161 110.726 160.547 112.358 160.353 114.12C159.949 117.821 161.226 121.49 162.599 124.867C162.777 125.304 162.955 125.724 163.132 126.16C163.197 126.322 163.342 126.419 163.504 126.37C163.649 126.338 163.779 126.144 163.714 125.999C162.292 122.589 160.806 118.968 160.886 115.202C160.919 113.392 161.403 111.663 162.26 110.079C163.084 108.528 164.167 107.138 165.152 105.683C166.865 103.129 168.044 100.285 168.545 97.2464C169.03 94.2726 168.917 91.2018 168.222 88.2603C167.527 85.335 166.219 82.5389 164.377 80.1631C164.15 79.8722 163.908 79.5813 163.666 79.2904C163.407 78.9994 162.971 79.4197 163.229 79.7267V79.7429Z" fill="#152151"/>
<path d="M166.833 71.2746C169.644 73.2464 171.874 75.9778 173.296 79.0971C174.815 82.4265 175.299 86.1922 174.734 89.7964C174.411 91.8975 173.732 93.9339 172.746 95.8087C172.569 96.1642 173.086 96.4713 173.28 96.1158C175.106 92.6571 175.881 88.665 175.461 84.77C175.073 81.1658 173.684 77.7395 171.47 74.8788C170.242 73.2949 168.788 71.8888 167.14 70.7413C166.816 70.515 166.509 71.0484 166.833 71.2746Z" fill="#152151"/>
<path d="M171.697 67.978C173.458 70.2084 174.847 72.7458 175.817 75.4126C176.786 78.0632 177.352 80.8754 177.465 83.7037C177.53 85.3038 177.465 86.92 177.239 88.52C177.223 88.6817 177.271 88.8433 177.449 88.8918C177.594 88.9402 177.804 88.8433 177.82 88.6817C178.224 85.7725 178.16 82.831 177.659 79.9541C177.142 77.0773 176.189 74.2812 174.815 71.6953C174.039 70.2407 173.135 68.8508 172.117 67.5578C171.874 67.2507 171.438 67.6871 171.68 67.9942L171.697 67.978Z" fill="#152151"/>
<path d="M72.2424 47.4843C68.1705 49.8924 63.5493 51.0238 58.9119 51.7349C54.1776 52.4622 49.3786 52.7854 44.6605 53.642C42.5276 54.0299 40.3462 54.4501 38.3588 55.3552C36.6622 56.131 34.9818 57.3916 34.4809 59.2664C33.9315 61.3513 35.0787 63.3069 35.7412 65.2141C36.0805 66.1838 36.3067 67.2182 36.0482 68.2364C35.7897 69.2869 35.0625 70.1273 34.2385 70.79C32.4772 72.2122 30.2151 72.8102 28.47 74.2648C27.6783 74.9275 27.0643 75.7517 26.7573 76.7538C26.4826 77.6427 26.4664 78.6286 26.8381 79.4852C27.0158 79.8892 27.2905 80.261 27.6298 80.5357C27.9368 80.7781 28.3731 80.3579 28.0661 80.0993C26.5634 78.871 27.1289 76.4952 28.3085 75.2507C29.8758 73.586 32.1702 72.9719 34.0123 71.7112C34.8686 71.1132 35.6766 70.3859 36.1936 69.4647C36.7107 68.5596 36.8561 67.5414 36.6945 66.507C36.3875 64.4706 35.0302 62.7089 34.9333 60.6402C34.8363 58.6684 36.1775 57.2138 37.7933 56.3088C39.6353 55.2744 41.752 54.8218 43.7879 54.4016C48.4092 53.4804 53.1112 53.141 57.7647 52.4783C62.3213 51.848 66.894 50.8945 71.0305 48.7934C71.5314 48.5348 72.0323 48.26 72.5171 47.9853C72.8564 47.7913 72.5494 47.258 72.2101 47.4519L72.2424 47.4843Z" fill="#152151"/>
<path d="M39.7971 70.8373C38.7306 73.8434 35.7252 75.5081 33.4631 77.4961C32.3159 78.5143 31.2494 79.6779 30.6516 81.1164C30.1668 82.2639 30.0861 83.5892 30.4254 84.7852C30.797 86.0781 31.6696 87.2095 32.9945 87.6135C33.3662 87.7267 33.5277 87.1448 33.1561 87.0155C30.8455 86.3044 30.3769 83.2174 31.2494 81.2618C32.4775 78.4658 35.3213 76.9142 37.5026 74.9748C38.7468 73.8596 39.8456 72.5828 40.3949 70.9827C40.5242 70.611 39.9425 70.4494 39.7971 70.8211V70.8373Z" fill="#152151"/>
<path d="M25.2393 64.3735C21.7491 65.8281 18.8891 68.6242 17.2895 72.0505C15.6252 75.6385 15.5121 79.7598 16.8694 83.4609C17.645 85.5459 18.8407 87.4691 20.4403 89.0369C20.715 89.3116 21.1513 88.8752 20.8766 88.6005C18.162 85.9337 16.6108 82.1841 16.5462 78.3861C16.4977 74.7011 17.952 71.1131 20.4565 68.4302C21.8461 66.9433 23.5265 65.7312 25.4008 64.9554C25.5624 64.8907 25.6594 64.7453 25.6109 64.5836C25.5786 64.4382 25.3847 64.3089 25.2393 64.3735Z" fill="#152151"/>
<path d="M23.0094 77.3992C21.5713 80.7286 22.2338 84.7044 24.4636 87.5166C25.0938 88.3086 25.8532 88.9874 26.7096 89.5369C27.0489 89.747 27.3559 89.2136 27.0166 89.0035C24.1889 87.2095 22.6377 83.7509 22.8639 80.4376C22.9286 79.5002 23.1548 78.5628 23.5264 77.7062C23.688 77.3507 23.1548 77.0436 22.9932 77.3992H23.0094Z" fill="#152151"/>
<path d="M17.5641 62.6109C16.3684 57.1643 18.1458 51.2813 21.8945 47.2085C25.7401 43.0063 31.5247 40.8568 37.1639 41.0022C40.4117 41.0831 43.5302 42.0366 46.7133 42.5861C48.2968 42.8609 49.9288 43.0548 51.5446 42.974C52.9504 42.9094 54.3238 42.6185 55.6488 42.1498C60.7547 40.3396 64.8589 36.2668 70.2396 35.1516C75.2163 34.1172 80.6777 36.2506 83.7801 40.2426C84.1517 40.7275 84.491 41.2447 84.798 41.778C84.9919 42.1174 85.5251 41.8103 85.3312 41.4709C82.7621 36.9456 77.5753 34.1334 72.4047 34.2788C66.7171 34.4404 62.3059 38.4163 57.3939 40.7598C56.1497 41.3416 54.8732 41.8265 53.5159 42.1013C51.9324 42.4245 50.3004 42.4245 48.7008 42.2467C45.3237 41.875 42.076 40.8083 38.6828 40.4689C32.9628 39.9032 26.9681 41.6972 22.6539 45.56C18.4689 49.3257 16.0937 55.0956 16.6269 60.7038C16.6916 61.3988 16.8047 62.0776 16.9501 62.7564C17.0309 63.1443 17.6287 62.9827 17.5479 62.5948L17.5641 62.6109Z" fill="#152151"/>
<path d="M96.1888 29.4151C92.1977 32.1465 86.9302 31.5324 82.6968 29.7545C77.8332 27.7181 73.7613 24.2271 69.0431 21.8998C64.6804 19.7341 59.2836 18.4896 54.6947 20.7199C50.9299 22.5463 48.5546 26.1827 45.3877 28.7848C43.6587 30.2071 41.6551 31.2091 39.4092 31.4031C36.6623 31.6455 33.9477 30.8859 31.3947 30.0131C30.7484 29.7869 30.1182 29.5606 29.4719 29.3182C29.1003 29.1889 28.9387 29.7707 29.3103 29.9162C31.8795 30.8697 34.5132 31.8071 37.2601 32.0172C39.6838 32.2112 42.0752 31.7263 44.1435 30.4334C47.6983 28.2353 49.9766 24.518 53.4182 22.1745C55.4057 20.8169 57.7001 20.1543 60.1077 20.1543C62.6768 20.1543 65.246 20.8654 67.5889 21.8998C72.4687 24.0332 76.5728 27.5727 81.3879 29.8354C85.5567 31.8071 90.6789 32.8092 95.0254 30.7889C95.5425 30.5465 96.0434 30.2556 96.5119 29.9323C96.8351 29.7061 96.5281 29.1727 96.2049 29.399L96.1888 29.4151Z" fill="#152151"/>
<path d="M81.9069 19.3946C83.0703 19.0228 84.2014 19.4592 85.187 20.0895C86.2373 20.7683 87.126 21.6573 88.1116 22.4492C90.0345 23.9846 92.4097 25.3099 94.9465 24.9382C97.1763 24.6149 98.9376 23.031 100.925 22.0936C101.911 21.6249 102.993 21.3663 104.076 21.4956C105.142 21.6249 106.144 22.0936 107.033 22.7078C109.327 24.2917 110.943 26.716 112.624 28.8817C112.72 29.011 112.882 29.0757 113.044 28.9948C113.173 28.914 113.254 28.7039 113.157 28.5746C111.606 26.5544 110.119 24.4048 108.148 22.7724C107.275 22.0613 106.322 21.4471 105.239 21.1077C104.173 20.7683 103.026 20.7522 101.943 21.0431C99.7293 21.6411 98.0327 23.3381 95.8837 24.0654C94.7042 24.4695 93.4923 24.4695 92.3128 24.1139C91.0686 23.7422 89.9375 23.0634 88.9034 22.2876C86.8998 20.7683 84.6215 17.8915 81.7615 18.7966C81.3899 18.9097 81.5514 19.5077 81.9231 19.3946H81.9069Z" fill="#152151"/>
<path d="M177.335 72.357C181.084 76.543 183.249 82.0219 183.621 87.5978C183.815 90.3615 183.572 93.1737 182.861 95.8566C182.506 97.2143 182.037 98.5234 181.456 99.8002C180.777 101.255 180.001 102.677 179.371 104.164C178.773 105.554 178.272 107.025 178.224 108.544C178.159 110.047 178.596 111.485 179.452 112.73C180.308 113.974 181.456 115.009 182.409 116.189C183.395 117.401 184.251 118.726 184.897 120.164C186.125 122.944 186.287 126.064 184.946 128.827C183.685 131.413 181.456 133.45 179.064 135.001C173.748 138.46 167.269 140.108 160.951 139.704C160.175 139.656 159.4 139.575 158.624 139.462C158.236 139.413 158.075 139.995 158.463 140.06C164.861 140.981 171.518 139.834 177.222 136.795C179.856 135.405 182.344 133.595 184.17 131.219C185.98 128.86 186.852 125.983 186.384 123.025C185.899 119.906 184.122 117.126 182.037 114.831C180.987 113.683 179.807 112.536 179.226 111.049C178.66 109.562 178.757 107.978 179.193 106.475C180.05 103.42 181.908 100.77 182.926 97.7799C183.847 95.1132 184.299 92.2687 184.299 89.4403C184.299 83.7836 182.522 78.0945 179.113 73.5691C178.693 73.0035 178.24 72.4701 177.772 71.9368C177.513 71.6458 177.077 72.0822 177.335 72.3731V72.357Z" fill="#7D8ACC"/>
<path d="M135.131 26.2299C132.836 26.6824 130.558 25.7612 128.797 24.3227C126.906 22.7873 125.63 20.6863 124.499 18.569C123.432 16.5649 122.463 14.5124 121.154 12.6537C120.087 11.1183 118.876 9.71222 117.534 8.41925C112.089 3.23123 104.64 0.225079 97.1428 -0.00118983C93.3941 -0.114324 89.6132 0.483672 86.123 1.87361C81.7441 3.60295 77.543 6.62526 72.6148 6.22121C67.8805 5.83332 63.8571 2.87566 59.4136 1.48572C54.8732 0.0634586 49.9773 0.0472964 45.3561 1.03318C36.0167 3.02112 28.2123 9.01725 21.8137 15.8538C21.0058 16.7104 20.214 17.5993 19.4384 18.4882C19.1799 18.7791 19.6162 19.2155 19.8747 18.9246C26.1118 11.7648 33.5445 5.13835 42.8031 2.32615C47.4243 0.920049 52.401 0.483673 57.1515 1.51805C61.7889 2.52009 65.7315 5.31613 70.3042 6.44748C72.4855 6.98083 74.6831 6.99699 76.8644 6.44748C79.1427 5.86564 81.2432 4.79895 83.36 3.7969C85.2828 2.87566 87.2379 2.03523 89.3062 1.50188C91.1482 1.01702 93.0548 0.742266 94.9615 0.645293C102.588 0.289728 110.36 2.95647 116.129 7.96671C117.551 9.19503 118.859 10.5688 120.007 12.0719C121.315 13.8012 122.333 15.6922 123.335 17.6155C125.323 21.4459 127.795 25.7612 132.351 26.7794C133.337 27.0056 134.323 27.0056 135.324 26.8117C135.712 26.7309 135.551 26.149 135.163 26.2137L135.131 26.2299Z" fill="#7D8ACC"/>
<path opacity="0.14" d="M92.6668 107.137C92.6668 111.194 89.3705 114.491 85.3148 114.491C81.2591 114.491 77.9629 111.194 77.9629 107.137C77.9629 103.08 81.2591 99.7832 85.3148 99.7832C89.3705 99.7832 92.6668 103.08 92.6668 107.137Z" fill="#E05F65"/>
<path opacity="0.14" d="M129.411 123.704C129.411 127.761 126.115 131.058 122.059 131.058C118.003 131.058 114.707 127.761 114.707 123.704C114.707 119.648 118.003 116.351 122.059 116.351C126.115 116.351 129.411 119.648 129.411 123.704Z" fill="#E05F65"/>
<path d="M19.9861 131.316C19.3559 132.577 18.5157 133.708 17.5139 134.678C17.223 134.953 17.6593 135.389 17.9502 135.114C19.0004 134.096 19.873 132.916 20.5193 131.623C20.697 131.268 20.1638 130.961 19.9861 131.316Z" fill="#EFA02A"/>
<path d="M23.6881 130.977C23.058 132.124 22.4278 133.272 21.7976 134.403C21.6037 134.743 22.137 135.066 22.3309 134.71C22.961 133.563 23.5912 132.415 24.2214 131.284C24.4152 130.945 23.882 130.621 23.6881 130.977Z" fill="#EFA02A"/>
<path d="M20.8432 147.544C20.4231 127.939 20.3423 108.335 20.5847 88.7302C24.8181 91.3161 29.0677 93.9021 33.3012 96.488C34.0283 96.9244 34.7877 97.3931 35.6279 97.5224C36.6136 97.684 37.6154 97.4092 38.5849 97.1345L56.8435 91.898C58.0715 91.5424 59.3319 91.1868 60.3983 90.4757C61.6263 89.6676 62.515 88.4716 63.3876 87.2918C65.7628 84.0755 68.1219 80.8754 70.4971 77.6592C83.2459 92.9647 84.4416 114.735 93.7164 132.352C94.2657 133.386 94.8474 134.598 94.3627 135.665C94.1203 136.214 93.6356 136.602 93.167 136.974C73.9388 152.069 47.4233 157.403 23.8487 150.922L20.8432 147.528V147.544Z" fill="#EFA02A"/>
<path d="M29.4239 118.161C29.537 117.321 29.9248 116.432 30.4903 115.705C31.0397 114.993 31.783 114.412 32.6232 114.024C33.4311 113.652 34.3521 113.523 35.2731 113.636C36.1457 113.749 37.0505 114.121 37.81 114.67C38.6017 115.236 39.2965 116.109 39.6358 117.014C39.7489 117.321 40.0559 117.531 40.3953 117.434C40.6861 117.353 40.9446 116.997 40.8154 116.674C40.0075 114.541 38.0685 112.908 35.8225 112.488C33.5604 112.068 31.2336 112.925 29.747 114.686C28.8907 115.688 28.3575 116.868 28.1959 118.161C28.1474 118.484 28.5029 118.775 28.8099 118.775C29.1815 118.775 29.3754 118.484 29.4239 118.161Z" fill="black"/>
<path d="M61.6915 112.261C61.8046 111.42 62.1924 110.531 62.7579 109.804C63.3073 109.093 64.0506 108.511 64.8908 108.123C65.6987 107.752 66.6197 107.622 67.5407 107.735C68.4132 107.849 69.3181 108.22 70.0775 108.77C70.8693 109.335 71.5641 110.208 71.9034 111.113C72.0165 111.42 72.3235 111.63 72.6628 111.533C72.9537 111.453 73.2122 111.097 73.0829 110.774C72.275 108.64 70.3361 107.008 68.0901 106.588C65.8279 106.168 63.5012 107.024 62.0146 108.786C61.1583 109.788 60.625 110.968 60.4635 112.261C60.415 112.584 60.7705 112.875 61.0775 112.875C61.4491 112.875 61.643 112.584 61.6915 112.261Z" fill="black"/>
<path d="M72.2269 180.32C88.0457 189.614 105.69 200.119 123.868 202.737C125.371 193.153 119.069 176.894 110.813 171.803C102.556 166.712 92.974 163.981 84.9757 158.485C70.8373 148.74 63.7278 131.866 57.2807 115.947C56.4243 113.813 55.4871 111.599 53.3542 110.436C52.3524 109.886 51.1567 109.757 50.1065 110.193C48.1675 111.001 47.812 113.167 47.602 115.074L47.2626 118.129C45.259 136.214 49.9772 154.477 60.7547 169.136C64.1802 173.807 68.0581 177.88 72.2269 180.337V180.32Z" fill="white"/>
<path d="M61.9989 149.03C68.8176 149.595 68.8015 150.032 75.3778 148.076C77.0098 147.591 79.078 147.171 80.1122 148.512C80.8877 149.514 80.5484 151.05 79.6759 151.987C78.8195 152.925 77.5753 153.393 76.3958 153.846C79.2073 152.618 89.5646 151.68 92.1984 153.248C92.5862 153.474 92.9902 153.797 93.0548 154.234C93.1194 154.67 92.8286 155.074 92.5377 155.414C91.3582 156.82 89.9686 158.048 88.4174 159.05C90.4372 159.05 92.2631 160.957 92.1499 162.977C92.0368 164.998 90.0171 166.695 88.0135 166.469C89.4677 166.84 90.3887 168.618 89.8393 170.024C89.29 171.43 87.4156 172.125 86.0906 171.414C87.044 171.915 86.8016 173.499 85.8968 174.097C84.9919 174.695 83.8124 174.598 82.7459 174.469C71.7099 173.127 60.8678 170.25 50.6074 165.967C53.2897 160.392 55.9719 154.832 58.6542 149.256L61.9827 149.03H61.9989Z" fill="#F9BE96"/>
<path d="M17.3217 121.814C0.824244 108.431 30.1189 134.161 39.3775 141.256C45.8246 146.202 54.0168 149.612 62.0474 148.271C60.9001 154.606 59.7529 160.942 58.6057 167.277C58.5087 167.827 58.3956 168.409 58.0563 168.845C57.5069 169.556 56.5374 169.734 55.6487 169.831C39.8946 171.657 23.4133 164.692 13.7507 152.117C10.8908 148.4 8.54782 144.117 8.01461 139.446C7.48139 134.792 8.98409 129.717 12.652 126.791C15.8836 124.205 14.7041 120.44 17.3378 123.64V121.797L17.3217 121.814Z" fill="#E05F65"/>
<path d="M30.8945 132.48C27.4528 137.62 25.9017 144.02 26.6288 150.162C26.9519 152.893 27.7598 155.673 29.5857 157.726C31.4116 159.778 34.4331 160.942 37.0184 159.988C39.6199 159.035 41.0903 156.368 42.3506 153.911C43.918 150.857 45.4691 147.786 47.0365 144.731C47.2142 144.376 47.392 144.02 47.3596 143.616C47.3273 143.164 46.988 142.792 46.681 142.452C42.2537 137.765 36.7599 134.113 30.7329 131.834L30.9107 132.464L30.8945 132.48Z" fill="#EFA02A"/>
<path d="M77.9473 136.554C77.8342 136.812 63.2434 136.554 59.5755 138.38C54.2918 141.014 55.439 152.005 57.3295 157.597C58.3475 160.635 60.0926 163.787 63.1142 165.209C65.344 166.26 67.7031 166.163 69.8198 164.95C70.9024 164.336 71.9203 163.593 72.7605 162.672C74.1017 161.233 74.8449 159.439 75.3297 157.548C75.7821 155.754 76.0568 153.912 76.7839 152.215C77.6726 150.13 77.8988 145.12 79.7893 143.907C81.1305 143.051 84.0228 145.879 85.2992 144.926C84.9599 143.988 84.3621 143.067 83.9096 142.178C83.4572 141.289 83.0371 140.384 82.5524 139.528C81.6314 137.895 80.0963 137.556 78.3351 137.459C71.5164 137.071 77.9635 136.554 77.9635 136.554H77.9473Z" fill="#EFA02A"/>
<path d="M87.1082 180.19C94.9933 175.439 105.642 177.766 112.848 183.487C120.055 189.209 124.53 197.662 128.36 206.034C129.394 208.296 130.444 210.64 132.302 212.288C134.047 213.84 136.342 214.616 138.539 215.391C145.843 217.961 152.985 221 159.917 224.491C161.839 225.46 164.085 227.351 163.181 229.307C162.777 230.147 161.888 230.632 161.032 230.988C154.488 233.606 147.039 231.457 140.575 228.644C134.096 225.832 127.633 222.325 120.572 222.228C119.538 222.228 118.439 222.26 117.502 221.84C116.257 221.274 115.514 220.014 114.593 218.996C111.588 215.715 106.692 215.214 102.281 214.648C94.7348 213.711 87.1566 211.949 80.5964 208.086C74.0524 204.223 68.591 198.017 66.959 190.599L87.1243 180.223L87.1082 180.19Z" fill="#EFA02A"/>
<path d="M79.9175 202.607C86.5585 206.098 88.9338 214.955 87.0109 222.212C85.0881 229.468 79.8206 235.351 74.2784 240.394C68.7361 245.437 62.6445 250.043 58.2172 256.104C53.7899 262.164 51.1884 270.197 53.7091 277.26C54.9371 280.702 57.8455 283.967 61.5134 283.983C65.5691 283.999 68.5907 280.104 69.7864 276.209C70.9659 272.33 71.0144 268.128 72.5979 264.395C75.9103 256.637 84.7327 253.113 91.0505 247.521C98.7579 240.685 102.83 229.969 101.634 219.739C101.198 216.038 100.067 212.337 97.7399 209.444C93.2641 203.884 85.3305 202.316 80.3053 197.241L79.9175 202.575V202.607Z" fill="#EFA02A"/>
<path d="M53.3703 119.487C53.2087 118.162 53.7096 116.739 54.7276 115.867C54.8569 115.77 54.9538 115.64 55.0023 115.479C55.1154 115.091 54.8569 114.929 54.6145 114.8C52.8371 113.927 50.575 114.299 49.0561 115.559C48.5552 115.964 48.6683 116.772 49.2662 117.014C50.3164 117.434 51.1082 118.582 51.1728 119.729C51.2051 120.343 51.7545 120.78 52.3685 120.715H52.4493C53.0472 120.634 53.4511 120.085 53.3703 119.487Z" fill="black"/>
<path d="M52.078 120.263C52.4981 121.928 52.9182 123.592 53.3222 125.273C53.4191 125.661 54.0008 125.499 53.92 125.112C53.4999 123.447 53.0798 121.782 52.6758 120.101C52.5789 119.713 51.9972 119.875 52.078 120.263Z" fill="black"/>
<path d="M55.8106 121.458C61.2882 118.905 66.992 116.868 72.8413 115.365C74.4733 114.945 76.1052 114.573 77.7695 114.234C78.1573 114.153 77.9957 113.571 77.6079 113.636C71.6617 114.848 65.8287 116.594 60.2056 118.872C58.6221 119.519 57.0548 120.198 55.5036 120.925C55.1481 121.087 55.4551 121.62 55.8106 121.458Z" fill="black"/>
<path d="M58.0877 123.494C62.3535 123.511 66.6192 123.22 70.8526 122.622C72.0483 122.46 73.2279 122.266 74.4074 122.056C74.7952 121.991 74.6336 121.393 74.2458 121.458C70.0932 122.218 65.9082 122.67 61.691 122.816C60.4953 122.864 59.2834 122.88 58.0877 122.88C57.6999 122.88 57.6999 123.494 58.0877 123.494Z" fill="black"/>
<path d="M48.8941 123.462C44.7092 123.979 40.5889 124.949 36.614 126.387C35.4829 126.791 34.368 127.228 33.2692 127.713C32.9138 127.874 33.2208 128.391 33.5762 128.246C37.3734 126.614 41.3483 125.401 45.404 124.642C46.5674 124.415 47.7308 124.238 48.8941 124.092C49.2819 124.044 49.2819 123.43 48.8941 123.478V123.462Z" fill="black"/>
<path d="M49.7036 125.434C45.9226 126.969 42.1416 128.521 38.3606 130.056L35.1451 131.365C34.7897 131.511 34.9351 132.109 35.3067 131.963C39.0877 130.428 42.8687 128.876 46.6497 127.341C47.7161 126.905 48.7987 126.468 49.8652 126.032C50.2207 125.886 50.0752 125.288 49.7036 125.434Z" fill="black"/>
<path d="M105.965 148.093C102.556 148.95 99.3079 150.356 97.5305 153.378C97.2882 153.798 97.2558 154.315 97.4659 154.736C97.7891 155.366 98.4354 155.35 99.0009 155.301C101.441 155.059 103.865 154.509 106.175 153.685C102.75 156.126 97.4821 156.627 96.254 160.91C96.0601 161.572 96.1086 162.299 96.4479 162.897C97.4174 164.611 99.6957 164.11 101.36 163.382C103.444 162.461 105.464 161.378 107.387 160.15C105.383 161.265 103.38 162.364 101.376 163.479C100.261 164.093 99.0817 164.772 98.6293 166.065C98.4192 166.696 98.4839 167.407 98.904 167.94C99.6957 168.926 101.053 168.619 102.103 168.166C104.01 167.358 105.771 166.227 107.274 164.805C104.753 165.887 102.685 168.005 101.667 170.558C101.522 170.93 101.538 171.35 101.78 171.673C102.119 172.142 102.62 172.045 103.057 171.932C105.82 171.189 108.34 169.589 110.215 167.423C108.728 168.393 107.516 169.766 106.708 171.334C106.417 171.9 106.482 172.611 106.935 173.063C107.565 173.71 108.405 173.371 109.067 172.999C116.419 168.942 121.865 161.524 123.691 153.33C123.787 152.909 112.768 147.592 109.197 145.766C107.419 147.576 108.421 147.495 105.965 148.109V148.093Z" fill="#F9BE96"/>
<path d="M102.345 48.276C102.313 52.1711 102.07 56.0662 101.618 59.9289C101.489 61.0118 101.343 62.0785 101.182 63.1613C101.133 63.4846 101.263 63.824 101.602 63.9209C101.893 64.0017 102.313 63.824 102.361 63.5007C102.959 59.5733 103.331 55.6298 103.492 51.6701C103.541 50.5387 103.557 49.4235 103.573 48.2922C103.573 47.5003 102.361 47.5003 102.345 48.2922V48.276Z" fill="#E05F65"/>
<path d="M105.626 48.0822C105.497 51.8642 105.367 55.6461 105.254 59.4442C105.222 60.527 105.19 61.6099 105.141 62.6928C105.109 63.4847 106.337 63.4847 106.369 62.6928C106.499 58.9108 106.628 55.1289 106.741 51.3308C106.773 50.248 106.806 49.1651 106.854 48.0822C106.886 47.2903 105.658 47.2903 105.626 48.0822Z" fill="#E05F65"/>
<path d="M68.7539 92.3671C69.8365 89.959 70.5636 87.4054 70.8868 84.7871C71.8401 87.5508 72.7934 90.3307 73.7468 93.0944C72.131 93.0621 70.5151 92.7065 69.0286 92.0762L68.7539 92.3671Z" fill="#996441"/>
<path d="M26.8224 100.189C25.4005 98.2176 23.72 96.4236 21.8457 94.8721C22.3143 97.2641 23.0252 99.5914 23.9786 101.838C24.8996 101.369 25.8368 100.917 26.7578 100.448L26.8386 100.173L26.8224 100.189Z" fill="#996441"/>
<path d="M40.8805 99.7361C37.972 97.2148 35.8392 93.8046 34.8535 90.0712C36.3077 89.6833 37.7135 90.7985 38.8123 91.8329C40.6866 93.5945 42.5609 95.34 44.4353 97.1017C42.6417 95.2916 41.3976 92.9481 40.8967 90.4591C40.7028 89.5217 41.0259 88.1318 41.9792 88.2611C42.3024 88.3095 42.5771 88.552 42.8033 88.7782C44.6615 90.6046 46.2288 92.7218 47.473 95.0168C46.0834 92.7056 44.71 89.7641 46.1157 87.4691C46.2611 87.2267 46.4712 86.9681 46.762 86.9196C47.0367 86.8711 47.2953 87.0004 47.5215 87.1297C50.6723 89.0045 51.7226 92.9965 52.5143 96.5684L40.8805 99.72V99.7361Z" fill="#EFA02A"/>
<path d="M45.4051 100.657C45.6637 101.643 45.9222 102.613 46.1807 103.599C46.2777 103.987 46.8755 103.825 46.7786 103.437L46.003 100.496C45.906 100.108 45.3082 100.27 45.4051 100.657Z" fill="#A36819"/>
<path d="M48.5725 101.951C48.7179 102.791 48.8633 103.615 49.0087 104.456C49.041 104.617 49.2349 104.714 49.3804 104.666C49.5581 104.617 49.6227 104.456 49.5904 104.294C49.445 103.454 49.2996 102.629 49.1542 101.789C49.1218 101.627 48.9279 101.53 48.7825 101.579C48.6048 101.627 48.5401 101.789 48.5725 101.951Z" fill="#A36819"/>
<path d="M51.6086 101.093C51.754 101.788 51.8994 102.483 52.0449 103.178C52.0772 103.34 52.2711 103.437 52.4165 103.388C52.5781 103.34 52.6589 103.178 52.6265 103.017C52.4811 102.322 52.3357 101.627 52.1903 100.932C52.158 100.77 51.9641 100.673 51.8186 100.722C51.6571 100.77 51.5763 100.932 51.6086 101.093Z" fill="#A36819"/>
<path d="M50.7051 97.2797C50.7051 97.6999 50.7051 98.1202 50.7051 98.5242C50.7051 98.6858 50.8505 98.8313 51.0121 98.8313C51.1737 98.8313 51.3191 98.702 51.3191 98.5242C51.3191 98.104 51.3191 97.6838 51.3191 97.2797C51.3191 97.1181 51.1737 96.9727 51.0121 96.9727C50.8505 96.9727 50.7051 97.102 50.7051 97.2797Z" fill="#A36819"/>
<path d="M75.7329 130.832C76.153 131.673 76.557 132.497 76.9771 133.337C77.0579 133.483 77.2679 133.531 77.3972 133.45C77.5426 133.37 77.5749 133.176 77.5103 133.03C77.0902 132.19 76.6862 131.366 76.2661 130.525C76.1853 130.38 75.9753 130.331 75.846 130.412C75.7006 130.493 75.6683 130.687 75.7329 130.832Z" fill="#A36819"/>
<path d="M78.7215 127.551C79.2063 128.052 79.481 128.73 79.4971 129.409C79.4971 129.571 79.6426 129.716 79.8041 129.716C79.9657 129.716 80.1111 129.571 80.1111 129.409C80.1111 128.553 79.7557 127.728 79.1578 127.114C79.0447 127.001 78.8347 127.001 78.7215 127.114C78.6084 127.227 78.6084 127.421 78.7215 127.551Z" fill="#A36819"/>
<path d="M14.979 118.905C15.2536 120.149 16.1262 121.135 16.9502 122.056C17.8389 123.075 18.76 124.06 19.681 125.046C21.5068 127.002 23.3812 128.893 25.304 130.735C26.3866 131.786 27.5015 132.804 28.6164 133.822C28.8588 134.049 29.2466 134.065 29.4889 133.822C29.7152 133.596 29.7313 133.176 29.4889 132.95C25.5787 129.426 21.8462 125.677 18.3398 121.749C17.4996 120.812 16.4493 119.842 16.1747 118.565C16.11 118.242 15.7222 118.048 15.4152 118.145C15.0759 118.242 14.9143 118.582 14.9951 118.905H14.979Z" fill="#B03537"/>
<path d="M5.88164 147.382C7.33587 149.709 9.00015 151.891 10.826 153.943C12.6357 155.964 14.607 157.838 16.7237 159.535C18.8566 161.249 21.1349 162.8 23.5101 164.158C25.8854 165.515 28.3899 166.663 30.959 167.616C33.512 168.554 36.1296 169.281 38.7957 169.782C39.135 169.847 39.4582 169.895 39.7975 169.96C40.1207 170.008 40.46 169.879 40.557 169.54C40.6377 169.249 40.46 168.845 40.1368 168.78C37.4869 168.344 34.8693 167.681 32.3325 166.808C29.828 165.952 27.4042 164.869 25.0613 163.608C22.7022 162.331 20.4239 160.861 18.3072 159.212C16.2067 157.58 14.2192 155.786 12.4095 153.83C10.5998 151.891 8.95168 149.806 7.49745 147.592C7.30355 147.301 7.12581 147.026 6.94807 146.735C6.52796 146.072 5.46153 146.687 5.8978 147.349L5.88164 147.382Z" fill="#B03537"/>
<path d="M54.1139 154.008C53.8069 156.045 53.516 158.081 53.209 160.134C52.9182 162.106 52.5788 164.077 52.0941 166.017C51.8194 167.116 51.4962 168.183 51.1085 169.249C50.9953 169.556 51.2377 169.928 51.5286 170.009C51.8679 170.106 52.1749 169.896 52.288 169.589C53.6776 165.823 54.1785 161.799 54.7764 157.839C54.9541 156.675 55.1157 155.511 55.2934 154.364C55.3419 154.041 55.2126 153.701 54.8733 153.604C54.5824 153.524 54.1623 153.701 54.1139 154.025V154.008Z" fill="#B03537"/>
<path d="M110.247 143.197C114.109 144.312 117.938 145.589 121.687 147.043C122.753 147.448 123.82 147.884 124.886 148.32C125.193 148.45 125.565 148.191 125.646 147.9C125.743 147.545 125.533 147.27 125.226 147.14C121.509 145.605 117.712 144.231 113.883 143.019C112.784 142.68 111.701 142.34 110.586 142.033C109.827 141.807 109.504 143.003 110.263 143.213L110.247 143.197Z" fill="#B03537"/>
<path d="M51.0918 125.126C52.6106 126.581 55.2929 126.29 56.4724 124.561C56.6987 124.237 56.1654 123.93 55.9392 124.254C54.9859 125.643 52.7238 125.87 51.5119 124.69C51.221 124.415 50.8009 124.852 51.0756 125.126H51.0918Z" fill="black"/>
<path d="M62.7247 155.382C62.2238 158.533 62.9994 161.83 64.906 164.384C65.1323 164.691 65.6655 164.384 65.4393 164.077C63.6457 161.652 62.8378 158.533 63.3226 155.543C63.3872 155.155 62.7893 154.994 62.7247 155.382Z" fill="#A36819"/>
<path d="M65.7633 155.818C65.2948 158.889 66.1188 162.04 68.0416 164.481C68.284 164.788 68.7203 164.352 68.4779 164.045C66.7167 161.798 65.9249 158.808 66.3612 155.98C66.4258 155.592 65.828 155.43 65.7633 155.818Z" fill="#A36819"/>
<path d="M31.8973 148.48C30.7501 151.858 30.8794 155.624 32.2528 158.905C32.3175 159.066 32.4467 159.163 32.6245 159.115C32.7699 159.083 32.8991 158.889 32.8345 158.743C31.4934 155.543 31.3641 151.923 32.479 148.642C32.6083 148.27 32.0104 148.109 31.8812 148.48H31.8973Z" fill="#A36819"/>
<path d="M36.4855 149.839C35.1444 152.215 34.8697 155.124 35.6938 157.726C35.9361 158.47 36.2593 159.181 36.6633 159.843C36.8733 160.183 37.4065 159.876 37.1965 159.536C35.4676 156.724 35.4029 153.023 37.0187 150.146C37.2126 149.807 36.6794 149.5 36.4855 149.839Z" fill="#A36819"/>
<path d="M30.9432 133.273C36.0815 133.709 40.7027 136.457 44.4352 139.867C45.5017 140.853 46.5196 141.887 47.4729 142.986C47.7315 143.277 48.1677 142.841 47.9092 142.55C44.4675 138.638 40.218 135.147 35.2089 133.515C33.8193 133.063 32.3974 132.772 30.9432 132.658C30.5554 132.626 30.5554 133.24 30.9432 133.273Z" fill="#A36819"/>
<path d="M66.7815 137.07C70.1908 137.571 73.6163 137.959 77.0419 138.25C80.4997 138.525 83.9737 138.703 87.4315 138.767C89.3867 138.8 91.358 138.816 93.3131 138.767C93.7009 138.767 93.7009 138.153 93.3131 138.153C89.8714 138.202 86.4136 138.153 82.9719 137.991C79.5302 137.83 76.1047 137.571 72.6792 137.2C70.7564 136.989 68.8335 136.747 66.9269 136.456C66.5391 136.391 66.3775 136.989 66.7653 137.054L66.7815 137.07Z" fill="#A36819"/>
<path d="M76.2997 143.794C76.6067 147.139 76.5097 150.517 75.9765 153.83C75.8311 154.784 75.6372 155.721 75.411 156.675C75.314 157.063 75.9119 157.225 76.0088 156.837C76.7844 153.523 77.1561 150.097 77.0753 146.687C77.0591 145.717 76.9945 144.764 76.9137 143.794C76.8814 143.406 76.2674 143.406 76.2997 143.794Z" fill="#A36819"/>
<path d="M153.679 227.287C156.329 227.74 158.898 228.612 161.29 229.873C161.645 230.051 161.952 229.534 161.597 229.34C159.173 228.063 156.556 227.158 153.841 226.705C153.453 226.641 153.292 227.222 153.679 227.303V227.287Z" fill="#A36819"/>
<path d="M155.763 225.477C157.347 225.978 158.882 226.624 160.336 227.432C160.676 227.626 160.983 227.093 160.643 226.899C159.14 226.075 157.557 225.396 155.925 224.879C155.553 224.766 155.392 225.347 155.763 225.477Z" fill="#A36819"/>
<path d="M158.334 220.321C159.982 220.838 161.549 221.581 163.003 222.502C163.343 222.712 163.65 222.179 163.31 221.969C161.808 221.015 160.192 220.256 158.495 219.723C158.124 219.609 157.962 220.191 158.334 220.321Z" fill="#A36819"/>
<path d="M159.756 218.802C161.275 219.287 162.745 219.933 164.118 220.725C164.458 220.919 164.765 220.386 164.425 220.192C163.003 219.368 161.485 218.705 159.917 218.204C159.546 218.091 159.384 218.673 159.756 218.802Z" fill="#A36819"/>
<path d="M114.255 185.024C117.438 188.111 120.217 191.602 122.463 195.432C123.594 197.339 124.596 199.327 125.452 201.364C126.228 203.19 126.777 205.113 127.682 206.875C128.652 208.75 129.783 210.592 131.108 212.257C131.35 212.564 131.786 212.128 131.544 211.82C130.364 210.35 129.363 208.701 128.474 207.037C128.054 206.261 127.666 205.469 127.343 204.645C126.971 203.642 126.632 202.624 126.228 201.638C124.564 197.533 122.35 193.67 119.652 190.147C118.133 188.175 116.485 186.317 114.707 184.587C114.416 184.313 113.996 184.749 114.271 185.024H114.255Z" fill="#A36819"/>
<path d="M129.281 176.36C129.281 177.055 129.281 177.75 129.281 178.445C129.281 178.606 129.427 178.752 129.588 178.752C129.75 178.752 129.895 178.606 129.895 178.445C129.895 177.75 129.895 177.055 129.895 176.36C129.895 176.198 129.75 176.053 129.588 176.053C129.427 176.053 129.281 176.198 129.281 176.36Z" fill="#A36819"/>
<path d="M131.414 177.735L131.155 179.61C131.139 179.771 131.188 179.949 131.365 179.981C131.511 180.014 131.721 179.933 131.737 179.771C131.818 179.141 131.915 178.527 131.995 177.896C132.012 177.735 131.963 177.557 131.785 177.525C131.64 177.492 131.43 177.573 131.414 177.735Z" fill="#A36819"/>
<path d="M129.266 168.828C129.266 168.828 129.331 168.941 129.363 168.99C129.363 168.99 129.363 169.022 129.379 169.038C129.363 169.006 129.379 169.006 129.379 169.038C129.379 169.055 129.395 169.087 129.395 169.103C129.412 169.168 129.428 169.216 129.444 169.281C129.444 169.313 129.444 169.346 129.46 169.378C129.46 169.443 129.46 169.313 129.46 169.394C129.46 169.507 129.46 169.636 129.46 169.75C129.46 169.766 129.46 169.75 129.46 169.733C129.46 169.733 129.46 169.766 129.46 169.782C129.46 169.814 129.46 169.847 129.444 169.879C129.444 169.944 129.412 170.008 129.395 170.057C129.347 170.202 129.46 170.396 129.605 170.428C129.783 170.461 129.929 170.38 129.977 170.218C130.171 169.669 130.106 169.022 129.799 168.537C129.719 168.408 129.525 168.344 129.379 168.424C129.25 168.505 129.185 168.699 129.266 168.845V168.828Z" fill="#A36819"/>
<path d="M125.742 169.475V171.77C125.742 172.158 126.356 172.158 126.356 171.77C126.356 171.011 126.356 170.235 126.356 169.475C126.356 169.088 125.742 169.088 125.742 169.475Z" fill="#A36819"/>
<path d="M102.605 187.109C103.445 187.367 104.253 187.707 105.029 188.111C105.174 188.191 105.368 188.143 105.449 187.998C105.53 187.868 105.481 187.658 105.336 187.577C104.512 187.157 103.639 186.802 102.767 186.511C102.395 186.397 102.234 186.979 102.605 187.109Z" fill="#A36819"/>
<path d="M108.759 189.873C109.308 190.374 109.842 190.875 110.391 191.376C110.504 191.489 110.714 191.505 110.827 191.376C110.94 191.263 110.956 191.053 110.827 190.94L109.195 189.437C109.082 189.324 108.872 189.307 108.759 189.437C108.646 189.55 108.63 189.76 108.759 189.873Z" fill="#A36819"/>
<path d="M106.206 193.686L107.24 194.542C107.24 194.542 107.37 194.639 107.451 194.639C107.531 194.639 107.612 194.607 107.661 194.542C107.758 194.429 107.79 194.219 107.661 194.106C107.321 193.815 106.982 193.54 106.626 193.249C106.562 193.201 106.497 193.152 106.416 193.152C106.336 193.152 106.255 193.185 106.206 193.249C106.109 193.362 106.077 193.573 106.206 193.686Z" fill="#A36819"/>
<path d="M114.302 193.929C114.593 194.187 114.884 194.462 115.174 194.721C115.239 194.769 115.304 194.818 115.385 194.818C115.465 194.818 115.546 194.785 115.595 194.721C115.708 194.608 115.724 194.398 115.595 194.284C115.304 194.026 115.013 193.751 114.722 193.492C114.657 193.444 114.593 193.396 114.512 193.396C114.431 193.396 114.35 193.428 114.302 193.492C114.189 193.606 114.173 193.816 114.302 193.929Z" fill="#A36819"/>
<path d="M85.2496 211.157C89.4992 212.968 93.9911 214.147 98.58 214.648C99.8727 214.794 101.165 214.875 102.458 214.907C102.846 214.907 102.846 214.309 102.458 214.293C97.9337 214.18 93.4579 213.388 89.1599 211.982C87.9318 211.578 86.7361 211.125 85.5404 210.624C85.185 210.479 84.8618 210.996 85.2334 211.157H85.2496Z" fill="#A36819"/>
<path d="M63.8416 182.324C64.294 182.938 64.6334 183.617 64.8596 184.344C64.908 184.506 65.0696 184.603 65.2312 184.554C65.3928 184.506 65.4897 184.344 65.4413 184.183C65.215 183.407 64.8434 182.68 64.3748 182.017C64.2779 181.888 64.1163 181.823 63.9547 181.904C63.8254 181.985 63.7447 182.195 63.8416 182.324Z" fill="#A36819"/>
<path d="M66.7165 183.925L66.9266 184.555C66.9266 184.555 66.9912 184.7 67.072 184.733C67.1366 184.765 67.2336 184.781 67.3144 184.765C67.3951 184.749 67.4598 184.7 67.4921 184.619C67.5244 184.555 67.5567 184.458 67.5244 184.377C67.4598 184.167 67.379 183.957 67.3144 183.747C67.282 183.666 67.2497 183.601 67.1689 183.569C67.1043 183.537 67.0074 183.52 66.9266 183.537C66.8458 183.553 66.7811 183.601 66.7488 183.682C66.7165 183.747 66.6842 183.844 66.7165 183.925Z" fill="#A36819"/>
<path d="M68.8337 184.328C68.9791 184.683 69.1084 185.023 69.2538 185.378C69.2861 185.459 69.3184 185.524 69.3992 185.556C69.4639 185.588 69.5608 185.605 69.6416 185.588C69.7224 185.572 69.787 185.524 69.8193 185.443C69.8517 185.378 69.884 185.281 69.8517 185.201C69.7062 184.845 69.577 184.506 69.4316 184.15C69.3992 184.069 69.3669 184.005 69.2861 183.972C69.2215 183.94 69.1245 183.924 69.0438 183.94C68.963 183.956 68.8983 184.005 68.866 184.085C68.8337 184.15 68.8014 184.247 68.8337 184.328Z" fill="#A36819"/>
<path d="M76.5409 192.151C76.8156 192.7 77.1064 193.266 77.3811 193.815C77.4457 193.961 77.6719 194.009 77.8012 193.928C77.9466 193.831 77.9951 193.67 77.9143 193.508C77.6396 192.959 77.3488 192.393 77.0741 191.843C77.0095 191.698 76.7832 191.65 76.654 191.73C76.5086 191.827 76.4601 191.989 76.5409 192.151Z" fill="#A36819"/>
<path d="M41.6233 99.3484C39.6036 99.203 38.7149 97.0211 38.1817 95.3725C38.117 95.1786 38.0362 94.9685 38.0039 94.7584C37.9878 94.516 38.1494 94.4836 38.3594 94.5321C38.8118 94.6291 39.2804 94.8877 39.7005 95.0978C40.5892 95.5503 41.4133 96.116 42.1889 96.714C43.0614 97.3928 43.9016 98.1363 44.7257 98.8959C44.9681 99.1221 45.4205 98.8312 45.2104 98.5241C44.7257 97.8292 44.3056 97.0857 43.9824 96.3099C43.7077 95.6796 43.4169 94.9846 43.4007 94.3058C43.4007 93.7725 43.5946 93.126 44.2571 93.3038C44.6449 93.4169 45.0004 93.6917 45.3236 93.918C45.6467 94.1442 45.9537 94.4028 46.2284 94.6776C46.8747 95.2917 47.4241 95.9867 47.8765 96.7463C48.0866 97.0857 48.5713 96.7948 48.4098 96.4392C48.0866 95.7604 47.9412 95.0008 47.9896 94.2574C48.022 93.5785 48.2159 92.6896 48.6683 92.1563C49.2338 91.4936 50.0094 92.8028 50.2356 93.223C50.6073 93.9018 50.8012 94.6776 50.8173 95.4534C50.8173 95.8412 51.4475 95.8412 51.4313 95.4534C51.4152 94.6937 51.2374 93.9503 50.9304 93.2553C50.6557 92.625 50.2195 91.8654 49.5893 91.526C48.022 90.6694 47.408 93.3038 47.3756 94.3543C47.3433 95.1948 47.5211 96.019 47.8927 96.7625C48.0704 96.6655 48.2482 96.5524 48.4259 96.4554C47.9573 95.6796 47.3918 94.9523 46.7455 94.322C46.4062 93.9988 46.0507 93.7078 45.679 93.4331C45.3074 93.1583 44.9196 92.8836 44.4672 92.7381C43.7077 92.5119 43.0291 92.9482 42.8514 93.6917C42.6736 94.4351 42.8837 95.1948 43.1422 95.8897C43.53 96.9403 44.0471 97.9261 44.6772 98.8474C44.8388 98.7181 45.0004 98.605 45.162 98.4757C43.4654 96.9403 41.7203 95.3725 39.6197 94.4028C39.1673 94.1927 38.6018 93.8695 38.0847 93.9341C37.503 93.9988 37.3414 94.5483 37.4384 95.0493C37.5515 95.5988 37.7777 96.1645 37.9878 96.6817C38.1978 97.215 38.4402 97.7484 38.7795 98.2332C39.442 99.1868 40.4438 99.9141 41.6395 99.9949C42.0273 100.027 42.0273 99.4131 41.6395 99.3807L41.6233 99.3484Z" fill="#A36819"/>
<path d="M63.6948 99.6715C64.6804 99.0897 66.0054 99.2352 66.8294 100.027C67.1203 100.302 67.5404 99.8655 67.2657 99.5907C66.2478 98.621 64.5996 98.4271 63.3878 99.1382C63.0484 99.3321 63.3555 99.8655 63.6948 99.6715Z" fill="#A36819"/>
<path d="M29.1656 106.087C29.8927 105.279 31.1692 105.037 32.1387 105.57C32.478 105.764 32.8011 105.231 32.4457 105.037C31.25 104.39 29.6503 104.649 28.7293 105.651C28.4708 105.942 28.8909 106.378 29.1656 106.087Z" fill="#A36819"/>
<path d="M50.6713 116.4C51.4307 116.238 52.1901 116.077 52.9496 115.915C53.1111 115.883 53.2081 115.689 53.1596 115.543C53.1111 115.382 52.9496 115.301 52.788 115.333C52.0285 115.495 51.2691 115.656 50.5097 115.818C50.3481 115.85 50.2512 116.044 50.2996 116.19C50.3481 116.351 50.5097 116.432 50.6713 116.4Z" fill="white"/>
<path d="M99.0992 165.015C102.686 163.851 106.079 162.09 109.101 159.827C109.36 159.633 109.505 159.294 109.327 158.987C109.182 158.728 108.762 158.566 108.487 158.76C105.546 160.958 102.266 162.688 98.776 163.819C98.469 163.916 98.2589 164.239 98.3559 164.579C98.4367 164.886 98.7922 165.112 99.1153 164.999L99.0992 165.015Z" fill="#996441"/>
<path d="M101.812 168.571C104.672 167.456 107.322 165.84 109.6 163.771C110.247 163.189 110.844 162.575 111.426 161.928C111.652 161.686 111.669 161.298 111.426 161.056C111.2 160.829 110.78 160.813 110.554 161.056C108.615 163.238 106.304 165.048 103.703 166.389C102.975 166.761 102.248 167.1 101.489 167.391C101.182 167.504 100.972 167.795 101.069 168.151C101.15 168.442 101.505 168.7 101.828 168.571H101.812Z" fill="#996441"/>
<path d="M106.547 171.237C109.246 170.057 111.653 168.182 113.463 165.855C113.996 165.176 114.481 164.481 114.901 163.738C115.305 163.059 114.239 162.429 113.851 163.124C112.445 165.548 110.441 167.6 108.066 169.071C107.387 169.491 106.66 169.863 105.933 170.186C105.626 170.316 105.562 170.768 105.707 171.027C105.885 171.334 106.24 171.382 106.547 171.253V171.237Z" fill="#996441"/>
<path d="M107.596 158.065C109.567 160.02 111.652 162.04 114.237 163.156C114.98 163.479 115.74 163.721 116.531 163.867C116.855 163.931 117.194 163.786 117.291 163.447C117.372 163.156 117.194 162.752 116.871 162.687C113.445 162.089 110.86 159.551 108.485 157.208C107.919 156.658 107.063 157.515 107.612 158.081L107.596 158.065Z" fill="#996441"/>
<path d="M83.0847 159.535C84.959 159.681 86.8496 159.713 88.7239 159.616C89.0471 159.616 89.3379 159.341 89.3379 159.002C89.3379 158.679 89.0632 158.371 88.7239 158.388C86.8496 158.485 84.959 158.452 83.0847 158.307C82.7615 158.275 82.4707 158.614 82.4707 158.921C82.4707 159.277 82.7454 159.503 83.0847 159.535Z" fill="#996441"/>
<path d="M82.293 165.725C84.6198 166.113 86.995 166.259 89.3541 166.097C89.6773 166.081 89.9681 165.838 89.9681 165.483C89.9681 165.176 89.6934 164.853 89.3541 164.869C87.1081 165.014 84.846 164.917 82.6323 164.529C82.3092 164.481 81.9699 164.61 81.8729 164.95C81.7921 165.24 81.9699 165.645 82.293 165.709V165.725Z" fill="#996441"/>
<path d="M81.0333 171.204C82.843 171.495 84.6688 171.77 86.4785 172.061C86.8017 172.109 87.141 171.98 87.238 171.641C87.3188 171.35 87.141 170.946 86.8179 170.881C85.0081 170.59 83.1823 170.315 81.3726 170.024C81.0494 169.976 80.7101 170.105 80.6131 170.445C80.5323 170.736 80.7101 171.14 81.0333 171.204Z" fill="#996441"/>
<path d="M82.292 156.529C82.3728 160.441 81.9042 164.352 80.9186 168.15C80.6439 169.233 80.3046 170.283 79.9653 171.35C79.8683 171.657 80.0784 172.013 80.3854 172.11C80.7085 172.207 81.0317 171.997 81.1448 171.689C81.7588 169.798 82.292 167.891 82.6798 165.936C83.0676 163.964 83.3262 161.976 83.4393 159.972C83.5039 158.841 83.5362 157.693 83.5039 156.562C83.5039 155.77 82.2597 155.77 82.2759 156.562L82.292 156.529Z" fill="#996441"/>
<path d="M137.361 188.466C139.09 187.884 140.9 187.544 142.726 187.48C143.113 187.48 143.113 186.849 142.726 186.866C140.835 186.93 138.977 187.27 137.183 187.884C136.812 188.013 136.973 188.595 137.345 188.482L137.361 188.466Z" fill="#EFA02A"/>
<path d="M137.31 190.001L142.723 190.082C143.111 190.082 143.111 189.468 142.723 189.468L137.31 189.388C136.923 189.388 136.923 190.001 137.31 190.001Z" fill="#EFA02A"/>
<path d="M134.516 173.048C135.486 172.353 136.455 171.658 137.441 170.963C137.57 170.866 137.635 170.688 137.554 170.543C137.473 170.413 137.263 170.333 137.134 170.43C136.164 171.124 135.195 171.819 134.209 172.514C134.08 172.611 134.015 172.789 134.096 172.935C134.177 173.064 134.387 173.145 134.516 173.048Z" fill="#EFA02A"/>
<path d="M134.935 174.712C136.341 173.888 137.73 173.064 139.136 172.256C139.475 172.062 139.168 171.529 138.829 171.722C137.423 172.547 136.034 173.371 134.628 174.179C134.289 174.373 134.596 174.906 134.935 174.712Z" fill="#EFA02A"/>
<path d="M90.0651 128.585C92.4241 129.555 94.7832 130.541 97.1585 131.51C97.5301 131.656 97.6755 131.074 97.32 130.912C94.961 129.943 92.6019 128.957 90.2266 127.987C89.855 127.842 89.7096 128.423 90.0651 128.585Z" fill="#EFA02A"/>
<path d="M90.5193 131.834C91.7635 132.254 93.0238 132.658 94.268 133.078C94.6396 133.208 94.8012 132.61 94.4296 132.48C93.1854 132.06 91.9251 131.656 90.6809 131.236C90.3093 131.107 90.1477 131.705 90.5193 131.834Z" fill="#EFA02A"/>
<path d="M17.9194 112.422C19.4383 113.958 20.9571 115.493 22.476 117.045C22.7507 117.319 23.187 116.899 22.9123 116.608C21.3934 115.073 19.8745 113.537 18.3557 111.986C18.081 111.711 17.6447 112.131 17.9194 112.422Z" fill="#EFA02A"/>
<path d="M17.2081 115.639C18.7108 116.593 20.1489 117.659 21.5061 118.839C21.797 119.098 22.2333 118.661 21.9424 118.403C20.5528 117.191 19.0663 116.092 17.5151 115.106C17.1758 114.896 16.8688 115.429 17.2081 115.639Z" fill="#EFA02A"/>
<path d="M53.1427 181.872C52.5126 183.844 51.8824 185.815 51.2684 187.771C51.1553 188.143 51.737 188.304 51.8663 187.933C52.4964 185.961 53.1266 183.989 53.7406 182.034C53.8537 181.662 53.272 181.5 53.1427 181.872Z" fill="#EFA02A"/>
<path d="M54.4848 184.635C53.4992 185.702 52.9982 187.189 53.176 188.627C53.1921 188.789 53.3052 188.934 53.483 188.934C53.6284 188.934 53.8062 188.789 53.79 188.627C53.6284 187.334 54.0324 186.025 54.9211 185.071C55.1958 184.78 54.7595 184.344 54.4848 184.635Z" fill="#EFA02A"/>
<path d="M80.2402 253.308V259.143C80.2402 259.531 80.8542 259.531 80.8542 259.143V253.308C80.8542 252.921 80.2402 252.921 80.2402 253.308Z" fill="#EFA02A"/>
<path d="M82.3089 252.791C81.8727 254.31 81.7434 255.91 81.9373 257.462C81.9535 257.623 82.0666 257.769 82.2443 257.769C82.3897 257.769 82.5675 257.623 82.5513 257.462C82.3574 255.942 82.4705 254.407 82.9068 252.952C83.0199 252.581 82.422 252.419 82.3089 252.791Z" fill="#EFA02A"/>
<path d="M55.5831 253.891L63.0805 252.21C63.4683 252.129 63.3067 251.531 62.9189 251.612C60.4144 252.178 57.9099 252.727 55.4216 253.293C55.0338 253.374 55.1953 253.972 55.5831 253.891Z" fill="#EFA02A"/>
<path d="M57.6516 255.555C59.4128 254.877 61.2549 254.392 63.1292 254.101C63.517 254.036 63.3554 253.454 62.9676 253.503C61.0933 253.778 59.2513 254.262 57.49 254.957C57.1184 255.103 57.28 255.685 57.6516 255.555Z" fill="#EFA02A"/>
<path d="M53.4846 266.059C54.8419 263.651 58.3805 262.924 60.6588 264.443C62.1454 265.429 62.7109 267.304 64.052 268.451C65.1831 269.437 66.6858 269.922 68.1723 269.922C69.8689 269.922 71.5655 269.275 72.7289 268.015C72.9875 267.724 72.5674 267.288 72.2927 267.578C70.2729 269.793 66.3788 269.922 64.2459 267.789C62.9856 266.544 62.3877 264.75 60.8204 263.813C59.6085 263.085 58.1382 262.891 56.7647 263.15C55.2135 263.441 53.7593 264.346 52.9676 265.752C52.7737 266.092 53.3069 266.399 53.5008 266.059H53.4846Z" fill="white"/>
<path d="M34.0125 231.732C36.3878 229.808 38.7468 227.901 41.1382 225.994C42.2855 225.073 43.4327 224.168 44.5961 223.247C45.1616 222.81 45.7272 222.358 46.2927 221.921C46.8582 221.485 47.2945 221.146 47.9408 220.661C52.5459 217.137 57.2641 213.743 62.16 210.64C65.0361 208.814 67.9607 207.085 70.95 205.452C71.3701 205.226 71.5478 204.596 71.2731 204.192C70.9985 203.755 70.4652 203.61 70.0128 203.868C64.7453 206.729 59.6716 209.929 54.7757 213.372C49.9606 216.75 45.2909 220.354 40.6858 224.022C38.0197 226.14 35.3698 228.289 32.7199 230.439C32.3482 230.746 32.3806 231.425 32.7199 231.732C33.1238 232.103 33.6247 232.055 34.0125 231.732Z" fill="#6D181D"/>
<path d="M56.3426 192.473C58.3462 194.817 60.4629 197.063 62.6766 199.213C64.8903 201.363 67.1847 203.415 69.5761 205.355C70.9657 206.486 72.3876 207.585 73.8419 208.652C74.2297 208.943 74.876 208.732 75.1022 208.328C75.3607 207.844 75.183 207.375 74.779 207.068C74.165 206.615 73.551 206.147 72.937 205.678C72.6946 205.5 73.0663 205.775 72.8239 205.597C72.7431 205.549 72.6785 205.484 72.6138 205.435C72.4684 205.322 72.323 205.209 72.1776 205.096C71.8706 204.854 71.5474 204.595 71.2404 204.353C70.0447 203.383 68.8813 202.397 67.7179 201.379C65.4235 199.342 63.2098 197.225 61.0931 194.995C59.9136 193.75 58.7502 192.473 57.6353 191.164C57.3283 190.793 56.6496 190.825 56.3426 191.164C55.9871 191.552 56.0033 192.069 56.3426 192.457V192.473Z" fill="#6D181D"/>
<path d="M14.171 169.006C14.0255 171.931 14.0417 174.84 14.2356 177.765C14.2679 178.25 14.6395 178.703 15.1566 178.687C15.6252 178.671 16.1099 178.283 16.0776 177.765C15.8999 174.856 15.8676 171.931 16.013 169.006C16.0291 168.521 15.5767 168.068 15.092 168.084C14.5749 168.101 14.2033 168.488 14.171 169.006Z" fill="#6D181D"/>
<path d="M17.612 169.605C17.1111 172.53 17.1272 175.488 17.6605 178.413C17.7412 178.882 18.3553 179.205 18.7915 179.06C19.2924 178.898 19.5186 178.429 19.4379 177.928C19.3732 177.589 19.3247 177.25 19.2763 176.91C19.2763 176.91 19.2763 176.846 19.2763 176.813C19.2763 176.732 19.2601 176.652 19.244 176.571C19.2278 176.393 19.2116 176.215 19.1955 176.037C19.1308 175.375 19.0985 174.696 19.0985 174.017C19.0985 173.338 19.1147 172.676 19.1793 171.997C19.2116 171.674 19.244 171.35 19.2763 171.011C19.2763 171.011 19.3086 170.72 19.2924 170.866C19.2924 170.785 19.3086 170.704 19.3247 170.623C19.3571 170.445 19.3732 170.268 19.4055 170.09C19.4863 169.621 19.2763 169.072 18.7592 168.958C18.3068 168.861 17.7089 169.088 17.6281 169.605H17.612Z" fill="#6D181D"/>
<path d="M34.1268 170.542C34.2884 171.092 34.4015 171.657 34.4984 172.223C34.4984 172.223 34.5308 172.465 34.5308 172.385C34.5308 172.304 34.5308 172.482 34.5308 172.498C34.5469 172.643 34.5631 172.789 34.5792 172.918C34.6116 173.225 34.6277 173.516 34.6277 173.823C34.6277 174.389 34.6277 174.97 34.5631 175.536C34.5631 175.682 34.5308 175.827 34.5146 175.956C34.5146 175.859 34.5146 175.956 34.5146 175.989C34.5146 176.069 34.4823 176.15 34.4823 176.231C34.4338 176.522 34.3692 176.829 34.3046 177.12C34.1914 177.589 34.45 178.138 34.9509 178.251C35.4195 178.365 35.9688 178.106 36.0819 177.605C36.6636 175.116 36.6152 172.498 35.9204 170.041C35.7911 169.572 35.2579 169.249 34.7893 169.395C34.3207 169.54 34.0137 170.025 34.143 170.526L34.1268 170.542Z" fill="#6D181D"/>
<path d="M37.2275 170.914C37.6314 172.708 37.7284 174.582 37.5183 176.522C37.4698 177.007 37.9869 177.459 38.4393 177.443C38.9887 177.427 39.2957 177.039 39.3603 176.522C39.5865 174.485 39.4573 172.417 39.0049 170.429C38.9079 169.96 38.3262 169.637 37.8738 169.782C37.3729 169.944 37.1144 170.413 37.2275 170.914Z" fill="#6D181D"/>
<path d="M20.7144 180.902C20.4558 182.47 20.0842 184.022 19.6318 185.541C19.4056 186.3 19.147 187.06 18.8562 187.82C18.7269 188.175 18.5815 188.547 18.4361 188.903C18.4199 188.951 18.323 189.177 18.3876 189.032C18.3553 189.129 18.3068 189.21 18.2745 189.29C18.1937 189.484 18.1129 189.662 18.016 189.856C17.3696 191.295 16.6102 192.701 15.7861 194.058C15.366 194.737 14.9298 195.416 14.4612 196.062C14.235 196.386 13.9926 196.709 13.7502 197.032C13.7017 197.097 13.6533 197.161 13.6048 197.226C13.4917 197.372 13.5725 197.258 13.6048 197.226C13.5725 197.258 13.5563 197.291 13.524 197.323C13.3947 197.485 13.2655 197.646 13.1362 197.808C12.0051 199.198 10.7771 200.507 9.45216 201.719C9.09668 202.042 9.09668 202.689 9.45216 203.012C9.82379 203.368 10.3732 203.368 10.7448 203.012C13.1524 200.798 15.2529 198.26 17.0142 195.513C18.7754 192.765 20.1811 189.775 21.183 186.672C21.7485 184.943 22.1848 183.165 22.4756 181.371C22.5564 180.902 22.3463 180.353 21.8293 180.24C21.393 180.143 20.779 180.369 20.6982 180.886L20.7144 180.902Z" fill="#6D181D"/>
<path d="M3.55564 179.237C4.10501 183.326 4.8806 187.383 5.86625 191.375C6.36715 193.379 6.91653 195.367 7.51438 197.338C8.09607 199.229 8.69392 201.137 9.45335 202.979C10.2289 204.854 11.1823 206.599 12.4588 208.167C13.6545 209.622 15.0602 210.866 16.4983 212.062C19.6814 214.697 22.9292 217.218 26.2255 219.707C29.5217 222.196 32.8826 224.636 36.2758 226.996C36.6959 227.287 37.1161 227.578 37.5362 227.869C37.9401 228.143 38.5703 227.949 38.7965 227.545C39.0389 227.077 38.8934 226.576 38.4733 226.285C35.0963 223.957 31.7677 221.565 28.4715 219.093C25.1914 216.636 22.1052 214.244 18.9059 211.642C17.4516 210.462 16.0135 209.282 14.7209 207.925C14.3977 207.585 14.1069 207.246 13.7999 206.89C13.7353 206.809 13.6706 206.729 13.606 206.648C13.5737 206.599 13.5252 206.551 13.4929 206.502C13.509 206.535 13.5898 206.615 13.4767 206.47C13.3313 206.276 13.202 206.082 13.0566 205.888C12.5234 205.112 12.071 204.272 11.6509 203.415C11.2469 202.559 10.9561 201.831 10.6167 200.862C10.2936 199.941 9.98657 199.019 9.67957 198.082C9.06556 196.126 8.50002 194.171 7.98296 192.183C6.965 188.239 6.14094 184.247 5.54309 180.207C5.4623 179.706 5.39766 179.205 5.33303 178.704C5.2684 178.219 4.63823 177.928 4.20196 178.057C3.66875 178.235 3.49101 178.671 3.55564 179.188V179.237Z" fill="#6D181D"/>
<path d="M9.95345 246.811C10.0019 246.585 10.0666 246.375 10.1473 246.165C10.115 246.245 10.0827 246.31 10.0504 246.391C10.1635 246.116 10.3251 245.858 10.5028 245.615C10.4544 245.68 10.4059 245.744 10.3574 245.809C10.5351 245.567 10.7614 245.356 10.9876 245.179C10.9229 245.227 10.8583 245.276 10.7937 245.324C10.9714 245.179 11.1653 245.066 11.3754 244.969C11.5693 244.872 11.747 244.629 11.7955 244.419C11.8601 244.193 11.8278 243.902 11.6985 243.708C11.5693 243.514 11.3915 243.336 11.1492 243.288C10.8906 243.223 10.6806 243.272 10.4382 243.385C9.29097 243.95 8.40227 245.098 8.1599 246.359C8.11143 246.601 8.12758 246.843 8.25685 247.07C8.36996 247.264 8.58001 247.441 8.80622 247.49C9.0486 247.538 9.30713 247.538 9.51718 247.393C9.71108 247.264 9.88882 247.07 9.93729 246.843L9.95345 246.811Z" fill="#996441"/>
<path d="M6.68984 244.92C6.68984 244.92 6.68984 244.759 6.706 244.678C6.706 244.759 6.68984 244.839 6.67368 244.92C6.706 244.678 6.78679 244.435 6.88374 244.209C6.85142 244.29 6.81911 244.355 6.78679 244.435C6.8999 244.193 7.02916 243.967 7.19074 243.757C7.14227 243.821 7.0938 243.886 7.04532 243.951C7.22306 243.724 7.41696 243.53 7.62701 243.369C7.56238 243.417 7.49775 243.466 7.43312 243.514C7.64317 243.353 7.86938 243.223 8.11176 243.126L7.88554 243.223C8.11176 243.126 8.33797 243.078 8.56418 243.029C8.48339 243.029 8.4026 243.045 8.32181 243.062C8.35413 243.062 8.37029 243.062 8.4026 243.062C8.66113 243.029 8.87119 242.981 9.04893 242.787C9.21051 242.625 9.32362 242.367 9.32362 242.14C9.32362 241.898 9.24282 241.656 9.04893 241.494C8.88735 241.332 8.62882 241.203 8.4026 241.219C7.88554 241.284 7.43312 241.397 6.96453 241.639C6.57674 241.833 6.22126 242.108 5.93041 242.431C5.28409 243.126 4.88013 243.999 4.83166 244.953C4.79934 245.437 5.26793 245.89 5.75267 245.874C6.26973 245.858 6.64137 245.47 6.67368 244.953L6.68984 244.92Z" fill="#996441"/>
<path d="M3.65018 240.587C3.84408 240.361 4.05414 240.167 4.29651 239.973C4.42577 239.876 4.16724 240.07 4.24803 240.006C4.28035 239.989 4.29651 239.957 4.32882 239.941C4.39346 239.892 4.44193 239.86 4.50656 239.828C4.63583 239.747 4.76509 239.666 4.91052 239.585C5.03978 239.521 5.16905 239.44 5.31447 239.391C5.28215 239.391 5.12057 239.472 5.23368 239.424C5.266 239.424 5.29831 239.391 5.33063 239.391C5.41142 239.359 5.47605 239.343 5.55684 239.311C5.84769 239.214 6.13853 239.149 6.44554 239.1C6.36475 239.1 6.28396 239.117 6.20317 239.133C6.23548 239.133 6.2678 239.133 6.30012 239.133C6.55865 239.1 6.7687 239.052 6.94644 238.858C7.10802 238.696 7.22113 238.438 7.22113 238.212C7.22113 237.969 7.14034 237.727 6.94644 237.565C6.78486 237.42 6.52633 237.274 6.30012 237.29C5.50837 237.387 4.76509 237.597 4.03798 237.969C3.40781 238.309 2.80996 238.761 2.34138 239.311C2.01821 239.666 1.95358 240.264 2.34138 240.604C2.69685 240.927 3.29471 240.991 3.63403 240.604L3.65018 240.587Z" fill="#996441"/>
<path d="M3.81303 236.257C5.86511 238.956 7.93335 241.671 9.98543 244.37C10.5671 245.13 11.1488 245.906 11.7305 246.665C12.0213 247.053 12.5384 247.28 12.9908 246.989C13.3625 246.746 13.6372 246.148 13.314 245.728C11.2619 243.029 9.19368 240.314 7.1416 237.615C6.55991 236.855 5.97821 236.079 5.39652 235.32C5.10567 234.932 4.58862 234.705 4.13619 234.996C3.76455 235.239 3.48986 235.837 3.81303 236.257Z" fill="#996441"/>
<path d="M8.41694 234.98C9.64496 237.178 11.1638 239.506 13.5714 240.508C14.9125 241.073 16.3829 240.993 17.7563 240.572C19.2752 240.087 20.7617 239.376 22.1998 238.665C23.7833 237.889 25.3183 237.049 26.8049 236.112C27.2088 235.853 27.4027 235.271 27.128 234.851C26.8695 234.447 26.304 234.253 25.8677 234.528C24.5912 235.32 23.2824 236.063 21.9413 236.742C21.295 237.081 20.6325 237.388 19.9538 237.695C19.2429 238.019 18.7097 238.245 18.0633 238.504C17.7402 238.633 17.4009 238.746 17.0777 238.843C16.9 238.891 16.7061 238.94 16.5283 238.988C16.4475 239.005 16.3667 239.021 16.3021 239.037C16.2536 239.037 16.2052 239.037 16.1567 239.053C16.2375 239.053 16.2375 239.053 16.1244 239.053C15.8012 239.069 15.4942 239.069 15.171 239.053C14.9287 239.037 15.3649 239.102 15.1387 239.053C15.0741 239.053 14.9933 239.021 14.9287 239.021C14.7994 238.988 14.654 238.956 14.5247 238.908C14.3954 238.859 14.2662 238.811 14.1369 238.762C14.3631 238.859 14.04 238.714 13.9753 238.681C13.7168 238.552 13.4583 238.39 13.2321 238.229C13.1836 238.196 13.1351 238.164 13.0866 238.116C13.2644 238.245 13.0866 238.116 13.0543 238.083C12.9412 237.986 12.8281 237.889 12.7312 237.792C12.5211 237.599 12.311 237.388 12.1171 237.162C12.0202 237.049 11.9233 236.936 11.8263 236.823C11.7778 236.758 11.7294 236.71 11.6809 236.645C11.6486 236.613 11.6162 236.564 11.5839 236.532C11.6486 236.613 11.6486 236.613 11.5839 236.532C11.39 236.273 11.1961 235.998 11.0184 235.724C10.6629 235.174 10.3236 234.625 10.0166 234.043C9.79038 233.623 9.17637 233.445 8.75626 233.72C8.33615 233.994 8.17457 234.528 8.4331 234.98H8.41694Z" fill="#996441"/>
<path d="M49.4774 229.695C49.6389 229.566 49.7844 229.436 49.946 229.307C50.0267 229.243 50.1075 229.178 50.1883 229.113C50.2206 229.081 50.253 229.065 50.2853 229.032C50.2853 229.032 50.4792 228.887 50.3984 228.952C50.3176 229.016 50.4307 228.919 50.4469 228.919C50.4792 228.887 50.5115 228.871 50.5438 228.838C50.6246 228.774 50.7054 228.725 50.7862 228.661C50.9639 228.531 51.1255 228.402 51.3032 228.289C51.9657 227.82 52.6444 227.368 53.3392 226.931C54.7288 226.075 56.183 225.315 57.6695 224.653C57.7665 224.604 57.8473 224.572 57.9442 224.539C57.9765 224.523 58.2351 224.41 58.0735 224.475C58.2512 224.394 58.4451 224.313 58.6229 224.248C59.0107 224.087 59.3984 223.941 59.7862 223.812C60.5457 223.537 61.3374 223.279 62.113 223.052C63.6803 222.6 65.28 222.261 66.8958 222.018C67.0089 222.002 67.122 221.986 67.2351 221.97C67.2351 221.97 67.0897 221.986 67.2028 221.97C67.2675 221.97 67.3482 221.953 67.4129 221.937C67.6229 221.905 67.833 221.889 68.0592 221.856C68.5116 221.808 68.9641 221.776 69.4326 221.743C70.3537 221.679 71.2908 221.663 72.228 221.663C72.7127 221.663 73.1652 221.242 73.149 220.741C73.1329 220.24 72.7451 219.836 72.228 219.82C68.851 219.772 65.4739 220.208 62.21 221.097C58.946 221.97 55.779 223.311 52.8867 225.04C51.2386 226.026 49.6551 227.141 48.1847 228.37C47.8131 228.677 47.8454 229.356 48.1847 229.663C48.5725 230.018 49.0896 229.986 49.4774 229.663V229.695Z" fill="#996441"/>
</g>
<defs>
<clipPath id="clip0_3943_5701">
<rect width="224" height="284" fill="white"/>
</clipPath>
</defs>
</svg>
