<svg width="306" height="119" viewBox="0 0 306 119" fill="none" xmlns="http://www.w3.org/2000/svg">
<path d="M50.236 90L52.236 90.544C50.3 96.416 46.62 99.696 40.748 101.424C40.54 100.96 39.948 100.064 39.58 99.616C45.244 98.208 48.636 95.328 50.236 90ZM44.06 90.112C45.708 94.816 49.228 98.224 54.844 99.52C54.396 99.936 53.836 100.784 53.532 101.312C47.66 99.744 44.284 96.096 42.268 90.672L44.06 90.112ZM39.884 89.104H54.54V90.992H39.884V89.104ZM45.772 86.848L47.82 86.24C48.236 86.992 48.732 88.016 48.908 88.688L46.732 89.36C46.588 88.704 46.172 87.648 45.772 86.848ZM63.164 93.744H71.292V95.392H63.164V93.744ZM65.916 92.208H67.676V99.536C67.676 100.384 67.532 100.832 66.972 101.088C66.428 101.344 65.66 101.376 64.62 101.376C64.556 100.896 64.332 100.192 64.124 99.728C64.748 99.76 65.436 99.76 65.644 99.76C65.852 99.76 65.916 99.696 65.916 99.504V92.208ZM69.708 86.544L70.988 87.808C68.988 88.448 66.14 88.832 63.708 88.992C63.66 88.624 63.436 88.016 63.244 87.664C65.548 87.456 68.188 87.056 69.708 86.544ZM63.884 91.392H70.412V97.824H63.772V96.304H68.828V92.912H63.884V91.392ZM63.532 89.632L64.86 89.104C65.276 89.68 65.676 90.496 65.868 91.024L64.46 91.648C64.316 91.088 63.916 90.256 63.532 89.632ZM65.9 89.136L67.324 88.832C67.612 89.504 67.852 90.4 67.948 90.96L66.444 91.312C66.38 90.736 66.14 89.808 65.9 89.136ZM69.18 88.56L70.748 88.944C70.364 89.824 69.964 90.688 69.628 91.296L68.204 90.912C68.54 90.272 68.956 89.264 69.18 88.56ZM56.652 87.712H63.18V89.056H56.652V87.712ZM57.084 89.648H62.748V90.928H57.084V89.648ZM56.444 91.568H63.372V92.944H56.444V91.568ZM58.044 95.616H62.044V96.864H58.044V95.616ZM58.028 97.584H62.028V98.848H58.028V97.584ZM59.116 86.416H60.892V92.304H59.116V86.416ZM61.084 93.52H62.684V99.696C62.684 100.416 62.556 100.832 62.06 101.072C61.58 101.328 60.924 101.328 59.98 101.328C59.9 100.912 59.66 100.288 59.436 99.888C60.028 99.92 60.652 99.904 60.828 99.904C61.02 99.904 61.084 99.856 61.084 99.68V93.52ZM57.948 93.52H61.836V94.896H57.948V93.52ZM57.116 93.52H58.732V96.832C58.732 98.32 58.54 100.272 57.532 101.488C57.308 101.152 56.652 100.496 56.332 100.272C57.052 99.28 57.116 97.936 57.116 96.784V93.52Z" fill="#F6927F"/>
<path d="M242.732 87.392H248.924V89.136H242.732V87.392ZM242.092 93.008H250.684V94.832H242.092V93.008ZM245.484 91.488H247.468V99.376C247.468 100.352 247.26 100.848 246.604 101.136C245.932 101.408 245.036 101.456 243.772 101.456C243.676 100.912 243.388 100.128 243.132 99.616C243.932 99.648 244.876 99.648 245.132 99.648C245.388 99.648 245.484 99.568 245.484 99.344V91.488ZM248.188 87.392H248.7L249.148 87.296L250.444 88.224C249.468 89.712 248.044 91.488 246.556 92.56C246.316 92.24 245.788 91.744 245.484 91.488C246.572 90.544 247.692 88.864 248.188 87.808V87.392ZM235.932 95.136L237.084 93.808C238.844 95.296 241.436 97.472 242.62 98.848L241.356 100.448C240.22 99.008 237.724 96.752 235.932 95.136ZM235.932 95.136C236.54 92.928 237.164 89.296 237.34 86.448L239.244 86.544C238.972 89.568 238.3 93.296 237.676 95.728L235.932 95.136ZM239.996 88.688H241.788V90.496C241.788 93.568 241.356 98.288 236.972 101.488C236.7 101.072 236.044 100.432 235.628 100.128C239.644 97.328 239.996 93.152 239.996 90.464V88.688ZM235.612 89.888C237.436 89.824 240.108 89.696 242.636 89.552L242.62 91.264C240.22 91.44 237.66 91.6 235.788 91.712L235.612 89.888ZM252.748 96.768H260.22V98.128H252.748V96.768ZM252.38 89.152H260.38V90.544H252.38V89.152ZM255.564 88.016H257.292V99.488H255.564V88.016ZM252.3 99.312C254.284 99.168 257.34 98.944 260.22 98.688L260.236 100.144C257.516 100.432 254.604 100.72 252.524 100.912L252.3 99.312ZM254.332 94.208V94.944H258.556V94.208H254.332ZM254.332 92.368V93.088H258.556V92.368H254.332ZM252.796 91.168H260.14V96.144H252.796V91.168ZM259.356 86.496L260.204 87.936C258.156 88.352 255.244 88.592 252.844 88.64C252.78 88.256 252.604 87.648 252.428 87.28C254.812 87.168 257.596 86.88 259.356 86.496ZM260.38 90.032H265.916V91.792H260.38V90.032ZM265.148 90.032H266.988C266.988 90.032 266.972 90.656 266.972 90.88C266.828 97.472 266.7 99.808 266.172 100.528C265.82 101.072 265.452 101.248 264.924 101.344C264.428 101.44 263.676 101.44 262.924 101.408C262.876 100.88 262.668 100.096 262.364 99.584C263.052 99.648 263.66 99.648 263.98 99.648C264.22 99.648 264.38 99.6 264.524 99.376C264.892 98.896 265.02 96.64 265.148 90.448V90.032ZM261.916 86.688H263.756C263.74 93.52 263.724 98.656 260.028 101.568C259.756 101.104 259.132 100.448 258.7 100.128C262.076 97.552 261.9 93.072 261.916 86.688Z" fill="#F6927F"/>
<path opacity="0.4" d="M154.721 112.508C153.711 113.166 152.599 112.508 152.599 112.508L74.1372 78.0613C67.4949 75.0064 75.7978 49.6003 89.0824 49.6003L216.116 49.6003C229.401 49.6003 237.704 75.0064 231.062 78.0613L154.721 112.508Z" fill="#FFEE75"/>
<path fill-rule="evenodd" clip-rule="evenodd" d="M217.235 80.8839C205.226 77.8805 177.738 57.647 152.716 57.498C122.936 57.3207 93.1162 80.884 74.0529 80.0312C58.8132 79.3496 50.005 73.9812 58.0266 52.6037C66.1072 31.0691 87.4929 13.811 115.509 5.4566C143.582 -2.91485 175.695 -1.73727 202.327 9.57311C228.686 20.7673 247.404 40.6244 250.564 62.8138C254.568 90.9278 230.009 84.0788 217.235 80.8839Z" fill="#FFEE75"/>
<path d="M214.301 67.336C215.92 66.3447 216.821 67.631 215.336 68.8137L160.773 112.259C160.035 112.847 159.12 112.974 158.81 112.532L153.886 105.5C153.577 105.058 154.009 104.242 154.814 103.749L214.301 67.336Z" fill="#F26348"/>
<path fill-rule="evenodd" clip-rule="evenodd" d="M153.667 103.205C155.889 103.152 158.227 103.476 159.813 104.989C161.41 106.512 161.842 108.786 161.798 110.96C161.755 113.084 161.168 115.243 159.575 116.7C158.021 118.121 155.801 118.449 153.667 118.394C151.6 118.341 149.613 117.733 148.064 116.404C146.405 114.981 145.051 113.109 145.002 110.96C144.953 108.774 146.159 106.755 147.814 105.274C149.402 103.853 151.51 103.256 153.667 103.205Z" fill="#F6927F"/>
</svg>
