<svg width="306" height="119" viewBox="0 0 306 119" fill="none" xmlns="http://www.w3.org/2000/svg">
<path d="M50.808 86.48L52.616 87.04C51.592 89.776 49.928 92.656 48.184 94.48C48.008 94.016 47.48 92.96 47.16 92.496C48.616 91.04 49.992 88.768 50.808 86.48ZM49.24 90.896L51.064 89.072L51.08 89.088V101.424H49.24V90.896ZM54.328 92.352H62.28V94.128H54.328V92.352ZM60.488 86.336L61.912 87.776C59.528 88.608 56.28 89.2 53.448 89.568C53.368 89.136 53.112 88.464 52.904 88.064C55.64 87.68 58.648 87.04 60.488 86.336ZM57.464 88.4H59.208C59.32 94.048 60.168 99.088 60.952 99.104C61.176 99.104 61.336 98.4 61.416 97.104C61.704 97.472 62.408 97.936 62.696 98.08C62.312 100.624 61.592 101.248 60.952 101.248C58.6 101.232 57.704 95.744 57.464 88.4ZM52.808 99.92L52.648 98.368L53.4 97.808L57.288 96.896C57.24 97.392 57.256 98.112 57.304 98.512C53.816 99.456 53.208 99.68 52.808 99.92ZM52.808 99.92C52.712 99.504 52.408 98.768 52.136 98.416C52.488 98.256 52.904 97.936 52.904 97.28V88.064L54.696 88.56V98.48C54.696 98.48 52.808 99.328 52.808 99.92ZM54.424 99.504H58.744V101.056H54.424V99.504Z" fill="#F6927F"/>
<path d="M243.864 87.904H258.056V89.52H243.864V87.904ZM247.912 91.424V92.288H254.136V91.424H247.912ZM245.992 90.128H256.168V93.584H245.992V90.128ZM244.312 94.224H257.144V95.792H246.168V101.44H244.312V94.224ZM255.768 94.224H257.704V99.68C257.704 100.512 257.496 100.88 256.888 101.104C256.296 101.312 255.432 101.328 254.312 101.312C254.216 100.88 253.96 100.304 253.736 99.92C254.376 99.968 255.24 99.952 255.448 99.952C255.672 99.936 255.768 99.888 255.768 99.68V94.224ZM249.672 86.784L251.64 86.304C251.928 86.976 252.296 87.904 252.456 88.448L250.376 89.024C250.248 88.448 249.912 87.488 249.672 86.784ZM248.44 96.368H254.392V99.952H248.44V98.624H252.696V97.696H248.44V96.368ZM247.384 96.368H249.16V100.608H247.384V96.368Z" fill="#F6927F"/>
<path opacity="0.4" d="M154.721 112.508C153.711 113.166 152.599 112.508 152.599 112.508L74.1372 78.0613C67.4949 75.0064 75.7978 49.6003 89.0824 49.6003L216.116 49.6003C229.401 49.6003 237.704 75.0064 231.062 78.0613L154.721 112.508Z" fill="#FFEE75"/>
<path fill-rule="evenodd" clip-rule="evenodd" d="M217.235 80.8839C205.226 77.8805 177.738 57.647 152.716 57.498C122.936 57.3207 93.1162 80.884 74.0529 80.0312C58.8132 79.3496 50.005 73.9812 58.0266 52.6037C66.1072 31.0691 87.4929 13.811 115.509 5.4566C143.582 -2.91485 175.695 -1.73727 202.327 9.57311C228.686 20.7673 247.404 40.6244 250.564 62.8138C254.568 90.9278 230.009 84.0788 217.235 80.8839Z" fill="#FFEE75"/>
<path d="M152.498 39.8222C152.615 37.9271 154.185 37.9271 154.302 39.8222L158.595 109.437C158.653 110.379 158.233 111.201 157.693 111.201H149.108C148.568 111.201 148.147 110.379 148.206 109.437L152.498 39.8222Z" fill="#F26348"/>
<path fill-rule="evenodd" clip-rule="evenodd" d="M153.666 103.206C155.888 103.153 158.226 103.477 159.812 104.99C161.409 106.513 161.841 108.787 161.797 110.961C161.754 113.085 161.167 115.244 159.574 116.701C158.02 118.122 155.8 118.45 153.666 118.395C151.599 118.342 149.612 117.734 148.063 116.405C146.404 114.982 145.05 113.11 145.001 110.961C144.953 108.775 146.158 106.756 147.813 105.275C149.401 103.854 151.509 103.257 153.666 103.206Z" fill="#F6927F"/>
</svg>
