<svg width="664" height="610" viewBox="0 0 664 610" fill="none" xmlns="http://www.w3.org/2000/svg">
<g opacity="0.3">
<path fill-rule="evenodd" clip-rule="evenodd" d="M34.0192 217.755C34.2872 217 35.2088 216.64 36.0814 216.95C333.942 322.785 443.402 361.182 550.497 397.33M34.0192 217.755C33.7512 218.51 34.2375 219.377 35.1073 219.694L34.0192 217.755ZM35.1073 219.694C73.1359 233.582 110.669 247.17 147.858 260.516L35.1073 219.694ZM550.502 397.332C550.503 397.332 550.504 397.332 550.504 397.332C551.384 397.629 551.896 398.49 551.649 399.255C551.401 400.019 550.486 400.399 549.606 400.103C529.812 393.442 510.078 386.771 490.378 380.082C510.05 387.192 529.624 394.341 549.118 401.551C549.979 401.87 550.462 402.728 550.202 403.479C549.942 404.23 549.035 404.596 548.165 404.302C383.227 348.587 222.431 291.201 54.6409 231.319L43.2217 227.244L43.2104 227.24C42.3374 226.928 41.8433 226.063 42.1055 225.305C42.3676 224.547 43.2872 224.181 44.1622 224.488C79.2697 236.772 113.811 248.751 147.858 260.516M32.2767 212.459C32.5355 211.699 33.4547 211.33 34.3312 211.634C34.3334 211.635 34.3355 211.636 34.3376 211.637C57.9681 219.845 80.4102 227.674 101.754 235.147C119.076 241.161 137.581 247.574 157.092 254.335C195.779 267.742 238.42 282.52 283.624 298.269C211.54 272.93 130.686 244.314 34.8194 210.186C33.948 209.876 33.453 209.014 33.7112 208.257C33.9694 207.499 34.884 207.13 35.7588 207.43C139.61 243.078 229.95 275.082 314.256 304.999C318.445 306.485 322.619 307.967 326.779 309.443C396.738 334.271 462.741 357.695 529.16 380.627C538.307 383.776 547.434 386.915 556.564 390.051C557.442 390.353 557.949 391.216 557.695 391.979C557.442 392.742 556.525 393.116 555.646 392.815C555.645 392.815 555.645 392.815 555.644 392.815M528.254 383.395C483.968 368.149 439.216 352.658 391.473 336.021C444.833 354.8 500.018 374.392 555.155 394.26C556.013 394.569 556.505 395.415 556.263 396.167C556.021 396.918 555.134 397.302 554.264 397.032C497.194 379.325 439.99 358.775 350.169 326.508C286.97 303.804 207.624 275.3 100.815 237.904C75.6671 229.173 53.0112 221.283 33.3926 214.391C32.5171 214.083 32.0178 213.219 32.2767 212.459M528.254 383.395C537.369 386.542 546.492 389.68 555.635 392.811L528.254 383.395ZM47.0202 231.731C47.284 230.975 48.2022 230.611 49.0754 230.917C213.498 288.429 333.288 330.376 444.065 369.301C479.409 381.489 511.966 392.858 544.496 404.633C545.367 404.948 545.856 405.814 545.591 406.57C545.326 407.326 544.406 407.689 543.532 407.381C510.228 395.65 477.103 383.997 443.131 372.059C425.866 366.106 407.934 359.956 389.01 353.466C375.639 348.881 361.774 344.126 347.299 339.15C270.413 312.721 176.372 280.085 48.1157 233.666C47.2457 233.351 46.7563 232.487 47.0202 231.731ZM31.9718 202.952C32.2271 202.189 33.1457 201.817 34.0239 202.119C169.459 248.799 267.628 282.692 346.427 310.228C328.282 303.836 309.989 297.388 291.531 290.881C223.986 267.273 140.065 237.865 31.3494 199.563C30.4743 199.255 29.976 198.39 30.2355 197.63C30.4951 196.87 31.4145 196.502 32.2908 196.807C122.719 228.284 208.098 258.382 290.176 287.316C290.939 287.585 291.703 287.854 292.466 288.123C330.655 301.471 363.611 312.965 392.855 323.164C462.649 347.506 511.297 364.473 559.459 381.657C560.33 381.968 560.825 382.831 560.565 383.589C560.305 384.346 559.388 384.714 558.514 384.411C515.186 369.429 471.429 354.15 426.935 338.539C475 355.571 516.49 370.551 558.042 385.863C558.91 386.183 559.393 387.049 559.123 387.803C558.854 388.557 557.933 388.915 557.061 388.605C390.765 329.437 217.71 268.681 33.1007 204.882C33.099 204.881 33.1009 204.882 33.0992 204.881C32.2212 204.578 31.7166 203.714 31.9718 202.952ZM51.9314 238.167C52.189 237.407 53.1056 237.037 53.9816 237.339C137.123 265.979 284.331 317.787 444.221 374.057C475.741 385.15 507.754 396.416 539.866 407.712C540.739 408.02 541.238 408.881 540.982 409.64C540.727 410.399 539.813 410.771 538.937 410.473C413.645 367.761 288.36 323.381 171.859 282.113C131.051 267.657 91.321 253.583 53.0461 240.097C52.1722 239.789 51.6738 238.926 51.9314 238.167ZM28.5004 192.306C28.7665 191.548 29.6896 191.186 30.5638 191.497C172.549 241.946 350.127 303.914 535.504 368.602C545.004 371.917 554.523 375.239 564.06 378.567C564.936 378.873 565.437 379.736 565.181 380.497C564.924 381.258 564.006 381.629 563.129 381.327C369.55 314.612 177.204 247.353 29.5985 194.244C28.7254 193.93 28.2342 193.063 28.5004 192.306ZM60.0266 245.691C60.2925 244.941 61.2049 244.579 62.0745 244.881C207.192 295.155 373.551 352.974 535.263 410.804C536.132 411.115 536.626 411.974 536.369 412.731C536.113 413.487 535.202 413.858 534.328 413.562C495.215 400.292 456.147 387.028 417.181 373.716C458.443 388.112 496.213 401.419 533.83 415.006C534.691 415.317 535.182 416.168 534.934 416.92C534.687 417.673 533.792 418.051 532.92 417.772C520.733 413.867 508.587 409.863 496.338 405.733C507.35 409.816 518.304 413.931 529.249 418.103C530.109 418.431 530.581 419.297 530.307 420.045C530.033 420.793 529.115 421.146 528.247 420.837C512.194 415.118 496.181 409.388 479.475 403.411C430.24 385.796 374.994 366.029 295.017 338.03C290.526 336.493 285.997 334.943 281.429 333.379C219.2 312.08 149.581 288.251 67.7854 259.378C66.9123 259.07 66.4145 258.207 66.6716 257.448C66.9286 256.69 67.8439 256.319 68.7197 256.62C163.265 289.055 236.433 314.435 295.921 335.261C315.658 342.018 334.664 348.532 353.101 354.887C350.176 353.826 347.228 352.757 344.254 351.679C339.172 349.836 334.017 347.968 328.784 346.073C257.81 321.437 174 292.311 66.0461 254.066C65.1759 253.757 64.6792 252.898 64.933 252.141C65.1869 251.383 66.0965 251.01 66.9714 251.304C84.3137 257.138 100.994 262.795 117.061 268.284C98.3468 261.444 79.6916 254.56 61.1023 247.625C60.2399 247.304 59.7607 246.442 60.0266 245.691ZM29.9365 188.113C30.1981 187.353 31.1204 186.987 31.9968 187.295C47.5408 192.762 62.8452 198.153 77.9264 203.473C268.488 270.568 394.029 314.441 509.316 354.731C528.24 361.344 546.887 367.86 565.499 374.367C566.373 374.673 566.874 375.533 566.621 376.293C566.367 377.053 565.455 377.427 564.578 377.13C453.18 339.421 340.621 299.548 213.917 254.663C170.119 239.148 124.632 223.035 76.9181 206.205C62.0392 200.966 46.7639 195.586 31.0663 190.054C31.0611 190.053 31.0558 190.051 31.0506 190.049C31.0502 190.049 31.0498 190.049 31.0495 190.049C30.1732 189.74 29.675 188.873 29.9365 188.113ZM234.434 546.731C234.706 545.992 235.607 545.638 236.468 545.932C243.869 548.457 252.437 551.609 261.895 555.088C279.498 561.564 300.182 569.173 322.159 575.979C323.021 576.246 323.558 577.058 323.377 577.82C323.195 578.581 322.359 579.02 321.482 578.814C316.688 577.689 311.847 576.402 306.758 574.898C310.405 576.27 314.06 577.678 317.688 579.116C318.494 579.436 318.955 580.233 318.752 580.957C318.548 581.68 317.748 582.093 316.902 581.91C299.172 578.068 281.767 571.772 240.372 555.087C239.527 554.746 239.074 553.887 239.351 553.149C239.628 552.411 240.534 552.062 241.394 552.362C245.452 553.775 250.685 555.508 256.743 557.514C259.156 558.313 261.699 559.156 264.352 560.039C255.798 556.747 246.273 552.985 235.462 548.663C234.617 548.326 234.162 547.47 234.434 546.731ZM31.3743 183.909C31.6378 183.153 32.5548 182.79 33.4278 183.094C50.1494 188.924 66.4041 194.591 82.2244 200.107C134.529 218.342 182.088 234.922 226.082 250.276C230.409 251.749 234.738 253.221 239.068 254.693C204.931 242.617 172.763 231.183 143.273 220.678C108.29 208.275 71.9351 195.307 33.9221 181.648M225.31 253.091C361.261 300.537 463.172 336.265 565.985 372.921C566.853 373.23 567.771 372.877 568.045 372.128C568.319 371.379 567.846 370.513 566.985 370.186C550.922 364.081 534.819 358.065 518.686 352.125C534.923 357.677 551.195 363.219 567.452 368.73C568.329 369.028 569.242 368.654 569.496 367.894C569.749 367.133 569.248 366.273 568.374 365.968C524.447 350.626 480.389 335.345 435.141 319.651C345.576 288.587 251.35 255.906 144.258 217.937C116.198 207.941 90.5621 198.784 67.9624 190.711C56.0636 186.461 45.0064 182.512 34.88 178.898C34.0055 178.586 33.0812 178.947 32.8144 179.705C32.5476 180.463 33.0392 181.331 33.913 181.645C33.9144 181.646 33.9157 181.646 33.9171 181.647M225.31 253.091C160.647 231.084 96.2177 208.966 32.4686 185.843C31.5995 185.528 31.1108 184.664 31.3743 183.909M244.274 559.554C244.567 558.821 245.483 558.487 246.34 558.802C248.553 559.616 250.682 560.4 252.733 561.155C263.083 564.963 271.429 568.034 278.431 570.583C283.749 572.391 289.231 574.222 294.755 576.066C301.908 578.455 309.133 580.868 316.164 583.285C317.026 583.582 317.532 584.419 317.308 585.175C317.083 585.93 316.209 586.331 315.335 586.077C304.227 582.86 295.021 579.72 277.475 573.334C265.469 569.251 254.248 565.268 245.261 561.506C244.42 561.154 243.982 560.288 244.274 559.554ZM235.888 542.491C236.19 541.75 237.129 541.424 237.99 541.763C255.359 548.59 272.066 554.509 288.138 559.984C291.171 560.959 294.039 561.862 296.758 562.708C299.102 563.437 301.341 564.126 303.484 564.785C314.581 568.2 323.089 570.819 330.186 574.098C330.992 574.471 331.395 575.316 331.105 576.029C330.816 576.742 329.934 577.075 329.092 576.791C323.306 574.836 317.419 572.874 311.431 570.878C303.548 568.251 295.49 565.566 287.258 562.761C274.008 558.501 257.63 552.854 236.893 544.46C236.035 544.113 235.586 543.233 235.888 542.491ZM249.171 566.026C249.428 565.302 250.29 564.935 251.14 565.19C264.35 569.14 281.97 575.524 302.074 583.047C302.908 583.359 303.388 584.179 303.169 584.918C302.949 585.657 302.107 586.059 301.247 585.835C285.901 581.845 273.761 577.874 250.172 567.93C249.353 567.585 248.915 566.751 249.171 566.026ZM81.1165 267.21C81.3795 266.451 82.3014 266.086 83.1768 266.394C101.004 272.675 119.716 279.308 139.17 286.224C201.838 308.331 263.331 329.761 324.107 350.94C391.608 374.464 458.227 397.679 524.593 421.175C525.463 421.483 525.96 422.342 525.706 423.099C525.453 423.857 524.544 424.231 523.669 423.937C487.258 411.714 450.644 399.18 414.374 386.606C450.553 399.263 485.451 411.648 519.997 424.267C520.865 424.584 521.352 425.448 521.087 426.203C520.821 426.957 519.904 427.319 519.032 427.014C493.316 418.011 467.549 408.999 440.924 399.686C376.483 377.147 307.008 352.846 221.029 322.654C182.23 309.029 140.069 294.204 93.4944 277.799L93.9684 276.423L94.4487 275.048C139.836 291.21 182.061 306.012 221.869 319.862M221.869 319.862C253.195 330.761 283.025 341.071 311.719 350.987C332.443 358.149 352.574 365.107 372.25 371.934C309.368 349.939 248.188 328.142 191.639 307.994C173.297 301.46 155.442 295.098 138.174 288.96C119.627 282.417 100.98 275.816 82.2232 269.146C81.3486 268.835 80.8535 267.968 81.1165 267.21M234.118 537.262C234.362 536.513 235.246 536.132 236.114 536.4C278.843 549.612 303.656 558.876 324.114 566.832C327.683 568.166 331.2 569.536 334.721 570.979C335.575 571.329 336.02 572.207 335.718 572.947C335.415 573.686 334.478 574.011 333.619 573.674C333.053 573.453 332.486 573.231 331.917 573.008C329.033 571.878 326.099 570.728 323.069 569.55C313.675 566.039 303.889 562.77 292.636 559.035C291.982 558.817 291.323 558.599 290.659 558.378C275.597 553.38 257.915 547.512 235.213 539.169C234.359 538.855 233.874 538.01 234.118 537.262ZM232.374 531.965C232.608 531.211 233.488 530.82 234.36 531.082C244.855 534.232 254.158 537.148 262.536 539.875C252.345 536.316 242.062 532.577 231.7 528.529C230.861 528.201 230.397 527.361 230.647 526.623C230.896 525.884 231.772 525.51 232.632 525.773C240.468 528.168 248.377 530.626 256.35 533.167C256.143 533.089 255.937 533.011 255.73 532.933C247.712 529.902 239.171 526.672 229.986 523.224C229.128 522.902 228.65 522.045 228.912 521.296C229.174 520.548 230.078 520.183 230.947 520.476C261.528 530.791 286.981 539.863 311.224 548.503C325.907 553.737 340.146 558.812 354.812 563.909C355.663 564.205 356.166 565.029 355.954 565.78C355.742 566.531 354.89 566.941 354.021 566.711C348.585 565.276 343.227 563.756 337.848 562.136C340.938 563.376 344.033 564.638 347.132 565.923C347.978 566.274 348.42 567.144 348.124 567.88C347.828 568.616 346.904 568.947 346.046 568.624C329.424 562.368 312.457 556.706 295.157 550.933C293.438 550.359 291.715 549.784 289.989 549.207C289.317 548.983 288.644 548.758 287.97 548.532C300.088 552.85 310.125 556.712 319.723 560.406C327.3 563.321 334.602 566.131 342.437 568.976C343.305 569.292 343.794 570.154 343.531 570.909C343.269 571.664 342.355 572.029 341.482 571.727C315.908 562.883 292.468 554.665 233.498 533.863C232.639 533.56 232.14 532.718 232.374 531.965ZM34.2478 175.513C34.5098 174.754 35.4308 174.389 36.3063 174.696C98.2027 196.415 160.361 218.115 222.635 239.856C338.27 280.226 454.307 320.736 569.818 361.769C570.688 362.078 571.184 362.938 570.929 363.696C570.673 364.453 569.762 364.825 568.887 364.529C430.74 317.751 292.591 268.729 37.5461 178.226L35.3646 177.452C35.364 177.451 35.3633 177.451 35.3627 177.451L35.3562 177.449C34.4817 177.138 33.9858 176.272 34.2478 175.513ZM227.195 515.926C227.493 515.187 228.424 514.859 229.284 515.189C256.623 525.691 279.563 533.945 300.763 541.239C307.908 543.625 314.962 545.948 321.889 548.229C333.768 552.141 345.277 555.931 356.243 559.709C357.116 560.009 357.622 560.864 357.377 561.625C357.132 562.386 356.227 562.767 355.35 562.481C336.981 556.479 319.154 550.645 299.887 544.017C276.584 536.235 252.254 527.762 228.192 517.888C227.341 517.539 226.896 516.664 227.195 515.926ZM32.5034 170.216C32.7525 169.46 33.6548 169.082 34.5289 169.369C58.2729 177.143 84.6838 185.981 113.249 195.687C88.197 186.773 62.1795 177.534 35.0579 167.935C34.1837 167.625 33.6869 166.761 33.947 166.002C34.2071 165.243 35.126 164.875 36.0017 165.18C287.524 252.706 430.364 302.787 572.693 353.37C573.56 353.678 574.056 354.533 573.806 355.289C573.556 356.045 572.653 356.422 571.779 356.135C552.186 349.696 532.672 343.188 513.07 336.569C532.449 343.548 551.872 350.558 571.267 357.573C572.141 357.889 572.63 358.758 572.361 359.515C572.091 360.273 571.164 360.631 570.29 360.316C484.612 329.428 396.958 299.003 301.843 265.988C219.257 237.322 131.046 206.704 33.6176 172.134C32.7505 171.827 32.2542 170.972 32.5034 170.216ZM225.414 510.731C225.638 509.963 226.531 509.561 227.414 509.83C237.677 512.952 247.742 516.278 257.663 519.715C266.895 522.795 275.396 525.693 283.312 528.441C283.191 528.397 283.07 528.353 282.948 528.309C267.597 523.007 249.61 516.575 227.941 508.395C227.077 508.069 226.602 507.202 226.877 506.451C227.151 505.701 228.073 505.348 228.942 505.661C248.697 512.768 265.505 518.874 280.047 524.156C281.359 524.633 282.654 525.103 283.93 525.566C295.265 529.481 305.161 532.777 314.043 535.706C316.841 536.628 319.539 537.515 322.152 538.373C339.039 543.92 352.334 548.288 365.557 553.568C366.383 553.898 366.841 554.727 366.6 555.458C366.36 556.19 365.505 556.572 364.65 556.33C354.006 553.318 342.672 549.615 328.463 544.654C332.521 546.152 336.461 547.613 340.327 549.047C347.337 551.647 354.103 554.157 360.888 556.632C361.747 556.946 362.235 557.796 361.986 558.547C361.737 559.298 360.843 559.675 359.972 559.396C339.783 552.923 319.889 545.544 299.811 538.097C297.945 537.405 296.078 536.712 294.209 536.02C281.856 531.443 269.413 526.868 256.751 522.481C247.488 519.391 237.487 516.117 226.598 512.627C225.719 512.345 225.19 511.499 225.414 510.731ZM225.121 501.188C225.361 500.434 226.249 500.049 227.122 500.32C238.247 503.776 248.459 506.975 257.879 509.959C249.024 506.74 240.237 503.53 231.539 500.353C229.181 499.492 226.829 498.633 224.485 497.777C223.615 497.46 223.129 496.594 223.396 495.839C223.663 495.084 224.584 494.723 225.456 495.032C234.171 498.114 243.192 501.313 252.461 504.601C290.304 518.023 332.304 532.918 374.689 547.36C375.561 547.658 376.071 548.51 375.831 549.271C375.591 550.032 374.692 550.419 373.814 550.138C368.046 548.296 362.265 546.416 356.476 544.506C361.207 546.491 365.752 548.478 370.25 550.515C371.059 550.881 371.47 551.724 371.187 552.44C370.905 553.156 370.027 553.496 369.183 553.218C334.105 541.652 301.5 529.99 261.816 515.797C250.594 511.783 238.807 507.567 226.237 503.094C225.376 502.787 224.88 501.941 225.121 501.188ZM103.64 284.537C103.889 283.774 104.803 283.396 105.682 283.693C193.921 313.455 286.605 346.341 380.859 379.785C425.444 395.605 470.38 411.549 515.362 427.346C516.232 427.652 516.732 428.508 516.483 429.265C516.234 430.023 515.33 430.402 514.454 430.114C500.979 425.68 487.525 421.198 474.129 416.688C486.563 421.279 498.686 425.827 510.798 430.45C511.658 430.778 512.129 431.643 511.855 432.391C511.581 433.139 510.664 433.492 509.796 433.184C421.68 401.816 333.506 371.049 241.338 338.889C200.468 324.628 158.813 310.093 116.029 295.11C115.154 294.804 114.654 293.941 114.911 293.18C115.168 292.42 116.085 292.049 116.962 292.351C160.104 307.22 198.223 320.318 232.328 332.037C240.184 334.736 247.827 337.363 255.27 339.921C248.753 337.578 242.314 335.263 235.959 332.978C186.077 315.04 141.394 298.972 104.776 286.461C103.898 286.161 103.39 285.3 103.64 284.537ZM38.558 162.917C38.8151 162.16 39.7276 161.79 40.6021 162.088C173.962 207.544 273.309 242.615 355.938 272.033C373.872 278.418 391.018 284.537 407.552 290.437C467.196 311.721 518.882 330.165 570.925 348.046M38.558 162.917C38.3009 163.674 38.7954 164.535 39.6658 164.845L38.558 162.917ZM39.6658 164.845C304.729 259.349 437.35 305.654 570.021 350.814L39.6658 164.845ZM570.93 348.047C570.931 348.048 570.933 348.048 570.935 348.049C571.813 348.351 572.319 349.212 572.067 349.975C571.815 350.738 570.899 351.113 570.021 350.814M224.847 491.605C225.131 490.87 226.041 490.527 226.899 490.833C246.526 497.825 266.04 504.471 285.44 511.078C290.374 512.759 295.3 514.437 300.219 516.117C275.741 507.451 250.637 498.209 224.167 488.256C223.313 487.935 222.836 487.082 223.092 486.335C223.349 485.588 224.246 485.219 225.113 485.503C283.807 504.726 318.376 517.418 345.568 527.401C358.344 532.091 369.492 536.184 380.748 540.075C381.616 540.375 382.121 541.224 381.882 541.983C381.643 542.741 380.748 543.129 379.872 542.853C365.427 538.303 351.052 533.598 336.585 528.709C338.119 529.251 339.651 529.793 341.183 530.338C353 534.402 364.729 538.64 376.217 543.193C377.076 543.533 377.533 544.408 377.241 545.152C376.949 545.897 376.016 546.232 375.153 545.903C363.567 541.495 351.953 537.256 340.301 533.114C327.694 528.778 314.966 524.634 302.288 520.507C301.41 520.221 300.533 519.935 299.656 519.65C274.312 511.397 249.209 503.158 225.851 493.549C225.008 493.202 224.564 492.34 224.847 491.605ZM39.9952 158.714C40.2552 157.956 41.1718 157.589 42.0466 157.892C192.045 209.797 302.89 248.819 398.999 282.744C467.745 306.421 519.847 324.429 572.416 343.864C573.282 344.184 573.764 345.048 573.497 345.801C573.23 346.553 572.314 346.913 571.443 346.608C526.392 330.815 481.599 314.998 433.703 298.085C422.017 293.958 410.146 289.766 398.041 285.494C394.562 284.295 391.04 283.083 387.473 281.854C305.117 253.493 198.808 216.883 41.1016 160.646C40.2297 160.335 39.7353 159.472 39.9952 158.714ZM224.52 482.161C224.764 481.4 225.668 481.017 226.545 481.302C260.171 492.242 288.481 502.435 313.682 511.616C313.859 511.681 314.036 511.745 314.213 511.81C326.413 516.117 337.059 519.901 346.849 523.381C359.56 527.899 370.83 531.905 382.19 535.878C383.06 536.182 383.561 537.036 383.314 537.794C383.068 538.553 382.166 538.933 381.29 538.648C362.492 532.526 343.014 525.418 321.363 517.517C318.69 516.542 315.984 515.554 313.242 514.555C290.783 506.626 263.051 496.925 225.656 484.076C224.783 483.776 224.276 482.921 224.52 482.161ZM222.778 476.858C223.007 476.118 223.863 475.725 224.725 475.964C232.604 478.151 241.213 480.779 250.435 483.764C241.616 480.557 232.21 477.123 222.141 473.434C221.277 473.118 220.791 472.258 221.052 471.505C221.313 470.752 222.223 470.386 223.094 470.683C240.706 476.692 260.606 483.868 282.017 491.589C315.735 503.748 353.201 517.258 391.376 529.692C392.259 529.979 392.782 530.834 392.546 531.603C392.31 532.371 391.403 532.762 390.519 532.476C375.986 527.773 361.814 523.105 344.99 517.354C348.567 518.676 352.169 520.008 355.792 521.348C365.99 525.12 376.36 528.955 386.833 532.803C387.7 533.122 388.184 533.986 387.918 534.74C387.651 535.494 386.733 535.855 385.862 535.548C371.193 530.397 356.114 525.283 340.208 519.89C306.462 508.446 268.999 495.743 223.864 478.742C223.026 478.427 222.548 477.598 222.778 476.858ZM126.173 301.834C126.43 301.072 127.35 300.701 128.228 301.005C136.033 303.711 143.69 306.365 151.206 308.97C312.955 365.033 409.388 398.458 506.155 433.526C507.023 433.841 507.512 434.703 507.25 435.459C506.988 436.214 506.073 436.579 505.2 436.277C424.691 408.417 341.852 379.205 268.887 353.475C214.539 334.31 165.668 317.077 127.321 303.773C127.313 303.771 127.306 303.768 127.298 303.765C127.298 303.765 127.298 303.765 127.298 303.765C126.42 303.461 125.916 302.596 126.173 301.834ZM44.6019 155.65C44.8486 154.888 45.7578 154.507 46.6365 154.798C83.0296 166.868 125.659 181.38 172.798 197.681C134.823 184.313 93.1748 169.626 47.1565 153.364C46.2817 153.055 45.7844 152.19 46.0448 151.43C46.3052 150.671 47.225 150.303 48.1009 150.609C163.405 190.842 258.865 224.426 344.814 254.665C384.034 268.463 421.275 281.565 457.516 294.284C499.093 308.782 535.527 321.492 572.072 334.336M572.078 334.338C572.08 334.339 572.082 334.339 572.084 334.34C572.96 334.648 573.459 335.512 573.2 336.273C572.94 337.033 572.021 337.401 571.144 337.096C533.307 323.931 495.526 310.709 456.588 297.044C454.261 296.233 451.918 295.416 449.557 294.593C423.531 285.517 395.432 275.719 364.027 264.747C431.475 288.654 502.437 314.012 573.835 339.659C574.705 339.971 575.197 340.832 574.938 341.589C574.678 342.345 573.765 342.713 572.891 342.413C476.885 309.491 380.681 275.438 290.688 243.538C286.243 241.962 281.813 240.391 277.399 238.827C192.445 208.71 113.397 180.687 45.7397 157.57C44.8636 157.27 44.3552 156.412 44.6019 155.65M222.495 467.286C222.769 466.534 223.694 466.18 224.565 466.496C241.702 472.707 262.805 479.944 286.059 487.92C290.957 489.6 295.951 491.312 301.024 493.055C330.164 503.067 361.876 514.064 392.887 525.516C393.758 525.838 394.24 526.71 393.964 527.464C393.688 528.219 392.759 528.571 391.887 528.251C373.771 521.602 354.5 515.072 332.915 507.758C328.348 506.21 323.678 504.628 318.893 503.001C291.503 493.692 260.393 482.964 223.567 469.231C222.699 468.908 222.22 468.039 222.495 467.286ZM220.746 462C221.002 461.244 221.912 460.872 222.787 461.168C250.637 470.588 279.465 480.844 309.508 491.531C337.69 501.556 366.941 511.962 397.457 522.415C398.331 522.715 398.839 523.571 398.594 524.332C398.349 525.094 397.443 525.476 396.565 525.188C357.8 512.478 319.274 498.718 251.395 474.475C242.121 471.162 232.299 467.654 221.854 463.927C220.985 463.616 220.49 462.757 220.746 462ZM222.19 457.785C222.457 457.028 223.378 456.667 224.252 456.977C239.671 462.439 253.589 467.373 266.259 471.865C332.688 495.416 364.785 506.795 398.878 518.209C399.757 518.503 400.272 519.359 400.03 520.124C399.789 520.889 398.881 521.275 398.001 520.987C357.656 507.798 315.817 493.283 223.283 459.723C222.412 459.407 221.924 458.541 222.19 457.785ZM47.4866 147.221C47.7519 146.465 48.6719 146.103 49.5452 146.411C140.641 178.495 263.076 221.381 394.912 267.561C452.954 287.785 513.194 308.841 573.519 330.138M47.4866 147.221C47.2213 147.977 47.7103 148.843 48.5809 149.158L47.4866 147.221ZM573.521 330.139C573.523 330.14 573.524 330.14 573.525 330.141C574.401 330.45 574.899 331.315 574.637 332.075C574.376 332.835 573.455 333.202 572.579 332.895C512.489 311.831 452.337 290.761 394.024 270.335C367.296 261.022 341.032 251.885 315.44 242.981C210.414 206.441 116.691 173.833 48.5809 149.158M140.626 311.574C140.897 310.83 141.806 310.475 142.671 310.775C191.48 327.739 239.196 344.71 286.436 361.513C350.056 384.141 412.813 406.463 476.211 428.042C484.634 430.894 493.068 433.747 501.498 436.596C501.499 436.597 501.5 436.597 501.501 436.597C502.381 436.895 502.893 437.755 502.645 438.519C502.397 439.284 501.483 439.664 500.603 439.368C492.163 436.531 483.737 433.68 475.322 430.816C461.038 425.979 446.783 421.145 432.626 416.332C454.248 424.017 475.725 431.796 496.946 439.705C497.808 440.026 498.287 440.887 498.023 441.638C497.758 442.388 496.847 442.751 495.978 442.451C405.111 411.168 315.115 379.513 223.459 347.113C199.683 338.85 176.144 330.556 152.981 322.178C152.11 321.863 151.62 320.996 151.886 320.24C152.152 319.483 153.074 319.121 153.948 319.431C177.505 327.77 200.913 336.055 224.213 344.291C231.735 346.906 239.284 349.518 246.855 352.13C205.846 337.589 169.838 324.438 141.674 313.51C140.82 313.179 140.354 312.319 140.626 311.574ZM220.459 452.451C220.734 451.708 221.645 451.358 222.508 451.661C238.259 457.191 254.836 463.045 272.093 469.139C280.438 472.086 288.941 475.089 297.588 478.139C299.864 478.9 302.153 479.665 304.455 480.434C305.163 480.67 305.872 480.907 306.582 481.145C337.883 491.604 371.362 502.826 403.57 515.152C404.426 515.479 404.896 516.339 404.628 517.085C404.36 517.832 403.452 518.19 402.586 517.892C365.78 505.226 330.153 492.713 296.669 480.903C268.799 471.583 242.885 462.827 221.494 454.39C220.643 454.054 220.183 453.193 220.459 452.451ZM218.702 447.195C218.941 446.446 219.82 446.06 220.689 446.323C252.335 455.884 288.758 469.118 329.28 483.842C354.079 492.852 380.413 502.42 408.126 512.046C408.998 512.349 409.501 513.205 409.254 513.965C409.007 514.724 408.101 515.104 407.224 514.815C358.841 498.887 312.141 482.73 219.805 449.096C218.952 448.786 218.464 447.944 218.702 447.195ZM220.148 442.967C220.408 442.216 221.313 441.849 222.182 442.142C267.594 457.412 306.279 471.214 342.891 484.276C357.907 489.634 372.575 494.867 387.215 500.026C394.655 502.62 402.118 505.229 409.57 507.845C410.445 508.152 410.945 509.017 410.686 509.777C410.428 510.537 409.509 510.906 408.632 510.602C401.145 508.005 393.697 505.398 386.246 502.772C368.09 496.441 350.061 490.199 332.664 484.174C288.828 468.995 249 455.203 221.23 444.893C220.369 444.574 219.888 443.717 220.148 442.967ZM52.0935 144.149C52.3494 143.388 53.2652 143.017 54.1418 143.317C182.793 187.412 306.343 231.088 425.989 273.384C475.221 290.788 523.792 307.959 571.786 324.828C572.659 325.135 573.158 325.996 572.903 326.755C572.648 327.515 571.735 327.887 570.859 327.589C481.37 297.142 391.887 265.51 283.29 227.121C215.575 203.184 140.427 176.62 53.2126 146.077C52.338 145.771 51.8376 144.909 52.0935 144.149ZM218.409 437.653C218.67 436.899 219.582 436.532 220.454 436.831C236.915 442.472 252.673 447.826 267.881 452.993C272.306 454.496 276.683 455.983 281.018 457.457C263.407 451.146 243.56 443.88 220.923 435.376C220.061 435.053 219.585 434.19 219.852 433.441C220.12 432.691 221.033 432.332 221.901 432.634C239.107 438.62 255.951 444.514 272.472 450.313C255.075 443.955 236.375 436.909 215.982 428.939C215.125 428.604 214.662 427.736 214.944 426.991C215.225 426.246 216.145 425.9 217.01 426.215C246.685 437 278.866 448.103 312.567 459.73L314.015 460.23C348.236 472.038 384.001 484.386 420.248 497.479C421.114 497.792 421.604 498.649 421.348 499.404C421.092 500.158 420.185 500.529 419.312 500.236C407.155 496.154 395.018 492.164 382.588 488.077C366.53 482.798 349.982 477.357 332.265 471.348C351.68 478.185 370.675 484.869 389.322 491.395C399.239 494.865 409.057 498.291 418.786 501.671L418.32 503.051L417.823 504.419C408.346 500.947 398.79 497.653 388.407 494.16M356.597 483.559C376.136 490.492 395.196 497.467 414.234 504.781C415.088 505.109 415.557 505.967 415.29 506.713C415.023 507.458 414.117 507.817 413.251 507.521C406.046 505.056 398.691 502.57 390.752 499.887C356.375 488.267 311.047 472.946 219.502 439.583C218.636 439.267 218.148 438.406 218.409 437.653M356.597 483.559C361.093 485.059 365.394 486.488 369.535 487.864C376.194 490.077 382.437 492.151 388.407 494.16M159.969 327.801C160.22 327.043 161.129 326.667 162.005 326.96C235.732 351.625 295.061 372.785 347.579 391.675C354.015 393.99 360.348 396.271 366.593 398.52C411.311 414.624 451.486 429.091 492.271 442.769C493.149 443.063 493.664 443.919 493.422 444.684C493.18 445.448 492.274 445.834 491.393 445.546C464.666 436.817 437.888 427.75 410.911 418.411C438.472 428.192 462.99 436.979 487.699 445.871C488.574 446.185 489.065 447.055 488.796 447.813C488.528 448.57 487.602 448.93 486.727 448.616C486.727 448.616 486.727 448.616 486.727 448.615M159.969 327.801C159.717 328.56 160.217 329.418 161.088 329.724L159.969 327.801ZM161.088 329.724C200.327 343.497 238.425 357.148 275.733 370.515L161.088 329.724ZM275.733 370.515C293.886 377.019 311.851 383.456 329.671 389.808L275.733 370.515ZM56.71 141.055C56.9712 140.297 57.8905 139.93 58.7657 140.236C110.206 158.189 157.921 174.893 202.838 190.647C159.14 175.036 112.608 158.235 62.4137 139.895C61.5446 139.578 61.0585 138.712 61.3255 137.957C61.5926 137.202 62.5126 136.842 63.385 137.15C94.3673 148.1 128.59 160.136 165.286 173.01C126.641 159.025 93.248 146.712 67.0078 136.803C66.1481 136.478 65.6729 135.617 65.9405 134.868C66.208 134.12 67.1193 133.76 67.9875 134.061C153.029 163.536 231.541 191.356 306.45 217.9C397.798 250.268 483.787 280.738 569.726 309.994C570.603 310.293 571.112 311.151 570.866 311.914C570.62 312.677 569.711 313.058 568.832 312.766C533.602 301.092 498.356 289.255 463.646 277.471C499.324 289.973 535.404 302.632 571.483 315.315C572.356 315.622 572.855 316.482 572.601 317.241C572.346 318 571.434 318.373 570.558 318.076C511.826 298.156 452.761 278.09 389.1 256.089C452.912 278.522 512.888 299.584 573.216 320.625C574.091 320.93 574.593 321.792 574.338 322.553C574.082 323.314 573.166 323.686 572.289 323.386C429.586 274.507 291.34 226.045 57.8174 142.989C56.9439 142.678 56.4487 141.814 56.71 141.055ZM216.353 422.878C216.582 422.108 217.482 421.709 218.367 421.987C233.241 426.649 247.013 431.01 259.83 435.117C243.781 429.578 228.971 424.36 215.713 419.436C214.845 419.114 214.365 418.245 214.638 417.492C214.911 416.739 215.835 416.385 216.705 416.699C229.122 421.174 244.208 426.526 261.2 432.509C272.982 436.574 285.436 440.815 298.443 445.244C302.404 446.592 306.415 447.958 310.475 449.342C346.188 461.515 385.586 475.06 426.314 490.201C427.179 490.522 427.659 491.385 427.392 492.137C427.125 492.888 426.21 493.248 425.339 492.944C416.528 489.864 407.69 486.778 398.877 483.703C407.827 487.269 416.417 490.811 424.96 494.432C425.793 494.785 426.227 495.642 425.943 496.372C425.658 497.101 424.757 497.442 423.903 497.143C396.227 487.458 368.15 477.421 341.272 467.811C293.115 450.595 248.804 434.754 217.538 424.78C216.655 424.498 216.125 423.647 216.353 422.878ZM168.068 335.313C168.336 334.566 169.244 334.208 170.111 334.506C235.677 357.088 286.959 374.875 329.671 389.808M168.068 335.313C167.8 336.059 168.271 336.919 169.128 337.246L168.068 335.313ZM169.128 337.246C186.158 343.756 203.02 350.022 219.724 356.097L169.128 337.246ZM219.724 356.097C206.606 351.619 193.8 347.295 181.356 343.155C180.486 342.866 179.583 343.236 179.326 343.987C179.07 344.738 179.554 345.594 180.415 345.911C228.033 363.425 280.812 381.609 335.695 400.518C367.1 411.339 399.194 422.396 431.404 433.701C448.25 439.693 465.179 445.707 482.123 451.704C482.997 452.013 483.919 451.651 484.184 450.894C484.449 450.136 483.958 449.27 483.085 448.956C466.147 442.866 449.176 436.852 432.248 430.911C423.039 427.635 413.855 424.366 404.706 421.109C382.154 413.082 359.82 405.132 337.877 397.356C347.036 400.468 356.154 403.558 365.233 406.634C406.464 420.604 446.887 434.3 486.721 448.614M212.9 412.184C213.171 411.429 214.096 411.073 214.968 411.387C253.305 425.209 285.434 436.57 313.345 446.326C328.937 451.748 344.8 457.235 360.808 462.772C371.902 466.61 383.064 470.471 394.254 474.351C407.056 478.774 419.118 482.959 430.894 487.101C431.77 487.409 432.269 488.275 432.009 489.035C431.749 489.795 430.828 490.163 429.951 489.856C417.768 485.598 405.558 481.353 393.376 477.129C387.931 475.247 382.351 473.322 376.601 471.339C357.509 464.753 336.546 457.521 312.439 449.095C277.821 437.057 244.531 425.341 213.983 414.127C213.113 413.808 212.628 412.939 212.9 412.184ZM211.174 406.836C211.465 406.093 212.395 405.757 213.258 406.083C247.449 419.014 293.618 434.919 344.571 452.472C345 452.62 345.429 452.767 345.858 452.915C375.573 462.86 405.691 473.028 435.535 484.026C436.402 484.345 436.885 485.21 436.618 485.963C436.351 486.716 435.433 487.076 434.562 486.77C404.072 476.053 373.76 465.608 344.937 455.678C341.829 454.638 338.725 453.6 335.625 452.564C330.646 450.899 325.679 449.238 320.726 447.578C283.228 435.009 246.588 422.501 212.194 408.794C211.337 408.452 210.882 407.579 211.174 406.836ZM212.595 402.676C212.864 401.918 213.79 401.559 214.664 401.873C252.294 415.408 292.825 429.484 333.755 443.697C368.375 455.72 403.279 467.841 436.953 479.818C437.823 480.127 438.318 480.986 438.064 481.743C437.809 482.5 436.9 482.872 436.026 482.578C370.908 460.688 306.714 438.171 213.692 404.618C213.691 404.618 213.691 404.618 213.69 404.618C212.817 404.302 212.326 403.433 212.595 402.676ZM184.246 350.398C184.511 349.651 185.416 349.29 186.282 349.584C280.642 381.624 357.375 408.942 432.729 435.769C447.986 441.2 463.186 446.612 478.464 452.038C479.336 452.348 479.832 453.21 479.574 453.968C479.316 454.726 478.402 455.096 477.527 454.795C456.417 447.553 435.128 440.309 413.81 433.056C410.574 431.955 407.337 430.853 404.1 429.752C427.306 438.002 450.646 446.461 473.885 455.136C474.743 455.456 475.223 456.313 474.962 457.063C474.702 457.812 473.798 458.178 472.929 457.886C439.043 446.496 404.177 434.155 353.619 416.26C315.705 402.841 268.966 386.298 207.197 364.689C201.49 362.703 195.847 360.731 190.273 358.774C189.397 358.466 188.898 357.601 189.158 356.84C189.417 356.08 190.338 355.712 191.215 356.018C191.216 356.018 191.217 356.019 191.218 356.019C196.971 358.028 202.599 359.996 208.109 361.923C224.166 367.511 240.739 373.215 257.715 379.039C233.003 370.189 208.781 361.291 185.307 352.328C184.452 352.001 183.981 351.144 184.246 350.398ZM204.197 385.646C204.449 384.884 205.364 384.509 206.242 384.807C222.579 390.356 238.086 395.728 252.909 400.933C258.556 402.888 264.215 404.849 269.886 406.817C250.086 399.651 228.137 391.543 203.534 382.238C202.68 381.915 202.205 381.061 202.464 380.315C202.723 379.568 203.622 379.201 204.489 379.488C215.353 383.083 227.916 387.387 241.822 392.232C227.196 386.814 213.744 381.681 201.764 376.912C200.914 376.574 200.458 375.711 200.736 374.97C201.014 374.23 201.926 373.882 202.788 374.187C274.508 399.583 324.47 416.94 364.531 430.859C400.404 443.322 428.338 453.027 456.847 463.275C457.712 463.586 458.204 464.442 457.951 465.196C457.699 465.951 456.795 466.325 455.922 466.036C417.883 453.442 379.751 440.67 343.821 428.351C367.337 436.705 391.867 445.387 416.613 454.023C428.458 458.156 440.352 462.279 452.207 466.351L451.747 467.733L451.261 469.105C439.544 464.89 427.953 460.911 415.828 456.833C407.496 454.031 398.911 451.182 389.859 448.179C379.519 444.748 368.57 441.114 356.689 437.117C387.975 448.118 419.413 459.274 450.797 470.559C451.659 470.869 452.151 471.72 451.904 472.473C451.657 473.226 450.762 473.606 449.89 473.326C410.831 460.807 372.515 446.962 329.648 431.473C305.463 422.734 279.829 413.472 251.796 403.629C236.199 398.229 220.7 392.875 205.327 387.572C204.45 387.269 203.945 386.408 204.197 385.646ZM210.843 397.401C211.083 396.645 211.976 396.259 212.85 396.534C227.708 401.199 242.606 405.954 257.542 410.816C241.138 404.945 225.301 399.297 210.227 393.994C209.355 393.688 208.857 392.828 209.11 392.07C209.363 391.311 210.274 390.937 211.15 391.232C246.638 403.19 283.849 416.479 322.337 430.223L324.662 431.054C363.982 445.095 404.625 459.594 446.15 473.635C447.027 473.931 447.539 474.788 447.295 475.552C447.051 476.315 446.143 476.699 445.264 476.409C434.841 472.981 424.376 469.481 413.907 465.934C423.135 469.476 432.376 473.081 441.631 476.755C442.485 477.093 442.942 477.961 442.659 478.703C442.375 479.445 441.456 479.789 440.593 479.475C394.103 462.557 346.191 445.947 294.567 428.051C268.112 418.88 240.681 409.371 211.968 399.309C211.103 399.006 210.603 398.158 210.843 397.401ZM194.075 363.252C194.342 362.499 195.26 362.139 196.131 362.446C227.5 373.485 256.835 383.853 284.636 393.679C352.927 417.816 411.971 438.684 469.218 458.202C470.096 458.501 470.605 459.361 470.357 460.124C470.109 460.887 469.197 461.266 468.318 460.972C430.695 448.386 392.865 435.482 355.984 422.675C359.327 423.891 362.588 425.081 365.772 426.244C372.156 428.577 378.233 430.805 384.059 432.941C400.896 439.115 415.628 444.516 429.571 449.428C440.544 453.204 450.978 456.731 461.41 460.17C462.289 460.46 462.809 461.313 462.573 462.079C462.337 462.845 461.435 463.236 460.553 462.954C449.971 459.572 439.535 456.025 428.626 452.183C405.605 444.26 380.214 435.239 347.545 423.632C310.29 410.396 263.569 393.797 200.105 371.629C199.233 371.325 198.732 370.468 198.981 369.709C199.231 368.95 200.138 368.572 201.014 368.863C221.414 375.63 240.023 381.908 257.096 387.75C235.549 380.004 214.806 372.449 195.156 365.19C194.289 364.87 193.807 364.005 194.075 363.252ZM73.7231 132.908C73.985 132.151 74.9027 131.785 75.7768 132.089C179.722 168.277 263.153 197.872 335.322 223.472C361.995 232.933 387.129 241.849 411.192 250.351C464.761 268.976 517.944 287.385 571.171 305.798C572.046 306.101 572.551 306.961 572.3 307.722C572.049 308.483 571.137 308.86 570.259 308.564C518.81 291.254 467.574 273.358 410.269 253.113C301.267 215.212 190.659 176.411 74.8247 134.841C73.9534 134.529 73.4612 133.665 73.7231 132.908ZM78.3348 129.821C78.5968 129.061 79.5194 128.695 80.3957 129.004C80.396 129.004 80.3963 129.004 80.3967 129.004M78.3348 129.821C78.0727 130.581 78.5704 131.448 79.4465 131.757L78.3348 129.821ZM381.243 234.513C450.745 258.785 511.92 280.149 572.622 301.602C573.495 301.911 573.993 302.774 573.735 303.532C573.477 304.291 572.562 304.661 571.686 304.36C456.523 264.76 343.241 224.796 202.499 175.146C180.226 167.288 157.266 159.188 133.501 150.809C116.056 144.668 98.0547 138.323 79.4465 131.757M381.243 234.513C310.392 209.769 230.887 182.004 134.409 148.041L381.243 234.513ZM134.409 148.041C116.862 141.854 98.8753 135.514 80.4036 129.006L134.409 148.041ZM82.951 126.728C83.2178 125.97 84.1432 125.609 85.0182 125.922C85.0184 125.922 85.0186 125.922 85.0188 125.922C85.0859 125.946 85.1531 125.97 85.2203 125.994C222.955 175.258 383.03 230.942 547.156 288.034C555.053 290.781 562.96 293.532 570.874 296.285C571.752 296.59 572.254 297.455 571.997 298.216C571.74 298.978 570.82 299.349 569.943 299.044C548.724 291.687 527.175 284.247 504.59 276.448C404.897 242.023 285 200.622 84.0518 128.669C83.1769 128.355 82.6842 127.487 82.951 126.728ZM90.7348 124.772C90.9892 124.013 91.9009 123.64 92.7764 123.937C301.082 194.447 437.233 241.543 569.179 290.987C570.042 291.31 570.52 292.174 570.25 292.925C569.981 293.675 569.065 294.033 568.195 293.727C522.36 277.596 475.977 261.391 423.014 242.886C337.939 213.163 235.885 177.508 91.8501 126.698C90.9783 126.39 90.4803 125.53 90.7348 124.772ZM98.5232 122.794C98.7818 122.034 99.701 121.664 100.578 121.969C183.992 150.938 257.832 176.639 326.246 200.572C336.313 204.057 346.001 207.41 355.342 210.642C450.591 243.603 509.808 264.095 567.44 285.672C568.304 285.996 568.782 286.862 568.51 287.613C568.239 288.365 567.319 288.72 566.449 288.41C489.166 260.859 411.566 233.505 325.344 203.342C265.693 182.69 192.717 157.373 99.6402 124.726C98.7644 124.419 98.2647 123.554 98.5232 122.794ZM106.313 120.821C106.57 120.061 107.488 119.691 108.365 119.994C198.127 151.006 268.487 175.368 325.99 195.377C336.396 198.969 346.739 202.545 357.028 206.108C345.24 201.895 333.638 197.738 322.251 193.652C255.274 170.404 187.517 146.763 118.38 121.888C117.517 121.577 117.025 120.725 117.274 119.971C117.524 119.217 118.422 118.84 119.294 119.123C161.885 132.949 221.776 154.466 291.427 179.489C297.314 181.604 303.271 183.744 309.294 185.907C313.896 187.559 318.537 189.225 323.214 190.904C336.239 195.425 349.236 199.931 362.208 204.429C429.87 227.889 496.869 251.12 563.935 275.036C564.803 275.346 565.298 276.204 565.044 276.96C564.79 277.716 563.883 278.09 563.009 277.797C541.573 270.62 520.207 263.352 499.045 256.066C521.296 264.063 543.481 272.139 565.696 280.358C566.566 280.68 567.047 281.551 566.772 282.305C566.497 283.059 565.569 283.412 564.697 283.094C501.351 259.95 438.025 237.445 325.071 198.141C309.265 192.684 293.313 187.187 277.185 181.629C222.978 162.949 166.782 143.583 107.43 122.752C106.555 122.445 106.055 121.581 106.313 120.821ZM125.061 117.998C125.312 117.238 126.224 116.862 127.1 117.157C162.466 129.044 209.16 145.056 262.968 163.768C221.031 148.947 178.141 133.712 133.961 117.943C133.088 117.631 132.594 116.766 132.856 116.008C133.119 115.25 134.039 114.884 134.914 115.191C199.616 137.867 255.885 157.421 307.169 175.243C400.073 207.529 476.615 234.129 557.289 263.299C558.158 263.613 558.648 264.475 558.387 265.23C558.127 265.986 557.213 266.352 556.34 266.052C508.104 249.477 459.668 232.711 410.406 215.533C458.471 232.556 508.641 250.463 559.025 268.612C559.025 268.612 559.026 268.613 559.026 268.613C559.9 268.928 560.391 269.797 560.122 270.555C559.854 271.312 558.928 271.672 558.053 271.357C450.944 232.86 342.981 195.317 201.986 146.287C177.75 137.859 152.538 129.092 126.186 119.922C125.312 119.618 124.81 118.758 125.061 117.998ZM143.815 115.159C144.071 114.399 144.988 114.028 145.864 114.329C240.97 147.023 315.499 173.423 379.798 196.266C385.164 198.172 390.458 200.054 395.686 201.912C427.222 213.119 456.383 223.481 484.49 233.35C507.127 241.228 529.781 249.081 552.349 256.86C553.226 257.163 553.731 258.025 553.478 258.787C553.226 259.549 552.31 259.924 551.432 259.625C529.027 251.989 506.644 244.214 483.553 236.107C409.227 210.239 335.086 184.088 264.819 159.303C223.246 144.639 183.029 130.454 144.932 117.088C144.058 116.782 143.558 115.919 143.815 115.159ZM154.783 114.289C155.047 113.531 155.969 113.167 156.843 113.475C174.838 119.82 191.975 125.862 208.33 131.629C377.31 191.212 462.789 221.353 547.432 250.434C548.307 250.735 548.814 251.594 548.565 252.356C548.317 253.117 547.407 253.496 546.529 253.203C435.781 216.255 326.088 177.154 155.885 116.225C155.012 115.913 154.519 115.047 154.783 114.289ZM168.926 114.543C169.19 113.786 170.109 113.423 170.983 113.73C226.482 133.21 276.838 150.645 323.745 166.884C405.188 195.081 476.231 219.677 545.73 245.133C546.591 245.449 547.076 246.303 546.822 247.054C546.569 247.806 545.668 248.178 544.798 247.892C431.369 210.596 319.898 170.556 170.023 116.479C169.152 116.164 168.661 115.299 168.926 114.543ZM179.887 113.687C180.148 112.927 181.07 112.56 181.946 112.868C203.074 120.286 222.903 127.241 241.573 133.784C268.705 143.269 295.826 152.713 322.98 162.169C331.03 164.972 339.082 167.776 347.139 170.583C303.425 155.015 252.993 136.839 191.949 114.758C191.079 114.443 190.589 113.578 190.853 112.822C191.117 112.066 192.035 111.703 192.908 112.008C255.915 134.051 308.515 152.651 355.006 169.091C424.074 193.514 479.66 213.17 535.858 232.263C536.733 232.561 537.243 233.415 537.001 234.177C536.759 234.94 535.856 235.325 534.977 235.04C510.916 227.237 486.891 219.239 461.266 210.5C487.666 219.794 514.165 229.179 540.804 238.702C541.678 239.014 542.172 239.882 541.906 240.641C541.64 241.399 540.716 241.761 539.841 241.45C539.84 241.45 539.839 241.449 539.839 241.449M179.887 113.687C179.625 114.447 180.124 115.313 181 115.622L179.887 113.687ZM181 115.622C200.909 122.635 220.791 129.605 240.665 136.552L181 115.622ZM240.665 136.552C296.02 155.952 341.18 171.73 379.772 185.214C446.511 208.531 493.611 224.987 539.834 241.448M204.994 113.074C205.26 112.321 206.175 111.96 207.046 112.264C257.815 129.977 299.695 144.631 335.051 157.029C343.86 159.997 352.616 162.939 361.325 165.865C366.201 167.503 371.062 169.136 375.909 170.766C388.289 174.929 400.577 179.073 412.789 183.229C370.213 168.543 326.88 153.557 282.063 137.613C258.329 129.451 236.424 121.65 217.011 114.137C216.15 113.804 215.684 112.935 215.966 112.188C216.247 111.441 217.171 111.095 218.038 111.413C240.08 119.491 261.706 127.281 282.996 134.854C303.249 141.819 324.851 149.053 347.4 156.604C351.836 158.089 356.309 159.587 360.815 161.097C386.964 169.862 414.236 179.049 442.021 188.729C420.092 181.002 398.1 173.163 375.982 165.273L371.404 163.639C324.427 146.88 276.858 129.91 228.051 113.306C227.175 113.008 226.665 112.151 226.909 111.389C227.154 110.626 228.061 110.243 228.94 110.532C290.787 130.852 390.315 166.341 498.352 204.865C505.911 207.56 513.512 210.271 521.145 212.992C522.015 213.302 522.509 214.161 522.254 214.917C521.999 215.674 521.09 216.046 520.215 215.751C500.392 209.071 480.582 202.238 460.735 195.299C484.494 203.707 508.525 212.481 532.453 221.664C533.311 221.993 533.781 222.856 533.508 223.602C533.236 224.349 532.322 224.703 531.455 224.399C505.504 215.269 479.524 206.261 453.341 197.219C480.555 206.76 507.456 216.555 534.202 226.981C535.055 227.314 535.519 228.174 535.246 228.918C534.974 229.662 534.065 230.016 533.201 229.715C506.251 220.34 479.906 211.062 445.361 198.895C416.007 188.557 380.731 176.133 334.13 159.792M241.052 111.642C241.296 110.886 242.191 110.503 243.065 110.781C257.149 115.262 272.795 120.323 289.637 125.88C277.855 121.654 265.705 117.267 253.119 112.688C252.249 112.372 251.761 111.505 252.028 110.75C252.295 109.994 253.216 109.633 254.088 109.942C262.954 113.08 272.278 116.386 282.009 119.835C295.475 124.608 309.717 129.657 324.594 134.919C305.119 127.862 285.041 120.254 264.021 111.803C263.178 111.464 262.725 110.609 262.997 109.872C263.269 109.134 264.168 108.78 265.029 109.073C302.65 121.868 339.041 134.783 374.927 147.519C403.061 157.505 430.885 167.38 458.75 177.001C459.623 177.302 460.128 178.158 459.882 178.918C459.636 179.678 458.732 180.059 457.854 179.772C450.686 177.426 443.547 175.099 436.419 172.776C410.725 164.402 385.163 156.071 358.816 146.997C386.553 156.765 415.928 167.048 446.157 177.503C446.594 177.653 447.03 177.803 447.466 177.953C458.169 181.635 468.831 185.303 479.542 188.996C480.42 189.299 480.925 190.162 480.671 190.924C480.418 191.687 479.5 192.06 478.622 191.76C469.739 188.716 460.904 185.677 452.136 182.65C469.236 188.986 486.452 195.495 503.577 202.13C504.431 202.461 504.897 203.321 504.626 204.066C504.354 204.811 503.444 205.166 502.579 204.864C404.462 170.701 306.372 136.243 242.171 113.553C241.306 113.248 240.809 112.397 241.052 111.642ZM277.131 110.142C277.391 109.41 278.269 109.045 279.126 109.315C293.623 113.881 307.033 118.289 319.671 122.58C312.401 119.983 304.518 117.096 295.739 113.796C292.572 112.623 289.318 111.392 285.97 110.096C285.106 109.761 284.64 108.884 284.93 108.136C285.22 107.388 286.155 107.05 287.022 107.38C290.39 108.666 293.63 109.893 296.756 111.068C309.512 115.794 320.858 119.59 331.236 123.018C332.473 123.426 333.696 123.83 334.907 124.229C346.355 128.003 356.676 131.406 366.43 135.224C367.273 135.554 367.736 136.4 367.479 137.14C367.222 137.879 366.337 138.247 365.475 137.973C357.879 135.553 350.401 133.136 342.455 130.472C354.477 134.714 365.902 138.865 377.065 142.97C388.884 147.064 400.819 151.412 412.64 156.132C413.494 156.473 413.949 157.343 413.662 158.085C413.375 158.826 412.452 159.166 411.589 158.847C407.012 157.156 402.453 155.466 397.888 153.773C390.671 151.098 383.44 148.417 376.098 145.717C364.176 141.587 352.357 137.71 340.869 133.957C339.945 133.655 339.023 133.354 338.103 133.053C316.309 125.936 295.755 119.223 278.153 112.056C277.32 111.718 276.871 110.875 277.131 110.142Z" fill="white"/>
<path fill-rule="evenodd" clip-rule="evenodd" d="M201.636 370.566C212.17 387.147 217.042 406.739 219.73 427.125C221.439 440.078 222.277 453.48 223.102 466.686C223.573 474.227 224.041 481.704 224.664 488.997C226.388 509.168 229.306 528.035 236.684 543.679C244.019 559.232 255.746 571.573 275.198 578.836C314.015 591.059 344.127 572.766 372.961 545.46C382.688 536.248 392.181 526.1 401.773 515.847C406.387 510.914 411.024 505.957 415.72 501.069C430.122 486.078 445.038 471.785 461.347 461.15C470.95 453.733 481.304 447.248 491.647 441.024C494.025 439.593 496.4 438.177 498.766 436.767C506.728 432.02 514.578 427.341 522.03 422.388C541.326 409.562 557.699 395.057 565.682 373.441C578.648 329.603 570.073 281.639 539.7 240.145L539.694 240.137C527.094 222.712 508.797 209.678 488.108 198.182C477.767 192.435 466.861 187.091 455.8 181.775C453.803 180.816 451.801 179.857 449.795 178.897C440.724 174.553 431.601 170.185 422.699 165.608C410.305 159.972 398.344 154.009 386.684 148.196C384.969 147.342 383.261 146.49 381.559 145.643C368.254 139.024 355.318 132.694 342.462 127.323C316.761 116.585 291.513 109.738 264.6 112.114C264.565 112.117 264.53 112.119 264.495 112.12C254.291 112.422 243.473 112.574 232.302 112.73C196.045 113.238 156.07 113.798 121.294 119.728C75.7923 127.487 39.9802 144.309 32.8868 181.567L32.8797 181.605L32.8791 181.604C28.8294 199.864 34.4775 216.147 46.0077 231.525C57.5823 246.963 75.0482 261.437 94.531 275.957C101.491 281.144 108.719 286.345 116.013 291.592C129.043 300.967 142.28 310.49 154.56 320.35C173.742 335.753 190.847 352.17 201.636 370.566ZM29.6232 180.781C25.3732 199.972 31.3732 217.091 43.3135 233.016C55.2133 248.888 73.048 263.625 92.5625 278.169C99.6324 283.438 106.912 288.674 114.226 293.935C127.193 303.263 140.269 312.67 152.485 322.479C171.556 337.792 188.272 353.894 198.749 371.771C198.759 371.788 198.769 371.805 198.78 371.821C208.965 387.84 213.77 406.941 216.441 427.194C218.14 440.071 218.964 453.285 219.784 466.414C220.256 473.978 220.726 481.514 221.361 488.941C223.088 509.15 226.03 528.452 233.651 544.609C241.308 560.845 253.706 573.932 274.23 581.583C274.261 581.595 274.293 581.605 274.324 581.615C315.216 594.516 346.576 574.969 375.467 547.609C385.252 538.342 394.843 528.09 404.467 517.803C409.067 512.885 413.675 507.959 418.316 503.129C432.708 488.149 447.46 474.033 463.504 463.581C463.536 463.56 463.567 463.538 463.598 463.514C473.077 456.188 483.328 449.763 493.667 443.541C496.02 442.125 498.38 440.719 500.736 439.314C508.71 434.561 516.644 429.831 524.161 424.835C543.659 411.874 560.595 396.966 568.852 374.572C568.862 374.546 568.87 374.52 568.878 374.493C582.093 329.862 573.372 280.978 542.422 238.691C529.38 220.658 510.541 207.304 489.651 195.696C479.203 189.89 468.208 184.503 457.14 179.185C455.133 178.22 453.123 177.258 451.114 176.295C442.03 171.946 432.953 167.599 424.091 163.042C424.064 163.028 424.036 163.015 424.007 163.002C411.666 157.391 399.757 151.454 388.08 145.633C386.364 144.778 384.653 143.925 382.947 143.076C369.642 136.457 356.604 130.075 343.618 124.649C317.65 113.8 291.755 106.714 264.02 109.152C253.953 109.449 243.238 109.599 232.143 109.754C195.837 110.261 155.455 110.826 120.382 116.806C74.5895 124.614 37.0584 141.784 29.6232 180.781Z" fill="white"/>
</g>
</svg>
