<svg width="80" height="10" viewBox="0 0 80 10" fill="none" xmlns="http://www.w3.org/2000/svg">
<path fill-rule="evenodd" clip-rule="evenodd" d="M9.92338 1.49767C6.69795 1.9139 3.36442 3.14331 0.843882 4.07521C0.512343 4.19779 0.150321 4.01078 0.0352832 3.65751C-0.0797543 3.30424 0.0957554 2.91849 0.427295 2.79591L0.447845 2.78831C2.94612 1.86464 6.39719 0.588694 9.77058 0.153364C13.1374 -0.281112 16.6102 0.0983006 18.9595 2.72348C19.3322 3.13987 19.7206 3.73642 20.0281 4.40685C20.092 4.38062 20.156 4.35481 20.2201 4.32942C22.233 3.53194 24.4686 3.08643 25.5769 2.86556C25.6643 2.84814 25.7447 2.83212 25.8174 2.81743C32.2027 1.52788 38.2408 2.52249 44.4059 3.53803C44.9892 3.63411 45.5736 3.73038 46.1596 3.82492C53.3814 4.99007 60.4771 5.70747 67.6978 4.94765C69.5393 4.75386 71.7803 4.5112 73.8609 3.93126C75.9545 3.3477 77.7784 2.45026 78.8733 1.02798C79.0958 0.738863 79.4962 0.696732 79.7675 0.933876C80.0389 1.17102 80.0784 1.59764 79.8559 1.88675C78.5043 3.64248 76.3617 4.63391 74.1825 5.2413C71.9904 5.85231 69.6524 6.10268 67.8227 6.29522C60.4467 7.07138 53.2295 6.33514 45.9693 5.16378C45.3886 5.07009 44.8116 4.97522 44.2379 4.88089C38.0376 3.86146 32.2137 2.9039 26.0541 4.14787C25.9811 4.16261 25.9015 4.1785 25.8159 4.19559C24.7018 4.41799 22.5678 4.84401 20.663 5.59865C20.5997 5.62373 20.5368 5.64911 20.4744 5.67478C20.4757 5.68029 20.4771 5.6858 20.4784 5.69131C20.7531 6.83624 20.7195 8.25875 19.591 9.12906C19.4387 9.24651 19.1724 9.39182 18.895 9.52012C18.6043 9.65456 18.247 9.79546 17.8914 9.8891C17.5568 9.97721 17.1367 10.0479 16.7631 9.959C16.5645 9.91173 16.3372 9.80929 16.1576 9.59647C15.9718 9.37618 15.8933 9.10441 15.8871 8.83417C15.86 7.65617 16.4657 6.72218 17.2697 6.01339C17.7285 5.60885 18.2746 5.25589 18.8612 4.94744C18.6163 4.42628 18.3146 3.96502 18.0398 3.65797C16.1137 1.50563 13.1647 1.07938 9.92338 1.49767ZM19.2916 6.23248C18.8279 6.48534 18.4164 6.75998 18.0798 7.05669C17.4963 7.57111 17.1971 8.09554 17.1608 8.64581C17.2583 8.64303 17.4 8.62363 17.5865 8.57453C17.8546 8.50393 18.1429 8.39179 18.389 8.27797C18.5108 8.22163 18.6175 8.1671 18.7012 8.12045C18.7431 8.09714 18.7773 8.07688 18.8036 8.06034C18.8166 8.05213 18.8268 8.0454 18.8345 8.0402C18.8382 8.03763 18.8411 8.03563 18.8431 8.03417C18.8451 8.0327 18.8459 8.03211 18.8459 8.03211C19.302 7.68033 19.4513 7.0691 19.2916 6.23248Z" fill="#7782B8"/>
</svg>
