<svg width="252" height="30" viewBox="0 0 252 30" fill="none" xmlns="http://www.w3.org/2000/svg">
<path fill-rule="evenodd" clip-rule="evenodd" d="M220.741 4.49281C230.901 5.7413 241.402 9.42928 249.342 12.2248C250.386 12.5925 251.527 12.0314 251.889 10.9716C252.251 9.91183 251.698 8.7546 250.654 8.38689L250.589 8.3641C242.72 5.59328 231.849 1.7657 221.222 0.459942C210.617 -0.843256 199.678 0.295194 192.277 8.17079C191.104 9.41999 189.88 11.2096 188.912 13.2209C188.71 13.1422 188.509 13.0648 188.307 12.9886C181.966 10.5964 174.924 9.25999 171.433 8.59745C171.157 8.5452 170.904 8.49715 170.675 8.4531C150.561 4.5849 131.542 7.56907 112.122 10.6161C110.284 10.9043 108.443 11.1932 106.597 11.4768C83.8489 14.9727 61.4973 17.1253 38.7522 14.8464C32.9513 14.2651 25.8924 13.5373 19.3383 11.7976C12.7433 10.0471 6.99802 7.35493 3.54915 3.08821C2.84808 2.22088 1.5869 2.09452 0.732218 2.80596C-0.122463 3.5174 -0.246987 4.79724 0.454087 5.66456C4.71152 10.9316 11.461 13.9057 18.3253 15.7277C25.2304 17.5606 32.5953 18.3115 38.3589 18.889C61.5931 21.217 84.3272 19.0079 107.197 15.4934C109.026 15.2122 110.843 14.9276 112.651 14.6446C132.182 11.5859 150.527 8.7129 169.93 12.4444C170.16 12.4886 170.41 12.5363 170.68 12.5875C174.189 13.2546 180.912 14.5326 186.912 16.7963C187.111 16.8716 187.309 16.9477 187.506 17.0247C187.502 17.0412 187.497 17.0578 187.493 17.0743C186.628 20.5091 186.734 24.7765 190.289 27.3874C190.768 27.7397 191.607 28.1756 192.481 28.5605C193.397 28.9638 194.522 29.3865 195.643 29.6674C196.696 29.9316 198.02 30.1438 199.197 29.877C199.822 29.7352 200.538 29.4278 201.104 28.7894C201.689 28.1285 201.937 27.3132 201.956 26.5025C202.041 22.9685 200.133 20.1666 197.601 18.0403C196.155 16.8267 194.435 15.7679 192.587 14.8426C193.359 13.2791 194.309 11.8953 195.175 10.9742C201.242 4.51711 210.531 3.23819 220.741 4.49281ZM191.232 18.6977C192.692 19.4562 193.989 20.2801 195.049 21.1702C196.887 22.7134 197.829 24.2867 197.944 25.9375C197.637 25.9292 197.19 25.8709 196.603 25.7237C195.758 25.5119 194.85 25.1755 194.075 24.8341C193.691 24.665 193.355 24.5014 193.091 24.3615C192.96 24.2916 192.852 24.2308 192.769 24.1812C192.728 24.1566 192.696 24.1364 192.672 24.1208C192.66 24.1131 192.651 24.1071 192.645 24.1027C192.638 24.0983 192.636 24.0965 192.636 24.0965C191.199 23.0412 190.729 21.2075 191.232 18.6977Z" fill="#7782B8"/>
</svg>
