<svg width="80" height="10" viewBox="0 0 80 10" fill="none" xmlns="http://www.w3.org/2000/svg">
<path fill-rule="evenodd" clip-rule="evenodd" d="M70.0766 1.4976C73.302 1.91377 76.6356 3.14309 79.1561 4.07493C79.4877 4.1975 79.8497 4.01048 79.9647 3.65721C80.0798 3.30394 79.9042 2.9182 79.5727 2.79563L79.5521 2.78803C77.0539 1.86443 73.6028 0.588566 70.2294 0.153314C66.8626 -0.281085 63.3897 0.0983979 61.0405 2.7236C60.6678 3.14 60.2795 3.73654 59.972 4.40697C59.9081 4.38074 59.844 4.35494 59.7799 4.32955C57.767 3.53212 55.5314 3.08666 54.4231 2.86582C54.3357 2.8484 54.2553 2.83238 54.1826 2.8177C47.7972 1.5283 41.7592 2.52302 35.5941 3.53868C35.0108 3.63478 34.4264 3.73106 33.8404 3.82561C26.6187 4.9909 19.523 5.70844 12.3023 4.94879C10.4607 4.75505 8.21979 4.51243 6.13913 3.93254C4.04549 3.34903 2.22159 2.45164 1.12672 1.0294C0.904152 0.740295 0.503777 0.698173 0.23245 0.935321C-0.0388772 1.17247 -0.0784085 1.59908 0.144155 1.88819C1.49572 3.64387 3.6384 4.63524 5.81754 5.24258C8.00966 5.85353 10.3477 6.10385 12.1774 6.29635C19.5534 7.07234 26.7705 6.33595 34.0307 5.16445C34.6115 5.07075 35.1884 4.97587 35.7621 4.88153C41.9624 3.86197 47.7863 2.9043 53.946 4.14813C54.019 4.16287 54.0985 4.17875 54.1841 4.19584C55.2982 4.41821 57.4323 4.84418 59.3371 5.59878C59.4004 5.62386 59.4633 5.64923 59.5257 5.6749C59.5243 5.68041 59.523 5.68592 59.5217 5.69143C59.247 6.83635 59.2806 8.25885 60.4091 9.12912C60.5614 9.24657 60.8277 9.39187 61.1051 9.52016C61.3958 9.6546 61.7531 9.79549 62.1087 9.88912C62.4433 9.97722 62.8634 10.0479 63.237 9.959C63.4357 9.91172 63.6629 9.80928 63.8425 9.59646C64.0283 9.37616 64.1068 9.1044 64.113 8.83415C64.1401 7.65617 63.5343 6.7222 62.7304 6.01344C62.2715 5.60891 61.7254 5.25596 61.1388 4.94753C61.3837 4.42638 61.6854 3.96512 61.9602 3.65806C63.8863 1.5057 66.8353 1.0794 70.0766 1.4976ZM60.7085 6.23257C61.1721 6.48542 61.5837 6.76005 61.9203 7.05675C62.5037 7.57115 62.803 8.09556 62.8393 8.64583C62.7418 8.64305 62.6001 8.62365 62.4136 8.57455C62.1455 8.50396 61.8572 8.39183 61.6111 8.27802C61.4893 8.22167 61.3826 8.16715 61.2989 8.1205C61.257 8.0972 61.2228 8.07694 61.1965 8.0604C61.1835 8.05219 61.1732 8.04546 61.1656 8.04026C61.1619 8.03769 61.159 8.03568 61.157 8.03423C61.155 8.03276 61.1542 8.03217 61.1542 8.03217C60.6981 7.6804 60.5488 7.06918 60.7085 6.23257Z" fill="#7782B8"/>
</svg>
