<svg width="252" height="30" viewBox="0 0 252 30" fill="none" xmlns="http://www.w3.org/2000/svg">
<path fill-rule="evenodd" clip-rule="evenodd" d="M31.2586 4.493C21.0986 5.7417 10.5979 9.42994 2.65823 12.2256C1.61388 12.5934 0.47351 12.0323 0.111142 10.9725C-0.251226 9.91272 0.301629 8.75546 1.34598 8.38773L1.41071 8.36494C9.28026 5.59393 20.1512 1.76608 30.7773 0.460093C41.3827 -0.843337 52.3222 0.294902 59.7226 8.17044C60.8964 9.41963 62.1198 11.2092 63.0884 13.2206C63.2897 13.1419 63.4914 13.0644 63.6933 12.9883C70.034 10.5958 77.076 9.25929 80.5673 8.59667C80.8426 8.54442 81.0958 8.49636 81.3248 8.4523C101.439 4.58365 120.458 7.56746 139.879 10.6141C141.716 10.9023 143.557 11.1911 145.403 11.4748C168.151 14.9702 190.503 17.1224 213.248 14.8429C219.049 14.2616 226.108 13.5336 232.662 11.7938C239.257 10.0431 245.002 7.35078 248.451 3.08393C249.152 2.21659 250.413 2.0902 251.268 2.80163C252.122 3.51306 252.247 4.79291 251.546 5.66026C247.289 10.9274 240.539 13.9017 233.675 15.7239C226.77 17.5569 219.405 18.308 213.641 18.8857C190.407 21.2141 167.673 19.0054 144.803 15.4913C142.974 15.2103 141.157 14.9257 139.349 14.6427C119.819 11.5844 101.473 8.7117 82.0703 12.4436C81.8404 12.4878 81.5897 12.5355 81.3201 12.5868C77.8107 13.254 71.0884 14.532 65.0883 16.796C64.8889 16.8712 64.6909 16.9473 64.4943 17.0243C64.4986 17.0409 64.5028 17.0574 64.5069 17.0739C65.3722 20.5087 65.2663 24.7763 61.7116 27.3872C61.2319 27.7395 60.3931 28.1755 59.5193 28.5604C58.6036 28.9637 57.4781 29.3864 56.3579 29.6673C55.304 29.9316 53.9807 30.1438 52.8037 29.877C52.1781 29.7352 51.4621 29.4279 50.8965 28.7894C50.3111 28.1285 50.0639 27.3132 50.0443 26.5025C49.959 22.9685 51.8671 20.1665 54.3995 18.0402C55.8449 16.8266 57.5651 15.7677 59.4129 14.8423C58.6413 13.2789 57.6911 11.8951 56.8255 10.9739C50.758 4.51689 41.4687 3.23815 31.2586 4.493ZM60.7685 18.6974C59.3079 19.456 58.0115 20.2799 56.9514 21.1701C55.1135 22.7133 54.1708 24.2866 54.0566 25.9374C54.3635 25.9291 54.8101 25.8709 55.3975 25.7236C56.242 25.5118 57.1502 25.1754 57.9253 24.8339C58.3091 24.6649 58.645 24.5013 58.9088 24.3613C59.0406 24.2914 59.1484 24.2306 59.2312 24.181C59.2724 24.1564 59.3046 24.1362 59.3285 24.1206C59.3404 24.1129 59.3493 24.1069 59.3557 24.1025C59.3621 24.0981 59.3645 24.0963 59.3645 24.0963C60.8013 23.041 61.2716 21.2073 60.7685 18.6974Z" fill="#7782B8"/>
</svg>
