<svg width="146" height="170" viewBox="0 0 146 170" fill="none" xmlns="http://www.w3.org/2000/svg">
<g opacity="0.3">
<path fill-rule="evenodd" clip-rule="evenodd" d="M76.4857 0.23124C76.7459 0.49304 76.7418 0.911363 76.4765 1.1682C48.9183 27.8467 33.2925 42.5945 21.0816 54.0088C16.2034 58.6104 11.2628 63.2273 6.24635 67.8486C5.97383 68.0996 5.54533 68.0875 5.288 67.8216C5.03068 67.5556 5.04147 67.1359 5.31212 66.8829C7.59728 64.7471 9.86784 62.6311 12.2033 60.4546C14.7456 58.0853 17.3648 55.6443 20.1634 53.0282C29.2889 44.42 38.1899 35.871 46.9661 27.4419C56.5933 18.1954 66.0704 9.09305 75.5291 0.214963C75.7984 -0.037827 76.2255 -0.03056 76.4857 0.23124ZM86.7385 1.03395C86.9915 1.29625 86.9848 1.70824 86.7234 1.96253C79.6942 8.80145 69.7633 18.1308 58.1659 29.0257C56.0974 30.9689 53.9759 32.9618 51.8085 34.9994C37.4854 48.4636 21.1476 63.879 4.80299 79.7437C4.53741 80.0015 4.10903 80.0006 3.84465 79.7416C3.58026 79.4827 3.57933 79.0631 3.84257 78.8031C32.9894 50.0066 61.836 22.0601 85.791 0.995748C86.0652 0.754699 86.4855 0.771648 86.7385 1.03395ZM83.0008 1.07962C83.2554 1.34554 83.2439 1.76262 82.9752 2.01482C68.3586 15.7305 51.8287 31.4765 34.5541 47.9319C25.9258 56.1509 17.1118 64.5469 8.25758 72.9554C7.48244 73.6919 6.70749 74.4276 5.93296 75.1623C5.66356 75.4179 5.23365 75.4112 4.97268 75.1474C4.71171 74.8836 4.71848 74.4625 4.9878 74.2069C4.98785 74.2069 4.9879 74.2068 4.98794 74.2068C4.98939 74.2054 4.99083 74.204 4.99228 74.2027C5.76096 73.4731 6.52945 72.7435 7.29766 72.014C17.0719 62.7267 26.8834 53.3078 36.2478 44.3182C54.3513 26.9393 70.7839 11.1644 82.0462 1.04446C82.3204 0.798011 82.7462 0.813689 83.0008 1.07962ZM79.2621 1.12574C79.5116 1.38871 79.503 1.7981 79.2427 2.05082C60.3942 20.3505 44.2013 35.5816 28.9234 49.9522C23.7722 54.7974 18.7251 59.5448 13.7152 64.2789C11.201 66.6791 8.65929 69.0893 6.09103 71.5035C5.82096 71.7574 5.39205 71.7494 5.13207 71.4856C4.8721 71.2218 4.87909 70.8017 5.14771 70.5464C7.67834 68.1408 10.2093 65.7435 12.7492 63.3432C20.7658 55.6902 28.5164 48.1266 35.9637 40.859C51.5183 25.6796 65.7497 11.7915 78.3186 1.07677C78.5951 0.841092 79.0126 0.862763 79.2621 1.12574ZM71.767 1.19837C72.0285 1.45859 72.0269 1.87662 71.7635 2.13496C52.659 20.8678 37.9464 34.6164 24.7557 46.9429C18.7412 52.5633 13.0431 57.8881 7.38924 63.2549C7.12008 63.5105 6.69043 63.5041 6.42931 63.2407C6.16818 62.9773 6.17432 62.5565 6.44303 62.3005C19.865 49.5149 33.5573 36.4845 70.8107 1.1869C71.0787 0.933022 71.5055 0.93814 71.767 1.19837ZM89.5029 1.91607C89.7592 2.18056 89.7503 2.59788 89.4829 2.85164C78.4298 13.3403 67.9525 23.3347 57.8052 33.0143C39.4885 50.4868 22.2468 66.9338 4.63375 83.4118C4.36422 83.664 3.93754 83.6563 3.6777 83.3945C3.41785 83.1328 3.42195 82.7149 3.68689 82.4581C37.3303 49.85 69.2529 19.4552 88.5478 1.88683C88.8205 1.63853 89.2465 1.65157 89.5029 1.91607ZM67.0414 2.15884C67.3049 2.41086 67.3153 2.82262 67.0648 3.08705C53.8552 17.0324 39.5227 30.1738 24.7791 43.692C19.0824 48.9153 13.3243 54.1949 7.54588 59.5988C7.275 59.8521 6.84583 59.8429 6.58661 59.5781C6.3274 59.3133 6.33599 58.893 6.60582 58.6386C21.0203 45.0485 35.9416 30.8796 66.0934 2.1579C66.3574 1.90641 66.7779 1.90683 67.0414 2.15884ZM63.3067 2.20731C63.5703 2.46586 63.5716 2.88422 63.3096 3.14433C52.2399 14.1358 43.5328 22.4165 36.4468 29.0031C27.1664 37.8791 18.0416 46.4855 8.67495 55.018C8.40748 55.2617 7.99112 55.2545 7.73259 55.0018C7.47406 54.749 7.46596 54.3413 7.71427 54.0789C12.2299 49.3072 17.0895 44.8866 23.7017 38.8717C24.751 37.9172 25.8444 36.9225 26.9875 35.88C29.5518 33.5414 32.3693 30.9592 35.5045 28.045C41.4038 22.4027 47.3675 16.65 53.4989 10.7356C56.4078 7.92963 59.3545 5.08724 62.3499 2.20297C62.616 1.94683 63.0431 1.94877 63.3067 2.20731ZM92.2669 2.79651C92.5222 3.05821 92.5169 3.47173 92.2551 3.72714C65.2504 30.0736 45.156 48.869 28.2887 64.6459C19.2957 73.0575 11.2201 80.611 3.50366 87.9934C3.23652 88.249 2.80881 88.2454 2.5462 87.9854C2.28359 87.7253 2.28462 87.3064 2.54851 87.0476C36.0402 54.2023 70.2304 21.6771 91.3171 2.7654C91.5897 2.52099 92.0117 2.53481 92.2669 2.79651ZM58.6044 3.19098C58.8607 3.45749 58.8489 3.87678 58.578 4.12906C55.546 6.95219 52.6447 9.6493 49.8586 12.2394C45.6549 16.1472 41.7134 19.8113 37.9808 23.2969C30.1373 30.7286 23.3272 37.3285 17.053 43.409C14.2246 46.1501 11.5051 48.7857 8.84892 51.3443C8.58389 51.5996 8.15852 51.5988 7.89452 51.3425C7.63052 51.0862 7.626 50.6696 7.88438 50.4078C16.6939 41.4832 25.9533 32.6903 37.0443 22.3333C43.1966 16.504 49.9847 10.1629 57.6467 3.16073C57.92 2.91094 58.3481 2.92446 58.6044 3.19098ZM54.858 3.22911C55.1174 3.4924 55.1109 3.9114 54.8436 4.16693C50.7395 8.08957 47.0077 11.6598 43.5845 14.935C40.9786 17.4761 38.4584 19.9592 35.9935 22.3878C27.0661 31.1838 18.8652 39.2639 9.95165 46.7885C9.6718 47.0247 9.25047 46.9986 9.00335 46.7296C8.75623 46.4606 8.77399 46.0475 9.04332 45.7998C17.7414 37.8007 26.811 29.1234 42.0894 14.5058C42.2483 14.3537 42.4079 14.201 42.5681 14.0477C46.1478 10.5568 49.8976 6.9485 53.9005 3.2096C54.1708 2.9571 54.5986 2.96582 54.858 3.22911ZM95.0329 3.6789C95.2917 3.94476 95.2815 4.36576 95.01 4.6193C66.8609 30.907 45.6885 51.1706 26.5082 69.5276C18.2232 77.457 10.3099 85.0306 2.36651 92.5804C2.09896 92.8347 1.67211 92.8302 1.41019 92.5703C1.14826 92.3105 1.14922 91.8924 1.41232 91.6337C23.885 69.5359 47.3112 47.3172 94.0617 3.66671C94.0654 3.6633 94.069 3.65989 94.0727 3.65648C94.3442 3.40301 94.774 3.41305 95.0329 3.6789ZM97.7953 4.55909C98.0557 4.82305 98.0485 5.24362 97.7794 5.49894C72.3453 29.6263 54.2291 46.8498 39.9028 60.4702C24.3847 75.2236 13.3132 85.7495 2.20473 96.2427C1.93743 96.4952 1.51262 96.4906 1.25108 96.2324C0.989536 95.9742 0.988266 95.5581 1.24822 95.2984C21.4984 75.0654 42.5761 55.3599 66.2386 33.2377C75.9607 24.1485 86.1191 14.6514 96.8357 4.54214C97.1056 4.28755 97.535 4.29514 97.7953 4.55909ZM100.559 5.43901C100.818 5.69928 100.815 6.11485 100.554 6.37238C87.0048 19.7033 71.6687 34.021 55.6274 48.9969C54.9096 49.667 54.1904 50.3384 53.4699 51.0112C44.1444 59.7181 34.5978 68.6417 25.0378 77.7202C17.3825 85.0757 9.70804 92.4806 2.0505 99.8965C1.7845 100.154 1.35588 100.152 1.09184 99.893C0.827808 99.6334 0.827789 99.2137 1.0918 98.9541C8.69501 91.4791 16.3971 84.0728 24.0892 76.7681C49.9418 51.9281 75.5776 27.6504 99.606 5.41965C99.8757 5.17013 100.3 5.17875 100.559 5.43901ZM103.332 6.32861C103.587 6.59329 103.577 7.00959 103.31 7.26283C86.7418 22.9834 72.4964 36.5954 59.58 48.9375C38.2093 69.358 20.477 86.3019 1.87992 103.567C1.61005 103.818 1.18463 103.809 0.925532 103.548C0.666432 103.287 0.670002 102.87 0.933542 102.613C40.2643 64.2699 78.6135 27.6903 102.378 6.29545C102.652 6.04914 103.077 6.06392 103.332 6.32861ZM47.2043 6.96343C47.4712 7.21982 47.4763 7.63926 47.2158 7.90184C44.4661 10.6727 41.8747 13.1964 39.4276 15.5223C30.3435 24.3162 21.5554 32.5081 13.0595 40.3308C12.7953 40.5741 12.3826 40.5712 12.1221 40.3242C11.8615 40.0773 11.8449 39.6734 12.0844 39.4068C16.1239 34.9109 20.7831 30.7173 26.3562 25.7035L26.4134 25.6521C30.0143 22.4126 34.0051 18.8224 38.4765 14.5726C41.0428 12.0882 43.6326 9.55591 46.246 6.97035C46.5091 6.71014 46.9374 6.70704 47.2043 6.96343ZM106.088 7.20261C106.35 7.46381 106.347 7.88296 106.082 8.14065C79.8575 33.6144 60.3096 52.032 44.0466 67.2581C41.2303 69.8948 38.5127 72.4356 35.8762 74.9006C32.1053 78.4263 28.5003 81.7968 25.0095 85.0712C17.1687 92.5188 9.44487 99.8648 1.72608 107.222C1.45817 107.477 1.02992 107.473 0.767924 107.211C0.505931 106.95 0.508722 106.531 0.774169 106.273C8.35593 98.9095 15.9016 91.7722 24.068 84.1123C34.8933 73.8297 45.9418 63.3531 57.5074 52.3861C72.3267 38.3339 87.9949 23.4767 105.13 7.19109C105.399 6.93626 105.827 6.9414 106.088 7.20261ZM108.856 8.0864C109.116 8.34806 109.112 8.7662 108.847 9.02311C54.0914 62.1011 27.1393 87.3618 2.53199 109.964C2.26005 110.214 1.83335 110.202 1.57599 109.938C1.31863 109.674 1.32685 109.256 1.59441 109.002C12.3116 98.816 23.0603 88.569 33.8209 78.3107C58.5307 54.7541 83.3029 31.1381 107.899 8.07C108.169 7.81741 108.595 7.82473 108.856 8.0864ZM41.5355 8.88179C41.7865 9.14698 41.7751 9.55992 41.51 9.81155C37.6298 13.4942 34.1962 16.7607 30.9703 19.8294C28.4087 22.2662 25.9782 24.5784 23.5591 26.8753C20.8884 29.5062 18.1722 32.1263 15.1638 34.8242C14.8896 35.07 14.4646 35.0543 14.2101 34.789C13.9556 34.5236 13.9662 34.1072 14.2339 33.8546C17.1261 31.1253 19.8575 28.5373 22.6035 25.9299C23.5487 24.9987 24.4897 24.0649 25.4378 23.1239C25.8755 22.6895 26.3147 22.2535 26.7566 21.8157C30.8531 17.7563 35.1703 13.537 40.587 8.83611C40.8633 8.59631 41.2846 8.6166 41.5355 8.88179ZM37.8207 8.95347C38.0507 9.22675 38.0217 9.62856 37.7548 9.86745C27.953 18.6406 23.9608 22.6522 19.8729 26.76C19.3466 27.2888 18.8187 27.8193 18.2766 28.3617C18.0214 28.6171 17.6057 28.6293 17.3353 28.3894C17.0648 28.1495 17.0363 27.7432 17.2706 27.4693C23.2681 20.4586 31.2848 12.9145 36.892 8.84222C37.1825 8.63129 37.5907 8.6802 37.8207 8.95347ZM110.653 9.9024C110.909 10.1681 110.899 10.587 110.629 10.84C97.9876 22.6913 86.7786 33.3121 76.6137 43.0024C72.6682 46.7983 68.6319 50.6911 64.5168 54.66C63.3172 55.8169 62.111 56.9803 60.8984 58.1496C42.5079 75.8828 22.6492 94.9792 2.37596 113.621C2.37467 113.622 2.37338 113.623 2.37209 113.625C2.37206 113.625 2.37202 113.625 2.37198 113.625C2.09856 113.876 1.66879 113.863 1.41204 113.595C1.15528 113.327 1.16875 112.907 1.44212 112.655C16.4478 98.8507 30.9008 84.97 48.0645 68.486C56.4904 60.3938 65.5695 51.6742 75.6879 42.0283C88.0307 30.1533 99.4915 19.22 109.695 9.87376C109.968 9.62387 110.396 9.63666 110.653 9.9024ZM113.413 10.7795C113.673 11.0432 113.666 11.4634 113.398 11.7188C102.364 22.2086 91.5322 32.5266 80.8373 42.7143C54.1179 68.1667 28.2524 92.8058 2.21712 117.279C1.94721 117.533 1.51863 117.525 1.25858 117.262C0.998525 116.998 1.00495 116.579 1.27295 116.323L1.27653 116.32L2.83773 114.83C38.9422 80.3898 74.1669 46.7885 112.454 10.7619C112.724 10.5078 113.153 10.5157 113.413 10.7795ZM116.177 11.6609C116.436 11.9227 116.431 12.3395 116.167 12.5959C78.3232 49.3253 50.2944 75.7914 24.659 99.7967C16.959 107.207 10.0715 113.705 3.02034 120.025C2.74565 120.271 2.31977 120.255 2.06556 119.989C1.81135 119.722 1.82361 119.305 2.09305 119.053L2.10329 119.044L4.17071 117.112C10.6107 111.096 17.0821 105.051 23.7134 98.8417C28.1387 94.5827 32.8351 90.0197 37.9895 85.0117C39.8164 83.2368 41.7008 81.4059 43.651 79.5129C60.669 62.9942 82.6876 41.7548 115.222 11.6401C115.493 11.3899 115.918 11.3992 116.177 11.6609ZM117.968 13.4707C118.228 13.7344 118.221 14.1543 117.952 14.4097C101.733 29.8436 87.9714 42.9539 75.9829 54.3748C48.9351 80.1421 30.9141 97.3099 14.0658 113.161C10.6765 116.352 7.27223 119.546 3.84738 122.748M117.968 13.4707C117.708 13.2071 117.279 13.1989 117.009 13.4525L117.968 13.4707ZM3.84588 122.749C3.84583 122.749 3.84577 122.749 3.84572 122.749C3.57442 123.003 3.14458 122.993 2.88559 122.727C2.62659 122.462 2.6365 122.041 2.90772 121.787C6.35691 118.561 9.7878 115.342 13.2697 112.066C29.3329 96.9428 45.0349 81.9295 60.9967 66.6677C79.0368 49.4189 97.4088 31.8527 117.009 13.4525M120.736 14.355C120.994 14.6193 120.985 15.038 120.717 15.2924C107.75 27.591 94.4895 40.2487 81.005 53.1206C55.8652 77.1183 29.9452 101.861 3.68547 126.41C3.4157 126.662 2.98875 126.654 2.72906 126.392C2.46938 126.13 2.47412 125.712 2.73969 125.455C6.65592 121.674 10.5768 117.881 14.5501 114.038C41.9291 87.5563 71.7971 58.6669 119.779 14.3308C120.05 14.0799 120.478 14.0907 120.736 14.355ZM122.517 16.154C122.779 16.4127 122.78 16.8296 122.519 17.0892C88.9664 50.4539 59.8932 77.5131 31.8551 103.609C22.6665 112.161 13.589 120.61 4.50154 129.143C4.23102 129.397 3.80154 129.388 3.54184 129.124C3.28215 128.859 3.29041 128.438 3.5603 128.184C22.3482 110.457 41.4703 92.2709 65.205 69.6982C81.3928 54.3029 99.7261 36.8672 121.562 16.1448C121.829 15.8913 122.255 15.8954 122.517 16.154ZM124.309 17.9648C124.572 18.2257 124.569 18.6455 124.304 18.9036C119.057 24.0049 113.515 29.31 107.733 34.7939C99.2917 42.899 91.4972 50.396 84.2278 57.3878C82.2992 59.2428 80.4076 61.0622 78.5506 62.848C92.5778 49.6115 107.894 35.3996 125.154 19.7513C125.427 19.5037 125.853 19.5175 126.109 19.7823C126.365 20.0471 126.355 20.4642 126.088 20.7176C90.5549 54.3664 65.3066 78.3753 43.8739 98.756C30.6756 111.306 18.9243 122.481 7.10915 133.683C6.84089 133.938 6.41328 133.932 6.15184 133.671C5.89041 133.41 5.89322 132.991 6.15814 132.734C10.5836 128.429 15.0098 124.113 19.4744 119.76C26.798 112.618 34.2245 105.377 41.9192 97.9191C28.8443 110.324 17.1779 121.193 5.30628 131.887C5.03453 132.132 4.61285 132.119 4.35693 131.859C4.10101 131.598 4.10462 131.185 4.36506 130.929C25.5124 110.114 47.1034 89.8007 67.4837 70.7274C70.2093 68.1766 72.9131 65.648 75.5913 63.1434C86.5028 52.9395 96.9884 43.1336 106.783 33.8435C112.044 28.7925 117.557 23.505 123.35 17.9561C123.618 17.6999 124.046 17.7038 124.309 17.9648ZM127.893 21.585C128.154 21.8479 128.148 22.268 127.88 22.5243C124.239 26.0096 120.462 29.5945 116.566 33.2719C109.047 40.435 100.901 48.2272 92.282 56.4712C66.9342 80.7169 37.501 108.87 7.91978 136.423C7.65107 136.673 7.22705 136.666 6.9672 136.407C6.70736 136.148 6.70776 135.732 6.96811 135.474C34.6568 107.969 62.8106 81.6944 88.132 58.0628C97.7695 49.0684 106.997 40.4569 115.632 32.3064C119.579 28.5464 123.354 24.9592 126.934 21.5703C127.203 21.3155 127.632 21.3221 127.893 21.585ZM129.69 23.3998C129.946 23.6653 129.935 24.0833 129.666 24.3362C116.56 36.6618 104.993 47.5246 94.679 57.2117C63.7912 86.2204 44.131 104.685 27.9679 120.307C21.8696 126.26 15.7867 132.232 9.72274 138.217C9.45909 138.477 9.03017 138.479 8.76369 138.222C8.49721 137.965 8.49366 137.544 8.75573 137.283C14.6097 131.437 20.528 125.63 27.0072 119.367C60.6537 86.5221 94.7684 54.2408 128.734 23.3689C129.007 23.1205 129.434 23.1343 129.69 23.3998ZM131.469 25.1975C131.732 25.4574 131.731 25.8765 131.467 26.1354C79.978 76.6592 51.1698 103.303 28.757 124.032C22.2762 130.026 16.3302 135.525 10.5251 140.964C10.2554 141.217 9.82801 141.209 9.56812 140.947C9.30824 140.684 9.31329 140.266 9.57943 140.009C25.7919 124.395 42.146 108.97 60.4564 91.6985C80.6258 72.6739 103.169 51.4104 130.511 25.1903C130.778 24.9344 131.206 24.9376 131.469 25.1975ZM133.264 27.0104C133.524 27.2726 133.519 27.6907 133.253 27.9471C112.844 47.6504 93.6015 65.6711 75.1445 82.9564C63.3929 93.962 51.9597 104.669 40.7461 115.323C30.324 125.332 21.3245 134.046 12.3235 142.764C12.0575 143.022 11.629 143.02 11.365 142.761C11.1009 142.502 11.1006 142.082 11.3644 141.822C20.702 132.628 30.1468 123.541 39.756 114.411C60.848 94.156 87.7616 68.6052 132.308 26.9921C132.578 26.74 133.004 26.7482 133.264 27.0104ZM134.081 29.7473C134.341 30.0118 134.333 30.4324 134.063 30.6871C134.063 30.6876 134.062 30.688 134.062 30.6884M134.081 29.7473C133.821 29.4828 133.392 29.4744 133.121 29.7285L134.081 29.7473ZM91.5645 71.1285C68.0504 93.6131 41.1817 119.306 14.1047 144.581C13.8355 144.832 13.4099 144.824 13.1501 144.564C12.8903 144.303 12.893 143.886 13.156 143.629C33.1797 124.03 54.1026 104.292 92.1384 68.411C101.304 59.7643 111.464 50.1801 122.845 39.4344C126.445 36.0203 129.877 32.7773 133.121 29.7285M91.5645 71.1285C103.274 59.9313 114.152 49.5297 123.809 40.3713L91.5645 71.1285ZM123.809 40.3713C127.121 37.2442 130.537 34.0186 134.061 30.6891L123.809 40.3713ZM135.863 31.5469C136.125 31.8043 136.127 32.2198 135.868 32.4801C130.189 38.1964 124.373 44.0007 118.438 49.8716C124.943 43.884 131.066 38.3378 136.716 33.3309C136.993 33.0856 137.42 33.1051 137.673 33.3746C137.925 33.644 137.908 34.0624 137.634 34.3113C122.205 48.3555 101.011 68.67 76.972 91.7117C58.454 109.461 38.2476 128.829 17.6875 148.196C17.4188 148.449 16.9921 148.442 16.7314 148.181C16.4706 147.921 16.4732 147.503 16.7372 147.245C24.5107 139.658 32.291 132.077 40.0025 124.586C32.0168 131.902 23.9666 139.186 15.8839 146.4C15.6104 146.644 15.1878 146.629 14.9334 146.366C14.6789 146.103 14.6862 145.689 14.9498 145.434C47.6119 113.933 81.0206 82.4036 113.099 52.1297C120.448 45.1946 127.726 38.3255 134.91 31.5376C135.177 31.2854 135.601 31.2896 135.863 31.5469ZM87.9746 77.7013C78.1078 87.1876 68.0185 96.7535 57.7772 106.316C67.8755 96.7167 77.9612 87.1663 87.9746 77.7013ZM138.479 36.1009C138.736 36.3657 138.727 36.784 138.459 37.0378C108.886 64.9853 86.333 86.4823 67.2461 104.675C65.2355 106.592 63.2634 108.471 61.3255 110.318C46.834 124.321 33.1363 137.469 19.4713 150.011C19.1988 150.261 18.7711 150.248 18.5141 149.983C18.2571 149.718 18.2672 149.299 18.5367 149.045C31.7091 136.669 44.9544 124.064 60.3731 109.37C62.9185 106.91 65.4887 104.424 68.0878 101.91C69.7073 100.343 71.3381 98.7659 72.9811 97.1773C92.2701 78.5267 113.243 58.3353 137.523 36.0736C137.795 35.8239 138.222 35.8361 138.479 36.1009ZM139.296 38.8359C139.553 39.1028 139.541 39.5235 139.269 39.7759C109.025 67.8041 87.1174 89.1238 68.9734 106.782L68.9003 106.853C50.7927 124.476 36.4223 138.461 21.2514 151.828C20.9779 152.069 20.5582 152.052 20.3048 151.791C20.0514 151.53 20.0564 151.119 20.3162 150.864C57.634 114.201 95.5253 78.4008 138.336 38.8092C138.608 38.5571 139.038 38.5691 139.296 38.8359ZM140.104 41.5639C140.365 41.8267 140.36 42.2469 140.092 42.5033C119.558 62.1753 103.085 78.0868 89.3205 91.3828C58.8583 120.808 41.6573 137.423 23.0388 153.639C22.7634 153.879 22.343 153.86 22.0913 153.597C21.8396 153.333 21.8486 152.921 22.1114 152.668C47.429 128.305 73.4262 103.725 101.163 77.499C113.451 65.8802 126.081 53.9386 139.144 41.55C139.413 41.2949 139.843 41.3012 140.104 41.5639ZM141.894 43.3735C142.155 43.6377 142.148 44.0587 141.878 44.3139C141.878 44.314 141.878 44.3141 141.878 44.3141M141.894 43.3735C141.634 43.1094 141.204 43.1021 140.934 43.3572L141.894 43.3735ZM140.934 43.3572C131.9 51.9015 123.009 60.2986 114.243 68.5767L140.934 43.3572ZM114.243 68.5767C83.1051 97.9829 53.5575 125.887 24.8764 153.55L114.243 68.5767ZM95.8074 88.1047C73.0492 109.779 49.4516 132.252 25.8237 154.504C25.5545 154.757 25.1267 154.75 24.8662 154.488C24.6057 154.226 24.6103 153.807 24.8764 153.55M95.8074 88.1047C111.662 73.0054 127.109 58.2942 141.876 44.3161L95.8074 88.1047ZM142.709 46.1079C142.968 46.3705 142.963 46.7893 142.697 47.0454C90.7171 97.0097 59.1779 127.169 27.6091 156.316C27.3376 156.567 26.9104 156.556 26.6525 156.292C26.3945 156.028 26.4024 155.609 26.6701 155.355C34.6999 147.719 42.6907 140.067 51.3465 131.777C73.3381 110.716 99.6232 85.5433 141.751 46.09C142.021 45.8373 142.449 45.8453 142.709 46.1079ZM142.549 49.7676C142.808 50.0306 142.803 50.4498 142.535 50.7058C130.447 62.2853 118.301 73.6197 106.175 84.89C82.7554 106.976 55.9475 132.426 29.4109 158.114C29.1463 158.37 28.7204 158.37 28.4558 158.114C28.1913 157.858 28.1866 157.441 28.4453 157.179C51.3797 133.954 75.0694 111.95 98.8677 89.8453C100.999 87.8654 103.132 85.8846 105.265 83.9021C118.725 71.208 131.066 59.6261 141.591 49.75C141.861 49.4968 142.289 49.5047 142.549 49.7676ZM143.359 52.498C143.622 52.7594 143.62 53.1805 143.353 53.4385C143.353 53.4386 143.353 53.4387 143.353 53.4387C143.349 53.4418 143.346 53.4449 143.343 53.448C142.112 54.6389 140.894 55.8154 139.691 56.978C112.97 82.8055 72.4876 121.922 31.1888 159.934C30.9178 160.183 30.4923 160.173 30.2344 159.91C29.9765 159.648 29.9821 159.231 30.2469 158.975C40.2996 149.271 50.5308 139.682 62.7855 128.196C66.256 124.943 69.8888 121.538 73.7258 117.935C90.3845 102.294 110.899 82.9179 138.707 56.0599C138.894 55.8786 139.081 55.6979 139.268 55.5179C140.334 54.4873 141.378 53.4783 142.398 52.4919C142.665 52.2339 143.095 52.2366 143.359 52.498ZM144.175 55.2333C144.437 55.4942 144.434 55.9129 144.169 56.1706C121.227 78.5148 103.09 95.9146 87.7042 110.506C69.0737 128.506 51.8737 144.911 33.9453 160.825C33.6698 161.07 33.2446 161.052 32.9915 160.785C32.7385 160.518 32.7517 160.101 33.0212 159.85C36.1891 156.9 39.3491 153.96 42.5417 150.991C55.7564 138.7 69.5315 125.888 86.7527 109.556C90.6932 105.749 94.6983 101.87 98.7886 97.9084C112.401 84.7243 126.957 70.6262 143.218 55.2209C143.487 54.9668 143.914 54.9723 144.175 55.2333ZM144.991 57.9691C145.252 58.2304 145.249 58.6488 144.984 58.9062C91.2441 111.127 63.9917 137.187 36.7126 161.704C36.4388 161.951 36.0138 161.935 35.759 161.67C35.5041 161.405 35.5142 160.989 35.7815 160.736C57.3016 140.375 78.8948 119.831 98.0642 101.594C116.296 84.2478 132.336 68.988 144.034 57.9549C144.303 57.7015 144.73 57.7078 144.991 57.9691ZM145.805 60.7018C146.068 60.9638 146.064 61.3847 145.797 61.6421C120.996 85.5145 101.367 103.898 84.5734 119.627C84.0273 120.138 83.4842 120.647 82.944 121.153C68.3739 134.926 53.3328 149.21 38.5202 163.496C38.2541 163.753 37.8265 163.751 37.5628 163.492C37.2991 163.233 37.2983 162.814 37.561 162.554C51.1541 149.109 65.1734 135.956 82.0209 120.177C88.6233 113.935 95.1297 107.798 101.473 101.815C117.285 86.9015 132.086 72.9412 144.844 60.6942M145.805 60.7018C145.543 60.4398 145.113 60.4357 144.845 60.6927L145.805 60.7018ZM144.845 60.6927C144.845 60.6929 144.845 60.6931 144.844 60.6934L144.845 60.6927ZM145.655 64.3731C145.911 64.6396 145.899 65.0583 145.628 65.3104C120.379 88.8414 80.4256 126.637 41.2857 164.379C41.0189 164.637 40.5898 164.634 40.3265 164.373C40.0631 164.113 40.0648 163.693 40.3302 163.434C44.4053 159.464 48.4463 155.513 52.5344 151.516C76.321 128.257 101.704 103.438 144.698 64.3412C144.972 64.0923 145.399 64.1066 145.655 64.3731ZM145.484 68.0213C145.747 68.2825 145.744 68.7029 145.478 68.9609C135.524 78.6089 125.935 87.7268 116.643 96.4826C112.259 100.64 107.987 104.682 103.812 108.627C117.225 96.0787 130.74 83.7821 144.383 71.6565C144.658 71.4122 145.082 71.4293 145.336 71.695C145.589 71.9607 145.578 72.3764 145.31 72.6285C138.862 78.7022 132.463 84.718 126.107 90.6926C99.0207 116.156 72.7297 140.872 46.8195 166.141C46.5558 166.398 46.13 166.399 45.8645 166.144C45.5989 165.889 45.5926 165.472 45.8502 165.209C60.9286 149.821 76.0864 134.916 91.3654 120.371C91.1222 120.601 90.8792 120.83 90.6366 121.058C89.7266 121.916 88.8208 122.77 87.919 123.62C72.4298 138.223 58.1166 151.718 44.0509 165.262C43.7846 165.518 43.3568 165.516 43.0933 165.257C42.8299 164.997 42.8296 164.579 43.0927 164.319C59.4138 148.214 76.2191 132.499 93.99 115.88C101.095 109.236 108.353 102.448 115.797 95.4327C124.851 86.8448 134.382 77.7614 144.524 68.0135C144.792 67.7565 145.221 67.76 145.484 68.0213ZM145.166 75.3465C145.427 75.6093 145.422 76.029 145.154 76.2853C140.769 80.4886 136.065 85.0087 131.097 89.782C107.54 112.416 78.0596 140.74 48.5965 167.962C48.3255 168.213 47.8991 168.203 47.6409 167.939C47.3826 167.676 47.3891 167.259 47.6553 167.003C80.7789 135.236 114.417 103.467 139.627 79.6573C141.187 78.1842 142.715 76.7415 144.208 75.3312C144.477 75.0769 144.906 75.0837 145.166 75.3465ZM144.034 79.9352C144.294 80.2004 144.285 80.6213 144.014 80.8755C144.014 80.8756 144.014 80.8756 144.014 80.8757C144.01 80.8789 144.007 80.8821 144.003 80.8853C115.979 107.196 95.347 126.904 77.9022 143.568C68.3294 152.713 59.7163 160.94 51.3679 168.839C51.0994 169.093 50.672 169.087 50.4108 168.826C50.1496 168.565 50.1526 168.146 50.4175 167.889C81.9854 137.193 114.342 106.856 136.299 86.2687C138.685 84.0317 140.948 81.9098 143.074 79.9151C143.345 79.661 143.775 79.67 144.034 79.9352ZM139.972 87.2986C140.231 87.5626 140.224 87.9821 139.955 88.2371C126.774 100.76 115.731 111.176 106.133 120.211C102.4 123.773 98.7397 127.273 95.1336 130.723C93.8362 131.965 92.5458 133.2 91.2616 134.429C78.8749 146.283 67.0663 157.584 55.1065 168.797C54.8379 169.049 54.4125 169.042 54.1521 168.783C53.8917 168.523 53.893 168.106 54.1551 167.848C67.2615 154.934 79.8868 143.058 97.4128 126.571C99.9023 124.229 102.491 121.794 105.193 119.25C115.757 109.17 126.898 98.5969 139.014 87.2785C139.284 87.0257 139.713 87.0347 139.972 87.2986ZM138.835 91.8839C139.092 92.1438 139.09 92.5572 138.83 92.8144C126.875 104.643 111.24 119.336 94.1902 135.359C82.5072 146.338 70.1597 157.942 57.8766 169.676C57.6093 169.931 57.1816 169.928 56.9191 169.667C56.6567 169.407 56.658 168.988 56.9221 168.73C81.9765 144.191 106.614 120.27 137.885 91.8589C138.156 91.6128 138.578 91.6239 138.835 91.8839ZM118.193 114.987C118.452 115.248 118.449 115.663 118.187 115.92C107.254 126.655 98.5817 134.84 91.4748 141.418C82.337 150.187 72.0857 159.959 61.6092 169.64C61.3445 169.884 60.9299 169.881 60.6692 169.632C60.4085 169.384 60.3944 168.978 60.6372 168.712C65.9235 162.931 71.5204 157.834 79.5492 150.523C79.8993 150.204 80.254 149.881 80.6135 149.554C83.5613 146.869 86.835 143.882 90.5326 140.46C91.486 139.545 92.4272 138.641 93.3555 137.749C94.9659 136.201 96.5371 134.69 98.0638 133.222C105.848 125.735 112.476 119.361 117.24 114.966C117.51 114.717 117.935 114.726 118.193 114.987ZM114.14 122.358C114.396 122.624 114.385 123.042 114.117 123.294C108.274 128.794 103.071 133.71 98.3736 138.16C96.1646 140.303 93.9496 142.466 91.7272 144.635C91.157 145.192 90.5864 145.749 90.0153 146.306C81.9079 154.217 73.699 162.182 65.3401 169.605C65.0655 169.849 64.6421 169.832 64.3885 169.567C64.135 169.302 64.145 168.887 64.4111 168.635C67.8486 165.37 71.4165 161.966 75.3478 158.214C81.5129 152.331 88.5717 145.596 97.4221 137.211C102.699 132.092 107.949 127.074 113.185 122.327C113.458 122.079 113.884 122.093 114.14 122.358ZM111.054 128.797C111.306 129.059 111.3 129.469 111.041 129.723C96.9357 143.559 84.8314 154.858 73.3676 165.559C71.9333 166.898 70.5091 168.227 69.0922 169.551C68.8271 169.799 68.4091 169.796 68.1476 169.544C67.8861 169.293 67.8754 168.884 68.1234 168.619L68.1784 168.561C76.3694 159.837 85.6305 149.973 110.11 128.755C110.385 128.517 110.803 128.536 111.054 128.797ZM106.955 136.126C107.223 136.364 107.253 136.766 107.023 137.04C100.493 144.822 88.9434 155.309 76.002 166.719C74.9351 167.672 73.8813 168.599 72.8142 169.524C72.534 169.767 72.106 169.742 71.8571 169.468C71.6082 169.195 71.6321 168.775 71.9106 168.531C72.9811 167.59 74.0436 166.655 75.0963 165.727C82.0006 159.558 89.468 152.279 104.769 137.366L106.019 136.146C106.276 135.896 106.688 135.887 106.955 136.126ZM102.939 143.534C103.189 143.803 103.173 144.219 102.901 144.468C96.7644 150.093 92.1514 154.558 88.088 158.509C87.813 158.776 87.5405 159.041 87.2702 159.304C83.5474 162.925 80.239 166.144 76.5661 169.47C76.291 169.719 75.862 169.703 75.6072 169.434C75.3523 169.165 75.3679 168.745 75.642 168.495C78.6735 165.73 81.6846 162.756 84.9333 159.547C85.7509 158.74 86.5836 157.917 87.4355 157.08C91.6673 152.918 96.358 148.394 101.986 143.485C102.263 143.243 102.688 143.265 102.939 143.534ZM101.815 148.132C102.057 148.405 102.031 148.818 101.758 149.06C98.6955 151.779 95.8121 154.599 92.8158 157.533L92.7193 157.627C92.6023 157.742 92.4851 157.857 92.3677 157.972C92.0486 158.312 91.7349 158.648 91.4253 158.979L91.3339 159.077C88.5751 162.032 86.1099 164.672 83.1626 166.704C82.8699 166.906 82.4676 166.851 82.2429 166.578C82.0182 166.305 82.0483 165.908 82.3116 165.671C85.5946 162.711 88.5373 159.841 91.3865 157.051C93.9678 154.301 96.9357 151.244 100.869 148.055C101.153 147.825 101.573 147.859 101.815 148.132Z" fill="#FFEE75"/>
<path fill-rule="evenodd" clip-rule="evenodd" d="M128.051 22.8811C115.657 9.27223 94.4787 0.453807 75.7795 1.39952L75.7729 1.39982C56.8098 2.17981 35.9395 7.57025 21.7277 21.2755C15.0163 27.8642 11.1709 36.5407 8.70728 45.8842C6.58832 53.9207 5.5041 62.3955 4.47907 70.4077C4.31198 71.7138 4.14646 73.0076 3.97829 74.2852C3.6901 77.536 3.34429 80.7846 2.99982 84.0206C2.12524 92.2364 1.25936 100.371 1.36742 108.252C1.51769 119.213 3.55674 129.573 10.0469 138.772C24.1845 158.624 50.6173 172.225 75.5963 167.847C87.3959 164.74 94.1825 155.956 99.7388 145.568C101.617 142.056 103.339 138.392 105.068 134.715C105.902 132.941 106.737 131.164 107.592 129.399C110.208 124 112.995 118.75 116.434 114.232C118.948 110.878 121.804 107.645 124.679 104.454C125.091 103.997 125.504 103.54 125.916 103.084C128.384 100.352 130.833 97.641 133.084 94.8768C138.342 88.4219 142.437 81.7765 143.085 74.1586C143.087 74.1362 143.09 74.1138 143.094 74.0917C146.338 57.0908 139.718 36.5876 128.051 22.8811ZM75.7127 0.0708596C94.8325 -0.894978 116.41 8.09496 129.072 22.0039L129.087 22.0206C140.967 35.9721 147.751 56.8547 144.436 74.3028C143.745 82.3092 139.444 89.2022 134.146 95.7064C131.871 98.4993 129.396 101.239 126.93 103.969C126.518 104.424 126.107 104.879 125.698 105.334C122.823 108.525 120.003 111.718 117.528 115.021L117.525 115.025C114.168 119.434 111.428 124.587 108.819 129.969C107.979 131.703 107.151 133.464 106.321 135.231C104.584 138.925 102.836 142.643 100.942 146.185C95.3333 156.672 88.3046 165.89 75.9202 169.139C75.9018 169.144 75.8832 169.148 75.8645 169.151C50.2525 173.654 23.3135 159.728 8.93159 139.531L8.92993 139.529C2.22989 130.033 0.161517 119.378 0.00922699 108.27C-0.099974 100.305 0.778776 92.0497 1.65653 83.8036C1.99962 80.5805 2.34256 77.3587 2.62629 74.1563C2.62711 74.1471 2.62812 74.1379 2.62932 74.1288C2.79697 72.8554 2.96229 71.5627 3.12952 70.255C4.15353 62.2477 5.24948 53.6778 7.39211 45.5516C9.88647 36.0914 13.8161 27.1579 20.7681 20.3339L20.7724 20.3298C35.3206 6.29862 56.5797 0.858363 75.7127 0.0708596Z" fill="#FFEE75"/>
</g>
</svg>
