<svg width="246" height="353" viewBox="0 0 246 353" fill="none" xmlns="http://www.w3.org/2000/svg">
<g clip-path="url(#clip0_1760_6966)">
<path d="M149.272 122.361C146.047 117.534 142.025 113.224 137.405 109.648C135.673 108.297 133.821 107.046 131.711 106.41C126.693 104.921 121.357 107.264 117.016 110.145C104.97 118.15 96.2493 130.843 93.1233 144.867C93.0038 145.443 92.9043 146.118 93.3025 146.575C93.7405 147.052 94.5171 146.972 95.1542 146.853C109.55 143.913 120.8 133.346 132.487 124.586C134.737 122.897 137.087 121.229 139.815 120.533C142.542 119.838 145.748 120.236 147.699 122.262L149.252 122.381L149.272 122.361Z" fill="#894610"/>
<path d="M139.655 114.773C139.178 116.918 138.58 119.044 137.863 121.11C137.744 121.467 138.003 121.884 138.361 121.984C138.759 122.083 139.118 121.844 139.237 121.487C139.954 119.401 140.551 117.296 141.029 115.15C141.109 114.773 140.91 114.376 140.532 114.276C140.173 114.177 139.735 114.396 139.655 114.773Z" fill="#492405"/>
<path d="M111.263 137.299C115.404 134.16 119.606 131.121 123.866 128.161C125.061 127.327 126.276 126.513 127.49 125.678C127.809 125.46 127.948 125.062 127.749 124.705C127.57 124.387 127.092 124.228 126.773 124.447C122.473 127.347 118.232 130.346 114.07 133.425C112.896 134.299 111.721 135.173 110.566 136.047C110.267 136.286 110.108 136.663 110.307 137.02C110.486 137.318 110.964 137.517 111.283 137.279L111.263 137.299Z" fill="#492405"/>
<path d="M50.9121 107.463C53.0625 117.534 59.4937 126.652 68.3342 132.095C68.0754 123.95 67.2988 115.806 66.0444 107.741L50.9121 107.463Z" fill="#663304"/>
<path d="M56.3278 50.0767C57.1441 63.7232 58.3587 77.3299 59.9914 90.8969C54.5557 88.8112 47.8855 91.9695 45.4763 97.2136C43.0671 102.458 44.6998 109.013 48.8014 113.125C52.8832 117.236 59.0357 118.984 64.8497 118.448C66.4425 130.406 66.8209 142.503 65.9846 154.541C76.3383 159.05 88.5238 159.328 99.0766 155.276C100.391 146.396 98.8775 124.963 99.0368 125.083C99.1961 125.202 117.793 121.05 121.676 117.435C127.948 111.595 128.027 101.901 127.271 93.4395C125.757 76.7538 122.651 60.2073 118.012 44.0779L78.0905 8.60107L51.0514 34.583L56.3278 50.0767Z" fill="#FAC7B2"/>
<path d="M109.091 21.1352C115.184 24.3134 119.425 37.3044 118.071 43.9588C116.259 52.8975 114.925 58.7772 107.658 64.3788C111.899 55.3209 112.078 44.4951 108.156 35.2783C107.817 42.7868 103.915 49.7987 98.7775 55.3407C93.6405 60.8827 87.2889 65.1733 80.9771 69.4043C88.9415 60.1081 92.3463 47.1767 89.9569 35.2187C85.5765 46.9582 77.9705 57.486 68.1544 65.4117C70.942 57.3668 71.4198 48.5672 69.5283 40.284C66.3824 52.4803 63.2563 64.6767 60.1104 76.8731C58.9954 68.8084 57.8804 60.7437 56.7654 52.679C59.314 68.6495 60.9068 84.7591 61.544 100.928C62.4599 97.2931 59.4733 93.4197 55.7698 92.6649C52.0664 91.91 48.124 93.8567 45.8741 96.8561C42.3299 83.8652 42.2503 69.9804 45.675 56.9497C47.0289 51.7851 48.9603 46.6801 52.1062 42.3498C57.9799 34.2454 67.4775 29.478 76.975 26.0813C89.9769 21.4332 95.8705 17.2618 109.131 21.0955L109.091 21.1352Z" fill="#663304"/>
<path d="M59.6919 73.2378C62.1011 74.9659 63.0966 79.2764 63.1365 83.1697C63.1763 87.063 62.4993 90.9365 62.5989 94.8496C62.6984 98.7429 63.8931 103.014 66.3819 104.444C64.4904 105.477 62.34 103.689 61.2051 101.246C60.0702 98.8224 59.6321 95.8627 58.9153 93.1215C57.2826 86.8842 54.0571 81.5409 50.0151 78.3627C49.5174 77.9654 48.8802 77.6078 48.4023 78.0448L59.6919 73.2378Z" fill="#663304"/>
<path d="M67.3976 3.05902C66.3224 0.476727 62.8579 -0.655511 60.2496 0.417136C57.6413 1.48978 56.0086 4.33031 55.9688 7.11124C60.4487 6.43587 64.8291 5.16459 68.9706 3.33712L67.4176 3.05902H67.3976Z" fill="#CE8320"/>
<path d="M67.2791 39.6484C51.1911 43.0054 35.541 48.3091 20.7472 55.3806C13.6987 58.7574 6.55067 62.8097 2.32955 69.325C1.05525 71.2915 0.0596969 73.5957 0.378272 75.8999C0.796403 79.0185 3.56403 81.4221 6.6104 82.3954C9.63687 83.3687 12.9023 83.1502 16.088 82.892C28.5324 81.8789 41.355 79.1576 53.6003 76.7143C54.6954 76.4958 55.3923 77.0719 56.0493 76.178C56.4874 75.5821 56.6268 74.9464 56.7263 74.2313C57.463 68.8085 58.1798 63.3658 58.9165 57.943L67.299 39.6484H67.2791Z" fill="#6B74B5"/>
<path d="M38.1088 77.2504C28.6112 79.0581 19.0141 80.8657 9.37724 80.3095C6.37068 80.1307 2.96591 79.4752 1.43276 76.9128C0.277928 74.9661 1.37303 72.2249 1.87081 70.02C1.19383 72.364 -0.657887 73.2578 0.238106 78.343C0.656236 80.7465 2.82653 82.1171 5.19594 82.8322C6.35077 83.1897 9.89492 83.4877 11.1095 83.448C21.961 83.0507 30.7218 81.978 41.3144 79.6937L38.0888 77.2703L38.1088 77.2504Z" fill="#535D91"/>
<path d="M35.3806 28.3058C42.668 13.686 58.099 2.68149 74.7844 2.22462C86.1535 1.92666 97.4231 6.51521 105.806 14.0237C114.188 21.5323 118.987 38.9528 121.476 49.7786C122.093 52.4602 67.9947 76.992 38.626 80.1703C36.8739 80.3689 27.3764 44.3955 35.3806 28.286V28.3058ZM72.9326 55.5193C73.5499 59.7503 74.5653 63.9217 75.9392 67.9739C86.1137 64.3388 95.7307 59.2139 104.372 52.8376L105.009 52.6191C103.496 45.488 97.8413 39.3104 90.7331 37.0658C85.9942 35.5561 80.3196 35.9137 76.656 39.2111C72.2955 43.1441 72.0964 49.7985 72.9526 55.5391L72.9326 55.5193Z" fill="#EFA02A"/>
<path d="M108.793 57.4063C107.817 54.9432 106.722 52.4602 105.746 49.9971C90.5542 55.837 75.7802 62.6901 61.524 70.4965C61.524 70.4965 61.5041 70.4965 61.4842 70.5164C59.5329 71.6089 60.5085 74.5885 62.7386 74.3302C73.9086 73.0788 100.51 62.9681 108.813 57.3864L108.793 57.4063Z" fill="#6B74B5"/>
<path d="M103.576 49.8184C101.146 54.1686 98.6774 58.5982 95.0337 62.0148C92.6245 64.2793 89.7772 66.0273 86.9498 67.7555C84.8393 69.0466 82.6889 70.3576 80.2598 70.9337C85.138 64.1204 88.921 56.5523 91.39 48.5869C94.297 49.6397 97.6819 49.3417 100.33 47.7725L103.556 49.8383L103.576 49.8184Z" fill="#663304"/>
<path d="M101.446 55.7378C101.426 56.2543 101.824 56.6913 102.342 56.731C102.86 56.7509 103.318 56.3536 103.338 55.8372C103.357 55.3207 102.959 54.8837 102.442 54.844C101.924 54.8241 101.466 55.2214 101.446 55.7378Z" fill="#EFA02A"/>
<path d="M80.5593 64.3785C80.5394 64.8949 80.9376 65.3319 81.4553 65.3717C81.973 65.3915 82.4309 64.9943 82.4509 64.4778C82.4708 63.9613 82.0725 63.5243 81.5549 63.4846C81.0372 63.4647 80.5792 63.862 80.5593 64.3785Z" fill="#EFA02A"/>
<path d="M73.8484 67.815C73.8285 68.3315 74.2267 68.7685 74.7444 68.8082C75.2621 68.8281 75.72 68.4308 75.7399 67.9143C75.7598 67.3979 75.3616 66.9609 74.8439 66.9211C74.3262 66.9013 73.8683 67.2985 73.8484 67.815Z" fill="#EFA02A"/>
<path d="M69.7481 73.2974C69.0712 70.874 68.3942 68.4506 67.7371 66.0073C67.2792 66.0868 66.8212 66.1861 66.3633 66.2656C67.2991 68.6691 68.1154 71.1322 68.8322 73.6152L69.7681 73.2974H69.7481Z" fill="#EFA02A"/>
<path d="M112.815 54.5262C110.903 49.8781 108.434 45.4485 105.109 41.6346C101.863 37.9201 97.7817 34.8809 93.0628 33.3117C88.5231 31.802 83.3861 31.5637 78.8265 33.1528C76.4969 33.9672 74.247 35.2385 72.5147 37.0063C71.559 37.9995 70.8024 39.1318 70.3245 40.4229C69.8267 41.7737 69.6475 43.2436 69.4683 44.6738C68.7914 50.5733 69.1697 56.6119 70.5435 62.3923C70.7028 63.1074 70.9019 63.8026 71.101 64.5177C71.34 65.3917 72.7138 65.0143 72.4749 64.1403C70.9218 58.6182 70.3046 52.8577 70.663 47.1369C70.7626 45.7464 70.882 44.3361 71.121 42.9456C71.34 41.6743 71.6984 40.4229 72.4152 39.3304C73.6895 37.3838 75.7801 35.9734 77.8708 35.02C81.9923 33.1528 86.8108 33.0733 91.1514 34.2055C95.711 35.3974 99.7131 37.9995 102.959 41.3764C106.284 44.8327 108.812 48.9842 110.764 53.3344C111.003 53.8509 111.222 54.3673 111.441 54.8838C111.58 55.2413 111.919 55.4797 112.317 55.3804C112.655 55.2811 112.954 54.8639 112.815 54.5064V54.5262Z" fill="#CE8320"/>
<path d="M119.028 41.7536C115.922 43.3228 112.836 44.8921 109.729 46.4613C109.391 46.6401 109.291 47.1168 109.471 47.4346C109.67 47.7723 110.108 47.8716 110.446 47.6929C113.552 46.1236 116.639 44.5544 119.745 42.9851C120.083 42.8064 120.183 42.3296 120.003 42.0118C119.804 41.6741 119.366 41.5748 119.028 41.7536Z" fill="#CE8320"/>
<path d="M68.4545 59.1545C64.7311 60.8032 60.9082 62.2731 57.0256 63.5444C53.123 64.8157 49.1408 65.9082 45.1387 66.7822C42.8689 67.2788 40.5791 67.7158 38.2893 68.0932C37.911 68.1528 37.692 68.6295 37.7916 68.9672C37.911 69.3645 38.2893 69.5234 38.6676 69.4638C42.7693 68.8083 46.8311 67.9343 50.8332 66.8616C54.8154 65.789 58.7578 64.5376 62.6205 63.0677C64.8307 62.2334 67.0209 61.3395 69.1712 60.386C69.5296 60.2271 69.6093 59.7107 69.4301 59.4127C69.2111 59.0552 68.8128 58.9956 68.4545 59.1545Z" fill="#CE8320"/>
<path d="M114.927 29.0409C111.362 31.4643 107.5 33.4507 103.438 34.9008C102.283 35.3179 101.088 35.6953 99.9137 36.033C99.0376 36.2912 99.4159 37.642 100.292 37.4036C104.553 36.1919 108.655 34.4637 112.477 32.2589C113.553 31.6232 114.628 30.9677 115.663 30.2725C115.982 30.054 116.121 29.6567 115.922 29.2992C115.743 28.9813 115.265 28.8224 114.946 29.0409H114.927Z" fill="#CE8320"/>
<path d="M67.3395 47.8918C63.8551 49.5603 60.4105 51.07 56.7668 52.3016C52.8842 53.6126 48.902 54.566 44.8401 55.1818C42.192 55.5791 39.504 55.8373 36.8359 55.9962C36.4576 56.0161 36.1191 56.314 36.1191 56.7113C36.1191 57.0689 36.4377 57.4463 36.8359 57.4264C41.4951 57.1483 46.1344 56.5723 50.694 55.4996C54.5169 54.6058 58.2601 53.3742 61.8839 51.8844C63.9746 51.0303 66.0254 50.0967 68.0563 49.1233C68.3948 48.9644 68.4944 48.4678 68.3152 48.15C68.1161 47.7925 67.6979 47.7329 67.3395 47.8918Z" fill="#CE8320"/>
<path d="M108.594 17.3412C103.875 19.407 99.1564 21.4728 94.4176 23.4989C89.6987 25.5251 84.9399 27.4916 80.1613 29.3786C75.3628 31.2657 70.5443 33.0534 65.6661 34.7021C60.8079 36.3508 55.8899 37.8605 50.932 39.1914C45.9941 40.5024 40.9964 41.6346 35.959 42.5285C35.3218 42.6477 34.6648 42.747 34.0276 42.8662C33.6493 42.9258 33.4303 43.4025 33.5298 43.7402C33.6493 44.1375 34.0276 44.2964 34.4059 44.2368C39.5031 43.4025 44.5406 42.31 49.5582 41.0387C54.5359 39.7674 59.4539 38.2975 64.3321 36.6687C69.2302 35.0398 74.0885 33.2719 78.9069 31.4047C83.7453 29.5177 88.5438 27.5512 93.3424 25.5251C98.0812 23.5188 102.8 21.453 107.519 19.3871C108.116 19.1289 108.714 18.8707 109.311 18.5926C109.669 18.4337 109.749 17.9172 109.57 17.6193C109.351 17.2617 108.953 17.2021 108.594 17.361V17.3412Z" fill="#CE8320"/>
<path d="M91.5909 7.32975C85.3588 10.6073 78.9077 13.4677 72.2972 15.8712C65.6868 18.2946 58.917 20.2611 52.0478 21.7906C48.1651 22.6646 44.2626 23.3797 40.3401 23.9558C39.9618 24.0154 39.7428 24.4921 39.8423 24.8298C39.9618 25.2271 40.3401 25.386 40.7184 25.3264C47.747 24.2935 54.7158 22.8037 61.5652 20.857C68.3947 18.9104 75.0848 16.5068 81.5757 13.6862C85.2194 12.1169 88.7835 10.3888 92.2878 8.56131C92.6263 8.38253 92.7259 7.9058 92.5467 7.58798C92.3476 7.25029 91.9095 7.15097 91.571 7.32975H91.5909Z" fill="#CE8320"/>
<path d="M3.64267 70.0794C2.70686 71.6884 2.7865 73.7145 3.66259 75.3235C4.51876 76.8728 6.03199 77.9455 7.6846 78.5017C8.12264 78.6407 8.30184 77.9654 7.8638 77.8263C6.4103 77.3496 5.07626 76.3961 4.29974 75.0454C3.5033 73.635 3.40374 71.8473 4.22009 70.437C4.43911 70.0397 3.84178 69.6821 3.60285 70.0794H3.64267Z" fill="#535D91"/>
<path d="M23.0765 55.4798C18.4771 57.2279 14.1564 59.6314 10.2538 62.611C9.15874 63.4452 8.08354 64.3192 7.06808 65.2528C6.7296 65.5508 7.22737 66.0673 7.56586 65.7494C11.1299 62.5514 15.1519 59.8697 19.4726 57.784C20.7071 57.1881 21.9814 56.6518 23.2557 56.1552C23.6738 55.9963 23.4946 55.3011 23.0765 55.4798Z" fill="#535D91"/>
<path d="M35.2209 75.1052C32.294 75.9594 29.3272 76.6943 26.3207 77.2902C25.8826 77.3895 26.0618 78.0649 26.4999 77.9656C29.4865 77.3697 32.4533 76.6347 35.4001 75.7806C35.8381 75.6614 35.6589 74.9662 35.2209 75.1052Z" fill="#535D91"/>
<path d="M61.623 107.205C59.5125 104.385 56.705 102.12 53.4795 100.69C52.5436 100.273 51.5879 99.9351 50.6123 99.657C49.7362 99.4186 49.3579 100.769 50.234 101.028C53.3799 101.902 56.267 103.59 58.5966 105.874C59.2337 106.51 59.851 107.185 60.3886 107.92C60.6275 108.218 61.0058 108.377 61.3642 108.179C61.6629 108 61.8421 107.523 61.623 107.205Z" fill="#BF8271"/>
<path d="M54.9338 102.775C53.2613 105.04 53.0422 108.158 54.2966 110.661C54.4758 110.999 54.9537 111.098 55.2723 110.919C55.6307 110.721 55.6904 110.304 55.5311 109.946C54.4957 107.88 54.7944 105.338 56.1683 103.49C56.4072 103.192 56.228 102.696 55.9094 102.517C55.551 102.298 55.1727 102.457 54.9338 102.775Z" fill="#BF8271"/>
<path opacity="0.56" d="M99.0168 125.062L76.8359 126.532L98.957 133.207L99.0168 125.062Z" fill="#BF8271"/>
<path d="M96.9464 74.072C99.8334 76.3762 102.163 79.2764 103.836 82.5539C105.488 85.7917 106.464 89.4069 106.663 93.0221C106.782 95.088 106.643 97.1339 106.245 99.1203C106.464 98.9415 106.703 98.7826 106.922 98.6039C104.035 98.7826 101.148 99.0607 98.2605 99.458C97.8822 99.5176 97.5437 99.756 97.5437 100.173C97.5437 100.511 97.8623 100.928 98.2605 100.888C101.128 100.511 104.015 100.213 106.922 100.034C107.22 100.034 107.539 99.8354 107.599 99.5176C108.355 95.7236 108.256 91.8104 107.34 88.0562C106.444 84.3615 104.791 80.8059 102.482 77.7866C101.167 76.0386 99.6542 74.4693 97.9419 73.0987C97.6432 72.8603 97.2251 72.8008 96.9464 73.0987C96.7074 73.3371 96.6477 73.8535 96.9464 74.0919V74.072Z" fill="#BF8271"/>
<path d="M90.3741 87.699C89.2989 85.653 87.0689 84.5009 84.8189 84.342C82.6486 84.2029 80.4584 85.077 79.1443 86.825C78.4474 87.7586 78.0094 88.871 77.6311 89.9635C77.5116 90.321 77.7704 90.7381 78.1288 90.8375C78.5271 90.9368 78.8855 90.6984 79.0049 90.3409C79.3036 89.447 79.6022 88.6922 80.1199 87.8976C80.5381 87.262 81.0757 86.7654 81.7925 86.388C83.3455 85.5736 85.3764 85.5736 86.9693 86.388C87.925 86.8647 88.6418 87.5401 89.1396 88.4538C89.3188 88.7915 89.7967 88.8908 90.1152 88.712C90.4537 88.5134 90.5533 88.0764 90.3741 87.7387V87.699Z" fill="black"/>
<path d="M122.571 79.4553C121.496 77.4094 119.266 76.2573 117.016 76.0983C114.846 75.9593 112.656 76.8333 111.342 78.5813C110.645 79.5149 110.207 80.6273 109.828 81.7198C109.709 82.0774 109.968 82.4945 110.326 82.5938C110.704 82.6931 111.083 82.4548 111.202 82.0972C111.501 81.2033 111.8 80.4485 112.317 79.654C112.735 79.0183 113.273 78.5217 113.99 78.1443C115.543 77.3299 117.574 77.3299 119.167 78.1443C120.122 78.621 120.839 79.2964 121.337 80.2102C121.516 80.5478 121.994 80.6472 122.313 80.4684C122.651 80.2697 122.751 79.8327 122.571 79.4951V79.4553Z" fill="black"/>
<path d="M86.7903 73.5759C86.9496 74.2115 86.85 74.867 86.3124 75.5424C86.0536 75.8602 85.7151 76.1184 85.3567 76.3171C81.2152 78.6213 77.4122 81.5015 74.0871 84.8386C73.1712 85.7524 71.638 85.9709 70.6226 85.1565C66.6006 81.9783 78.5471 75.0855 82.5492 72.1854C84.0824 71.073 86.3323 71.7682 86.8102 73.5957L86.7903 73.5759Z" fill="#663304"/>
<path d="M102.223 68.669C102.541 69.2451 103.059 69.6821 103.915 69.8013C104.333 69.8609 104.751 69.8212 105.15 69.7417C109.789 68.7088 114.567 68.3115 119.286 68.5697C120.6 68.6492 121.875 67.795 122.074 66.5039C122.89 61.4783 109.351 64.299 104.413 64.7956C102.521 64.9942 101.327 67.0005 102.203 68.669H102.223Z" fill="#663304"/>
<path d="M87.8463 70.4967C88.3043 71.4105 88.7622 72.3242 89.2202 73.2379C89.2998 73.4167 89.5387 73.4564 89.698 73.3571C89.8772 73.2578 89.917 73.0393 89.8175 72.8804C89.3595 71.9667 88.9016 71.0529 88.4436 70.1392C88.364 69.9604 88.1251 69.9207 87.9658 70.02C87.7866 70.1193 87.7467 70.3378 87.8463 70.4967Z" fill="#663304"/>
<path d="M86.4332 71.3312C86.8314 72.2449 87.2097 73.1388 87.6079 74.0526C87.6876 74.2313 87.9464 74.2711 88.0858 74.1717C88.265 74.0724 88.2849 73.8539 88.2053 73.695C87.807 72.7813 87.4287 71.8874 87.0305 70.9737C86.9509 70.7949 86.692 70.7552 86.5527 70.8545C86.3735 70.9538 86.3535 71.1723 86.4332 71.3312Z" fill="#663304"/>
<path d="M100.271 65.3717C100.37 66.3848 100.49 67.378 100.589 68.391C100.609 68.5896 100.729 68.7486 100.948 68.7486C101.127 68.7486 101.326 68.5896 101.306 68.391C101.207 67.378 101.087 66.3848 100.988 65.3717C100.968 65.1731 100.848 65.0142 100.629 65.0142C100.45 65.0142 100.251 65.1731 100.271 65.3717Z" fill="#663304"/>
<path d="M98.6582 66.1862V68.113C98.6582 68.2917 98.8175 68.4705 99.0166 68.4705C99.2157 68.4705 99.375 68.3116 99.375 68.113V66.1862C99.375 66.0074 99.2157 65.8286 99.0166 65.8286C98.8175 65.8286 98.6582 65.9875 98.6582 66.1862Z" fill="#663304"/>
<path d="M103.935 103.967C100.669 105.437 96.6674 105.02 93.6409 103.113C92.7847 102.577 92.048 101.941 91.371 101.166C91.1122 100.868 90.6144 100.908 90.3755 101.166C90.0967 101.444 90.1167 101.881 90.3755 102.16C93.0436 105.219 97.3244 106.669 101.327 106.132C102.481 105.973 103.596 105.656 104.672 105.179C105.03 105.02 105.11 104.523 104.93 104.206C104.711 103.848 104.313 103.788 103.955 103.947L103.935 103.967Z" fill="#BF8271"/>
<path d="M189.254 229.944C183.539 260.772 173.225 273.902 174.619 333.136C174.719 337.248 168.088 338.182 164.206 339.532C149.73 344.518 133.841 340.784 118.55 341.777C104.453 342.691 90.973 347.657 77.1946 350.676C63.3963 353.695 48.264 354.629 35.7997 347.994C21.6629 340.466 13.7583 340.883 12.2052 324.972C10.6522 309.061 14.495 293.15 18.7759 277.756C24.7093 256.442 31.5587 235.366 38.7665 214.45C41.0562 207.815 43.4256 201.101 47.3083 195.261C52.1666 187.991 59.3345 182.111 62.3411 173.908L189.254 229.944Z" fill="#D15259"/>
<path d="M103.936 138.411C91.6511 143.02 77.4546 142.344 65.6673 136.604C62.9992 141.053 63.059 146.972 59.5148 150.766C57.8622 152.534 55.5924 153.627 53.4619 154.779C37.8517 163.161 25.8255 177.463 18.5779 193.613C11.3303 209.762 8.62237 227.699 8.94095 245.398C9.2197 261.646 12.286 278.511 22.0225 291.521C37.9512 285.165 55.0548 281.709 72.218 281.351C71.6605 273.664 71.5609 265.957 71.9193 258.269C72.0388 255.826 72.218 253.303 73.3928 251.178C74.2887 249.549 75.7024 248.278 77.0962 247.066C86.4743 238.982 97.2461 232.268 109.153 228.871C121.338 225.395 134.221 225.494 146.904 225.633C156.601 225.732 166.297 225.832 175.994 225.931C187.323 226.05 198.732 226.17 209.843 223.925C220.933 221.68 231.844 216.893 239.49 208.55C241.8 206.028 243.811 203.187 244.946 199.969C247.932 191.587 244.209 175.993 238.136 169.478C232.063 162.963 223.78 159.01 215.537 155.613C184.177 142.662 142.782 145.105 108.854 144.331C107.122 144.291 103.956 138.411 103.956 138.411H103.936Z" fill="#D15259"/>
<path d="M58.9769 189.024C61.2268 194.586 63.2577 200.247 64.8506 206.027C66.1249 210.676 67.0607 215.403 67.6182 220.171C68.1359 224.719 68.3151 229.288 68.3151 233.857C68.3151 239.061 68.1359 244.245 67.9965 249.43C67.8173 255.985 67.6779 262.54 67.6779 269.115C67.6779 270.049 67.6779 270.982 67.6779 271.896C67.6779 272.81 69.1115 272.81 69.0916 271.896C69.0518 265.083 69.1514 258.249 69.3306 251.436C69.4699 246.133 69.669 240.849 69.7089 235.545C69.7487 230.917 69.6292 226.269 69.1713 221.66C68.7133 216.913 67.8771 212.185 66.7023 207.557C65.2687 201.896 63.3573 196.354 61.2467 190.911C60.948 190.136 60.6494 189.382 60.3308 188.607C60.1914 188.249 59.8529 188.011 59.4547 188.11C59.1162 188.21 58.8176 188.627 58.9569 188.984L58.9769 189.024Z" fill="#821E23"/>
<path d="M65.5875 264.169C62.2425 262.798 58.5191 263.136 55.0546 263.752C51.5702 264.367 48.1057 265.202 44.681 266.175C37.7918 268.142 31.0818 270.803 24.6904 274.061C22.978 274.935 21.2657 275.829 19.633 276.862C18.0799 277.855 16.6264 279.027 15.611 280.576C15.392 280.894 15.5513 281.351 15.8698 281.55C16.2083 281.748 16.6264 281.609 16.8455 281.291C17.6817 280.04 18.8565 279.047 20.1109 278.232C21.5046 277.319 22.978 276.544 24.4515 275.769C27.5177 274.16 30.6438 272.69 33.8494 271.399C40.3404 268.757 47.0703 266.731 53.9595 265.381C57.643 264.646 61.6053 264.07 65.2092 265.52C65.5676 265.659 65.9857 265.361 66.0853 265.023C66.2048 264.626 65.9459 264.288 65.5875 264.149V264.169Z" fill="#821E23"/>
<path d="M22.3402 277.597C23.6145 280.557 24.8888 283.536 26.1631 286.496C26.3224 286.853 26.8401 286.933 27.1387 286.754C27.4971 286.536 27.5369 286.138 27.3976 285.781C26.1233 282.821 24.849 279.841 23.5747 276.882C23.4154 276.524 22.8977 276.445 22.599 276.624C22.2406 276.842 22.2008 277.239 22.3402 277.597Z" fill="#821E23"/>
<path d="M28.0147 276.802C28.7913 279.385 29.5678 281.947 30.3443 284.529C30.6032 285.403 31.977 285.026 31.7182 284.152C30.9416 281.57 30.1651 279.007 29.3886 276.425C29.1297 275.551 27.7559 275.928 28.0147 276.802Z" fill="#821E23"/>
<path d="M33.471 273.167C34.586 275.749 35.7011 278.332 36.8161 280.934C36.9754 281.291 37.493 281.371 37.7917 281.192C38.1501 280.974 38.1899 280.576 38.0506 280.219C36.9355 277.637 35.8205 275.054 34.7055 272.452C34.5462 272.095 34.0285 272.015 33.7299 272.194C33.3715 272.412 33.3317 272.81 33.471 273.167Z" fill="#821E23"/>
<path d="M39.7826 270.863C41.037 273.445 41.8932 276.226 42.371 279.047C42.4308 279.424 42.9086 279.643 43.2471 279.543C43.6453 279.424 43.8046 279.047 43.7449 278.669C43.2471 275.71 42.3312 272.849 41.0171 270.148C40.8578 269.81 40.36 269.711 40.0415 269.89C39.6831 270.088 39.6233 270.505 39.7826 270.863Z" fill="#821E23"/>
<path d="M44.7797 269.572C45.4766 272.174 46.1735 274.776 46.8704 277.378C47.1093 278.252 48.4832 277.895 48.2442 277.001C47.5474 274.399 46.8505 271.797 46.1536 269.195C45.9147 268.321 44.5408 268.678 44.7797 269.572Z" fill="#821E23"/>
<path d="M51.7685 266.314C52.4057 269.254 53.0229 272.194 53.6601 275.134C53.7397 275.511 54.1778 275.73 54.5362 275.63C54.9344 275.531 55.1136 275.134 55.0339 274.756C54.3968 271.816 53.7795 268.877 53.1424 265.937C53.0627 265.559 52.6247 265.341 52.2663 265.44C51.8681 265.54 51.6889 265.937 51.7685 266.314Z" fill="#821E23"/>
<path d="M55.951 266.791C56.5085 269.195 57.066 271.598 57.6235 274.002C57.7031 274.379 58.1412 274.597 58.4996 274.498C58.8779 274.399 59.077 274.002 58.9973 273.624C58.4398 271.221 57.8823 268.817 57.3248 266.414C57.2452 266.036 56.8071 265.818 56.4487 265.917C56.0704 266.016 55.8713 266.414 55.951 266.791Z" fill="#821E23"/>
<path d="M60.9279 266.791C61.4854 269.016 62.023 271.221 62.5805 273.445C62.7995 274.339 64.1734 273.962 63.9543 273.068C63.3968 270.843 62.8592 268.638 62.3017 266.414C62.0827 265.52 60.7088 265.897 60.9279 266.791Z" fill="#821E23"/>
<path d="M135.414 287.847C141.348 298.176 152.358 304.453 163.27 309.3C168.765 311.743 174.539 313.968 180.552 314.127C191.682 314.424 201.638 307.711 210.717 301.275C196.839 305.049 181.428 302.764 169.243 295.117C157.077 287.469 148.336 274.578 145.768 260.474L135.414 287.827V287.847Z" fill="#492405"/>
<path d="M193.156 162.546C196.043 180.503 196.481 198.837 194.47 216.893C193.594 224.66 192.24 232.486 189.054 239.617C184.754 249.232 177.387 257.098 169.88 264.467C159.805 274.359 149.093 283.854 136.549 290.35C124.005 296.825 109.331 300.103 95.5525 296.964C81.7741 293.826 69.27 283.497 65.8653 269.811C63.0578 258.508 66.5223 246.57 71.3806 235.963C77.6127 222.356 87.1501 209.047 101.327 204.18C103.915 203.287 106.842 202.552 108.375 200.267C109.271 198.936 109.53 197.288 109.789 195.699C111.163 187.217 113.353 178.874 116.3 170.809C118.868 163.797 122.472 156.468 129.162 153.111C132.945 151.204 137.306 150.806 141.527 150.667C149.77 150.369 158.013 150.866 166.256 151.343C172.708 151.72 179.557 152.256 184.774 156.05C188.995 159.129 191.543 163.956 193.933 168.584L193.156 162.526V162.546Z" fill="#BA702D"/>
<path d="M215.297 163.4C212.29 162.347 209.045 162.148 205.938 162.804C187.8 166.638 169.621 170.332 151.163 171.941C140.69 172.855 130.118 173.113 119.804 175.199C108.753 177.443 98.2401 181.754 87.9859 186.422C86.5324 187.077 85.0192 187.793 84.0236 189.064C82.8091 190.613 82.6099 192.699 82.4706 194.665C81.9529 201.518 81.4352 208.371 80.9175 215.224C80.7781 217.092 80.6587 219.058 81.4949 220.727C82.3312 222.415 84.0236 223.508 85.6364 224.461C89.4195 226.706 93.3619 228.692 97.4038 230.44C99.2356 231.235 101.267 231.97 103.178 231.394C105.149 230.798 106.423 228.95 107.558 227.242C112.118 220.29 116.658 213.357 121.217 206.405C122.193 204.915 123.268 203.326 124.881 202.571C126.374 201.876 128.087 201.975 129.739 202.094C160.82 204.478 191.264 212.861 222.405 214.132C224.276 214.211 226.188 214.251 227.94 213.556C229.732 212.841 231.146 211.43 232.48 210.06C235.586 206.882 238.692 203.703 241.798 200.525C243.033 199.274 244.307 197.943 244.785 196.235C245.362 194.169 244.645 192.004 243.809 190.037C238.573 177.722 227.96 167.809 215.297 163.42V163.4Z" fill="#FAC7B2"/>
<path d="M181.051 158.374C177.447 161.413 173.863 164.453 170.259 167.472C165.261 171.683 160.224 175.954 156.799 181.317C153.375 186.68 151.642 193.335 153.574 200.366C155.505 207.398 161.578 215.125 169.642 217.966C178.383 221.045 178.164 193.633 177.905 192.62C177.666 191.626 178.184 190.832 178.701 190.077C184.356 181.774 188.119 172.299 189.812 162.089C190.25 159.427 186.566 156.587 183.799 157.52C183.799 157.52 183.759 157.52 183.739 157.54C181.847 158.215 181.051 158.335 181.051 158.335V158.374Z" fill="#894610"/>
<path d="M127.529 142.841C122.73 145.383 118.191 148.402 114.009 151.859C110.744 154.56 107.558 157.738 106.364 161.81C105.049 166.26 106.324 171.047 108.096 175.318C111.122 182.667 115.622 189.401 121.257 195.023C122.093 195.837 122.969 196.671 124.084 197.029C127.489 198.141 130.595 194.506 131.67 191.11C133.622 184.912 132.746 178.218 131.611 171.822C131.431 170.749 131.232 169.637 131.491 168.584C131.75 167.551 132.407 166.697 133.044 165.843C134.976 163.32 136.887 160.778 138.818 158.255C139.376 157.52 139.953 156.765 140.093 155.851C140.312 154.501 139.515 153.229 138.719 152.137C135.991 148.442 132.586 145.264 128.704 142.801H127.549L127.529 142.841Z" fill="#894610"/>
<path d="M160.602 235.525C153.036 227.858 144.474 229.427 134.001 231.95C123.528 234.473 114.269 240.471 105.25 246.351C105.967 235.744 105.31 225.037 103.318 214.609C102.602 210.874 101.248 206.643 97.6836 205.313C95.9315 204.657 93.9404 204.895 92.2081 205.61C87.0114 207.776 84.5225 213.635 83.0889 219.058C78.8479 235.069 79.485 251.893 80.162 268.42C80.3013 271.717 80.4606 275.134 81.9141 278.094C83.3676 281.053 86.4937 283.477 89.779 283.04C93.6019 282.543 96.3695 278.511 100.212 278.451C104.294 278.372 106.863 282.583 109.272 285.88C115.862 294.898 128.307 300.123 138.76 296.15C144.454 293.985 148.934 289.476 152.658 284.668C163.43 270.764 169.064 250.94 160.562 235.545L160.622 235.506L160.602 235.525Z" fill="#894610"/>
<path d="M88.6045 212.9C89.7195 208.967 89.6399 204.697 88.3457 200.823C88.1466 200.207 87.8877 199.572 87.4298 199.135C86.3148 198.062 84.4829 198.459 83.0494 199.075C73.1138 203.326 67.7976 213.993 63.7556 224.004C59.873 233.618 56.3687 243.471 54.6563 253.721C54.0391 257.356 53.8001 261.527 56.2293 264.328C59.1761 267.725 64.8906 267.307 68.4745 264.606C72.0784 261.904 74.0297 257.614 75.7221 253.462C81.8547 238.405 86.3546 222.673 89.1222 206.643L88.6045 212.94V212.9Z" fill="#894610"/>
<path d="M138.082 109.569C154.688 111.158 171.214 113.78 187.501 117.415C188.099 117.554 188.736 117.713 189.154 118.15C189.512 118.547 189.612 119.084 189.711 119.6C191.324 128.142 192.957 136.683 194.57 145.205C195.247 148.76 195.904 152.515 194.649 155.911C192.579 161.513 186.227 164.135 180.493 166.022C177.765 166.936 175.017 167.81 172.269 168.664C165.221 170.869 157.834 172.954 150.507 171.882C139.297 170.213 130.337 161.235 125.598 151.084C124.025 147.727 122.811 144.112 123.01 140.418C123.627 128.897 137.385 121.011 137.465 109.47L138.102 109.589L138.082 109.569Z" fill="#894610"/>
<path d="M139.078 109.807C144.314 111.793 148.416 116.441 149.69 121.825C150.964 127.208 149.391 133.167 145.588 137.239C142.92 140.099 139.356 141.986 136.25 144.39C133.144 146.793 130.357 150.15 130.317 154.044C130.297 156.209 131.133 158.295 132.208 160.182C135.354 165.644 140.69 169.816 146.803 171.583C152.916 173.351 159.685 172.676 165.32 169.756C167.311 168.723 169.203 167.372 170.338 165.446C171.751 163.062 171.791 160.142 171.473 157.381C171.114 154.262 170.378 151.203 169.243 148.283C168.088 145.304 166.555 142.463 165.619 139.404C162.951 130.624 165.977 120.394 173.026 114.415C162.473 111.416 151.502 109.867 140.511 109.867L139.058 109.787L139.078 109.807Z" fill="#BA702D"/>
<path d="M174.041 121.368C176.67 119.62 179.298 117.852 181.926 116.104C184.236 114.554 186.685 112.965 189.472 112.727C192.997 112.429 196.342 114.376 198.97 116.7C201.777 119.163 204.087 122.123 206.357 125.082C210.678 130.724 214.899 136.484 217.945 142.86C220.991 149.257 222.843 156.348 222.126 163.38C222.047 164.194 221.927 165.048 221.509 165.744C220.673 167.154 218.821 167.73 217.188 167.511C215.556 167.273 214.082 166.399 212.748 165.426C203.191 158.513 198.014 147.29 193.694 136.405C191.822 131.677 189.731 126.552 185.271 124.03C181.946 122.142 177.884 122.083 174.061 122.321L174.021 121.368H174.041Z" fill="#894610"/>
<path d="M24.3504 291.521C27.8348 305.664 32.3944 320.602 43.6242 329.918C46.2723 332.123 49.3984 333.99 52.843 334.169C55.4911 334.308 58.0795 333.414 60.5684 332.54C97.9214 319.41 134.777 304.87 171.034 288.999C175.574 287.012 180.194 284.947 183.777 281.55C191.344 274.379 189.99 252.032 190.527 241.524C190.547 241.047 189.91 240.889 189.691 241.326L188.158 261.388C190.706 256.144 188.835 238.843 188.397 233.022C188.337 232.268 187.302 232.129 187.043 232.844L185.45 257.554C187.859 250.205 187.242 238.147 185.868 230.738C185.629 229.467 183.817 229.427 183.519 230.679L181.249 256.621C182.065 248.04 182.881 239.458 183.678 230.877C183.678 230.857 183.678 230.818 183.678 230.798C183.917 227.858 179.676 227.063 178.8 229.884C177.645 233.658 176.649 237.472 175.813 241.326C174.798 246.093 173.981 251.059 171.393 255.191C168.804 259.322 163.886 262.481 159.128 261.328C160.621 256.025 161.099 250.463 160.601 244.981C160.362 242.378 156.718 241.921 155.822 244.385C153.214 251.575 145.051 277.279 143.617 278.689C142.383 279.901 76.7959 290.389 72.6146 288.681C68.4333 286.953 72.6146 288.462 64.5705 278.67C64.5705 278.67 52.0067 275.948 40.9362 279.842C31.0604 283.318 24.3105 291.521 24.3105 291.521H24.3504Z" fill="#FAC7B2"/>
<path d="M182.344 231.314C181.727 237.551 181.03 243.769 180.273 249.986C180.054 251.734 179.835 253.482 179.616 255.23C179.576 255.608 179.974 255.945 180.333 255.945C180.751 255.945 180.99 255.628 181.05 255.23C181.846 249.013 182.563 242.796 183.22 236.578C183.399 234.83 183.578 233.082 183.758 231.314C183.797 230.937 183.399 230.599 183.041 230.599C182.623 230.599 182.364 230.917 182.324 231.314H182.344Z" fill="#BF8271"/>
<path d="M186.644 235.227C186.027 241.405 185.41 247.583 184.773 253.76L184.235 259.044C184.195 259.421 184.594 259.759 184.952 259.759C185.37 259.759 185.629 259.441 185.669 259.044C186.286 252.866 186.923 246.689 187.54 240.511C187.72 238.743 187.899 236.995 188.078 235.227C188.118 234.85 187.72 234.512 187.361 234.512C186.943 234.512 186.684 234.83 186.644 235.227Z" fill="#BF8271"/>
<path d="M189.033 242.954C188.376 248.417 187.719 253.899 187.062 259.362C186.883 260.931 186.684 262.48 186.505 264.05C186.465 264.427 186.863 264.765 187.222 264.765C187.64 264.765 187.879 264.447 187.938 264.05C188.595 258.587 189.252 253.105 189.909 247.642C190.089 246.073 190.288 244.524 190.467 242.954C190.507 242.577 190.109 242.239 189.75 242.239C189.332 242.239 189.093 242.557 189.033 242.954Z" fill="#BF8271"/>
<path d="M178.481 253.939C181.567 256.601 184.275 259.7 186.505 263.116C187.142 264.09 187.72 265.063 188.277 266.076C188.715 266.87 189.95 266.155 189.511 265.361C187.52 261.706 185.012 258.329 182.085 255.369C181.248 254.515 180.392 253.721 179.476 252.926C179.178 252.668 178.76 252.648 178.481 252.926C178.222 253.184 178.182 253.681 178.481 253.919V253.939Z" fill="#BF8271"/>
<path d="M143.876 280.457C145.15 282.503 146.424 284.549 147.698 286.595C148.176 287.37 149.411 286.655 148.933 285.88C147.659 283.834 146.384 281.788 145.11 279.742C144.632 278.968 143.398 279.683 143.876 280.457Z" fill="#BF8271"/>
<path d="M147.002 161.314C147.002 160.46 147.221 159.626 147.221 158.792C147.221 157.957 146.962 157.024 146.246 156.567C145.788 156.289 145.25 156.249 144.713 156.17C143.08 155.951 141.507 155.395 140.093 154.561C139.575 154.243 139.018 153.766 139.137 153.17C139.197 152.912 139.376 152.693 139.575 152.495C140.85 151.223 142.682 150.608 144.474 150.469C146.266 150.33 148.077 150.627 149.85 150.965C153.075 151.561 156.341 152.296 159.228 153.885C159.964 154.282 160.721 154.839 160.86 155.653C161.04 156.626 160.203 157.54 159.267 157.838C158.332 158.136 157.316 157.997 156.321 157.878C155.345 157.759 154.31 157.679 153.414 158.096C152.279 158.633 151.642 159.824 150.825 160.798C150.009 161.771 148.615 162.526 147.54 161.89L147.002 161.294V161.314Z" fill="black"/>
<path d="M157.655 163.817V163.539C157.655 163.539 157.655 163.439 157.615 163.4C157.615 163.36 157.575 163.32 157.535 163.281C157.495 163.241 157.456 163.221 157.416 163.201C157.376 163.181 157.336 163.161 157.276 163.161C157.237 163.161 157.217 163.161 157.177 163.161C157.117 163.161 157.057 163.201 157.018 163.261C157.018 163.281 156.978 163.3 156.958 163.34C156.918 163.4 156.918 163.459 156.918 163.519V163.797C156.918 163.797 156.918 163.896 156.958 163.936C156.958 163.976 156.998 164.016 157.037 164.055C157.077 164.095 157.117 164.115 157.157 164.135C157.197 164.155 157.237 164.174 157.296 164.174H157.396C157.396 164.174 157.515 164.115 157.555 164.075C157.555 164.055 157.595 164.035 157.615 163.996C157.655 163.936 157.655 163.876 157.655 163.817Z" fill="black"/>
<path d="M140.611 165.009C140.95 166.558 142.622 167.532 144.155 167.373C145.947 167.174 147.361 165.843 148.197 164.314C148.735 163.34 149.093 162.268 149.432 161.215C149.193 161.175 148.974 161.155 148.735 161.116C148.695 163.022 147.281 165.088 148.516 166.916C149.731 168.743 152.12 168.763 154.051 168.326C154.489 168.227 154.31 167.532 153.872 167.651C152.219 168.028 149.95 168.088 149.014 166.36C148.596 165.585 148.735 164.691 148.934 163.877C149.153 162.983 149.452 162.089 149.472 161.155C149.472 160.738 148.894 160.698 148.775 161.056C148.138 162.983 147.401 165.148 145.549 166.221C144.773 166.677 143.857 166.856 142.981 166.578C142.164 166.32 141.507 165.704 141.308 164.85C141.209 164.413 140.532 164.592 140.631 165.029L140.611 165.009Z" fill="black"/>
<path d="M172.169 146.952C173.125 145.602 174.798 144.728 176.41 144.668C178.123 144.589 179.696 145.363 180.811 146.694C181.408 147.409 181.806 148.303 181.966 149.257C182.025 149.634 182.503 149.852 182.842 149.753C183.24 149.634 183.399 149.257 183.339 148.879C182.981 146.853 181.607 145.006 179.795 144.032C177.884 142.999 175.614 143.019 173.663 143.933C172.568 144.45 171.632 145.244 170.955 146.237C170.736 146.555 170.895 147.032 171.214 147.211C171.572 147.409 171.97 147.27 172.189 146.952H172.169Z" fill="black"/>
<path d="M130.536 136.643C131.492 135.293 133.165 134.419 134.778 134.359C136.49 134.28 138.063 135.054 139.178 136.385C139.775 137.1 140.173 137.994 140.333 138.948C140.392 139.325 140.87 139.543 141.209 139.444C141.607 139.325 141.766 138.948 141.707 138.57C141.348 136.544 139.974 134.697 138.162 133.723C136.251 132.69 133.981 132.71 132.03 133.624C130.935 134.14 129.999 134.935 129.322 135.928C129.103 136.246 129.262 136.723 129.581 136.902C129.939 137.1 130.337 136.961 130.556 136.643H130.536Z" fill="black"/>
<path d="M183.699 118.369C186.068 121.765 188.099 125.361 189.792 129.135C190.269 130.188 190.708 131.26 191.126 132.353C191.265 132.71 191.604 132.949 192.002 132.849C192.34 132.75 192.639 132.333 192.5 131.975C190.986 128.022 189.115 124.209 186.885 120.613C186.267 119.6 185.61 118.607 184.933 117.634C184.714 117.316 184.316 117.177 183.958 117.375C183.639 117.554 183.48 118.031 183.699 118.349V118.369Z" fill="#492405"/>
<path d="M213.565 143.973C215.736 147.648 216.691 151.958 216.353 156.189C216.253 157.381 216.054 158.553 215.736 159.705C215.497 160.579 216.871 160.956 217.11 160.082C218.264 155.712 218.025 150.965 216.433 146.714C215.975 145.502 215.437 144.35 214.78 143.238C214.322 142.443 213.088 143.158 213.546 143.953L213.565 143.973Z" fill="#492405"/>
<path d="M168.566 170.73C170.936 170.054 173.305 169.359 175.654 168.684C177.924 168.028 180.214 167.412 182.444 166.657C184.535 165.942 186.586 165.048 188.417 163.817C190.17 162.645 191.782 161.215 193.116 159.566C194.61 157.719 195.804 155.454 195.605 153.011C195.585 152.634 195.307 152.296 194.888 152.296C194.53 152.296 194.152 152.614 194.172 153.011C194.331 154.978 193.435 156.785 192.28 158.315C191.105 159.884 189.612 161.254 187.999 162.367C184.375 164.89 180.055 165.942 175.874 167.154C173.305 167.909 170.736 168.644 168.148 169.399C167.272 169.657 167.65 171.027 168.526 170.769L168.566 170.73Z" fill="#492405"/>
<path d="M124.841 133.564C122.491 136.703 122.173 140.735 122.79 144.509C123.427 148.403 125.06 152.117 126.951 155.573C128.883 159.089 131.252 162.407 134.139 165.207C137.066 168.048 140.531 170.293 144.413 171.643C148.256 172.994 152.477 173.391 156.479 172.537C156.977 172.438 157.455 172.299 157.933 172.16C158.809 171.901 158.431 170.531 157.555 170.789C153.851 171.901 149.889 171.762 146.185 170.71C142.462 169.657 139.057 167.69 136.17 165.148C133.263 162.585 130.874 159.487 128.923 156.149C127.011 152.892 125.359 149.416 124.482 145.721C123.686 142.304 123.567 138.53 125.339 135.412C125.558 135.014 125.816 134.637 126.075 134.279C126.294 133.981 126.135 133.485 125.816 133.306C125.458 133.088 125.08 133.246 124.841 133.564Z" fill="#492405"/>
<path d="M163.031 203.445C162.912 206.981 164.166 210.477 166.436 213.179C167.053 213.933 167.77 214.609 168.547 215.205C168.845 215.443 169.263 215.503 169.542 215.205C169.781 214.966 169.841 214.43 169.542 214.212C166.974 212.225 165.221 209.325 164.644 206.127C164.485 205.253 164.425 204.339 164.465 203.445C164.505 202.532 163.071 202.532 163.051 203.445H163.031Z" fill="#492405"/>
<path d="M167.491 202.055C167.87 205.968 169.622 209.702 172.449 212.443C173.106 213.079 174.122 212.086 173.445 211.45C170.896 208.967 169.224 205.61 168.905 202.055C168.865 201.677 168.606 201.34 168.188 201.34C167.83 201.34 167.432 201.657 167.472 202.055H167.491Z" fill="#492405"/>
<path d="M157.237 194.526C161.199 193.076 165.34 191.586 169.621 191.745C170.776 191.785 171.931 191.964 173.046 192.302C173.922 192.56 174.3 191.189 173.424 190.931C169.124 189.66 164.584 190.573 160.422 191.924C159.228 192.302 158.053 192.739 156.858 193.156C156.5 193.295 156.261 193.632 156.361 194.03C156.46 194.367 156.878 194.665 157.237 194.526Z" fill="#492405"/>
<path d="M118.072 183.363C119.844 187.634 122.054 191.706 124.703 195.5C124.922 195.818 125.32 195.957 125.678 195.758C125.997 195.579 126.156 195.102 125.937 194.785C123.349 191.11 121.158 187.137 119.446 182.986C119.307 182.628 118.968 182.39 118.57 182.489C118.231 182.588 117.933 183.005 118.072 183.363Z" fill="#492405"/>
<path d="M122.531 184.952C124.104 187.733 125.677 190.494 127.23 193.275C127.688 194.07 128.903 193.354 128.465 192.56C126.892 189.779 125.319 187.018 123.766 184.237C123.308 183.442 122.093 184.157 122.531 184.952Z" fill="#492405"/>
<path d="M123.19 170.392C125.539 170.888 127.948 171.047 130.338 170.869C130.716 170.849 131.055 170.571 131.055 170.153C131.055 169.796 130.736 169.419 130.338 169.438C128.068 169.617 125.798 169.478 123.568 169.021C123.19 168.942 122.792 169.14 122.692 169.518C122.592 169.875 122.811 170.312 123.19 170.392Z" fill="#492405"/>
<path d="M171.673 131.797C175.336 133.843 179.04 135.809 182.763 137.716C181.668 135.273 179.876 133.147 177.626 131.677C175.774 130.466 173.226 129.751 171.434 131.022L171.673 131.777V131.797Z" fill="#492405"/>
<path d="M146.525 124.784C142.663 126.413 138.78 128.002 134.857 129.492C136.191 127.168 138.222 125.261 140.612 124.049C142.583 123.036 145.191 122.599 146.844 124.049L146.525 124.765V124.784Z" fill="#492405"/>
<path d="M153.513 114.574C150.666 111.019 148.077 107.245 145.827 103.292C145.031 101.901 144.254 100.352 144.493 98.7827C146.902 99.5177 148.774 101.444 150.327 103.431C152.418 106.093 154.13 109.052 155.444 112.171C154.688 109.986 153.931 107.821 153.174 105.636C152.577 103.908 152 101.862 153.015 100.332C153.174 100.094 153.373 99.8752 153.652 99.8156C153.871 99.7759 154.09 99.8554 154.289 99.9547C156.081 100.809 157.176 102.616 158.013 104.404C159.227 107.026 160.103 109.807 160.621 112.668C159.725 110.026 159.606 107.126 160.302 104.404C160.681 102.914 161.736 101.206 163.289 101.385C164.185 101.484 164.882 102.239 165.34 103.014C166.515 104.98 166.833 107.344 166.654 109.628C166.475 111.913 165.818 114.118 165.161 116.303L153.533 114.574H153.513Z" fill="#BA702D"/>
<path d="M87.3297 214.946C86.9514 215.88 86.5531 216.853 86.6925 217.847C86.8319 218.84 87.708 219.813 88.7035 219.674C90.0176 219.495 90.396 217.767 90.3163 216.436C90.2765 215.761 90.157 215.006 89.5995 214.629C89.0818 214.291 88.365 214.41 87.8673 214.748C87.3695 215.105 87.0111 215.622 86.6925 216.158L87.3496 214.946H87.3297Z" fill="#492405"/>
<path d="M94.6368 212.007C94.2984 212.94 93.9798 213.973 94.3183 214.927C94.6568 215.86 95.9311 216.516 96.6877 215.86C96.9863 215.602 97.1456 215.225 97.2651 214.847C97.504 214.092 97.6832 213.278 97.504 212.503C97.3248 211.729 96.7076 210.994 95.9311 210.914C95.1346 210.815 94.2984 211.59 94.4975 212.364L94.6568 212.027L94.6368 212.007Z" fill="#492405"/>
<path d="M97.8034 219.237C97.3853 220.071 97.1264 221.065 97.445 221.939C97.7636 222.813 98.8587 223.448 99.675 222.991C99.9936 222.813 100.233 222.515 100.392 222.197C100.85 221.283 100.651 219.972 99.7348 219.495C98.8388 218.999 97.445 219.873 97.7238 220.866L97.8034 219.237Z" fill="#492405"/>
<path d="M86.5135 265.202C87.4294 265.877 88.7634 265.401 89.0223 264.288C89.0223 264.288 89.0223 264.288 89.0223 264.268C91.3121 254.356 93.6018 244.325 93.5819 234.155C93.5819 233.301 93.562 232.427 93.1837 231.672C92.8054 230.917 92.0089 230.281 91.1528 230.42C90.5953 230.5 90.1373 230.877 89.7789 231.294C88.5842 232.665 88.1462 234.512 87.8276 236.28C86.1352 245.278 85.7967 254.475 85.498 263.613C85.498 264.129 85.7171 264.626 86.1352 264.944L86.4936 265.222L86.5135 265.202Z" fill="#492405"/>
<path d="M60.8086 257.316C63.4966 247.106 67.5186 237.254 72.7154 228.076C73.4321 226.825 74.6666 225.375 76.0206 225.891C77.0759 226.289 77.3546 227.62 77.3745 228.732C77.4542 232.903 75.9011 236.896 74.3481 240.769C73.3724 243.213 72.3769 245.636 71.4012 248.079C70.0274 251.476 68.5938 254.972 66.0253 257.594C65.1492 258.488 64.0143 259.322 62.7599 259.223C61.5055 259.124 60.4104 257.594 61.1272 256.561L60.8086 257.296V257.316Z" fill="#492405"/>
<path d="M76.4589 206.485C75.4634 206.584 75.324 208.252 76.22 208.709C77.116 209.166 78.2708 208.491 78.5894 207.537C78.8681 206.703 78.5097 205.63 77.6934 205.313C76.8571 205.015 75.7819 205.869 76.1005 206.703L76.4987 206.485H76.4589Z" fill="#492405"/>
<path d="M82.0134 204.577C81.3165 204.677 81.0377 205.69 81.4957 206.246C81.9536 206.782 82.8496 206.782 83.4071 206.325C83.9646 205.888 84.1837 205.134 84.1438 204.419C84.1239 204.021 84.0045 203.584 83.666 203.346C83.1881 203.028 82.5111 203.306 82.1926 203.763C81.874 204.22 81.8143 204.816 81.7545 205.372L82.0134 204.577Z" fill="#492405"/>
<path d="M79.684 211.987C79.0469 213.02 79.9428 214.609 81.1375 214.549C82.3521 214.49 83.0689 212.742 82.1928 211.887C81.3167 211.053 79.5446 211.927 79.7238 213.119L79.684 211.987Z" fill="#492405"/>
<path d="M97.703 204.458C93.7009 204.657 89.878 206.345 86.9511 209.067C85.4976 210.398 84.283 212.006 83.4069 213.774C82.3517 215.9 81.8141 218.224 81.5154 220.568C81.2167 223.051 81.1769 225.534 81.0774 228.037C80.9778 230.678 80.8982 233.32 80.7986 235.942C80.6194 241.246 80.4203 246.53 80.2411 251.833L79.6836 267.725C79.6637 268.38 79.6438 269.055 79.6239 269.711C79.584 270.625 81.0176 270.625 81.0375 269.711C81.2167 264.526 81.3959 259.342 81.5751 254.138C81.7543 248.933 81.9335 243.709 82.1127 238.505C82.2123 235.903 82.2919 233.32 82.3915 230.718C82.4711 228.215 82.5309 225.713 82.6901 223.21C82.8295 220.866 83.1282 218.522 83.8649 216.277C84.4821 214.45 85.4578 212.761 86.7321 211.291C89.201 208.471 92.6456 206.524 96.369 205.968C96.807 205.908 97.2451 205.869 97.6831 205.849C98.0614 205.849 98.3999 205.531 98.3999 205.134C98.3999 204.756 98.0813 204.399 97.6831 204.419L97.703 204.458Z" fill="#492405"/>
<path d="M104.932 246.133C104.832 249.748 104.434 253.343 103.737 256.879C103.02 260.435 102.025 263.95 100.73 267.347C100.014 269.234 99.1972 271.101 98.3012 272.909C98.122 273.247 98.2017 273.684 98.5601 273.882C98.8786 274.061 99.3565 273.982 99.5357 273.624C101.188 270.287 102.562 266.831 103.617 263.275C104.693 259.719 105.429 256.064 105.907 252.37C106.166 250.304 106.325 248.218 106.385 246.133C106.405 245.219 104.991 245.219 104.971 246.133H104.932Z" fill="#492405"/>
<path d="M124.98 216.377C124.463 217.926 123.726 219.376 122.81 220.747C122.551 221.124 123.169 221.482 123.427 221.104C124.363 219.694 125.12 218.164 125.657 216.575C125.797 216.138 125.12 215.959 124.98 216.396V216.377Z" fill="#894610"/>
<path d="M128.346 217.767L127.968 219.416C127.928 219.595 128.027 219.813 128.207 219.853C128.386 219.893 128.605 219.793 128.645 219.614C128.764 219.058 128.884 218.522 129.023 217.966C129.063 217.787 128.963 217.568 128.784 217.529C128.605 217.489 128.386 217.588 128.346 217.767Z" fill="#894610"/>
<path d="M131.153 218.879C130.835 220.19 130.357 221.462 129.74 222.654C129.521 223.051 130.138 223.408 130.357 223.011C131.014 221.76 131.512 220.429 131.83 219.058C131.93 218.621 131.253 218.423 131.153 218.879Z" fill="#894610"/>
<path d="M131.114 207.14C130.756 207.795 130.378 208.431 130.019 209.087C129.92 209.245 129.98 209.484 130.139 209.563C130.298 209.643 130.537 209.603 130.617 209.444C130.975 208.789 131.353 208.153 131.712 207.497C131.811 207.339 131.752 207.1 131.592 207.021C131.433 206.941 131.194 206.981 131.114 207.14Z" fill="#894610"/>
<path d="M138.72 211.252C138.162 211.848 137.824 212.602 137.744 213.417C137.744 213.596 137.923 213.774 138.103 213.774C138.302 213.774 138.441 213.615 138.461 213.417C138.461 213.397 138.461 213.377 138.461 213.357C138.461 213.318 138.461 213.318 138.461 213.357C138.461 213.318 138.461 213.278 138.481 213.238C138.481 213.159 138.521 213.079 138.541 213C138.56 212.92 138.58 212.841 138.62 212.761C138.62 212.722 138.64 212.682 138.66 212.642C138.66 212.602 138.66 212.622 138.66 212.642C138.66 212.622 138.68 212.602 138.7 212.563C138.78 212.404 138.859 212.265 138.939 212.126C138.959 212.086 138.979 212.046 139.018 212.026C139.018 212.026 139.038 211.987 139.058 211.967C139.018 212.006 139.098 211.927 139.058 211.967C139.118 211.907 139.178 211.828 139.237 211.768C139.357 211.629 139.377 211.391 139.237 211.272C139.098 211.152 138.879 211.132 138.74 211.272L138.72 211.252Z" fill="#894610"/>
<path d="M140.053 214.172C139.934 214.907 139.814 215.642 139.715 216.377C139.695 216.555 139.754 216.774 139.953 216.814C140.133 216.853 140.352 216.754 140.392 216.575C140.511 215.84 140.63 215.105 140.73 214.37C140.75 214.191 140.69 213.973 140.491 213.933C140.312 213.894 140.093 213.993 140.053 214.172Z" fill="#894610"/>
<path d="M166.157 224.421C165.699 226.169 165.241 227.937 164.783 229.685C164.664 230.122 165.361 230.321 165.46 229.864C165.918 228.116 166.376 226.348 166.834 224.6C166.954 224.163 166.257 223.965 166.157 224.421Z" fill="#894610"/>
<path d="M167.531 227.103C167.192 227.58 167.093 228.215 167.252 228.772C167.292 228.95 167.511 229.069 167.69 229.01C167.869 228.95 167.989 228.772 167.929 228.573C167.929 228.513 167.909 228.454 167.889 228.394C167.889 228.354 167.889 228.374 167.889 228.414V228.374C167.889 228.335 167.889 228.315 167.889 228.275C167.889 228.215 167.889 228.176 167.889 228.116C167.889 228.096 167.889 228.056 167.889 228.017C167.889 228.076 167.889 228.076 167.889 228.037C167.889 228.037 167.889 228.017 167.889 227.997C167.889 227.937 167.909 227.878 167.929 227.818C167.929 227.798 167.929 227.778 167.949 227.758L167.989 227.679C167.969 227.739 167.969 227.739 167.989 227.699C167.989 227.699 167.989 227.679 167.989 227.659C167.989 227.639 168.008 227.6 168.028 227.58C168.048 227.52 168.088 227.48 168.128 227.421C168.227 227.262 168.168 227.024 168.008 226.944C167.829 226.845 167.63 226.904 167.531 227.063V227.103Z" fill="#894610"/>
<path d="M170.2 226.606C169.941 227.441 169.682 228.275 169.443 229.129C169.384 229.308 169.503 229.507 169.682 229.566C169.881 229.626 170.061 229.507 170.12 229.328C170.379 228.493 170.638 227.659 170.877 226.805C170.937 226.626 170.817 226.428 170.638 226.368C170.439 226.308 170.26 226.428 170.2 226.606Z" fill="#894610"/>
<path d="M179.138 216.655C178.839 217.946 178.561 219.237 178.262 220.528C178.162 220.965 178.839 221.164 178.939 220.707C179.238 219.416 179.516 218.125 179.815 216.834C179.915 216.397 179.238 216.198 179.138 216.655Z" fill="#894610"/>
<path d="M181.17 218.244C180.792 218.78 180.573 219.416 180.533 220.071C180.533 220.25 180.712 220.429 180.892 220.429C181.091 220.429 181.23 220.27 181.25 220.071C181.25 220.032 181.25 219.992 181.25 219.952C181.25 219.952 181.25 219.813 181.25 219.912C181.25 219.853 181.27 219.773 181.29 219.714C181.31 219.575 181.35 219.436 181.409 219.297C181.409 219.257 181.429 219.237 181.449 219.197C181.449 219.197 181.449 219.158 181.469 219.138C181.469 219.177 181.469 219.177 181.469 219.138C181.489 219.078 181.529 219.019 181.569 218.939C181.628 218.82 181.708 218.681 181.808 218.562C181.907 218.403 181.847 218.164 181.688 218.085C181.509 217.986 181.31 218.045 181.21 218.204L181.17 218.244Z" fill="#894610"/>
<path d="M183.898 218.601C183.539 219.515 183.36 220.488 183.32 221.462C183.32 221.66 183.48 221.819 183.679 221.819C183.878 221.819 184.017 221.66 184.037 221.462C184.077 220.548 184.276 219.634 184.595 218.78C184.654 218.601 184.515 218.383 184.356 218.343C184.157 218.284 183.997 218.403 183.918 218.582L183.898 218.601Z" fill="#894610"/>
<path d="M72.4357 270.307C71.7189 271.777 71.6194 273.525 72.2167 275.054C72.2963 275.233 72.4556 275.352 72.6547 275.293C72.8339 275.253 72.9733 275.034 72.8937 274.856C72.3561 273.505 72.3959 271.975 73.033 270.664C73.2321 270.247 72.6149 269.89 72.4158 270.307H72.4357Z" fill="#894610"/>
<path d="M74.3674 273.962C74.4669 274.617 74.5665 275.253 74.666 275.908C74.686 276.087 74.9448 276.206 75.1041 276.147C75.3032 276.087 75.3828 275.908 75.343 275.71C75.2435 275.054 75.1439 274.419 75.0444 273.763C75.0244 273.584 74.7656 273.465 74.6063 273.525C74.4072 273.584 74.3276 273.763 74.3674 273.962Z" fill="#894610"/>
<path d="M76.1204 275.889C76.4389 276.922 76.7774 277.954 77.096 278.987C77.2354 279.424 77.9123 279.226 77.773 278.809C77.4544 277.776 77.1159 276.743 76.7973 275.71C76.658 275.273 75.981 275.472 76.1204 275.889Z" fill="#894610"/>
<path d="M83.5469 283.933C83.6863 284.807 84.3831 285.562 85.2393 285.801C85.4185 285.86 85.6375 285.741 85.6773 285.562C85.7172 285.384 85.6176 285.185 85.4384 285.125C85.3986 285.125 85.3389 285.105 85.299 285.086C85.2791 285.086 85.2592 285.086 85.2393 285.066C85.2592 285.066 85.319 285.086 85.2393 285.066C85.1597 285.026 85.08 284.986 85.0004 284.927C84.9606 284.907 84.9207 284.867 84.8809 284.847C84.8411 284.827 84.9406 284.887 84.8809 284.847C84.8809 284.847 84.8411 284.827 84.8212 284.807C84.7415 284.748 84.6818 284.688 84.6221 284.609C84.6221 284.609 84.5822 284.569 84.5822 284.549C84.5623 284.529 84.5822 284.529 84.5822 284.549C84.5623 284.549 84.5225 284.47 84.5026 284.45C84.4628 284.37 84.403 284.291 84.3632 284.212C84.3632 284.192 84.3433 284.172 84.3433 284.152C84.3035 284.073 84.3632 284.231 84.3433 284.152C84.3433 284.112 84.3035 284.072 84.3035 284.013C84.2836 283.914 84.2637 283.834 84.2438 283.735C84.2239 283.556 83.965 283.437 83.8057 283.496C83.6066 283.556 83.527 283.735 83.5668 283.933H83.5469Z" fill="#894610"/>
<path d="M153.573 128.221C153.235 129.83 152.817 131.419 152.339 132.968C152.199 133.405 152.896 133.584 153.016 133.147C153.493 131.578 153.912 129.989 154.25 128.4C154.35 127.963 153.653 127.764 153.573 128.221Z" fill="#894610"/>
<path d="M155.346 130.823C154.709 131.598 154.351 132.591 154.45 133.584C154.45 133.783 154.609 133.942 154.808 133.942C154.988 133.942 155.187 133.783 155.167 133.584C155.127 133.147 155.167 132.77 155.306 132.353C155.426 131.975 155.625 131.598 155.864 131.32C155.983 131.181 156.003 130.962 155.864 130.823C155.744 130.704 155.485 130.684 155.366 130.823H155.346Z" fill="#894610"/>
<path d="M156.719 132.393C156.5 133.406 156.261 134.399 156.042 135.412C156.002 135.591 156.102 135.789 156.281 135.849C156.46 135.889 156.679 135.789 156.719 135.611C156.938 134.597 157.177 133.604 157.396 132.591C157.436 132.412 157.336 132.214 157.157 132.154C156.978 132.114 156.759 132.214 156.719 132.393Z" fill="#894610"/>
<path d="M159.169 122.778C158.97 124.248 158.79 125.738 158.591 127.208C158.571 127.407 158.77 127.566 158.95 127.566C159.169 127.566 159.288 127.407 159.308 127.208C159.507 125.738 159.686 124.248 159.885 122.778C159.905 122.58 159.706 122.421 159.527 122.421C159.308 122.421 159.189 122.58 159.169 122.778Z" fill="#894610"/>
<path d="M156.7 140.517C156.58 141.53 156.461 142.543 156.341 143.556C156.321 143.755 156.52 143.913 156.7 143.913C156.919 143.913 157.038 143.755 157.058 143.556C157.177 142.543 157.297 141.53 157.416 140.517C157.436 140.318 157.237 140.159 157.058 140.159C156.839 140.159 156.72 140.318 156.7 140.517Z" fill="#894610"/>
<path d="M152.716 142.344C152.557 142.9 152.378 143.457 152.219 144.033C152.159 144.211 152.278 144.43 152.458 144.47C152.657 144.509 152.836 144.41 152.896 144.231C153.055 143.675 153.234 143.119 153.393 142.543C153.453 142.364 153.334 142.146 153.154 142.106C152.955 142.066 152.776 142.165 152.716 142.344Z" fill="#894610"/>
<path d="M160.602 143.198C160.602 143.198 160.681 143.318 160.681 143.377C160.662 143.298 160.681 143.417 160.681 143.417C160.681 143.437 160.681 143.477 160.701 143.496C160.741 143.635 160.781 143.755 160.801 143.894C160.801 143.894 160.801 143.914 160.801 143.933C160.801 143.874 160.801 143.894 160.801 143.933C160.801 143.973 160.801 143.993 160.801 144.033C160.801 144.092 160.801 144.172 160.801 144.231C160.801 144.291 160.801 144.37 160.801 144.43C160.801 144.47 160.801 144.49 160.801 144.529C160.801 144.43 160.801 144.569 160.801 144.569C160.761 144.748 160.841 144.966 161.04 145.006C161.219 145.046 161.438 144.946 161.478 144.768C161.597 144.112 161.498 143.437 161.179 142.821C161.1 142.662 160.841 142.603 160.701 142.702C160.542 142.801 160.482 143.02 160.582 143.179L160.602 143.198Z" fill="#894610"/>
<path d="M142.563 152.494C145.689 152.832 148.815 153.329 151.901 153.945C152.339 154.044 152.538 153.349 152.08 153.269C148.934 152.634 145.748 152.137 142.543 151.799C142.085 151.76 142.085 152.455 142.543 152.514L142.563 152.494Z" fill="white"/>
<path d="M154.51 154.104C154.689 154.282 154.888 154.461 155.067 154.64C155.127 154.699 155.227 154.739 155.326 154.739C155.406 154.739 155.525 154.699 155.585 154.64C155.645 154.58 155.684 154.481 155.684 154.382C155.684 154.282 155.645 154.203 155.585 154.123C155.406 153.945 155.207 153.766 155.027 153.587C154.968 153.528 154.868 153.488 154.769 153.488C154.689 153.488 154.569 153.528 154.51 153.587C154.45 153.647 154.41 153.746 154.41 153.845C154.41 153.945 154.45 154.024 154.51 154.104Z" fill="white"/>
<path d="M67.8965 139.484C67.4585 142.503 66.7616 145.483 65.8457 148.403C65.567 149.277 66.9408 149.654 67.2196 148.78C68.1355 145.86 68.8324 142.881 69.2704 139.861C69.3301 139.484 69.1708 139.106 68.7726 138.987C68.4341 138.888 67.9563 139.106 67.8965 139.484Z" fill="#821E23"/>
<path d="M71.5996 142.424C71.8385 144.946 71.6991 147.509 71.1814 149.992C71.1018 150.369 71.3009 150.766 71.6792 150.866C72.0376 150.965 72.4756 150.747 72.5553 150.369C73.1128 147.747 73.2721 145.065 73.0132 142.424C72.9734 142.046 72.7146 141.708 72.2964 141.708C71.9381 141.708 71.5398 142.026 71.5797 142.424H71.5996Z" fill="#821E23"/>
<path d="M76.2793 143.576V149.674C76.2793 150.588 77.693 150.588 77.693 149.674V143.576C77.693 142.662 76.2793 142.662 76.2793 143.576Z" fill="#821E23"/>
<path d="M81.0582 145.224C81.1776 147.429 81.1179 149.654 80.9188 151.859C80.879 152.236 81.2772 152.574 81.6356 152.574C82.0537 152.574 82.3125 152.256 82.3524 151.859C82.5515 149.654 82.5913 147.429 82.4917 145.224C82.4917 144.847 82.1732 144.509 81.7749 144.509C81.3966 144.509 81.0382 144.827 81.0582 145.224Z" fill="#821E23"/>
<path d="M85.9746 145.919C86.4127 147.886 86.4724 149.892 86.2335 151.879C86.1936 152.256 86.5918 152.594 86.9502 152.594C87.3684 152.594 87.6073 152.276 87.667 151.879C87.9259 149.773 87.8064 147.628 87.3684 145.542C87.2887 145.165 86.8507 144.946 86.4923 145.045C86.114 145.145 85.9149 145.542 85.9945 145.919H85.9746Z" fill="#821E23"/>
<path d="M91.291 145.781V150.766C91.291 151.144 91.6096 151.481 92.0078 151.481C92.406 151.481 92.7246 151.164 92.7246 150.766V145.781C92.7246 145.403 92.406 145.065 92.0078 145.065C91.6096 145.065 91.291 145.383 91.291 145.781Z" fill="#821E23"/>
<path d="M95.3939 144.986C96.0709 146.456 96.3497 148.065 96.2899 149.674C96.2899 150.052 96.6284 150.389 97.0067 150.389C97.4049 150.389 97.7036 150.071 97.7235 149.674C97.8032 147.807 97.4049 145.96 96.6284 144.271C96.4691 143.914 95.9714 143.834 95.6528 144.013C95.2944 144.231 95.2346 144.629 95.3939 144.986Z" fill="#821E23"/>
<path d="M99.097 143.973C99.2961 144.231 99.4753 144.509 99.6147 144.787C99.6545 144.867 99.6943 144.946 99.7341 145.026C99.7341 145.046 99.8536 145.284 99.7939 145.145C99.8536 145.304 99.9133 145.443 99.9532 145.602C99.993 145.761 100.053 145.92 100.073 146.079C100.073 146.158 100.112 146.257 100.132 146.337C100.132 146.357 100.172 146.575 100.152 146.496C100.152 146.416 100.152 146.635 100.152 146.655C100.152 146.734 100.152 146.833 100.152 146.913C100.152 147.092 100.152 147.25 100.152 147.429C100.152 147.807 100.491 148.164 100.869 148.144C101.267 148.144 101.566 147.827 101.586 147.429C101.646 145.939 101.188 144.43 100.292 143.238C100.073 142.94 99.6744 142.761 99.316 142.98C99.0174 143.159 98.8182 143.635 99.0572 143.953L99.097 143.973Z" fill="#821E23"/>
<path d="M102.66 142.563C103.317 144.251 103.994 145.959 104.651 147.648C104.791 148.005 105.129 148.244 105.527 148.144C105.866 148.045 106.164 147.628 106.025 147.27C105.368 145.582 104.691 143.874 104.034 142.185C103.895 141.828 103.556 141.589 103.158 141.689C102.819 141.788 102.521 142.205 102.66 142.563Z" fill="#821E23"/>
<path d="M120.441 314.881C117.195 320.404 113.95 325.926 110.724 331.448C109.808 332.997 108.892 334.567 107.976 336.116C107.518 336.91 108.733 337.626 109.211 336.831C112.456 331.309 115.702 325.787 118.927 320.265C119.843 318.715 120.759 317.146 121.675 315.597C122.133 314.802 120.919 314.087 120.441 314.881Z" fill="#821E23"/>
<path d="M127.61 314.583L122.951 325.032C122.791 325.389 122.851 325.787 123.209 326.005C123.508 326.184 124.026 326.104 124.185 325.747C125.738 322.271 127.291 318.795 128.844 315.298C129.004 314.941 128.944 314.544 128.585 314.325C128.287 314.146 127.769 314.226 127.61 314.583Z" fill="#821E23"/>
<path d="M131.791 319.649C130.556 323.284 128.963 326.78 127.032 330.077C126.574 330.872 127.808 331.587 128.266 330.792C130.257 327.376 131.91 323.76 133.184 320.026C133.304 319.669 133.045 319.251 132.687 319.152C132.288 319.053 131.93 319.291 131.81 319.649H131.791Z" fill="#821E23"/>
<path d="M12.2063 225.395C11.6488 228.354 11.1112 231.314 10.5537 234.274C10.474 234.651 10.6532 235.029 11.0515 235.148C11.3899 235.247 11.8479 235.029 11.9275 234.651C12.485 231.692 13.0226 228.732 13.5801 225.772C13.6598 225.395 13.4806 224.998 13.0824 224.898C12.7439 224.799 12.2859 225.017 12.2063 225.395Z" fill="#821E23"/>
<path d="M15.2716 229.328C15.0326 230.977 14.8136 232.645 14.5747 234.294C14.5149 234.671 14.6742 235.049 15.0724 235.168C15.4109 235.267 15.8888 235.049 15.9485 234.671C16.1675 233.023 16.4065 231.354 16.6454 229.705C16.7051 229.328 16.5459 228.95 16.1476 228.831C15.8091 228.732 15.3313 228.95 15.2716 229.328Z" fill="#821E23"/>
<path d="M18.6961 233.261C17.8598 235.684 17.7603 238.326 18.3775 240.829C18.5965 241.723 19.9704 241.346 19.7514 240.452C19.1939 238.187 19.3133 235.843 20.07 233.638C20.1894 233.281 19.9306 232.864 19.5722 232.764C19.174 232.665 18.8156 232.903 18.6961 233.261Z" fill="#821E23"/>
<path d="M21.1651 250.244C21.7226 252.092 22.2801 253.939 22.8376 255.786C23.0965 256.661 24.4703 256.283 24.2115 255.409C23.654 253.562 23.0965 251.714 22.539 249.867C22.2801 248.993 20.9063 249.37 21.1651 250.244Z" fill="#821E23"/>
<path d="M20.7481 209.365C20.1906 211.013 19.9915 212.801 20.1508 214.529C20.1906 214.907 20.4494 215.244 20.8675 215.244C21.2259 215.244 21.6242 214.927 21.5843 214.529C21.4251 212.881 21.5843 211.291 22.1219 209.742C22.2414 209.385 21.9826 208.967 21.6242 208.868C21.2259 208.769 20.8675 209.007 20.7481 209.365Z" fill="#821E23"/>
<path d="M24.0332 212.88V216.754C24.0332 217.131 24.3518 217.489 24.75 217.469C25.1283 217.469 25.4668 217.151 25.4668 216.754V212.88C25.4668 212.503 25.1482 212.145 24.75 212.165C24.3717 212.165 24.0332 212.483 24.0332 212.88Z" fill="#821E23"/>
<path d="M9.17964 206.763C11.6088 204.578 14.0578 202.393 16.487 200.208C16.7657 199.949 16.7458 199.473 16.487 199.214C16.2082 198.936 15.7702 198.956 15.4914 199.214L8.18409 205.769C7.90534 206.028 7.92525 206.504 8.18409 206.763C8.46284 207.041 8.90088 207.021 9.17964 206.763Z" fill="#D15259"/>
<path d="M9.25957 211.291C11.2905 209.603 13.3015 207.934 15.3324 206.246C15.6311 206.008 15.5913 205.491 15.3324 205.253C15.0337 204.955 14.6156 205.014 14.3369 205.253C12.3059 206.941 10.2949 208.61 8.26402 210.298C7.96535 210.537 8.00518 211.053 8.26402 211.291C8.56268 211.589 8.98081 211.53 9.25957 211.291Z" fill="#D15259"/>
<path d="M211.236 223.289C213.227 224.461 215.238 225.633 217.229 226.805C218.025 227.262 218.742 226.05 217.946 225.574C215.955 224.402 213.944 223.23 211.953 222.058C211.156 221.601 210.439 222.813 211.236 223.289Z" fill="#D15259"/>
<path d="M216.113 221.899C217.825 221.66 219.617 222.038 221.111 222.912C221.907 223.369 222.624 222.157 221.827 221.68C219.976 220.588 217.845 220.21 215.735 220.528C215.356 220.588 215.137 221.064 215.237 221.402C215.356 221.799 215.735 221.958 216.113 221.899Z" fill="#D15259"/>
<path d="M2.90676 321.377C5.89341 317.881 9.03934 314.544 12.3247 311.345C12.9817 310.71 11.9663 309.697 11.3291 310.352C8.04379 313.55 4.89786 316.907 1.91122 320.384C1.67228 320.681 1.63246 321.099 1.91122 321.377C2.17006 321.635 2.66783 321.675 2.90676 321.377Z" fill="#D15259"/>
<path d="M7.62495 323.84C10.1935 321.059 12.7819 318.258 15.3504 315.477C15.6092 315.199 15.6292 314.762 15.3504 314.484C15.0916 314.226 14.6137 314.206 14.3549 314.484C11.7863 317.265 9.19792 320.066 6.6294 322.847C6.37056 323.125 6.35065 323.562 6.6294 323.84C6.88824 324.098 7.36611 324.118 7.62495 323.84Z" fill="#D15259"/>
<path d="M47.3089 153.885C50.853 154.699 54.3972 155.514 57.9413 156.328C58.3196 156.408 58.7178 156.209 58.8174 155.832C58.917 155.474 58.6979 155.037 58.3196 154.958C54.7755 154.143 51.2313 153.329 47.6872 152.514C47.3089 152.435 46.9106 152.634 46.8111 153.011C46.7115 153.369 46.9306 153.806 47.3089 153.885Z" fill="#D15259"/>
<path d="M48.1055 158.116C50.3156 158.335 52.5456 158.573 54.7557 158.791C55.134 158.831 55.4725 158.434 55.4725 158.076C55.4725 157.659 55.1539 157.401 54.7557 157.361C52.5456 157.143 50.3156 156.904 48.1055 156.686C47.7272 156.646 47.3887 157.043 47.3887 157.401C47.3887 157.818 47.7072 158.076 48.1055 158.116Z" fill="#D15259"/>
<path d="M234.83 168.048L242.595 168.723C242.974 168.763 243.312 168.366 243.312 168.008C243.312 167.591 242.994 167.333 242.595 167.293L234.83 166.618C234.452 166.578 234.113 166.975 234.113 167.333C234.113 167.75 234.432 168.008 234.83 168.048Z" fill="#D15259"/>
<path d="M237.797 172.021C239.27 171.782 240.743 171.564 242.217 171.325C242.575 171.266 242.814 170.789 242.715 170.451C242.575 170.054 242.237 169.895 241.838 169.955C240.365 170.193 238.892 170.412 237.418 170.65C237.04 170.71 236.821 171.186 236.92 171.524C237.06 171.921 237.398 172.08 237.797 172.021Z" fill="#D15259"/>
<path d="M139.676 109.172C136.49 109.648 134.339 112.409 133.125 115.171C131.791 118.21 131.452 121.567 130.278 124.665C129.64 126.314 128.725 127.864 127.311 128.996C127.012 129.234 127.052 129.751 127.311 129.989C127.61 130.287 128.008 130.227 128.306 129.989C130.955 127.864 131.95 124.467 132.727 121.308C133.105 119.759 133.443 118.19 134.001 116.68C134.499 115.369 135.216 113.939 136.112 112.866C137.167 111.615 138.401 110.761 140.034 110.522C140.412 110.463 140.631 109.986 140.532 109.648C140.412 109.251 140.034 109.092 139.656 109.152L139.676 109.172Z" fill="#492405"/>
<path d="M198.632 132.849C199.19 133.584 199.747 134.319 200.305 135.074C200.424 135.233 200.544 135.352 200.723 135.392C200.902 135.432 201.121 135.412 201.281 135.313C201.44 135.213 201.559 135.074 201.599 134.895C201.639 134.717 201.639 134.498 201.519 134.359C200.962 133.624 200.404 132.889 199.847 132.134C199.727 131.975 199.608 131.856 199.429 131.817C199.25 131.777 199.031 131.797 198.891 131.896C198.732 131.995 198.612 132.134 198.573 132.313C198.533 132.492 198.533 132.71 198.652 132.849H198.632Z" fill="#492405"/>
<path d="M203.092 133.386C203.47 134.121 203.828 134.856 204.207 135.61C204.366 135.948 204.864 136.067 205.182 135.869C205.521 135.65 205.62 135.253 205.441 134.895C205.063 134.16 204.704 133.425 204.326 132.671C204.167 132.333 203.669 132.214 203.351 132.412C203.012 132.631 202.912 133.028 203.092 133.386Z" fill="#492405"/>
<path d="M197.635 123.911C198.193 124.844 198.75 125.758 199.288 126.692C199.487 127.009 199.945 127.149 200.264 126.95C200.582 126.751 200.722 126.314 200.522 125.977C199.965 125.043 199.407 124.129 198.87 123.196C198.671 122.878 198.213 122.739 197.894 122.937C197.576 123.136 197.436 123.573 197.635 123.911Z" fill="#492405"/>
<path d="M203.551 142.463C203.571 142.94 203.71 143.397 203.969 143.794C204.228 144.191 204.586 144.529 205.004 144.728C205.183 144.807 205.363 144.847 205.542 144.807C205.701 144.767 205.88 144.628 205.96 144.489C206.04 144.33 206.099 144.132 206.04 143.953C205.98 143.794 205.88 143.615 205.721 143.536C205.602 143.476 205.482 143.417 205.383 143.337C205.422 143.377 205.482 143.417 205.522 143.456C205.383 143.357 205.263 143.238 205.164 143.099L205.283 143.238C205.183 143.099 205.084 142.96 205.024 142.801L205.104 142.98C205.044 142.821 205.004 142.662 204.964 142.503C204.964 142.563 204.964 142.622 204.984 142.682C204.984 142.622 204.984 142.563 204.984 142.503C204.984 142.324 204.905 142.145 204.785 142.006C204.666 141.887 204.467 141.788 204.287 141.808C204.108 141.808 203.909 141.867 203.79 142.006C203.67 142.145 203.571 142.324 203.591 142.503L203.551 142.463Z" fill="#492405"/>
<path d="M117.992 240.154C122.93 236.499 128.465 233.678 134.339 231.87C137.326 230.957 140.392 230.242 143.498 229.904C146.664 229.546 149.949 229.606 152.956 230.778C155.564 231.791 158.013 233.758 159.108 236.38C159.248 236.737 159.586 236.975 159.984 236.876C160.323 236.777 160.622 236.36 160.482 236.002C159.387 233.36 157.276 231.294 154.728 230.023C151.781 228.533 148.436 228.156 145.171 228.355C141.865 228.553 138.56 229.209 135.374 230.103C132.288 230.957 129.282 232.089 126.375 233.479C123.169 235.009 120.103 236.836 117.255 238.962C116.957 239.18 116.797 239.578 116.997 239.935C117.176 240.233 117.654 240.412 117.972 240.193L117.992 240.154Z" fill="#492405"/>
<path d="M132.367 241.743L136.787 239.478C137.126 239.3 137.245 238.823 137.046 238.505C136.827 238.167 136.429 238.068 136.071 238.247L131.65 240.511C131.312 240.69 131.192 241.167 131.392 241.485C131.611 241.822 132.009 241.922 132.367 241.743Z" fill="#492405"/>
<path d="M134.797 245.199C135.991 245.338 137.305 244.802 138.042 243.848C138.162 243.689 138.241 243.55 138.241 243.352C138.241 243.173 138.162 242.974 138.042 242.855C137.783 242.617 137.286 242.537 137.047 242.855C136.967 242.954 136.887 243.054 136.808 243.133C136.768 243.173 136.728 243.213 136.668 243.252C136.648 243.252 136.629 243.292 136.609 243.312C136.529 243.391 136.609 243.312 136.648 243.292C136.549 243.352 136.449 243.431 136.33 243.491C136.27 243.531 136.23 243.55 136.171 243.57C136.111 243.59 135.932 243.67 136.131 243.59C135.892 243.67 135.673 243.749 135.434 243.789C135.354 243.789 135.613 243.789 135.474 243.789C135.454 243.789 135.414 243.789 135.394 243.789C135.334 243.789 135.275 243.789 135.215 243.789C135.075 243.789 134.956 243.789 134.817 243.769C134.657 243.769 134.438 243.868 134.319 243.968C134.199 244.087 134.1 244.285 134.12 244.464C134.12 244.643 134.179 244.842 134.319 244.961C134.458 245.1 134.618 245.139 134.817 245.159L134.797 245.199Z" fill="#492405"/>
<path d="M134.001 251.655C135.136 251.138 136.271 250.642 137.406 250.125C137.744 249.966 137.844 249.45 137.665 249.152C137.446 248.794 137.047 248.735 136.689 248.894C135.554 249.41 134.419 249.907 133.284 250.423C132.946 250.582 132.846 251.099 133.025 251.397C133.244 251.754 133.643 251.814 134.001 251.655Z" fill="#492405"/>
<path d="M122.353 248.397C123.269 247.841 124.205 247.285 125.121 246.729C125.439 246.53 125.579 246.093 125.38 245.755C125.181 245.437 124.742 245.298 124.404 245.497C123.488 246.053 122.552 246.609 121.636 247.166C121.318 247.364 121.178 247.801 121.378 248.139C121.577 248.457 122.015 248.596 122.353 248.397Z" fill="#492405"/>
<path d="M151.264 234.552C152 234.175 152.737 233.817 153.494 233.44C153.832 233.281 153.952 232.784 153.753 232.466C153.534 232.129 153.135 232.029 152.777 232.208C152.04 232.586 151.303 232.943 150.547 233.321C150.208 233.479 150.089 233.976 150.288 234.294C150.507 234.632 150.905 234.731 151.264 234.552Z" fill="#492405"/>
<path d="M146.326 244.067C146.864 243.689 147.422 243.292 147.959 242.915C148.118 242.795 148.238 242.676 148.278 242.498C148.318 242.319 148.298 242.1 148.198 241.961C148.099 241.802 147.959 241.683 147.78 241.643C147.601 241.604 147.382 241.604 147.222 241.723C146.685 242.1 146.127 242.498 145.59 242.875C145.43 242.994 145.311 243.113 145.271 243.292C145.231 243.471 145.251 243.689 145.351 243.848C145.45 244.007 145.59 244.126 145.769 244.166C145.948 244.206 146.167 244.206 146.307 244.087L146.326 244.067Z" fill="#492405"/>
<path d="M193.853 212.861C193.514 218.8 192.658 224.68 191.324 230.48C190.946 232.129 190.508 233.757 190.05 235.366C189.791 236.24 191.165 236.618 191.424 235.744C193.076 229.924 194.231 223.964 194.868 217.946C195.048 216.257 195.187 214.549 195.286 212.861C195.306 212.483 194.948 212.146 194.57 212.146C194.171 212.146 193.873 212.463 193.853 212.861Z" fill="#492405"/>
<path d="M64.8109 269.552C66.5432 275.114 69.3905 280.279 73.1138 284.768C74.1492 285.999 75.2443 287.191 76.3991 288.304C77.0562 288.939 78.0716 287.946 77.3947 287.31C73.3527 283.397 70.0873 278.729 67.8175 273.584C67.1803 272.154 66.6427 270.684 66.1649 269.175C65.8861 268.301 64.5123 268.678 64.791 269.552H64.8109Z" fill="#492405"/>
<path d="M62.9395 171.842V177.384C62.9395 178.298 64.3531 178.298 64.3531 177.384V171.842C64.3531 170.928 62.9395 170.928 62.9395 171.842Z" fill="#821E23"/>
<path d="M67.9355 174.067V177.384C67.9355 177.761 68.2541 178.119 68.6523 178.099C69.0307 178.099 69.3691 177.781 69.3691 177.384V174.067C69.3691 173.689 69.0506 173.332 68.6523 173.352C68.274 173.352 67.9355 173.669 67.9355 174.067Z" fill="#821E23"/>
<path d="M73.5117 175.179V176.848C73.5117 177.026 73.5914 177.225 73.7108 177.344C73.8303 177.463 74.0294 177.563 74.2086 177.543C74.5869 177.543 74.9254 177.225 74.9254 176.828V175.159C74.9254 174.98 74.8458 174.782 74.7263 174.663C74.6068 174.543 74.4077 174.444 74.2285 174.464C73.8502 174.464 73.5117 174.782 73.5117 175.179Z" fill="#821E23"/>
<path d="M86.8714 165.386L87.9864 168.167C88.066 168.346 88.1457 168.485 88.305 168.584C88.4643 168.664 88.6833 168.703 88.8426 168.664C89.1811 168.564 89.4797 168.167 89.3403 167.79C88.962 166.856 88.6036 165.942 88.2253 165.009C88.1457 164.83 88.066 164.691 87.9068 164.592C87.7475 164.512 87.5284 164.472 87.3492 164.512C87.0108 164.611 86.7121 165.009 86.8515 165.386H86.8714Z" fill="#821E23"/>
</g>
<defs>
<clipPath id="clip0_1760_6966">
<rect width="246" height="353" fill="white"/>
</clipPath>
</defs>
</svg>
