<svg width="356" height="326" viewBox="0 0 356 326" fill="none" xmlns="http://www.w3.org/2000/svg">
<path d="M97.2575 282.196C93.2828 282.273 90.4025 286.017 88.6935 289.607C86.9846 293.197 85.5637 297.287 82.2418 299.456C77.4221 302.586 71.1432 300.339 65.4978 299.264C57.3371 297.709 48.946 298.842 40.6508 298.727C32.3557 298.612 23.4653 296.884 17.6855 290.913C19.3945 287.284 23.9645 286.286 27.9201 285.633C53.6504 281.467 79.5727 274.248 100.695 258.946C103.556 265.551 104.266 273.058 102.711 280.084L97.2767 282.177L97.2575 282.196Z" fill="#B03537"/>
<mask id="mask0_2794_5505" style="mask-type:luminance" maskUnits="userSpaceOnUse" x="17" y="258" width="87" height="44">
<path d="M97.2575 282.196C93.2828 282.273 90.4025 286.017 88.6935 289.607C86.9846 293.197 85.5637 297.287 82.2418 299.456C77.4221 302.586 71.1432 300.339 65.4978 299.264C57.3371 297.709 48.946 298.842 40.6508 298.727C32.3557 298.612 23.4653 296.884 17.6855 290.913C19.3945 287.284 23.9645 286.286 27.9201 285.633C53.6504 281.467 79.5727 274.248 100.695 258.946C103.556 265.551 104.266 273.058 102.711 280.084L97.2767 282.177L97.2575 282.196Z" fill="white"/>
</mask>
<g mask="url(#mask0_2794_5505)">
<path d="M18.0692 289.166C36.9445 302.547 66.1119 287.995 85.1408 301.165C81.1468 306.886 73.3125 308.173 66.3423 308.384C53.5539 308.787 40.708 307.251 28.3613 303.872C16.917 300.743 4.95437 295.137 0.0195312 284.347L18.0884 289.166H18.0692Z" fill="#B03537"/>
<path d="M74.2344 296.269C78.1899 291.143 84.8721 288.263 91.3239 288.878C89.6534 293.102 87.9828 297.325 86.3123 301.568C82.2991 300.013 78.3051 298.458 74.292 296.903L74.2344 296.269Z" fill="#F39E31"/>
<path d="M46.2373 288.302C45.8917 287.572 45.0276 287.246 44.298 287.591C43.5683 287.937 43.2419 288.801 43.5875 289.531C43.9331 290.26 44.7972 290.586 45.5269 290.241C46.2565 289.895 46.583 289.031 46.2373 288.302Z" fill="#6B74B5"/>
<path d="M55.3975 285.633C55.0519 284.903 54.1878 284.577 53.4581 284.922C52.7285 285.268 52.402 286.132 52.7477 286.862C53.0933 287.591 53.9574 287.917 54.687 287.572C55.4167 287.226 55.7431 286.362 55.3975 285.633Z" fill="#6B74B5"/>
<path d="M64.5186 283.156C64.173 282.427 63.3089 282.1 62.5792 282.446C61.8495 282.791 61.5231 283.655 61.8687 284.385C62.2144 285.115 63.0785 285.441 63.8081 285.095C64.5378 284.75 64.8642 283.886 64.5186 283.156Z" fill="#6B74B5"/>
<path d="M45.0661 289.818C46.199 286.343 45.719 282.427 43.914 279.259C43.3956 278.356 42.7619 277.512 42.0515 276.763C41.7442 276.436 41.2642 276.936 41.5714 277.243C43.9908 279.758 45.2005 283.291 44.9701 286.766C44.9125 287.745 44.7205 288.705 44.4133 289.645C44.2788 290.068 44.9317 290.241 45.0661 289.818Z" fill="white"/>
<path d="M54.6668 286.689C54.7052 283.31 53.9947 279.95 52.6122 276.878C52.209 275.995 51.7481 275.131 51.2489 274.306C51.0185 273.922 50.4232 274.267 50.6536 274.651C52.881 278.261 54.0331 282.446 53.9947 286.689C53.9947 287.131 54.6668 287.131 54.686 286.689H54.6668Z" fill="white"/>
<path d="M63.7123 284.27C64.0387 280.795 63.3858 277.281 61.8497 274.152C61.6577 273.749 61.0624 274.094 61.2545 274.497C62.733 277.531 63.3282 280.929 63.021 284.27C62.9826 284.711 63.6739 284.711 63.7123 284.27Z" fill="white"/>
<path d="M87.0032 278.51C85.8511 276.052 82.9324 274.977 80.4746 276.129C78.0168 277.281 76.9415 280.199 78.0936 282.657C79.2457 285.114 82.1644 286.189 84.6222 285.038C87.08 283.886 88.1553 280.967 87.0032 278.51Z" fill="#F39E31"/>
<path d="M28.5143 293.217C31.3561 290.202 32.297 285.537 30.8569 281.659C25.7492 282.753 20.7184 284.193 15.8027 285.998C18.9134 290.145 23.6946 293.005 28.8215 293.754L28.4951 293.217H28.5143Z" fill="#F39E31"/>
<path d="M16.9938 288.724C20.3157 291.719 24.4249 293.658 28.7261 294.791C33.1041 295.924 37.6549 296.289 42.1673 296.289C47.3709 296.289 52.5746 295.789 57.7783 295.674C63.0972 295.559 68.4736 295.809 73.6197 297.306C78.4393 298.727 83.1438 301.184 88.2706 301.088C88.9043 301.088 89.5379 301.012 90.1716 300.916C90.5364 300.858 90.7476 300.397 90.6516 300.071C90.5364 299.668 90.1716 299.533 89.8068 299.591C84.8527 300.301 80.0523 297.959 75.4631 296.442C70.4514 294.791 65.2285 294.253 59.9673 294.253C54.6868 294.253 49.4063 294.753 44.1258 294.868C39.7094 294.964 35.2547 294.772 30.9151 293.869C26.7291 292.986 22.6199 291.431 19.2212 288.782C18.7988 288.455 18.3763 288.091 17.9731 287.726C17.3202 287.131 16.3409 288.11 17.013 288.686L16.9938 288.724Z" fill="white"/>
</g>
<path d="M208.723 282.945C205.536 285.326 200.966 284.136 197.413 282.369C193.861 280.584 190.232 278.241 186.257 278.568C180.535 279.048 176.944 284.692 173.162 289.012C167.689 295.252 160.354 299.514 153.883 304.698C147.412 309.901 141.44 316.716 140.576 324.972C144.148 326.777 148.372 324.761 151.886 322.841C174.755 310.323 199.641 300.09 225.697 299.188C223.892 292.218 219.841 285.844 214.292 281.275L208.723 282.964V282.945Z" fill="#B03537"/>
<mask id="mask1_2794_5505" style="mask-type:luminance" maskUnits="userSpaceOnUse" x="140" y="278" width="86" height="48">
<path d="M208.723 282.945C205.536 285.326 200.966 284.136 197.413 282.369C193.861 280.584 190.232 278.241 186.257 278.568C180.535 279.048 176.944 284.692 173.162 289.012C167.689 295.252 160.354 299.514 153.883 304.698C147.412 309.901 141.44 316.716 140.576 324.972C144.148 326.777 148.372 324.761 151.886 322.841C174.755 310.323 199.641 300.09 225.697 299.188C223.892 292.218 219.841 285.844 214.292 281.275L208.723 282.964V282.945Z" fill="white"/>
</mask>
<g mask="url(#mask1_2794_5505)">
<path d="M141.978 326.104C148.66 303.949 180.593 297.517 187.505 275.438C180.842 273.365 173.872 277.185 168.227 281.294C157.896 288.839 148.699 297.939 141.037 308.173C133.933 317.676 127.942 329.464 130.668 341.003L141.959 326.104H141.978Z" fill="#B03537"/>
<path d="M181.918 285.979C188.197 287.591 195.224 285.767 199.929 281.313L188.177 274.382C185.969 278.069 183.761 281.755 181.553 285.441L181.898 285.979H181.918Z" fill="#F39E31"/>
<path d="M164.732 309.478C164.905 310.265 164.425 311.052 163.638 311.225C162.851 311.398 162.063 310.918 161.891 310.131C161.718 309.344 162.198 308.557 162.985 308.384C163.772 308.211 164.56 308.691 164.732 309.478Z" fill="#6B74B5"/>
<path d="M173.604 305.945C173.776 306.733 173.296 307.52 172.509 307.693C171.722 307.865 170.935 307.385 170.762 306.598C170.589 305.811 171.069 305.024 171.856 304.851C172.643 304.678 173.431 305.158 173.604 305.945Z" fill="#6B74B5"/>
<path d="M182.32 302.317C182.493 303.104 182.013 303.891 181.226 304.064C180.439 304.237 179.651 303.757 179.479 302.97C179.306 302.183 179.786 301.395 180.573 301.223C181.36 301.05 182.148 301.53 182.32 302.317Z" fill="#6B74B5"/>
<path d="M162.505 309.574C165.385 311.532 167.306 314.739 167.805 318.175C167.939 319.154 167.958 320.134 167.862 321.113C167.824 321.554 168.496 321.554 168.554 321.113C168.938 317.465 167.632 313.721 165.193 310.995C164.502 310.227 163.715 309.555 162.87 308.979C162.505 308.729 162.159 309.324 162.524 309.574H162.505Z" fill="white"/>
<path d="M171.857 306.022C173.892 308.576 175.352 311.59 176.12 314.758C176.331 315.66 176.504 316.563 176.6 317.484C176.638 317.926 177.329 317.926 177.291 317.484C176.926 314.105 175.812 310.822 174.027 307.904C173.527 307.078 172.951 306.291 172.356 305.523C172.087 305.178 171.607 305.658 171.876 306.003L171.857 306.022Z" fill="white"/>
<path d="M180.497 302.375C182.801 304.832 184.395 307.885 185.086 311.187C185.182 311.609 185.835 311.437 185.739 311.014C185.009 307.616 183.339 304.448 180.958 301.895C180.65 301.568 180.17 302.067 180.478 302.375H180.497Z" fill="white"/>
<path d="M202.906 292.161C203.52 294.81 201.85 297.441 199.2 298.055C196.55 298.669 193.919 296.999 193.305 294.35C192.691 291.7 194.361 289.07 197.011 288.455C199.661 287.841 202.291 289.511 202.906 292.161Z" fill="#F39E31"/>
<path d="M147.739 316.486C151.829 317.12 155.439 320.211 156.687 324.166C151.983 326.45 147.125 328.389 142.152 329.983C142.056 324.799 144.072 319.615 147.663 315.872L147.72 316.486H147.739Z" fill="#F39E31"/>
<path d="M142.746 327.391C143.572 322.726 145.876 318.521 148.872 314.892C151.963 311.168 155.669 308.019 159.567 305.178C163.696 302.163 167.997 299.38 172.029 296.231C176.023 293.121 179.691 289.646 182.552 285.46C183.857 283.54 185.048 281.524 186.373 279.605C187.621 277.8 189.061 276.014 190.808 274.709C191.269 274.363 191.749 274.056 192.229 273.768C192.997 273.326 192.306 272.155 191.538 272.578C187.371 274.958 184.933 279.259 182.398 283.176C181.073 285.23 179.652 287.169 178.02 288.974C176.311 290.836 174.429 292.564 172.452 294.157C168.496 297.383 164.233 300.167 160.086 303.123C156.072 306.003 152.175 309.094 148.891 312.78C145.665 316.39 143.015 320.575 141.786 325.298C141.633 325.874 141.518 326.45 141.402 327.045C141.345 327.41 141.498 327.775 141.882 327.89C142.209 327.986 142.67 327.775 142.727 327.41L142.746 327.391Z" fill="white"/>
</g>
<path d="M354.042 236.387C350.086 228.688 341.484 220.106 333.4 217.073C326.91 214.635 269.19 203.384 258.341 202.943C255.595 202.827 252.638 203.25 250.622 205.131L253.982 207.762C237.507 200.696 220.609 194.629 203.424 189.561C200.639 188.735 197.759 187.948 194.879 188.332C191.768 188.754 189.022 190.521 186.392 192.268C155.554 212.715 112.369 239.498 84.1426 263.42C89.8071 275.381 94.3195 280.814 105.111 288.474C134.144 278.99 177.789 260.482 195.436 235.562C196.165 234.544 196.991 233.431 198.22 233.181C198.988 233.027 199.756 233.239 200.505 233.45C219.611 238.941 238.467 245.238 257.035 252.303C258.456 252.841 259.877 253.398 261.355 253.724C243.498 265.992 223.586 275.285 202.694 281.006C206.035 290.125 207.898 299.783 208.147 309.497C234.972 309.747 260.818 300.224 285.934 290.836C297.896 286.362 309.878 281.889 321.841 277.416C331.096 273.96 340.658 270.312 347.686 263.362C354.714 256.412 358.535 245.18 354.023 236.387H354.042Z" fill="#6B74B5"/>
<path d="M209.896 280.142C211.662 283.54 213.198 287.054 214.485 290.663C215.771 294.273 216.847 297.959 217.653 301.703C218.114 303.834 218.498 305.984 218.805 308.134C218.863 308.499 219.324 308.71 219.65 308.614C220.053 308.499 220.188 308.134 220.13 307.77C219.592 303.93 218.805 300.148 217.768 296.423C216.712 292.66 215.406 288.954 213.889 285.364C213.045 283.368 212.104 281.39 211.105 279.451C210.932 279.125 210.472 279.029 210.164 279.201C209.838 279.393 209.742 279.816 209.915 280.142H209.896Z" fill="#354077"/>
<path d="M260.837 254.415C264.102 251.823 267.52 249.385 271.034 247.139C274.567 244.873 278.234 242.8 281.979 240.899C285.704 239.017 289.525 237.309 293.423 235.811C297.34 234.295 301.353 232.989 305.405 231.895C309.456 230.781 313.565 229.879 317.713 229.207C317.963 229.168 318.212 229.13 318.462 229.092C318.596 229.072 318.731 229.053 318.865 229.034C318.923 229.034 318.961 229.034 319.019 229.015C319.019 229.015 319.057 229.015 319.076 229.015C319.23 229.015 319.211 228.996 318.98 228.996L318.673 228.823C318.673 228.823 318.673 228.823 318.692 228.842L318.519 228.535C318.423 228.304 318.615 228.036 318.846 227.978H319.211C319.211 227.978 319.287 228.016 319.326 228.016C319.403 228.093 319.499 228.189 319.575 228.266C319.575 228.266 319.575 228.247 319.556 228.228C319.076 227.479 317.905 228.17 318.366 228.919C318.731 229.476 319.479 229.399 319.768 228.823C319.902 228.573 319.921 228.247 319.768 227.997C319.575 227.652 319.211 227.613 318.846 227.652C317.751 227.805 316.657 227.997 315.582 228.189C313.393 228.592 311.204 229.034 309.034 229.552C304.713 230.57 300.451 231.837 296.265 233.315C292.059 234.794 287.931 236.522 283.899 238.442C279.886 240.361 275.949 242.493 272.166 244.816C268.364 247.158 264.697 249.692 261.164 252.438C260.722 252.783 260.3 253.11 259.858 253.455C259.57 253.686 259.609 254.185 259.858 254.415C260.146 254.703 260.53 254.646 260.818 254.415H260.837Z" fill="#354077"/>
<path d="M310.089 225.194C306.921 226.73 303.887 228.535 301.026 230.57C300.181 231.165 299.355 231.799 298.549 232.432C298.261 232.663 298.318 233.162 298.549 233.392C298.837 233.68 299.221 233.623 299.509 233.392C303.003 230.666 306.805 228.324 310.78 226.385C311.106 226.231 311.202 225.751 311.03 225.444C310.838 225.098 310.434 225.041 310.089 225.194Z" fill="#354077"/>
<path d="M192.575 218.206C194.515 221.911 195.859 225.924 196.588 230.051C196.8 231.223 196.934 232.394 197.03 233.565C197.068 233.93 197.318 234.256 197.721 234.256C198.067 234.256 198.432 233.949 198.413 233.565C198.048 229.226 197.03 224.944 195.359 220.913C194.879 219.761 194.361 218.628 193.785 217.514C193.612 217.188 193.151 217.092 192.844 217.265C192.518 217.457 192.422 217.879 192.594 218.206H192.575Z" fill="#354077"/>
<path d="M198.604 219.991C198.681 223.966 198.777 227.959 198.853 231.933C198.853 232.816 200.236 232.816 200.217 231.933C200.14 227.959 200.044 223.966 199.967 219.991C199.967 219.108 198.585 219.108 198.604 219.991Z" fill="#354077"/>
<path d="M91.6496 258.524C94.1075 262.344 96.7573 266.069 99.8488 269.41C102.652 272.424 105.801 275.073 109.123 277.492C111.293 279.086 113.54 280.583 115.805 282.042C116.113 282.254 116.554 282.1 116.746 281.793C116.938 281.467 116.804 281.063 116.497 280.852C114.48 279.547 112.464 278.203 110.506 276.801C108.797 275.572 107.241 274.382 105.648 273.038C102.595 270.446 99.7912 267.49 97.391 264.36C95.7588 262.248 94.2611 260.04 92.8401 257.813C92.6481 257.506 92.2257 257.372 91.8993 257.564C91.592 257.736 91.4576 258.197 91.6496 258.504V258.524Z" fill="#354077"/>
<path d="M232.707 295.597C234.665 294.369 236.778 293.486 239.024 292.948C239.389 292.871 239.6 292.449 239.504 292.103C239.408 291.738 239.024 291.546 238.659 291.623C236.298 292.161 234.051 293.121 231.996 294.407C231.247 294.868 231.939 296.058 232.688 295.597H232.707Z" fill="#354077"/>
<path d="M237.968 297.882C239.581 297.306 241.213 296.749 242.826 296.193C243.172 296.077 243.402 295.732 243.306 295.348C243.21 295.002 242.807 294.753 242.462 294.868L237.604 296.557C237.258 296.672 237.027 297.018 237.123 297.402C237.219 297.748 237.623 297.997 237.968 297.882Z" fill="#354077"/>
<path d="M255.883 289.684C256.613 289.492 257.323 289.3 258.053 289.108C258.399 289.012 258.648 288.609 258.533 288.263C258.418 287.899 258.053 287.687 257.688 287.783C256.958 287.975 256.248 288.167 255.518 288.359C255.173 288.455 254.923 288.859 255.038 289.204C255.153 289.569 255.518 289.78 255.883 289.684Z" fill="#354077"/>
<path d="M256.017 283.579C256.113 283.521 256.228 283.444 256.324 283.387C256.362 283.368 256.42 283.329 256.458 283.31C256.478 283.31 256.497 283.291 256.516 283.291C256.593 283.252 256.574 283.272 256.478 283.291C256.478 283.272 256.631 283.233 256.65 283.233C256.708 283.214 256.766 283.195 256.823 283.176C256.919 283.137 257.034 283.118 257.13 283.099C257.169 283.099 257.284 283.099 257.303 283.06C257.207 283.06 257.188 283.06 257.226 283.06C257.246 283.06 257.265 283.06 257.284 283.06C257.399 283.06 257.514 283.06 257.649 283.06C257.745 283.06 257.86 283.06 257.956 283.06C257.994 283.06 258.014 283.06 258.052 283.06C257.937 283.06 257.937 283.06 257.994 283.06C258.052 283.06 258.11 283.08 258.167 283.099C258.513 283.176 258.916 283.003 259.012 282.619C259.089 282.273 258.916 281.851 258.532 281.774C257.418 281.544 256.247 281.736 255.306 282.369C255.018 282.561 254.845 282.984 255.057 283.31C255.249 283.598 255.671 283.771 255.998 283.56L256.017 283.579Z" fill="#354077"/>
<path d="M266.003 290.778C267.635 290.721 269.228 290.279 270.649 289.473C270.957 289.3 271.091 288.839 270.899 288.532C270.688 288.225 270.304 288.09 269.958 288.282C268.748 288.974 267.366 289.358 266.003 289.415C265.638 289.415 265.292 289.722 265.311 290.106C265.311 290.471 265.619 290.798 266.003 290.798V290.778Z" fill="#354077"/>
<path d="M279.194 277.627C280.096 277.281 281.018 276.917 281.921 276.571C282.093 276.513 282.228 276.417 282.324 276.264C282.401 276.11 282.439 275.899 282.401 275.726C282.305 275.4 281.921 275.112 281.556 275.246C280.653 275.592 279.732 275.957 278.829 276.302C278.656 276.36 278.522 276.456 278.426 276.609C278.349 276.763 278.311 276.974 278.349 277.128C278.445 277.454 278.829 277.742 279.194 277.608V277.627Z" fill="#354077"/>
<path d="M286.279 279.854L292.212 277.589C292.558 277.454 292.788 277.128 292.692 276.744C292.596 276.417 292.193 276.129 291.847 276.264C289.87 277.013 287.892 277.781 285.914 278.529C285.568 278.664 285.338 278.99 285.434 279.374C285.53 279.7 285.933 279.988 286.279 279.854Z" fill="#354077"/>
<path d="M111.139 248.867C112.215 247.6 113.29 246.313 114.385 245.046C114.615 244.777 114.673 244.336 114.385 244.086C114.135 243.856 113.655 243.798 113.424 244.086C112.349 245.353 111.274 246.64 110.179 247.907C109.949 248.175 109.891 248.617 110.179 248.867C110.429 249.097 110.909 249.155 111.139 248.867Z" fill="#354077"/>
<path d="M117.15 248.348C117.323 248.176 117.515 247.984 117.688 247.811C117.745 247.753 117.803 247.676 117.822 247.6C117.861 247.523 117.88 247.427 117.88 247.331C117.88 247.235 117.88 247.158 117.822 247.062C117.803 246.985 117.745 246.908 117.688 246.851C117.649 246.812 117.592 246.774 117.553 246.736C117.438 246.678 117.323 246.64 117.208 246.64C117.15 246.64 117.093 246.64 117.035 246.659C116.92 246.697 116.824 246.755 116.728 246.832L116.19 247.369C116.19 247.369 116.075 247.504 116.056 247.58C116.017 247.657 115.998 247.753 115.998 247.849C115.998 247.945 115.998 248.022 116.056 248.118C116.075 248.195 116.132 248.272 116.19 248.329L116.324 248.444C116.44 248.502 116.555 248.54 116.67 248.54C116.728 248.54 116.785 248.54 116.843 248.521C116.958 248.483 117.054 248.425 117.15 248.348Z" fill="#354077"/>
<path d="M119.857 249.98C120.222 249.615 120.587 249.251 120.952 248.886C121.067 248.771 121.144 248.579 121.144 248.406C121.144 248.233 121.067 248.041 120.952 247.926C120.817 247.811 120.644 247.715 120.472 247.734C120.299 247.734 120.126 247.811 119.992 247.926L118.897 249.02C118.782 249.135 118.705 249.327 118.705 249.5C118.705 249.673 118.782 249.865 118.897 249.98C119.032 250.095 119.204 250.191 119.377 250.172C119.55 250.172 119.723 250.095 119.857 249.98Z" fill="#354077"/>
<path d="M149.025 250.46C149.39 250.287 149.755 250.095 150.119 249.922C150.273 249.846 150.388 249.673 150.427 249.519C150.465 249.346 150.446 249.135 150.35 248.982C150.254 248.828 150.119 248.713 149.947 248.674C149.889 248.674 149.831 248.674 149.774 248.655C149.659 248.655 149.543 248.694 149.428 248.751C149.063 248.924 148.698 249.116 148.334 249.289C148.18 249.366 148.065 249.538 148.026 249.692C147.988 249.865 148.007 250.076 148.103 250.21C148.199 250.364 148.334 250.479 148.506 250.518C148.564 250.518 148.622 250.518 148.679 250.537C148.794 250.537 148.91 250.498 149.025 250.441V250.46Z" fill="#354077"/>
<path d="M300.93 193.497C308.707 195.877 317.501 195.512 324.625 191.577C331.749 187.641 336.876 179.904 336.761 171.763C334.226 177.043 328.35 179.75 322.744 181.478C319.806 182.38 316.829 183.148 313.815 183.743C308.861 184.742 302.927 184.991 299.605 181.171L300.93 193.477V193.497Z" fill="#663304"/>
<path d="M299.298 163.143C297.109 162.548 291.118 153.946 303.849 210.257C279.463 212.523 259.934 206.475 235.567 203.979C239.101 180.806 230.825 172.262 228.002 156.634C238.39 152.986 240.694 156.193 251.082 152.545L299.298 163.143Z" fill="#B03537"/>
<path d="M238.87 63.8648L240.694 58.3355C241.136 56.9724 241.866 55.3788 243.286 55.2252C243.978 55.1485 244.65 55.4556 245.245 55.8204C248.586 57.9131 250.122 62.1177 249.969 66.0727C249.815 70.0277 248.221 73.7331 246.532 77.285C244.631 71.7556 242.038 66.4567 238.812 61.5609L238.908 63.8648H238.87Z" fill="#FBC9A4"/>
<path d="M247.242 71.7362C247.011 71.813 246.858 72.0434 246.742 72.2546C246.55 72.581 246.416 72.9266 246.301 73.2722C245.936 74.3089 245.744 75.4225 245.725 76.5168C245.725 77.8799 245.993 79.2431 246.646 80.4526C247.434 81.8925 248.701 83.0445 250.199 83.7357C251.792 84.4652 253.578 84.734 255.306 84.3884C256.938 84.0428 258.494 83.1597 259.569 81.8925C261.931 79.1279 261.854 75.0193 259.838 72.101C257.841 69.2212 254.077 67.5508 250.64 68.722C250.237 68.8564 249.834 69.0484 249.45 69.2596C249.066 69.4708 249.411 70.0659 249.795 69.8547C252.676 68.1844 256.343 69.2212 258.513 71.5634C260.74 73.9633 261.412 77.6879 259.684 80.5486C258.897 81.8733 257.63 82.8909 256.19 83.4285C254.692 83.9852 253.06 84.0044 251.543 83.5437C250.045 83.1021 248.662 82.1997 247.741 80.9326C246.992 79.915 246.55 78.6863 246.435 77.4192C246.339 76.344 246.435 75.2689 246.723 74.2321C246.896 73.5986 247.088 72.9458 247.472 72.4082C247.414 72.485 247.472 72.4082 247.51 72.3698C247.51 72.3698 247.51 72.3698 247.434 72.4082C247.856 72.2738 247.664 71.6018 247.261 71.7554L247.242 71.7362Z" fill="#B03537"/>
<path d="M244.803 66.8212C244.918 64.7669 245.379 62.751 246.147 60.8503C246.282 60.5047 245.994 60.1015 245.667 60.0055C245.283 59.8903 244.957 60.1399 244.822 60.4855C244.016 62.5014 243.536 64.6517 243.421 66.8212C243.401 67.1859 243.747 67.5123 244.112 67.5123C244.496 67.5123 244.784 67.2051 244.803 66.8212Z" fill="#93674A"/>
<path d="M244.208 63.6725C245.111 64.7668 245.86 66.1492 246.282 67.5315C246.397 67.8771 246.762 68.1267 247.127 68.0115C247.473 67.8963 247.722 67.5315 247.607 67.1667C247.089 65.5348 246.263 64.0373 245.188 62.7125C244.957 62.4437 244.458 62.4629 244.228 62.7125C243.959 63.0005 243.978 63.3845 244.228 63.6725H244.208Z" fill="#93674A"/>
<path d="M234.013 119.868C240.791 120.156 248.203 120.252 253.56 115.894C259.033 111.44 261.183 103.184 267.328 99.8244C272.282 97.1173 278.561 98.538 283.131 101.936C287.682 105.335 290.831 110.365 293.711 115.376C303.024 131.618 310.628 149.012 315.044 167.386C316.177 172.09 316.791 177.869 313.297 181.036C309.034 184.895 292.194 186.527 287.47 183.321C277.313 176.429 277.447 164.775 267.27 157.902C265.35 156.596 263.238 155.002 262.873 152.641C262.604 150.875 263.411 149.147 263.987 147.457C266.425 140.296 264.755 131.772 259.82 126.204C250.085 128.623 239.37 126.3 231.344 120.041L233.994 119.907L234.013 119.868Z" fill="#B03537"/>
<path d="M197.03 131.1C196.319 135.074 195.59 139.048 194.879 143.022C194.207 146.709 193.266 150.837 190.098 152.833C187.832 154.273 184.894 154.235 182.36 153.371C179.825 152.507 177.636 150.875 175.543 149.224C174.41 148.341 173.239 147.4 171.837 147.054C168.822 146.306 165.923 148.417 163.369 150.184C160.815 151.95 157.301 153.486 154.748 151.7C153.883 151.105 153 150.299 152.808 149.281C149.294 130.716 176.157 133.212 180.401 134.69C181.073 134.92 179.767 120.944 180.113 116.893L197.049 131.081L197.03 131.1Z" fill="#7C3F08"/>
<path d="M250.027 91.5114C252.907 100.823 256.709 109.846 261.394 118.39C256.555 124.63 248.01 126.377 240.214 127.682C239.773 127.759 239.312 127.817 238.909 127.606C238.544 127.414 238.352 127.03 238.16 126.665C234.627 119.696 231.094 112.746 227.561 105.776C236.105 103.357 243.728 97.8278 248.702 90.4746L250.007 91.473L250.027 91.5114Z" fill="#FBC9A4"/>
<path d="M229.019 108.503C235.067 113.801 242.883 116.816 247.184 114.761C252.695 112.131 251.677 97.9814 251.197 95.1592C250.198 98.039 248.163 100.113 246.224 102.455C244.361 104.701 241.385 105.795 238.466 105.987C235.548 106.179 232.648 105.584 229.787 104.989C229.461 104.912 229.077 104.816 228.981 104.49C228.885 104.164 229.403 103.837 229.518 104.144L229.019 108.522V108.503Z" fill="#C49372"/>
<path d="M191.673 82.7183C198.067 89.5723 204.519 96.4648 212.18 101.879C219.822 107.293 228.847 111.19 238.218 111.248C240.771 111.248 243.421 110.96 245.533 109.52C247.915 107.907 249.201 105.104 249.988 102.34C252.638 93.0858 250.891 83.0062 247.07 74.1555C243.248 65.3047 231.478 45.9713 225.736 38.2148L207.072 38.2532L184.434 56.7227L191.653 82.7183H191.673Z" fill="#FBC9A4"/>
<path d="M245.11 72.3314C237.026 63.8455 229.883 54.4763 223.834 44.4544C223.719 48.7358 222.586 52.9788 220.532 56.7418C220.071 57.5674 219.553 58.4121 218.727 58.8729C216.941 59.8712 214.579 58.5465 213.715 56.6842C212.851 54.8219 213.082 52.6716 213.331 50.6365C215.271 57.4906 212.87 65.4006 207.417 70.0083C203.98 67.5125 202.175 62.9623 202.981 58.7961C202.981 63.9414 201.695 69.0676 199.256 73.5986C198.699 74.6353 198.066 75.6529 197.106 76.3248C195.378 77.5344 192.747 77.1696 191.403 75.5377C190.059 73.9058 190.212 71.2563 191.729 69.7972C194.648 74.4625 194.187 81.0286 190.5 85.1756C190.116 85.598 189.579 85.886 189.003 85.9052C187.678 85.9628 187.159 84.6764 186.833 83.5821C185.853 80.4142 184.874 77.2464 183.914 74.0785C184.01 78.1871 179.709 81.7198 175.638 81.0286C171.587 80.3374 168.687 75.8833 169.455 71.8323C170.223 67.8005 174.332 64.767 178.442 64.9398C171.414 66.3797 163.771 60.3896 163.771 53.1324C163.771 52.6524 163.829 52.1724 163.983 51.7117C164.981 48.659 168.668 48.7358 171.548 49.1582C176.272 49.8685 180.976 50.5597 185.7 51.2701C183.511 48.3902 180.17 46.5087 178.134 43.5137C176.08 40.5378 176.137 35.4692 179.536 34.2021C181.245 33.5685 183.165 34.1445 184.893 34.7205C189.079 36.122 193.285 37.5427 197.471 38.9443C193.189 35.2581 193.438 27.4632 198.123 24.3146C201.656 21.9339 206.86 23.0859 209.568 26.2153C210.643 27.444 212.659 26.6761 212.621 25.0442C212.621 24.1226 212.621 23.1818 212.89 22.3755C213.907 19.2076 218.688 18.8813 221.223 21.0508C223.738 23.2202 224.564 26.7145 225.236 29.9783C226.081 28.8456 227.003 27.7896 228.001 26.7913C230.536 24.3146 234.664 27.0025 233.493 30.3431C233.455 30.4583 233.416 30.5927 233.378 30.7079C231.534 36.1988 234.895 41.9009 237.583 47.0271C241.462 54.4187 244.188 62.4439 245.571 70.6803L245.148 72.3122L245.11 72.3314Z" fill="#060807"/>
<path d="M230.826 78.629C232.343 79.0514 233.994 78.8402 235.376 78.0914C236.759 77.3426 237.757 76.0179 238.199 74.5012C238.449 73.618 238.487 72.6965 238.334 71.7941C238.276 71.4293 237.815 71.2181 237.489 71.3141C237.105 71.4293 236.951 71.7941 237.009 72.1589C237.258 73.6564 236.663 75.2883 235.511 76.3251C234.34 77.381 232.65 77.7074 231.19 77.3042C230.346 77.0739 229.981 78.3986 230.826 78.629Z" fill="#060807"/>
<path d="M213.734 76.2864C214.253 77.0352 214.099 78.0912 213.638 78.8591C213.177 79.6463 212.448 80.2223 211.776 80.8366C209.913 82.4877 208.3 84.4076 207.014 86.5195C207.321 83.8125 208.319 81.2014 209.913 78.9935C210.796 77.7648 211.929 76.632 213.389 76.248L213.753 76.2864H213.734Z" fill="#060807"/>
<path d="M211.162 93.2393C212.678 93.6617 214.33 93.4505 215.712 92.7018C217.095 91.953 218.093 90.6283 218.535 89.1115C218.785 88.2284 218.823 87.3068 218.669 86.4045C218.612 86.0397 218.151 85.8285 217.825 85.9245C217.441 86.0397 217.287 86.4045 217.345 86.7693C217.594 88.2668 216.999 89.8987 215.847 90.9354C214.675 91.9914 212.986 92.3178 211.526 91.9146C210.682 91.6842 210.317 93.0089 211.162 93.2393Z" fill="#060807"/>
<path d="M181.572 123.344C184.99 134.191 194.841 141.602 204.422 147.746C214.004 153.889 224.335 159.975 229.903 169.901C232.303 174.163 234.223 178.714 235.74 183.379C244.669 210.776 252.695 212.062 265.829 215.825C268.268 216.517 270.937 210.411 273.414 209.854C275.392 209.413 277.158 208.338 278.867 207.263C285.857 202.943 295.803 201.445 299.855 194.284C306.902 181.824 290.35 156.04 278.483 145.25C266.617 134.46 258.725 129.814 244.938 121.616C230.229 112.88 241.923 105.239 201.6 84.3311C200.198 89.3036 191.212 101.495 188.389 105.834L181.591 123.344H181.572Z" fill="#DD7B2A"/>
<path d="M268.747 180.076C256.842 188.639 251.485 205.285 256.151 219.204C256.554 220.375 256.996 221.738 256.362 222.813C255.902 223.581 255.018 223.985 254.25 224.426C249.949 226.864 247.76 232.509 249.335 237.194C256.17 235.35 263.025 233.488 269.861 231.645C271.244 231.261 272.684 230.877 273.798 229.975C275.199 228.842 275.91 227.056 276.639 225.405C278.79 220.51 281.709 215.959 285.242 211.947C291.041 205.342 298.875 199.506 300.392 190.847C302.254 180.249 293.402 170.438 283.533 166.176L268.767 180.115L268.747 180.076Z" fill="#DD7B2A"/>
<path d="M229.097 173.338C217.192 181.9 211.835 198.546 216.501 212.465C216.904 213.636 217.346 215 216.712 216.075C216.251 216.843 215.368 217.246 214.6 217.687C210.299 220.126 208.11 225.77 209.684 230.455C216.52 228.612 223.375 226.749 230.211 224.906C231.593 224.522 233.033 224.138 234.147 223.236C235.549 222.103 236.259 220.318 236.989 218.667C239.14 213.771 242.058 209.221 245.591 205.208C251.39 198.604 259.225 192.767 260.742 184.108C262.604 173.51 253.752 163.7 243.882 159.438L229.116 173.376L229.097 173.338Z" fill="#DD7B2A"/>
<path d="M308.247 164.18C292.002 145.288 227.83 150.203 212.526 147.534C211.624 147.381 210.702 147.208 209.799 147.381C208.206 147.688 206.977 149.013 206.305 150.491C204.442 154.6 206.401 159.63 209.761 162.644C213.121 165.658 217.557 167.079 221.897 168.346C243.441 174.624 265.6 178.752 287.951 180.653C293.788 181.152 299.817 181.478 305.386 179.654C306.845 179.174 308.304 178.522 309.303 177.37C311.761 174.547 312.682 170.496 308.247 164.218V164.18Z" fill="#FBC9A4"/>
<path d="M254.77 120.521C262.028 121.462 269.267 119.138 276.391 117.43C277.101 117.257 278.08 117.219 278.349 117.891C278.484 118.198 278.388 118.563 278.272 118.87C277.351 121.212 274.643 122.191 272.301 123.093C270.573 123.765 268.864 124.514 267.039 124.917C263.218 125.762 259.071 124.917 255.902 122.652L254.789 120.521H254.77Z" fill="#FBC9A4"/>
<path d="M192.805 148.417C194.994 157.153 197.759 165.754 201.081 174.125C203.212 179.539 206.131 185.375 211.622 187.314C219.322 190.041 227.157 183.551 231.823 176.832C235.221 171.917 238.025 166.599 240.79 161.281C245.936 151.451 251.082 141.621 256.247 131.772C258.859 136.053 263.102 139.317 267.941 140.699C271.186 141.64 274.719 141.774 277.695 143.368C279.616 144.405 281.19 145.979 282.918 147.304C285.837 149.569 289.274 151.182 292.865 152.007C293.345 152.123 293.69 151.547 293.383 151.163C290.119 147.342 286.298 144.001 282.093 141.275C285.434 141.832 295.572 150.26 298.798 150.107C299.163 150.107 299.297 149.588 299.086 149.3C295.63 144.789 291.156 141.083 286.087 138.51C290.081 140.949 299.413 145.633 303.887 146.977C304.386 147.131 304.77 146.517 304.405 146.133C300.776 142.274 291.29 136.437 286.394 134.44C289.581 135.17 301.294 141.621 303.637 140.43C306.037 139.202 271.532 123.401 260.241 116.144C258.187 114.819 255.882 113.398 253.482 113.878C251.984 114.185 250.755 115.203 249.603 116.201C236.546 127.375 224.507 139.701 213.658 153.025L203.807 136.552C199.045 140.162 194.725 144.366 190.98 149.012L192.824 148.36L192.805 148.417Z" fill="#FBC9A4"/>
<path d="M203.077 178.79C207.475 168.979 208.838 154.887 216.672 147.553C217.191 147.073 211.257 140.085 205.842 138.28C202.309 137.109 198.2 136.264 195.032 138.222C191.96 140.123 190.807 144.059 190.615 147.668C190.059 158.055 198.066 169.671 203.058 178.79H203.077Z" fill="#B03537"/>
<path d="M224.066 132.444C223.298 136.668 222.53 140.891 221.781 145.115C221.07 149.032 220.072 153.409 216.692 155.559C214.292 157.076 211.162 157.057 208.474 156.135C205.786 155.214 203.463 153.486 201.216 151.739C200.006 150.798 198.758 149.8 197.28 149.435C194.073 148.629 191.001 150.875 188.274 152.756C185.547 154.638 181.822 156.27 179.115 154.369C178.212 153.736 177.271 152.891 177.06 151.796C173.316 132.06 201.869 134.709 206.381 136.303C207.111 136.552 205.709 121.692 206.074 117.373L224.066 132.463V132.444Z" fill="#DD7B2A"/>
<path d="M173.565 62.847C167.805 59.8519 160.527 57.8744 155.017 61.3111C151.733 63.3654 149.698 67.0324 148.872 70.8146C148.046 74.5968 148.277 78.5326 148.661 82.3916C149.064 86.6154 149.563 91.1848 147.355 94.8134C146.088 96.9061 144.072 98.4036 142.228 100.016C140.385 101.61 138.58 103.491 138.004 105.872C137.428 108.253 138.58 111.19 140.961 111.785C142.19 112.093 143.476 111.747 144.648 111.286C148.258 109.865 151.387 107.254 153.423 103.971C157.436 97.5397 157.09 89.4377 158.415 81.9884C159.145 77.9566 160.374 74.0208 162.121 70.3154C163.216 67.9923 164.541 65.6884 166.557 64.0949C168.573 62.5014 171.415 61.7334 173.777 62.7318L173.565 62.847Z" fill="#663304"/>
<path d="M199.199 69.4514C201.542 86.4233 196.204 104.317 201.561 120.598C196.146 123.247 190.29 124.994 184.299 125.685C183.627 125.762 182.916 125.82 182.321 125.532C181.63 125.205 181.227 124.514 180.842 123.861C177.77 118.582 174.237 113.571 170.301 108.905C169.763 108.272 169.187 107.6 168.419 107.254C166.979 106.602 165.327 107.197 163.811 107.6C155.938 109.693 147.278 106.141 141.805 100.093C136.275 93.9878 133.625 85.7514 132.627 77.5918C132.627 77.4382 132.627 77.3038 132.665 77.1502C132.838 76.6126 133.299 76.6318 133.683 76.6894C138.387 77.1694 143.073 77.6686 147.777 78.1485C153.288 78.7245 159.721 78.9549 163.35 74.7695C165.865 71.8896 166.249 67.6083 168.707 64.6708C170.685 62.2901 173.795 61.0806 176.887 60.831C179.978 60.5814 183.051 61.1958 186.065 61.9253C190.386 62.9813 194.821 64.3828 198.009 67.4739C198.662 67.9154 199.123 68.6066 199.219 69.3938L199.199 69.4514Z" fill="#DD7B2A"/>
<path d="M134.106 86.6348C134.74 87.7484 136.544 87.0956 137.159 85.9629C137.773 84.8493 137.812 83.4478 138.599 82.4494C140.558 79.9344 145.704 81.3167 146.817 78.3409C142.555 76.3633 137.831 75.4034 133.146 75.5378C132.723 75.5378 132.263 75.5954 131.955 75.8642C131.533 76.229 131.494 76.8433 131.514 77.4001C131.629 80.6255 132.493 83.8126 134.048 86.6348H134.106Z" fill="black"/>
<path d="M181.668 82.0653C181.668 84.0044 180.093 85.598 178.135 85.598C176.176 85.598 174.602 84.0236 174.602 82.0653C174.602 80.107 176.176 78.5327 178.135 78.5327C180.093 78.5327 181.668 80.107 181.668 82.0653Z" fill="black"/>
<path d="M178.384 64.4406C175.312 61.4072 172.777 57.817 170.953 53.9195C170.358 52.6524 170.319 50.5213 171.721 50.4829C172.259 50.4829 172.72 50.8285 173.123 51.1933C175.734 53.5164 177.962 56.281 179.671 59.3337C178.864 57.4906 178.384 55.4939 178.288 53.478C178.25 52.6908 178.499 51.6349 179.287 51.5965C179.671 51.5965 179.997 51.846 180.285 52.0956C182.666 54.2267 184.337 57.145 184.97 60.2936C184.413 58.8921 184.279 57.3178 184.567 55.8394C184.644 55.4555 184.759 55.0331 185.066 54.8027C185.834 54.1883 186.91 55.0331 187.467 55.8202C190.328 59.8521 191.864 64.7862 191.806 69.7396L178.384 64.479V64.4406Z" fill="#DD7B2A"/>
<path d="M179.46 69.0677C183.032 69.9125 186.335 71.8708 188.831 74.5779C186.968 76.2866 184.203 76.517 181.688 76.3634C179.998 76.2482 178.251 75.9794 176.849 75.0578C175.428 74.1363 174.43 72.4084 174.794 70.7573C175.159 69.1061 177.252 67.935 178.692 68.8374L179.48 69.0869L179.46 69.0677Z" fill="#663304"/>
<path d="M141.519 99.8819C145.973 101.245 150.659 102.32 155.325 101.629C159.031 101.091 162.545 99.1908 164.81 96.1765C166.039 94.5638 166.788 92.6247 166.884 90.5896C166.903 90.2248 166.558 89.8984 166.193 89.8984C165.809 89.8984 165.521 90.2056 165.502 90.5896C165.406 92.1639 164.849 93.6807 163.946 95.0246C163.044 96.3493 161.776 97.5013 160.413 98.346C157.072 100.439 153.04 100.765 149.161 100.247C146.684 99.9204 144.245 99.2676 141.864 98.538C141.019 98.2884 140.655 99.594 141.499 99.8628L141.519 99.8819Z" fill="black"/>
<path d="M169.783 114.608C172.548 114.742 175.313 114.512 178.021 113.993C180.709 113.494 183.282 112.611 185.778 111.555C188.063 110.576 190.252 109.347 192.288 107.907C194.515 106.314 196.608 104.547 198.432 102.512C200.468 100.266 202.253 97.751 203.636 95.0439C204.001 94.3143 204.154 93.508 203.943 92.7208C203.751 92.0104 203.213 91.2617 202.56 90.9161C201.85 90.5513 201.005 90.3593 200.237 90.6089C199.507 90.8393 198.778 91.3001 198.432 91.9912C197.549 93.7384 196.493 95.4087 195.283 96.9638C195.437 96.7526 195.59 96.5606 195.763 96.3494C194.035 98.5957 192 100.592 189.772 102.34C189.983 102.186 190.175 102.032 190.387 101.86C187.986 103.703 185.356 105.239 182.572 106.429C182.821 106.333 183.052 106.218 183.301 106.122C180.575 107.274 177.713 108.061 174.776 108.464C175.044 108.426 175.313 108.387 175.582 108.349C173.662 108.598 171.742 108.694 169.802 108.579C169.053 108.541 168.189 108.944 167.671 109.462C167.153 109.981 166.749 110.845 166.788 111.593C166.826 112.381 167.076 113.187 167.671 113.725C168.285 114.281 168.977 114.569 169.802 114.608H169.783Z" fill="#6B74B5"/>
<path d="M181.591 143.963C178.865 146.363 177.847 150.549 179.191 153.947C179.326 154.292 179.652 154.523 180.036 154.427C180.363 154.331 180.651 153.928 180.516 153.582C179.326 150.606 180.132 147.074 182.552 144.942C182.82 144.693 182.801 144.232 182.552 143.983C182.283 143.714 181.86 143.733 181.591 143.983V143.963Z" fill="#663304"/>
<path d="M185.01 145.057C182.514 147.419 181.458 151.124 182.341 154.446C182.572 155.29 183.896 154.945 183.666 154.081C182.917 151.239 183.82 148.072 185.989 146.017C186.623 145.403 185.663 144.443 185.029 145.057H185.01Z" fill="#663304"/>
<path d="M189.617 136.111C192.786 136.264 195.935 136.495 199.103 136.802C200.62 136.956 202.175 137.052 203.692 137.301C204.019 137.359 204.345 137.416 204.633 137.57C204.94 137.724 205.19 137.935 205.44 138.165C205.996 138.684 206.534 139.24 207.091 139.778C208.358 141.026 209.645 142.274 210.912 143.522C211.546 144.136 212.506 143.176 211.872 142.562C210.701 141.41 209.53 140.277 208.377 139.125C207.801 138.568 207.225 137.992 206.649 137.436C206.092 136.879 205.497 136.38 204.748 136.13C204.019 135.88 203.231 135.861 202.483 135.765C201.657 135.669 200.831 135.592 200.006 135.496C198.393 135.343 196.78 135.189 195.167 135.074C193.323 134.94 191.48 134.825 189.637 134.729C189.272 134.729 188.945 135.055 188.945 135.42C188.945 135.804 189.253 136.092 189.637 136.111H189.617Z" fill="#663304"/>
<path d="M202.559 125.475C204.172 128.988 204.748 132.943 204.249 136.783C204.21 137.148 204.594 137.474 204.94 137.474C205.343 137.474 205.574 137.167 205.631 136.783C206.15 132.693 205.478 128.527 203.749 124.783C203.596 124.438 203.116 124.361 202.809 124.534C202.463 124.745 202.405 125.129 202.559 125.475Z" fill="#663304"/>
<path d="M257.745 222.276C256.247 219.166 255.287 215.806 254.827 212.388C254.366 208.952 254.404 205.419 254.903 202.002C255.383 198.757 256.324 195.628 257.265 192.498C257.611 191.346 257.995 190.194 258.417 189.081C258.475 188.946 258.513 188.831 258.571 188.697C258.59 188.639 258.629 188.562 258.648 188.505C258.609 188.62 258.667 188.447 258.686 188.409C258.801 188.159 258.917 187.91 259.032 187.66C259.262 187.18 259.512 186.7 259.781 186.239C260.049 185.759 260.337 185.299 260.645 184.838C260.818 184.588 260.971 184.358 261.144 184.127C261.221 184.012 261.298 183.916 261.394 183.801C261.413 183.782 261.432 183.743 261.451 183.724C261.394 183.801 261.451 183.724 261.451 183.705C261.509 183.647 261.547 183.571 261.605 183.513C262.469 182.419 263.429 181.382 264.408 180.384C264.696 180.096 264.965 179.808 265.253 179.539C265.887 178.924 264.907 177.945 264.293 178.579C262.354 180.518 260.453 182.553 258.993 184.876C257.764 186.834 256.92 189.004 256.228 191.212C255.787 192.594 255.383 193.996 254.999 195.397C254.519 197.087 254.078 198.795 253.77 200.543C253.156 204.094 252.964 207.723 253.329 211.294C253.694 214.903 254.558 218.455 255.998 221.796C256.171 222.199 256.363 222.602 256.555 223.005C256.708 223.332 257.188 223.428 257.496 223.255C257.841 223.063 257.899 222.66 257.745 222.314V222.276Z" fill="#663304"/>
<path d="M227.003 189.426C230.095 192.786 233.416 195.935 236.892 198.91C240.329 201.867 243.92 204.67 247.607 207.32C249.546 208.721 251.524 210.065 253.521 211.39C253.828 211.601 254.27 211.447 254.462 211.14C254.654 210.814 254.519 210.411 254.212 210.199C250.621 207.838 247.107 205.342 243.689 202.693C240.118 199.909 236.642 196.99 233.359 193.88C231.496 192.133 229.691 190.309 227.963 188.447C227.714 188.178 227.253 188.197 227.003 188.447C226.734 188.716 226.753 189.138 227.003 189.407V189.426Z" fill="#663304"/>
<path d="M253.981 229.015C251.85 230.781 251.255 233.987 252.464 236.445C252.637 236.771 253.098 236.867 253.405 236.694C253.751 236.502 253.808 236.099 253.655 235.754C252.714 233.853 253.29 231.376 254.961 229.994C255.249 229.763 255.21 229.264 254.961 229.034C254.672 228.746 254.269 228.803 254 229.034L253.981 229.015Z" fill="#663304"/>
<path d="M258.687 228.439C257.842 229.437 256.92 230.512 256.651 231.818C256.421 232.989 256.651 234.333 257.592 235.139C257.88 235.389 258.283 235.408 258.552 235.139C258.802 234.89 258.84 234.41 258.552 234.179C257.938 233.642 257.803 232.797 257.995 232.029C258.245 231.011 258.975 230.186 259.627 229.399C259.858 229.111 259.896 228.707 259.627 228.439C259.378 228.189 258.898 228.151 258.667 228.439H258.687Z" fill="#663304"/>
<path d="M215.079 220.164C212.948 222.199 212.449 225.617 213.889 228.189C214.311 228.957 215.502 228.266 215.079 227.498C213.946 225.482 214.369 222.756 216.059 221.143C216.692 220.529 215.732 219.569 215.099 220.183L215.079 220.164Z" fill="#663304"/>
<path d="M219.611 219.742C217.556 221.777 217.191 225.252 218.823 227.652C219.034 227.959 219.419 228.093 219.764 227.901C220.071 227.729 220.225 227.268 220.014 226.961C218.708 225.06 218.938 222.353 220.59 220.721C221.223 220.107 220.244 219.127 219.63 219.761L219.611 219.742Z" fill="#663304"/>
<path d="M221.877 81.8924C224.507 85.1755 226.869 88.6889 228.943 92.3559C229.538 93.4119 230.095 94.4678 230.633 95.543C230.748 95.7925 231.151 95.9653 231.401 95.8501C232.476 95.4086 233.244 94.5638 233.686 93.5078C234.185 92.3175 234.223 90.9928 234.243 89.7064C234.243 88.8233 232.879 88.8233 232.879 89.7064C232.879 90.7624 232.86 91.8567 232.476 92.8743C232.226 93.5463 231.689 94.2566 231.036 94.5254C231.285 94.6214 231.554 94.7366 231.804 94.8326C229.865 91.012 227.618 87.3258 225.103 83.8699C224.373 82.8716 223.605 81.8732 222.837 80.9133C222.606 80.6253 222.107 80.6637 221.877 80.9133C221.589 81.2013 221.646 81.5852 221.877 81.8732V81.8924Z" fill="#93674A"/>
<path d="M207.111 29.9784C206.093 27.7129 205.843 25.121 206.381 22.7019C206.631 21.5884 206.995 20.3212 207.744 19.4381C208.436 18.5933 209.453 18.3629 210.49 18.6125C212.583 19.1309 214.235 20.9932 215.118 22.8747C215.559 23.8347 215.828 24.8906 215.713 25.9466C215.617 26.9449 215.118 28.0585 214.158 28.5C213.082 28.9992 212.257 27.8857 211.796 27.0409C211.335 26.1961 211.124 25.2362 211.105 24.2762C211.085 22.2027 211.969 20.206 213.466 18.7853C215.079 17.2494 217.23 16.3854 219.4 15.963C221.646 15.5407 224.296 15.3679 226.274 16.731C228.098 17.9981 229.058 20.206 229.308 22.3563C229.615 25.0826 229.058 27.8665 228.463 30.5351C228.309 31.2071 228.156 31.8599 227.983 32.5318C227.868 32.9542 228.54 33.1462 228.636 32.7046C229.02 31.2071 229.346 29.6904 229.615 28.1545C229.865 26.6953 230.076 25.2362 230.057 23.7579C230.038 21.2428 229.308 18.6317 227.445 16.8462C226.562 16.0014 225.448 15.4255 224.239 15.1759C222.894 14.9071 221.512 14.9839 220.168 15.1567C217.748 15.4831 215.348 16.3086 213.466 17.8638C211.681 19.3421 210.567 21.454 210.433 23.7579C210.375 24.8522 210.548 25.9658 210.989 26.9833C211.412 27.9241 212.218 29.1528 213.313 29.3256C214.503 29.4984 215.54 28.4808 215.982 27.4633C216.443 26.4073 216.5 25.217 216.231 24.0843C215.713 21.7996 214.042 19.5917 211.969 18.4781C210.989 17.9598 209.837 17.6334 208.743 17.9406C207.495 18.3053 206.803 19.3805 206.323 20.5132C205.267 23.0091 205.114 25.8698 205.824 28.4808C205.997 29.1144 206.227 29.7288 206.496 30.3047C206.669 30.7079 207.264 30.3623 207.091 29.9592L207.111 29.9784Z" fill="#060807"/>
<path d="M196.511 38.0421C195.013 36.2565 193.151 34.7782 191.096 33.7031C188.965 32.5895 186.411 31.668 183.972 32.2247C182.014 32.6855 180.17 34.4326 180.266 36.5637C180.324 37.7541 180.958 38.8676 181.591 39.8468C182.206 40.7491 182.916 41.5939 183.723 42.3235C184.529 43.053 185.432 43.7058 186.373 44.2434C186.853 44.5121 187.352 44.7425 187.851 44.9537C188.293 45.1265 188.965 45.4721 189.31 44.9537C189.618 44.5121 189.234 43.9746 189.003 43.5906C188.734 43.149 188.466 42.6882 188.178 42.2659C187.601 41.4403 186.929 40.6531 186.046 40.1348C185.182 39.5972 184.145 39.4052 183.147 39.5972C182.148 39.7892 181.207 40.3843 180.535 41.1523C178.961 42.9762 178.999 45.6257 179.921 47.7376C180.382 48.8127 181.073 49.7727 182.091 50.3871C183.031 50.9822 184.145 51.251 185.24 51.4046C187.697 51.731 190.251 51.4046 192.556 50.483C193.112 50.2719 193.65 50.0031 194.188 49.7343C194.572 49.5231 194.226 48.9279 193.842 49.1391C191.883 50.1951 189.694 50.771 187.486 50.8286C185.528 50.8862 183.147 50.6558 181.687 49.1967C180.919 48.448 180.458 47.392 180.19 46.3745C179.921 45.3377 179.902 44.2434 180.19 43.2258C180.708 41.4787 182.475 39.962 184.376 40.25C186.2 40.5187 187.39 42.2275 188.254 43.7058C188.37 43.8978 188.485 44.0898 188.581 44.2818C188.638 44.3778 188.696 44.4545 188.715 44.5697C188.658 44.5697 188.562 44.5313 188.504 44.5121C188.043 44.3586 187.601 44.1474 187.16 43.9362C186.296 43.4946 185.451 42.9762 184.702 42.3427C183.953 41.7283 183.262 41.0179 182.667 40.25C182.052 39.4436 181.438 38.5412 181.111 37.5813C180.785 36.6405 180.862 35.6998 181.361 34.855C181.822 34.0679 182.59 33.4535 183.415 33.1271C185.508 32.2823 187.909 33.0119 189.848 33.8951C191.73 34.759 193.458 35.9494 194.917 37.4085C195.282 37.7733 195.628 38.1573 195.973 38.5412C196.261 38.8868 196.741 38.3876 196.453 38.0613L196.511 38.0421Z" fill="#060807"/>
<path d="M233.896 57.1064C234.895 60.1591 235.97 63.3461 238.293 65.554C239.138 66.3604 240.118 66.994 240.982 67.7811C243.881 70.4306 245.148 74.7504 244.131 78.5518C246.339 76.8623 246.857 73.6176 246.108 70.949C245.36 68.2611 243.593 66.0148 241.865 63.8261C240.425 62.0022 238.965 60.1783 237.525 58.3544L233.877 57.1064H233.896Z" fill="#060807"/>
<path d="M235.971 97.9816C238.928 95.8889 240.445 92.1067 239.677 88.5549C239.6 88.1901 239.178 87.9789 238.832 88.0749C238.448 88.1709 238.275 88.5549 238.352 88.9196C238.967 91.7995 237.718 95.0825 235.261 96.7912C234.953 97.0024 234.819 97.3864 235.011 97.732C235.184 98.0392 235.645 98.1928 235.952 97.9816H235.971Z" fill="#93674A"/>
<path d="M222.799 68.3382C223.183 69.1637 224.143 69.5861 225.065 69.5861C225.986 69.5861 226.85 69.2789 227.714 68.991C230.076 68.2422 232.573 67.8582 235.05 67.839C232.573 66.7063 229.827 66.2263 227.119 66.4567C225.621 66.5911 224.047 66.9559 222.972 68.0118L222.818 68.3382H222.799Z" fill="#060807"/>
<path d="M191.5 63.9221C196.435 65.4581 201.216 67.8772 204.768 71.621C208.34 75.3648 210.567 80.5677 209.991 85.7131C209.012 94.3911 200.621 100.727 199.123 109.328C198.432 113.264 199.258 117.276 199.43 121.251C199.603 125.225 198.989 129.602 196.089 132.348C195.033 133.346 193.651 134.075 192.21 133.96C190.598 133.826 189.253 132.655 188.255 131.368C184.779 126.876 184.242 120.636 185.432 115.068C186.623 109.501 189.311 104.394 191.807 99.2868C194.303 94.1799 196.665 88.8425 197.107 83.1788C197.625 76.4975 195.955 68.7219 191.423 63.7686L191.5 63.9029V63.9221Z" fill="#663304"/>
<path d="M220.245 126.454C221.57 131.388 222.262 136.495 222.185 141.602C222.127 145.96 221.321 150.644 217.98 153.736C216.405 155.195 214.35 156.135 212.219 156.097C211.336 156.097 211.336 157.46 212.219 157.46C214.35 157.499 216.405 156.692 218.095 155.406C219.919 154.004 221.225 152.161 222.108 150.049C223.049 147.784 223.414 145.288 223.529 142.85C223.644 140.258 223.529 137.647 223.241 135.055C222.914 132.021 222.358 129.026 221.57 126.089C221.34 125.244 220.015 125.59 220.245 126.454Z" fill="#663304"/>
<path d="M261.086 192.805C260.011 194.476 259.646 196.492 259.973 198.45C260.03 198.815 260.491 199.026 260.818 198.93C261.202 198.815 261.355 198.45 261.298 198.085C261.029 196.511 261.394 194.86 262.277 193.497C262.469 193.189 262.335 192.748 262.027 192.556C261.701 192.364 261.298 192.498 261.086 192.805Z" fill="#B25B1B"/>
<path d="M259.051 204.421C258.436 204.901 257.994 205.65 257.822 206.398C257.63 207.243 257.706 208.069 258.052 208.856C258.206 209.182 258.705 209.278 258.993 209.105C259.339 208.894 259.396 208.51 259.243 208.165C259.185 208.049 259.262 208.241 259.243 208.165C259.243 208.126 259.223 208.107 259.204 208.069C259.185 207.992 259.166 207.915 259.147 207.857C259.147 207.819 259.127 207.627 259.089 207.608C259.089 207.608 259.089 207.742 259.089 207.646C259.089 207.608 259.089 207.569 259.089 207.512C259.089 207.358 259.089 207.205 259.089 207.051C259.089 207.013 259.089 206.955 259.089 206.917C259.089 206.955 259.07 207.032 259.089 206.955C259.089 206.878 259.127 206.782 259.147 206.706C259.147 206.629 259.185 206.552 259.204 206.494C259.204 206.456 259.223 206.437 259.243 206.398C259.243 206.398 259.435 206.034 259.454 205.995C259.454 205.976 259.569 205.784 259.588 205.784C259.588 205.784 259.492 205.88 259.588 205.803C259.607 205.765 259.646 205.746 259.665 205.707C259.78 205.592 259.895 205.477 260.011 205.381C260.299 205.15 260.26 204.651 260.011 204.421C259.703 204.152 259.339 204.19 259.051 204.421Z" fill="#B25B1B"/>
<path d="M261.662 202.923C261.01 203.653 260.741 204.69 261.01 205.65C261.106 205.995 261.509 206.245 261.854 206.13C262.2 206.014 262.431 205.65 262.335 205.285C262.315 205.189 262.277 205.074 262.277 204.978C262.277 205.035 262.277 205.093 262.296 205.15C262.277 204.958 262.277 204.766 262.296 204.594C262.296 204.651 262.296 204.709 262.277 204.766C262.296 204.574 262.354 204.383 262.431 204.191C262.411 204.248 262.392 204.306 262.354 204.363C262.431 204.191 262.527 204.018 262.642 203.883L262.527 204.018C262.527 204.018 262.584 203.941 262.623 203.903C262.853 203.634 262.911 203.192 262.623 202.943C262.354 202.693 261.912 202.655 261.662 202.943V202.923Z" fill="#B25B1B"/>
<path d="M267.826 193.862C267.058 195.148 267.039 196.78 267.749 198.085C267.922 198.393 268.383 198.527 268.69 198.335C269.016 198.124 269.112 197.74 268.94 197.394C268.901 197.337 268.863 197.26 268.844 197.202C268.805 197.125 268.805 197.125 268.844 197.202C268.844 197.164 268.824 197.125 268.805 197.106C268.748 196.972 268.709 196.818 268.671 196.684C268.671 196.607 268.632 196.53 268.632 196.473C268.613 196.319 268.632 196.588 268.632 196.434C268.632 196.281 268.613 196.127 268.632 195.993C268.632 195.916 268.632 195.839 268.632 195.762C268.632 195.724 268.632 195.685 268.632 195.647C268.632 195.743 268.632 195.743 268.632 195.647C268.652 195.513 268.69 195.397 268.709 195.263C268.728 195.186 268.748 195.129 268.767 195.052C268.767 195.014 268.863 194.802 268.805 194.956C268.863 194.822 268.94 194.687 269.016 194.553C269.208 194.246 269.093 193.785 268.767 193.612C268.44 193.439 268.018 193.535 267.826 193.862Z" fill="#B25B1B"/>
<path d="M233.262 187.814C233.781 188.85 234.299 189.868 234.799 190.905C234.952 191.231 235.432 191.346 235.739 191.154C236.066 190.943 236.162 190.559 235.989 190.214C235.471 189.177 234.952 188.159 234.453 187.123C234.299 186.796 233.819 186.681 233.512 186.873C233.186 187.084 233.09 187.468 233.262 187.814Z" fill="#B25B1B"/>
<path d="M237.43 190.367C237.603 190.713 237.776 191.058 237.948 191.404C238.025 191.558 238.198 191.673 238.352 191.711C238.448 191.73 238.524 191.75 238.62 191.711C238.717 191.711 238.793 191.673 238.87 191.634C239.024 191.538 239.139 191.404 239.177 191.231C239.177 191.174 239.177 191.116 239.197 191.058C239.197 190.943 239.158 190.828 239.101 190.713C238.928 190.367 238.755 190.022 238.582 189.676C238.505 189.522 238.332 189.407 238.179 189.369C238.083 189.35 238.006 189.33 237.91 189.369C237.814 189.369 237.737 189.407 237.66 189.446C237.507 189.542 237.392 189.676 237.353 189.849C237.353 189.906 237.353 189.964 237.334 190.022C237.334 190.137 237.372 190.252 237.43 190.367Z" fill="#B25B1B"/>
<path d="M241.904 190.559C241.904 191.078 242.039 191.596 242.288 192.057C242.538 192.518 242.884 192.902 243.306 193.209C243.44 193.305 243.69 193.324 243.844 193.286C243.997 193.247 244.17 193.113 244.247 192.978C244.324 192.825 244.381 192.633 244.324 192.441C244.266 192.268 244.151 192.153 244.016 192.038C244.016 192.038 243.978 192.018 243.959 191.999L244.093 192.114C243.92 191.98 243.786 191.826 243.652 191.673C243.69 191.711 243.728 191.769 243.767 191.807C243.632 191.615 243.517 191.423 243.421 191.212L243.498 191.385C243.421 191.174 243.364 190.962 243.325 190.751C243.325 190.809 243.325 190.866 243.344 190.924C243.344 190.828 243.325 190.713 243.325 190.598C243.325 190.233 243.018 189.887 242.634 189.907C242.269 189.907 241.943 190.214 241.943 190.598L241.904 190.559Z" fill="#B25B1B"/>
<path d="M218.248 198.277V201.368C218.248 201.733 218.555 202.079 218.939 202.06C219.304 202.06 219.631 201.752 219.631 201.368V198.277C219.631 197.913 219.323 197.567 218.939 197.586C218.574 197.586 218.248 197.893 218.248 198.277Z" fill="#B25B1B"/>
<path d="M221.34 200.332V201.868C221.34 202.041 221.417 202.233 221.532 202.348C221.647 202.463 221.839 202.559 222.012 202.54C222.377 202.54 222.703 202.233 222.703 201.849V200.313C222.703 200.14 222.626 199.948 222.511 199.833C222.396 199.717 222.204 199.621 222.031 199.641C221.666 199.641 221.34 199.948 221.34 200.332Z" fill="#B25B1B"/>
<path d="M224.988 200.677C224.738 201.733 224.93 202.866 225.525 203.768C225.717 204.056 226.14 204.229 226.466 204.018C226.754 203.826 226.927 203.404 226.716 203.077C226.658 202.981 226.601 202.885 226.543 202.789C226.524 202.732 226.485 202.693 226.466 202.636C226.466 202.616 226.447 202.578 226.428 202.559C226.428 202.597 226.447 202.616 226.466 202.655C226.466 202.616 226.428 202.54 226.408 202.501C226.408 202.444 226.37 202.386 226.351 202.348C226.312 202.252 226.293 202.136 226.274 202.04C226.274 202.002 226.274 201.945 226.255 201.887C226.255 202.002 226.255 202.021 226.255 201.945C226.255 201.925 226.255 201.887 226.255 201.868C226.255 201.772 226.255 201.657 226.255 201.561C226.255 201.465 226.255 201.349 226.274 201.253C226.274 201.177 226.274 201.196 226.274 201.311C226.274 201.292 226.274 201.253 226.274 201.234C226.274 201.177 226.293 201.119 226.312 201.061C226.389 200.716 226.197 200.313 225.832 200.217C225.487 200.14 225.084 200.313 224.988 200.697V200.677Z" fill="#B25B1B"/>
<path d="M220.475 215.96C222.971 215.883 225.448 215.557 227.887 214.981C228.252 214.904 228.463 214.481 228.367 214.136C228.271 213.771 227.887 213.579 227.522 213.656C225.199 214.193 222.856 214.501 220.475 214.577C219.592 214.597 219.592 215.979 220.475 215.941V215.96Z" fill="#B25B1B"/>
<path d="M259.588 225.194H264.734C265.618 225.194 265.618 223.831 264.734 223.831H259.588C258.705 223.831 258.705 225.194 259.588 225.194Z" fill="#B25B1B"/>
<path d="M217.671 113.072L218.209 115.645C218.285 115.99 218.708 116.24 219.054 116.125C219.418 116.009 219.61 115.664 219.534 115.28L218.996 112.707C218.919 112.362 218.497 112.112 218.151 112.227C217.786 112.342 217.594 112.688 217.671 113.072Z" fill="#B25B1B"/>
<path d="M221.857 113.379V114.915C221.857 115.088 221.934 115.28 222.049 115.395C222.165 115.51 222.357 115.606 222.529 115.587C222.894 115.587 223.221 115.28 223.221 114.896V113.36C223.221 113.187 223.144 112.995 223.029 112.88C222.914 112.765 222.722 112.669 222.549 112.688C222.184 112.688 221.857 112.995 221.857 113.379Z" fill="#B25B1B"/>
<path d="M225.698 114.838C225.698 114.838 225.775 114.934 225.813 114.972C225.775 114.934 225.736 114.876 225.698 114.838C225.813 114.972 225.89 115.126 225.967 115.299C225.947 115.241 225.928 115.184 225.89 115.126C225.947 115.299 226.005 115.452 226.024 115.644C226.024 115.587 226.024 115.529 226.005 115.472C226.024 115.664 226.024 115.836 226.005 116.028C226.005 115.971 226.005 115.913 226.024 115.856C226.005 116.009 225.967 116.144 225.909 116.278C225.851 116.431 225.909 116.662 225.986 116.796C226.063 116.931 226.235 117.065 226.389 117.103C226.562 117.142 226.754 117.142 226.907 117.027C227.061 116.931 227.157 116.796 227.215 116.623C227.56 115.683 227.291 114.588 226.619 113.859C226.37 113.59 225.89 113.59 225.659 113.859C225.41 114.147 225.391 114.55 225.659 114.819L225.698 114.838Z" fill="#B25B1B"/>
<path d="M213.677 98.1159L214.215 100.17C214.311 100.516 214.714 100.765 215.06 100.65C215.425 100.535 215.636 100.17 215.54 99.8054C215.367 99.1142 215.175 98.4423 215.002 97.7511C214.906 97.4055 214.503 97.1559 214.157 97.2711C213.793 97.3863 213.581 97.7511 213.677 98.1159Z" fill="#B25B1B"/>
<path d="M208.089 102.397C208.608 103.261 209.107 104.125 209.625 104.97C209.817 105.277 210.259 105.411 210.566 105.219C210.873 105.027 211.008 104.605 210.816 104.279C210.297 103.415 209.798 102.551 209.28 101.706C209.088 101.399 208.646 101.264 208.339 101.456C208.031 101.648 207.897 102.071 208.089 102.397Z" fill="#B25B1B"/>
<path d="M221.013 105.124C221.531 105.642 222.05 106.16 222.549 106.66C222.664 106.775 222.856 106.852 223.029 106.852C223.202 106.852 223.394 106.775 223.509 106.66C223.624 106.525 223.72 106.352 223.701 106.18C223.701 106.007 223.624 105.834 223.509 105.7C222.991 105.181 222.472 104.663 221.973 104.164C221.858 104.048 221.666 103.972 221.493 103.972C221.32 103.972 221.128 104.048 221.013 104.164C220.898 104.298 220.802 104.471 220.821 104.644C220.821 104.816 220.898 104.989 221.013 105.124Z" fill="#B25B1B"/>
<path d="M257.324 143.637C257.88 144.635 258.437 145.653 258.994 146.651C259.167 146.958 259.628 147.093 259.935 146.901C260.262 146.689 260.377 146.305 260.185 145.96C259.628 144.962 259.071 143.944 258.514 142.946C258.341 142.638 257.881 142.504 257.573 142.696C257.247 142.907 257.132 143.291 257.324 143.637Z" fill="#B25B1B"/>
<path d="M262.084 145.115C262.43 145.633 262.776 146.152 263.121 146.651C263.217 146.805 263.352 146.92 263.525 146.958C263.697 146.997 263.909 146.977 264.062 146.881C264.216 146.785 264.331 146.651 264.369 146.478C264.408 146.305 264.408 146.094 264.293 145.96C263.947 145.441 263.601 144.923 263.256 144.424C263.16 144.27 263.025 144.155 262.853 144.117C262.68 144.078 262.468 144.097 262.334 144.193C262.18 144.289 262.065 144.424 262.027 144.597C261.988 144.769 261.988 144.981 262.104 145.115H262.084Z" fill="#B25B1B"/>
<path d="M278.79 140.488L289.312 147.592C290.311 148.264 291.309 148.955 292.327 149.627C292.634 149.838 293.095 149.684 293.268 149.377C293.46 149.032 293.326 148.648 293.018 148.437L282.496 141.333C281.497 140.661 280.499 139.97 279.481 139.298C279.174 139.087 278.713 139.24 278.54 139.547C278.348 139.893 278.483 140.277 278.79 140.488Z" fill="#93674A"/>
<path d="M282.458 138.031C285.895 140.027 289.313 142.043 292.75 144.04C293.729 144.616 294.709 145.192 295.688 145.749C296.456 146.19 297.147 145.019 296.379 144.558C292.942 142.562 289.524 140.546 286.087 138.549C285.108 137.973 284.128 137.397 283.149 136.84C282.381 136.399 281.69 137.57 282.458 138.031Z" fill="#93674A"/>
<path d="M283.995 134.939C287.835 136.821 291.772 138.51 295.804 139.97C296.937 140.392 298.089 140.795 299.241 141.16C299.587 141.275 299.99 141.025 300.086 140.68C300.182 140.315 299.951 139.95 299.606 139.835C295.631 138.51 291.733 136.994 287.931 135.266C286.837 134.767 285.761 134.267 284.686 133.73C284.36 133.576 283.937 133.634 283.745 133.979C283.572 134.287 283.649 134.747 283.995 134.92V134.939Z" fill="#93674A"/>
<path d="M284.187 132.252C283.169 134.94 281.23 137.282 278.81 138.856C278.138 139.298 277.389 139.701 276.641 140.008C276.295 140.143 276.065 140.469 276.161 140.853C276.257 141.179 276.66 141.467 277.005 141.333C280.02 140.085 282.593 137.896 284.302 135.113C284.782 134.325 285.185 133.481 285.512 132.636C285.646 132.29 285.358 131.887 285.032 131.791C284.648 131.676 284.321 131.926 284.187 132.271V132.252Z" fill="#93674A"/>
<path d="M251.256 121.827C251.794 125.072 253.118 128.201 255.096 130.831C255.672 131.599 256.287 132.31 256.94 133.001C257.554 133.634 258.533 132.655 257.9 132.041C255.73 129.814 254.098 127.087 253.195 124.112C252.926 123.248 252.715 122.364 252.581 121.462C252.523 121.097 252.062 120.886 251.736 120.982C251.352 121.097 251.198 121.462 251.256 121.827Z" fill="#93674A"/>
<path d="M246.628 148.782C244.554 153.294 242.307 157.729 239.85 162.048C237.411 166.368 234.78 170.592 231.958 174.681C230.383 176.985 228.751 179.232 227.061 181.459C226.831 181.747 227.023 182.227 227.311 182.399C227.656 182.611 228.021 182.457 228.252 182.15C231.247 178.195 234.089 174.125 236.739 169.92C239.389 165.715 241.866 161.415 244.151 156.999C245.437 154.522 246.647 152.027 247.818 149.473C247.972 149.127 247.914 148.743 247.569 148.532C247.281 148.36 246.781 148.436 246.628 148.782Z" fill="#93674A"/>
<path d="M293.556 153.927C297.051 154.081 300.449 155.156 303.464 156.903C306.498 158.65 309.128 161.089 311.087 164.007C312.181 165.639 313.046 167.405 313.66 169.267C313.794 169.69 314.447 169.498 314.313 169.095C313.199 165.658 311.221 162.548 308.648 160.013C306.075 157.479 302.945 155.521 299.528 154.369C297.607 153.716 295.591 153.332 293.556 153.236C293.114 153.217 293.114 153.908 293.556 153.927Z" fill="#822227"/>
<path d="M202.021 173.933C202.847 169.844 204.057 165.831 205.593 161.934C206.034 160.82 206.514 159.726 207.014 158.631C207.206 158.228 206.61 157.882 206.418 158.286C204.652 162.125 203.212 166.119 202.156 170.208C201.848 171.379 201.58 172.551 201.349 173.741C201.253 174.163 201.925 174.355 202.002 173.914L202.021 173.933Z" fill="#822227"/>
<path d="M149.831 226.174C150.522 225.655 151.194 225.137 151.886 224.619C152.039 224.503 152.155 224.388 152.193 224.215C152.231 224.043 152.212 223.831 152.116 223.678C152.02 223.524 151.886 223.409 151.713 223.371C151.54 223.332 151.329 223.332 151.175 223.447C150.484 223.966 149.812 224.484 149.121 225.003C148.967 225.118 148.852 225.233 148.813 225.406C148.775 225.579 148.794 225.79 148.89 225.924C148.986 226.078 149.121 226.193 149.294 226.231C149.466 226.27 149.678 226.27 149.812 226.154L149.831 226.174Z" fill="#354077"/>
<path d="M151.849 232.778C152.194 232.605 152.54 232.432 152.886 232.26C153.039 232.183 153.155 232.01 153.193 231.856C153.212 231.76 153.231 231.684 153.193 231.588C153.193 231.492 153.155 231.415 153.116 231.338C153.02 231.185 152.886 231.069 152.713 231.031C152.655 231.031 152.598 231.031 152.54 231.012C152.425 231.012 152.31 231.05 152.194 231.108C151.849 231.28 151.503 231.453 151.158 231.626C151.004 231.703 150.889 231.876 150.85 232.029C150.831 232.125 150.812 232.202 150.85 232.298C150.85 232.394 150.889 232.471 150.927 232.548C151.023 232.701 151.158 232.816 151.33 232.855C151.388 232.855 151.446 232.855 151.503 232.874C151.618 232.874 151.734 232.836 151.849 232.778Z" fill="#354077"/>
<path d="M125.983 238.173C127.02 237.962 127.961 237.271 128.479 236.368C128.652 236.061 128.556 235.6 128.23 235.427C127.903 235.255 127.481 235.351 127.289 235.677C127.212 235.792 127.135 235.907 127.058 236.023L127.174 235.888C127.001 236.099 126.828 236.291 126.617 236.445C126.655 236.407 126.713 236.368 126.751 236.33C126.54 236.483 126.309 236.618 126.06 236.733C126.117 236.714 126.175 236.695 126.233 236.656C126.041 236.733 125.829 236.81 125.618 236.848C125.465 236.887 125.292 237.021 125.215 237.155C125.138 237.309 125.1 237.52 125.138 237.674C125.253 238.058 125.599 238.23 125.983 238.154V238.173Z" fill="#354077"/>
<path d="M272.415 65.9678C275.756 59.1138 274.834 50.3782 270.13 44.3689C267.941 41.5658 265.003 39.3195 263.275 36.2093C261.547 33.0991 261.585 28.5105 264.619 26.629C266.942 25.189 270.13 26.0146 272.184 27.8001C274.239 29.5856 275.449 32.1583 276.582 34.635C275.91 29.9696 281.094 25.5346 285.606 26.917C289.255 28.0497 291.425 32.0623 291.463 35.9021C291.501 39.7227 289.831 43.3513 287.949 46.6728C285.76 50.551 283.206 54.218 280.326 57.6163L272.415 65.9678Z" fill="#B03537"/>
<path d="M130.859 122.394C130.975 120.032 131.647 117.383 133.74 116.288C135.333 115.463 137.407 115.904 138.732 117.114C140.057 118.324 140.671 120.186 140.614 121.991C141.228 120.167 141.881 118.285 143.244 116.941C144.589 115.578 146.874 114.925 148.467 115.981C150.349 117.229 150.349 120.013 149.619 122.144C148.506 125.312 146.278 127.962 144.877 130.995C143.321 134.374 142.86 138.214 143.533 141.862C143.533 141.862 130.475 130.285 130.879 122.375L130.859 122.394Z" fill="#B03537"/>
</svg>
