<svg width="711" height="720" viewBox="0 0 711 720" fill="none" xmlns="http://www.w3.org/2000/svg">
<g opacity="0.15">
<path fill-rule="evenodd" clip-rule="evenodd" d="M521.93 151.838C522.005 152.854 521.245 153.734 520.23 153.808C506.711 154.79 493.875 155.724 481.668 156.613C347.14 166.402 288.893 170.641 232.153 172.778C231.137 172.816 230.276 172.028 230.223 171.013C230.17 169.997 230.946 169.135 231.961 169.081C287.321 166.122 342.152 162.27 398.085 158.341C437.953 155.54 478.38 152.7 519.958 150.116C520.974 150.053 521.855 150.822 521.93 151.838ZM514.071 145.767C514.141 146.781 513.381 147.657 512.368 147.729C458.794 151.57 401.987 155.208 343.643 158.945C308.015 161.227 271.813 163.545 235.425 165.969C234.423 166.036 233.545 165.291 233.448 164.291C233.35 163.291 234.068 162.4 235.065 162.285C253.436 160.156 271.571 158.428 291.595 156.857C273.266 157.737 255.911 158.464 238.598 159.166C238.597 159.166 238.596 159.166 238.595 159.166C237.574 159.207 236.708 158.414 236.659 157.393C236.611 156.373 237.398 155.511 238.419 155.468C327.74 151.709 415.07 145.714 504.195 137.964C505.212 137.876 506.113 138.627 506.21 139.644C506.306 140.661 505.561 141.558 504.545 141.65C468.518 144.902 437.14 147.491 409.119 149.594C420.26 148.99 432.066 148.356 444.631 147.682C464.993 146.59 487.35 145.39 512.111 144.036C513.126 143.981 514 144.753 514.071 145.767ZM498.353 133.6C498.432 134.61 497.685 135.491 496.676 135.577C460.473 138.664 426.184 140.724 393.11 142.532C384.771 142.988 376.509 143.429 368.313 143.865C366.961 143.937 365.61 144.009 364.261 144.081C322.307 146.317 282.052 148.515 241.915 152.353L241.727 150.511L241.64 148.663C281.842 147.036 322.321 144.045 368.861 140.605C376.667 140.028 384.644 139.439 392.819 138.841C425.9 137.032 460.164 134.974 496.339 131.89L496.507 133.734L496.629 135.581C458.297 137.855 424.282 140.253 393.11 142.532M392.819 138.841C423.965 136.563 457.984 134.165 496.386 131.887C497.397 131.827 498.273 132.59 498.353 133.6M490.491 127.502C490.582 128.518 489.833 129.411 488.817 129.499C434.365 134.171 369.866 138.045 301.299 142.164C281.614 143.346 261.594 144.549 241.38 145.796C240.363 145.859 239.481 145.087 239.408 144.07C239.335 143.053 240.098 142.174 241.114 142.104C266.503 140.344 291.27 138.9 317.719 137.357C364.926 134.605 417.487 131.54 488.487 125.811C489.503 125.729 490.4 126.485 490.491 127.502ZM482.637 121.504C482.686 122.519 481.906 123.38 480.891 123.43C441.629 125.367 402.554 128.272 363.487 131.176L362.677 131.236C323.348 134.16 284.026 137.077 244.574 138.992C243.564 139.041 242.697 138.27 242.626 137.261C242.555 136.252 243.308 135.379 244.315 135.299C257.845 134.233 271.09 133.146 284.318 132.06C342.48 127.285 400.325 122.536 480.712 119.732C481.728 119.697 482.587 120.488 482.637 121.504ZM474.778 115.399C474.843 116.416 474.074 117.288 473.058 117.352C394.116 122.292 316.947 127.395 247.831 132.184C246.818 132.254 245.932 131.495 245.847 130.483C245.761 129.471 246.506 128.583 247.518 128.495C318.748 122.249 391.846 117.873 472.823 113.657C473.839 113.604 474.713 114.383 474.778 115.399ZM466.912 109.247C467.015 110.241 466.31 111.133 465.32 111.261C420.74 117.033 374.656 119.079 329.774 121.071C306.926 122.085 284.391 123.085 262.523 124.556C258.674 124.828 254.865 125.101 251.055 125.378C250.038 125.452 249.147 124.688 249.064 123.67C248.982 122.652 249.739 121.765 250.757 121.687C254.616 121.393 258.494 121.116 262.391 120.854C287.319 119.094 313.929 117.378 352.782 114.874C381.844 113 417.755 110.685 464.937 107.58C465.934 107.514 466.808 108.252 466.912 109.247ZM459.059 103.252C459.12 104.265 458.356 105.133 457.344 105.199C429.484 107.023 403.259 108.816 378.03 110.541C333.603 113.578 292.269 116.404 250.553 118.816C249.539 118.874 248.663 118.105 248.588 117.092C248.513 116.079 249.269 115.201 250.281 115.123C326.27 109.299 394.111 104.254 457.119 101.504C458.132 101.46 458.997 102.239 459.059 103.252ZM451.2 97.1596C451.27 98.1632 450.526 99.0337 449.524 99.1199C430.508 100.755 404.891 102.228 375.713 103.905C371.848 104.127 367.92 104.353 363.938 104.583C329.869 106.552 291.715 108.848 253.818 112.007C252.818 112.09 251.928 111.36 251.813 110.362C251.699 109.364 252.401 108.461 253.396 108.329C306.707 101.205 359.966 99.0464 446.214 95.5512L449.267 95.4275C450.272 95.3867 451.131 96.1559 451.2 97.1596ZM581.11 200.693C581.183 201.711 580.419 202.59 579.402 202.66C556.548 204.229 534.27 205.785 512.497 207.314C497.715 208.415 482.445 209.582 466.773 210.779C388.948 216.723 301.185 223.426 213.793 226.735C212.776 226.773 211.914 225.984 211.862 224.968C211.811 223.952 212.589 223.09 213.605 223.038C297.157 218.769 383.399 212.694 479.106 205.952C489.97 205.187 500.955 204.413 512.073 203.632M573.251 194.627C573.316 195.631 572.567 196.498 571.565 196.579C406.812 209.958 327.34 214.103 263.009 217.458C247.117 218.287 232.148 219.068 217.046 219.927C216.028 219.985 215.15 219.209 215.082 218.191C215.015 217.173 215.784 216.298 216.801 216.233C264.29 213.237 310.978 209.748 356.38 206.355C432.396 200.674 504.806 195.262 571.326 192.886C572.331 192.85 573.186 193.623 573.251 194.627ZM549.674 176.393C549.742 177.407 548.981 178.281 547.968 178.352C497.328 181.893 443.504 185.341 388.468 188.866C333.874 192.363 278.086 195.937 223.028 199.753C222.01 199.824 221.122 199.057 221.043 198.039C220.964 197.021 221.724 196.137 222.741 196.062C340.8 187.403 453.587 179.651 547.717 174.659C548.731 174.605 549.605 175.379 549.674 176.393ZM541.813 170.308C541.889 171.325 541.127 172.206 540.11 172.279C450.618 178.647 389.468 182.06 343.062 184.65C316.211 186.148 294.296 187.371 274.683 188.732C258.23 189.986 242.414 191.348 226.301 192.943C225.288 193.043 224.379 192.306 224.267 191.293C224.155 190.281 224.882 189.373 225.894 189.262C241.414 187.564 256.932 186.255 274.237 185.053C307.851 182.489 344.113 180.376 390.935 177.647C431.122 175.305 479.088 172.509 539.836 168.586C540.854 168.521 541.738 169.29 541.813 170.308ZM533.956 164.234C534.03 165.244 533.278 166.12 532.269 166.201C459.688 172.012 392.317 176.099 326.065 180.118C294.304 182.045 262.799 183.956 231.101 186.035C230.553 186.071 230.006 186.107 229.458 186.142C228.439 186.209 227.553 185.437 227.479 184.417C227.406 183.397 228.173 182.517 229.192 182.45C229.192 182.45 229.193 182.45 229.193 182.45C229.737 182.414 230.282 182.378 230.826 182.342C257.598 180.581 284.974 178.61 313.874 176.529C376.36 172.029 445.971 167.015 532.001 162.509C533.012 162.456 533.883 163.224 533.956 164.234ZM526.095 158.144C526.175 159.161 525.418 160.046 524.401 160.123C449.111 165.827 382.255 169.974 317.058 174.018C288.803 175.771 260.859 177.504 232.676 179.337C231.658 179.403 230.773 178.633 230.698 177.616C230.622 176.598 231.384 175.716 232.402 175.645C261.758 173.571 290.252 171.764 325.764 169.512C373.146 166.508 433.022 162.712 524.111 156.432C525.128 156.362 526.015 157.127 526.095 158.144ZM439.65 91.3826C439.691 92.401 438.9 93.2552 437.882 93.2934C420.341 93.9513 394.511 95.8581 364.378 98.0825C363.173 98.1714 361.961 98.2609 360.742 98.3508C337.53 100.064 311.933 101.937 285.748 103.557C275.892 104.316 266.438 104.901 256.942 105.206C255.928 105.239 255.071 104.449 255.022 103.435C254.973 102.421 255.749 101.562 256.763 101.509C266.352 101.008 275.952 100.453 285.474 99.8642C294.61 99.1603 304.106 98.3057 314.337 97.3851C319.252 96.9429 324.336 96.4854 329.63 96.0221C357.778 93.5589 391.786 90.9396 437.735 89.5947C438.753 89.5649 439.61 90.3642 439.65 91.3826ZM593.135 213.08C593.212 214.096 592.453 214.978 591.438 215.053C468.543 224.138 390.161 228.722 330.23 232.227C318.334 232.923 307.165 233.576 296.52 234.213C267.052 236.194 239.023 238.121 211.108 240.099C210.093 240.171 209.205 239.41 209.12 238.395C209.036 237.381 209.786 236.494 210.8 236.409C238.134 234.137 264.878 232.401 296.13 230.529C358.857 226.313 428.089 221.858 516.593 216.163C540.019 214.655 564.795 213.061 591.159 211.361C592.175 211.296 593.058 212.064 593.135 213.08ZM585.278 207.039C585.334 208.054 584.561 208.919 583.546 208.976C483.985 214.646 412.838 219.536 356.003 223.604C344.68 224.414 333.924 225.192 323.624 225.936C282.229 228.929 248.194 231.39 214.299 233.295C213.284 233.352 212.408 232.579 212.337 231.565C212.266 230.55 213.027 229.674 214.041 229.602C243.393 227.527 272.528 225.428 301.078 223.372C410.85 215.464 511.959 208.181 583.342 205.28C584.358 205.239 585.222 206.024 585.278 207.039ZM561.702 188.787C561.772 189.799 561.014 190.673 560.004 190.748C475.32 197.008 381.334 202.942 286.631 208.92C264.516 210.316 242.361 211.715 220.277 213.121C219.262 213.186 218.38 212.419 218.302 211.405C218.224 210.39 218.979 209.508 219.993 209.429C346.967 199.596 469.925 191.617 559.75 187.055C560.762 187.003 561.633 187.776 561.702 188.787ZM553.84 182.723C553.903 183.729 553.15 184.594 552.147 184.672C549.545 184.871 546.941 185.072 544.334 185.272C439.397 193.335 330.536 201.7 223.458 206.317C222.438 206.361 221.57 205.572 221.518 204.553C221.465 203.533 222.247 202.669 223.266 202.62C288.734 199.503 353.82 194.696 411.078 190.366C415.227 190.053 419.336 189.741 423.4 189.433C475.404 185.493 520.247 182.096 551.916 180.977C552.922 180.942 553.778 181.718 553.84 182.723ZM428.098 85.5144C428.156 86.5209 427.398 87.3838 426.392 87.4552C391.824 89.9091 363.837 91.5066 339.637 92.8879C338.435 92.9565 337.242 93.0246 336.059 93.0922C333.441 93.3261 330.875 93.5588 328.355 93.7887C326.266 93.9795 324.208 94.1685 322.179 94.3548C299.086 96.4753 279.757 98.2503 260.115 98.4015C259.125 98.4091 258.3 97.6365 258.241 96.6481C258.183 95.6597 258.913 94.8055 259.898 94.7095C283.109 92.4476 306.77 91.0581 335.771 89.4003C360.084 87.2288 388.912 84.9503 426.179 83.76C427.186 83.7278 428.039 84.5078 428.098 85.5144ZM605.161 225.472C605.238 226.485 604.485 227.366 603.472 227.446C498.046 235.758 361.862 244.201 222.663 252.623C216.658 252.99 210.654 253.353 204.65 253.712C203.631 253.773 202.749 252.996 202.681 251.976C202.614 250.956 203.385 250.079 204.405 250.018C204.405 250.018 204.406 250.018 204.406 250.018C204.416 250.017 204.425 250.016 204.434 250.016C210.429 249.654 216.421 249.292 222.407 248.93C292.142 244.669 361.706 239.905 428.684 235.318C489.598 231.146 548.373 227.121 603.19 223.755C604.204 223.692 605.083 224.459 605.161 225.472ZM597.3 219.377C597.39 220.395 596.638 221.288 595.621 221.372C506.116 228.803 429.448 233.229 358.233 237.34C306.172 240.346 257.024 243.183 207.906 246.903M597.3 219.377C597.21 218.359 596.312 217.601 595.294 217.684L597.3 219.377ZM595.294 217.684C515.469 224.158 446.52 228.323 383.538 231.978L595.294 217.684ZM383.538 231.978C376.673 232.377 369.878 232.769 363.148 233.158L383.538 231.978ZM363.148 233.158C308.141 236.334 257.435 239.263 207.589 243.214L363.148 233.158ZM207.905 246.904C207.903 246.904 207.9 246.904 207.898 246.904C206.881 246.981 205.987 246.22 205.902 245.202C205.817 244.184 206.571 243.295 207.589 243.214M617.184 237.87C617.262 238.886 616.503 239.769 615.486 239.844L615.471 239.845L606.308 240.52C542.001 245.261 488.395 249.214 441.744 252.55C462.483 251.397 482.561 250.327 501.815 249.301C545.98 246.947 585.813 244.823 619.366 242.47C620.385 242.398 621.275 243.167 621.353 244.186C621.431 245.205 620.668 246.09 619.649 246.161C619.649 246.162 619.649 246.162 619.649 246.162C619.634 246.163 619.619 246.164 619.604 246.165C433.051 259.304 337.27 265.247 262.812 269.868C238.765 271.36 216.942 272.714 195.004 274.128C193.996 274.193 193.117 273.438 193.029 272.43C192.941 271.423 193.677 270.537 194.683 270.44C220.701 267.919 246.635 265.672 272.262 263.647C247.225 265.045 223.014 266.249 198.183 267.325C197.172 267.368 196.308 266.592 196.244 265.582C196.18 264.572 196.939 263.702 197.948 263.63C260.95 259.139 323.194 255.11 424.007 248.584C475.788 245.232 537.745 241.222 615.206 236.152C616.223 236.085 617.107 236.853 617.184 237.87ZM609.329 231.816C609.394 232.834 608.623 233.707 607.606 233.769C581.447 235.36 550.199 237.326 515.219 239.575C489.687 241.332 463.013 243.246 435.546 245.216C429.711 245.635 423.841 246.056 417.938 246.479C348.397 251.459 274.375 256.662 201.419 260.518C200.404 260.572 199.531 259.797 199.463 258.783C199.395 257.768 200.158 256.894 201.171 256.824C314.974 249.013 426.805 241.549 514.949 235.882C547.906 233.614 578.967 231.606 607.37 230.074C608.388 230.019 609.264 230.798 609.329 231.816ZM416.544 79.671C416.609 80.6881 415.839 81.5613 414.822 81.6242C403.419 82.3306 392.805 83.0243 382.867 83.6972C370.004 84.6692 358.071 85.7184 346.683 86.7196C342.817 87.0596 339.014 87.394 335.258 87.7179C311.832 89.7389 290.267 91.354 267.013 91.3543C266.005 91.3543 265.178 90.5482 265.151 89.5409C265.125 88.5336 265.909 87.6953 266.916 87.655C287.43 86.8351 308.972 85.2694 336.268 83.2855C350.048 82.2839 365.295 81.1757 382.616 80.0031C392.647 79.2455 403.245 78.5345 414.586 77.9297C415.603 77.8754 416.478 78.6538 416.544 79.671ZM408.686 73.5902C408.753 74.6027 407.993 75.4753 406.981 75.5468C391.638 76.6297 378.4 77.5814 366.679 78.4241C327.353 81.2514 305.097 82.8515 277.698 84.0614C276.682 84.1063 275.815 83.3224 275.757 82.3064C275.699 81.2904 276.472 80.4234 277.487 80.3655C296.784 79.2644 316.952 77.8145 336.988 76.3741C361.005 74.6475 384.832 72.9346 406.736 71.8529C407.749 71.8028 408.619 72.5777 408.686 73.5902ZM397.13 67.6954C397.23 68.7015 396.504 69.5964 395.5 69.7056C378.284 71.5785 360.267 72.527 341.732 73.4455C340.585 73.5023 339.437 73.559 338.287 73.6158C328.487 74.0996 318.545 74.5904 308.489 75.2184C300.361 75.7454 292.513 76.3166 284.688 77.0065C283.671 77.0962 282.769 76.3448 282.671 75.3277C282.574 74.3105 283.319 73.4122 284.336 73.3204C292.573 72.5771 300.749 71.9884 308.841 71.4871C316.871 70.9697 325.193 70.4914 334.031 69.9836C351.74 68.9661 371.515 67.8298 395.135 66.0211C396.142 65.944 397.03 66.6893 397.13 67.6954ZM625.52 250.512C625.595 251.531 624.83 252.413 623.81 252.482C585.591 255.071 550.503 257.46 517.904 259.679C379.373 269.108 285.816 275.477 188.083 281.179C187.067 281.238 186.188 280.465 186.117 279.449C186.046 278.433 186.809 277.555 187.824 277.485C229.211 274.629 270.05 271.981 327.571 268.252C394.544 263.91 484.133 258.101 623.534 248.79M625.52 250.512C625.445 249.493 624.558 248.722 623.538 248.79L625.52 250.512ZM623.538 248.79C623.538 248.79 623.537 248.79 623.537 248.79L623.538 248.79ZM385.588 62.0802C385.572 63.0469 384.813 63.8329 383.848 63.8841C373.466 64.4352 364.131 64.8717 355.598 65.2708C352.381 65.4213 349.277 65.5664 346.275 65.7103C345.118 65.8435 343.952 65.9793 342.779 66.1167C342.066 66.2001 341.35 66.2841 340.633 66.3683C325.849 68.1033 310.055 69.957 295.1 69.7223C294.133 69.7072 293.336 68.951 293.27 67.9864C293.205 67.0219 293.892 66.1739 294.849 66.0397C310.016 63.9126 325.785 62.9869 345.958 62.0187C359.99 60.4037 373.222 59.1191 383.912 60.1953C384.875 60.2923 385.605 61.1136 385.588 62.0802ZM625.992 257.075C626.066 258.094 625.301 258.975 624.282 259.044C376.306 275.727 280.941 282.109 184.87 287.984C183.857 288.046 182.977 287.28 182.9 286.267C182.822 285.254 183.575 284.373 184.587 284.292C309.84 274.338 434.811 266.841 529.565 261.157C566.117 258.965 598.173 257.042 624.013 255.351C625.033 255.285 625.918 256.056 625.992 257.075ZM630.159 263.405C630.228 264.416 629.47 265.29 628.459 265.364C550.999 271.036 482.847 275.873 419.835 280.126C478.435 276.533 547.274 272.62 632.369 267.988C633.382 267.933 634.257 268.705 634.327 269.718C634.398 270.731 633.64 271.607 632.627 271.681C506.934 280.826 418.626 286.439 348.658 290.728C334.737 291.582 321.543 292.383 308.926 293.149C258.123 296.233 216.67 298.75 174.762 301.835C173.749 301.91 172.86 301.153 172.771 300.14C172.682 299.128 173.426 298.238 174.438 298.147C219.421 294.116 264.086 290.533 316.273 286.879C269.096 289.838 223.715 292.512 177.947 295.032C176.939 295.087 176.067 294.325 175.988 293.318C175.908 292.311 176.65 291.432 177.655 291.341C305.028 279.867 431.941 271.328 628.21 261.67C629.222 261.62 630.091 262.394 630.159 263.405ZM366.644 56.5503C366.727 57.5534 365.993 58.4333 364.992 58.5314C361.529 58.8704 358.224 59.2033 355.055 59.5225C336.501 61.3911 322.628 62.7885 309.339 62.1857C308.35 62.1409 307.567 61.3269 307.56 60.3379C307.554 59.3488 308.326 58.5344 309.314 58.4888C317.05 58.1324 325.007 57.5423 333.839 56.8872L334.302 56.8529C343.314 56.1846 353.228 55.4535 364.689 54.842C365.694 54.7885 366.562 55.5472 366.644 56.5503ZM638.493 276.025C638.571 277.036 637.822 277.916 636.812 278C575.119 283.13 482.618 288.904 378.072 295.43C311.281 299.599 239.573 304.075 167.841 308.886C166.825 308.954 165.94 308.189 165.86 307.173C165.78 306.158 166.535 305.274 167.55 305.195C333.441 292.302 498.009 282.385 636.528 274.309C637.539 274.25 638.415 275.015 638.493 276.025ZM642.66 282.361C642.73 283.379 641.962 284.257 640.944 284.323C615.404 285.964 590.248 287.569 565.424 289.151C513.356 292.635 464.516 296.196 417.925 299.593C326 306.296 242.829 312.36 160.886 315.935C159.875 315.979 159.011 315.204 158.946 314.194C158.881 313.184 159.639 312.314 160.648 312.241C280.261 303.588 400.734 295.922 529.654 287.718C541.39 286.971 553.195 286.22 565.076 285.463C589.528 283.827 614.698 282.207 640.69 280.629C641.708 280.567 642.59 281.342 642.66 282.361ZM646.827 288.683C646.896 289.702 646.126 290.58 645.107 290.643C516.741 298.645 404.919 305.632 297.112 312.931C247.763 316.314 202.69 319.511 157.719 322.738C156.7 322.811 155.81 322.045 155.729 321.026C155.649 320.008 156.409 319.122 157.428 319.047C203.829 315.645 249.959 312.412 296.848 309.238C388.927 302.925 495.892 295.965 644.847 286.95M646.827 288.683C646.757 287.664 645.876 286.888 644.856 286.949L646.827 288.683ZM644.856 286.949C644.855 286.949 644.854 286.95 644.853 286.95L644.856 286.949ZM647.3 295.226C647.378 296.243 646.618 297.127 645.601 297.201C603.613 300.266 565.44 302.971 530.5 305.383C521.516 306.043 512.473 306.71 503.375 307.38C391.277 315.643 270.788 324.525 150.758 329.791C149.747 329.835 148.883 329.059 148.818 328.049C148.753 327.039 149.511 326.169 150.52 326.096C192.563 323.062 234.809 320.498 286.044 317.389C302.091 316.416 319.02 315.388 337.101 314.276C389.553 311.05 451.71 307.111 530.173 301.694C569.85 298.778 608.367 295.985 645.319 293.509C646.337 293.441 647.223 294.209 647.3 295.226ZM651.467 301.552C651.541 302.564 650.787 303.441 649.777 303.52C608.172 306.77 570.255 309.629 535.467 312.165C576.668 309.676 615.107 307.679 650.013 306.388C651.025 306.351 651.885 307.134 651.942 308.146C651.998 309.157 651.231 310.021 650.22 310.084C617.765 312.108 586.704 314.032 556.807 315.884C457.977 322.007 371.868 327.341 290.176 332.865C289.831 332.89 289.485 332.915 289.14 332.941C240.761 336.478 191.023 340.116 140.676 343.641C139.659 343.712 138.771 342.947 138.69 341.931C138.608 340.914 139.364 340.029 140.38 339.95C189.833 336.128 238.995 332.615 289.868 329.175C313.758 327.428 337.317 325.705 360.454 324.033C314.691 326.882 275.951 329.089 240.618 331.102C234.987 331.423 229.443 331.739 223.971 332.052C197.418 333.708 170.644 335.315 143.87 336.837C142.852 336.894 141.974 336.118 141.906 335.101C141.838 334.083 142.606 333.208 143.623 333.143C169.765 331.467 195.824 329.952 223.746 328.356C295.628 323.871 365.9 319.022 430.196 314.522C441.356 313.741 452.336 312.97 463.113 312.214C537.36 307.003 601.988 302.467 649.506 299.828C650.519 299.772 651.393 300.541 651.467 301.552ZM652.415 314.677C652.49 315.69 651.735 316.569 650.722 316.647C542.416 324.977 441.43 332.389 343.47 338.715C358 337.866 372.81 337.012 387.946 336.139C465.011 331.695 550.55 326.761 650.896 319.518C651.914 319.444 652.804 320.209 652.886 321.226C652.968 322.244 652.211 323.131 651.194 323.208C543.021 331.464 450.321 337.222 365.473 342.354C356.275 342.91 347.169 343.459 338.146 344.003C263.932 348.476 195.311 352.613 126.861 357.74C125.848 357.816 124.958 357.061 124.867 356.049C124.776 355.036 125.518 354.145 126.529 354.052C167.107 350.311 207.899 347.249 250.393 344.44C211.328 346.715 172.534 348.802 133.727 350.693C132.715 350.742 131.846 349.968 131.778 348.956C131.711 347.944 132.47 347.071 133.481 346.999C148.083 345.951 162.582 344.904 177.215 343.848C290.211 335.688 411.267 326.946 650.449 312.954C651.462 312.895 652.34 313.664 652.415 314.677ZM653.363 327.81C653.434 328.827 652.67 329.705 651.654 329.774C581.868 334.522 510.506 339.046 438.372 343.619C408.08 345.539 377.652 347.468 347.147 349.426C340.627 349.881 334.236 350.33 327.963 350.771C314.066 351.748 300.752 352.691 287.917 353.599C225.798 357.995 174.917 361.595 123.61 364.548C122.596 364.606 121.719 363.835 121.646 362.821C121.574 361.806 122.333 360.929 123.346 360.855C197.722 355.449 272.522 350.506 346.864 345.734C424.712 340.293 520.85 333.81 651.395 326.081C652.412 326.02 653.292 326.793 653.363 327.81ZM653.839 334.379C653.904 335.396 653.135 336.27 652.119 336.333C381.341 353.25 261.128 361.591 154.751 368.972C143.2 369.773 131.813 370.563 120.413 371.352C119.398 371.422 118.511 370.659 118.429 369.644C118.347 368.628 119.1 367.743 120.115 367.662C283.691 354.578 450.214 343.448 651.881 332.639C652.898 332.584 653.773 333.362 653.839 334.379ZM654.314 340.94C654.381 341.957 653.615 342.831 652.599 342.897C586.451 347.201 520.757 351.739 455.515 356.246C340.089 364.219 226.079 372.094 113.48 378.403C112.465 378.46 111.589 377.688 111.518 376.673C111.447 375.659 112.207 374.782 113.221 374.71C130.4 373.48 147.627 372.241 164.953 370.995C310.407 360.533 462.809 349.572 652.354 339.203C653.371 339.147 654.246 339.924 654.314 340.94ZM651.093 347.714C651.178 348.727 650.43 349.614 649.417 349.7C610.079 353.051 569.897 356.011 528.987 358.761C566.809 356.613 606.876 354.534 649.624 352.57C650.637 352.523 651.503 353.3 651.568 354.312C651.633 355.324 650.872 356.194 649.86 356.264L637.608 357.113C355.817 376.628 232.189 385.19 107.04 392.015C106.025 392.07 105.15 391.295 105.081 390.28C105.012 389.265 105.775 388.39 106.79 388.321C148.557 385.463 190.921 382.246 235.609 378.853C287.25 374.931 341.996 370.773 402.514 366.663C397.845 366.94 393.168 367.217 388.484 367.494C300.682 373.323 205.816 379.429 110.27 385.208C109.255 385.27 108.375 384.5 108.3 383.486C108.225 382.471 108.983 381.591 109.997 381.516C195.104 375.182 278.797 370.251 360.367 365.444C369.683 364.896 378.97 364.348 388.229 363.801C487.212 357.23 577.219 351.012 649.108 346.011C650.122 345.94 651.008 346.7 651.093 347.714ZM648.349 361.109C648.419 362.125 647.655 363.001 646.64 363.07C640.444 363.492 634.114 363.924 627.654 364.364C490.366 373.721 294.786 387.05 100.141 399.061C99.1263 399.124 98.2457 398.355 98.1697 397.341C98.0937 396.326 98.8509 395.445 99.865 395.369C315.564 379.137 533.502 365.742 646.386 359.377C647.403 359.319 648.279 360.093 648.349 361.109ZM648.822 367.677C648.889 368.694 648.12 369.569 647.102 369.633C505.012 378.518 400.906 385.807 316.723 391.701C228.501 397.878 162.158 402.523 96.9037 405.868C95.8889 405.92 95.0167 405.144 94.9501 404.129C94.8835 403.115 95.6473 402.242 96.6611 402.174C134.205 399.646 171.642 396.933 212.086 394.003C317.872 386.338 444.227 377.183 646.861 365.938C647.878 365.882 648.755 366.659 648.822 367.677ZM645.604 374.481C645.671 375.5 644.901 376.375 643.883 376.438C583.595 380.178 518.377 384.605 450.224 389.277C426.832 390.986 403.926 392.693 381.407 394.371C280.629 401.883 187.621 408.815 93.6665 412.674C92.6517 412.716 91.7878 411.932 91.7306 410.918C91.6735 409.904 92.4445 409.038 93.4582 408.978C203.834 402.482 315.041 394.846 420.127 387.631C430.064 386.949 439.946 386.271 449.768 385.597C510.506 381.161 574.549 376.715 643.639 372.744C644.657 372.686 645.536 373.463 645.604 374.481ZM642.384 381.267C642.462 382.28 641.708 383.162 640.695 383.242C530.592 391.93 417.474 399.092 305.118 406.031C236.771 410.597 165.433 415.157 94.174 419.234C93.1566 419.292 92.2784 418.517 92.2096 417.5C92.1408 416.483 92.9073 415.607 93.9241 415.54C150.725 411.831 208.351 408.282 266.288 404.715C279.14 403.923 292.008 403.131 304.885 402.336C360.097 398.647 413.354 394.954 463.046 391.509C529.934 386.871 590.364 382.681 640.411 379.55C641.425 379.487 642.306 380.253 642.384 381.267ZM635.476 388.339C635.542 389.354 634.777 390.226 633.763 390.293C538.585 396.593 461.03 402.27 395.269 407.165C465.107 402.323 543.147 397.473 634.002 393.16C635.019 393.112 635.889 393.894 635.949 394.911C636.009 395.928 635.236 396.797 634.22 396.856C504.224 404.387 390.65 411.681 283.057 419.046C276.085 419.569 269.184 420.089 262.346 420.604C201.948 425.154 146.505 429.33 91.432 432.601C90.4167 432.662 89.5378 431.891 89.4643 430.876C89.3909 429.861 90.1503 428.983 91.1647 428.909C127.323 426.284 163.439 423.689 199.949 421.113C161.341 423.473 126.148 425.147 90.8968 426.042C89.8939 426.068 89.0482 425.29 88.9901 424.288C88.932 423.286 89.6827 422.426 90.6826 422.348C288.135 406.973 484.408 394.096 633.524 386.599C634.539 386.548 635.41 387.325 635.476 388.339ZM629.039 401.946C629.107 402.958 628.348 403.831 627.337 403.904C528.777 411.011 437.162 416.707 348.858 422.198L347.83 422.262C259.206 427.773 173.908 433.081 88.2401 439.405C87.223 439.481 86.3317 438.718 86.2474 437.701C86.1631 436.684 86.9176 435.796 87.9343 435.715C93.0649 435.309 98.1926 434.903 103.322 434.497C245.345 423.243 388.51 411.898 627.09 400.21C628.102 400.16 628.971 400.935 629.039 401.946ZM622.127 408.994C622.195 410.011 621.427 410.887 620.409 410.952C486.908 419.476 388.475 426.249 308.602 431.744C219.954 437.843 154.169 442.369 88.6809 445.972C87.6715 446.027 86.7991 445.262 86.7219 444.254C86.6446 443.245 87.3909 442.367 88.398 442.281C254.381 428.081 425.429 418.344 591.821 408.872C601.284 408.334 610.732 407.796 620.163 407.258C621.18 407.2 622.059 407.976 622.127 408.994ZM615.216 416.028C615.293 417.043 614.535 417.924 613.52 418C466.635 428.985 362.424 435.057 277.602 440C236.005 442.423 199.071 444.575 164.054 446.902C137.64 448.798 111.614 450.739 85.5047 452.775C84.4884 452.854 83.5943 452.096 83.5051 451.08C83.4159 450.064 84.1653 449.172 85.1809 449.086C110.996 446.896 136.721 445.009 163.583 443.224C258.882 436.384 359.231 430.14 486.833 422.2C526.163 419.753 568.083 417.145 613.243 414.308C614.258 414.244 615.14 415.013 615.216 416.028ZM608.307 423.077C608.383 424.094 607.624 424.976 606.607 425.05C460.19 435.729 274.161 447.748 85.9471 459.339C84.9328 459.401 84.0527 458.634 83.9758 457.62C83.899 456.606 84.6541 455.725 85.6673 455.647C180.671 448.307 275.165 442.358 400.619 434.46C460.882 430.666 528.29 426.422 606.329 421.358C607.346 421.292 608.23 422.061 608.307 423.077ZM597.705 430.381C597.774 431.394 597.014 432.268 596.002 432.341C456.547 442.368 300.83 452.267 143.52 462.268C124.502 463.477 105.461 464.688 86.4234 465.9C85.4074 465.965 84.5248 465.197 84.4482 464.181C84.3716 463.165 85.1299 462.284 86.1451 462.208C267.373 448.741 450.444 436.23 595.75 428.648C596.763 428.595 597.635 429.368 597.705 430.381ZM583.405 437.918C583.475 438.936 582.707 439.812 581.689 439.878C438.896 449.047 341.477 455.686 267.116 460.753C192.605 465.831 141.244 469.332 90.5797 472.218C89.5664 472.276 88.6906 471.507 88.6165 470.494C88.5424 469.482 89.2978 468.603 90.3096 468.526C202.325 459.951 321.107 451.481 581.438 436.184C582.457 436.124 583.336 436.9 583.405 437.918ZM572.804 445.232C572.86 446.244 572.091 447.108 571.079 447.169C490.318 452.065 420.327 456.419 356.744 460.518C346.173 461.272 335.429 462.041 324.534 462.821C252.464 467.98 173.792 473.611 94.7558 478.538C93.74 478.601 92.8585 477.832 92.783 476.817C92.7074 475.801 93.4662 474.921 94.4812 474.846C177.222 468.752 259.373 463.086 356.46 456.827C443.678 450.605 519.203 445.392 570.875 443.473C571.888 443.436 572.748 444.22 572.804 445.232ZM562.202 452.505C562.269 453.512 561.517 454.382 560.51 454.46C438.979 463.904 335.467 470.213 237.691 476.172C190.566 479.045 144.772 481.836 98.9358 484.857M562.202 452.505C562.135 451.497 561.273 450.724 560.265 450.767L562.202 452.505ZM560.265 450.767C439.378 455.928 330.247 464.098 225.644 471.928L560.265 450.767ZM225.644 471.928C182.719 475.142 140.556 478.298 98.6571 481.166L225.644 471.928ZM98.9334 484.858C98.9318 484.858 98.9302 484.858 98.9287 484.858C97.9099 484.925 97.0241 484.154 96.9491 483.136C96.8742 482.117 97.6385 481.235 98.6571 481.166M547.904 460.017C547.982 461.03 547.23 461.911 546.219 461.993C464.397 468.582 398.337 473.811 342.665 477.943C404.562 473.65 465.972 469.529 527.954 466.08C528.973 466.023 529.85 466.803 529.916 467.822C529.981 468.841 529.208 469.714 528.189 469.775C466.698 473.418 386.256 478.82 297.988 484.768C234.379 489.214 169.972 493.714 103.56 497.738C102.542 497.8 101.66 497.025 101.59 496.007C101.519 494.989 102.286 494.111 103.304 494.044C144.88 491.332 186.465 488.56 227.086 485.832C179.326 488.695 139.269 490.437 99.3282 491.426C98.3173 491.451 97.4683 490.66 97.4215 489.65C97.3747 488.639 98.1474 487.784 99.1569 487.728C156.71 484.554 213.748 480.581 283.344 475.733C353.595 470.84 436.643 465.056 545.932 458.301C546.946 458.239 547.825 459.004 547.904 460.017ZM515.621 475.344C515.692 476.363 514.926 477.242 513.908 477.309C419.06 483.588 347.341 488.254 288.546 492.078C214.604 496.889 161.102 500.369 107.742 504.057C106.729 504.127 105.844 503.368 105.758 502.355C105.673 501.343 106.419 500.456 107.43 500.368C182.737 493.804 258.672 489.185 382.561 481.649C421.132 479.303 464.352 476.674 513.648 473.616C514.666 473.553 515.549 474.326 515.621 475.344ZM501.328 482.9C501.388 483.919 500.613 484.789 499.594 484.845C372.672 491.881 278.78 498.573 194.691 504.566C167.568 506.5 141.464 508.36 115.601 510.136C114.591 510.205 113.707 509.449 113.619 508.439C113.531 507.429 114.271 506.542 115.279 506.448C216.839 496.981 318.041 490.222 499.376 481.15C500.395 481.099 501.268 481.882 501.328 482.9ZM487.025 490.389C487.111 491.399 486.367 492.286 485.358 492.376C347.803 504.701 258.07 509.27 180.428 513.224C161.178 514.204 142.671 515.146 124.362 516.16C124.053 516.177 123.745 516.194 123.436 516.211C122.416 516.267 121.538 515.486 121.475 514.466C121.412 513.446 122.188 512.573 123.208 512.516C123.534 512.498 123.86 512.48 124.185 512.462C180.404 509.342 236.998 505.497 340.492 498.466C380.691 495.735 427.967 492.524 485.045 488.687C486.057 488.619 486.94 489.378 487.025 490.389ZM472.734 497.957C472.802 498.977 472.03 499.853 471.01 499.915C471.01 499.915 471.009 499.915 471.008 499.915M472.734 497.957C472.666 496.938 471.785 496.16 470.765 496.221L472.734 497.957ZM162.984 516.725C154.817 517.202 146.643 517.664 138.452 518.107C137.433 518.162 136.656 519.033 136.716 520.052C136.777 521.072 137.652 521.855 138.672 521.802C146.823 521.381 154.923 520.922 163.171 520.423C212.198 517.558 261.012 514.112 311.315 510.562C353.72 507.569 397.183 504.502 442.723 501.644C451.84 501.081 461.26 500.505 471.001 499.916M442.352 497.958C351.026 503.598 290.216 507.925 243.264 511.266C211.999 513.491 186.878 515.279 162.984 516.725M470.765 496.221C461.197 496.79 451.729 497.369 442.352 497.958L470.765 496.221ZM458.438 505.47C458.518 506.485 457.763 507.368 456.749 507.448C448.24 508.115 438.852 508.741 428.709 509.351C411.341 510.396 391.761 511.396 370.592 512.476C310.18 515.559 236.835 519.302 165.087 526.656L164.887 524.816L164.796 522.967C231.955 520.104 298.017 515.217 362.178 510.471C384.554 508.816 406.7 507.178 428.58 505.649C438.673 505.041 448.001 504.42 456.436 503.758L456.593 505.603L456.726 507.449M428.58 505.649C437.923 504.996 447.217 504.363 456.46 503.757C457.475 503.69 458.359 504.455 458.438 505.47M418.294 514.737C418.358 515.753 417.589 516.625 416.574 516.688C365.37 519.894 326.753 522.638 294.646 524.919C256.967 527.596 228.255 529.636 198.691 531.037C197.692 531.085 196.831 530.33 196.747 529.333C196.663 528.336 197.386 527.457 198.38 527.35C267.189 519.89 340.623 516.512 389.781 514.251C399.702 513.794 408.635 513.383 416.341 512.994C417.357 512.942 418.23 513.721 418.294 514.737Z" fill="#C3C8E1"/>
<path fill-rule="evenodd" clip-rule="evenodd" d="M305.496 60.204C269.953 72.8332 252.9 103.85 240.123 141.431C235.809 154.119 232.014 167.45 228.154 181.012C226.292 187.553 224.415 194.148 222.457 200.75C216.457 220.981 209.723 241.183 200.417 259.666L200.414 259.67C190.753 278.74 176.458 297.246 161.197 315.405C156.055 321.524 150.81 327.596 145.589 333.64C135.26 345.598 125.023 357.448 115.855 369.347C88.2196 405.21 71.2021 440.375 91.2193 477.635C91.2356 477.665 91.251 477.696 91.2655 477.727C108.602 514.766 146.666 525.601 191.971 526.869C214.574 527.502 238.783 525.746 262.813 523.78C265.452 523.564 268.089 523.345 270.722 523.127C292.02 521.362 313.019 519.621 332.32 519.469C391.573 518.974 441.735 510.691 488.197 485.076L488.203 485.072C498.652 479.366 509.381 473.852 520.098 468.344C545.425 455.328 570.685 442.346 592.021 426.936C622.286 405.076 644.195 378.628 646.718 340.851C646.719 340.825 646.722 340.799 646.724 340.773C646.727 340.753 646.729 340.733 646.732 340.713C652.318 301.602 636.317 267.455 610.904 236.789C586.283 207.081 553.017 180.863 522.462 156.783C521.447 155.982 520.434 155.184 519.424 154.388L519.395 154.365L519.395 154.365C515.175 150.898 510.903 147.356 506.58 143.772C479.169 121.046 449.724 96.6332 418.609 79.1825C382.639 59.0086 344.735 48.3164 305.496 60.204ZM521.721 151.5C517.53 148.058 513.278 144.532 508.968 140.958C481.58 118.248 451.842 93.589 420.405 75.9579C383.976 55.5272 344.969 44.356 304.359 56.6747C304.332 56.683 304.305 56.6919 304.278 56.7014C267.019 69.9207 249.469 102.418 236.617 140.221C232.273 152.996 228.434 166.481 224.559 180.096C222.703 186.615 220.839 193.163 218.907 199.677C212.923 219.854 206.263 239.801 197.109 257.983C187.649 276.654 173.587 294.891 158.356 313.015C153.285 319.048 148.078 325.077 142.874 331.102C132.502 343.11 122.145 355.101 112.916 367.077C85.2369 402.997 66.7935 439.915 87.9357 479.324C106.247 518.387 146.346 529.293 191.891 530.568C214.722 531.207 239.119 529.434 263.138 527.468C265.78 527.252 268.417 527.033 271.047 526.815C292.368 525.048 313.22 523.32 332.372 523.169L332.373 523.169C391.949 522.672 442.794 514.343 489.994 488.323C500.254 482.719 510.87 477.263 521.526 471.786C546.965 458.711 572.63 445.521 594.202 429.94C624.891 407.774 647.759 380.472 650.407 341.19C656.17 300.67 639.502 265.515 613.748 234.439C588.869 204.419 555.325 177.983 524.865 153.978C523.813 153.149 522.765 152.323 521.721 151.5Z" fill="#C3C8E1"/>
</g>
</svg>
