<svg width="694" height="738" viewBox="0 0 694 738" fill="none" xmlns="http://www.w3.org/2000/svg">
<g opacity="0.15">
<path fill-rule="evenodd" clip-rule="evenodd" d="M208.669 705.626C207.819 705.221 207.511 704.103 207.98 703.124C368.023 368.913 426.257 246.034 481.574 125.636M208.669 705.626C209.518 706.031 210.591 705.57 211.068 704.595L208.669 705.626ZM211.068 704.595C231.94 661.972 252.402 619.888 272.537 578.178L211.068 704.595ZM481.576 125.631C481.577 125.63 481.577 125.629 481.577 125.629C482.032 124.639 483.1 124.148 483.964 124.53C484.827 124.913 485.159 126.025 484.706 127.014C474.505 149.269 464.301 171.454 454.079 193.595C464.789 171.538 475.533 149.599 486.339 127.761C486.816 126.796 487.878 126.338 488.724 126.733C489.57 127.128 489.888 128.23 489.438 129.208C404.193 314.628 317.501 495.016 227.038 683.251L220.882 696.061L220.875 696.074C220.405 697.054 219.333 697.524 218.479 697.125C217.626 696.727 217.311 695.61 217.775 694.628C236.417 655.213 254.633 616.42 272.537 578.178M202.266 707.009C201.41 706.614 201.091 705.498 201.553 704.513C201.555 704.511 201.556 704.508 201.557 704.506C214.035 677.969 225.923 652.77 237.262 628.808C246.404 609.355 256.157 588.572 266.441 566.659C286.832 523.209 309.306 475.318 333.229 424.559C294.818 505.474 251.507 596.209 199.921 703.767C199.452 704.745 198.384 705.216 197.53 704.823C196.676 704.429 196.356 703.318 196.814 702.335C251.151 585.657 299.58 484.281 344.833 389.681C347.082 384.981 349.322 380.297 351.555 375.63C389.11 297.129 424.541 223.068 459.449 148.462C464.246 138.186 469.028 127.932 473.807 117.675C474.267 116.688 475.337 116.203 476.198 116.592C477.059 116.981 477.385 118.096 476.926 119.083C476.925 119.084 476.925 119.084 476.925 119.085M462.573 149.856C439.35 199.606 415.784 249.87 390.512 303.48C418.973 243.586 448.606 181.664 478.554 119.832C479.02 118.869 480.069 118.4 480.918 118.774C481.767 119.148 482.107 120.228 481.685 121.21C454.026 185.559 423.027 249.717 374.354 350.456C340.107 421.337 297.11 510.329 240.369 630.239C227.096 658.482 215.11 683.922 204.661 705.945C204.194 706.927 203.123 707.403 202.266 707.009M462.573 149.856C467.364 139.617 472.145 129.368 476.92 119.095L462.573 149.856ZM226.589 692.183C225.738 691.783 225.425 690.669 225.889 689.688C313.17 505.089 376.814 370.604 435.826 246.256C454.384 206.552 471.645 169.998 489.377 133.525C489.851 132.548 490.923 132.084 491.774 132.486C492.625 132.887 492.937 134.004 492.471 134.984C474.696 172.366 457.034 209.547 438.936 247.682C429.871 267.075 420.495 287.223 410.601 308.485C403.61 323.508 396.36 339.087 388.779 355.348C348.508 441.726 298.887 547.339 228.985 691.143C228.51 692.119 227.44 692.583 226.589 692.183ZM191.118 706.201C190.258 705.81 189.935 704.694 190.396 703.707C261.48 551.567 313.072 441.297 354.871 352.825C345.186 373.192 335.418 393.722 325.56 414.439C289.726 490.275 245.114 584.488 187.082 706.511C186.614 707.494 185.543 707.969 184.687 707.573C183.83 707.178 183.512 706.061 183.976 705.077C231.799 603.533 277.395 507.705 321.228 415.583C321.635 414.726 322.043 413.869 322.451 413.013C342.711 370.136 360.167 333.131 375.656 300.295C412.623 221.928 438.389 167.305 464.35 113.274C464.82 112.296 465.889 111.825 466.743 112.221C467.596 112.617 467.914 113.73 467.454 114.712C444.656 163.378 421.459 212.508 397.784 262.457C423.555 208.52 446.126 161.995 469.092 115.44C469.572 114.467 470.644 114.01 471.492 114.417C472.34 114.823 472.646 115.94 472.177 116.918C382.732 303.499 290.605 497.763 193.511 705.121C193.51 705.123 193.511 705.121 193.51 705.123C193.049 706.109 191.978 706.591 191.118 706.201ZM234.71 687.247C233.854 686.854 233.534 685.74 233.993 684.756C277.613 591.358 356.126 426.124 441.404 246.655C458.215 211.275 475.289 175.343 492.41 139.298C492.876 138.318 493.943 137.842 494.8 138.233C495.656 138.623 495.979 139.734 495.523 140.718C430.314 281.522 363.156 422.113 300.707 552.847C278.832 598.64 257.535 643.224 237.102 686.184C236.636 687.165 235.566 687.64 234.71 687.247ZM178.252 708.944C177.399 708.541 177.089 707.421 177.559 706.44C253.848 547.127 347.943 347.74 446.17 139.595C451.203 128.929 456.247 118.241 461.3 107.533C461.765 106.55 462.835 106.071 463.693 106.463C464.551 106.855 464.873 107.97 464.412 108.955C362.817 326.411 260.736 542.364 180.652 707.901C180.178 708.88 179.105 709.347 178.252 708.944ZM244.492 678.733C243.647 678.331 243.337 677.223 243.795 676.247C320.262 513.261 408.139 326.442 495.462 145.041C495.931 144.066 496.996 143.596 497.849 143.987C498.702 144.379 499.024 145.486 498.57 146.469C478.289 190.432 458.019 234.343 437.706 278.13C459.566 231.799 479.727 189.406 500.198 147.225C500.667 146.26 501.72 145.792 502.57 146.173C503.419 146.554 503.752 147.643 503.32 148.625C497.268 162.351 491.106 176.018 484.785 189.789C490.9 177.453 497.046 165.189 503.258 152.944C503.747 151.981 504.816 151.538 505.657 151.949C506.498 152.36 506.799 153.473 506.332 154.446C497.688 172.456 489.038 190.419 480.013 209.158C453.417 264.387 423.573 326.358 381.089 416.146C378.744 421.193 376.38 426.282 373.995 431.415C341.507 501.338 305.162 579.564 261.435 671.364C260.968 672.344 259.9 672.819 259.044 672.427C258.189 672.034 257.867 670.922 258.325 669.938C307.772 563.713 346.364 481.54 377.964 414.754C388.269 392.578 398.202 371.222 407.879 350.512C406.282 353.791 404.673 357.096 403.05 360.43C400.276 366.128 397.464 371.907 394.61 377.775C357.155 457.482 312.888 551.599 255.014 672.742C254.548 673.718 253.483 674.192 252.629 673.803C251.774 673.415 251.449 672.309 251.9 671.325C260.834 651.826 269.481 633.078 277.857 615.022C267.58 635.997 257.257 656.898 246.884 677.715C246.403 678.681 245.337 679.134 244.492 678.733ZM173.528 706.757C172.671 706.359 172.355 705.239 172.823 704.255C181.109 686.808 189.278 669.63 197.335 652.703C299.008 438.811 365.604 297.86 426.761 168.42C436.8 147.174 446.691 126.238 456.568 105.341C457.031 104.36 458.098 103.881 458.955 104.27C459.812 104.658 460.138 105.767 459.684 106.753C402.018 231.975 341.68 358.285 273.759 500.469C250.282 549.617 225.898 600.661 200.405 654.213C192.467 670.913 184.315 688.059 175.934 705.678C175.932 705.684 175.929 705.689 175.926 705.695C175.926 705.696 175.926 705.696 175.925 705.697C175.458 706.68 174.384 707.155 173.528 706.757ZM617.608 512.298C616.777 511.891 616.474 510.798 616.922 509.83C620.776 501.512 625.505 491.912 630.726 481.315C640.443 461.59 651.86 438.413 662.496 413.632C662.913 412.66 663.928 412.133 664.796 412.438C665.664 412.743 666.075 413.771 665.728 414.768C663.827 420.218 661.732 425.703 659.354 431.45C661.403 427.367 663.494 423.28 665.618 419.227C666.09 418.326 667.077 417.887 667.898 418.212C668.719 418.538 669.103 419.522 668.786 420.484C662.133 440.68 652.65 460.195 628.098 506.4C627.597 507.343 626.537 507.765 625.709 507.352C624.88 506.939 624.582 505.841 625.038 504.874C627.185 500.318 629.849 494.432 632.933 487.616C634.161 484.902 635.456 482.04 636.812 479.057C631.921 488.624 626.361 499.264 619.992 511.336C619.494 512.279 618.438 512.706 617.608 512.298ZM168.789 704.567C167.939 704.167 167.625 703.054 168.088 702.073C176.942 683.298 185.549 665.046 193.926 647.282C221.621 588.551 246.803 535.15 270.116 485.753C272.366 480.889 274.615 476.024 276.864 471.158C258.584 509.467 241.296 545.561 225.418 578.646C206.653 617.901 187.061 658.687 166.459 701.32M273.312 486.997C345.355 334.349 399.548 219.943 454.936 104.598C455.404 103.625 455.103 102.511 454.261 102.1C453.419 101.69 452.35 102.134 451.862 103.098C442.767 121.073 433.771 139.104 424.86 157.181C433.33 138.936 441.793 120.649 450.218 102.375C450.672 101.39 450.347 100.28 449.49 99.8911C448.632 99.5026 447.565 99.9816 447.102 100.963C423.811 150.282 400.575 199.763 376.711 250.58C329.475 351.168 279.781 456.992 222.336 577.163C207.228 608.644 193.398 637.402 181.205 662.755C174.785 676.103 168.82 688.507 163.361 699.867C162.89 700.848 163.199 701.97 164.052 702.374C164.905 702.777 165.98 702.311 166.454 701.331C166.454 701.329 166.455 701.328 166.456 701.326M273.312 486.997C239.701 559.67 205.987 632.057 171.184 703.528C170.709 704.502 169.64 704.966 168.789 704.567M633.795 502.398C632.974 501.968 632.696 500.859 633.168 499.899C634.39 497.419 635.566 495.033 636.698 492.735C642.412 481.139 647.02 471.786 650.854 463.937C653.615 457.96 656.424 451.795 659.254 445.583C662.919 437.538 666.621 429.413 670.304 421.513C670.755 420.545 671.795 420.057 672.651 420.412C673.507 420.766 673.868 421.834 673.466 422.821C668.349 435.374 663.557 445.719 653.952 465.388C647.715 478.882 641.69 491.472 636.197 501.486C635.683 502.424 634.617 502.829 633.795 502.398ZM612.83 510.085C612 509.642 611.734 508.508 612.235 507.545C622.334 488.137 631.291 469.389 639.651 451.327C641.161 447.911 642.565 444.679 643.886 441.613C645.024 438.97 646.103 436.445 647.135 434.029C652.481 421.512 656.579 411.916 661.278 404.047C661.812 403.152 662.849 402.787 663.647 403.211C664.444 403.636 664.727 404.705 664.291 405.651C661.301 412.155 658.289 418.776 655.226 425.511C651.193 434.378 647.071 443.441 642.789 452.692C636.193 467.614 627.595 486.011 615.254 509.154C614.743 510.111 613.66 510.527 612.83 510.085ZM641.957 497.482C641.141 497.095 640.818 496.045 641.219 495.085C647.449 480.173 657.06 460.418 668.306 437.906C668.772 436.972 669.789 436.514 670.626 436.86C671.463 437.205 671.83 438.236 671.464 439.211C664.927 456.609 658.805 470.273 644.304 496.55C643.8 497.461 642.773 497.87 641.957 497.482ZM272.215 656.785C271.36 656.386 271.046 655.267 271.514 654.284C281.029 634.275 291.065 613.278 301.522 591.449C335.008 521.114 367.557 452.066 399.728 383.821C435.458 308.026 470.721 233.222 506.28 158.747C506.747 157.77 507.811 157.296 508.665 157.684C509.52 158.072 509.845 159.178 509.395 160.161C490.666 201.103 471.549 242.243 452.427 282.979C471.636 242.36 490.369 203.202 509.333 164.481C509.809 163.508 510.879 163.047 511.728 163.449C512.578 163.85 512.889 164.964 512.426 165.943C498.765 194.813 485.088 223.742 470.954 253.635C436.748 325.984 399.869 403.984 354.089 500.5C333.43 544.054 310.959 591.378 286.102 643.654L284.551 642.934L283.003 642.206C307.431 591.284 329.884 543.881 350.929 499.179M350.929 499.179C367.49 464.001 383.179 430.496 398.271 398.266C409.171 374.989 419.759 352.376 430.14 330.279C396.759 400.878 363.817 469.517 333.369 532.961C323.493 553.539 313.88 573.571 304.599 592.945C294.688 613.762 284.698 634.687 274.613 655.732C274.143 656.714 273.07 657.185 272.215 656.785M606.502 511.507C605.657 511.132 605.319 510.054 605.739 509.075C626.394 460.891 640.249 433.105 652.045 410.234C654.039 406.237 656.07 402.306 658.186 398.379C658.699 397.426 659.78 397.015 660.607 397.458C661.435 397.901 661.7 399.033 661.201 399.994C660.873 400.625 660.545 401.259 660.215 401.895C658.542 405.118 656.84 408.397 655.094 411.784C649.844 422.304 644.829 433.309 639.09 445.968C638.757 446.704 638.421 447.445 638.082 448.192C630.402 465.135 621.387 485.026 608.864 510.464C608.393 511.421 607.347 511.883 606.502 511.507ZM600.099 512.892C599.246 512.527 598.896 511.453 599.309 510.469C604.272 498.622 608.815 488.137 613.025 478.706C607.621 490.147 601.997 501.676 596.001 513.257C595.515 514.194 594.477 514.633 593.644 514.251C592.812 513.87 592.481 512.804 592.894 511.833C596.649 502.993 600.487 494.076 604.43 485.095C604.314 485.326 604.197 485.557 604.081 485.788C599.559 494.762 594.742 504.323 589.592 514.606C589.111 515.566 588.051 516.018 587.208 515.621C586.365 515.224 586.049 514.126 586.497 513.149C602.285 478.769 615.994 450.213 629.051 423.015C636.959 406.542 644.628 390.567 652.376 374.097C652.825 373.142 653.85 372.656 654.701 372.995C655.552 373.334 655.928 374.377 655.554 375.362C653.212 381.522 650.782 387.581 648.232 393.652C650.059 390.203 651.912 386.75 653.791 383.295C654.305 382.351 655.376 381.943 656.2 382.378C657.024 382.813 657.298 383.93 656.816 384.891C647.476 403.498 638.788 422.582 629.929 442.039C629.049 443.972 628.167 445.909 627.282 447.85C626.937 448.606 626.592 449.363 626.247 450.121C632.771 436.526 638.511 425.3 643.999 414.565C648.331 406.091 652.506 397.924 656.787 389.14C657.262 388.167 658.329 387.704 659.179 388.102C660.03 388.499 660.345 389.61 659.886 390.59C646.429 419.315 633.963 445.629 602.454 511.814C601.995 512.778 600.951 513.256 600.099 512.892ZM159.328 700.19C158.473 699.792 158.158 698.674 158.624 697.691C191.562 628.207 224.509 558.417 257.518 488.495C318.811 358.661 380.318 228.375 442.371 98.7659C442.839 97.7893 443.904 97.3167 444.758 97.7071C445.612 98.0974 445.936 99.2049 445.483 100.188C373.953 255.478 299.799 410.494 162.901 696.678L161.73 699.126C161.729 699.126 161.729 699.127 161.729 699.128L161.725 699.135C161.256 700.116 160.183 700.588 159.328 700.19ZM580.721 516.966C579.895 516.527 579.624 515.402 580.115 514.441C595.726 483.862 608.173 458.135 619.284 434.318C622.944 426.283 626.52 418.346 630.032 410.55C636.053 397.184 641.887 384.233 647.641 371.915C648.099 370.934 649.16 370.45 650.019 370.828C650.878 371.207 651.214 372.308 650.772 373.295C641.516 393.971 632.522 414.034 622.424 435.679C610.485 461.887 597.614 489.207 583.137 516.043C582.625 516.993 581.548 517.404 580.721 516.966ZM152.924 701.575C152.071 701.192 151.74 700.094 152.181 699.11C164.165 672.388 177.717 642.687 192.547 610.582C179.072 638.689 165.099 667.882 150.57 698.318C150.101 699.299 149.031 699.773 148.175 699.377C147.32 698.981 147.002 697.865 147.465 696.881C280.456 414.439 356.418 254.084 432.906 94.3869C433.372 93.4141 434.432 92.9409 435.285 93.3248C436.138 93.7088 436.468 94.8074 436.026 95.7909C426.109 117.839 416.122 139.786 405.994 161.822C416.516 140.09 427.079 118.311 437.644 96.5632C438.119 95.5836 439.195 95.1196 440.048 95.5265C440.9 95.9335 441.205 97.0573 440.73 98.0373C394.175 194.118 347.919 292.556 297.726 399.375C254.144 492.122 207.594 591.187 155.302 700.511C154.837 701.484 153.778 701.958 152.924 701.575ZM574.433 518.405C573.563 518.05 573.202 516.961 573.624 515.964C578.526 504.385 583.641 493.061 588.869 481.918C593.595 471.535 598.02 461.982 602.196 453.091C602.13 453.227 602.064 453.363 601.998 453.499C593.928 470.743 584.216 490.919 572.012 515.174C571.525 516.141 570.453 516.589 569.61 516.177C568.767 515.765 568.467 514.647 568.938 513.673C579.655 491.517 588.842 472.675 596.79 456.373C597.508 454.901 598.215 453.45 598.913 452.019C604.871 439.287 609.931 428.156 614.438 418.162C615.858 415.015 617.223 411.978 618.545 409.038C627.089 390.035 633.816 375.074 641.601 360.308C642.088 359.385 643.112 358.954 643.938 359.323C644.764 359.693 645.106 360.736 644.718 361.703C639.899 373.741 634.188 386.497 626.656 402.451C628.902 397.905 631.091 393.491 633.238 389.161C637.132 381.309 640.891 373.73 644.612 366.124C645.083 365.162 646.137 364.698 646.984 365.08C647.831 365.462 648.163 366.55 647.731 367.53C637.702 390.269 626.65 412.553 615.495 435.043C614.459 437.133 613.422 439.224 612.384 441.318C605.528 455.155 598.662 469.099 591.99 483.319C587.248 493.737 582.201 504.993 576.793 517.257C576.357 518.248 575.303 518.76 574.433 518.405ZM563.244 517.579C562.392 517.207 562.05 516.124 562.473 515.141C567.87 502.597 572.855 491.087 577.493 480.473C572.65 490.399 567.826 500.248 563.052 509.997C561.757 512.64 560.467 515.275 559.18 517.903C558.703 518.877 557.632 519.338 556.782 518.935C555.932 518.531 555.623 517.414 556.09 516.435C560.756 506.654 565.596 496.533 570.57 486.131C590.874 443.667 613.409 396.538 635.46 348.905C635.914 347.925 636.972 347.435 637.832 347.808C638.693 348.18 639.035 349.276 638.6 350.265C635.743 356.762 632.841 363.27 629.901 369.783C632.799 364.512 635.676 359.458 638.605 354.465C639.132 353.567 640.168 353.191 640.97 353.608C641.772 354.024 642.063 355.09 641.634 356.039C623.836 395.507 606.228 432.082 584.796 476.598C578.736 489.186 572.37 502.409 565.608 516.512C565.145 517.478 564.095 517.951 563.244 517.579ZM295.215 632.655C294.354 632.27 294.024 631.159 294.477 630.171C340.03 530.969 389.776 426.968 440.366 321.206C464.296 271.177 488.414 220.755 512.367 170.26C512.83 169.284 513.891 168.806 514.746 169.189C515.602 169.572 515.933 170.672 515.49 171.657C508.663 186.821 501.784 201.952 494.877 217.015C501.76 203.084 508.556 189.511 515.436 175.96C515.925 174.998 516.994 174.554 517.834 174.965C518.675 175.376 518.976 176.489 518.509 177.462C471.095 276.325 424.376 375.328 375.542 478.816C353.887 524.705 331.816 571.476 309.084 619.508C308.619 620.491 307.549 620.968 306.692 620.576C305.835 620.183 305.513 619.069 305.973 618.084C328.616 569.62 348.576 526.795 366.434 488.478C370.548 479.652 374.55 471.066 378.448 462.704C374.915 470.014 371.423 477.235 367.977 484.361C340.925 540.305 316.693 590.417 297.602 631.565C297.144 632.552 296.076 633.039 295.215 632.655ZM145.133 693.625C144.279 693.233 143.958 692.124 144.413 691.141C213.814 541.27 266.927 429.771 311.393 337.066C321.044 316.944 330.287 297.71 339.201 279.161C371.355 212.249 399.219 154.265 426.467 95.7961M145.133 693.625C145.986 694.017 147.053 693.546 147.522 692.57L145.133 693.625ZM147.522 692.57C290.319 395.198 360.622 246.292 429.593 97.1891L147.522 692.57ZM426.47 95.7908C426.471 95.7889 426.472 95.7869 426.473 95.785C426.932 94.7988 428.001 94.3138 428.862 94.7011C429.722 95.0884 430.049 96.2016 429.593 97.1891M552.011 516.725C551.186 516.304 550.897 515.202 551.359 514.239C561.926 492.219 572.075 470.288 582.165 448.486C584.731 442.941 587.293 437.405 589.857 431.877C576.741 459.347 562.876 487.474 548.014 517.108C547.534 518.064 546.48 518.516 545.638 518.126C544.796 517.735 544.474 516.645 544.912 515.669C574.542 449.613 593.593 410.874 608.579 380.403C615.62 366.086 621.764 353.595 627.685 340.952C628.142 339.976 629.196 339.492 630.054 339.864C630.911 340.235 631.254 341.325 630.825 342.312C623.744 358.591 616.491 374.77 609.012 391.033C609.832 389.312 610.653 387.593 611.476 385.874C617.668 372.598 624.053 359.446 630.776 346.614C631.279 345.655 632.357 345.229 633.191 345.661C634.026 346.092 634.304 347.22 633.814 348.186C627.248 361.15 620.877 374.168 614.614 387.241C608.008 401.404 601.611 415.732 595.24 430.004C594.799 430.992 594.358 431.979 593.917 432.966C581.179 461.495 568.486 489.744 554.405 515.793C553.897 516.733 552.836 517.146 552.011 516.725ZM140.396 691.435C139.542 691.04 139.225 689.926 139.685 688.944C218.654 520.469 277.788 396.053 329.165 288.188C365.228 210.961 392.632 152.439 421.762 93.5462C422.242 92.5765 423.31 92.1201 424.157 92.5234C425.004 92.9267 425.314 94.0391 424.851 95.0168C400.895 145.592 376.942 195.863 351.33 249.617C345.081 262.733 338.733 276.056 332.263 289.641C330.437 293.549 328.59 297.506 326.719 301.512C283.522 394.03 227.761 513.455 142.789 690.382C142.319 691.361 141.25 691.831 140.396 691.435ZM540.933 515.951C540.074 515.573 539.737 514.473 540.177 513.485C557.067 475.632 572.434 443.884 586.24 415.636C586.337 415.437 586.434 415.239 586.531 415.04C593.054 401.347 598.775 389.403 604.037 378.419C610.869 364.156 616.927 351.511 622.956 338.757C623.418 337.781 624.477 337.301 625.333 337.681C626.189 338.061 626.524 339.159 626.084 340.145C616.634 361.305 605.95 383.138 594.074 407.405C592.608 410.401 591.123 413.434 589.621 416.508C577.614 441.714 562.891 472.849 543.31 514.861C542.853 515.842 541.793 516.328 540.933 515.951ZM534.523 517.332C533.686 516.974 533.331 515.928 533.716 514.953C537.233 506.038 541.355 496.326 545.97 485.943C541.145 495.828 535.984 506.371 530.444 517.655C529.969 518.624 528.904 519.085 528.056 518.689C527.208 518.293 526.891 517.187 527.345 516.208C536.518 496.417 547.333 474.101 558.97 450.091C577.295 412.279 597.657 370.266 616.847 327.293C617.291 326.3 618.354 325.794 619.223 326.164C620.092 326.533 620.438 327.638 619.997 328.633C612.726 344.997 605.541 360.943 596.767 379.848C598.748 375.841 600.745 371.806 602.753 367.746C608.405 356.322 614.153 344.705 619.929 332.97C620.407 331.998 621.477 331.539 622.325 331.942C623.174 332.345 623.483 333.459 623.019 334.437C615.208 350.903 607.392 367.853 599.147 385.731C581.654 423.663 562.235 465.772 536.858 516.298C536.387 517.236 535.361 517.691 534.523 517.332ZM318.18 608.508C317.321 608.115 317 606.998 317.462 606.012C321.577 597.246 325.613 588.647 329.575 580.205C414.838 398.544 465.67 290.24 518.465 181.748C518.939 180.774 520.007 180.31 520.857 180.708C521.708 181.105 522.023 182.217 521.564 183.197C479.178 273.623 434.927 366.599 395.951 448.491C366.92 509.491 340.814 564.341 320.587 607.408C320.583 607.416 320.578 607.425 320.574 607.433C320.574 607.434 320.574 607.434 320.574 607.434C320.111 608.42 319.039 608.901 318.18 608.508ZM137.377 685.691C136.516 685.31 136.182 684.204 136.63 683.216C155.178 642.276 177.34 594.367 202.145 541.419C181.887 584.045 159.639 630.789 135.017 682.434C134.549 683.416 133.477 683.89 132.621 683.493C131.766 683.097 131.449 681.98 131.913 680.996C193.005 551.531 243.906 444.38 289.736 347.905C310.649 303.882 330.507 262.081 349.794 221.397C371.813 174.712 391.113 133.803 410.585 92.781M410.588 92.7745C410.589 92.7723 410.59 92.7702 410.591 92.768C411.057 91.7851 412.129 91.3092 412.986 91.7044C413.842 92.0995 414.161 93.2164 413.697 94.2007C393.693 136.69 373.63 179.106 352.907 222.816C351.675 225.429 350.434 228.061 349.184 230.711C335.401 259.935 320.521 291.486 303.865 326.746C340.036 251.059 378.333 171.456 417.02 91.3776C417.492 90.4025 418.558 89.9345 419.411 90.3291C420.263 90.7237 420.582 91.8334 420.125 92.8151C369.931 200.683 318.392 308.644 270.126 409.629C267.742 414.617 265.366 419.588 262.999 424.541C217.433 519.87 175.034 608.574 139.759 684.6C139.303 685.585 138.238 686.072 137.377 685.691M523.302 516.491C522.456 516.079 522.156 514.958 522.631 513.982C531.981 494.768 543.016 471.057 555.174 444.931C557.735 439.427 560.347 433.816 563.003 428.118C578.26 395.379 594.982 359.765 612.152 325.022C612.634 324.046 613.712 323.591 614.56 324.005C615.408 324.418 615.706 325.545 615.226 326.522C605.244 346.823 595.26 368.485 584.078 392.747C581.712 397.88 579.292 403.13 576.808 408.508C562.585 439.292 546.25 474.238 525.706 515.48C525.222 516.451 524.148 516.903 523.302 516.491ZM516.911 517.882C516.058 517.491 515.735 516.385 516.187 515.402C530.596 484.095 546.1 451.75 562.257 418.043C577.413 386.422 593.144 353.603 609.086 319.316C609.542 318.334 610.605 317.847 611.465 318.225C612.325 318.604 612.661 319.707 612.217 320.695C592.632 364.321 571.848 407.54 535.23 483.687C530.227 494.091 524.929 505.109 519.297 516.827C518.829 517.802 517.764 518.273 516.911 517.882ZM512.16 515.683C511.309 515.28 511 514.162 511.468 513.182C519.733 495.879 527.198 480.261 533.994 466.044C569.626 391.501 586.842 355.483 604.343 317.144C604.794 316.156 605.857 315.661 606.722 316.036C607.586 316.411 607.926 317.516 607.482 318.507C587.145 363.916 565.075 410.904 514.559 514.646C514.084 515.623 513.011 516.086 512.16 515.683ZM127.878 681.298C127.027 680.896 126.716 679.779 127.182 678.799C175.797 576.552 240.862 439.1 310.922 291.093C341.643 225.919 373.603 158.285 405.855 90.5818M127.878 681.298C128.73 681.699 129.801 681.235 130.276 680.259L127.878 681.298ZM405.857 90.5786C405.857 90.5771 405.858 90.5756 405.859 90.5741C406.327 89.5915 407.399 89.1175 408.256 89.5148C409.112 89.9121 409.428 91.0307 408.962 92.0143C377.011 159.473 345.045 227.002 314.056 292.468C299.91 322.48 286.026 351.973 272.496 380.712C216.973 498.65 167.427 603.895 130.276 680.259M331.327 592.856C330.49 592.448 330.187 591.345 330.643 590.373C356.425 535.562 382.084 482.025 407.487 429.021C441.697 357.64 475.444 287.228 508.401 215.977C512.762 206.509 517.126 197.028 521.485 187.551C521.485 187.55 521.486 187.549 521.486 187.548C521.941 186.559 523.009 186.067 523.872 186.45C524.736 186.832 525.068 187.944 524.615 188.933C520.27 198.423 515.909 207.895 511.535 217.352C504.139 233.409 496.749 249.432 489.396 265.344C501.017 241.083 512.73 217.003 524.563 193.238C525.043 192.272 526.108 191.819 526.953 192.219C527.798 192.619 528.11 193.725 527.654 194.702C480.003 296.78 432.024 397.799 382.972 500.661C370.413 527.361 357.846 553.781 345.228 579.752C344.753 580.729 343.681 581.194 342.829 580.791C341.977 580.389 341.667 579.27 342.135 578.29C354.756 551.854 367.296 525.586 379.765 499.437C383.739 490.989 387.714 482.51 391.69 474.006C369.691 520.024 349.926 560.382 333.718 591.871C333.227 592.826 332.164 593.263 331.327 592.856ZM505.715 517.048C504.881 516.636 504.582 515.533 505.042 514.564C513.428 496.882 522.293 478.277 531.521 458.91C535.983 449.545 540.531 440.001 545.15 430.297C546.317 427.737 547.491 425.162 548.671 422.574C549.034 421.778 549.397 420.98 549.761 420.182C565.806 384.98 583.006 347.333 601.343 311.302C601.83 310.345 602.892 309.902 603.731 310.305C604.571 310.709 604.879 311.811 604.425 312.784C585.13 354.132 566.157 394.125 548.268 431.705C533.975 463.048 520.579 492.18 508.108 516.079C507.611 517.03 506.549 517.461 505.715 517.048ZM499.359 518.453C498.512 518.083 498.168 517.011 498.581 516.03C513.618 480.316 533.53 439.484 555.683 394.056C569.24 366.256 583.637 336.734 598.269 305.611C598.729 304.632 599.791 304.15 600.649 304.532C601.506 304.913 601.839 306.015 601.395 307.002C576.875 361.444 552.293 413.896 501.715 517.4C501.248 518.357 500.205 518.822 499.359 518.453ZM494.593 516.25C493.748 515.855 493.429 514.756 493.877 513.778C517.266 462.718 538.118 419.319 557.852 378.247C565.946 361.4 573.852 344.945 581.669 328.513C585.608 320.159 589.569 311.78 593.535 303.415C594.001 302.432 595.072 301.956 595.929 302.35C596.786 302.744 597.106 303.86 596.643 304.845C592.694 313.254 588.738 321.616 584.76 329.978C575.145 350.365 565.649 370.614 556.485 390.154C533.394 439.387 512.415 484.12 496.977 515.225C496.498 516.189 495.438 516.645 494.593 516.25ZM124.85 675.552C123.993 675.161 123.67 674.048 124.128 673.063C191.363 528.514 257.487 389.858 321.521 255.585C347.87 200.334 373.865 145.824 399.438 91.9516C399.903 90.9715 400.97 90.4951 401.827 90.8852C402.683 91.2753 403.007 92.3855 402.551 93.3701C356.046 193.945 308.157 294.367 250.037 416.242C213.797 492.236 173.58 576.571 127.24 674.484C126.776 675.466 125.707 675.943 124.85 675.552ZM488.17 517.626C487.321 517.23 487.004 516.123 487.46 515.143C496.061 496.647 504.241 478.936 512.136 461.843C514.433 456.87 516.706 451.95 518.957 447.078C509.432 466.832 498.518 489.074 485.816 514.418C485.333 515.382 484.267 515.833 483.424 515.429C482.58 515.025 482.272 513.918 482.731 512.942C491.827 493.621 500.772 474.71 509.565 456.164C500.011 475.663 489.494 496.595 477.69 519.389C477.194 520.347 476.123 520.78 475.287 520.361C474.451 519.942 474.159 518.827 474.632 517.857C490.858 484.59 507.762 448.441 525.464 410.586L526.225 408.959C544.201 370.518 562.997 330.345 582.723 289.701C583.194 288.73 584.257 288.263 585.107 288.654C585.958 289.045 586.281 290.147 585.832 291.129C579.577 304.799 573.432 318.456 567.139 332.443C559.009 350.513 550.631 369.134 541.446 389.049C551.805 367.257 561.936 345.935 571.839 325.001C577.105 313.868 582.307 302.844 587.444 291.917L589 292.629L590.538 293.376C585.323 303.997 580.308 314.731 574.959 326.405M558.686 362.183C569.174 340.258 579.651 318.897 590.523 297.604C591.011 296.648 592.071 296.206 592.91 296.609C593.748 297.012 594.058 298.112 593.606 299.085C589.845 307.181 586.042 315.449 581.937 324.373C564.162 363.018 540.724 413.974 490.56 516.589C490.085 517.56 489.019 518.023 488.17 517.626M558.686 362.183C560.988 357.127 563.183 352.289 565.297 347.631C568.696 340.141 571.882 333.118 574.959 326.405M352.653 572.297C351.797 571.91 351.469 570.805 351.918 569.82C389.743 486.908 421.713 420.348 450.2 361.45C453.691 354.232 457.129 347.129 460.52 340.126C484.798 289.977 506.61 244.923 527.573 199.061C528.024 198.073 529.087 197.578 529.951 197.954C530.815 198.329 531.155 199.433 530.712 200.424C517.248 230.507 503.382 260.607 489.176 290.907C503.971 259.98 517.233 232.48 530.64 204.769C531.114 203.789 532.19 203.323 533.043 203.728C533.896 204.134 534.203 205.257 533.73 206.238C533.729 206.238 533.729 206.238 533.729 206.239M352.653 572.297C353.509 572.683 354.573 572.205 355.037 571.227L352.653 572.297ZM355.037 571.227C375.923 527.179 396.525 484.446 416.701 442.598L355.037 571.227ZM416.701 442.598C426.518 422.237 436.234 402.085 445.832 382.093L416.701 442.598ZM121.798 669.793C120.943 669.396 120.627 668.279 121.091 667.297C148.352 609.539 173.697 555.971 197.591 505.546C174.013 554.567 148.698 606.745 121.138 663.003C120.661 663.977 119.59 664.438 118.74 664.034C117.891 663.631 117.582 662.514 118.049 661.535C134.627 626.765 152.87 588.35 172.395 547.156C151.334 590.486 132.868 627.899 118.085 657.27C117.601 658.233 116.536 658.681 115.694 658.278C114.851 657.874 114.542 656.768 115 655.793C159.826 560.283 201.922 472.18 242.086 388.119C291.064 285.614 337.169 189.12 381.85 92.5369C382.306 91.5516 383.371 91.0626 384.232 91.4429C385.094 91.8231 385.428 92.9296 384.981 93.9185C367.036 133.55 348.901 173.182 330.893 212.195C349.859 172.142 369.056 131.639 388.283 91.1403C388.748 90.1606 389.814 89.6841 390.67 90.0735C391.526 90.4629 391.851 91.5722 391.397 92.5568C360.948 158.572 330.288 224.957 296.806 296.463C330.811 224.834 362.746 157.509 394.7 89.7705C395.164 88.7876 396.233 88.3084 397.09 88.699C397.948 89.0896 398.272 90.2028 397.814 91.1883C323.272 251.53 249.761 406.728 124.193 668.739C123.723 669.719 122.652 670.19 121.798 669.793ZM470.652 518.214C469.78 517.854 469.424 516.756 469.856 515.759C477.12 498.993 483.897 483.475 490.262 469.04C481.83 487.067 473.924 503.69 466.551 518.539C466.069 519.511 464.995 519.965 464.148 519.555C463.302 519.144 463 518.024 463.473 517.048C470.219 503.123 478.315 486.196 487.382 467.123C493.57 453.889 500.046 439.892 506.81 425.274C508.869 420.823 510.955 416.315 513.068 411.753C531.653 371.618 552.291 327.357 574.957 281.739C575.438 280.771 576.506 280.317 577.352 280.721C578.198 281.124 578.507 282.235 578.045 283.212C573.37 293.104 568.685 303.027 564.015 312.923C569.274 302.928 574.463 293.35 579.737 283.836C580.252 282.908 581.306 282.507 582.124 282.928C582.942 283.349 583.231 284.441 582.777 285.4C568.081 316.471 552.923 347.967 538.412 378.118C512.414 432.139 488.492 481.846 473.019 517.066C472.582 518.061 471.523 518.575 470.652 518.214ZM362.42 563.776C361.581 563.372 361.272 562.269 361.727 561.296C396.121 487.641 423.167 430.047 445.832 382.093M362.42 563.776C363.26 564.179 364.322 563.735 364.809 562.777L362.42 563.776ZM364.809 562.777C374.496 543.724 383.877 524.839 393.015 506.113L364.809 562.777ZM393.015 506.113C386.18 520.854 379.565 535.251 373.207 549.248C372.763 550.227 373.085 551.325 373.932 551.716C374.778 552.107 375.838 551.647 376.313 550.682C402.593 497.326 430.287 438.036 459.085 376.383C475.563 341.104 492.403 305.051 509.547 268.893C518.606 249.992 527.701 230.997 536.777 211.983C537.245 211.002 536.934 209.883 536.081 209.481C535.229 209.079 534.156 209.546 533.682 210.524C524.498 229.52 515.398 248.565 506.389 267.568C501.437 277.9 496.495 288.205 491.572 298.469C479.438 323.772 467.421 348.83 455.656 373.453C460.411 363.158 465.134 352.909 469.837 342.704C491.196 296.358 512.136 250.92 533.726 206.245M457.732 520.931C456.883 520.522 456.58 519.4 457.053 518.422C477.886 475.432 495.084 439.375 509.894 408.038C518.133 390.529 526.482 372.711 534.907 354.732C540.745 342.272 546.621 329.734 552.521 317.167C559.253 302.787 565.616 289.24 571.894 276.022C572.361 275.039 573.433 274.563 574.29 274.96C575.147 275.356 575.464 276.474 574.999 277.458C568.535 291.137 562.083 304.849 555.66 318.53C552.797 324.646 549.866 330.914 546.846 337.373C536.819 358.819 525.809 382.367 513.018 409.432C494.726 448.308 476.969 485.674 460.135 519.906C459.656 520.882 458.581 521.34 457.732 520.931ZM451.271 522.288C450.438 521.857 450.159 520.733 450.646 519.767C469.931 481.498 494.154 429.635 520.887 372.395C521.112 371.914 521.337 371.432 521.562 370.95C536.812 337.534 552.371 303.674 568.866 270.237C569.345 269.266 570.414 268.808 571.262 269.212C572.11 269.615 572.419 270.729 571.955 271.707C555.709 305.932 539.802 339.983 524.679 372.361C523.084 375.857 521.492 379.348 519.903 382.833C517.349 388.433 514.802 394.019 512.257 399.588C492.991 441.755 473.901 482.929 453.684 521.338C453.18 522.295 452.104 522.719 451.271 522.288ZM446.582 520.122C445.73 519.716 445.423 518.593 445.897 517.613C466.308 475.411 487.705 429.893 509.312 383.928C527.588 345.05 546.014 305.851 564.121 268.069C564.589 267.094 565.653 266.621 566.506 267.01C567.36 267.399 567.685 268.504 567.235 269.488C533.703 342.705 499.553 414.769 448.987 519.082C448.986 519.082 448.986 519.083 448.986 519.083C448.511 520.063 447.435 520.528 446.582 520.122ZM382.024 546.766C381.185 546.366 380.873 545.267 381.323 544.293C430.284 438.236 471.575 352.146 512.125 267.602C520.335 250.484 528.515 233.431 536.721 216.287C537.19 215.309 538.257 214.837 539.112 215.23C539.966 215.623 540.287 216.734 539.829 217.718C528.788 241.435 517.724 265.361 506.645 289.32C504.963 292.957 503.281 296.595 501.599 300.233C514.074 274.196 526.808 248.027 539.782 222.004C540.262 221.042 541.322 220.589 542.166 220.984C543.01 221.379 543.327 222.478 542.88 223.455C525.432 261.555 506.755 300.682 479.67 357.418C459.359 399.966 434.321 452.417 401.528 521.765C398.511 528.174 395.518 534.51 392.549 540.766C392.083 541.75 391.011 542.226 390.153 541.83C389.296 541.434 388.979 540.316 389.444 539.332C389.444 539.331 389.445 539.329 389.445 539.328C392.496 532.869 395.482 526.549 398.407 520.364C406.897 502.333 415.586 483.714 424.464 464.642C411.106 492.361 397.75 519.503 384.41 545.765C383.924 546.722 382.864 547.166 382.024 546.766ZM425.655 527.827C424.795 527.439 424.468 526.327 424.924 525.34C433.403 506.978 441.574 489.562 449.466 472.922C452.44 466.58 455.423 460.224 458.414 453.856C447.623 476.056 435.469 500.645 421.591 528.182C421.109 529.138 420.053 529.587 419.212 529.194C418.371 528.8 418.052 527.708 418.493 526.733C424.021 514.511 430.584 500.395 437.943 484.78C429.827 501.164 422.185 516.214 415.15 529.593C414.651 530.542 413.587 530.969 412.756 530.554C411.924 530.139 411.628 529.034 412.09 528.066C450.524 447.583 476.908 391.475 498.063 346.487C517.007 306.202 531.759 274.832 547.215 242.858C547.684 241.887 548.745 241.419 549.596 241.806C550.447 242.193 550.774 243.292 550.329 244.274C530.968 287.067 511.387 329.949 492.605 370.318C505.238 343.932 518.379 316.404 531.492 288.619C537.768 275.32 544.038 261.962 550.244 248.642L551.803 249.347L553.347 250.082C546.991 263.223 540.926 276.245 534.68 289.878C530.389 299.246 526.012 308.903 521.397 319.086C516.125 330.717 510.542 343.035 504.42 356.393C521.096 321.275 537.97 285.999 554.99 250.8C555.458 249.834 556.512 249.364 557.362 249.744C558.212 250.125 558.546 251.214 558.113 252.197C538.715 296.188 517.858 339.152 494.524 387.219C481.359 414.338 467.406 443.082 452.481 474.55C444.266 492.067 436.118 509.476 428.043 526.746C427.583 527.73 426.514 528.214 425.655 527.827ZM440.205 521.519C439.35 521.147 439.008 520.059 439.435 519.074C446.701 502.327 454.076 485.545 461.582 468.732C452.718 487.133 444.185 504.9 436.148 521.82C435.683 522.798 434.617 523.275 433.762 522.887C432.906 522.499 432.58 521.391 433.032 520.407C451.338 480.508 471.411 438.763 492.171 395.587L493.425 392.979C514.635 348.869 536.54 303.273 558.018 256.593C558.471 255.607 559.535 255.115 560.398 255.493C561.26 255.871 561.598 256.976 561.152 257.966C555.873 269.694 550.505 281.462 545.082 293.23C550.348 282.909 555.69 272.579 561.112 262.242C561.612 261.289 562.682 260.862 563.515 261.283C564.348 261.704 564.637 262.818 564.164 263.785C538.718 315.9 513.459 369.709 486.244 427.688C472.296 457.4 457.835 488.207 442.572 520.441C442.112 521.412 441.059 521.892 440.205 521.519ZM398.247 536.884C397.4 536.48 397.092 535.366 397.556 534.388C414.286 499.178 429.983 466.257 444.86 435.056C481.404 358.415 512.999 292.152 542.797 227.818C543.253 226.832 544.32 226.344 545.181 226.726C546.043 227.109 546.375 228.218 545.924 229.206C526.622 271.517 506.924 314.029 487.455 355.448C489.285 351.7 491.073 348.045 492.822 344.475C496.327 337.32 499.673 330.51 502.88 323.982C512.15 305.113 520.261 288.604 527.704 272.954C533.456 260.627 538.851 248.897 544.143 237.16C544.589 236.171 545.65 235.669 546.516 236.038C547.383 236.406 547.73 237.506 547.293 238.499C542.049 250.419 536.63 262.148 530.807 274.393C518.739 300.254 505.097 328.744 487.545 365.4C467.529 407.202 442.427 459.624 408.774 530.881C408.312 531.859 407.249 532.339 406.392 531.955C405.535 531.571 405.205 530.468 405.651 529.482C416.05 506.534 425.658 485.613 434.57 466.43C422.888 490.594 411.526 513.847 400.644 535.861C400.164 536.831 399.094 537.288 398.247 536.884ZM114.352 648.967C113.499 648.569 113.184 647.455 113.646 646.473C168.625 529.752 213.395 436.133 252.122 355.152C266.435 325.221 279.923 297.018 292.795 270.012C321.101 209.856 349.106 150.123 377.122 90.3392C377.583 89.3563 378.649 88.8735 379.508 89.2592C380.367 89.6448 380.696 90.7537 380.244 91.7404C353.734 149.587 326.565 207.114 295.911 271.426C238.313 393.833 179.466 517.999 116.746 647.919C116.274 648.897 115.204 649.365 114.352 648.967ZM111.307 643.214C110.451 642.816 110.136 641.696 110.604 640.712C110.604 640.712 110.604 640.711 110.604 640.711M111.307 643.214C112.164 643.613 113.237 643.138 113.705 642.155L111.307 643.214ZM270.63 302.98C307.48 224.945 339.914 156.258 372.396 88.1344C372.863 87.1545 373.932 86.6804 374.787 87.0735C375.643 87.4667 375.963 88.5793 375.504 89.563C315.168 218.941 254.636 346.084 179.432 504.045C167.531 529.043 155.262 554.812 142.569 581.485C133.263 601.066 123.651 621.271 113.705 642.155M270.63 302.98C233.065 382.531 190.912 471.797 139.445 580.088L270.63 302.98ZM139.445 580.088C130.072 599.783 120.467 619.97 110.608 640.703L139.445 580.088ZM108.256 637.455C107.402 637.051 107.093 635.929 107.566 634.947C107.566 634.947 107.566 634.947 107.566 634.947C107.602 634.871 107.639 634.796 107.675 634.721C182.061 480.217 266.675 300.461 353.43 116.155C357.605 107.287 361.784 98.408 365.968 89.5208C366.432 88.5356 367.503 88.0558 368.362 88.4487C369.221 88.8417 369.542 89.9589 369.079 90.9445C357.891 114.775 346.565 138.98 334.694 164.349C282.295 276.33 219.276 411.006 110.658 636.41C110.185 637.391 109.11 637.859 108.256 637.455ZM106.919 628.144C106.064 627.754 105.74 626.646 106.193 625.662C214.021 391.506 285.68 238.583 359.569 90.8483C360.052 89.8819 361.12 89.431 361.964 89.837C362.809 90.2428 363.115 91.3546 362.651 92.3304C338.204 143.778 313.604 195.855 285.514 255.321C240.394 350.839 186.269 465.421 109.307 627.079C108.841 628.058 107.775 628.533 106.919 628.144ZM105.559 618.824C104.701 618.43 104.382 617.313 104.845 616.328C148.882 522.652 187.931 439.735 224.251 362.927C229.553 351.62 234.653 340.739 239.571 330.247C289.718 223.267 320.894 156.755 353.145 92.2251C353.629 91.2569 354.7 90.806 355.545 91.2148C356.39 91.6235 356.693 92.7392 356.224 93.7149C314.593 180.418 273.153 267.515 227.378 364.317C195.962 431.314 157.468 513.271 107.953 617.759C107.487 618.742 106.416 619.218 105.559 618.824ZM104.203 609.504C103.347 609.111 103.026 607.996 103.487 607.011C150.687 506.186 187.745 427.162 218.148 362.589C223.617 350.901 229.058 339.283 234.478 327.727C228.116 340.95 221.841 353.964 215.676 366.736C180.332 441.954 144.433 518.034 106.923 595.57C106.455 596.538 105.398 597.007 104.548 596.624C103.697 596.241 103.366 595.148 103.804 594.166C125.16 546.218 157.616 479.046 195.361 400.929C198.552 394.326 201.78 387.645 205.042 380.891C207.536 375.729 210.049 370.523 212.581 365.278C219.455 350.649 226.307 336.053 233.147 321.485C268.824 245.494 304.151 170.248 340.287 95.0082C340.755 94.034 341.818 93.5626 342.671 93.951C343.524 94.3394 343.849 95.443 343.4 96.4259C332.397 120.532 321.295 144.544 310.197 168.318C322.258 143.362 334.404 118.494 346.722 93.6077C347.204 92.633 348.281 92.1782 349.129 92.5913C349.976 93.0042 350.275 94.129 349.797 95.1057C315.018 166.105 280.987 237.158 221.266 363.998C212.96 381.753 204.588 399.673 196.124 417.79C167.677 478.684 138.186 541.811 106.596 608.438C106.131 609.421 105.06 609.897 104.203 609.504ZM103.192 587.307C102.335 586.921 102.007 585.813 102.458 584.827C120.667 545.062 145.08 492.599 173.515 432.175C151.075 479.24 128.035 527.364 104.214 576.927C103.743 577.906 102.671 578.376 101.817 577.978C100.963 577.579 100.649 576.462 101.114 575.48C135.512 502.843 165.233 439.653 192.321 382.062C241.392 277.732 281.821 191.776 325.759 101.318C326.232 100.344 327.299 99.8785 328.15 100.274C329.001 100.67 329.318 101.78 328.861 102.761C303.602 156.952 278.095 211.354 252.008 266.667C277.769 212.731 304.82 156.447 332.18 99.9451C332.18 99.9447 332.181 99.9442 332.181 99.9437C332.655 98.9635 333.731 98.4979 334.584 98.9036C335.437 99.3092 335.744 100.433 335.27 101.413C277.205 221.54 220.152 342.779 145.642 501.111C132.835 528.327 119.511 556.64 105.578 586.231C105.116 587.212 104.05 587.693 103.192 587.307ZM102.163 565.101C101.306 564.709 100.984 563.596 101.443 562.611C151.26 455.764 191.21 372.13 225.755 299.984C228.637 293.963 231.482 288.023 234.292 282.157C251.238 246.772 266.908 214.053 281.872 182.501C293.842 157.082 305.784 131.639 317.631 106.288C318.091 105.303 319.16 104.819 320.02 105.207C320.88 105.595 321.206 106.708 320.749 107.695C309.091 132.874 297.273 158.011 284.98 183.932C245.676 267.394 206.064 350.606 168.523 429.471C146.311 476.13 124.824 521.268 104.554 564.035C104.089 565.017 103.02 565.494 102.163 565.101ZM102.485 552.211C101.631 551.811 101.318 550.692 101.785 549.71C111.396 529.514 120.55 510.279 129.286 491.923C219.544 302.266 265.202 206.326 309.52 111.232C309.979 110.249 311.044 109.763 311.904 110.146C312.764 110.529 313.096 111.636 312.646 112.624C255.948 237.181 196.863 360.245 104.882 551.163C104.411 552.143 103.338 552.612 102.485 552.211ZM104.507 535.759C103.656 535.358 103.343 534.242 103.808 533.262C133.349 470.961 159.87 414.403 184.574 361.719C227.468 270.246 264.884 190.455 303.117 112.567C303.591 111.603 304.648 111.141 305.495 111.529C306.343 111.917 306.668 113.012 306.227 113.991C248.796 241.63 188.396 366.652 106.904 534.717C106.43 535.694 105.359 536.159 104.507 535.759ZM104.845 522.879C103.989 522.482 103.673 521.362 104.139 520.378C115.387 496.662 125.936 474.401 135.861 453.442C150.257 422.979 164.605 392.525 178.97 362.034C183.229 352.995 187.489 343.952 191.752 334.906C168.223 383.95 140.826 440.506 107.568 508.951C107.094 509.927 106.024 510.392 105.173 509.992C104.322 509.592 104.009 508.477 104.472 507.496C137.923 436.758 166.081 377.728 190.968 325.554C227.942 248.042 257.698 185.661 286.871 122.498C287.325 121.515 288.386 121.024 289.248 121.4C290.109 121.775 290.448 122.876 290.008 123.865C277.953 150.954 265.673 177.976 252.333 206.773C266.416 177.141 280.619 147.404 294.999 117.522C295.471 116.541 296.546 116.072 297.4 116.474C298.254 116.877 298.565 117.999 298.094 118.98C298.093 118.981 298.093 118.982 298.092 118.983M104.845 522.879C105.702 523.276 106.775 522.802 107.242 521.818L104.845 522.879ZM107.242 521.818C117.868 499.472 128.44 477.152 138.985 454.838L107.242 521.818ZM138.985 454.838C168.414 392.695 192.366 341.992 212.834 298.662C248.231 223.729 273.211 170.848 298.09 118.988M107.193 493.541C106.346 493.139 106.035 492.028 106.497 491.05C133.394 434.045 155.632 387.026 174.436 347.336C178.981 337.432 183.487 327.587 187.969 317.794C190.479 312.312 192.981 306.846 195.477 301.396C201.854 287.477 208.196 273.661 214.544 259.937C192.184 307.762 169.381 356.434 145.278 406.719C132.842 433.382 121.051 457.958 109.902 479.665C109.408 480.627 108.335 481.064 107.496 480.644C106.658 480.225 106.366 479.106 106.843 478.135C118.974 453.432 130.718 429.18 142.167 405.294C152.779 382.541 163.87 358.248 175.446 332.891C177.724 327.902 180.02 322.873 182.335 317.805C195.77 288.401 209.836 257.739 224.539 226.54C212.833 251.153 200.987 275.825 189.066 300.638L186.598 305.775C161.279 358.476 135.639 411.842 110.277 466.696C109.822 467.68 108.759 468.17 107.898 467.792C107.036 467.413 106.7 466.309 107.144 465.32C138.441 395.723 192.065 284.064 250.272 162.86C254.345 154.379 258.441 145.851 262.553 137.288C263.021 136.313 264.085 135.841 264.938 136.231C265.791 136.621 266.115 137.726 265.664 138.709C255.438 160.996 245.034 183.25 234.502 205.532C247.228 178.869 260.415 151.934 274.067 125.169C274.557 124.21 275.623 123.768 276.462 124.177C277.302 124.586 277.604 125.694 277.142 126.667C263.305 155.797 249.607 184.974 235.844 214.384C250.316 183.833 265.046 153.679 280.496 123.782C280.989 122.829 282.051 122.393 282.887 122.802C283.723 123.21 284.025 124.313 283.569 125.284C269.323 155.547 255.264 185.116 236.828 223.891C221.163 256.839 202.338 296.433 177.553 348.747M109.92 451.339C109.066 450.963 108.728 449.872 109.16 448.888C116.115 433.02 123.94 415.404 132.489 396.454C126.113 409.669 119.503 423.294 112.615 437.403C112.139 438.379 111.067 438.841 110.217 438.437C109.366 438.034 109.057 436.916 109.525 435.937C114.274 425.988 119.275 415.525 124.494 404.606C131.716 389.495 139.354 373.513 147.319 356.817C136.696 378.652 125.353 401.123 112.912 424.588C112.413 425.529 111.358 425.953 110.529 425.545C109.7 425.138 109.397 424.046 109.844 423.079C129.388 380.797 148.924 339.963 168.189 299.696C183.293 268.127 198.23 236.906 212.874 205.606C213.333 204.626 214.394 204.142 215.253 204.521C216.112 204.901 216.447 206.002 216.004 206.989C212.387 215.057 208.796 223.092 205.211 231.116C192.289 260.038 179.432 288.812 165.613 318.41C180.413 287.277 196.016 254.299 211.924 220.345C212.153 219.855 212.382 219.364 212.61 218.874C218.219 206.851 223.807 194.872 229.431 182.841C229.892 181.855 230.962 181.371 231.822 181.76C232.682 182.15 233.007 183.264 232.548 184.251C227.908 194.232 223.277 204.157 218.669 214.007C228.161 194.851 237.87 175.582 247.714 156.435C248.205 155.48 249.268 155.042 250.105 155.449C250.942 155.857 251.246 156.961 250.788 157.933C198.886 268.109 146.643 378.218 112.29 450.269C111.827 451.239 110.773 451.715 109.92 451.339ZM112.57 409.105C111.746 408.712 111.427 407.644 111.847 406.678C118.953 390.341 125.74 375.251 132.299 361.046C128.376 369.201 124.039 378.035 119.112 387.864C117.354 391.412 115.518 395.054 113.595 398.797C113.098 399.764 112.017 400.199 111.177 399.769C110.338 399.34 110.057 398.208 110.55 397.239C112.463 393.471 114.293 389.844 116.047 386.344C123.128 372.055 128.949 359.297 134.222 347.62C134.85 346.228 135.471 344.852 136.085 343.489C141.893 330.609 147.129 318.996 152.782 308.095C153.27 307.153 154.316 306.716 155.149 307.106C155.982 307.496 156.304 308.573 155.878 309.544C152.123 318.102 148.385 326.521 144.302 335.457C150.728 321.964 156.973 309.155 163.133 296.647C169.361 283.373 175.898 269.994 182.858 256.794C183.36 255.841 184.432 255.417 185.264 255.843C186.096 256.268 186.38 257.385 185.903 258.352C183.367 263.48 180.835 268.586 178.3 273.7C174.293 281.783 170.277 289.884 166.225 298.111C159.944 311.5 153.97 324.801 148.181 337.732C147.716 338.772 147.251 339.809 146.788 340.844C135.81 365.375 125.456 388.509 114.932 408.148C114.434 409.077 113.395 409.498 112.57 409.105Z" fill="#C3C8E1"/>
<path fill-rule="evenodd" clip-rule="evenodd" d="M407.718 528.964C428.382 518.716 451.875 515.435 476.028 514.796C491.375 514.39 507.14 515.054 522.674 515.708C531.546 516.082 540.342 516.452 548.941 516.618C572.726 517.077 595.131 515.986 614.316 509.3C633.388 502.654 649.241 490.497 660.105 468.714C679.127 424.968 661.423 387.633 633.028 350.684C623.45 338.22 612.748 325.914 601.935 313.48C596.734 307.498 591.507 301.487 586.367 295.415C570.605 276.795 555.72 257.661 545.282 237.351C537.785 225.251 531.469 212.389 525.458 199.573C524.075 196.627 522.71 193.684 521.351 190.755C516.775 180.894 512.264 171.171 507.385 161.88C494.75 137.821 479.796 116.963 455.508 105.013C405.857 84.5359 348.754 88.6605 296.551 118.983L296.541 118.989C274.639 131.542 257.173 151.273 241.212 173.979C233.234 185.329 225.657 197.385 218.095 209.627C216.729 211.837 215.364 214.054 213.998 216.273C207.814 226.314 201.595 236.413 195.16 246.228C187.061 259.984 178.632 273.195 170.415 286.074C169.207 287.968 168.003 289.854 166.806 291.734C157.446 306.432 148.469 320.734 140.623 335.061C124.936 363.702 113.853 392.291 113.346 423.949C113.345 423.99 113.343 424.031 113.34 424.072C112.448 436.002 111.305 448.629 110.124 461.668C106.293 503.989 102.069 550.649 104.755 591.907C108.269 645.89 123.559 689.688 166.237 702.515L166.28 702.528L166.28 702.529C187.126 709.484 206.845 704.893 226.226 693.337C245.681 681.735 264.729 663.15 284.076 642.219C290.988 634.742 297.948 626.954 304.971 619.095C317.517 605.055 330.262 590.793 343.285 577.687C363.627 557.214 384.902 539.287 407.718 528.964ZM164.92 706.223C186.83 713.525 207.57 708.627 227.64 696.659C247.641 684.732 267.041 665.749 286.42 644.784C293.441 637.189 300.449 629.346 307.491 621.465C319.975 607.493 332.565 593.403 345.52 580.365C365.743 560.013 386.602 542.5 408.774 532.476C408.795 532.467 408.816 532.457 408.837 532.446C428.801 522.537 451.712 519.273 475.707 518.639C490.964 518.235 506.508 518.891 521.952 519.542C530.85 519.918 539.715 520.292 548.472 520.461C572.301 520.921 595.219 519.854 615.032 512.95C634.943 506.011 651.75 493.164 663.197 470.178C663.214 470.143 663.231 470.108 663.246 470.072C683.313 423.991 664.296 385.048 635.846 348.027C626.21 335.488 615.399 323.055 604.55 310.579C599.364 304.616 594.17 298.642 589.091 292.642C573.34 274.035 558.643 255.113 548.385 235.135C548.365 235.094 548.343 235.055 548.319 235.017C540.914 223.073 534.656 210.339 528.646 197.526C527.278 194.61 525.922 191.688 524.568 188.77C519.986 178.895 515.427 169.069 510.505 159.696C497.737 135.384 482.381 113.821 457.216 101.456C457.187 101.442 457.158 101.429 457.128 101.417C406.579 80.5524 348.383 84.7343 295.184 115.633C272.517 128.626 254.611 148.95 238.495 171.876C230.434 183.344 222.797 195.499 215.23 207.748C213.858 209.97 212.488 212.194 211.118 214.418C204.926 224.473 198.739 234.521 192.331 244.291C192.311 244.322 192.292 244.353 192.273 244.385C184.21 258.082 175.818 271.235 167.589 284.134C166.38 286.028 165.175 287.918 163.975 289.802C154.615 304.499 145.565 318.915 137.639 333.387C121.79 362.324 110.349 391.639 109.813 424.264C108.932 436.032 107.799 448.539 106.626 461.49C102.788 503.867 98.5197 551.003 101.229 592.613C104.765 646.94 120.251 692.785 164.92 706.223Z" fill="#C3C8E1"/>
</g>
</svg>
