<svg width="716" height="700" viewBox="0 0 716 700" fill="none" xmlns="http://www.w3.org/2000/svg">
<g opacity="0.15">
<path fill-rule="evenodd" clip-rule="evenodd" d="M574.86 504.019C573.85 504.149 572.929 503.442 572.8 502.437C571.08 489.056 569.445 476.352 567.891 464.27C550.759 331.118 543.341 273.467 538.103 217.198C538.01 216.191 538.749 215.292 539.759 215.184C540.77 215.077 541.673 215.801 541.783 216.806C547.765 271.658 554.61 325.936 561.593 381.304C566.57 420.77 571.617 460.789 576.471 501.965C576.589 502.972 575.869 503.889 574.86 504.019ZM580.489 495.878C579.481 496.004 578.565 495.296 578.437 494.293C571.673 441.264 564.933 385.011 558.011 327.237C553.784 291.955 549.488 256.107 545.078 220.079C544.957 219.087 545.652 218.174 546.645 218.023C547.638 217.871 548.566 218.536 548.736 219.521C551.866 237.66 554.582 255.588 557.247 275.4C555.365 257.235 553.69 240.028 552.042 222.861C552.042 222.86 552.042 222.86 552.042 222.859C551.945 221.847 552.689 220.942 553.705 220.838C554.721 220.735 555.624 221.47 555.723 222.482C564.363 311.039 575.125 397.494 587.737 485.639C587.881 486.645 587.18 487.582 586.171 487.733C585.161 487.884 584.224 487.193 584.077 486.188C578.86 450.564 574.559 419.524 570.927 391.793C572.139 402.831 573.418 414.528 574.778 426.978C576.983 447.152 579.403 469.305 582.11 493.837C582.221 494.842 581.497 495.753 580.489 495.878ZM591.773 479.596C590.769 479.73 589.849 479.036 589.708 478.038C584.646 442.23 580.714 408.268 577.099 375.499C576.188 367.237 575.296 359.051 574.412 350.93C574.266 349.59 574.121 348.252 573.975 346.915C569.447 305.346 565.051 265.463 559.024 225.786L560.852 225.499L562.692 225.312C566.516 265.174 571.716 305.236 577.696 351.297C578.699 359.023 579.724 366.918 580.768 375.009C584.383 407.784 588.312 441.721 593.37 477.501L591.539 477.769L589.702 477.991C585.334 440.023 581.08 406.352 577.099 375.499M580.768 375.009C584.746 405.836 589.001 439.511 593.376 477.548C593.491 478.549 592.777 479.462 591.773 479.596M597.431 471.451C596.421 471.597 595.488 470.902 595.346 469.897C587.702 416.041 580.306 352.156 572.443 284.243C570.186 264.746 567.89 244.917 565.539 224.898C565.421 223.89 566.143 222.972 567.154 222.844C568.165 222.716 569.084 223.426 569.21 224.433C572.356 249.566 575.153 274.1 578.139 300.299C583.47 347.06 589.405 399.125 599.009 469.367C599.146 470.373 598.44 471.305 597.431 471.451ZM602.987 463.319C601.976 463.424 601.075 462.696 600.97 461.689C596.888 422.779 591.85 384.107 586.813 345.443L586.709 344.642C581.638 305.718 576.576 266.802 572.506 227.701C572.401 226.7 573.123 225.796 574.126 225.671C575.13 225.546 576.043 226.246 576.177 227.243C577.982 240.63 579.792 253.733 581.6 266.819C589.548 324.356 597.454 381.58 604.65 461.31C604.741 462.318 603.999 463.215 602.987 463.319ZM608.651 455.177C607.64 455.297 606.727 454.581 606.607 453.575C597.357 375.397 588.041 298.989 579.479 230.567C579.354 229.564 580.063 228.643 581.068 228.502C582.074 228.362 583 229.054 583.144 230.055C593.275 300.498 601.644 372.9 610.282 453.139C610.391 454.147 609.662 455.058 608.651 455.177ZM614.361 447.025C613.374 447.182 612.445 446.53 612.263 445.553C604.063 401.567 599.5 355.883 595.055 311.391C592.793 288.742 590.562 266.402 587.897 244.752C587.415 240.941 586.934 237.171 586.449 233.4C586.319 232.393 587.033 231.466 588.045 231.329C589.056 231.191 589.983 231.896 590.116 232.902C590.622 236.721 591.11 240.561 591.585 244.418C594.706 269.095 597.874 295.444 602.5 333.918C605.96 362.695 610.235 398.255 615.917 444.972C616.037 445.96 615.348 446.868 614.361 447.025ZM619.915 438.895C618.908 439.011 617.999 438.299 617.878 437.297C614.533 409.711 611.308 383.748 608.206 358.771C602.743 314.788 597.661 273.867 592.972 232.543C592.858 231.539 593.577 230.626 594.584 230.497C595.591 230.368 596.509 231.07 596.642 232.072C606.614 307.268 615.361 374.409 621.553 436.872C621.653 437.876 620.922 438.778 619.915 438.895ZM625.566 430.754C624.568 430.878 623.659 430.186 623.518 429.195C620.845 410.387 617.973 385.011 614.703 356.107C614.27 352.278 613.829 348.388 613.382 344.442C609.552 310.695 605.173 272.905 599.947 235.417C599.809 234.428 600.488 233.504 601.478 233.336C602.468 233.167 603.408 233.816 603.595 234.797C613.622 287.386 618.691 340.194 626.899 425.711L627.189 428.738C627.285 429.735 626.564 430.63 625.566 430.754ZM529.334 565.489C528.322 565.617 527.402 564.906 527.277 563.9C524.46 541.274 521.689 519.221 518.971 497.667C517.063 483.038 515.063 467.927 513.011 452.419C502.819 375.405 491.326 288.558 483.242 201.893C483.148 200.885 483.888 199.985 484.9 199.878C485.911 199.771 486.814 200.498 486.922 201.505C495.754 284.301 506.537 369.672 518.503 464.411C519.861 475.165 521.235 486.04 522.623 497.045M534.958 557.349C533.96 557.468 533.053 556.772 532.917 555.78C510.549 392.789 502.063 314.04 495.194 250.296C493.497 234.548 491.899 219.715 490.215 204.755C490.101 203.747 490.828 202.831 491.84 202.709C492.853 202.586 493.769 203.302 493.888 204.31C499.477 251.338 505.515 297.544 511.386 342.477C521.216 417.707 530.579 489.368 536.591 555.341C536.682 556.338 535.957 557.23 534.958 557.349ZM551.869 532.926C550.86 533.05 549.946 532.341 549.819 531.338C543.515 481.208 537.128 427.91 530.598 373.41C524.12 319.349 517.501 264.106 510.678 209.601C510.552 208.593 511.269 207.668 512.281 207.534C513.293 207.4 514.217 208.107 514.347 209.114C529.45 325.961 543.358 437.619 553.493 530.887C553.602 531.893 552.877 532.803 551.869 532.926ZM557.512 524.784C556.501 524.914 555.58 524.205 555.452 523.199C544.198 434.614 537.446 374.033 532.322 328.059C529.357 301.458 526.937 279.747 524.505 260.331C522.354 244.049 520.129 228.407 517.655 212.482C517.5 211.481 518.186 210.537 519.19 210.371C520.195 210.204 521.141 210.877 521.307 211.877C523.851 227.207 526.007 242.557 528.153 259.687C532.551 292.951 536.645 328.871 541.931 375.251C546.468 415.059 551.883 462.572 559.122 522.725C559.244 523.733 558.524 524.653 557.512 524.784ZM563.145 516.645C562.141 516.773 561.225 516.074 561.089 515.076C551.318 443.266 543.552 376.54 535.915 310.922C532.254 279.465 528.622 248.262 524.813 216.875C524.747 216.333 524.682 215.791 524.616 215.249C524.493 214.239 525.216 213.317 526.23 213.188C527.243 213.06 528.164 213.774 528.287 214.783C528.287 214.783 528.287 214.784 528.287 214.784C528.353 215.323 528.418 215.862 528.484 216.401C531.706 242.909 535.172 270.006 538.831 298.612C546.741 360.461 555.554 429.362 564.76 514.609C564.868 515.61 564.149 516.517 563.145 516.645ZM568.793 508.502C567.783 508.637 566.858 507.932 566.726 506.926C556.912 432.419 549.115 366.208 541.51 301.639C538.215 273.656 534.956 245.982 531.585 218.075C531.463 217.068 532.183 216.147 533.195 216.016C534.206 215.886 535.128 216.595 535.255 217.602C538.932 246.661 542.294 274.878 546.484 310.045C552.076 356.967 559.141 416.261 570.394 506.436C570.52 507.443 569.804 508.367 568.793 508.502ZM630.7 418.961C629.686 419.057 628.79 418.318 628.696 417.308C627.08 399.913 623.763 374.348 619.894 344.526C619.74 343.333 619.584 342.133 619.427 340.927C616.448 317.954 613.177 292.619 610.128 266.686C608.831 256.934 607.729 247.571 606.905 238.151C606.817 237.145 607.559 236.251 608.568 236.147C609.577 236.043 610.477 236.767 610.586 237.771C611.611 247.274 612.69 256.783 613.798 266.214C615.001 275.253 616.374 284.644 617.852 294.761C618.563 299.62 619.297 304.647 620.05 309.884C624.048 337.72 628.523 371.373 632.38 416.96C632.466 417.971 631.715 418.866 630.7 418.961ZM517.628 578.114C516.618 578.246 515.696 577.54 515.566 576.535C499.773 454.905 490.908 377.264 484.131 317.9C482.786 306.116 481.523 295.053 480.304 284.509C476.715 255.334 473.257 227.585 469.756 199.952C469.628 198.948 470.339 198.024 471.347 197.885C472.355 197.746 473.282 198.443 473.422 199.446C477.185 226.485 480.382 252.966 483.96 283.921C491.6 346.025 499.835 414.581 510.363 502.219C513.149 525.417 516.096 549.951 519.235 576.056C519.356 577.063 518.638 577.982 517.628 578.114ZM523.228 569.977C522.218 570.088 521.312 569.367 521.199 568.362C510.092 469.733 501.318 399.299 494.149 343.042C492.72 331.834 491.355 321.188 490.048 310.992C484.796 270.019 480.477 236.332 476.722 202.753C476.609 201.748 477.332 200.835 478.341 200.709C479.35 200.583 480.267 201.292 480.394 202.296C484.071 231.35 487.76 260.189 491.375 288.448C505.274 397.101 518.076 497.18 524.877 567.958C524.974 568.964 524.238 569.866 523.228 569.977ZM540.155 545.555C539.149 545.679 538.235 544.974 538.106 543.974C527.223 460.162 516.158 367.088 505.009 273.304C502.405 251.403 499.797 229.464 497.185 207.595C497.065 206.59 497.782 205.672 498.79 205.539C499.799 205.406 500.72 206.108 500.854 207.112C517.617 332.754 532.309 454.507 541.778 543.52C541.885 544.523 541.161 545.43 540.155 545.555ZM545.778 537.412C544.778 537.529 543.872 536.828 543.741 535.835C543.399 533.26 543.056 530.683 542.714 528.104C528.924 424.264 514.618 316.541 504.15 210.385C504.05 209.374 504.791 208.469 505.805 208.361C506.82 208.253 507.726 208.983 507.83 209.993C514.524 274.881 522.883 339.297 530.338 395.961C530.878 400.067 531.413 404.132 531.943 408.155C538.721 459.618 544.566 503.995 547.415 535.404C547.506 536.403 546.778 537.295 545.778 537.412ZM635.926 407.161C634.924 407.274 634.021 406.568 633.895 405.573C629.554 371.354 626.428 343.63 623.725 319.657C623.591 318.466 623.458 317.285 623.326 316.112C622.949 313.523 622.576 310.986 622.209 308.495C621.904 306.429 621.603 304.394 621.306 302.388C617.926 279.556 615.096 260.444 613.871 240.934C613.809 239.95 614.535 239.088 615.518 238.976C616.502 238.865 617.394 239.543 617.544 240.517C621.072 263.46 623.753 286.896 626.995 315.625C630.493 339.667 634.344 368.191 637.572 405.159C637.659 406.159 636.927 407.049 635.926 407.161ZM505.917 590.74C504.91 590.872 503.989 590.171 503.854 589.169C489.789 484.856 473.91 349.985 457.887 212.117C457.193 206.171 456.502 200.223 455.815 194.277C455.698 193.267 456.426 192.349 457.44 192.226C458.454 192.103 459.371 192.822 459.489 193.832C459.489 193.832 459.489 193.833 459.489 193.833C459.49 193.843 459.491 193.852 459.492 193.861C460.181 199.799 460.871 205.733 461.56 211.662C469.628 280.728 478.19 349.597 486.433 415.905C493.93 476.21 501.163 534.397 507.523 588.687C507.641 589.691 506.924 590.607 505.917 590.74ZM511.571 582.595C510.56 582.74 509.627 582.042 509.487 581.036C497.173 492.496 488.56 416.55 480.559 346.006C474.711 294.434 469.189 245.749 462.789 197.141M511.571 582.595C512.582 582.451 513.289 581.517 513.151 580.511L511.571 582.595ZM513.151 580.511C502.321 501.539 494.391 433.248 487.296 370.859L513.151 580.511ZM487.296 370.859C486.523 364.059 485.759 357.329 485.003 350.662L487.296 370.859ZM485.003 350.662C478.823 296.173 473.125 245.944 466.453 196.625L485.003 350.662ZM462.788 197.14C462.788 197.138 462.788 197.136 462.788 197.134C462.655 196.127 463.366 195.198 464.377 195.058C465.388 194.917 466.317 195.619 466.453 196.625M494.2 603.363C493.19 603.495 492.267 602.789 492.137 601.783L492.135 601.768L490.959 592.699C482.708 529.053 475.83 475.999 469.948 429.822C472.233 450.368 474.4 470.262 476.478 489.34C481.244 533.099 485.543 572.567 489.728 605.782C489.855 606.791 489.137 607.716 488.124 607.85C487.111 607.983 486.186 607.273 486.059 606.264C486.059 606.264 486.059 606.264 486.059 606.264C486.057 606.249 486.055 606.234 486.053 606.22C462.731 421.551 451.557 326.694 442.871 252.954C440.066 229.139 437.52 207.527 434.908 185.803C434.788 184.805 435.495 183.89 436.495 183.748C437.495 183.606 438.42 184.29 438.572 185.283C442.512 211.002 446.174 236.65 449.597 262.006C446.832 237.203 444.306 213.209 441.873 188.592C441.774 187.59 442.502 186.689 443.507 186.57C444.512 186.451 445.421 187.158 445.548 188.157C453.478 250.52 460.906 312.154 472.935 411.98C479.114 463.254 486.507 524.604 495.807 601.304C495.929 602.31 495.21 603.231 494.2 603.363ZM499.813 595.227C498.801 595.347 497.887 594.629 497.769 593.621C494.749 567.713 491.078 536.768 486.919 502.129C483.768 476.854 480.398 450.45 476.929 423.263C476.192 417.487 475.45 411.677 474.705 405.834C465.928 337.001 456.685 263.726 448.844 191.437C448.735 190.432 449.461 189.521 450.47 189.399C451.478 189.276 452.393 189.986 452.518 190.99C466.541 303.654 480.111 414.377 490.59 501.66C494.657 534.287 498.361 565.044 501.444 593.186C501.555 594.194 500.825 595.107 499.813 595.227ZM641.126 395.362C640.114 395.482 639.201 394.765 639.082 393.758C637.753 382.464 636.48 371.954 635.264 362.115C633.59 349.386 631.89 337.585 630.268 326.323C629.717 322.5 629.175 318.738 628.646 315.024C625.347 291.854 622.555 270.513 621.282 247.405C621.227 246.403 621.986 245.537 622.99 245.455C623.994 245.374 624.874 246.108 624.969 247.106C626.91 267.447 629.652 288.769 633.126 315.786C634.879 329.425 636.82 344.516 638.938 361.665C640.243 371.591 641.533 382.084 642.757 393.321C642.867 394.329 642.138 395.241 641.126 395.362ZM646.765 387.222C645.758 387.344 644.846 386.636 644.719 385.634C642.799 370.447 641.124 357.343 639.642 345.741C634.668 306.816 631.853 284.787 629.146 257.625C629.046 256.618 629.781 255.713 630.792 255.6C631.803 255.487 632.71 256.209 632.824 257.215C634.979 276.331 637.53 296.293 640.063 316.124C643.101 339.898 646.115 363.481 648.393 385.19C648.498 386.194 647.772 387.1 646.765 387.222ZM652.017 375.417C651.018 375.571 650.085 374.899 649.921 373.907C647.11 356.901 645.177 339.049 643.246 320.679C643.127 319.543 643.007 318.405 642.888 317.265C641.869 307.553 640.835 297.7 639.658 287.741C638.687 279.693 637.687 271.926 636.571 264.187C636.425 263.182 637.126 262.244 638.136 262.092C639.146 261.94 640.083 262.631 640.231 263.636C641.423 271.781 642.458 279.874 643.401 287.889C644.357 295.839 645.29 304.084 646.28 312.838C648.265 330.381 650.481 349.97 653.579 373.344C653.711 374.34 653.016 375.264 652.017 375.417ZM482.038 612.335C481.024 612.465 480.102 611.753 479.978 610.744C475.302 572.905 470.998 538.166 466.999 505.893C450.007 368.744 438.532 276.12 427.493 179.31C427.378 178.303 428.101 177.388 429.112 177.262C430.122 177.136 431.039 177.846 431.165 178.852C436.281 219.823 441.158 260.262 448.028 317.22C456.026 383.537 466.726 472.248 483.648 610.267M482.038 612.335C483.051 612.205 483.772 611.281 483.648 610.272L482.038 612.335ZM483.648 610.272C483.648 610.272 483.648 610.271 483.648 610.271L483.648 610.272ZM656.99 363.642C656.024 363.678 655.198 362.967 655.094 362.01C653.976 351.724 653.03 342.472 652.164 334.013C651.838 330.824 651.524 327.749 651.216 324.773C651.019 323.63 650.82 322.479 650.619 321.321C650.496 320.617 650.373 319.91 650.25 319.202C647.709 304.605 644.995 289.011 644.411 274.137C644.373 273.175 645.084 272.342 646.043 272.224C647.003 272.106 647.887 272.743 648.073 273.687C651.026 288.643 652.813 304.263 654.883 324.257C657.263 338.112 659.269 351.191 658.78 361.873C658.736 362.835 657.956 363.606 656.99 363.642ZM475.512 613.162C474.499 613.291 473.578 612.579 473.454 611.57C443.233 366.056 431.645 271.637 420.524 176.488C420.407 175.484 421.124 174.569 422.13 174.436C423.137 174.304 424.058 175.004 424.193 176.005C440.982 299.931 455.303 423.711 466.162 517.561C470.35 553.765 474.024 585.515 477.125 611.102C477.247 612.111 476.525 613.033 475.512 613.162ZM469.422 617.648C468.417 617.771 467.504 617.065 467.374 616.065C457.474 539.399 448.917 471.938 441.224 409.552C448.017 467.589 455.69 535.784 464.969 620.093C465.079 621.097 464.357 622.008 463.349 622.134C462.342 622.259 461.426 621.553 461.297 620.551C445.291 496.144 434.857 408.695 426.747 339.399C425.133 325.612 423.612 312.544 422.157 300.048C416.299 249.731 411.519 208.675 406.145 167.198C406.016 166.195 406.722 165.27 407.728 165.127C408.734 164.983 409.663 165.674 409.809 166.674C416.294 211.157 422.315 255.347 428.817 307.007C423.282 260.287 418.131 215.336 413.111 169.992C413 168.993 413.713 168.086 414.714 167.952C415.714 167.818 416.633 168.507 416.778 169.501C435.2 295.451 450.668 421.103 471.047 615.616C471.153 616.619 470.428 617.525 469.422 617.648ZM661.473 344.516C660.476 344.652 659.558 343.97 659.405 342.981C658.877 339.559 658.364 336.292 657.872 333.161C654.992 314.825 652.838 301.114 652.713 287.876C652.703 286.891 653.473 286.068 654.46 286.008C655.446 285.947 656.302 286.671 656.401 287.65C657.18 295.318 658.205 303.193 659.342 311.934L659.401 312.393C660.562 321.312 661.834 331.123 663.071 342.48C663.18 343.475 662.47 344.379 661.473 344.516ZM457.282 626.617C456.277 626.749 455.358 626.053 455.219 625.054C446.722 564.027 435.898 472.42 423.664 368.885C415.848 302.739 407.457 231.725 398.73 160.704C398.606 159.698 399.321 158.777 400.331 158.642C401.34 158.507 402.263 159.21 402.398 160.214C424.343 324.363 443.247 487.36 458.888 624.57C459.002 625.572 458.286 626.484 457.282 626.617ZM451.186 631.103C450.173 631.228 449.255 630.513 449.134 629.504C446.098 604.214 443.119 579.303 440.182 554.721C433.856 503.168 427.629 454.829 421.689 408.715C409.968 317.731 399.364 235.412 391.312 154.176C391.213 153.174 391.94 152.273 392.945 152.154C393.949 152.034 394.859 152.74 394.987 153.739C410.169 272.132 424.412 391.432 439.655 519.097C441.043 530.718 442.438 542.408 443.844 554.174C446.815 578.384 449.809 603.308 452.806 629.05C452.924 630.059 452.199 630.978 451.186 631.103ZM445.103 635.588C444.09 635.712 443.172 634.995 443.053 633.985C428.042 506.86 414.949 396.119 401.766 289.385C395.688 240.53 390.031 195.914 384.349 151.4C384.22 150.392 384.936 149.465 385.949 149.33C386.961 149.194 387.887 149.901 388.017 150.909C393.951 196.835 399.703 242.5 405.437 288.922C416.776 380.08 429.577 485.996 446.725 633.526M445.103 635.588C446.117 635.463 446.843 634.545 446.726 633.535L445.103 635.588ZM446.726 633.535C446.726 633.534 446.726 633.533 446.726 633.532L446.726 633.535ZM438.598 636.415C437.587 636.547 436.664 635.84 436.534 634.834C431.178 593.276 426.389 555.489 422.07 520.899C420.919 512.008 419.759 503.058 418.592 494.053C404.21 383.108 388.752 263.858 376.929 144.867C376.829 143.865 377.556 142.964 378.561 142.844C379.565 142.725 380.475 143.431 380.603 144.43C385.932 186.044 390.803 227.885 396.709 278.63C398.559 294.523 400.511 311.29 402.61 329.197C408.7 381.145 416.034 442.698 425.734 520.374C430.815 559.644 435.711 597.766 440.204 634.353C440.328 635.36 439.61 636.282 438.598 636.415ZM432.512 640.9C431.506 641.029 430.589 640.328 430.455 639.328C424.935 598.161 420.007 560.637 415.572 526.205C420.31 567.012 424.407 605.102 427.605 639.719C427.698 640.723 426.963 641.619 425.957 641.731C424.95 641.842 424.046 641.127 423.928 640.126C420.132 607.985 416.512 577.223 413.027 547.614C401.508 449.737 391.472 364.458 381.489 283.579C381.445 283.237 381.401 282.895 381.357 282.553C375.178 234.671 368.826 185.442 362.553 135.602C362.426 134.596 363.141 133.672 364.151 133.535C365.161 133.399 366.086 134.102 366.22 135.108C372.741 184.043 378.938 232.705 385.155 283.072C388.206 306.717 391.214 330.034 394.15 352.936C388.802 307.614 384.479 269.238 380.536 234.235C379.908 228.657 379.29 223.165 378.678 217.745C375.572 191.448 372.503 164.929 369.519 138.406C369.406 137.398 370.132 136.483 371.144 136.36C372.156 136.237 373.072 136.952 373.193 137.959C376.295 163.846 379.233 189.659 382.354 217.32C390.764 288.507 399.449 358.074 407.459 421.722C408.849 432.769 410.219 443.638 411.564 454.307C420.828 527.805 428.891 591.781 434.126 638.858C434.237 639.861 433.518 640.771 432.512 640.9ZM419.464 642.557C418.457 642.687 417.538 641.984 417.405 640.982C403.164 533.809 390.24 433.859 378.565 336.858C380.208 351.251 381.871 365.921 383.57 380.914C392.223 457.254 401.828 541.989 414.549 641.312C414.678 642.319 413.963 643.245 412.952 643.382C411.941 643.519 411.014 642.815 410.881 641.808C396.722 534.763 385.902 442.958 376.138 358.92C375.079 349.81 374.033 340.792 372.997 331.855C364.47 258.35 356.587 190.384 347.724 122.642C347.593 121.64 348.298 120.714 349.303 120.569C350.308 120.423 351.238 121.112 351.387 122.112C357.341 162.231 362.629 202.601 367.758 244.676C363.351 205.979 359.144 167.543 355.134 129.082C355.029 128.078 355.755 127.172 356.761 127.05C357.767 126.928 358.68 127.635 358.807 128.636C360.652 143.089 362.49 157.44 364.345 171.924C378.673 283.768 394.023 403.588 421.075 640.509C421.19 641.513 420.471 642.427 419.464 642.557ZM406.407 644.215C405.396 644.341 404.478 643.629 404.353 642.623C395.795 573.533 387.375 502.865 378.864 431.432C375.29 401.434 371.699 371.302 368.076 341.095C367.264 334.641 366.467 328.314 365.684 322.105C363.948 308.348 362.279 295.168 360.67 282.463C352.883 220.974 346.505 170.607 340.751 119.783C340.637 118.778 341.359 117.864 342.367 117.737C343.376 117.609 344.293 118.316 344.422 119.319C353.888 192.934 362.915 266.996 371.745 340.613C381.436 417.677 393.167 512.859 408.026 642.165C408.141 643.172 407.418 644.089 406.407 644.215ZM399.876 645.045C398.864 645.166 397.95 644.449 397.831 643.442C366.13 375.283 351.227 256.277 338.039 150.969C336.607 139.535 335.195 128.262 333.784 116.977C333.659 115.971 334.372 115.049 335.381 114.912C336.39 114.775 337.315 115.475 337.452 116.479C359.461 278.318 379.682 443.191 401.506 643.005C401.616 644.012 400.887 644.925 399.876 645.045ZM393.353 645.875C392.342 645.997 391.428 645.283 391.306 644.277C383.391 578.779 375.267 513.743 367.199 449.155C352.925 334.888 338.826 222.021 326.367 110.471C326.255 109.465 326.978 108.553 327.986 108.427C328.995 108.301 329.911 109.009 330.039 110.012C332.207 127.017 334.386 144.068 336.578 161.217C354.979 305.19 374.258 456.04 394.98 643.833C395.091 644.84 394.364 645.752 393.353 645.875ZM386.416 643.043C385.409 643.183 384.483 642.487 384.342 641.486C378.845 602.577 373.692 562.808 368.708 522.304C372.922 559.772 377.189 599.475 381.489 641.848C381.59 642.852 380.863 643.755 379.856 643.875C378.85 643.994 377.939 643.285 377.814 642.284L376.297 630.154C341.399 351.192 326.089 228.806 312.429 104.813C312.318 103.807 313.043 102.895 314.052 102.771C315.062 102.648 315.977 103.358 316.102 104.363C321.239 145.713 326.768 187.635 332.601 231.859C339.341 282.963 346.486 337.139 353.901 397.054C353.368 392.429 352.836 387.797 352.303 383.157C341.681 296.223 330.396 202.284 319.399 107.651C319.282 106.646 320.002 105.73 321.01 105.6C322.019 105.471 322.939 106.176 323.069 107.179C334.049 191.407 343.55 274.308 352.811 355.105C353.868 364.332 354.923 373.532 355.976 382.702C367.95 480.707 379.082 569.812 388.008 640.978C388.133 641.981 387.423 642.904 386.416 643.043ZM372.896 641.046C371.886 641.171 370.969 640.46 370.845 639.455C370.084 633.321 369.307 627.053 368.514 620.658C351.663 484.74 327.656 291.112 305.018 98.3411C304.9 97.3358 305.618 96.4188 306.627 96.2881C307.636 96.1573 308.556 96.8617 308.688 97.8653C336.692 311.329 361.987 527.171 374.517 639.001C374.63 640.008 373.906 640.921 372.896 641.046ZM366.366 641.874C365.354 641.995 364.439 641.279 364.32 640.271C347.676 499.555 334.704 396.499 324.215 313.164C313.222 225.832 304.955 160.158 298.046 95.4945C297.939 94.4889 298.666 93.5799 299.675 93.4585C300.684 93.337 301.597 94.0485 301.72 95.0522C306.298 132.223 311.054 169.278 316.192 209.309C329.631 314.015 345.682 439.078 367.994 639.83C368.106 640.838 367.378 641.752 366.366 641.874ZM359.398 639.046C358.385 639.169 357.469 638.451 357.35 637.443C350.319 577.736 342.332 513.168 333.939 445.697C330.954 422.545 327.996 399.875 325.089 377.589C312.077 277.852 300.068 185.804 291.075 92.6484C290.978 91.6423 291.713 90.741 292.723 90.629C293.732 90.5169 294.638 91.236 294.753 92.2401C307.277 201.571 320.983 311.665 333.935 415.699C335.159 425.537 336.377 435.32 337.587 445.043C345.339 505.159 353.281 568.559 361.024 636.999C361.138 638.008 360.411 638.924 359.398 639.046ZM352.449 636.216C351.442 636.349 350.52 635.648 350.385 634.646C335.689 525.706 322.351 413.687 309.277 302.413C300.979 234.743 292.524 164.101 284.556 93.51C284.442 92.5022 285.168 91.5873 286.179 91.4635C287.191 91.3397 288.107 92.0537 288.229 93.0605C295.039 149.303 301.735 206.375 308.466 263.755C309.959 276.483 311.454 289.227 312.952 301.98C319.655 356.645 326.255 409.367 332.413 458.561C340.702 524.776 348.191 584.599 354.054 634.162C354.173 635.166 353.456 636.083 352.449 636.216ZM345.012 629.737C344.003 629.857 343.09 629.145 342.968 628.141C331.471 533.902 321.562 457.143 313.077 392.061C321.732 461.198 330.843 538.484 340.119 628.535C340.223 629.543 339.489 630.45 338.478 630.565C337.466 630.68 336.557 629.96 336.442 628.953C321.812 500.182 308.317 387.717 295.079 281.199C294.175 274.3 293.278 267.47 292.39 260.703C284.544 200.932 277.342 146.063 271.063 91.5135C270.947 90.5078 271.668 89.5924 272.678 89.4641C273.687 89.3358 274.605 90.0427 274.734 91.0467C279.333 126.836 283.899 162.584 288.468 198.725C284 160.487 280.404 125.606 277.581 90.6243C277.501 89.629 278.231 88.7462 279.228 88.6339C280.224 88.5216 281.124 89.2208 281.257 90.2102C307.407 285.588 330.999 479.93 346.642 627.703C346.749 628.708 346.021 629.617 345.012 629.737ZM331.078 624.081C330.072 624.204 329.159 623.497 329.031 622.497C316.544 524.942 305.845 434.211 295.533 346.76L295.412 345.741C285.063 257.973 275.097 173.499 264.097 88.7122C263.967 87.7055 264.679 86.7783 265.689 86.6391C266.7 86.4999 267.628 87.2014 267.764 88.2073C268.45 93.2836 269.136 98.357 269.822 103.432C288.826 243.952 307.983 385.602 332.704 622.05C332.809 623.053 332.084 623.959 331.078 624.081ZM323.665 617.596C322.653 617.719 321.737 617.004 321.617 615.997C305.803 483.797 293.657 386.349 283.802 307.276C272.863 219.516 264.746 154.39 257.567 89.508C257.457 88.5079 258.172 87.5993 259.175 87.4676C260.177 87.3358 261.095 88.0296 261.236 89.0257C284.492 253.195 303.57 422.64 322.128 587.474C323.184 596.848 324.237 606.208 325.29 615.55C325.404 616.558 324.677 617.473 323.665 617.596ZM316.266 611.113C315.257 611.244 314.336 610.539 314.205 609.535C295.203 464.168 283.44 360.941 273.865 276.92C269.17 235.716 265.001 199.13 260.763 164.46C257.426 138.314 254.064 112.557 250.603 86.7222C250.468 85.7167 251.176 84.7868 252.185 84.6429C253.195 84.4989 254.126 85.195 254.267 86.1996C257.865 111.733 261.157 137.194 264.408 163.791C276.45 258.12 288.174 357.5 303.08 483.87C307.675 522.821 312.572 564.336 317.874 609.058C317.994 610.063 317.275 610.981 316.266 611.113ZM308.852 604.631C307.841 604.762 306.919 604.055 306.79 603.049C288.119 458.131 265.943 273.923 244.076 87.5194C243.958 86.5148 244.676 85.5985 245.683 85.4669C246.691 85.3353 247.612 86.0377 247.745 87.0402C260.269 181.049 271.378 274.626 286.126 398.864C293.211 458.543 301.135 525.297 310.46 602.572C310.581 603.579 309.862 604.499 308.852 604.631ZM300.981 594.493C299.974 594.617 299.06 593.91 298.932 592.908C281.293 454.873 262.892 300.671 244.302 144.891C242.054 126.058 239.804 107.203 237.552 88.3502C237.432 87.3441 238.151 86.4251 239.16 86.2937C240.17 86.1623 241.091 86.8678 241.222 87.8725C264.581 267.231 287.085 448.474 302.604 592.456C302.713 593.46 301.989 594.369 300.981 594.493ZM292.676 580.694C291.664 580.818 290.747 580.103 290.626 579.095C273.661 437.696 261.704 341.25 252.577 267.63C243.431 193.863 237.127 143.014 231.473 92.8246C231.36 91.8209 232.08 90.9086 233.087 90.7798C234.094 90.6511 235.011 91.3539 235.144 92.3551C249.832 203.202 264.786 320.778 294.299 578.644C294.415 579.653 293.689 580.569 292.676 580.694ZM284.796 570.557C283.788 570.668 282.884 569.951 282.768 568.949C273.462 488.96 265.286 419.645 257.716 356.684C256.384 346.22 255.029 335.585 253.654 324.801C244.562 253.463 234.637 175.591 225.394 97.3188C225.275 96.3128 225.995 95.395 227.004 95.2646C228.014 95.1342 228.934 95.8403 229.064 96.8448C239.674 178.735 249.824 260.063 261.385 356.201C272.367 442.533 281.703 517.301 286.446 568.544C286.539 569.549 285.803 570.446 284.796 570.557ZM276.957 560.418C275.955 560.539 275.045 559.839 274.912 558.843C258.836 438.588 246.875 336.068 235.576 239.23C230.131 192.556 224.839 147.202 219.315 101.817M276.957 560.418C277.959 560.296 278.683 559.398 278.585 558.398L276.957 560.418ZM278.585 558.398C266.818 438.55 252.693 330.547 239.153 227.027L278.585 558.398ZM239.153 227.027C233.597 184.546 228.14 142.819 222.985 101.339L239.153 227.027ZM219.315 101.814C219.315 101.813 219.314 101.811 219.314 101.81C219.191 100.801 219.912 99.8789 220.925 99.7489C221.938 99.6189 222.86 100.33 222.985 101.339M268.676 546.618C267.669 546.752 266.748 546.052 266.611 545.051C255.558 464.101 246.723 398.741 239.553 343.642C247.225 404.918 254.698 465.719 261.532 527.123C261.645 528.133 260.915 529.048 259.901 529.168C258.888 529.288 257.973 528.568 257.857 527.559C250.856 466.651 241.063 387.008 230.296 299.617C222.378 236.648 214.362 172.891 206.712 107.114C206.594 106.105 207.319 105.187 208.331 105.062C209.344 104.936 210.262 105.65 210.384 106.658C215.366 147.826 220.409 188.999 225.355 229.217C219.883 181.912 215.953 142.202 212.781 102.565C212.7 101.561 213.443 100.675 214.449 100.573C215.455 100.472 216.351 101.193 216.462 102.193C222.78 159.212 229.866 215.676 238.513 284.572C247.241 354.117 257.558 436.329 270.28 544.566C270.398 545.569 269.682 546.485 268.676 546.618ZM251.61 515.372C250.598 515.499 249.679 514.786 249.556 513.778C238.098 419.866 229.517 348.85 222.483 290.632C213.635 217.415 207.234 164.439 200.633 111.614C200.508 110.611 201.217 109.69 202.223 109.55C203.229 109.409 204.155 110.103 204.298 111.103C214.97 185.58 223.736 260.788 238.036 383.49C242.489 421.692 247.478 464.497 253.228 513.318C253.347 514.326 252.623 515.246 251.61 515.372ZM243.287 501.581C242.273 501.696 241.362 500.973 241.25 499.964C227.282 374.22 215.465 281.281 204.882 198.046C201.469 171.198 198.183 145.359 194.996 119.755C194.871 118.754 195.578 117.835 196.581 117.692C197.584 117.55 198.51 118.237 198.659 119.234C213.665 219.642 225.95 319.842 244.927 499.546C245.034 500.555 244.3 501.466 243.287 501.581ZM235.03 487.776C234.025 487.916 233.1 487.225 232.954 486.227C213.125 350.206 203.655 261.284 195.461 184.344C193.429 165.268 191.476 146.928 189.462 128.789C189.428 128.483 189.394 128.178 189.361 127.872C189.248 126.861 189.98 125.946 190.995 125.827C192.01 125.709 192.924 126.433 193.036 127.444C193.072 127.767 193.108 128.089 193.144 128.412C199.334 184.108 206.268 240.139 218.949 342.6C223.874 382.4 229.667 429.204 236.62 485.715C236.743 486.717 236.034 487.636 235.03 487.776ZM226.693 473.986C225.679 474.109 224.762 473.39 224.644 472.38C224.644 472.38 224.644 472.379 224.644 472.378M226.693 473.986C227.707 473.863 228.435 472.945 228.318 471.935L226.693 473.986ZM191.011 167.199C190.088 159.11 189.18 151.012 188.29 142.897C188.179 141.887 187.267 141.162 186.253 141.278C185.239 141.394 184.505 142.306 184.613 143.316C185.48 151.394 186.381 159.418 187.331 167.587C192.873 216.151 198.983 264.471 205.279 314.266C210.587 356.242 216.027 399.265 221.371 444.364C222.432 453.393 223.522 462.723 224.643 472.371M225.03 443.795C214.403 353.348 206.757 293.155 200.853 246.68C196.921 215.731 193.763 190.865 191.011 167.199M228.318 471.935C227.227 462.458 226.13 453.081 225.03 443.795L228.318 471.935ZM218.412 460.189C217.403 460.324 216.48 459.622 216.345 458.619C215.214 450.199 214.075 440.904 212.911 430.858C210.918 413.656 208.849 394.252 206.612 373.276C200.23 313.41 192.48 240.728 181.214 169.831L183.04 169.531L184.88 169.341C191.413 235.923 199.905 301.304 208.153 364.805C211.029 386.951 213.876 408.868 216.6 430.528C217.758 440.525 218.889 449.761 220.011 458.107L218.178 458.363L216.342 458.595M216.6 430.528C217.763 439.776 218.903 448.978 220.014 458.13C220.136 459.135 219.42 460.055 218.412 460.189M206.966 420.801C205.955 420.92 205.043 420.204 204.924 419.198C198.922 368.491 194.071 330.265 190.037 298.483C185.304 261.186 181.696 232.765 178.679 203.463C178.577 202.472 179.284 201.576 180.275 201.438C181.265 201.3 182.181 201.971 182.343 202.953C193.554 270.924 200.944 343.714 205.891 392.441C206.889 402.275 207.788 411.129 208.599 418.766C208.706 419.773 207.976 420.682 206.966 420.801Z" fill="#C3C8E1"/>
<path fill-rule="evenodd" clip-rule="evenodd" d="M654.482 283.949C639.931 249.318 608.039 234.061 569.828 223.411C556.928 219.816 543.414 216.771 529.666 213.674C523.036 212.18 516.351 210.674 509.654 209.088C489.132 204.227 468.599 198.636 449.641 190.395L449.637 190.393C430.074 181.83 410.82 168.633 391.86 154.457C385.471 149.681 379.124 144.8 372.805 139.941C360.304 130.328 347.916 120.801 335.537 112.337C298.23 86.8294 262.199 71.8342 226.103 93.7557C226.074 93.7735 226.044 93.7905 226.014 93.8066C189.993 113.052 181.261 151.468 182.474 196.558C183.079 219.054 186.156 243.016 189.434 266.788C189.794 269.399 190.156 272.008 190.518 274.612C193.445 295.68 196.332 316.452 197.54 335.624C201.275 394.479 212.288 443.876 240.398 488.651L240.401 488.657C246.669 498.729 252.76 509.091 258.844 519.44C273.222 543.9 287.561 568.294 304.111 588.657C327.585 617.542 355.183 637.873 393.028 638.322C393.054 638.322 393.08 638.323 393.106 638.324C393.126 638.325 393.146 638.327 393.166 638.328C432.51 641.749 465.718 623.988 494.936 597.063C523.242 570.979 547.591 536.492 569.954 504.818C570.698 503.765 571.439 502.715 572.178 501.668L572.2 501.638L572.2 501.638C575.429 497.256 578.731 492.817 582.072 488.326C603.256 459.849 626.012 429.258 641.728 397.388C659.896 360.544 668.494 322.295 654.482 283.949ZM575.187 503.793C578.394 499.441 581.68 495.023 585.011 490.546C606.181 462.092 629.166 431.197 645.045 398.997C663.444 361.684 672.46 322.312 657.942 282.628C657.932 282.601 657.922 282.575 657.911 282.548C642.678 246.243 609.28 230.574 570.845 219.861C557.856 216.241 544.185 213.161 530.384 210.051C523.776 208.562 517.138 207.066 510.53 205.502C490.064 200.654 469.789 195.122 451.14 187.016C431.987 178.632 413.014 165.652 394.091 151.504C387.791 146.794 381.488 141.947 375.19 137.104C362.637 127.452 350.101 117.812 337.642 109.294C300.275 83.7449 262.416 67.4281 224.238 90.5847C186.249 110.91 177.557 151.351 178.777 196.68C179.388 219.403 182.494 243.55 185.77 267.312C186.13 269.926 186.493 272.534 186.854 275.136C189.784 296.227 192.65 316.854 193.849 335.878L193.849 335.879C197.605 395.054 208.7 445.127 237.255 490.614C243.41 500.504 249.437 510.757 255.487 521.048C269.929 545.615 284.499 570.4 301.231 590.988C325.035 620.278 353.537 641.515 392.891 642.006C433.652 645.526 467.828 627.047 497.437 599.762C526.041 573.403 550.591 538.63 572.885 507.053C573.655 505.962 574.422 504.875 575.187 503.793Z" fill="#C3C8E1"/>
</g>
</svg>
