<svg width="380" height="244" viewBox="0 0 380 244" fill="none" xmlns="http://www.w3.org/2000/svg">
<g clip-path="url(#clip0_3943_6956)">
<path d="M191.251 166.2C188.694 176.285 175.658 179.982 171.234 189.389C168.768 194.641 169.421 200.809 170.454 206.519C170.799 208.423 171.198 210.363 172.249 211.992C175.585 217.171 183.164 216.512 189.202 215.432C214.659 210.912 240.75 210.088 266.442 213.016C272.099 213.657 278.028 214.444 283.305 212.266C292.026 208.661 295.706 198.503 299.043 189.608C304.627 174.692 311.825 160.38 320.438 147.002C331.933 129.194 346.021 112.96 354.87 93.6702C359.221 84.1899 361.814 71.8911 354.87 64.1677C350.065 58.8419 342.359 57.6522 335.269 56.8836C313.512 54.5775 291.609 53.4428 269.742 53.516L191.287 166.2H191.251Z" fill="#D15259"/>
<path d="M110.602 138C106.686 139.263 104.963 143.838 104.311 147.938C103.658 152.037 103.477 156.521 100.829 159.669C96.9855 164.226 90.1136 163.86 84.2209 164.464C75.6991 165.325 67.7394 168.967 59.5077 171.309C51.276 173.652 41.9745 174.585 34.5225 170.339C35.1389 166.221 39.3636 163.86 43.0805 162.049C67.2861 150.244 90.7664 135.346 107.121 113.823C111.89 119.57 114.809 126.854 115.335 134.321L110.584 138.018L110.602 138Z" fill="#6B74B5"/>
<mask id="mask0_3943_6956" style="mask-type:luminance" maskUnits="userSpaceOnUse" x="34" y="113" width="82" height="61">
<path d="M110.604 138.002C106.688 139.265 104.965 143.84 104.313 147.94C103.66 152.039 103.479 156.523 100.831 159.671C96.9874 164.228 90.1156 163.862 84.2229 164.466C75.7011 165.327 67.7413 168.969 59.5096 171.311C51.2779 173.654 41.9765 174.587 34.5244 170.341C35.1409 166.223 39.3655 163.862 43.0825 162.051C67.288 150.246 90.7683 135.348 107.123 113.825C111.892 119.572 114.811 126.856 115.337 134.323L110.586 138.02L110.604 138.002Z" fill="white"/>
</mask>
<g mask="url(#mask0_3943_6956)">
<path d="M34.4159 168.455C57.0078 176.196 81.5397 153.026 104.204 160.512C101.956 167.393 94.5763 171.017 87.7407 173.286C75.2118 177.477 62.0846 179.765 48.8849 180.076C36.6642 180.351 23.1744 178.301 15.124 169.022L34.3978 168.473L34.4159 168.455Z" fill="#B03537"/>
<path d="M92.0029 158.884C94.4144 152.606 100.162 147.738 106.708 146.438C106.309 151.16 105.892 155.864 105.493 160.586L92.2386 159.506L92.0029 158.884Z" fill="#EFA02A"/>
<path d="M61.9937 159.25C61.4498 158.628 60.4888 158.573 59.8724 159.122C59.2559 159.671 59.2015 160.641 59.7454 161.263C60.2894 161.886 61.2504 161.94 61.8668 161.391C62.4833 160.842 62.5377 159.872 61.9937 159.25Z" fill="#6B74B5"/>
<path d="M70.2604 153.868C69.7164 153.246 68.7554 153.191 68.139 153.74C67.5225 154.289 67.4681 155.259 68.012 155.881C68.556 156.504 69.517 156.559 70.1334 156.01C70.7499 155.461 70.8043 154.491 70.2604 153.868Z" fill="#6B74B5"/>
<path d="M78.5289 148.67C77.9668 148.048 77.024 147.993 76.4075 148.542C75.791 149.091 75.7367 150.061 76.2806 150.683C76.8427 151.306 77.7855 151.36 78.402 150.811C79.0185 150.262 79.0729 149.292 78.5289 148.67Z" fill="#6B74B5"/>
<path d="M60.58 161.097C60.6707 157.473 59.1295 153.922 56.5548 151.415C55.8115 150.701 54.9955 150.097 54.1071 149.585C53.7082 149.347 54.1071 148.761 54.4879 148.981C57.7697 150.866 60.1449 154.215 60.9789 157.931C61.2146 158.974 61.3053 160.054 61.2872 161.133C61.2872 161.591 60.5619 161.554 60.58 161.097Z" fill="white"/>
<path d="M69.1543 155.295C67.9577 151.068 65.5462 147.224 62.3006 144.296C61.9561 143.985 62.5001 143.509 62.8264 143.82C66.1626 146.84 68.6104 150.811 69.8433 155.167C69.9703 155.606 69.2631 155.753 69.1543 155.314V155.295Z" fill="white"/>
<path d="M77.3871 150.189C76.7162 146.749 75.1025 143.546 72.7635 140.965C72.4553 140.618 72.9811 140.142 73.2893 140.489C75.719 143.162 77.3871 146.492 78.0942 150.043C78.1848 150.501 77.4777 150.647 77.4052 150.189H77.3871Z" fill="white"/>
<path d="M99.3812 137.378C97.5137 135.255 94.3226 135.072 92.2193 136.957C90.1342 138.842 89.9347 142.064 91.8023 144.187C93.6698 146.291 96.861 146.493 98.9642 144.608C101.049 142.722 101.249 139.501 99.3812 137.378Z" fill="#6B74B5"/>
<path d="M45.9286 169.388C47.8505 165.544 47.4154 160.603 44.8588 157.162C40.1265 159.761 35.5936 162.708 31.2783 165.947C35.5755 169.168 41.1419 170.596 46.4363 169.809L45.9467 169.388H45.9286Z" fill="#EFA02A"/>
<path d="M33.7621 167.028C38.0774 169.096 42.846 169.718 47.5783 169.426C52.4013 169.133 57.1518 167.943 61.739 166.461C66.7977 164.832 71.7295 162.837 76.8063 161.263C81.8831 159.689 87.105 158.591 92.4175 158.664C97.1861 158.737 102.154 159.616 106.814 158.17C107.358 158.005 107.902 157.786 108.41 157.548C109.244 157.163 109.878 158.444 109.044 158.829C104.439 160.97 99.2712 160.384 94.3757 160.165C91.8011 160.055 89.2627 160.092 86.7061 160.439C84.0589 160.805 81.4661 161.391 78.8914 162.123C73.724 163.606 68.7197 165.582 63.6247 167.321C58.9468 168.913 54.1601 170.231 49.2464 170.707C44.4416 171.183 39.5098 170.871 34.9769 169.096C34.4149 168.876 33.8709 168.639 33.327 168.382C32.9825 168.218 32.7468 167.87 32.8737 167.486C32.9825 167.156 33.4176 166.863 33.7621 167.028Z" fill="white"/>
</g>
<path d="M78.1654 177.405C74.9561 179.985 74.9561 184.89 75.8083 188.953C76.6605 192.998 78.0748 197.262 76.7149 201.179C74.7567 206.816 68.1931 208.957 62.8987 211.647C55.2472 215.527 49.1006 221.805 42.2469 226.966C35.3751 232.127 27.0346 236.355 18.5672 235.074C17.6969 231.011 20.7973 227.259 23.6259 224.239C42.0475 204.473 58.6922 182.09 66.3618 156.083C72.8529 159.725 78.1473 165.472 81.284 172.262L78.1654 177.423V177.405Z" fill="#6B74B5"/>
<mask id="mask1_3943_6956" style="mask-type:luminance" maskUnits="userSpaceOnUse" x="18" y="156" width="64" height="80">
<path d="M78.1674 177.407C74.9581 179.987 74.9581 184.892 75.8103 188.955C76.6625 193 78.0767 197.264 76.7169 201.181C74.7587 206.818 68.195 208.959 62.9006 211.649C55.2491 215.529 49.1026 221.807 42.2489 226.968C35.377 232.129 27.0365 236.357 18.5691 235.076C17.6988 231.013 20.7993 227.261 23.6278 224.241C42.0494 204.475 58.6941 182.092 66.3638 156.085C72.8548 159.727 78.1492 165.474 81.286 172.264L78.1674 177.425V177.407Z" fill="white"/>
</mask>
<g mask="url(#mask1_3943_6956)">
<path d="M17.8061 233.337C41.649 232.403 56.3537 201.931 80.1785 200.723C80.5048 207.97 74.9022 214.01 69.3358 218.604C59.1278 227.041 47.6687 233.922 35.4481 238.955C24.134 243.622 10.8074 246.587 0.000976562 240.804L17.8061 233.337Z" fill="#B03537"/>
<path d="M68.1934 203.595C68.2115 196.86 71.8559 190.235 77.5311 186.666C78.8184 191.205 80.1058 195.762 81.4112 200.301C77.1503 201.564 72.9075 202.827 68.6466 204.071L68.1934 203.577V203.595Z" fill="#EFA02A"/>
<path d="M40.2895 214.777C39.5461 214.393 38.6395 214.685 38.2587 215.417C37.878 216.168 38.1681 217.083 38.8933 217.467C39.6367 217.852 40.5433 217.559 40.9241 216.827C41.3048 216.076 41.0147 215.161 40.2895 214.777Z" fill="#6B74B5"/>
<path d="M46.1098 206.76C45.3664 206.376 44.4598 206.669 44.079 207.401C43.6983 208.151 43.9884 209.066 44.7137 209.451C45.457 209.835 46.3636 209.542 46.7444 208.81C47.1251 208.06 46.835 207.145 46.1098 206.76Z" fill="#6B74B5"/>
<path d="M51.9848 198.928C51.2414 198.544 50.3348 198.837 49.954 199.569C49.5733 200.319 49.8634 201.234 50.5887 201.619C51.332 202.003 52.2386 201.71 52.6194 200.978C53.0001 200.228 52.71 199.313 51.9848 198.928Z" fill="#6B74B5"/>
<path d="M39.617 217.01C38.4203 213.605 35.7187 210.824 32.4369 209.433C31.4941 209.03 30.515 208.755 29.4996 208.609C29.0463 208.536 29.1914 207.84 29.6447 207.914C33.3798 208.499 36.7885 210.769 38.8736 213.935C39.4538 214.832 39.9434 215.802 40.2879 216.808C40.4329 217.248 39.7621 217.467 39.617 217.028V217.01Z" fill="white"/>
<path d="M45.5832 208.5C42.9723 204.986 39.3641 202.259 35.2845 200.704C34.8494 200.539 35.1939 199.898 35.6109 200.063C39.7993 201.674 43.48 204.492 46.1816 208.116C46.4535 208.482 45.8552 208.866 45.5832 208.5Z" fill="white"/>
<path d="M51.4575 200.758C49.6081 197.793 46.9791 195.377 43.8604 193.822C43.4434 193.62 43.7698 192.98 44.1868 193.181C47.3961 194.81 50.1339 197.299 52.0559 200.374C52.2916 200.758 51.6933 201.143 51.4575 200.758Z" fill="white"/>
<path d="M67.4692 180.865C64.9852 179.565 61.921 180.535 60.6336 183.043C59.3463 185.55 60.3073 188.643 62.7913 189.942C65.2753 191.242 68.3395 190.272 69.6269 187.764C70.9142 185.257 69.9532 182.164 67.4692 180.865Z" fill="#EFA02A"/>
<path d="M28.8836 230.059C29.3006 225.777 27.1611 221.329 23.5529 219.023C20.0535 223.16 16.8624 227.552 13.9795 232.146C19.1288 233.61 24.8403 232.915 29.5001 230.279L28.9017 230.059H28.8836Z" fill="#EFA02A"/>
<path d="M16.7003 232.237C21.4507 232.621 26.1287 231.468 30.444 229.492C34.8499 227.478 38.857 224.66 42.6102 221.622C46.7442 218.273 50.6425 214.631 54.8308 211.336C59.0011 208.042 63.4977 205.132 68.4839 203.265C72.9623 201.6 77.9122 200.648 81.7561 197.61C82.2094 197.244 82.6264 196.86 83.0253 196.439C83.6599 195.78 84.7116 196.75 84.077 197.409C80.5413 201.069 75.5008 202.387 70.841 203.942C68.3932 204.766 66.0361 205.736 63.7697 206.98C61.4307 208.262 59.2187 209.762 57.0791 211.373C52.782 214.612 48.8112 218.291 44.6772 221.732C40.8696 224.898 36.8625 227.863 32.4384 230.077C28.1231 232.255 23.3908 233.738 18.5316 233.719C17.9332 233.719 17.3349 233.683 16.7366 233.646C16.3558 233.61 16.0113 233.39 15.9932 232.969C15.9932 232.621 16.2833 232.182 16.664 232.219L16.7003 232.237Z" fill="white"/>
</g>
<path d="M257.124 85.5995C259.299 86.2401 261.783 86.9721 263.705 85.874C265.627 84.7942 265.337 81.0423 263.089 81.0789C265.265 82.0855 268.148 80.2554 268.021 77.9493C267.894 75.6433 264.848 73.9229 262.781 75.0027C264.412 75.9361 266.135 73.4471 265.265 71.8365C264.394 70.226 262.345 69.6037 260.532 69.1828C246.299 65.925 232.211 64.9733 217.815 66.2179C215.983 66.3826 214.116 66.0165 212.303 66.2179C207.588 66.8035 203.219 72.0195 202.185 76.229C201.442 79.2488 202.33 82.7261 204.415 85.1786C205.34 86.2584 206.863 87.6127 208.35 87.7774C209.655 87.9238 210.888 86.844 212.067 86.4231C219.283 83.8425 227.134 82.6163 234.876 82.5065C242.365 82.415 249.889 83.4216 257.105 85.5629L257.124 85.5995Z" fill="black"/>
<path d="M166.448 80.5664C156.022 65.7236 144.654 51.558 132.433 38.1794C130.058 35.5805 127.556 32.945 124.365 31.4809C117.022 28.1317 107.974 32.2862 103.332 38.948C98.6906 45.6099 97.5302 54.0653 97.095 62.1914C95.9165 84.062 98.9988 105.914 102.081 127.602C105.907 129.414 109.987 130.64 114.175 131.208C116.061 120.007 119.07 108.989 123.15 98.3924C132.723 109.428 142.315 120.446 151.888 131.482C155.243 116.694 159.884 102.217 165.777 88.2532L166.43 80.5481L166.448 80.5664Z" fill="#821E23"/>
<path d="M152.032 96.2163C141.026 86.0039 130.002 75.7915 118.996 65.5791C112.813 59.8506 106.504 54.0306 98.9609 50.3153C91.4182 46.6001 82.3162 45.1908 74.6103 48.5584C65.7803 52.4201 60.3771 61.8821 58.5821 71.4356C57.4579 77.4753 57.5123 83.6613 57.5848 89.7924C57.7843 108.131 58.0562 126.506 58.2557 144.844C58.3463 153.263 56.8233 174.512 58.0562 174.713C63.5138 175.628 74.7916 177.513 80.2492 178.428C87.5381 163.567 93.1044 147.846 96.8395 131.704C97.9455 141.056 100.611 150.207 104.69 158.68C107.827 165.196 112.233 171.656 118.906 174.274C129.367 178.373 140.663 171.73 149.947 165.379C150.926 164.702 151.941 163.988 152.467 162.908C152.975 161.865 152.92 160.657 152.866 159.486C151.814 138.823 150.781 118.16 149.729 97.4975L152.014 96.198L152.032 96.2163Z" fill="#D15259"/>
<path d="M320.873 75.4421C332.423 86.6245 337.518 104.158 333.819 119.861C332.622 124.949 330.519 129.89 327.038 133.77C316.086 145.959 295.38 144.074 283.885 155.751C276.578 163.181 274.148 175.096 265.354 180.659C257.703 185.509 247.712 183.844 239.154 180.934C230.596 178.006 222.074 173.906 213.045 174.345C204.668 174.748 197.035 178.994 189.365 182.398C181.696 185.802 172.938 188.474 165.033 185.601C159.43 183.569 155.042 178.976 152.123 173.741C149.385 168.873 147.772 162.925 149.657 157.672C153.302 147.496 166.755 145.721 174.842 138.638C180.626 133.587 183.4 126.01 186.682 119.037C189.964 112.064 194.551 104.908 201.822 102.51C209.709 99.9116 218.539 103.7 226.517 101.412C235.818 98.7403 241.693 88.5279 251.121 86.3866C254.04 85.7277 257.177 85.8924 259.897 84.6479C268.219 80.8777 267.585 67.2429 275.562 62.7406C277.865 61.4412 280.567 61.1301 283.178 61.0019C287.33 60.8006 291.482 60.9836 295.598 61.551L320.855 75.4604L320.873 75.4421Z" fill="#8C4C18"/>
<path d="M229.636 131.357C237.741 122.462 244.377 112.213 249.182 101.141C249.472 100.482 249.726 99.6764 249.309 99.0907C249.001 98.6881 248.457 98.56 247.949 98.4868C241.005 97.3155 234.06 96.1441 227.116 94.9728C226.681 94.8996 226.209 94.8264 225.811 94.9911C225.158 95.2656 224.886 95.9977 224.668 96.6749C222.075 104.783 219.483 112.872 216.908 120.98C216.799 121.309 216.708 121.675 216.854 121.968C217.017 122.279 217.543 122.334 217.651 122.005L229.654 131.339L229.636 131.357Z" fill="#EFA02A"/>
<path d="M235.71 79.6888C229.292 88.6384 217.977 101.852 225.321 110.052C227.279 112.229 244.25 107.526 245.954 109.923C249.581 114.993 235.112 128.518 232.954 134.356C230.796 140.213 226.572 145.063 221.966 149.236C218.268 152.585 214.224 155.605 209.619 157.472C202.185 160.455 193.899 160.199 185.939 159.448C171.978 158.13 158.162 155.495 144.436 152.622C142.17 145.228 143.366 137.248 144.871 129.653C148.135 113.291 152.777 97.2219 158.742 81.6654C168.007 82.5073 177.454 81.3176 186.247 78.2429C192.394 76.0833 186.139 57.5436 191.451 61.332C222.13 83.1112 235.692 79.6888 235.692 79.6888H235.71Z" fill="#EFA02A"/>
<path d="M188.805 106.115C176.53 110.91 163.076 112.466 149.55 110.672C145.906 110.178 141.772 109.135 139.397 105.383C138.037 103.242 137.511 100.552 137.402 98.0076C136.858 86.6971 143.295 77.7841 150.511 71.9092C162.46 62.1909 177.582 57.7985 192.975 59.5372C196.729 59.9581 200.591 60.7817 204.036 63.1426C209.276 66.7298 212.993 73.9041 213.21 80.7856C213.41 87.6854 210.091 93.9629 205.015 96.2323L188.805 106.115Z" fill="black"/>
<path d="M155.479 95.7753C158.67 107.58 151.163 121.251 139.559 124.765C138.852 124.985 138.091 125.186 137.565 125.717C137.003 126.303 136.839 127.163 136.713 127.986C135.987 132.544 135.244 137.101 134.519 141.676C134.446 142.097 134.392 142.536 134.519 142.939C134.936 144.055 136.477 143.982 137.601 144.33C140.23 145.117 140.756 149.272 138.616 150.992C136.477 152.712 132.905 151.669 131.636 149.235C132.234 151.23 130.312 153.518 128.263 153.243C126.214 152.968 124.945 150.26 126.033 148.485C125.87 150.333 123.223 151.065 121.754 149.967C120.285 148.869 119.959 146.728 120.358 144.916C120.757 143.104 121.718 141.493 122.425 139.791C126.595 129.707 121.301 117.115 126.74 107.653C128.572 104.469 131.436 102.034 133.521 99.0147C135.316 96.4158 136.495 93.4326 138.272 90.8338C142.079 85.27 148.716 81.811 155.424 81.8659L155.461 95.757L155.479 95.7753Z" fill="black"/>
<path d="M154.716 80.1647C149.186 78.664 146.865 71.5263 148.388 65.9442C149.911 60.3621 154.063 56.0063 157.835 51.6505C163.818 44.7507 169.276 37.0639 171.451 28.1692C173.627 19.2745 171.868 8.9523 165.178 2.76628C163.165 0.917794 160.391 -0.582956 157.798 0.27723C154.607 1.32043 153.411 5.38344 153.918 8.73268C154.426 12.0819 156.094 15.1383 156.692 18.4692C158.415 28.0594 151.199 36.6064 146.067 44.8605C141.843 51.6871 138.742 59.6118 139.522 67.628C140.301 75.6442 145.759 83.5323 153.556 85.1611L154.698 80.183L154.716 80.1647Z" fill="black"/>
<path d="M296.233 56.0976C296.233 56.0976 296.015 56.0061 295.616 55.8414C291.029 53.938 266.824 45.574 249.998 42.5908C243.38 41.4195 236.073 42.1699 231.757 47.3676C227.152 52.9131 225.828 70.4096 229.527 81.2077L229.582 81.0979C229.582 81.0979 226.699 81.7934 223.616 82.5803C219.301 83.6968 216.128 87.4303 215.711 91.9143C215.53 93.7628 214.315 107.288 228.077 111.131C233.969 112.778 236.689 112.815 245.501 114.389C243.887 122.661 249.943 131.648 258.157 133.167C266.37 134.686 275.2 128.445 276.597 120.136C281.274 121.27 285.971 122.423 290.648 123.576C291.9 123.888 293.241 124.18 294.402 123.613C295.29 123.192 295.888 122.332 296.432 121.49C309.197 101.98 313.422 85.2158 305.861 63.1072L296.233 56.061V56.0976Z" fill="#FBC9A4"/>
<path d="M287.15 74.4185C289.344 79.9823 294.565 84.8689 293.586 90.7621C292.208 99.126 280.006 100.956 276.579 108.698C274.965 112.34 275.654 116.568 275.255 120.539C274.857 124.511 268.311 132.838 264.358 132.875C269.87 139.189 282.254 139.408 290.577 138.878C298.899 138.365 306.949 132.911 309.796 125.005C311.337 120.722 311.373 116.037 312.479 111.626C314.093 105.22 317.864 99.6384 320.421 93.5439C323.558 86.0585 324.791 77.6579 323.086 69.715C321.382 61.772 316.577 54.4146 309.578 50.4065C309.542 50.3882 309.506 50.3699 309.47 50.3333C304.411 47.4965 298.047 48.8509 294.529 53.4995C290.703 58.5325 284.629 67.9763 287.168 74.4002L287.15 74.4185Z" fill="#8C4C18"/>
<path d="M138.67 117.244C144.853 120.283 151.725 121.838 158.596 121.783C158.832 115.268 159.43 108.771 160.41 102.347C160.573 101.304 160.754 100.224 161.407 99.4002C162.513 97.991 164.525 97.8079 166.284 97.5883C170.69 97.021 174.951 95.3921 178.65 92.9214C180.608 91.6219 179.738 88.5472 177.399 88.474C174.19 88.3825 170.98 88.4557 167.771 88.657C172.612 85.0516 177.435 81.4644 182.276 77.8589C184.325 76.3399 186.537 74.3816 187.462 72.1305C188.006 70.7944 186.591 69.5316 185.34 70.2271L173.591 76.7425C177.725 74.3999 181.351 71.1788 184.18 67.3354C185.068 66.1458 183.89 64.5169 182.494 64.9928C177.471 66.6399 173.174 70.5748 169.24 74.3267C172.521 71.0873 175.821 67.8478 179.103 64.6084C179.665 64.0594 179.901 63.2175 179.647 62.4671C179.067 60.8016 176.728 61.4056 175.314 62.3024C170.074 65.6516 165.305 69.7329 161.171 74.3999C165.577 71.5631 169.403 67.8661 172.395 63.5469C171.234 62.7233 169.639 63.3822 168.387 64.0777C161.334 67.9027 153.919 72.0756 149.857 79.0303C145.687 86.168 138.67 117.263 138.67 117.263V117.244Z" fill="#FBC9A4"/>
<path d="M208.766 124.473C213.135 131.904 211.594 141.805 206.971 148.723C202.347 155.641 195.185 160.144 187.987 163.914C176.238 170.045 163.8 174.767 150.981 177.951C147.082 178.921 143.003 179.727 139.068 178.647C133.429 177.091 129.15 171.71 127.283 165.854C125.415 159.997 125.633 153.72 126.34 147.68C128.57 128.738 132.831 109.612 143.819 94.7695C147.935 95.8676 159.974 95.8859 164.18 95.8493C165.214 111.479 160.754 128.665 160.79 144.294C163.745 135.162 169.203 127.036 176.347 121.124C182.747 115.817 191.178 112.248 199.247 114.499C207.315 116.732 213.824 126.505 210.778 134.521L208.748 124.492L208.766 124.473Z" fill="#EFA02A"/>
<path d="M207.172 55.8596C209.746 57.0675 211.85 59.1906 213.028 61.7711C217.235 71.0501 219.592 81.4273 215.222 89.4069C212.738 93.964 208.386 97.0936 205.395 101.285C203.038 104.597 201.442 108.477 198.487 111.332C198.106 111.699 197.58 112.065 197.653 112.669C197.689 113.035 197.925 113.364 198.051 113.712C198.215 114.114 198.342 114.554 198.432 114.975C198.614 115.853 198.65 116.786 198.523 117.683C197.671 115.78 196.365 114.096 194.733 112.797C194.987 112.998 195.024 114.133 195.06 114.444C195.132 115.048 195.15 115.67 195.114 116.274C195.042 117.427 194.824 118.69 194.298 119.733C193.917 118.068 193.609 115.249 191.705 114.572C190.219 114.041 188.315 114.59 186.774 114.608C184.235 114.608 181.153 114.407 179.158 112.65C175.949 109.832 167.627 104.176 166.974 102.236C166.176 99.8755 158.144 96.5812 152.977 88.8029C158.507 85.7648 164.127 75.6805 170.8 76.2845C174.317 67.9571 187.426 56.9577 187.245 56.0426C186.357 51.5038 189.856 43.7072 191.089 39.4795C197.109 44.238 202.548 49.7834 207.153 55.8779L207.172 55.8596Z" fill="black"/>
<path d="M167.299 157.948C167.245 160.235 167.172 162.834 165.558 164.353C163.945 165.872 160.5 164.445 161.225 162.285C161.497 164.683 158.904 166.897 156.765 166.074C154.625 165.25 153.936 161.791 155.586 160.125C155.967 161.974 153.102 162.871 151.833 161.553C150.564 160.217 150.618 158.076 150.781 156.191C152.05 141.512 155.459 127.676 161.025 114.224C161.733 112.522 161.95 110.601 162.712 108.935C164.706 104.579 170.962 101.981 175.241 102.273C178.323 102.475 181.315 104.396 183.001 107.16C183.744 108.368 184.542 110.253 184.252 111.735C183.998 113.035 182.602 113.895 181.84 114.902C177.199 121.051 173.645 128.225 171.179 135.638C168.804 142.794 167.462 150.352 167.281 157.948H167.299Z" fill="black"/>
<path d="M290.521 106.354C288.327 109.739 284.538 112.045 280.549 112.411C274.348 112.979 268.6 109.19 262.435 108.294C256.271 107.397 249.725 109.63 245.355 114.113C251.466 112.631 257.993 111.167 263.886 113.345C269.235 115.321 273.332 120.08 278.844 121.581C285.299 123.338 291.972 120.226 297.955 117.207L290.539 106.354H290.521Z" fill="#8C4C18"/>
<path d="M269.924 65.5401C268.618 65.2656 267.331 64.9179 266.062 64.4786C265.754 64.3688 265.427 64.259 265.119 64.1309C264.974 64.076 264.829 64.0211 264.702 63.9662C264.611 63.9296 264.539 63.893 264.448 63.8563C264.23 63.7648 264.557 63.9113 264.357 63.8197C263.741 63.5452 263.143 63.2707 262.544 62.9596C261.348 62.3373 260.205 61.6601 259.117 60.8915C258.845 60.7084 258.573 60.5071 258.301 60.3058C258.175 60.2143 258.066 60.1228 257.939 60.0313C258.12 60.1777 257.884 59.9764 257.866 59.9764C257.794 59.9215 257.721 59.8666 257.649 59.8116C257.123 59.3907 256.615 58.9515 256.126 58.4939C255.002 57.4507 253.968 56.3343 253.025 55.1447C252.771 54.8335 252.246 54.7786 251.901 54.9251C251.538 55.0715 251.248 55.4558 251.266 55.8768C251.411 59.4273 251.575 62.9596 251.72 66.5101C251.738 67.0592 252.173 67.5716 252.753 67.5533C253.297 67.535 253.805 67.0958 253.787 66.5101C253.642 62.9596 253.478 59.4273 253.333 55.8768C252.753 56.1147 252.155 56.3709 251.575 56.6088C255.038 61.0013 259.716 64.3322 264.919 66.2905C266.37 66.8396 267.857 67.2605 269.38 67.5716C269.906 67.6814 270.522 67.4252 270.649 66.8395C270.758 66.3271 270.486 65.6682 269.924 65.5584V65.5401Z" fill="#996441"/>
<path opacity="0.26" d="M229.564 81.0996L234.459 100.774L222.166 83.1128L229.564 81.0996Z" fill="#996441"/>
<path d="M254.893 116.256C257.867 119.019 260.641 122.002 263.198 125.15C263.542 125.571 264.304 125.535 264.648 125.15C265.065 124.693 265.011 124.126 264.648 123.686C262.092 120.538 259.317 117.555 256.344 114.792C255.945 114.426 255.274 114.371 254.893 114.792C254.531 115.194 254.476 115.871 254.893 116.256Z" fill="#996441"/>
<path d="M258.393 118.69C257.432 120.63 256.453 122.57 255.492 124.51C255.256 125.005 255.347 125.663 255.854 125.938C256.326 126.194 256.997 126.084 257.269 125.572C258.23 123.632 259.209 121.692 260.17 119.752C260.406 119.258 260.315 118.599 259.807 118.324C259.336 118.068 258.647 118.178 258.393 118.69Z" fill="#996441"/>
<path d="M247.187 56.7753C244.903 59.0996 243.651 62.4488 243.833 65.7249C243.887 66.6766 244.032 67.6282 244.322 68.525C244.485 69.0375 245.048 69.4218 245.592 69.2571C246.117 69.0924 246.48 68.525 246.317 67.976C246.208 67.6282 246.117 67.2805 246.045 66.9145C246.009 66.7498 245.99 66.5667 245.954 66.402C245.936 66.2739 245.954 66.4569 245.954 66.4569C245.954 66.4203 245.954 66.3654 245.954 66.3288C245.954 66.219 245.936 66.1275 245.918 66.0177C245.863 65.2856 245.882 64.5718 245.954 63.8398C245.972 63.6385 245.936 63.9679 245.954 63.7666C245.954 63.6751 245.972 63.6018 245.99 63.5103C246.027 63.3273 246.063 63.1443 246.099 62.9613C246.19 62.5952 246.28 62.2292 246.407 61.8632C246.462 61.6985 246.516 61.5337 246.589 61.369C246.589 61.3324 246.698 61.1128 246.643 61.2043C246.589 61.3141 246.643 61.186 246.643 61.1677C246.661 61.1128 246.698 61.0579 246.716 61.003C246.861 60.6736 247.042 60.3441 247.223 60.033C247.332 59.85 247.441 59.6853 247.55 59.5205C247.604 59.429 247.658 59.3558 247.713 59.2643C247.749 59.2277 247.894 59.0081 247.84 59.0813C247.785 59.1545 247.949 58.9532 247.967 58.9166C248.039 58.8434 248.094 58.7519 248.166 58.6787C248.311 58.5139 248.456 58.3492 248.601 58.2028C248.982 57.8185 249.018 57.1047 248.601 56.7387C248.184 56.3543 247.55 56.3177 247.151 56.7387L247.187 56.7753Z" fill="#996441"/>
<path d="M279.371 61.387C278.809 62.1373 277.811 62.7596 276.959 62.3753C275.998 61.9543 275.871 60.6366 275.926 59.5568C276.089 56.2258 276.451 52.8949 277.014 49.6006C277.014 49.6006 281.347 58.7332 279.371 61.3687V61.387Z" fill="#996441"/>
<path d="M268.511 86.0406C268.729 85.1255 268.566 83.9542 267.732 83.5333C266.789 83.0574 265.701 83.8078 264.921 84.5216C262.473 86.7727 260.171 89.1885 258.031 91.7325C258.031 91.7325 267.768 89.2617 268.511 86.0406Z" fill="#996441"/>
<path d="M288.617 75.3876C291.011 77.7668 292.316 81.1343 292.334 84.5202C292.334 86.1857 292.026 87.8694 291.373 89.4251C290.775 90.8526 289.905 92.1521 288.926 93.3234C286.895 95.7758 284.393 97.7524 282.09 99.9303C279.787 102.09 277.648 104.506 276.487 107.507C275.037 111.314 275.309 115.523 275.762 119.513C275.817 120.026 275.889 120.538 275.943 121.051C275.998 121.49 276.687 121.49 276.632 121.051C276.143 117.024 275.617 112.778 276.796 108.807C277.738 105.586 279.878 103.042 282.235 100.772C284.538 98.576 287.058 96.5811 289.143 94.1653C290.177 92.9756 291.083 91.6762 291.754 90.267C292.479 88.7479 292.896 87.1007 293.005 85.3987C293.205 81.9762 292.117 78.4989 289.959 75.8634C289.687 75.534 289.397 75.2229 289.107 74.93C288.799 74.6189 288.309 75.113 288.617 75.4242V75.3876Z" fill="#8C4C18"/>
<path d="M308.454 142.225C298.917 144.696 290.558 151.028 285.518 159.575C280.278 168.451 278.048 179.286 269.979 186.259C261.766 193.36 250.288 195.154 240.008 192.335C234.514 190.835 229.618 188.071 225.049 184.703C222.656 182.946 220.335 181.098 217.833 179.487C215.675 178.115 213.391 176.943 211.034 175.955C201.587 172.039 190.817 171.398 180.99 174.235C179.757 174.583 178.542 175.003 177.363 175.461C176.946 175.626 177.128 176.285 177.545 176.138C187.299 172.368 198.269 172.258 208.151 175.626C210.653 176.468 213.064 177.547 215.367 178.829C217.815 180.201 220.099 181.848 222.348 183.532C224.668 185.271 226.989 187.046 229.473 188.547C231.812 189.956 234.296 191.146 236.871 192.061C246.753 195.611 257.958 195.062 266.951 189.334C271.194 186.643 274.512 182.91 277.032 178.572C279.661 174.033 281.474 169.092 283.741 164.388C285.953 159.74 288.709 155.475 292.426 151.925C296.07 148.466 300.404 145.721 305.1 144C306.242 143.579 307.421 143.213 308.599 142.902C309.034 142.792 308.853 142.115 308.418 142.225H308.454Z" fill="#8C4C18"/>
<mask id="mask2_3943_6956" style="mask-type:luminance" maskUnits="userSpaceOnUse" x="152" y="39" width="66" height="76">
<path d="M207.17 55.8601C209.744 57.068 211.848 59.191 213.026 61.7716C217.233 71.0506 219.59 81.4278 215.22 89.4074C212.736 93.9645 208.384 97.0941 205.393 101.285C201.984 106.08 199.718 112.724 193.716 113.859C189.836 114.591 182.366 115.433 179.156 112.614C175.947 109.796 167.625 104.14 166.972 102.2C166.174 99.8394 158.142 96.5451 152.975 88.7668C158.505 85.7287 164.125 75.6444 170.798 76.2483C174.315 67.921 187.424 56.9216 187.243 56.0065C186.355 51.4677 189.854 43.6711 191.087 39.4434C197.107 44.2018 202.546 49.7473 207.152 55.8418L207.17 55.8601Z" fill="white"/>
</mask>
<g mask="url(#mask2_3943_6956)">
<path d="M224.503 70.8682C220.732 73.3572 216.036 74.0161 211.539 73.7598C207.042 73.5036 202.636 72.3872 198.212 71.5819C196.599 71.2891 194.931 71.0329 193.317 71.3257C190.38 71.8565 187.968 74.1991 186.771 76.9627C185.575 79.7262 185.466 82.8559 185.81 85.8391C186.481 91.4577 188.73 96.7652 191.05 101.926C192.7 105.605 194.477 109.375 197.523 111.992C201.585 115.47 207.532 116.293 212.591 114.628C217.649 112.962 221.801 109.009 224.34 104.287L224.521 70.8682H224.503Z" fill="white"/>
</g>
<path d="M196.275 71.4183C197.508 73.944 200.536 74.9689 203.02 73.7426C205.522 72.4981 206.538 69.4417 205.323 66.9344C204.09 64.4087 201.062 63.3838 198.578 64.61C196.076 65.8546 195.06 68.911 196.275 71.4183Z" fill="#C66700"/>
<path d="M197.924 70.5953C198.703 72.2059 200.625 72.8647 202.221 72.0778C203.816 71.2908 204.469 69.3508 203.689 67.7402C202.91 66.1297 200.988 65.4708 199.392 66.2578C197.797 67.0448 197.144 68.9847 197.924 70.5953Z" fill="black"/>
<path d="M202.712 67.3191C202.912 67.7217 203.383 67.8864 203.782 67.6851C204.181 67.4838 204.344 67.0079 204.144 66.6053C203.945 66.2026 203.474 66.0379 203.075 66.2392C202.676 66.4406 202.513 66.9164 202.712 67.3191Z" fill="white"/>
<path d="M180.662 93.8188C181.84 96.3628 184.832 97.4792 187.352 96.2896C189.872 95.1 190.978 92.0801 189.8 89.5362C188.621 86.9922 185.63 85.8758 183.109 87.0654C180.589 88.2551 179.483 91.2749 180.662 93.8188Z" fill="#C66700"/>
<path d="M182.33 93.0304C183.074 94.6592 184.977 95.3547 186.591 94.6043C188.205 93.854 188.894 91.9323 188.15 90.3034C187.407 88.6745 185.503 87.9791 183.889 88.7294C182.276 89.4798 181.587 91.4015 182.33 93.0304Z" fill="black"/>
<path d="M187.187 89.8655C187.369 90.2682 187.858 90.4512 188.257 90.2682C188.656 90.0851 188.837 89.591 188.656 89.1883C188.475 88.7857 187.985 88.6027 187.586 88.804C187.187 88.987 187.006 89.4812 187.206 89.8838L187.187 89.8655Z" fill="white"/>
<path d="M200.717 86.223C200.209 86.0034 199.701 85.7655 199.23 85.4727C198.287 84.9236 197.109 84.9419 196.202 85.5642C196.166 85.6008 196.111 85.6191 196.075 85.6557C195.205 86.1681 194.189 85.2347 194.588 84.3013C195.332 82.5627 196.674 81.0619 197.852 79.6161C198.323 79.0487 199.139 78.9938 199.611 79.5612C200.39 80.4763 198.831 81.5927 199.176 82.6176C199.284 82.9653 199.593 83.1849 199.883 83.4046L201.605 84.6674C201.986 84.9419 202.077 85.4544 201.841 85.857C201.605 86.2413 201.134 86.3878 200.735 86.223H200.717Z" fill="black"/>
<path d="M206.05 88.6209L200.284 84.5396C199.921 84.2833 199.577 84.8873 199.939 85.1435C201.861 86.4979 203.783 87.8705 205.705 89.2248C206.068 89.4811 206.412 88.8771 206.05 88.6209Z" fill="black"/>
<path d="M206.609 86.8634C205.92 88.0896 205.231 89.3341 204.561 90.5604C204.343 90.9447 204.941 91.2924 205.159 90.9081C205.848 89.6819 206.537 88.4374 207.208 87.2111C207.425 86.8268 206.827 86.4791 206.609 86.8634Z" fill="black"/>
<path d="M195.531 53.2419C194.334 50.3136 193.718 47.1291 193.718 43.9629C196.311 46.7082 198.613 49.7463 200.59 52.9674C198.994 52.6746 197.326 52.7478 195.767 53.1504L195.531 53.2419Z" fill="white"/>
<path d="M168.932 83.9524C166.811 83.989 164.889 85.1603 163.221 86.478C161.553 87.7958 159.994 89.2965 158.09 90.2299C160.483 92.0784 163.203 93.4693 166.086 94.3478C165.759 90.6874 166.739 86.9173 168.824 83.8975L168.951 83.9707L168.932 83.9524Z" fill="white"/>
<path d="M183.182 66.4751C183.654 67.0608 184.125 67.6648 184.596 68.2504C184.705 68.3968 184.959 68.3785 185.086 68.2504C185.231 68.104 185.213 67.9027 185.086 67.7563C184.615 67.1706 184.143 66.5667 183.672 65.981C183.563 65.8346 183.309 65.8529 183.182 65.981C183.037 66.1274 183.055 66.3287 183.182 66.4751Z" fill="white"/>
<path d="M181.461 69.0183C181.77 69.3843 182.06 69.7504 182.368 70.1164C182.422 70.1896 182.531 70.2262 182.604 70.2262C182.694 70.2262 182.785 70.1896 182.839 70.1164C182.894 70.0432 182.948 69.97 182.948 69.8785C182.948 69.787 182.912 69.7137 182.839 69.6405C182.531 69.2745 182.241 68.9085 181.933 68.5424C181.878 68.4692 181.77 68.4326 181.697 68.4326C181.606 68.4326 181.516 68.4692 181.461 68.5424C181.407 68.6156 181.353 68.6888 181.353 68.7804C181.353 68.8719 181.389 68.9451 181.461 69.0183Z" fill="white"/>
<path d="M180.989 71.6911C181.333 72.1304 181.678 72.5696 182.004 73.0272C182.058 73.1004 182.167 73.137 182.24 73.137C182.33 73.137 182.421 73.1004 182.475 73.0272C182.53 72.954 182.584 72.8808 182.584 72.7892C182.584 72.6977 182.548 72.6245 182.475 72.5513C182.131 72.1121 181.786 71.6728 181.46 71.2153C181.406 71.1421 181.297 71.1055 181.224 71.1055C181.134 71.1055 181.043 71.1421 180.989 71.2153C180.934 71.2885 180.88 71.3617 180.88 71.4532C180.88 71.5447 180.916 71.6179 180.989 71.6911Z" fill="white"/>
<path d="M177.923 75.772C178.358 76.2845 178.775 76.8152 179.211 77.3277C179.319 77.4741 179.573 77.4558 179.7 77.3277C179.827 77.1813 179.827 76.9799 179.7 76.8335C179.265 76.3211 178.848 75.7903 178.413 75.2779C178.304 75.1315 178.05 75.1498 177.923 75.2779C177.796 75.4243 177.796 75.6256 177.923 75.772Z" fill="white"/>
<path d="M181.188 113.439C180.336 113.896 179.502 114.354 178.65 114.812C178.233 115.031 177.816 115.269 177.417 115.489C177.199 115.599 176.982 115.727 176.764 115.836C176.673 115.891 176.293 116.166 176.166 116.074C176.021 115.965 176.166 115.562 176.184 115.434C176.329 115.013 176.51 114.592 176.673 114.171C177.036 113.256 177.399 112.341 177.761 111.426C177.87 111.151 177.489 110.877 177.254 111.041C175.839 111.993 174.335 112.817 172.739 113.457C172.884 113.53 173.029 113.622 173.156 113.695C172.902 112.304 173.047 110.877 173.573 109.577C173.7 109.248 173.229 109.01 172.993 109.248C171.869 110.346 170.563 111.224 169.113 111.81C169.258 111.92 169.403 112.03 169.548 112.139C169.693 110.309 169.838 108.497 169.965 106.667C170.037 105.807 170.128 104.929 170.164 104.068C170.201 103.318 170.146 102.549 169.729 101.909C169.584 101.671 169.294 101.689 169.131 101.909C168.297 103.117 167.499 104.343 166.737 105.587C166.955 105.642 167.173 105.697 167.372 105.77C167.191 103.263 167.009 100.756 166.828 98.2484C166.792 97.8091 166.103 97.8091 166.139 98.2484C166.32 100.756 166.502 103.263 166.683 105.77C166.701 106.1 167.136 106.246 167.318 105.953C168.079 104.691 168.859 103.464 169.711 102.275H169.113C169.512 102.897 169.493 103.647 169.439 104.361C169.385 105.203 169.312 106.063 169.24 106.905C169.113 108.644 168.968 110.401 168.841 112.139C168.841 112.341 169.076 112.56 169.276 112.469C170.835 111.828 172.249 110.913 173.464 109.724L172.884 109.394C172.322 110.822 172.177 112.377 172.467 113.878C172.503 114.043 172.721 114.189 172.884 114.116C174.516 113.439 176.093 112.615 177.562 111.627C177.399 111.499 177.217 111.371 177.054 111.243C176.637 112.304 176.22 113.347 175.803 114.409C175.567 115.013 174.969 116.166 175.731 116.642C176.166 116.916 176.601 116.642 177 116.44L178.487 115.635C179.484 115.104 180.481 114.555 181.46 114.025C181.859 113.805 181.496 113.219 181.116 113.421L181.188 113.439Z" fill="white"/>
<path d="M203.889 55.6037L214.405 49.8203C213.462 52.2545 212.139 54.6337 210.489 56.8848C211.975 55.9514 213.48 55.018 214.967 54.0846C215.384 53.8284 216.001 53.5539 216.272 53.8284C216.49 54.048 216.309 54.4141 216.127 54.7069C215.384 55.9514 214.641 57.2143 213.879 58.4588C214.858 57.9097 215.855 57.379 216.835 56.8299C217.288 56.5737 217.995 56.3541 218.176 56.7018C218.267 56.8848 218.176 57.1227 218.049 57.3424C217.415 58.532 216.798 59.7216 216.164 60.9112C217.27 60.9112 218.412 60.6184 219.464 60.1242C217.723 63.8029 216.327 67.5365 215.275 71.2884C215.239 71.4348 215.166 71.5995 215.003 71.6361C214.84 71.6727 214.84 71.3799 215.003 71.4348L203.889 55.5854V55.6037Z" fill="black"/>
<path d="M161.043 157.453C160.064 159.412 160.082 161.754 161.098 163.694C161.297 164.097 161.895 163.731 161.696 163.346C160.808 161.644 160.789 159.521 161.642 157.801C161.841 157.398 161.243 157.051 161.043 157.453Z" fill="white"/>
<path d="M154.626 156.613C153.828 158.571 153.738 160.767 154.318 162.78C154.445 163.201 155.097 163.018 154.989 162.597C154.427 160.676 154.554 158.644 155.297 156.796C155.46 156.375 154.807 156.21 154.626 156.613Z" fill="white"/>
<path d="M199.447 89.0048C198.577 93.0129 197.289 96.9112 195.603 100.645C195.422 101.047 196.02 101.395 196.201 100.992C197.906 97.204 199.229 93.2508 200.118 89.1878C200.209 88.7485 199.556 88.5655 199.447 89.0048Z" fill="black"/>
<path d="M197.399 89.3518C196.148 91.1637 194.788 92.9023 193.302 94.5312C193.012 94.8606 193.483 95.3548 193.791 95.0253C195.314 93.3599 196.71 91.5663 197.998 89.6995C198.252 89.3335 197.653 88.9857 197.399 89.3518Z" fill="black"/>
<path d="M205.267 82.4356C207.261 79.6904 209.455 77.1098 211.848 74.7123C212.157 74.4011 211.685 73.907 211.359 74.2181C208.929 76.6523 206.699 79.2877 204.668 82.0879C204.414 82.4539 204.995 82.8017 205.267 82.4356Z" fill="black"/>
<path d="M204.887 75.6053C204.524 77.4904 203.889 79.3206 203.001 81.0227C202.802 81.4253 203.382 81.7731 203.599 81.3704C204.506 79.6134 205.177 77.7284 205.558 75.7884C205.648 75.3491 204.977 75.1661 204.887 75.6053Z" fill="black"/>
<path d="M195.077 79.8728C194.406 79.1041 193.536 78.5368 192.557 78.2622C192.376 78.2073 192.176 78.3171 192.14 78.5002C192.086 78.6832 192.194 78.8662 192.376 78.9211C193.228 79.1773 193.989 79.6715 194.588 80.3669C194.715 80.5134 194.95 80.4951 195.077 80.3669C195.222 80.2205 195.204 80.0192 195.077 79.8728Z" fill="black"/>
<path d="M193.265 81.007C193.011 80.8057 192.757 80.6043 192.522 80.4213C192.485 80.3847 192.449 80.3664 192.413 80.3481C192.377 80.3298 192.322 80.3115 192.286 80.3115C192.195 80.3115 192.105 80.3481 192.05 80.4213C191.996 80.4945 191.941 80.5677 191.941 80.6593C191.941 80.7508 191.978 80.8423 192.05 80.8972C192.304 81.0985 192.558 81.2998 192.794 81.4828C192.83 81.5194 192.866 81.5377 192.902 81.556C192.939 81.5744 192.993 81.5927 193.029 81.5927C193.12 81.5927 193.211 81.556 193.265 81.4828C193.319 81.4096 193.374 81.3364 193.374 81.2449C193.374 81.1534 193.338 81.0619 193.265 81.007Z" fill="black"/>
<path d="M192.521 82.3058C192.303 82.196 192.085 82.0862 191.85 81.9764C191.759 81.9398 191.668 81.9215 191.578 81.9398C191.505 81.9581 191.415 82.0313 191.378 82.1045C191.342 82.1777 191.324 82.2875 191.342 82.379C191.36 82.4705 191.415 82.5438 191.505 82.5804C191.723 82.6902 191.94 82.8 192.176 82.9098C192.267 82.9464 192.357 82.9647 192.448 82.9464C192.521 82.9281 192.611 82.8549 192.648 82.7817C192.684 82.7085 192.702 82.5987 192.684 82.5072C192.666 82.4156 192.611 82.3424 192.521 82.3058Z" fill="black"/>
<path d="M190.833 78.7563C190.688 78.6099 190.561 78.4818 190.416 78.3354C190.362 78.2805 190.253 78.2256 190.18 78.2256C190.126 78.2256 190.09 78.2256 190.054 78.2622C190.017 78.2622 189.981 78.2988 189.945 78.3354C189.89 78.4086 189.836 78.4818 189.836 78.5733C189.836 78.6648 189.872 78.7563 189.945 78.8112C190.09 78.9577 190.217 79.0858 190.362 79.2322C190.416 79.2871 190.525 79.342 190.597 79.342C190.652 79.342 190.688 79.342 190.724 79.3054C190.761 79.3054 190.797 79.2688 190.833 79.2322C190.888 79.159 190.942 79.0858 190.942 78.9943C190.942 78.9028 190.906 78.8112 190.833 78.7563Z" fill="black"/>
<path d="M193.263 76.8162C192.646 76.3038 191.903 76.011 191.105 75.9561C190.924 75.9561 190.761 76.1208 190.761 76.3038C190.761 76.5051 190.906 76.6332 191.105 76.6515C191.142 76.6515 191.196 76.6515 191.232 76.6515C191.268 76.6515 191.268 76.6515 191.232 76.6515C191.25 76.6515 191.268 76.6515 191.287 76.6515C191.377 76.6515 191.45 76.6881 191.54 76.7064C191.704 76.743 191.849 76.7979 191.994 76.8528C192.012 76.8528 192.03 76.8528 192.048 76.8711C192.012 76.8711 192.012 76.8711 192.048 76.8711C192.084 76.8711 192.121 76.9077 192.157 76.926C192.229 76.9627 192.284 76.9993 192.356 77.0359C192.429 77.0725 192.501 77.1274 192.574 77.164C192.61 77.1823 192.646 77.2189 192.683 77.2372C192.719 77.2555 192.719 77.2555 192.683 77.2372C192.683 77.2372 192.719 77.2555 192.737 77.2738C192.882 77.3836 193.082 77.4202 193.227 77.2738C193.335 77.1457 193.372 76.9078 193.227 76.7796L193.263 76.8162Z" fill="black"/>
<path d="M165.123 89.2795C164.652 88.822 163.945 88.639 163.31 88.8037C163.129 88.8586 163.02 89.0599 163.075 89.2246C163.129 89.4076 163.31 89.5174 163.492 89.4625C163.528 89.4625 163.546 89.4625 163.582 89.4442H163.619C163.619 89.4442 163.691 89.4442 163.637 89.4442H163.673C163.709 89.4442 163.727 89.4442 163.764 89.4442C163.836 89.4442 163.891 89.4442 163.963 89.4442C163.963 89.4442 163.891 89.4442 163.945 89.4442H163.981C164.017 89.4442 164.054 89.4442 164.072 89.4625C164.126 89.4625 164.181 89.4991 164.253 89.5174C164.289 89.5174 164.308 89.554 164.344 89.5723C164.398 89.6089 164.453 89.6273 164.489 89.6639C164.489 89.6639 164.561 89.7188 164.507 89.6639C164.525 89.6822 164.561 89.7005 164.58 89.7371C164.706 89.8652 164.942 89.8835 165.069 89.7371C165.196 89.6089 165.214 89.3893 165.069 89.2429L165.123 89.2795Z" fill="black"/>
<path d="M164.255 91.1101C164.055 91.0735 163.874 91.0552 163.675 91.0186C163.62 91.0186 163.584 91.0186 163.53 91.0186C163.475 91.0186 163.439 91.0186 163.403 91.0552C163.33 91.0918 163.258 91.1833 163.24 91.2565C163.221 91.348 163.24 91.4395 163.276 91.531C163.312 91.6042 163.403 91.6774 163.475 91.6957C163.675 91.7323 163.856 91.7506 164.055 91.7872C164.11 91.7872 164.146 91.7872 164.201 91.7872C164.255 91.7872 164.291 91.7872 164.327 91.7506C164.4 91.714 164.472 91.6225 164.491 91.5493C164.509 91.4578 164.491 91.3663 164.454 91.2748C164.418 91.2016 164.327 91.1284 164.255 91.1101Z" fill="black"/>
<path d="M198.723 50.9904C198.469 50.5145 198.215 50.0387 197.961 49.5628C197.871 49.3981 197.635 49.3432 197.49 49.4347C197.327 49.5445 197.272 49.7458 197.363 49.9106C197.617 50.3864 197.871 50.8622 198.125 51.3381C198.215 51.5028 198.451 51.5577 198.596 51.4662C198.759 51.3564 198.814 51.1551 198.723 50.9904Z" fill="black"/>
<path d="M197.597 51.8332C197.343 51.6318 197.089 51.4305 196.854 51.2475C196.817 51.2109 196.781 51.1926 196.745 51.1743C196.709 51.156 196.654 51.1377 196.618 51.1377C196.527 51.1377 196.437 51.1743 196.382 51.2475C196.328 51.3207 196.273 51.3939 196.273 51.4854C196.273 51.5769 196.31 51.6684 196.382 51.7234C196.636 51.9247 196.89 52.126 197.126 52.309C197.162 52.3456 197.198 52.3639 197.234 52.3822C197.271 52.4005 197.325 52.4188 197.361 52.4188C197.452 52.4188 197.543 52.3822 197.597 52.309C197.651 52.2358 197.706 52.1626 197.706 52.0711C197.706 51.9796 197.67 51.8881 197.597 51.8332Z" fill="black"/>
<path d="M173.755 85.1969C172.177 88.0336 171.869 91.5659 172.939 94.6406C172.431 92.0051 174.027 89.4978 174.734 86.9172C174.952 86.112 174.788 84.9223 173.972 84.9406L173.755 85.1786V85.1969Z" fill="white"/>
<path d="M189.692 63.1261C190.834 60.1612 192.828 57.5257 195.367 55.6406C194.261 56.8851 193.39 58.331 192.756 59.8867C192.447 60.6736 192.194 61.4972 191.686 62.1744C191.178 62.8515 190.344 63.364 189.528 63.1993L189.692 63.1444V63.1261Z" fill="white"/>
<path d="M172.086 132.086C171.995 134.685 172.485 137.266 173.482 139.663C173.554 139.828 173.808 139.865 173.953 139.791C174.135 139.682 174.153 139.48 174.08 139.315C173.119 137.028 172.684 134.557 172.775 132.086C172.775 131.647 172.104 131.647 172.086 132.086Z" fill="black"/>
<path d="M170.509 135.528C170.889 137.449 171.288 139.371 171.669 141.293C171.76 141.732 172.412 141.549 172.34 141.11C171.959 139.188 171.56 137.266 171.179 135.345C171.089 134.905 170.436 135.088 170.509 135.528Z" fill="black"/>
<path d="M155.624 129.378C154.355 129.451 153.067 129.543 151.798 129.616C151.363 129.653 151.363 130.33 151.798 130.312C153.067 130.238 154.355 130.147 155.624 130.074C156.059 130.055 156.059 129.36 155.624 129.378Z" fill="black"/>
<path d="M154.19 132.196C154.19 132.196 154.118 132.196 154.082 132.215C154.082 132.215 153.936 132.215 154.027 132.215C153.955 132.215 153.864 132.215 153.791 132.215C153.719 132.215 153.628 132.215 153.556 132.215C153.519 132.215 153.519 132.215 153.556 132.215C153.538 132.215 153.519 132.215 153.501 132.215C153.465 132.215 153.429 132.215 153.393 132.196C153.32 132.196 153.247 132.16 153.175 132.123C153.139 132.123 153.102 132.105 153.066 132.086C153.139 132.123 153.03 132.068 153.012 132.068C152.939 132.032 152.867 131.995 152.812 131.958C152.776 131.94 152.74 131.922 152.722 131.885C152.685 131.867 152.685 131.867 152.722 131.885C152.722 131.885 152.685 131.867 152.667 131.849C152.522 131.739 152.323 131.702 152.178 131.849C152.069 131.977 152.033 132.215 152.178 132.343C152.794 132.855 153.592 133.056 154.372 132.873C154.553 132.837 154.662 132.617 154.607 132.452C154.553 132.269 154.372 132.16 154.19 132.215V132.196Z" fill="black"/>
<path d="M174.607 19.091C173.936 21.6349 172.377 23.9043 170.238 25.4234C169.875 25.6796 170.238 26.2836 170.582 26.0273C172.867 24.4168 174.553 22.0009 175.26 19.2923C175.369 18.853 174.716 18.67 174.589 19.1093L174.607 19.091Z" fill="black"/>
<path d="M175.295 22.714C173.717 25.1664 171.578 27.1979 169.076 28.6438C168.695 28.8634 169.039 29.4674 169.42 29.2477C172.031 27.747 174.243 25.6057 175.875 23.0617C176.111 22.6774 175.531 22.3296 175.277 22.714H175.295Z" fill="black"/>
<path d="M92.3258 84.8302C93.8489 90.8881 94.9549 97.0558 95.6258 103.278C96.2966 109.519 96.5505 115.815 96.3692 122.074C96.2604 125.625 96.0247 129.157 95.6439 132.689C95.6076 133.055 95.9884 133.385 96.3329 133.385C96.7318 133.385 96.9856 133.074 97.0219 132.689C97.6927 126.412 97.9285 120.079 97.729 113.765C97.5296 107.433 96.895 101.1 95.8252 94.8596C95.2269 91.3639 94.5016 87.8866 93.6494 84.4641C93.4319 83.6039 92.1082 83.97 92.3258 84.8302Z" fill="#821E23"/>
<path d="M97.4212 86.185C97.657 90.0284 97.3306 93.89 96.4421 97.6419C96.1883 98.7217 95.8801 99.7832 95.5356 100.845C95.4268 101.192 95.6625 101.595 96.007 101.705C96.3878 101.815 96.7322 101.577 96.8592 101.229C98.0921 97.4772 98.763 93.5423 98.8718 89.5891C98.908 88.4544 98.8718 87.338 98.8174 86.2033C98.7992 85.8372 98.5091 85.5078 98.1284 85.5078C97.7657 85.5078 97.4212 85.8189 97.4394 86.2033L97.4212 86.185Z" fill="#821E23"/>
<path d="M84.0395 169.257L64.9289 163.839L59.5439 162.32C58.6917 162.082 58.3291 163.418 59.1812 163.656L78.2918 169.074L83.6769 170.593C84.5291 170.831 84.8917 169.495 84.0395 169.257Z" fill="#821E23"/>
<path d="M71.9455 86.2032C71.4741 87.9785 71.4378 89.8269 71.8367 91.6205C71.9093 91.9866 72.3444 92.2062 72.6889 92.0964C73.0697 91.9866 73.251 91.6022 73.1603 91.2362C72.8158 89.6805 72.8702 88.0883 73.2691 86.5509C73.3598 86.1849 73.1422 85.8005 72.7977 85.6907C72.4351 85.5992 72.0543 85.8188 71.9455 86.1666V86.2032Z" fill="#821E23"/>
<path d="M68.4821 89.5347C68.3552 90.3217 68.2101 91.0904 68.0832 91.8774C68.0469 92.0604 68.0469 92.2434 68.1557 92.4081C68.2464 92.5545 68.4096 92.6826 68.5728 92.7192C68.8991 92.7924 69.3524 92.6094 69.4249 92.2434C69.5519 91.4564 69.6969 90.6877 69.8238 89.9008C69.8601 89.7177 69.8601 89.5347 69.7513 89.37C69.6607 89.2236 69.4975 89.0955 69.3343 89.0589C69.0079 88.9857 68.5546 89.1687 68.4821 89.5347Z" fill="#821E23"/>
<path d="M65.4186 95.6306C65.4911 95.7404 65.5637 95.8685 65.6181 95.9966C65.5999 95.9417 65.5637 95.8868 65.5455 95.8319C65.6181 96.0149 65.6725 96.2162 65.7087 96.4358C65.7087 96.3809 65.7087 96.3077 65.6906 96.2528C65.7087 96.4541 65.7087 96.6738 65.6906 96.8751V96.6921C65.6906 96.8934 65.6362 97.0764 65.5637 97.2594C65.5818 97.2045 65.6181 97.1496 65.6362 97.0947V97.1313C65.5455 97.3143 65.4911 97.479 65.5455 97.6621C65.5818 97.8268 65.7087 97.9915 65.8538 98.083C66.017 98.1745 66.1983 98.2111 66.3796 98.1562C66.5428 98.1013 66.7241 97.9915 66.7966 97.8451C66.9961 97.3875 67.1048 96.8934 67.0686 96.3809C67.0142 95.8868 66.8873 95.3926 66.5972 94.9717C66.4884 94.8253 66.3615 94.6972 66.1801 94.6606C66.017 94.6057 65.7994 94.6423 65.6543 94.7338C65.3642 94.9351 65.201 95.356 65.4005 95.6855L65.4186 95.6306Z" fill="#821E23"/>
<path d="M64.8037 110.583C64.8037 111.15 64.8037 111.699 64.8037 112.266C64.8037 112.449 64.8762 112.632 65.0032 112.76C65.1301 112.889 65.3114 112.98 65.4927 112.962C65.8735 112.962 66.1817 112.651 66.1817 112.266C66.1817 111.699 66.1817 111.15 66.1817 110.583C66.1817 110.4 66.1092 110.217 65.9823 110.088C65.8553 109.96 65.674 109.869 65.4927 109.887C65.1119 109.887 64.8037 110.198 64.8037 110.583Z" fill="#821E23"/>
<path d="M193.391 116.877C188.985 118.798 184.579 120.72 180.173 122.642C178.922 123.191 177.653 123.74 176.402 124.289C176.057 124.435 175.985 124.948 176.148 125.241C176.347 125.588 176.746 125.643 177.091 125.497C181.497 123.575 185.902 121.653 190.308 119.732C191.56 119.183 192.829 118.634 194.08 118.085C194.424 117.938 194.497 117.426 194.334 117.133C194.134 116.785 193.735 116.73 193.391 116.877Z" fill="#B77318"/>
<path d="M158.596 98.4109C158.559 101.046 158.523 103.682 158.469 106.317C158.469 107.214 159.829 107.214 159.847 106.317C159.883 103.682 159.919 101.046 159.974 98.4109C159.974 97.5141 158.614 97.5141 158.596 98.4109Z" fill="#B77318"/>
<path d="M155.352 97.0212C154.881 100.004 154.409 102.969 153.938 105.953C153.883 106.319 154.028 106.703 154.409 106.813C154.736 106.904 155.189 106.703 155.261 106.337C155.733 103.354 156.204 100.389 156.676 97.4056C156.73 97.0396 156.585 96.6552 156.204 96.5454C155.878 96.4539 155.425 96.6552 155.352 97.0212Z" fill="#B77318"/>
<path d="M151.363 96.6726L149.387 105.293C149.296 105.659 149.496 106.043 149.858 106.153C150.203 106.244 150.62 106.043 150.711 105.677L152.687 97.0569C152.778 96.6909 152.578 96.3066 152.216 96.1968C151.871 96.1053 151.454 96.3066 151.363 96.6726Z" fill="#B77318"/>
<path d="M146.486 97.3503C146.395 100.224 146.069 103.079 145.488 105.897C145.416 106.263 145.597 106.648 145.96 106.757C146.304 106.849 146.721 106.648 146.812 106.282C147.41 103.353 147.773 100.352 147.864 97.3503C147.882 96.4535 146.522 96.4535 146.486 97.3503Z" fill="#B77318"/>
<path d="M144.363 97.3313L142.514 103.554C142.26 104.414 143.583 104.78 143.837 103.92C144.454 101.852 145.07 99.7655 145.687 97.6974C145.94 96.8372 144.617 96.4711 144.363 97.3313Z" fill="#B77318"/>
<path d="M171.217 63.1257C167.682 65.267 164.364 67.7744 161.318 70.5929C160.465 71.3798 159.649 72.2034 158.834 73.027C158.453 73.4113 158.416 74.1068 158.834 74.4912C159.232 74.8755 159.885 74.9121 160.284 74.4912C161.68 73.0453 163.149 71.6544 164.672 70.3549C165.053 70.0255 165.452 69.6961 165.85 69.3849C166.032 69.2385 166.213 69.0921 166.412 68.9457C166.467 68.9091 166.521 68.8542 166.576 68.8176C166.703 68.7261 166.811 68.6346 166.938 68.5431C167.736 67.9391 168.552 67.3351 169.386 66.7678C170.329 66.1272 171.29 65.505 172.269 64.9193C172.74 64.6448 172.94 63.9676 172.632 63.4917C172.323 63.0159 171.707 62.8146 171.217 63.1257Z" fill="#996441"/>
<path d="M172.595 67.775C170.346 69.5319 168.116 71.2889 165.868 73.0459C165.433 73.3753 165.487 74.1623 165.868 74.51C166.321 74.931 166.865 74.8761 167.318 74.51C169.567 72.7531 171.797 70.9961 174.045 69.2391C174.48 68.9097 174.426 68.1227 174.045 67.775C173.592 67.354 173.048 67.4089 172.595 67.775Z" fill="#996441"/>
<path d="M168.116 73.4287C164.073 73.4287 160.012 74.0876 156.186 75.4236C155.678 75.6066 155.279 76.1374 155.461 76.7047C155.624 77.2172 156.186 77.6198 156.73 77.4368C158.579 76.7963 160.483 76.3021 162.423 75.9727C162.659 75.9361 162.876 75.8995 163.112 75.8629C163.185 75.8629 163.257 75.8446 163.33 75.8263C163.438 75.8263 163.475 75.808 163.402 75.8263C163.33 75.8263 163.366 75.8263 163.475 75.8263C163.547 75.8263 163.62 75.8079 163.692 75.8079C164.182 75.753 164.653 75.6981 165.143 75.6615C166.122 75.5883 167.119 75.5517 168.098 75.5517C168.642 75.5517 169.15 75.0759 169.132 74.5085C169.114 73.9412 168.678 73.4653 168.098 73.4653L168.116 73.4287Z" fill="#996441"/>
<path d="M252.246 81.9746C252.735 83.4937 254.367 84.3173 255.872 83.8231C257.377 83.329 258.193 81.6818 257.703 80.1628C257.214 78.6437 255.582 77.8201 254.077 78.3143C252.572 78.8084 251.756 80.4556 252.246 81.9746Z" fill="black"/>
<path d="M262.888 57.0489C263.378 58.5679 265.01 59.3915 266.514 58.8973C268.019 58.4032 268.835 56.756 268.346 55.237C267.856 53.7179 266.224 52.8943 264.719 53.3885C263.214 53.8826 262.399 55.5298 262.888 57.0489Z" fill="black"/>
<path d="M302.814 66.3291C298.898 66.75 297.067 70.9594 296.613 74.4368C296.069 78.573 297.139 82.7092 297.864 86.7539C298.499 90.2313 298.898 94.0014 297.756 97.4056C297.194 99.071 296.196 100.517 294.927 101.707C293.622 102.933 292.099 103.903 290.63 104.928C287.711 106.959 284.61 109.668 284.302 113.475C284.266 113.896 284.284 114.335 284.338 114.756C284.393 115.122 284.628 115.451 285.027 115.451C285.354 115.451 285.771 115.14 285.716 114.756C285.263 111.26 288.073 108.46 290.684 106.575C293.585 104.488 296.813 102.64 298.463 99.309C300.095 95.978 300.058 92.1529 299.569 88.5658C299.043 84.6492 297.901 80.8241 297.864 76.8526C297.864 74.9858 298.1 72.9909 298.844 71.2889C299.46 69.8979 300.457 68.5436 301.835 67.9579C301.962 67.903 302.162 67.8298 302.325 67.7932C302.506 67.7383 302.706 67.7017 302.832 67.6834C303.195 67.6468 303.521 67.3906 303.521 66.9879C303.521 66.6402 303.213 66.2559 302.832 66.2925L302.814 66.3291Z" fill="#5B2E0C"/>
<path d="M309.234 55.0909C306.224 54.9445 303.214 55.8962 300.73 57.58C298.228 59.2637 296.179 61.6613 295 64.4615C294.329 66.072 293.931 67.7558 293.876 69.5128C293.858 70.4096 295.218 70.4096 295.254 69.5128C295.327 66.7858 296.396 64.0771 298.065 61.9541C299.787 59.7579 302.09 58.0558 304.664 57.159C306.187 56.6283 307.638 56.4087 309.234 56.4819C309.596 56.4819 309.923 56.1524 309.923 55.7864C309.923 55.4021 309.614 55.1092 309.234 55.0909Z" fill="#5B2E0C"/>
<path d="M301.692 53.5902C298.446 54.0294 295.545 56.4087 294.258 59.4102C293.877 60.3253 293.623 61.2586 293.533 62.2469C293.496 62.613 293.877 62.9424 294.222 62.9424C294.621 62.9424 294.874 62.6313 294.911 62.2469C295.201 59.4102 297.159 56.8296 299.752 55.6034C300.441 55.274 301.257 55.036 302.054 54.9262C302.417 54.8713 302.617 54.3955 302.526 54.066C302.417 53.6634 302.054 53.5353 301.674 53.5902H301.692Z" fill="#5B2E0C"/>
<path d="M323.012 121.985C313.711 123.797 304.391 125.792 295.634 129.525C288.2 132.71 281.165 137.249 275.834 143.453C273.042 146.711 270.903 150.371 269.162 154.288C267.349 158.332 265.771 162.615 262.979 166.129C260.568 169.167 257.249 171.693 253.261 171.949C248.963 172.223 244.92 170.192 241.094 168.49C239.1 167.611 237.105 166.77 235.002 166.202C232.935 165.653 230.796 165.342 228.656 165.269C224.377 165.122 220.062 165.928 216.127 167.63C215.166 168.051 214.242 168.508 213.335 169.021C212.573 169.46 213.262 170.65 214.024 170.21C217.759 168.087 221.984 166.879 226.281 166.66C230.56 166.458 234.712 167.282 238.665 168.911C242.654 170.558 246.534 172.718 250.867 173.23C254.929 173.706 258.718 172.205 261.71 169.496C264.847 166.641 266.859 162.853 268.582 159.01C270.395 154.947 272.063 150.847 274.638 147.187C279.316 140.561 286.042 135.602 293.241 132.088C301.672 127.97 310.864 125.792 319.984 123.943C321.109 123.724 322.251 123.486 323.375 123.266C324.245 123.101 323.883 121.765 323.012 121.93V121.985Z" fill="#5B2E0C"/>
<path d="M264.956 139.865C264.068 141.658 263.161 143.452 262.273 145.246C261.439 146.893 260.641 148.576 259.734 150.187C258.085 153.097 255.999 155.879 252.971 157.416C251.593 158.13 250.089 158.496 248.529 158.441C246.988 158.386 245.483 157.91 244.051 157.361C241.041 156.227 238.031 154.653 234.713 154.872C231.195 155.11 228.095 157.032 225.303 159.045C224.958 159.301 224.614 159.539 224.269 159.795C223.961 160.015 223.816 160.399 224.015 160.747C224.197 161.04 224.65 161.223 224.958 161.003C227.678 159.008 230.579 156.867 233.988 156.336C237.233 155.824 240.261 157.361 243.217 158.514C244.74 159.118 246.281 159.612 247.913 159.777C249.545 159.942 251.195 159.686 252.718 159.045C255.963 157.691 258.375 155.055 260.206 152.09C261.149 150.571 261.965 148.961 262.762 147.35C263.669 145.52 264.594 143.708 265.5 141.878C265.718 141.439 265.954 140.981 266.171 140.542C266.334 140.213 266.262 139.792 265.917 139.59C265.609 139.407 265.138 139.499 264.974 139.846L264.956 139.865Z" fill="#5B2E0C"/>
<path d="M245.047 138.201C243.271 141.312 239.807 143.252 236.272 143.161C235.383 143.142 235.383 144.533 236.272 144.551C239.372 144.625 242.473 143.307 244.63 141.037C245.247 140.397 245.791 139.665 246.226 138.896C246.661 138.127 245.483 137.414 245.047 138.201Z" fill="#5B2E0C"/>
<path d="M319.478 88.8933C319.478 88.8933 319.496 88.8933 319.514 88.8933C319.369 88.8933 319.532 88.8933 319.514 88.8933C319.514 88.8933 319.478 88.8933 319.46 88.8933C319.532 88.9116 319.55 88.9116 319.496 88.8933C319.441 88.8384 319.55 88.9299 319.568 88.9482C319.659 89.0214 319.514 88.8933 319.605 88.9665C319.641 89.0031 319.677 89.0397 319.713 89.0763C319.786 89.1495 319.804 89.1862 319.877 89.296C320.094 89.662 320.185 90.0829 320.294 90.5222C320.493 91.419 320.602 92.151 320.638 93.0844C320.729 94.8963 320.529 96.5252 320.04 98.2639C319.115 101.65 317.211 104.724 314.546 107.03C313.113 108.275 311.337 109.3 309.56 109.904C309.215 110.014 308.98 110.38 309.088 110.764C309.179 111.112 309.578 111.368 309.94 111.24C313.676 109.977 316.812 107.36 318.952 104.047C321.073 100.79 322.234 96.818 322.016 92.9197C321.962 91.8216 321.798 90.7235 321.508 89.662C321.2 88.4724 320.167 87.0082 318.789 87.6854C318.462 87.8501 318.372 88.326 318.535 88.6371C318.734 88.9848 319.133 89.058 319.478 88.8933Z" fill="#5B2E0C"/>
<path d="M311.282 94.1843C312.859 98.1558 311.753 102.859 308.834 105.898C307.982 106.776 307.075 107.453 305.951 107.984C305.625 108.149 305.534 108.624 305.697 108.936C305.897 109.283 306.296 109.338 306.64 109.192C310.865 107.16 313.476 102.365 313.367 97.68C313.331 96.3623 313.095 95.0445 312.606 93.8183C312.461 93.4706 312.152 93.2326 311.753 93.3425C311.427 93.434 311.137 93.8549 311.282 94.2026V94.1843Z" fill="#5B2E0C"/>
<path d="M327.401 120.923C326.476 123.595 325.062 126.175 323.322 128.39C321.545 130.659 319.423 132.673 317.048 134.265C314.637 135.894 312.044 137.12 309.252 137.907C305.77 138.859 302.144 138.877 298.626 139.609C295.635 140.231 292.516 141.531 290.576 144.02C290.322 144.349 290.087 144.679 289.887 145.026C289.434 145.795 290.612 146.49 291.066 145.722C292.607 143.141 295.508 141.769 298.318 141.091C301.872 140.25 305.589 140.286 309.143 139.371C311.989 138.639 314.727 137.431 317.193 135.839C319.677 134.247 321.907 132.27 323.811 130.001C325.715 127.694 327.274 125.114 328.362 122.332C328.489 121.984 328.616 121.655 328.743 121.307C328.87 120.959 328.598 120.557 328.271 120.447C327.891 120.337 327.546 120.575 327.419 120.923H327.401Z" fill="#5B2E0C"/>
<path d="M329.305 104.798C329.323 107.817 327.764 110.801 325.208 112.429C324.899 112.631 324.772 113.052 324.954 113.381C325.135 113.692 325.588 113.839 325.897 113.637C328.834 111.734 330.701 108.33 330.683 104.798C330.683 103.901 329.305 103.901 329.305 104.798Z" fill="#5B2E0C"/>
<path d="M313.277 74.29C313.313 78.2432 311.953 82.1781 309.433 85.2162C309.197 85.5091 309.161 85.9117 309.433 86.2045C309.669 86.4424 310.158 86.4974 310.412 86.2045C312.533 83.6423 313.966 80.4944 314.455 77.1817C314.6 76.23 314.673 75.26 314.655 74.3083C314.655 73.4115 313.277 73.4115 313.277 74.3083V74.29Z" fill="#5B2E0C"/>
<path d="M274.547 111.9C295.761 111.077 316.394 100.498 329.576 83.6973C331.026 86.3693 332.477 89.0414 333.909 91.7135C334.345 92.5187 334.798 93.3789 334.707 94.294C334.598 95.3372 333.837 96.1608 333.075 96.8563C327.817 101.706 321.127 104.598 314.545 107.288C308.126 109.905 301.617 112.449 294.8 113.639C287.982 114.829 280.766 114.591 274.42 111.845L274.547 111.9Z" fill="#7D8ACC"/>
<path d="M300.731 109.942C302.906 105.77 303.342 100.7 301.964 96.1794C301.746 95.4839 300.785 95.429 300.495 96.1062C298.899 99.8581 298.265 104.049 298.736 108.112C298.645 104.543 297.775 100.974 296.234 97.7534C295.835 96.9115 295.327 96.033 294.385 95.7219C293.931 95.5755 293.442 95.6487 293.079 95.9232C292.499 96.3807 292.59 97.0396 292.68 97.6253C293.297 101.377 294.294 105.056 295.672 108.588C293.913 105.184 291.338 102.219 288.238 100.004C287.64 99.5653 286.824 100.133 287.023 100.865C288.02 104.507 291.411 107.307 294.53 109.65C292.517 108.497 290.468 107.325 288.184 106.904C286.787 106.648 285.301 106.74 283.995 107.234C282.944 107.636 282.998 109.174 284.086 109.467C286.806 110.217 289.634 110.528 292.444 110.382C291.846 112.377 289.725 113.42 288.256 114.884C286.697 116.421 286.207 119.752 288.564 120.21C289.09 120.32 289.634 120.21 290.124 119.972C292.97 118.636 295.055 115.799 295.527 112.688C294.149 116.385 294.076 120.557 295.346 124.309C297.993 121.564 299.117 117.391 298.174 113.676C298.283 117.501 299.407 121.29 301.42 124.547C303.088 120.869 302.761 116.33 300.586 112.926C303.36 115.158 307.167 117.501 310.195 115.598C308.31 112.852 305.336 110.894 302.09 110.235C304.321 110.034 306.587 109.814 308.618 108.863C310.05 108.185 311.338 107.051 312.045 105.641C312.462 104.8 311.736 103.83 310.812 103.976C307.276 104.525 303.904 106.026 301.148 108.332L300.767 109.924L300.731 109.942Z" fill="#EFA02A"/>
<path d="M295.454 110.801C295.943 112.302 297.557 113.126 299.044 112.632C300.531 112.137 301.346 110.509 300.857 109.008C300.367 107.507 298.754 106.684 297.267 107.178C295.78 107.672 294.964 109.301 295.454 110.801Z" fill="#D15259"/>
<path d="M247.712 119.129C248.202 120.629 249.816 121.453 251.303 120.959C252.789 120.465 253.605 118.836 253.116 117.335C252.626 115.834 251.012 115.011 249.526 115.505C248.039 115.999 247.223 117.628 247.712 119.129Z" fill="#EFA02A"/>
<path d="M215.729 148.595C213.572 151.432 210.816 153.774 207.697 155.458C206.918 155.879 207.607 157.087 208.386 156.648C211.722 154.836 214.623 152.31 216.908 149.29C217.126 148.997 216.962 148.522 216.654 148.339C216.292 148.137 215.947 148.284 215.711 148.595H215.729Z" fill="#B77318"/>
<path d="M209.728 149.785C208.242 150.883 206.773 151.963 205.286 153.061C204.996 153.281 204.833 153.665 205.032 154.013C205.214 154.306 205.667 154.489 205.975 154.269C207.462 153.171 208.931 152.091 210.417 150.993C210.726 150.774 210.871 150.389 210.671 150.042C210.49 149.749 210.037 149.566 209.728 149.785Z" fill="#B77318"/>
<path d="M202.819 150.004C202.747 150.15 202.656 150.278 202.565 150.406C202.493 150.516 202.62 150.333 202.565 150.406C202.547 150.443 202.511 150.461 202.493 150.498C202.438 150.553 202.384 150.626 202.33 150.681C202.221 150.791 202.112 150.9 201.985 151.01C201.949 151.029 201.931 151.065 201.894 151.084C201.822 151.138 202.021 150.992 201.894 151.084C201.822 151.138 201.767 151.175 201.695 151.23C201.568 151.321 201.423 151.395 201.278 151.468C201.205 151.504 201.133 151.541 201.06 151.578C201.024 151.578 201.006 151.596 200.97 151.614C201.024 151.596 201.115 151.541 200.97 151.614C200.661 151.724 200.353 151.816 200.027 151.852C199.864 151.87 199.7 152.035 199.61 152.163C199.519 152.31 199.483 152.529 199.537 152.694C199.664 153.097 200.009 153.225 200.389 153.17C201.876 152.95 203.236 151.999 203.979 150.699C204.161 150.388 204.07 149.93 203.726 149.747C203.399 149.564 202.982 149.656 202.783 150.004H202.819Z" fill="#B77318"/>
<path d="M226.608 123.34C226.735 124.987 226.281 126.671 225.266 127.97C225.03 128.263 224.976 128.666 225.266 128.959C225.502 129.197 226.009 129.251 226.245 128.959C227.478 127.366 228.149 125.371 227.986 123.34C227.95 122.974 227.696 122.645 227.297 122.645C226.952 122.645 226.572 122.956 226.608 123.34Z" fill="#B77318"/>
<path d="M221.711 125.37C221.711 125.37 221.784 125.48 221.802 125.553C221.802 125.572 221.856 125.681 221.802 125.572C221.747 125.462 221.802 125.572 221.802 125.608C221.838 125.736 221.856 125.864 221.892 125.993C221.892 125.974 221.892 125.828 221.892 125.919C221.892 125.956 221.892 125.993 221.892 126.011C221.892 126.084 221.892 126.139 221.892 126.212C221.892 126.285 221.892 126.34 221.892 126.414C221.892 126.505 221.929 126.231 221.892 126.377C221.892 126.414 221.892 126.45 221.874 126.468C221.856 126.597 221.802 126.706 221.765 126.834C221.711 126.963 221.82 126.725 221.765 126.798C221.765 126.834 221.729 126.853 221.729 126.889C221.693 126.944 221.675 126.999 221.638 127.054C221.638 127.091 221.602 127.109 221.584 127.146C221.548 127.201 221.493 127.219 221.602 127.109C221.548 127.146 221.512 127.219 221.475 127.255C221.439 127.292 221.385 127.347 221.348 127.384C221.276 127.457 221.348 127.384 221.385 127.365C221.348 127.365 221.312 127.42 221.294 127.438C221.004 127.64 220.841 128.061 221.04 128.39C221.24 128.683 221.657 128.848 221.983 128.646C223.234 127.786 223.687 125.993 222.89 124.675C222.708 124.364 222.273 124.217 221.947 124.419C221.638 124.62 221.493 125.041 221.693 125.37H221.711Z" fill="#B77318"/>
<path d="M217.271 125.389C217.271 125.389 217.344 125.443 217.362 125.48C217.38 125.498 217.434 125.572 217.362 125.48C217.289 125.37 217.344 125.462 217.362 125.48C217.416 125.553 217.452 125.626 217.489 125.718C217.47 125.663 217.434 125.608 217.416 125.553C217.471 125.681 217.489 125.791 217.507 125.919C217.507 125.864 217.507 125.791 217.489 125.736C217.507 125.883 217.489 126.029 217.489 126.176V125.993C217.489 126.139 217.452 126.267 217.398 126.395C217.416 126.34 217.452 126.285 217.471 126.23C217.434 126.304 217.416 126.359 217.38 126.432C217.38 126.45 217.344 126.487 217.344 126.505C217.253 126.633 217.434 126.395 217.362 126.468C217.325 126.523 217.271 126.56 217.235 126.596C217.162 126.67 217.398 126.487 217.271 126.578C217.235 126.596 217.217 126.615 217.18 126.633C216.872 126.816 216.727 127.274 216.927 127.585C217.126 127.896 217.525 128.024 217.869 127.841C219.03 127.182 219.266 125.334 218.25 124.437C217.978 124.199 217.543 124.144 217.271 124.437C217.035 124.693 216.981 125.169 217.271 125.425V125.389Z" fill="#B77318"/>
<path d="M182.747 157.746C182.022 158.368 181.297 158.972 180.572 159.594C180.445 159.704 180.372 159.924 180.372 160.088C180.372 160.253 180.445 160.454 180.572 160.582C180.698 160.711 180.88 160.802 181.061 160.784C181.261 160.784 181.406 160.711 181.551 160.582C182.276 159.96 183.001 159.356 183.726 158.734C183.853 158.624 183.926 158.405 183.926 158.24C183.926 158.075 183.853 157.874 183.726 157.746C183.599 157.618 183.418 157.526 183.237 157.544C183.037 157.544 182.892 157.618 182.747 157.746Z" fill="#B77318"/>
<path d="M178.614 156.189C178.65 155.933 178.614 156.226 178.596 156.281C178.596 156.354 178.56 156.427 178.541 156.5C178.541 156.537 178.505 156.574 178.505 156.629C178.469 156.738 178.578 156.482 178.505 156.592C178.469 156.665 178.451 156.72 178.415 156.793C178.342 156.921 178.269 157.049 178.179 157.159C178.306 156.976 178.179 157.159 178.124 157.214C178.07 157.269 178.016 157.324 177.961 157.379C177.907 157.434 177.852 157.47 177.798 157.525C177.744 157.58 177.943 157.415 177.816 157.525C177.78 157.544 177.744 157.58 177.707 157.599C177.581 157.672 177.454 157.745 177.327 157.818C177.272 157.836 177.163 157.873 177.363 157.818C177.327 157.818 177.29 157.836 177.254 157.855C177.182 157.873 177.109 157.91 177.037 157.928C176.964 157.946 176.891 157.965 176.819 157.983C176.801 157.983 176.765 157.983 176.746 157.983C176.855 157.983 176.891 157.965 176.837 157.983C176.801 157.983 176.746 157.983 176.71 157.983C176.348 158.001 176.003 158.276 176.021 158.678C176.021 159.026 176.329 159.392 176.71 159.374C177.544 159.319 178.306 158.971 178.922 158.385C179.194 158.129 179.448 157.8 179.611 157.47C179.829 157.068 179.938 156.665 179.992 156.208C180.01 156.043 179.901 155.823 179.793 155.713C179.666 155.585 179.484 155.494 179.303 155.512C179.122 155.512 178.94 155.585 178.813 155.713C178.687 155.86 178.632 156.006 178.614 156.208V156.189Z" fill="#B77318"/>
<path d="M239.517 120.336C236.127 119.695 232.79 118.725 229.581 117.463C226.39 116.2 223.326 114.644 220.407 112.814C218.775 111.789 217.215 110.691 215.692 109.501C215.402 109.263 215.003 109.208 214.713 109.501C214.478 109.739 214.423 110.252 214.713 110.49C217.487 112.686 220.461 114.626 223.598 116.255C226.735 117.884 230.016 119.238 233.389 120.263C235.274 120.83 237.196 121.306 239.136 121.672C239.499 121.745 239.88 121.562 239.989 121.196C240.079 120.848 239.88 120.409 239.517 120.336Z" fill="#B77318"/>
<path d="M237.324 115.102C236.943 116.914 236.272 118.634 235.329 120.208C234.876 120.977 236.055 121.672 236.508 120.904C237.523 119.238 238.249 117.39 238.648 115.468C238.72 115.102 238.539 114.718 238.176 114.608C237.832 114.516 237.415 114.718 237.324 115.084V115.102Z" fill="#B77318"/>
<path d="M234.966 113.896C233.57 115.36 232.519 117.153 231.92 119.112C231.812 119.478 232.047 119.862 232.392 119.972C232.754 120.082 233.135 119.844 233.244 119.496C233.77 117.776 234.694 116.202 235.946 114.902C236.199 114.628 236.218 114.188 235.946 113.914C235.674 113.639 235.238 113.639 234.966 113.914V113.896Z" fill="#B77318"/>
<path d="M229.873 111.808C229.437 113.419 228.64 114.901 227.552 116.127C227.298 116.402 227.28 116.841 227.552 117.116C227.806 117.372 228.277 117.39 228.531 117.116C229.8 115.706 230.725 114.023 231.214 112.174C231.305 111.826 231.106 111.405 230.743 111.314C230.38 111.222 229.999 111.424 229.891 111.79L229.873 111.808Z" fill="#B77318"/>
<path d="M225.61 111.041C224.848 112.194 224.087 113.347 223.307 114.481C223.108 114.774 223.235 115.268 223.561 115.433C223.906 115.616 224.286 115.506 224.504 115.177C225.266 114.024 226.027 112.871 226.807 111.736C227.006 111.443 226.879 110.949 226.553 110.784C226.208 110.601 225.828 110.711 225.61 111.041Z" fill="#B77318"/>
<path d="M221.386 109.539C220.552 110.381 219.718 111.223 218.884 112.065C218.63 112.321 218.612 112.797 218.884 113.053C219.156 113.309 219.591 113.327 219.863 113.053C220.697 112.211 221.531 111.369 222.365 110.527C222.619 110.271 222.637 109.795 222.365 109.539C222.093 109.283 221.658 109.264 221.386 109.539Z" fill="#B77318"/>
<path d="M220.026 106.573C219.119 107.214 218.195 107.855 217.288 108.495C216.998 108.696 216.835 109.117 217.034 109.447C217.216 109.74 217.651 109.923 217.977 109.703C218.884 109.063 219.808 108.422 220.715 107.781C221.005 107.58 221.168 107.159 220.969 106.83C220.788 106.537 220.352 106.354 220.026 106.573Z" fill="#B77318"/>
<path d="M195.512 158.953C194.261 161.351 193.881 164.114 194.406 166.768C194.497 167.207 195.15 167.024 195.077 166.585C194.588 164.133 194.968 161.534 196.129 159.301C196.328 158.898 195.748 158.551 195.531 158.953H195.512Z" fill="#EFA02A"/>
<path d="M191.831 159.741C192.031 161.79 191.904 163.858 191.432 165.872C191.342 166.311 191.995 166.494 192.103 166.055C192.575 163.987 192.72 161.864 192.52 159.741C192.484 159.301 191.795 159.301 191.831 159.741Z" fill="#EFA02A"/>
<path d="M226.789 140.286C227.242 142.757 227.714 145.21 228.167 147.68C228.257 148.12 228.91 147.937 228.838 147.497C228.384 145.027 227.913 142.574 227.46 140.103C227.369 139.664 226.716 139.847 226.789 140.286Z" fill="#EFA02A"/>
<path d="M224.777 143.782C225.521 145.795 225.829 147.937 225.702 150.096C225.666 150.535 226.355 150.535 226.391 150.096C226.536 147.9 226.21 145.667 225.448 143.599C225.303 143.178 224.632 143.361 224.777 143.782Z" fill="#EFA02A"/>
<path d="M134.843 124.729C132.994 123.576 130.782 123.064 128.624 123.283C128.189 123.32 128.189 124.015 128.624 123.979C130.673 123.777 132.74 124.235 134.499 125.333C134.88 125.571 135.224 124.967 134.843 124.729Z" fill="#EFA02A"/>
<path d="M133.72 127.347C131.726 127.658 129.677 127.566 127.719 127.109C127.284 126.999 127.102 127.676 127.538 127.786C129.623 128.28 131.78 128.372 133.902 128.024C134.337 127.951 134.156 127.292 133.72 127.347Z" fill="#EFA02A"/>
<path d="M128.77 156.502C126.631 157.929 124.509 159.357 122.37 160.766C122.007 161.004 122.352 161.608 122.714 161.37C124.854 159.942 126.975 158.515 129.115 157.106C129.477 156.868 129.133 156.264 128.77 156.502Z" fill="#EFA02A"/>
<path d="M128.644 163.071C126.722 163.95 124.782 164.828 122.86 165.688C122.461 165.871 122.805 166.475 123.204 166.292C125.126 165.414 127.066 164.535 128.988 163.675C129.387 163.492 129.043 162.888 128.644 163.071Z" fill="#EFA02A"/>
<path d="M216.201 73.7412C219.628 74.2537 222.601 79.3965 222.982 82.4346C222.112 81.1168 220.915 80.0187 219.519 79.2867C220.425 82.8372 221.948 86.2231 223.997 89.2246C221.441 87.8885 219.265 85.7838 217.869 83.2582C220.57 86.7904 222.22 91.1462 222.547 95.5936C221.296 92.6653 219.192 90.103 216.545 88.3461C218.395 90.7802 219.192 93.983 218.721 97.0211C218.322 94.5687 216.6 92.3908 214.315 91.4574C214.424 94.4955 215.856 97.4604 218.177 99.3821C215.838 98.5219 213.807 96.8564 212.502 94.7151C212.992 96.6917 214.188 98.5036 215.802 99.7298C213.481 99.254 211.233 98.4487 209.166 97.3323C210.145 99.8579 212.429 101.835 215.059 102.42C212.574 101.908 210.09 101.395 207.625 100.883C209.256 104.141 214.315 105.037 214.95 108.643C211.976 106.282 208.368 104.726 204.615 104.214C205.993 106.154 206.972 108.368 207.48 110.693C206.482 109.119 205.05 107.819 203.4 106.959C204.905 108.936 205.539 111.571 205.141 114.024L201.75 111.278C202.421 112.523 202.765 113.95 202.783 115.36C201.297 114.39 197.997 113.017 197.507 111.315C197.072 109.814 199.339 108.46 199.991 107.032C203.599 99.1625 210.798 93.3608 214.061 85.3446C215.222 82.4895 215.856 79.4514 216.473 76.4316L216.219 73.8144L216.201 73.7412Z" fill="white"/>
<path d="M191.36 112.925C191.796 115.158 191.179 117.574 189.747 119.349C190.218 117.043 189.801 114.591 188.622 112.559C188.55 115.231 187.662 117.867 186.138 120.063C186.809 117.848 186.574 115.378 185.522 113.328C184.942 115.853 184.996 118.525 185.685 121.033C184.561 118.69 183.437 116.348 182.313 113.987C182.44 116.183 182.82 118.379 183.455 120.502C181.678 118.91 181.388 116.256 181.207 113.877C181.152 113.09 181.08 112.321 181.025 111.534L191.36 112.943V112.925Z" fill="black"/>
<path d="M216.037 66.0906C218.14 64.663 220.588 63.7662 223.108 63.5283C221.205 64.7362 219.337 65.9808 217.451 67.2253L216.037 66.0906Z" fill="black"/>
<path d="M218.287 68.0682C220.299 67.3362 222.566 67.4826 224.47 68.4892C224.524 68.2696 224.578 68.0499 224.651 67.8486C222.511 67.7205 220.372 68.2513 218.559 69.3677C218.323 69.5141 218.341 69.935 218.649 70.0082C220.481 70.3743 222.131 71.4541 223.164 73.0463C223.291 72.8816 223.418 72.6986 223.545 72.5339C221.822 71.8201 219.955 71.4358 218.087 71.4175C217.743 71.4175 217.634 71.8933 217.906 72.058C219.755 73.2111 221.714 74.1628 223.762 74.9131C223.817 74.6935 223.889 74.4739 223.944 74.236C222.493 73.9614 221.043 73.6869 219.592 73.4124C218.468 73.1928 217.181 72.9548 216.147 73.632C215.785 73.8882 216.129 74.4739 216.492 74.236C217.453 73.5954 218.704 73.9431 219.737 74.1445C221.079 74.4007 222.421 74.6569 223.762 74.9131C224.198 75.0046 224.361 74.4007 223.944 74.236C221.949 73.5222 220.045 72.5888 218.25 71.4541C218.196 71.6737 218.142 71.8933 218.069 72.0946C219.882 72.1129 221.659 72.4973 223.345 73.1928C223.617 73.3026 223.889 72.9182 223.726 72.6803C222.602 70.9599 220.807 69.7154 218.813 69.3311C218.849 69.5507 218.867 69.752 218.903 69.9716C220.626 68.9101 222.638 68.416 224.651 68.5441C224.995 68.5624 225.122 68.0499 224.832 67.9035C222.783 66.8054 220.317 66.6041 218.124 67.4094C217.707 67.5558 217.888 68.233 218.305 68.0865L218.287 68.0682Z" fill="white"/>
<path d="M119.087 75.8454C119.25 75.9552 119.431 76.0467 119.594 76.1566C119.667 76.2115 119.739 76.2664 119.812 76.3213C119.848 76.3579 119.902 76.3945 119.939 76.4128C119.939 76.4128 120.066 76.5226 119.993 76.4494C119.921 76.3945 120.029 76.486 120.047 76.5043C120.084 76.5409 120.138 76.5775 120.174 76.6141C120.247 76.669 120.319 76.7239 120.374 76.7971C120.519 76.9252 120.664 77.0716 120.809 77.2181C121.081 77.4926 121.335 77.7671 121.552 78.0782C121.444 77.9501 121.552 78.0782 121.571 78.1149C121.589 78.1515 121.625 78.1881 121.643 78.2247C121.697 78.2979 121.752 78.3894 121.806 78.4809C121.915 78.6456 122.024 78.8103 122.114 78.9933C122.296 79.3045 122.749 79.4509 123.057 79.2496C123.366 79.0482 123.492 78.6273 123.311 78.2979C122.459 76.8154 121.208 75.5526 119.739 74.6741C119.431 74.4911 118.978 74.6009 118.796 74.9303C118.615 75.2598 118.706 75.6807 119.05 75.882L119.087 75.8454Z" fill="#821E23"/>
<path d="M118.671 79.7062L120.375 81.3534C120.502 81.4815 120.683 81.5547 120.865 81.5547C121.028 81.5547 121.227 81.4815 121.354 81.3534C121.608 81.0789 121.626 80.6396 121.354 80.3651L119.65 78.7179C119.523 78.5898 119.342 78.5166 119.16 78.5166C118.997 78.5166 118.798 78.5898 118.671 78.7179C118.417 78.9924 118.399 79.4317 118.671 79.7062Z" fill="#821E23"/>
<path d="M117.801 83.9169C118.617 84.7771 119.451 85.619 120.267 86.4791C120.52 86.7354 120.992 86.7537 121.246 86.4791C121.5 86.2046 121.518 85.7837 121.246 85.4908C120.43 84.6306 119.596 83.7888 118.78 82.9286C118.526 82.6724 118.055 82.6541 117.801 82.9286C117.547 83.2031 117.529 83.624 117.801 83.9169Z" fill="#821E23"/>
<path d="M100.976 64.9198C102.082 66.0545 103.188 67.1709 104.294 68.3056C104.547 68.5619 105.019 68.5802 105.273 68.3056C105.527 68.0311 105.545 67.5919 105.273 67.3173C104.167 66.1826 103.061 65.0662 101.955 63.9315C101.701 63.6753 101.229 63.657 100.976 63.9315C100.722 64.206 100.704 64.6453 100.976 64.9198Z" fill="#821E23"/>
<path d="M95.4617 68.4142C96.4589 69.2012 97.4562 69.9882 98.4534 70.7752C98.5985 70.885 98.7435 70.9765 98.943 70.9765C99.1061 70.9765 99.3056 70.9033 99.4325 70.7752C99.6501 70.5189 99.7407 70.0248 99.4325 69.7869C98.4353 68.9999 97.438 68.2129 96.4408 67.4259C96.2958 67.3161 96.1507 67.2246 95.9513 67.2246C95.7881 67.2246 95.5886 67.2978 95.4617 67.4259C95.226 67.6822 95.1535 68.1763 95.4617 68.4142Z" fill="#821E23"/>
<path d="M77.059 71.5455C76.7871 72.8266 77.0046 74.1626 77.6936 75.279C77.8931 75.5902 78.3101 75.7366 78.6365 75.5353C78.9447 75.3339 79.0898 74.913 78.8903 74.5836C78.8178 74.4555 78.7453 74.3456 78.6909 74.2175C78.6546 74.1626 78.6365 74.1077 78.6183 74.0528C78.6002 73.9979 78.6183 74.0162 78.6183 74.0894C78.6183 74.0528 78.6002 74.0162 78.5821 73.9979C78.4914 73.76 78.4189 73.5038 78.3645 73.2292C78.3645 73.1926 78.3645 73.156 78.3645 73.1194C78.3645 73.0462 78.3645 73.0462 78.3645 73.156C78.3645 73.156 78.3645 73.0096 78.3645 72.9913C78.3645 72.8449 78.3645 72.7168 78.3645 72.5704C78.3645 72.4423 78.3645 72.3324 78.3826 72.2043C78.3826 72.1677 78.3826 72.1311 78.3826 72.0945C78.3826 72.186 78.3826 72.2043 78.3826 72.1311C78.3826 72.0579 78.4008 71.9847 78.4189 71.9298C78.4914 71.5821 78.3101 71.1611 77.9475 71.0696C77.603 70.9964 77.1859 71.1794 77.0953 71.5455H77.059Z" fill="#821E23"/>
<path d="M72.1448 72.4582C72.2899 73.1719 72.453 73.8674 72.5981 74.5812C72.6706 74.9289 73.1058 75.1851 73.4503 75.057C73.8129 74.9289 74.0123 74.5812 73.9217 74.1968C73.7766 73.4831 73.6135 72.7876 73.4684 72.0738C73.3959 71.7261 72.9607 71.4699 72.6162 71.598C72.2536 71.7261 72.0541 72.0738 72.1448 72.4582Z" fill="#821E23"/>
<path d="M191.088 190.852C193.21 187.832 195.748 185.105 198.577 182.745C198.867 182.507 198.812 182.012 198.577 181.756C198.287 181.463 197.888 181.518 197.598 181.756C194.66 184.19 192.086 187.009 189.892 190.138C189.674 190.45 189.837 190.907 190.145 191.09C190.49 191.291 190.871 191.145 191.088 190.834V190.852Z" fill="#B03537"/>
<path d="M197.887 190.321L202.275 186.477C202.547 186.24 202.529 185.745 202.275 185.489C201.985 185.215 201.586 185.233 201.296 185.489C199.827 186.77 198.377 188.051 196.908 189.333C196.636 189.57 196.654 190.065 196.908 190.321C197.198 190.595 197.597 190.577 197.887 190.321Z" fill="#B03537"/>
<path d="M297.646 167.223C296.594 168.852 296.014 170.773 295.941 172.713C295.941 173.079 296.268 173.409 296.63 173.409C297.011 173.409 297.301 173.098 297.319 172.713C297.374 171.011 297.918 169.364 298.842 167.918C299.042 167.607 298.897 167.149 298.589 166.966C298.262 166.765 297.845 166.893 297.646 167.223Z" fill="#B03537"/>
<path d="M301.363 162.96C300.692 165.285 300.493 167.755 300.783 170.153C300.837 170.519 301.073 170.848 301.472 170.848C301.798 170.848 302.215 170.537 302.161 170.153C301.871 167.865 302.034 165.541 302.687 163.326C302.94 162.466 301.617 162.1 301.363 162.96Z" fill="#B03537"/>
<path d="M310.122 149.581C309.741 150.862 309.378 152.161 308.997 153.442C308.889 153.79 309.124 154.211 309.469 154.303C309.832 154.394 310.212 154.193 310.321 153.827C310.702 152.546 311.064 151.246 311.445 149.965C311.554 149.617 311.318 149.196 310.974 149.105C310.611 149.013 310.23 149.215 310.122 149.581Z" fill="#B03537"/>
<path d="M332.984 62.9217C332.349 64.4041 331.733 65.8866 331.098 67.3873C330.953 67.7168 330.989 68.1377 331.352 68.339C331.642 68.5037 332.15 68.4488 332.295 68.0828L334.18 63.6172C334.325 63.2877 334.289 62.8668 333.927 62.6655C333.636 62.5008 333.129 62.5557 332.984 62.9217Z" fill="#B03537"/>
<path d="M335.577 65.0269C335.359 66.5094 335.142 67.9918 334.924 69.4743C334.87 69.8403 335.015 70.2429 335.396 70.3344C335.722 70.4076 336.175 70.2429 336.248 69.8586C336.465 68.3761 336.683 66.8937 336.9 65.4113C336.955 65.0452 336.81 64.6426 336.429 64.5511C336.103 64.4779 335.649 64.6609 335.577 65.0269Z" fill="#B03537"/>
<path d="M283.486 210.783C282.29 214.864 283.233 219.33 285.155 223.118C287.076 226.907 289.905 230.128 292.697 233.294C298.88 227.072 303.558 219.33 306.187 210.911C300.965 209.392 295.544 208.733 290.159 208.093C288.128 207.855 285.88 207.653 284.194 208.825C282.507 209.996 282.199 213.126 284.103 213.894L283.505 210.783H283.486Z" fill="#D15259"/>
<path d="M177.526 212.721C174.48 209.793 170.11 208.603 165.903 208.585C161.697 208.585 157.563 209.646 153.483 210.708C156.149 219.109 160.845 226.832 167.064 233.018C170.781 229.028 173.827 224.453 176.855 219.914C177.997 218.193 179.194 216.272 178.94 214.222C178.668 212.172 176.057 210.47 174.516 211.843L177.544 212.721H177.526Z" fill="#D15259"/>
<path d="M356.229 68.7428C359.91 70.8109 364.425 70.8658 368.504 69.8226C372.584 68.7611 376.319 66.693 380 64.6432C375.358 57.176 368.885 50.8802 361.343 46.4512C358.732 51.2463 356.9 56.444 355.087 61.6051C354.398 63.5634 353.727 65.723 354.489 67.6447C355.25 69.5664 358.206 70.5547 359.366 68.8343L356.229 68.7428Z" fill="#D15259"/>
<path d="M284.283 211.715C284.882 215.888 286.586 219.896 289.124 223.246C289.868 224.216 290.665 225.131 291.536 225.991C292.17 226.613 293.15 225.625 292.515 225.003C289.632 222.184 287.511 218.633 286.368 214.754C286.042 213.637 285.788 212.502 285.625 211.349C285.571 210.983 285.099 210.782 284.773 210.874C284.374 210.983 284.247 211.349 284.301 211.734L284.283 211.715Z" fill="#B03537"/>
<path d="M284.592 209.722C285.97 213.566 288.291 217.043 291.319 219.752C292.171 220.52 293.095 221.216 294.038 221.856C294.347 222.058 294.8 221.911 294.981 221.6C295.181 221.252 295.054 220.85 294.727 220.648C291.572 218.544 288.98 215.634 287.203 212.266C286.695 211.333 286.278 210.344 285.915 209.338C285.788 208.99 285.444 208.752 285.063 208.862C284.719 208.954 284.465 209.356 284.592 209.722Z" fill="#B03537"/>
<path d="M286.694 208.622C289.74 211.825 293.04 214.753 296.558 217.407C296.848 217.626 297.319 217.462 297.501 217.151C297.7 216.803 297.555 216.418 297.247 216.199C293.82 213.618 290.629 210.745 287.655 207.634C287.039 206.993 286.078 207.963 286.676 208.622H286.694Z" fill="#B03537"/>
<path d="M292.624 228.226C293.948 223.797 296.323 219.734 299.514 216.403C300.439 215.451 301.418 214.554 302.451 213.731C302.741 213.493 302.687 212.999 302.451 212.743C302.161 212.45 301.78 212.505 301.472 212.743C297.737 215.707 294.727 219.587 292.751 223.943C292.171 225.206 291.681 226.506 291.282 227.842C291.028 228.702 292.352 229.068 292.606 228.208L292.624 228.226Z" fill="#B03537"/>
<path d="M362.049 54.6855C359.71 58.2727 357.371 61.8598 355.032 65.447C354.833 65.7581 354.978 66.2157 355.286 66.3987C355.63 66.6 356.029 66.4719 356.229 66.1425C358.568 62.5553 360.907 58.9682 363.246 55.381C363.445 55.0699 363.3 54.6123 362.992 54.4293C362.647 54.228 362.248 54.3561 362.049 54.6855Z" fill="#B03537"/>
<path d="M364.643 58.3467L356.447 67.882C356.212 68.1565 356.175 68.5775 356.447 68.8703C356.701 69.1265 357.173 69.1631 357.427 68.8703C360.164 65.6858 362.884 62.5013 365.622 59.335C365.858 59.0605 365.894 58.6396 365.622 58.3467C365.368 58.0905 364.897 58.0539 364.643 58.3467Z" fill="#B03537"/>
<path d="M367.978 62.7578C365.53 64.5514 362.956 66.1985 360.309 67.6627C359.529 68.0836 360.218 69.2915 360.998 68.8523C363.663 67.3881 366.219 65.741 368.667 63.9474C368.975 63.7278 369.12 63.3434 368.921 62.9957C368.74 62.7029 368.286 62.5199 367.978 62.7395V62.7578Z" fill="#B03537"/>
<path d="M360.744 51.3553C361.778 56.0223 364.588 60.1768 368.378 62.977C369.429 63.764 370.572 64.4229 371.768 64.9719C372.113 65.1183 372.512 65.0634 372.711 64.7157C372.874 64.4229 372.802 63.9287 372.457 63.764C368.378 61.9338 365.096 58.6029 363.228 54.5216C362.721 53.4052 362.322 52.1972 362.05 50.971C361.977 50.605 361.542 50.3854 361.198 50.4952C360.817 50.605 360.635 50.9893 360.726 51.3553H360.744Z" fill="#B03537"/>
<path d="M160.681 215.377C163.908 213.199 167.752 212.064 171.632 212.192C172.521 212.229 172.521 210.838 171.632 210.801C167.534 210.673 163.4 211.863 159.992 214.169C159.683 214.37 159.557 214.773 159.738 215.121C159.919 215.432 160.372 215.578 160.681 215.377Z" fill="#B03537"/>
<path d="M164.234 218.524C167.19 217.298 170.163 216.09 173.119 214.864C173.463 214.718 173.699 214.406 173.59 214.004C173.5 213.674 173.083 213.382 172.738 213.528C169.783 214.754 166.809 215.962 163.854 217.188C163.509 217.335 163.273 217.646 163.382 218.049C163.473 218.378 163.89 218.671 164.234 218.524Z" fill="#B03537"/>
<path d="M166.9 224.161C169.221 222.678 171.524 221.196 173.845 219.713C174.153 219.512 174.28 219.091 174.099 218.762C173.917 218.451 173.464 218.304 173.156 218.506C170.835 219.988 168.532 221.47 166.211 222.953C165.903 223.154 165.776 223.575 165.958 223.905C166.139 224.216 166.592 224.362 166.9 224.161Z" fill="#B03537"/>
<path d="M158.051 213.986C161.55 216.475 164.397 219.843 166.373 223.668C166.917 224.729 167.406 225.827 167.805 226.962C167.932 227.31 168.277 227.548 168.657 227.438C169.002 227.346 169.256 226.944 169.129 226.578C167.606 222.277 165.067 218.36 161.749 215.23C160.807 214.334 159.791 213.528 158.74 212.76C158.431 212.54 157.978 212.705 157.797 213.016C157.597 213.364 157.742 213.748 158.051 213.968V213.986Z" fill="#B03537"/>
<path d="M174.262 207.359C175.984 210.269 179.574 211.733 183.019 211.916C186.464 212.099 189.855 211.239 193.227 210.543C219.373 205.162 246.461 209.866 273.151 209.061C275.145 209.006 277.249 208.878 278.917 207.78C282.652 205.327 281.727 199.141 278.083 196.561C274.438 193.998 269.434 194.273 265.119 195.517C260.803 196.762 256.76 198.867 252.336 199.654C245.519 200.88 238.538 198.885 231.594 198.995C226.807 199.068 222.056 200.148 217.27 200.148C209.491 200.148 202.003 197.329 194.261 196.396C188.459 195.7 181.95 196.414 177.29 199.544C174.733 201.264 173.555 204.357 174.244 207.322L174.262 207.359Z" fill="#B03537"/>
<path d="M351.733 64.0751C347.001 66.6191 344.209 71.5057 342.541 76.4838C340.691 81.956 340.202 87.7394 338.661 93.3031C337.772 96.4693 336.539 99.5441 334.581 102.198C334.364 102.491 334.527 102.967 334.835 103.15C335.179 103.351 335.56 103.204 335.778 102.893C339.35 98.0616 340.528 92.0037 341.634 86.202C342.65 80.9494 343.719 75.587 346.548 71.0115C348.017 68.6323 349.975 66.6008 352.441 65.2647C353.22 64.8438 352.531 63.6542 351.752 64.0751H351.733Z" fill="#B03537"/>
<path d="M348.669 83.456C347.69 86.2379 346.711 89.0198 345.732 91.8016C345.605 92.1494 345.877 92.552 346.203 92.6618C346.584 92.7716 346.929 92.5337 347.056 92.186C348.035 89.4041 349.014 86.6222 349.993 83.8403C350.12 83.4926 349.848 83.09 349.522 82.9802C349.141 82.8703 348.796 83.1083 348.669 83.456Z" fill="#B03537"/>
<path d="M349.43 89.8443C349.194 90.9058 348.959 91.949 348.723 93.0105C348.65 93.3582 348.832 93.7792 349.194 93.8707C349.539 93.9439 349.956 93.7609 350.046 93.3948C350.282 92.3333 350.518 91.2901 350.754 90.2286C350.826 89.8809 350.645 89.46 350.282 89.3684C349.938 89.2952 349.521 89.4783 349.43 89.8443Z" fill="#B03537"/>
<path d="M350.628 74.3797C349.63 76.4661 349.159 78.7904 349.304 81.0964C349.322 81.4625 349.594 81.7919 349.993 81.7919C350.356 81.7919 350.7 81.4808 350.682 81.0964C350.555 79.0283 350.918 76.9419 351.824 75.0751C351.988 74.7457 351.915 74.3248 351.571 74.1234C351.262 73.9404 350.791 74.0319 350.628 74.3797Z" fill="#B03537"/>
<path d="M343.592 99.3425C343.175 100.624 342.758 101.886 342.341 103.168C342.232 103.515 342.468 103.936 342.813 104.028C343.193 104.119 343.538 103.918 343.665 103.552C344.082 102.271 344.499 101.008 344.916 99.7269C345.025 99.3791 344.789 98.9582 344.444 98.8667C344.064 98.7752 343.719 98.9765 343.592 99.3425Z" fill="#B03537"/>
<path d="M278.626 185.93L281.146 183.386C281.4 183.129 281.418 182.654 281.146 182.397C280.874 182.141 280.439 182.123 280.167 182.397C279.333 183.239 278.481 184.099 277.646 184.941C277.393 185.198 277.374 185.673 277.646 185.93C277.918 186.186 278.354 186.204 278.626 185.93Z" fill="#B03537"/>
<path d="M281.891 190.505C283.124 189.425 284.375 188.327 285.608 187.247C285.88 187.009 285.862 186.515 285.608 186.259C285.318 185.984 284.919 186.002 284.629 186.259C283.396 187.338 282.145 188.437 280.912 189.516C280.64 189.754 280.658 190.248 280.912 190.505C281.202 190.779 281.601 190.761 281.891 190.505Z" fill="#B03537"/>
<path d="M288.782 197.844C289.416 197.002 290.051 196.142 290.667 195.3C290.776 195.172 290.776 194.915 290.74 194.769C290.704 194.604 290.577 194.44 290.432 194.348C290.268 194.257 290.087 194.22 289.906 194.275C289.724 194.33 289.616 194.44 289.489 194.586C288.854 195.428 288.219 196.288 287.603 197.13C287.494 197.258 287.494 197.514 287.53 197.661C287.567 197.825 287.694 197.99 287.839 198.082C288.002 198.173 288.183 198.21 288.365 198.155C288.546 198.1 288.655 197.99 288.782 197.844Z" fill="#B03537"/>
<path d="M288.217 178.061C287.201 179.415 287.365 181.428 288.434 182.691C288.67 182.965 289.16 182.947 289.413 182.691C289.685 182.398 289.667 181.995 289.413 181.703C289.395 181.684 289.377 181.648 289.341 181.611C289.341 181.629 289.432 181.721 289.341 181.611C289.286 181.538 289.25 181.483 289.214 181.41C289.178 181.355 289.141 181.282 289.123 181.227C289.123 181.227 289.051 181.062 289.087 181.154C289.123 181.245 289.087 181.135 289.087 181.117C289.033 180.971 288.996 180.806 288.96 180.659C288.96 180.623 288.96 180.586 288.942 180.55C288.942 180.458 288.942 180.678 288.942 180.55C288.942 180.476 288.942 180.385 288.942 180.312C288.942 180.239 288.942 180.165 288.942 180.092C288.942 180.074 288.942 179.872 288.96 179.854C288.942 179.854 288.942 180.001 288.96 179.854C288.96 179.818 288.96 179.781 288.978 179.744C288.978 179.671 289.015 179.58 289.033 179.506C289.051 179.433 289.087 179.36 289.105 179.287C289.051 179.397 289.141 179.195 289.105 179.287C289.105 179.25 289.141 179.214 289.16 179.195C289.232 179.049 289.323 178.902 289.432 178.756C289.649 178.463 289.486 177.969 289.178 177.804C288.815 177.603 288.471 177.749 288.235 178.061H288.217Z" fill="#B03537"/>
<path d="M216.617 196.25C217.886 197.091 219.137 197.933 220.406 198.793C220.714 198.995 221.186 198.867 221.349 198.537C221.53 198.19 221.421 197.805 221.095 197.586C219.826 196.744 218.575 195.902 217.306 195.042C216.997 194.84 216.526 194.968 216.363 195.298C216.181 195.646 216.29 196.03 216.617 196.25Z" fill="#B03537"/>
<path d="M216.781 191.912C218.685 192.534 220.57 193.138 222.474 193.761C223.326 194.035 223.689 192.699 222.837 192.425L217.143 190.576C216.291 190.301 215.929 191.638 216.781 191.912Z" fill="#B03537"/>
<path d="M174.605 180.182C177.198 177.326 180.951 176.155 184.65 175.551C188.168 174.966 191.939 175.094 195.312 173.684C197.089 172.934 198.702 171.744 199.536 169.933C199.699 169.585 199.627 169.182 199.282 168.981C198.992 168.798 198.503 168.889 198.34 169.237C197.651 170.72 196.508 171.635 195.022 172.312C194.895 172.367 194.731 172.44 194.55 172.495C194.351 172.568 194.133 172.641 193.934 172.714C193.517 172.843 193.1 172.952 192.683 173.062C192.247 173.154 191.83 173.245 191.395 173.318C190.996 173.392 190.579 173.447 190.235 173.483C188.349 173.721 186.463 173.849 184.596 174.142C182.71 174.435 180.806 174.874 179.03 175.588C176.999 176.393 175.131 177.546 173.645 179.175C173.391 179.45 173.373 179.889 173.645 180.163C173.898 180.42 174.37 180.438 174.624 180.163L174.605 180.182Z" fill="#5B2E0C"/>
<path d="M183.745 171.359C186.483 170.517 189.203 169.675 191.94 168.815C192.793 168.559 192.43 167.223 191.578 167.479C188.84 168.321 186.12 169.163 183.382 170.023C182.53 170.279 182.893 171.615 183.745 171.359Z" fill="#5B2E0C"/>
</g>
<defs>
<clipPath id="clip0_3943_6956">
<rect width="380" height="244" fill="white"/>
</clipPath>
</defs>
</svg>
