<svg width="281" height="925" viewBox="0 0 281 925" fill="none" xmlns="http://www.w3.org/2000/svg">
<path opacity="0.3" d="M139.674 819.202C135.423 820.851 129.656 817.119 126.783 810.796C123.919 804.51 124.982 798.063 129.224 796.378C133.429 794.7 139.234 798.423 142.144 804.738C145.045 811.015 143.908 817.479 139.674 819.202ZM113.031 825.353C108.433 825.669 104.615 820.349 104.396 813.453C104.281 806.493 107.829 800.61 112.381 800.266C116.97 799.913 120.751 805.241 120.895 812.155C121.085 819.098 117.537 824.98 113.031 825.353ZM155.653 797.459C151.826 800.265 145.285 798.282 140.933 793.203C136.742 787.969 136.283 781.56 140.072 778.762C143.861 775.964 150.357 777.918 154.651 783.089C158.946 788.26 159.339 794.724 155.653 797.459ZM88.5789 812.944C84.067 812.101 81.5869 806.119 83.18 799.589C84.7732 793.059 89.7547 788.455 94.387 789.309C99.0193 790.163 101.416 796.125 99.9435 802.666C98.2586 809.139 93.2484 813.789 88.5789 812.944ZM85.5279 771.337C84.5702 767.869 86.3584 763.374 89.2276 761.181C95.1923 756.586 104.555 761.096 111.97 759.384C119.385 757.672 125.837 749.236 133.161 751.038C137.309 752.004 140.998 756.254 141.443 760.391C142.054 766.098 136.072 770.619 133.06 775.592C129.019 782.06 127.572 792.795 120.083 794.524C112.63 796.244 106.435 787.431 100.157 783.189C94.9708 779.598 87.191 777.351 85.5279 771.337Z" fill="#C3C8E1"/>
<path opacity="0.3" d="M66.9489 443.945C62.5706 445.217 57.15 440.997 54.8393 434.447C52.5338 427.936 54.1545 421.606 58.5275 420.296C62.8627 418.992 68.3211 423.207 70.6697 429.751C73.013 436.257 71.3166 442.598 66.9489 443.945ZM39.8709 447.751C35.2631 447.665 31.9226 442.032 32.306 435.143C32.7978 428.199 36.8451 422.649 41.4097 422.702C46.0122 422.751 49.3148 428.388 48.8556 435.288C48.4396 442.221 44.3923 447.772 39.8709 447.751ZM84.7617 423.677C80.7052 426.139 74.3614 423.594 70.4689 418.155C66.7497 412.576 66.8508 406.151 70.8695 403.693C74.8881 401.236 81.1887 403.749 85.0162 409.275C88.8436 414.8 88.6721 421.274 84.7617 423.677ZM16.5933 433.257C12.172 432.025 10.2228 425.849 12.379 419.483C14.5352 413.117 19.899 408.965 24.4392 410.219C28.9795 411.473 30.8477 417.621 28.8104 424.01C26.5678 430.311 21.1715 434.506 16.5933 433.257ZM17.1802 391.543C16.5284 388.005 18.7016 383.683 21.751 381.748C28.0935 377.69 37.027 383 44.5634 381.94C52.0998 380.881 59.2622 373.039 66.4013 375.473C70.4492 376.796 73.7542 381.352 73.8367 385.512C73.9481 391.25 67.5949 395.233 64.1607 399.925C59.5713 406.015 57.1947 416.583 49.5825 417.653C42.0083 418.718 36.6047 409.397 30.7204 404.625C25.8673 400.595 18.3129 397.679 17.1802 391.543Z" fill="#C3C8E1"/>
<path opacity="0.3" d="M199.746 83.9825C195.187 83.9187 191.237 78.2982 190.942 71.3593C190.641 64.4582 194.042 58.879 198.607 58.905C203.134 58.9251 207.121 64.5516 207.454 71.4964C207.793 78.4036 204.317 83.9708 199.746 83.9825ZM172.738 79.705C168.357 78.2754 166.809 71.9124 169.19 65.4361C171.69 58.9399 177.184 54.815 181.533 56.2009C185.921 57.5927 187.431 63.9497 184.974 70.4141C182.549 76.9222 177.056 81.0471 172.738 79.705ZM222.706 69.8078C218.107 70.9766 212.785 66.6876 210.652 60.3482C208.727 53.9255 210.702 47.8108 215.263 46.6359C219.825 45.4611 225.115 49.7064 227.16 56.1094C229.205 62.5123 227.148 68.6528 222.706 69.8078ZM154.715 59.0391C150.847 56.5679 150.789 50.0924 154.712 44.6347C158.636 39.177 164.979 36.7744 168.954 39.3013C172.929 41.8282 172.918 48.254 169.102 53.7674C165.115 59.1375 158.728 61.572 154.715 59.0391ZM167.473 19.3193C167.884 15.7447 171.226 12.2471 174.707 11.2885C181.959 9.26202 188.95 16.9517 196.467 18.1422C203.984 19.3328 213.126 13.9273 219.241 18.342C222.726 20.7911 224.554 26.1143 223.417 30.116C221.846 35.6365 214.606 37.5874 209.95 41.0704C203.78 45.5528 198.418 54.9643 190.825 53.7618C183.271 52.5653 180.828 42.0725 176.596 35.7878C173.134 30.5155 166.762 25.5181 167.473 19.3193Z" fill="#C3C8E1"/>
<g clip-path="url(#clip0_2621_5604)">
<path opacity="0.3" d="M143.397 550.601C139.914 553.544 133.246 551.893 128.471 546.85C123.716 541.839 122.622 535.398 126.084 532.422C129.514 529.467 136.215 531.098 141.022 536.121C145.809 541.112 146.839 547.594 143.397 550.601ZM120.207 565.091C115.963 566.887 110.62 563.1 108.168 556.65C105.794 550.107 107.233 543.39 111.425 541.583C115.649 539.755 120.959 543.562 123.347 550.052C125.786 556.555 124.347 563.272 120.207 565.091ZM151.426 524.84C148.721 528.74 141.891 528.994 136.122 525.609C130.455 522.025 127.935 516.114 130.606 512.235C133.278 508.356 140.056 508.089 145.8 511.58C151.544 515.07 154.02 521.054 151.426 524.84ZM93.0473 561.319C88.507 561.991 84.2145 557.143 83.5949 550.45C82.9753 543.757 86.1865 537.782 90.8443 537.081C95.5022 536.38 99.7096 541.237 100.447 547.901C100.961 554.57 97.7376 560.598 93.0473 561.319ZM76.6168 522.972C74.5821 520.005 74.8095 515.173 76.8084 512.165C80.9519 505.878 91.2728 507.095 97.7268 503.062C104.181 499.029 107.534 488.952 115.046 488.271C119.282 487.834 124.155 490.652 125.922 494.418C128.358 499.615 124.174 505.837 122.945 511.521C121.229 518.951 123.357 529.572 116.838 533.646C110.351 537.699 101.624 531.382 94.307 529.416C88.2346 527.708 80.1472 528.117 76.6168 522.972Z" fill="#C3C8E1"/>
</g>
<path opacity="0.3" d="M251.053 198.279C246.722 199.703 241.157 195.674 238.619 189.21C236.088 182.782 237.487 176.4 241.811 174.938C246.098 173.484 251.701 177.505 254.276 183.963C256.845 190.384 255.371 196.78 251.053 198.279ZM224.124 203.027C219.516 203.102 215.981 197.589 216.124 190.691C216.373 183.734 220.224 178.046 224.788 177.94C229.389 177.828 232.887 183.347 232.669 190.259C232.495 197.202 228.644 202.89 224.124 203.027ZM268.148 177.401C264.18 180.004 257.751 177.681 253.671 172.381C249.759 166.935 249.636 160.511 253.566 157.915C257.497 155.319 263.881 157.611 267.899 162.999C271.917 168.387 271.972 174.863 268.148 177.401ZM200.355 189.355C195.894 188.278 193.73 182.174 195.663 175.736C197.595 169.299 202.811 164.962 207.392 166.057C211.974 167.152 214.055 173.231 212.242 179.686C210.221 186.062 204.974 190.443 200.355 189.355ZM199.486 147.646C198.711 144.132 200.732 139.737 203.712 137.697C209.909 133.42 219.022 138.415 226.517 137.093C234.012 135.772 240.896 127.684 248.116 129.867C252.208 131.049 255.67 135.487 255.897 139.64C256.209 145.372 249.999 149.573 246.73 154.383C242.356 160.629 240.35 171.274 232.78 172.609C225.247 173.937 219.522 164.811 213.474 160.246C208.484 156.389 200.832 153.738 199.486 147.646Z" fill="#C3C8E1"/>
<g clip-path="url(#clip1_2621_5604)">
<path opacity="0.3" d="M262.215 900.144C258.583 902.9 252.01 900.903 247.506 895.617C243.02 890.364 242.264 883.874 245.878 881.084C249.457 878.312 256.064 880.291 260.601 885.559C265.121 890.793 265.809 897.32 262.215 900.144ZM238.299 913.4C233.966 914.971 228.829 910.91 226.718 904.341C224.689 897.682 226.478 891.05 230.759 889.464C235.073 887.86 240.177 891.94 242.221 898.546C244.317 905.167 242.528 911.8 238.299 913.4ZM271.581 874.838C268.676 878.591 261.841 878.488 256.258 874.805C250.787 870.929 248.579 864.895 251.45 861.16C254.321 857.426 261.104 857.515 266.657 861.301C272.21 865.088 274.37 871.193 271.581 874.838ZM211.373 908.212C206.804 908.645 202.771 903.579 202.503 896.863C202.234 890.146 205.754 884.348 210.442 883.892C215.13 883.435 219.078 888.506 219.465 895.2C219.629 901.886 216.095 907.737 211.373 908.212ZM196.972 869.058C195.096 865.988 195.576 861.174 197.729 858.275C202.196 852.214 212.439 853.969 219.095 850.279C225.752 846.59 229.628 836.702 237.165 836.415C241.418 836.2 246.137 839.269 247.704 843.123C249.865 848.44 245.361 854.435 243.836 860.046C241.734 867.377 243.303 878.095 236.579 881.821C229.89 885.53 221.505 878.765 214.301 876.418C208.326 874.395 200.229 874.38 196.972 869.058Z" fill="#C3C8E1"/>
</g>
<defs>
<clipPath id="clip0_2621_5604">
<rect width="96" height="96" fill="white" transform="translate(65 480.999)"/>
</clipPath>
<clipPath id="clip1_2621_5604">
<rect width="96" height="96" fill="white" transform="translate(185 829)"/>
</clipPath>
</defs>
</svg>
