<svg width="211" height="276" viewBox="0 0 211 276" fill="none" xmlns="http://www.w3.org/2000/svg">
<g clip-path="url(#clip0_2579_1059)">
<path d="M169.653 159.975C189.159 174.119 199.19 197.724 206.421 220.68C209.999 232.011 213.096 244.359 209.183 255.578C204.863 267.964 191.569 276.554 178.498 275.425C180.852 250.987 178.85 226.142 172.601 202.389L169.672 159.975H169.653Z" fill="#B77115"/>
<path d="M118.627 153.329C133.127 141.202 140.191 120.837 136.297 102.361C132.422 83.8845 117.756 68.074 99.6039 62.7792C87.2739 59.1876 73.1825 60.502 62.7808 68C52.3792 75.5164 46.6499 89.6792 50.6919 101.843C51.2667 103.583 52.0454 105.305 53.3062 106.675C54.8637 108.378 56.996 109.378 59.0726 110.377C81.1923 121.078 95.3023 142.443 112.879 159.605L118.627 153.329Z" fill="#060807"/>
<path d="M54.8818 83.4587C51.8225 104.231 49.3195 125.151 49.338 146.145C49.3751 171.101 81.6555 157.698 81.6555 157.698C81.6555 157.661 98.8989 184.468 98.7691 184.246C110.302 180.876 117.366 181.173 127.897 175.396C125.858 167.399 109.56 137.759 109.412 137.685C116.087 142.313 126.97 137.425 127.916 129.372C128.862 121.319 119.424 114.024 111.859 116.987C112.008 108.563 111.414 93.3263 112.23 84.9397C93.355 85.5507 75.9077 54.1703 55.7718 81.5888L54.8818 83.4772V83.4587Z" fill="#B4713D"/>
<path d="M80.5436 58.6321C84.6412 55.2071 87.3111 49.2828 85.0306 44.4508C82.75 39.6188 74.3322 38.7672 72.441 43.7658C77.5028 38.7301 78.4113 30.0473 74.4991 24.086C70.5869 18.1247 62.2433 15.4958 55.6055 18.1247C56.9034 10.2379 49.2829 2.2216 41.3287 3.09173C33.3745 3.96187 27.6823 13.4408 30.6675 20.8647C29.6848 13.6259 19.1719 10.7008 13.5168 15.3106C7.86167 19.939 7.52793 29.0291 11.3474 35.2496C5.50692 33.5834 -0.0925477 39.9335 0.000158807 45.9689C0.0928653 52.0043 3.94946 57.2621 7.80605 61.909C2.85552 64.2047 1.20534 70.8325 2.92968 75.9977C4.65403 81.163 8.89998 85.0508 13.2572 88.3277C19.7281 93.1597 28.9988 97.0661 35.4326 92.197C36.749 91.1973 37.88 89.6607 37.6205 88.0315C37.3423 86.4023 34.969 85.347 33.9678 86.643C36.2484 91.1973 42.1445 92.6969 47.2248 92.197C53.4918 91.5861 59.5177 88.6239 63.8379 84.0326C64.7835 83.0329 65.6734 81.8665 65.7476 80.4965C65.8218 79.1265 64.6537 77.6454 63.3002 77.9046C62.4102 78.7748 64.116 79.9411 65.3582 79.9041C72.6821 79.6449 79.0417 72.5542 78.4855 65.2599C82.4904 63.3901 85.3087 59.206 85.4941 54.7998C85.6795 50.3936 83.2506 45.9689 79.4311 43.7658L80.5436 58.6321Z" fill="#060807"/>
<path d="M137.595 103.213C140.803 107.471 146.606 110.414 151.557 108.396C156.507 106.36 157.768 98.0103 152.873 95.8813C157.657 101.195 166.297 102.509 172.453 98.8989C178.627 95.2888 181.668 87.1059 179.35 80.3485C187.175 82.0332 195.574 74.8315 195.092 66.8522C194.61 58.8729 185.413 52.7264 177.848 55.3368C185.135 54.7258 188.602 44.3768 184.245 38.508C179.907 32.6393 170.821 31.8432 164.406 35.3608C166.371 29.6586 160.29 23.7343 154.245 23.5306C148.201 23.327 142.75 26.9001 137.911 30.5287C135.852 25.4931 129.307 23.4936 124.06 24.9562C118.813 26.4187 114.697 30.4547 111.23 34.6387C106.075 40.8407 101.699 49.9123 106.261 56.5587C107.188 57.9101 108.671 59.132 110.303 58.9469C111.934 58.7618 113.121 56.4476 111.86 55.3738C107.188 57.4288 105.389 63.2235 105.649 68.3147C105.964 74.6093 108.615 80.7558 112.991 85.273C113.937 86.2543 115.068 87.217 116.421 87.3465C117.775 87.4761 119.314 86.3839 119.147 85.0324C118.312 84.1067 117.07 85.7544 117.052 86.9948C116.94 94.3076 123.708 101.009 131.032 100.824C132.7 104.916 136.742 107.934 141.155 108.341C145.55 108.748 150.111 106.545 152.503 102.842L137.577 103.213H137.595Z" fill="#060807"/>
<path d="M131.755 148.848C135.63 146.997 140.098 146.59 144.437 146.367C150.945 146.034 157.842 146.145 163.479 149.219C169.338 152.403 172.935 158.253 175.809 164.011C188.992 190.596 192.07 220.551 193.405 249.876C194.22 267.705 194.443 285.552 194.684 303.38C194.721 306.509 194.758 309.693 193.738 312.674C192.292 316.839 188.918 320.172 185.228 322.819C175.661 329.688 163.702 332.872 151.891 335.038C132.367 338.611 112.342 339.759 92.4844 338.482C90.76 338.371 88.7947 338.13 87.7749 336.797C87.1445 335.964 87.0332 334.89 86.9405 333.89C86.236 326.004 85.5314 318.117 84.8268 310.23C72.5154 312.341 58.8875 311.378 48.9123 304.269C40.68 298.4 35.8963 288.995 34.0793 279.424C32.2437 269.852 33.078 260.022 34.2276 250.358C35.544 239.398 37.2684 228.493 39.4006 217.663C41.7739 205.629 44.7405 193.503 50.8221 182.691C53.1027 178.636 55.9766 174.638 60.1854 172.323C66.1001 169.046 73.4425 169.639 80.2842 170.009C96.5449 170.861 115.105 168.824 124.969 156.605L131.773 148.848H131.755Z" fill="#EFA02A"/>
<path d="M186.025 169.528C186.025 169.528 176.198 182.154 176.106 182.006C174.993 178.785 173.25 175.804 171.007 173.23C170.747 176.896 170.488 180.543 170.228 184.209C167.985 181.025 165.24 178.192 162.126 175.841L161.05 183.524C159.66 178.896 155.098 175.989 150.667 174.064C144.048 171.176 136.205 169.565 129.734 172.768C131.718 169.38 133.702 166.01 135.686 162.622C132.979 162.789 130.272 162.956 127.583 163.122C129.511 160.586 131.458 158.049 133.387 155.513C130.587 155.458 127.787 155.384 125.006 155.328C131.421 151.44 133.368 143.498 138.263 137.833C138.467 137.611 139.005 123.133 139.023 123.189C139.023 123.133 152.781 135.981 154.208 135.889C159.697 135.593 168.189 134.741 173.658 134.445C175.271 128.817 177.366 123.337 179.888 118.042C183.448 124.744 186.507 131.705 188.992 138.87C193.423 139.536 197.818 140.536 202.082 141.869C200.098 143.887 198.114 145.905 196.13 147.923C199.523 148.404 202.861 149.367 205.994 150.774C203.232 153.162 200.135 155.143 196.816 156.661C198.485 156.994 200.043 157.883 201.174 159.142L188.899 167.14L186.007 169.509L186.025 169.528Z" fill="#D1D0CF"/>
<path d="M195.815 160.827C197.743 167.88 199.69 174.989 200.302 182.265C200.932 189.559 200.153 197.113 196.909 203.667C193.701 210.109 188.231 215.275 181.964 218.829C180.796 219.496 179.331 220.107 178.163 219.422C176.383 218.385 177.144 215.7 178.108 213.886C178.034 215.978 175.215 217.404 173.547 216.163C171.878 214.923 172.527 211.72 174.566 211.313C173.769 213.553 169.801 213.368 169.226 211.054C168.726 209.091 170.395 207.295 171.859 205.888C174.863 203.019 177.681 199.797 179.183 195.91C182.298 187.764 178.961 178.729 175.642 170.657L195.815 160.808V160.827Z" fill="#D1D0CF"/>
<path d="M160.141 170.046C158.51 176.581 157.471 183.246 157.045 189.967C156.674 195.817 156.915 202.204 160.623 206.758C161.662 208.036 162.941 209.11 163.849 210.48C164.758 211.85 165.259 213.645 164.554 215.126C163.849 216.608 161.587 217.293 160.493 216.071C162.403 217.533 162.162 220.958 160.048 222.143C157.953 223.309 154.894 221.736 154.634 219.348C154.95 221.236 154.95 223.735 153.17 224.439C151.334 225.161 149.628 223.235 148.627 221.551C142.694 211.553 137.725 200.816 135.722 189.374C133.72 177.933 134.869 165.677 140.524 155.532L160.16 170.065L160.141 170.046Z" fill="#D1D0CF"/>
<path d="M81.6748 157.698L99.493 149.089L86.2916 164.881L81.6748 157.698Z" fill="#874C23"/>
<path d="M122.15 123.003C118.757 122.578 115.29 124.521 113.602 127.428C113.12 128.243 112.787 129.15 112.638 130.076C112.583 130.427 112.731 130.779 113.102 130.89C113.417 130.983 113.862 130.779 113.918 130.427C114.4 127.484 116.81 125.114 119.684 124.429C120.481 124.244 121.297 124.188 122.169 124.299C122.521 124.336 122.836 123.966 122.836 123.633C122.836 123.244 122.539 123.022 122.169 122.966L122.15 123.003Z" fill="#562F14"/>
<path d="M116.032 125.669C116.625 125.818 117.052 126.169 117.385 126.706C117.719 127.243 117.867 127.873 117.83 128.502C117.83 128.724 117.83 128.761 117.775 128.983C117.738 129.187 117.682 129.391 117.608 129.576C117.478 129.946 117.311 130.279 117.107 130.613C116.662 131.335 116.106 131.964 115.494 132.556C114.882 133.149 115.828 134.093 116.421 133.482C117.534 132.39 118.572 131.094 118.961 129.576C119.314 128.243 119.091 126.762 118.257 125.669C117.775 125.04 117.126 124.577 116.366 124.373C115.531 124.17 115.179 125.447 116.013 125.651L116.032 125.669Z" fill="#562F14"/>
<path d="M63.3374 66.1856C71.3102 62.6495 78.7638 71.0732 87.4597 71.7211C93.7266 72.184 100.068 72.7209 105.908 75.0165C111.749 77.2937 117.107 81.6073 119.184 87.5131C120.296 90.6604 120.408 94.0484 120.315 97.3808C120.167 102.102 119.592 106.823 118.572 111.433C118.275 112.803 117.904 114.228 117.07 115.357C116.829 117.431 115.865 119.449 114.104 120.541C112.769 121.374 111.174 121.596 109.617 121.874C108.078 122.152 106.464 122.504 105.278 123.54C104.091 124.577 103.535 126.484 104.462 127.743C103.368 126.614 102.422 125.095 102.793 123.577C103.201 121.856 105.074 120.948 106.724 120.3C108.374 119.652 110.247 118.819 110.766 117.116C110.989 116.357 110.896 115.561 110.71 114.783C103.998 111.784 97.4349 108.359 91.7427 103.731C85.0493 98.3065 79.5611 91.0492 77.6142 82.6811C69.9196 88.4758 61.2793 93.0301 52.1385 96.0849C51.5637 96.27 50.8962 96.4551 50.3771 96.1219C49.9691 95.8627 49.8023 95.3813 49.6725 94.9185C47.3548 86.5134 55.3461 69.7032 63.3189 66.1671L63.3374 66.1856Z" fill="#060807"/>
<path d="M114.919 44.6175C113.176 38.471 114.047 31.6765 117.255 26.1595C120.37 20.8091 125.691 16.9028 131.662 15.3107C136.909 13.9036 145.049 13.8296 146.94 20.2352C147.737 22.9197 147.181 25.8818 146.124 28.4182C145.568 29.7512 144.845 31.1952 143.843 32.2505C142.879 33.2687 141.563 33.5279 140.283 32.9355C139.134 32.4171 138.207 31.3433 137.966 30.1029C137.688 28.6589 138.299 27.1593 139.227 26.0485C141.47 23.401 145.123 23.1418 148.349 23.4195C155.283 24.012 162.088 26.3632 167.947 30.1029C169.263 30.9545 170.58 31.9728 170.691 33.676C170.784 35.1756 170.024 36.6011 169.208 37.8045C168.744 38.4895 168.207 39.119 167.65 39.7114C167.113 40.2853 166.538 40.8777 165.87 41.3035C165.24 41.6923 164.443 41.97 163.757 41.5072C163.275 41.174 163.071 40.5815 163.052 40.0076C162.997 38.6932 163.72 37.4713 164.628 36.5826C165.574 35.6384 166.779 35.009 168.04 34.6202C170.988 33.7501 174.01 34.3795 176.717 35.694C178.256 36.453 179.684 37.3972 181.074 38.3969C182.409 39.3596 183.744 40.3594 184.968 41.4702C187.174 43.4696 189.455 46.0615 189.863 49.1162C190.048 50.5788 189.715 52.0784 188.917 53.3188C188.064 54.6332 186.804 55.633 185.487 56.4661C182.539 58.3359 179.276 59.743 175.938 60.7427C174.288 61.224 172.619 61.6128 170.932 61.8905C170.506 61.9646 170.691 62.594 171.099 62.52C174.863 61.8905 178.534 60.7427 181.983 59.1135C183.633 58.3359 185.265 57.4658 186.748 56.392C188.046 55.4478 189.232 54.3 189.918 52.8374C191.328 49.7827 190.16 46.5614 188.25 44.025C186.136 41.2295 183.281 39.0634 180.407 37.101C177.607 35.1941 174.362 33.5094 170.895 33.5279C168.077 33.5464 165.11 34.6387 163.423 36.9899C162.644 38.0637 162.125 39.5077 162.552 40.8407C162.737 41.4146 163.108 41.933 163.683 42.1922C164.387 42.5254 165.166 42.3958 165.852 42.0626C166.612 41.6923 167.242 41.0999 167.817 40.5075C168.411 39.8965 168.967 39.2486 169.486 38.5636C170.432 37.2861 171.284 35.805 171.396 34.1759C171.507 32.5282 170.636 31.1767 169.375 30.214C167.891 29.0847 166.204 28.1775 164.535 27.3444C161.217 25.6782 157.694 24.4008 154.06 23.6047C152.243 23.1974 150.388 22.9197 148.534 22.7531C146.717 22.5864 144.845 22.5864 143.046 23.0308C140.061 23.7898 137.057 26.3632 137.298 29.7141C137.484 32.306 140.413 34.7128 142.99 33.6575C144.474 33.0465 145.382 31.4359 146.087 30.0844C146.81 28.7144 147.348 27.2703 147.681 25.7522C148.293 22.9197 148.108 19.7724 146.291 17.4027C144.288 14.7923 140.932 13.9036 137.799 13.8666C131.235 13.7555 124.69 16.6621 120.148 21.3275C115.401 26.2336 112.991 33.1576 113.473 39.9336C113.584 41.5813 113.881 43.1919 114.326 44.7841C114.437 45.1914 115.086 45.0248 114.956 44.6175H114.919Z" fill="#060807"/>
<path d="M72.1443 34.0277C74.8328 31.4358 76.1863 27.7146 76.1863 24.0305C76.1863 20.3463 74.8328 16.6066 72.1629 14.0147C69.5115 11.4598 65.7847 10.275 62.1506 10.4045C58.5165 10.5341 54.8453 11.9782 52.3237 14.6441C50.9887 16.0512 50.0431 17.7914 49.6537 19.6983C49.2829 21.4941 49.4127 23.4936 50.4696 25.0487C50.7291 25.419 51.0258 25.7707 51.3595 26.0669C51.5079 26.1965 51.786 26.1965 51.8787 25.9929C53.6772 22.3087 55.2347 18.2913 55.3088 14.1258C55.383 10.4601 54.048 6.83145 51.137 4.51727C48.5969 2.4993 45.2409 1.55511 42.0333 1.99944C38.7885 2.44376 36.0073 4.44321 34.3572 7.23875C32.7255 10.0158 32.1693 13.4778 33.1334 16.588C33.2447 16.9768 33.393 17.3471 33.5599 17.7174C33.6711 17.958 34.0234 17.921 34.1347 17.7174C36.1928 14.1813 37.6019 9.83063 36.1928 5.7947C35.5994 4.12848 34.5797 2.59187 33.1705 1.49957C31.6687 0.351738 29.796 -0.148126 27.9048 0.0370088C23.974 0.407278 20.581 3.16578 18.5229 6.38713C16.4648 9.60847 15.6305 13.5518 16.2979 17.3101C16.9469 20.9942 18.9679 24.4377 21.8974 26.789C22.2497 27.0667 22.6205 27.3444 23.0099 27.6036C23.2695 27.7702 23.5476 27.4925 23.492 27.2333C22.7318 23.0863 19.2275 19.6798 15.0186 19.1429C10.7726 18.606 6.52667 20.8832 4.69108 24.734C2.98528 28.3256 3.37465 32.5466 4.50567 36.2308C5.80356 40.4334 8.23247 44.2101 10.958 47.6166C13.9247 51.3193 17.4104 54.5777 21.3041 57.2806C21.7862 57.6139 22.2868 57.9471 22.7874 58.2618C23.1397 58.484 23.4734 57.9286 23.1211 57.6879C19.2831 55.2256 15.8159 52.2079 12.8122 48.783C11.3103 47.0797 9.93827 45.2654 8.696 43.3585C7.58353 41.6553 6.5823 39.878 5.84064 37.9896C4.45005 34.4906 3.61569 30.4546 4.63546 26.7519C5.11753 24.9932 6.0446 23.401 7.37957 22.1606C8.9185 20.7351 10.958 19.8834 13.0532 19.7353C15.1113 19.5872 17.1694 20.1056 18.8752 21.2719C20.5254 22.4013 21.8418 24.086 22.4907 25.9744C22.6576 26.4372 22.7689 26.9 22.8616 27.3814L23.3436 27.0111C20.3956 25.0302 18.2262 21.9755 17.2806 18.569C16.3165 15.0885 16.7058 11.3487 18.3189 8.10888C19.9506 4.85051 22.8059 1.98092 26.3659 0.981195C28.1273 0.481332 30.0556 0.499845 31.7243 1.33295C33.2261 2.092 34.3757 3.40646 35.1174 4.88754C36.8973 8.44212 36.0259 12.5891 34.3201 15.9956C34.079 16.4584 33.838 16.9213 33.5784 17.3656H34.1532C32.9295 14.5701 33.152 11.2562 34.4499 8.51617C35.7663 5.73915 38.1767 3.55457 41.1989 2.83254C44.1655 2.11052 47.4102 2.777 49.9504 4.44321C51.2297 5.27632 52.3237 6.38713 53.121 7.70158C54.0666 9.29374 54.5672 11.1266 54.6784 12.9779C54.9195 16.9028 53.603 20.7906 51.9899 24.3267C51.786 24.771 51.582 25.2338 51.3595 25.6782C51.5264 25.6596 51.7118 25.6411 51.8787 25.6041C49.0419 23.0678 50.1173 18.4394 52.231 15.8105C54.4003 13.089 57.7563 11.4968 61.1864 11.1266C64.598 10.7748 68.195 11.5894 70.9021 13.737C73.6647 15.9401 75.2222 19.328 75.5188 22.8086C75.797 26.2706 74.8699 29.9177 72.5893 32.6022C72.3112 32.9354 72.0145 33.2316 71.7179 33.5279C71.4027 33.8241 71.8848 34.2869 72.1814 33.9907L72.1443 34.0277Z" fill="#060807"/>
<path d="M91.1861 61.7054C87.515 64.4269 84.4 67.7963 81.934 71.6471C79.5051 75.4053 77.6881 79.5338 76.1677 83.7179C75.2962 86.0876 74.5175 88.4944 73.7573 90.9196C73.6275 91.3269 74.2765 91.4935 74.3877 91.0862C75.7042 86.8652 77.0948 82.6626 78.9118 78.6452C80.7288 74.6278 82.9723 70.7955 85.8833 67.4816C87.5706 65.5562 89.4618 63.8159 91.5013 62.2978C91.8351 62.0386 91.5013 61.4647 91.1676 61.7239L91.1861 61.7054Z" fill="#B4713D"/>
<path d="M125.988 79.034C128.027 77.775 130.104 76.5346 132.329 75.646C134.443 74.8129 136.779 74.2945 139.06 74.6648C140.005 74.8314 141.192 75.0721 141.859 75.8682C142.119 76.1829 142.23 76.6087 142.045 76.979C141.878 77.3122 141.526 77.5344 141.192 77.6825C140.228 78.0898 139.097 78.0713 138.077 78.1453C136.76 78.2379 135.425 78.2934 134.109 78.3304C131.142 78.4045 128.157 78.3304 125.191 78.1268C125.283 78.2934 125.376 78.46 125.469 78.6267C127.601 75.5534 128.917 71.9618 129.344 68.2591C129.548 66.4633 129.585 64.5379 129.27 62.7421C129.047 61.4647 128.157 59.6689 126.563 60.1872C125.765 60.4464 125.154 61.187 124.727 61.8905C124.319 62.557 124.041 63.2975 123.893 64.0566C123.559 65.7043 123.707 67.389 123.911 69.0367C124.152 70.888 124.43 72.7209 124.486 74.5907C124.523 76.7013 124.356 78.7933 124.004 80.8853C123.318 85.0693 122.039 89.1423 120.685 93.1412C120.518 93.6411 120.351 94.1409 120.184 94.6408C120.055 95.0481 120.685 95.2147 120.815 94.8074C122.113 90.9566 123.411 87.0873 124.264 83.1069C125.079 79.2191 125.413 75.2572 124.894 71.2953C124.671 69.6847 124.412 68.0555 124.375 66.4263C124.356 64.9267 124.542 63.3716 125.395 62.0941C125.784 61.5017 126.433 60.6871 127.23 60.7797C127.861 60.8537 128.231 61.5202 128.417 62.0571C128.676 62.7791 128.751 63.5567 128.788 64.3158C128.843 65.2044 128.843 66.1116 128.788 67.0002C128.584 70.5733 127.49 74.0909 125.617 77.1641C125.376 77.5529 125.135 77.9231 124.875 78.2934C124.727 78.5156 124.931 78.7748 125.154 78.7933C128.009 78.9969 130.883 79.071 133.738 79.0154C135.147 78.9784 136.575 78.9229 137.984 78.8303C139.097 78.7563 140.302 78.7563 141.34 78.3304C142.193 77.9787 142.898 77.2752 142.731 76.294C142.545 75.2757 141.47 74.6833 140.58 74.3871C138.207 73.6095 135.648 73.8687 133.312 74.6092C130.568 75.4794 128.046 76.9604 125.617 78.4785C125.265 78.7007 125.58 79.2746 125.951 79.0525L125.988 79.034Z" fill="#EFA02A"/>
<path d="M124.486 79.2562L112.305 83.9956C111.915 84.1437 112.082 84.7917 112.471 84.6251L124.653 79.8856C125.043 79.7375 124.876 79.0896 124.486 79.2562Z" fill="#EFA02A"/>
<path d="M137.317 105.582C137.224 102.157 136.649 98.7507 135.685 95.4739C134.703 92.16 133.33 88.9756 131.643 85.9765C129.974 83.0143 127.972 80.2373 125.747 77.6454C123.541 75.0905 121.093 72.7208 118.479 70.5547C115.883 68.4072 113.12 66.4447 110.247 64.6489C109.894 64.4268 109.523 64.2046 109.171 63.9825C108.8 63.7603 108.467 64.3342 108.837 64.5564C111.693 66.2781 114.455 68.1665 117.07 70.24C119.684 72.332 122.15 74.6092 124.394 77.0715C126.656 79.5523 128.677 82.2367 130.401 85.1248C132.144 88.0314 133.59 91.1232 134.665 94.3631C135.722 97.5659 136.408 100.917 136.612 104.286C136.631 104.712 136.649 105.138 136.668 105.564C136.668 105.99 137.335 105.99 137.335 105.564L137.317 105.582Z" fill="#EFA02A"/>
<path d="M79.2826 59.3727C76.316 59.8911 73.405 60.7612 70.6238 61.9461C67.8426 63.1309 65.2098 64.612 62.7623 66.3708C60.2963 68.1295 58.0158 70.166 55.9762 72.4062C53.9552 74.6278 52.1567 77.0901 50.6549 79.7005C49.153 82.3109 47.9478 85.0879 47.0949 87.976C46.9837 88.3277 46.891 88.698 46.7983 89.0498C46.687 89.4571 47.3174 89.6422 47.4287 89.2164C48.1889 86.3468 49.3013 83.5698 50.7105 80.9594C52.1196 78.349 53.8254 75.8867 55.7537 73.6466C57.7005 71.4064 59.8884 69.3514 62.2617 67.5556C64.635 65.7598 67.1937 64.2232 69.9007 62.9828C72.6078 61.7424 75.4446 60.8167 78.3556 60.2243C78.7264 60.1502 79.0787 60.0762 79.4495 60.0206C79.8759 59.9466 79.6905 59.3171 79.2826 59.3912V59.3727Z" fill="#EFA02A"/>
<path d="M142.23 106.452C141.6 102.491 140.45 98.6212 138.837 94.9555C137.224 91.2899 135.129 87.8279 132.607 84.6991C129.956 81.4037 126.878 78.4786 124.393 75.0351C122.41 72.2765 120.685 69.3514 118.609 66.667C116.643 64.1306 114.288 61.7794 111.285 60.5205C110.914 60.3539 110.525 60.2243 110.135 60.0947C109.727 59.9651 109.56 60.6131 109.968 60.7241C113.065 61.7054 115.512 63.8529 117.533 66.3152C119.647 68.8886 121.353 71.7767 123.262 74.5167C124.375 76.1088 125.562 77.6269 126.841 79.0895C128.25 80.7002 129.733 82.2738 131.124 83.903C133.72 86.9392 135.926 90.2902 137.651 93.9003C139.375 97.4734 140.617 101.269 141.359 105.175C141.451 105.656 141.526 106.138 141.6 106.619C141.674 107.045 142.304 106.86 142.23 106.452Z" fill="#EFA02A"/>
<path d="M79.4867 54.9665C73.6462 58.2434 68.0096 61.835 62.577 65.7599C59.8886 67.7038 57.2372 69.7217 54.6599 71.8138C52.1568 73.8317 49.6723 75.8867 47.3546 78.1083C44.9257 80.441 42.7008 83.107 41.5698 86.3283C41.4214 86.7356 42.0704 86.9022 42.2002 86.4949C43.2014 83.6439 45.1111 81.2556 47.2248 79.1451C49.4498 76.9235 51.8973 74.9055 54.3447 72.9061C59.4436 68.722 64.7835 64.8342 70.3088 61.2611C73.4052 59.2616 76.5757 57.3362 79.8019 55.5404C80.1727 55.3368 79.839 54.7629 79.4682 54.9665H79.4867Z" fill="#EFA02A"/>
<path d="M67.7126 110.063C68.343 114.432 66.5631 119.079 63.2627 122.078C62.3913 122.874 61.4271 123.485 60.3888 124.059C59.2949 124.67 58.2566 125.336 57.552 126.391C56.3468 128.187 56.217 130.594 57.0514 132.556C57.5706 133.741 58.4605 134.63 59.5545 135.315C60.7411 136.055 62.0946 136.518 63.1515 137.425C63.4296 137.648 63.819 137.685 64.0785 137.425C64.3196 137.185 64.3567 136.722 64.0785 136.5C63.0959 135.667 61.9278 135.148 60.8153 134.537C59.8511 134 58.9797 133.371 58.4605 132.464C57.552 130.872 57.5891 128.743 58.5903 127.188C58.8314 126.817 59.1466 126.447 59.5545 126.132C60.0551 125.743 60.6299 125.429 61.2046 125.114C62.2615 124.522 63.2442 123.855 64.1342 123.04C65.8585 121.467 67.1749 119.504 68.0464 117.338C69.0105 114.913 69.3257 112.284 68.9549 109.692C68.8993 109.341 68.4543 109.137 68.1391 109.229C67.7683 109.341 67.6199 109.692 67.6756 110.044L67.7126 110.063Z" fill="#562F14"/>
<path d="M74.2026 136.037C72.7193 139.258 68.77 141.128 65.3398 140.221C66.6007 144.238 72.367 143.998 73.3126 139.906L74.2026 136.037Z" fill="#FCFCFC"/>
<path d="M73.6275 135.704C72.5521 138.036 70.1418 139.592 67.6387 139.777C66.8785 139.832 66.211 139.777 65.5064 139.592C65.0429 139.462 64.5423 139.906 64.6906 140.406C65.08 141.609 65.8958 142.683 67.0454 143.257C68.1393 143.794 69.4001 143.924 70.5682 143.609C71.7549 143.276 72.8117 142.48 73.405 141.406C73.8315 140.628 73.9798 139.777 74.1838 138.925C74.3877 138.036 74.5917 137.129 74.7956 136.241C74.8698 135.889 74.6844 135.519 74.3321 135.426C73.9984 135.333 73.5904 135.537 73.5163 135.889C73.3494 136.574 73.2011 137.259 73.0342 137.962C72.8673 138.666 72.7375 139.406 72.5336 140.11C72.515 140.184 72.4965 140.24 72.4594 140.314C72.4594 140.351 72.3853 140.48 72.4409 140.388C72.3853 140.517 72.3111 140.665 72.2369 140.795C72.1628 140.906 72.0886 141.017 72.0144 141.128C71.9403 141.258 72.033 141.128 71.9588 141.202C71.9032 141.258 71.8661 141.313 71.8105 141.369C71.7363 141.461 71.6436 141.535 71.5509 141.628C71.4953 141.665 71.4582 141.702 71.4026 141.758C71.3099 141.832 71.384 141.758 71.4026 141.758C71.3655 141.776 71.3469 141.795 71.3099 141.813C71.0874 141.961 70.8649 142.091 70.6424 142.202C70.494 142.276 70.6795 142.202 70.5868 142.22C70.5311 142.22 70.4941 142.257 70.4384 142.276C70.3086 142.313 70.1788 142.35 70.0491 142.387C69.9193 142.424 69.808 142.443 69.6782 142.461C69.6041 142.461 69.7153 142.461 69.7153 142.461C69.6782 142.461 69.6411 142.461 69.6041 142.461C69.5299 142.461 69.4557 142.461 69.4001 142.461C69.1591 142.461 68.8995 142.461 68.6585 142.424C68.8253 142.443 68.6399 142.424 68.6028 142.424C68.5472 142.424 68.473 142.406 68.4174 142.387C68.2876 142.35 68.1578 142.313 68.0281 142.276C67.9539 142.257 67.8983 142.22 67.8241 142.202C67.7499 142.183 67.8426 142.202 67.8612 142.202C67.8241 142.202 67.787 142.165 67.7314 142.146C67.6016 142.091 67.4718 142.017 67.342 141.943C67.2864 141.906 67.2122 141.869 67.1566 141.832C67.1381 141.832 67.1195 141.795 67.0824 141.776C66.9341 141.684 67.1381 141.832 67.0639 141.776C66.9527 141.684 66.8414 141.591 66.7302 141.48C66.6745 141.424 66.6189 141.369 66.5818 141.313C66.5448 141.276 66.4335 141.147 66.4706 141.184C66.5077 141.221 66.3964 141.073 66.3593 141.036C66.3223 140.962 66.2666 140.906 66.2296 140.832C66.1554 140.684 66.0812 140.554 66.0071 140.406C65.9885 140.351 65.97 140.314 65.9514 140.258C65.9329 140.184 65.8958 140.11 65.8773 140.036C65.5991 140.314 65.3396 140.573 65.0614 140.85C67.9724 141.591 71.1801 140.591 73.2382 138.425C73.8129 137.814 74.3136 137.111 74.6658 136.352C74.8142 136.037 74.7585 135.648 74.4248 135.445C74.1467 135.278 73.6646 135.352 73.5163 135.685L73.6275 135.704Z" fill="#562F14"/>
<path d="M87.1445 118.134C87.1445 120.226 88.3683 121.93 89.8886 121.93C91.409 121.93 92.6328 120.226 92.6328 118.134C92.6328 116.042 91.409 114.339 89.8886 114.339C88.3683 114.339 87.1445 116.042 87.1445 118.134Z" fill="#060807"/>
<path d="M55.958 118.134C55.958 120.226 57.1817 121.93 58.7021 121.93C60.2225 121.93 61.4462 120.226 61.4462 118.134C61.4462 116.042 60.2225 114.339 58.7021 114.339C57.1817 114.339 55.958 116.042 55.958 118.134Z" fill="#060807"/>
<path d="M109.598 138.333C108.282 143.442 108.356 149.107 111.007 153.68C113.659 158.253 119.277 161.252 124.338 159.827C121.687 158.772 120.037 155.661 120.667 152.884C120.945 151.607 121.631 150.459 121.928 149.2C122.484 146.664 121.186 143.813 118.869 142.591L109.598 138.333Z" fill="#060807"/>
<path d="M87.3292 107.563C89.4058 109.248 91.7791 110.581 94.3007 111.451C92.632 108.174 89.8693 105.49 86.5504 103.898C85.92 105.156 86.2167 106.675 87.3106 107.563H87.3292Z" fill="#060807"/>
<path d="M60.0926 102.102C58.016 103.786 55.6427 105.119 53.1211 105.99C54.7898 102.713 57.5525 100.028 60.8714 98.436C61.5018 99.695 61.2051 101.213 60.1112 102.102H60.0926Z" fill="#060807"/>
<path d="M77.6882 211.85C76.4274 218.274 76.7983 224.827 77.2989 231.326C77.818 237.935 78.3557 244.526 78.9305 251.135C80.0801 264.354 81.3594 277.554 82.75 290.735C83.5288 298.122 84.3631 305.528 85.216 312.896C85.2531 313.248 85.4941 313.544 85.8835 313.563C86.2172 313.563 86.5881 313.248 86.551 312.896C85.0121 299.714 83.6029 286.533 82.305 273.333C81.0257 260.207 79.8576 247.062 78.8193 233.899C78.2445 226.697 77.5585 219.348 78.9491 212.201C79.1159 211.368 77.8366 211.016 77.6697 211.85H77.6882Z" fill="#B77115"/>
<path d="M69.6971 220.014C70.9023 224.068 72.0889 228.123 73.2941 232.177L76.8911 244.341C77.5586 246.618 78.2446 248.895 78.9121 251.191C79.1531 252.005 80.4325 251.653 80.1915 250.839L76.5944 238.676L72.9974 226.512C72.3299 224.235 71.6439 221.958 70.9764 219.662C70.7354 218.848 69.456 219.199 69.6971 220.014Z" fill="#B77115"/>
<path d="M54.734 271.315C55.1604 273.999 55.865 276.628 56.8292 279.183C56.9589 279.516 57.2741 279.738 57.645 279.646C57.9602 279.553 58.2383 279.165 58.1085 278.831C57.1444 276.295 56.4583 273.647 56.0133 270.963C55.9577 270.611 55.5127 270.408 55.1975 270.5C54.8267 270.611 54.6784 270.963 54.734 271.315Z" fill="#B77115"/>
<path d="M39.4928 252.746C39.6782 254.412 39.8636 256.097 40.049 257.763C40.0861 258.115 40.3272 258.429 40.7165 258.429C41.0503 258.429 41.4211 258.133 41.384 257.763C41.1986 256.097 41.0132 254.412 40.8278 252.746C40.7907 252.394 40.5497 252.079 40.1603 252.079C39.8266 252.079 39.4557 252.376 39.4928 252.746Z" fill="#B77115"/>
<path d="M125.803 162.085C122.336 164.733 118.72 167.269 114.753 169.12C112.824 170.009 110.803 170.731 108.727 171.175C106.631 171.638 104.536 171.694 102.404 171.675C99.9566 171.638 97.4164 171.675 95.2285 172.879C94.4869 173.286 95.1544 174.434 95.896 174.027C97.7502 173.008 99.9195 172.971 101.978 172.99C103.053 172.99 104.147 173.027 105.222 172.99C106.316 172.934 107.41 172.786 108.486 172.583C112.769 171.768 116.774 169.824 120.426 167.51C122.521 166.195 124.524 164.733 126.471 163.233C126.749 163.011 126.897 162.659 126.712 162.326C126.545 162.048 126.1 161.863 125.803 162.085Z" fill="#B77115"/>
<path d="M62.7623 181.728C60.5929 183.024 59.0169 185.301 58.6647 187.819C58.609 188.171 58.7574 188.523 59.1282 188.634C59.4434 188.726 59.8884 188.523 59.944 188.171C60.2592 185.986 61.5386 184.005 63.4483 182.857C64.1714 182.413 63.5225 181.284 62.7808 181.71L62.7623 181.728Z" fill="#B77115"/>
<path d="M55.7726 186.134C55.4203 187.449 55.068 188.745 54.7342 190.059C54.6415 190.392 54.8455 190.8 55.1978 190.874C55.5501 190.948 55.9209 190.763 56.0136 190.411C56.3659 189.097 56.7182 187.801 57.0519 186.486C57.1446 186.153 56.9407 185.746 56.5884 185.672C56.2361 185.597 55.8653 185.783 55.7726 186.134Z" fill="#B77115"/>
<path d="M63.3374 173.971C62.0766 174.934 61.0568 176.193 60.4264 177.655C60.2966 177.97 60.3151 178.377 60.6674 178.562C60.9456 178.71 61.4276 178.655 61.576 178.322C61.8541 177.674 62.2249 177.044 62.6514 176.47C62.6143 176.526 62.6143 176.526 62.6514 176.47C62.6884 176.433 62.707 176.396 62.7441 176.359C62.7997 176.285 62.8553 176.23 62.9109 176.174C63.0222 176.045 63.152 175.915 63.2818 175.785C63.4115 175.656 63.5413 175.526 63.6711 175.415C63.7453 175.36 63.8194 175.285 63.8936 175.23C63.9307 175.211 63.9492 175.174 63.9863 175.156C63.9863 175.156 64.1532 175.026 64.0234 175.119C64.1717 175.008 64.283 174.897 64.3201 174.73C64.3571 174.563 64.3386 174.36 64.2459 174.212C64.079 173.934 63.634 173.749 63.3374 173.971Z" fill="#B77115"/>
<path d="M49.6349 204.185C49.672 204.463 49.672 204.74 49.672 205.018C49.672 205.148 49.672 205.296 49.6535 205.425C49.6535 205.462 49.6535 205.499 49.6535 205.536C49.6535 205.61 49.6535 205.61 49.6535 205.573C49.6535 205.518 49.6535 205.536 49.6535 205.61C49.6535 205.647 49.6535 205.685 49.6349 205.722C49.5793 205.999 49.5237 206.258 49.431 206.518C49.3939 206.647 49.3383 206.777 49.2827 206.906C49.227 207.036 49.3197 206.832 49.2641 206.962C49.227 207.036 49.1899 207.11 49.1714 207.184C49.0231 207.499 49.0787 207.906 49.4124 208.091C49.7091 208.239 50.1541 208.184 50.321 207.851C50.8772 206.721 51.1368 205.444 50.9885 204.185C50.9514 203.833 50.7103 203.5 50.321 203.518C49.9872 203.518 49.6164 203.815 49.6535 204.185H49.6349Z" fill="#B77115"/>
<path d="M90.4998 264.835C90.2403 266.149 90.4257 267.519 91.0746 268.704C91.2415 269.001 91.6865 269.13 91.9831 268.945C92.2983 268.741 92.391 268.371 92.2242 268.038C92.1685 267.927 92.0944 267.797 92.0388 267.668C92.0017 267.594 92.0017 267.594 92.0388 267.668C92.0388 267.631 92.0017 267.594 92.0017 267.557C91.9831 267.501 91.9646 267.445 91.946 267.39C91.8533 267.131 91.7977 266.853 91.7421 266.575C91.7421 266.52 91.7421 266.538 91.7421 266.612C91.7421 266.575 91.7421 266.538 91.7421 266.501C91.7421 266.427 91.7421 266.372 91.7421 266.298C91.7421 266.168 91.7421 266.02 91.7421 265.89C91.7421 265.761 91.7421 265.613 91.7606 265.483C91.7606 265.446 91.7606 265.427 91.7606 265.39C91.7606 265.464 91.7606 265.464 91.7606 265.39C91.7606 265.316 91.7792 265.242 91.7977 265.168C91.8719 264.835 91.705 264.446 91.3342 264.354C91.0004 264.28 90.5925 264.446 90.5184 264.816L90.4998 264.835Z" fill="#B77115"/>
<path d="M96.7116 261.966C96.7858 262.058 96.8414 262.169 96.9156 262.262C96.9527 262.317 96.9712 262.373 97.0083 262.428C97.0083 262.447 97.0268 262.484 97.0454 262.502C97.0824 262.576 97.0639 262.558 97.0454 262.465C97.101 262.539 97.1195 262.688 97.1566 262.762C97.1937 262.873 97.2122 263.002 97.2493 263.113C97.2493 263.15 97.2493 263.169 97.2493 263.206C97.2493 263.28 97.2493 263.261 97.2493 263.169C97.2679 263.169 97.2493 263.317 97.2493 263.354C97.2493 263.465 97.2493 263.558 97.2493 263.669C97.2493 263.724 97.2493 263.798 97.2493 263.854C97.2493 263.891 97.2493 263.909 97.2493 263.947C97.2493 263.854 97.2493 263.835 97.2493 263.909C97.2308 264.021 97.2122 264.15 97.1752 264.261C97.0824 264.594 97.2864 265.002 97.6387 265.076C97.991 265.15 98.3618 264.965 98.4545 264.613C98.7697 263.502 98.5658 262.243 97.8983 261.299C97.6943 261.021 97.3049 260.855 96.9897 261.058C96.7116 261.244 96.5448 261.669 96.7487 261.966H96.7116Z" fill="#B77115"/>
<mask id="mask0_2579_1059" style="mask-type:luminance" maskUnits="userSpaceOnUse" x="125" y="118" width="81" height="67">
<path d="M186.025 169.528C186.025 169.528 176.198 182.154 176.106 182.006C174.993 178.785 173.25 175.804 171.007 173.23C170.747 176.896 170.488 180.543 170.228 184.209C167.985 181.025 165.24 178.192 162.126 175.841L161.05 183.524C159.66 178.896 155.098 175.989 150.667 174.064C144.048 171.176 136.205 169.565 129.734 172.768C131.718 169.38 133.702 166.01 135.686 162.622C132.979 162.789 130.272 162.956 127.583 163.122C129.511 160.586 131.458 158.049 133.387 155.513C130.587 155.458 127.787 155.384 125.006 155.328C131.421 151.44 133.368 143.498 138.263 137.833C138.467 137.611 139.005 123.133 139.023 123.189C139.023 123.133 152.781 135.981 154.208 135.889C159.697 135.593 168.189 134.741 173.658 134.445C175.271 128.817 177.366 123.337 179.888 118.042C183.448 124.744 186.507 131.705 188.992 138.87C193.423 139.536 197.818 140.536 202.082 141.869C200.098 143.887 198.114 145.905 196.13 147.923C199.523 148.404 202.861 149.367 205.994 150.774C203.232 153.162 200.135 155.143 196.816 156.661C198.485 156.994 200.043 157.883 201.174 159.142L188.899 167.14L186.007 169.509L186.025 169.528Z" fill="white"/>
</mask>
<g mask="url(#mask0_2579_1059)">
<path d="M187.453 170.676C182.984 164.492 178.516 158.309 174.048 152.107C171.507 148.589 168.355 144.72 164.017 144.535C162.255 144.461 160.494 145.034 158.955 145.923C153.3 149.219 151.001 156.087 149.147 162.363L146.514 171.305C145.735 173.971 144.938 176.767 145.475 179.488C146.106 182.654 148.405 185.209 150.741 187.449C155.729 192.244 161.866 196.687 168.782 196.557C173.695 196.465 178.238 194.058 182.577 191.725C186.229 189.744 189.882 187.764 193.534 185.783L187.453 170.657V170.676Z" fill="white"/>
<path d="M164.147 157.42C162.96 157.476 161.978 156.531 161.978 155.346C161.978 154.736 161.94 154.162 161.495 153.81C161.254 153.625 160.976 153.551 160.68 153.477C160.049 153.329 159.437 153.162 158.807 153.014C158.51 152.94 158.158 152.829 158.121 152.458C158.084 152.107 158.325 151.773 158.677 151.681C161.514 150.959 164.499 151.144 167.392 151.551C167.966 151.625 168.56 151.736 168.931 152.218C169.153 152.514 169.19 152.94 168.949 153.236C168.486 153.828 167.466 153.31 166.761 153.606C166.205 153.828 165.964 154.495 165.908 155.087C165.853 155.68 165.908 156.309 165.63 156.846C165.352 157.383 164.647 157.772 164.165 157.42H164.147Z" fill="#060807"/>
<path d="M178.257 153.236C180.52 153.236 182.354 151.404 182.354 149.144C182.354 146.885 180.52 145.053 178.257 145.053C175.994 145.053 174.159 146.885 174.159 149.144C174.159 151.404 175.994 153.236 178.257 153.236Z" fill="#EFA02A"/>
<path d="M175.531 149.144C175.531 150.663 176.755 151.884 178.275 151.884C179.796 151.884 181.019 150.663 181.019 149.144C181.019 147.626 179.796 146.404 178.275 146.404C176.755 146.404 175.531 147.626 175.531 149.144Z" fill="black"/>
<path d="M182.02 150.163L180.963 149.107C180.833 148.978 180.611 148.978 180.5 149.107C180.37 149.237 180.37 149.441 180.5 149.57C180.852 149.922 181.204 150.274 181.557 150.626C181.686 150.755 181.909 150.755 182.02 150.626C182.15 150.496 182.15 150.292 182.02 150.163Z" fill="white"/>
<path d="M145.698 149.237C145.698 151.496 147.534 153.328 149.796 153.328C152.058 153.328 153.893 151.496 153.893 149.237C153.893 146.978 152.058 145.146 149.796 145.146C147.534 145.146 145.698 146.978 145.698 149.237Z" fill="#EFA02A"/>
<path d="M147.07 149.237C147.07 150.737 148.294 151.977 149.814 151.977C151.335 151.977 152.559 150.755 152.559 149.237C152.559 147.719 151.335 146.497 149.814 146.497C148.294 146.497 147.07 147.719 147.07 149.237Z" fill="black"/>
<path d="M153.559 150.255L152.502 149.2C152.372 149.07 152.15 149.07 152.039 149.2C151.909 149.33 151.909 149.533 152.039 149.663C152.391 150.015 152.743 150.366 153.096 150.718C153.225 150.848 153.448 150.848 153.559 150.718C153.689 150.589 153.689 150.385 153.559 150.255Z" fill="white"/>
<path d="M166.798 152.329C165.945 152.125 165.055 152.07 164.183 152.181C163.998 152.199 163.85 152.31 163.85 152.514C163.85 152.68 163.998 152.866 164.183 152.847C164.999 152.736 165.815 152.773 166.631 152.958C166.798 152.995 166.983 152.903 167.039 152.736C167.076 152.569 166.983 152.366 166.816 152.329H166.798Z" fill="white"/>
</g>
<path d="M170.06 159.105C169.764 160.067 168.966 160.845 167.965 161.049C167.465 161.16 166.908 161.086 166.426 160.9C165.889 160.697 165.555 160.327 165.147 159.956C164.739 159.586 164.257 159.382 163.701 159.475C163.182 159.567 162.737 159.864 162.292 160.123C161.884 160.364 161.476 160.549 161.012 160.567C160.586 160.586 160.159 160.512 159.77 160.345C158.899 159.975 158.213 159.216 158.064 158.272C157.99 157.846 157.36 158.031 157.434 158.438C157.73 160.364 159.992 161.697 161.828 161.067C162.384 160.882 162.848 160.512 163.367 160.271C163.589 160.16 163.849 160.067 164.109 160.104C164.424 160.141 164.646 160.382 164.85 160.586C165.685 161.437 166.797 161.882 168.002 161.697C169.282 161.493 170.32 160.493 170.691 159.271C170.821 158.864 170.172 158.697 170.06 159.105Z" fill="#060807"/>
<path d="M163.998 156.791C163.868 157.568 163.739 158.327 163.609 159.105C163.572 159.29 163.646 159.457 163.831 159.512C163.998 159.549 164.202 159.457 164.239 159.29L164.629 156.976C164.666 156.809 164.592 156.624 164.406 156.568C164.239 156.531 164.035 156.624 163.998 156.791Z" fill="#060807"/>
<path d="M157.026 154.772C157.026 154.772 156.878 154.921 156.822 154.976C156.785 155.013 156.767 155.05 156.748 155.087C156.729 155.124 156.711 155.161 156.711 155.217C156.711 155.254 156.711 155.309 156.748 155.346C156.748 155.383 156.785 155.42 156.822 155.457C156.841 155.457 156.859 155.495 156.896 155.513C156.952 155.55 157.008 155.55 157.063 155.55C157.1 155.55 157.119 155.55 157.156 155.55C157.212 155.55 157.267 155.513 157.304 155.457C157.378 155.383 157.453 155.309 157.508 155.254C157.545 155.217 157.564 155.18 157.582 155.143C157.601 155.106 157.619 155.069 157.619 155.013C157.619 154.976 157.619 154.921 157.582 154.884C157.582 154.847 157.545 154.81 157.508 154.772C157.49 154.772 157.471 154.735 157.434 154.717C157.378 154.68 157.323 154.68 157.267 154.68C157.23 154.68 157.212 154.68 157.174 154.68C157.119 154.68 157.063 154.717 157.026 154.772Z" fill="#060807"/>
<path d="M159.363 156.346H159.159C159.159 156.346 159.066 156.346 159.029 156.383C158.992 156.383 158.955 156.42 158.918 156.457C158.881 156.494 158.862 156.531 158.844 156.568C158.825 156.605 158.807 156.642 158.807 156.698C158.807 156.735 158.807 156.753 158.807 156.791C158.807 156.846 158.844 156.902 158.899 156.939C158.918 156.939 158.936 156.976 158.974 156.994C159.029 157.031 159.085 157.031 159.14 157.031H159.344C159.344 157.031 159.437 157.031 159.474 156.994C159.511 156.994 159.548 156.957 159.585 156.92C159.622 156.883 159.641 156.846 159.66 156.809C159.678 156.772 159.697 156.735 159.697 156.679C159.697 156.642 159.697 156.624 159.697 156.587C159.697 156.531 159.66 156.476 159.604 156.439C159.585 156.439 159.567 156.402 159.53 156.383C159.474 156.346 159.418 156.346 159.363 156.346Z" fill="#060807"/>
<path d="M154.839 156.883V157.013C154.839 157.013 154.839 157.105 154.876 157.142C154.876 157.179 154.913 157.216 154.95 157.253C154.987 157.29 155.024 157.309 155.061 157.327C155.098 157.346 155.136 157.364 155.191 157.364C155.228 157.364 155.247 157.364 155.284 157.364C155.339 157.364 155.395 157.327 155.432 157.272C155.432 157.253 155.469 157.235 155.488 157.198C155.525 157.142 155.525 157.087 155.525 157.031V156.902C155.525 156.902 155.525 156.809 155.488 156.772C155.488 156.735 155.451 156.698 155.414 156.661C155.377 156.624 155.339 156.605 155.302 156.587C155.265 156.568 155.228 156.55 155.173 156.55C155.136 156.55 155.117 156.55 155.08 156.55C155.024 156.55 154.969 156.587 154.932 156.642C154.932 156.661 154.894 156.679 154.876 156.716C154.839 156.772 154.839 156.828 154.839 156.883V157.013C154.839 157.013 154.839 157.105 154.876 157.142C154.876 157.179 154.913 157.216 154.95 157.253C154.987 157.29 155.024 157.309 155.061 157.327C155.098 157.346 155.136 157.364 155.191 157.364C155.228 157.364 155.247 157.364 155.284 157.364C155.339 157.364 155.395 157.327 155.432 157.272C155.432 157.253 155.469 157.235 155.488 157.198C155.525 157.142 155.525 157.087 155.525 157.031V156.902C155.525 156.902 155.525 156.809 155.488 156.772C155.488 156.735 155.451 156.698 155.414 156.661C155.377 156.624 155.339 156.605 155.302 156.587C155.265 156.568 155.228 156.55 155.173 156.55C155.136 156.55 155.117 156.55 155.08 156.55C155.024 156.55 154.969 156.587 154.932 156.642C154.932 156.661 154.894 156.679 154.876 156.716C154.839 156.772 154.839 156.828 154.839 156.883Z" fill="#060807"/>
<path d="M174.029 158.031H173.825C173.825 158.031 173.732 158.031 173.695 158.068C173.658 158.068 173.621 158.105 173.584 158.142C173.547 158.179 173.528 158.216 173.51 158.253C173.491 158.29 173.473 158.327 173.473 158.383C173.473 158.42 173.473 158.438 173.473 158.475C173.473 158.531 173.51 158.586 173.565 158.623C173.584 158.623 173.602 158.66 173.64 158.679C173.695 158.716 173.751 158.716 173.806 158.716H174.01C174.01 158.716 174.103 158.716 174.14 158.679C174.177 158.679 174.214 158.642 174.251 158.605C174.288 158.568 174.307 158.531 174.326 158.494C174.344 158.457 174.363 158.42 174.363 158.364C174.363 158.327 174.363 158.309 174.363 158.272C174.363 158.216 174.326 158.16 174.27 158.123C174.251 158.123 174.233 158.086 174.196 158.068C174.14 158.031 174.085 158.031 174.029 158.031Z" fill="#060807"/>
<path d="M167.409 157.513V157.716C167.409 157.716 167.409 157.809 167.446 157.846C167.446 157.883 167.483 157.92 167.52 157.957C167.558 157.994 167.595 158.012 167.632 158.031C167.669 158.049 167.706 158.068 167.761 158.068H167.854C167.854 158.068 167.965 158.012 168.003 157.975C168.003 157.957 168.04 157.938 168.058 157.901C168.095 157.846 168.095 157.79 168.095 157.735V157.531C168.095 157.531 168.095 157.439 168.058 157.401C168.058 157.364 168.021 157.327 167.984 157.29C167.947 157.253 167.91 157.235 167.873 157.216C167.836 157.198 167.799 157.179 167.743 157.179C167.706 157.179 167.687 157.179 167.65 157.179C167.595 157.179 167.539 157.216 167.502 157.272C167.502 157.29 167.465 157.309 167.446 157.346C167.409 157.401 167.409 157.457 167.409 157.513Z" fill="#060807"/>
<path d="M179.888 135.13C179.943 135.63 180.611 135.852 181.074 135.648C181.538 135.445 181.816 134.982 182.076 134.556L184.115 136.111C182.613 133.001 182.15 129.076 180.759 126.28C180.648 126.077 180.351 126.132 180.314 126.354C179.869 129.539 179.888 135.13 179.888 135.13Z" fill="#060807"/>
<path d="M147.997 136.518C147.107 137.037 146.347 137.759 145.753 138.61L143.881 136.907C143.38 137.351 142.991 137.907 142.75 138.536C141.989 135.926 140.821 130.853 140.45 128.15C140.413 127.91 140.71 127.761 140.895 127.928L148.015 136.518H147.997Z" fill="#060807"/>
<path d="M166.149 138.888C166.186 139.591 166.112 140.221 165.908 140.887C165.852 141.054 165.964 141.258 166.131 141.295C166.316 141.332 166.483 141.239 166.538 141.073C166.742 140.369 166.835 139.629 166.798 138.906C166.798 138.74 166.65 138.573 166.464 138.573C166.297 138.573 166.131 138.721 166.131 138.906L166.149 138.888Z" fill="#999592"/>
<path d="M164.276 140.054C164.202 140.258 164.127 140.48 164.072 140.684C164.053 140.758 164.072 140.869 164.109 140.943C164.146 141.017 164.22 141.073 164.313 141.091C164.405 141.11 164.498 141.091 164.572 141.054C164.647 140.999 164.702 140.943 164.721 140.85C164.795 140.647 164.869 140.425 164.925 140.221C164.943 140.147 164.925 140.036 164.888 139.962C164.85 139.888 164.776 139.832 164.684 139.814C164.591 139.795 164.498 139.814 164.424 139.851C164.35 139.906 164.294 139.962 164.276 140.054Z" fill="#999592"/>
<path d="M161.958 140.147V141.406C161.958 141.573 162.106 141.739 162.292 141.739C162.477 141.739 162.625 141.591 162.625 141.406V140.147C162.625 139.98 162.477 139.814 162.292 139.814C162.106 139.814 161.958 139.962 161.958 140.147Z" fill="#999592"/>
<path d="M159.01 139.203C159.103 139.61 159.177 140.036 159.27 140.443C159.307 140.61 159.511 140.721 159.678 140.665C159.863 140.61 159.937 140.443 159.9 140.258C159.808 139.851 159.733 139.425 159.641 139.018C159.604 138.851 159.4 138.74 159.233 138.795C159.047 138.851 158.973 139.018 159.01 139.203Z" fill="#999592"/>
<path d="M169.931 138.499C169.727 138.851 169.504 139.203 169.3 139.554C169.207 139.703 169.263 139.925 169.411 139.999C169.578 140.091 169.764 140.036 169.856 139.888C170.06 139.536 170.283 139.184 170.487 138.832C170.58 138.684 170.524 138.462 170.376 138.388C170.209 138.296 170.023 138.351 169.931 138.499Z" fill="#999592"/>
<path d="M195.926 162.382C192.663 163.955 189.603 165.936 186.841 168.269C186.062 168.935 185.302 169.62 184.579 170.342C184.282 170.639 184.746 171.101 185.042 170.805C187.601 168.287 190.456 166.121 193.571 164.344C194.443 163.844 195.351 163.381 196.26 162.937C196.649 162.752 196.315 162.178 195.926 162.363V162.382Z" fill="#999592"/>
<path d="M149.091 173.045C145.754 171.268 141.915 170.453 138.152 170.713C137.076 170.787 136.001 170.935 134.944 171.175C134.536 171.268 134.703 171.916 135.111 171.805C138.671 170.99 142.435 171.213 145.902 172.379C146.885 172.712 147.83 173.119 148.757 173.619C149.128 173.823 149.462 173.249 149.091 173.045Z" fill="#999592"/>
<path d="M142.471 162.456C142.323 162.881 142.193 163.289 142.045 163.715C141.989 163.881 142.1 164.085 142.267 164.122C142.453 164.159 142.62 164.066 142.675 163.9C142.823 163.474 142.953 163.067 143.102 162.641C143.157 162.474 143.046 162.27 142.879 162.233C142.694 162.196 142.527 162.289 142.471 162.456Z" fill="#999592"/>
<path d="M140.895 161.9C140.561 162.233 140.376 162.696 140.357 163.178C140.357 163.344 140.506 163.511 140.691 163.511C140.877 163.511 141.025 163.363 141.025 163.178C141.025 163.122 141.025 163.048 141.025 162.993C141.025 163.03 141.025 163.048 141.025 163.085C141.043 162.956 141.081 162.826 141.136 162.696L141.099 162.77C141.155 162.659 141.21 162.53 141.303 162.437C141.303 162.456 141.266 162.474 141.247 162.511C141.284 162.474 141.322 162.419 141.359 162.382C141.47 162.252 141.488 162.03 141.359 161.919C141.229 161.808 141.025 161.789 140.895 161.919V161.9Z" fill="#999592"/>
<path d="M188.991 156.05V157.309C188.991 157.475 189.14 157.642 189.325 157.642C189.51 157.642 189.659 157.494 189.659 157.309V156.05C189.659 155.883 189.51 155.717 189.325 155.717C189.14 155.717 188.991 155.865 188.991 156.05Z" fill="#999592"/>
<path d="M187.045 156.79C186.896 156.865 186.766 156.939 186.618 156.994C186.581 157.013 186.544 157.05 186.525 157.087C186.488 157.124 186.47 157.161 186.47 157.198C186.47 157.235 186.47 157.29 186.47 157.327C186.47 157.364 186.47 157.42 186.507 157.457C186.544 157.531 186.618 157.587 186.711 157.605C186.748 157.605 186.766 157.605 186.803 157.605C186.859 157.605 186.915 157.605 186.97 157.568C187.119 157.494 187.248 157.42 187.397 157.364C187.434 157.346 187.471 157.309 187.49 157.272C187.527 157.235 187.545 157.198 187.545 157.161C187.545 157.124 187.545 157.068 187.545 157.031C187.545 156.994 187.545 156.939 187.508 156.902C187.471 156.827 187.397 156.772 187.304 156.753C187.267 156.753 187.248 156.753 187.211 156.753C187.156 156.753 187.1 156.753 187.045 156.79Z" fill="#999592"/>
<path d="M184.598 157.105V157.735C184.598 157.735 184.635 157.901 184.69 157.975C184.746 158.031 184.839 158.068 184.931 158.068C185.024 158.068 185.098 158.031 185.172 157.975C185.228 157.92 185.265 157.827 185.265 157.735V157.105C185.265 157.105 185.228 156.939 185.172 156.865C185.117 156.809 185.024 156.772 184.931 156.772C184.839 156.772 184.765 156.809 184.69 156.865C184.635 156.92 184.598 157.013 184.598 157.105Z" fill="#999592"/>
<path d="M177.607 141.054C177.959 141.461 178.497 141.628 179.016 141.776C180.61 142.239 182.223 142.702 183.818 143.165C182.724 141.591 181.333 140.239 179.739 139.184C179.35 138.925 178.923 138.666 178.46 138.74C177.013 138.999 177.236 140.647 177.588 141.054H177.607Z" fill="#999592"/>
<path d="M151.816 141.591C151.464 141.998 150.926 142.165 150.407 142.313C148.812 142.776 147.199 143.239 145.604 143.701C146.698 142.128 148.089 140.776 149.684 139.721C150.073 139.462 150.499 139.203 150.963 139.277C152.409 139.536 152.187 141.184 151.834 141.591H151.816Z" fill="#999592"/>
<path d="M175.901 207.832C173.991 209.147 172.508 210.998 171.674 213.164C171.525 213.553 172.156 213.738 172.304 213.331C173.083 211.35 174.455 209.609 176.216 208.406C176.569 208.165 176.235 207.592 175.883 207.832H175.901Z" fill="#999592"/>
<path d="M180.648 211.998C178.849 213.034 177.774 214.867 176.791 216.607C176.587 216.978 177.162 217.311 177.366 216.941C178.293 215.293 179.294 213.534 180.981 212.553C181.352 212.349 181.019 211.775 180.648 211.979V211.998Z" fill="#999592"/>
<path d="M162.106 217.218C161.55 215.052 159.956 213.257 157.898 212.405C157.731 212.331 157.527 212.479 157.49 212.627C157.434 212.812 157.564 212.96 157.712 213.034C159.566 213.793 160.975 215.46 161.458 217.404C161.569 217.811 162.199 217.644 162.088 217.237L162.106 217.218Z" fill="#999592"/>
<path d="M155.505 220.847C155.079 219.422 154.245 218.144 153.132 217.163C152.817 216.885 152.335 217.348 152.669 217.626C153.707 218.533 154.486 219.699 154.875 221.014C155.005 221.421 155.635 221.254 155.505 220.847Z" fill="#999592"/>
<path d="M139.357 185.301C139.561 186.264 139.783 187.245 139.987 188.208C140.024 188.374 140.228 188.486 140.395 188.43C140.581 188.374 140.673 188.189 140.618 188.023C140.414 187.06 140.191 186.079 139.987 185.116C139.95 184.949 139.746 184.838 139.579 184.894C139.394 184.95 139.301 185.135 139.357 185.301Z" fill="#999592"/>
<path d="M137.373 186.597C137.28 187.319 137.373 188.078 137.633 188.763C137.688 188.93 137.855 189.06 138.04 188.985C138.189 188.93 138.337 188.745 138.263 188.578C138.022 187.93 137.929 187.282 138.022 186.579C138.04 186.412 137.855 186.245 137.688 186.245C137.484 186.245 137.373 186.394 137.354 186.579L137.373 186.597Z" fill="#999592"/>
<path d="M137.614 180.136C137.706 180.599 137.781 181.062 137.873 181.543C137.91 181.71 138.114 181.821 138.281 181.765C138.467 181.71 138.541 181.543 138.504 181.358C138.411 180.895 138.337 180.432 138.244 179.951C138.207 179.784 138.003 179.673 137.836 179.729C137.651 179.784 137.577 179.951 137.614 180.136Z" fill="#999592"/>
<path d="M137.595 193.577L137.743 194.836C137.743 194.836 137.78 195.002 137.836 195.076C137.892 195.132 137.984 195.169 138.077 195.169C138.244 195.169 138.429 195.021 138.411 194.836L138.263 193.577C138.263 193.577 138.225 193.41 138.17 193.336C138.114 193.281 138.021 193.244 137.929 193.244C137.762 193.244 137.576 193.392 137.595 193.577Z" fill="#999592"/>
<path d="M197.409 181.654C197.836 182.802 197.91 184.042 197.632 185.246C197.539 185.653 198.169 185.838 198.262 185.412C198.577 184.116 198.503 182.728 198.039 181.469C197.984 181.302 197.817 181.191 197.632 181.247C197.465 181.284 197.335 181.488 197.409 181.654Z" fill="#999592"/>
<path d="M195.722 186.19C195.703 186.93 195.555 187.634 195.295 188.337C195.24 188.504 195.37 188.708 195.518 188.745C195.703 188.8 195.87 188.689 195.926 188.523C196.204 187.782 196.352 187.004 196.371 186.208C196.371 186.023 196.222 185.875 196.037 185.875C195.852 185.875 195.703 186.023 195.703 186.208L195.722 186.19Z" fill="#999592"/>
<path d="M195.703 176.841V178.229C195.703 178.396 195.851 178.562 196.037 178.562C196.222 178.562 196.371 178.414 196.371 178.229V176.841C196.371 176.674 196.222 176.507 196.037 176.507C195.851 176.507 195.703 176.655 195.703 176.841Z" fill="#999592"/>
<path d="M192.496 192.188C192.496 192.318 192.496 192.466 192.496 192.596C192.496 192.614 192.496 192.633 192.496 192.651C192.496 192.614 192.496 192.614 192.496 192.651C192.496 192.688 192.496 192.707 192.496 192.744C192.496 192.818 192.459 192.892 192.441 192.966C192.404 193.095 192.366 193.225 192.311 193.355C192.311 193.355 192.311 193.392 192.292 193.41C192.292 193.447 192.255 193.466 192.255 193.503C192.218 193.577 192.181 193.632 192.144 193.706C192.051 193.854 192.107 194.077 192.255 194.151C192.422 194.243 192.607 194.188 192.7 194.04C193.015 193.484 193.182 192.836 193.182 192.207C193.182 192.04 193.034 191.874 192.849 191.874C192.663 191.874 192.515 192.022 192.515 192.207L192.496 192.188Z" fill="#999592"/>
<path d="M197.91 206.129C197.78 204.925 197.595 203.741 197.354 202.556C197.261 202.148 196.63 202.315 196.723 202.722C196.946 203.852 197.131 204.981 197.261 206.129C197.279 206.314 197.391 206.462 197.595 206.462C197.761 206.462 197.947 206.314 197.928 206.129H197.91Z" fill="#D1D0CF"/>
<path d="M196.371 208.684C196.185 207.795 195.981 206.925 195.796 206.036C195.759 205.87 195.555 205.759 195.388 205.814C195.203 205.87 195.11 206.036 195.165 206.221C195.351 207.11 195.555 207.98 195.74 208.869C195.777 209.035 195.981 209.147 196.148 209.091C196.334 209.035 196.426 208.869 196.371 208.684Z" fill="#D1D0CF"/>
<path d="M170.228 136.129C170.302 135.778 170.116 135.444 169.931 135.13C168.652 133.019 167.094 131.075 165.296 129.372C164.999 129.094 164.647 128.798 164.239 128.817C163.516 128.854 163.256 129.816 163.33 130.538C163.516 132.408 164.536 134.093 165.537 135.685C163.942 133.834 162.292 131.945 160.16 130.761C159.604 131.205 159.752 132.093 160.049 132.741C160.494 133.76 161.124 134.704 161.903 135.5C160.623 134.334 159.047 133.075 157.341 133.408C157.304 134.093 157.898 134.648 158.435 135.074C159.455 135.889 160.475 136.722 161.495 137.536L170.228 136.129Z" fill="#D1D0CF"/>
<path d="M202.378 145.571C199.801 145.979 197.223 146.479 194.683 147.071C194.275 147.164 194.442 147.811 194.85 147.7C197.39 147.108 199.967 146.608 202.545 146.201C202.971 146.127 202.786 145.497 202.378 145.571Z" fill="#D1D0CF"/>
<path d="M201.618 148.108C199.597 148.237 197.595 148.404 195.592 148.663C195.166 148.719 195.166 149.385 195.592 149.33C197.595 149.089 199.597 148.904 201.618 148.774C202.045 148.756 202.045 148.089 201.618 148.108Z" fill="#D1D0CF"/>
<path d="M196.13 136.37C193.757 137.444 191.235 138.222 188.677 138.703C188.25 138.777 188.436 139.425 188.843 139.332C191.476 138.832 194.035 138.036 196.464 136.926C196.853 136.759 196.52 136.185 196.13 136.352V136.37Z" fill="#D1D0CF"/>
<path d="M136.519 140.887C134.925 141.98 133.275 142.961 131.55 143.831C129.9 144.664 128.083 145.682 126.173 145.553C125.747 145.534 125.747 146.182 126.173 146.219C128.139 146.349 130.011 145.349 131.699 144.498C133.479 143.59 135.203 142.591 136.835 141.461C137.187 141.221 136.853 140.647 136.501 140.887H136.519Z" fill="#D1D0CF"/>
<path d="M133.813 144.312C132.33 145.349 130.716 146.201 129.029 146.83C128.64 146.978 128.807 147.626 129.196 147.46C130.939 146.812 132.608 145.942 134.147 144.868C134.499 144.627 134.147 144.053 133.813 144.294V144.312Z" fill="#D1D0CF"/>
<path d="M134.925 178.414C134.369 180.043 133.943 181.728 133.702 183.45C133.683 183.635 133.739 183.802 133.924 183.857C134.072 183.894 134.313 183.802 134.332 183.635C134.592 181.932 135 180.247 135.556 178.599C135.686 178.192 135.055 178.025 134.925 178.433V178.414Z" fill="#D1D0CF"/>
<path d="M134.981 182.617L134.221 186.505C134.147 186.912 134.777 187.097 134.851 186.671C135.111 185.375 135.352 184.079 135.611 182.783C135.686 182.376 135.055 182.191 134.981 182.617Z" fill="#D1D0CF"/>
<path d="M159.418 191.059C158.807 189.837 158.176 188.615 157.564 187.375C157.379 186.986 156.804 187.338 156.989 187.708C157.601 188.93 158.232 190.152 158.844 191.392C159.029 191.781 159.604 191.429 159.418 191.059Z" fill="#D1D0CF"/>
<path d="M158.991 193.706C158.398 192.725 157.767 191.8 157.063 190.892C156.952 190.744 156.785 190.67 156.618 190.781C156.47 190.855 156.395 191.096 156.507 191.226C157.193 192.133 157.842 193.058 158.435 194.04C158.657 194.41 159.232 194.077 159.01 193.706H158.991Z" fill="#D1D0CF"/>
<path d="M144.566 214.423C144.307 215.219 144.047 216.015 143.769 216.811C143.713 216.978 143.843 217.163 143.992 217.218C144.177 217.274 144.344 217.163 144.399 216.996C144.659 216.2 144.919 215.404 145.197 214.608C145.252 214.441 145.123 214.256 144.974 214.201C144.789 214.145 144.622 214.256 144.566 214.423Z" fill="#D1D0CF"/>
<path d="M143.157 211.627C142.898 212.368 142.619 213.127 142.36 213.867C142.304 214.034 142.434 214.238 142.582 214.275C142.768 214.33 142.935 214.219 142.99 214.053C143.25 213.312 143.528 212.553 143.788 211.812C143.843 211.646 143.713 211.442 143.565 211.405C143.38 211.35 143.213 211.461 143.157 211.627Z" fill="#D1D0CF"/>
<path d="M158.918 210.517C156.693 213.201 153.893 215.386 150.76 216.922C150.37 217.107 150.704 217.681 151.093 217.496C154.282 215.941 157.119 213.719 159.381 210.979C159.659 210.646 159.177 210.183 158.918 210.517Z" fill="#999592"/>
<path d="M182.743 212.59C181.371 211.516 179.999 210.443 178.627 209.387C177.978 208.887 177.329 208.369 176.661 207.869C176.087 207.443 175.456 207.036 174.752 206.925C174.344 206.851 174.158 207.499 174.585 207.554C175.289 207.666 175.864 208.054 176.42 208.48C177.069 208.98 177.7 209.48 178.349 209.98L182.298 213.053C182.632 213.312 183.095 212.849 182.761 212.59H182.743Z" fill="#999592"/>
</g>
<defs>
<clipPath id="clip0_2579_1059">
<rect width="211" height="339" fill="white"/>
</clipPath>
</defs>
</svg>
