<svg width="349" height="35" viewBox="0 0 349 35" fill="none" xmlns="http://www.w3.org/2000/svg">
<g opacity="0.3">
<path fill-rule="evenodd" clip-rule="evenodd" d="M327.246 0.139724C327.444 -0.0513063 327.76 -0.0457661 327.951 0.152113C328.143 0.349992 328.139 0.665643 327.941 0.85798C314.268 14.1914 303.934 24.1728 292.807 34.2318C292.607 34.413 292.299 34.4022 292.111 34.2074C291.924 34.0126 291.926 33.7043 292.115 33.5112C296.682 28.8433 301.283 24.5627 307.363 18.905C312.59 14.0413 318.911 8.15983 327.246 0.139724ZM40.2328 0.167685C40.4235 0.363761 40.4213 0.676725 40.2278 0.870061C33.3587 7.73243 21.1005 19.5943 8.74831 30.7727C8.54362 30.958 8.22751 30.9422 8.0422 30.7376C7.85688 30.533 7.87249 30.2169 8.07706 30.0315C12.5537 25.9747 17.5551 21.1733 23.9992 14.9868C28.4044 10.7577 33.4837 5.88144 39.5305 0.153346C39.7291 -0.0347804 40.042 -0.028391 40.2328 0.167685ZM78.4184 0.171425C78.6089 0.36685 78.6075 0.678911 78.4153 0.872617C62.4621 16.9484 53.6436 25.8018 43.2558 34.2689C43.0491 34.4374 42.7466 34.414 42.5682 34.2158C42.3899 34.0176 42.3985 33.7142 42.5877 33.5264C50.5982 25.5769 58.6557 18.0307 67.5627 9.68889C70.8208 6.63747 74.1926 3.4796 77.7174 0.156607C77.916 -0.0305951 78.228 -0.0240003 78.4184 0.171425ZM116.608 0.179149C116.798 0.377994 116.792 0.692887 116.594 0.884C110.36 6.91022 104.751 12.1116 99.6082 16.8801C92.8874 23.1123 86.9638 28.6053 81.4842 34.2342C81.293 34.4305 80.9794 34.4364 80.781 34.2474C80.5826 34.0584 80.5733 33.7449 80.7602 33.5444C83.0507 31.0878 85.4024 28.6786 87.7756 26.3249C84.9105 28.9363 82.3115 31.245 79.6529 33.6067C79.3744 33.8541 79.0952 34.1021 78.815 34.351C78.611 34.5323 78.2993 34.5165 78.1147 34.3155C77.9301 34.1146 77.9407 33.8027 78.1386 33.6147C80.3318 31.532 82.5004 29.3941 84.9639 26.9655C91.0263 20.989 98.8744 13.2522 113.268 0.245411C113.469 0.0638673 113.778 0.0752402 113.965 0.271065C114.152 0.466891 114.149 0.775999 113.958 0.968334C109.184 5.78581 105.122 9.81722 101.571 13.2823C103.234 11.7626 104.867 10.28 106.457 8.83745C109.856 5.75215 113.054 2.85008 115.903 0.160878C116.103 -0.0278583 116.418 -0.0196954 116.608 0.179149ZM154.789 0.178104C154.982 0.37465 154.98 0.690446 154.784 0.884182C153.428 2.22482 152.101 3.51639 150.802 4.76473C138.99 16.2447 131.661 23.0642 125.456 28.8389C123.442 30.7127 121.546 32.4766 119.654 34.2539C119.458 34.4382 119.151 34.4341 118.96 34.2447C118.769 34.0554 118.762 33.7486 118.944 33.5507C123.714 28.3733 128.886 23.6015 134.665 18.3427C135.205 17.8512 135.751 17.3554 136.302 16.8546C140.546 12.9967 145.12 8.84009 150.107 4.04563C151.379 2.80968 152.703 1.51964 154.083 0.170988C154.28 -0.0216243 154.596 -0.0184416 154.789 0.178104ZM192.964 0.171873C193.157 0.356782 193.171 0.660515 192.995 0.861647C190.888 3.27325 188.593 5.72554 186.165 8.19743C189.25 5.29673 191.971 2.77393 194.195 0.764065C194.393 0.5854 194.696 0.593161 194.884 0.78171C195.072 0.970259 195.08 1.27334 194.901 1.47078C184.965 12.434 172.641 23.8634 159.734 34.8763C159.529 35.0516 159.221 35.032 159.04 34.832C158.858 34.632 158.868 34.3239 159.062 34.1363C163.379 29.9673 167.647 25.8535 171.71 21.9549C168.237 25.1015 164.714 28.2168 161.257 31.2574C160.11 32.2905 158.975 33.289 157.824 34.2735C157.615 34.4522 157.301 34.4287 157.121 34.221C156.941 34.0133 156.962 33.6992 157.169 33.5178L157.174 33.5136L157.415 33.3022C158.47 32.3755 159.535 31.4407 160.605 30.4993C164.67 26.8376 168.884 22.7409 174.52 17.2619C179.21 12.7033 184.883 7.1879 192.274 0.170083C192.468 -0.0138242 192.772 -0.0130361 192.964 0.171873ZM231.171 0.195305C231.356 0.393979 231.349 0.704664 231.155 0.894605C227.65 4.31453 224.346 7.44507 221.21 10.373C220.631 10.9387 220.039 11.5167 219.437 12.1057C218.397 13.1224 217.323 14.1718 216.221 15.2471C210.123 21.1936 203.143 27.9221 196.018 34.271C195.817 34.4496 195.511 34.438 195.325 34.2446C195.139 34.0512 195.138 33.7452 195.324 33.5515C200.263 28.4044 205.478 23.5446 211.237 18.2332C211.842 17.6754 212.453 17.1125 213.071 16.5437C215.452 14.3502 217.928 12.0691 220.518 9.65078C224.474 5.78765 227.883 2.48242 230.472 0.164259C230.674 -0.0171618 230.985 -0.00336832 231.171 0.195305ZM268.652 0.172521C268.854 -0.0135962 269.167 -0.00262296 269.355 0.197114C269.543 0.39685 269.535 0.710765 269.337 0.900649C265.98 4.12077 262.789 7.20673 259.691 10.2012C250.971 18.6325 243 26.3385 234.206 34.272C234.002 34.4561 233.687 34.4409 233.502 34.2381C233.316 34.0352 233.329 33.7207 233.531 33.5339C240.009 27.5333 246.566 21.2463 252.616 15.4321C253.073 14.9925 253.528 14.5556 253.979 14.1217C259.496 8.81873 264.544 3.96684 268.652 0.172521ZM306.837 0.177519C307.039 -0.0102068 307.355 0.00126243 307.543 0.203149C307.731 0.405036 307.72 0.721047 307.519 0.909335C299.158 8.71682 292.71 14.9293 287.142 20.2946C281.709 25.529 277.113 29.9572 272.394 34.2737C272.192 34.4586 271.879 34.4465 271.692 34.2465C271.505 34.0466 271.513 33.7332 271.711 33.5438L271.719 33.5359L273.591 31.7422C285.9 19.9488 297.057 9.26003 306.837 0.177519ZM19.8209 0.214861C20.0028 0.405242 20.0059 0.704037 19.8279 0.898113C16.9243 4.0655 12.0601 8.62524 7.02736 13.2502C5.23697 15.0208 3.42049 16.7295 1.48567 18.3215C1.27636 18.4937 0.96793 18.4678 0.790298 18.2631C0.612666 18.0583 0.63053 17.7493 0.830573 17.5664C1.22443 17.2063 1.62118 16.8437 2.01994 16.4792C3.44737 15.1746 4.90045 13.8465 6.33792 12.5256C7.39888 11.476 8.45496 10.4004 9.5275 9.30804L9.64338 9.19002C12.5539 6.22586 15.5863 3.14602 19.1387 0.176605C19.3407 0.00775012 19.6391 0.0244799 19.8209 0.214861ZM58.0064 0.218428C58.1914 0.411533 58.1917 0.716015 58.0071 0.909488C52.441 6.74282 43.6735 14.897 34.3029 23.6121C30.5327 27.1186 26.6649 30.7159 22.8686 34.2893C22.674 34.4725 22.3696 34.4702 22.1778 34.2841C21.9859 34.0979 21.9744 33.7938 22.1516 33.5937C24.8707 30.5242 27.7052 27.5345 30.6148 24.6126C29.6926 25.4708 28.7711 26.3292 27.8497 27.1897C25.2784 29.646 22.7542 32.0348 20.222 34.3846C20.0206 34.5715 19.7063 34.5609 19.5179 34.3609C19.3296 34.161 19.3378 33.8465 19.5364 33.6567C22.0953 31.2107 24.6354 28.8228 27.173 26.4532C29.4484 24.2795 31.7618 22.0519 34.1526 19.75C34.6641 19.2574 35.1792 18.7615 35.6982 18.2619C41.3852 12.7879 47.5404 6.88338 54.6627 0.290302C54.8624 0.10545 55.1732 0.114226 55.3622 0.31005C55.5511 0.505874 55.5488 0.816839 55.3569 1.00979C52.3091 4.07467 49.3272 6.98881 46.3905 9.80612C49.6282 6.91596 52.8702 4.07883 56.0679 1.28051C56.4847 0.915728 56.9008 0.551604 57.316 0.188108C57.5172 0.0119649 57.8214 0.0253241 58.0064 0.218428ZM96.187 0.216998C96.3789 0.41117 96.3795 0.723309 96.1885 0.918294C88.0337 9.243 81.4226 15.2864 75.7649 20.3982C75.5053 20.6328 75.2477 20.8654 74.992 21.0961C72.8761 23.1002 70.9707 24.9021 69.191 26.5851C66.2653 29.3518 63.6793 31.7972 61.0565 34.2916C60.8601 34.4783 60.5508 34.4747 60.3589 34.2834C60.167 34.0922 60.1624 33.7829 60.3485 33.5859C64.3376 29.3638 68.6209 25.4986 73.6315 20.977C73.8572 20.7733 74.0845 20.5682 74.3132 20.3617C79.6083 15.3464 86.2219 9.06451 95.4858 0.207011C95.6831 0.0183805 95.9952 0.0228256 96.187 0.216998ZM134.386 0.233523C134.57 0.432666 134.561 0.741838 134.367 0.930784C124.413 10.619 117.406 17.1276 112 22.1306C111.837 22.2815 111.675 22.431 111.515 22.5792C107.422 26.5546 103.286 30.5418 99.2381 34.2998C99.0395 34.4842 98.7303 34.4768 98.5407 34.2832C98.3511 34.0897 98.3502 33.7803 98.5386 33.5856C101.903 30.1096 105.494 26.7878 110.429 22.2215C110.556 22.1039 110.684 21.9854 110.813 21.8661C111.86 20.8494 112.905 19.8329 113.945 18.8208C120.975 11.981 127.798 5.34235 133.689 0.195921C133.893 0.0177074 134.202 0.0343803 134.386 0.233523ZM172.551 0.21608C172.741 0.398576 172.756 0.697069 172.587 0.898553C168.433 5.83293 162.726 11.1206 156.53 16.6953C155.455 17.6627 154.365 18.6388 153.265 19.6236C150.997 21.6545 148.688 23.7221 146.384 25.8249C143.476 28.5996 140.481 31.4394 137.426 34.3023C137.226 34.4892 136.914 34.4813 136.724 34.2845C136.534 34.0878 136.538 33.7751 136.732 33.5825C139.642 30.6947 142.667 27.864 145.698 25.0975C142.787 27.8748 139.792 30.7144 136.742 33.5726M145.698 25.0975C148.837 22.1025 151.878 19.1801 154.787 16.3854C161.272 10.1541 167.096 4.55777 171.867 0.207102C172.062 0.0296573 172.361 0.0335842 172.551 0.21608M210.749 0.232076C210.94 0.428433 210.937 0.741866 210.743 0.935065C201.713 9.92178 195.141 16.0784 189.721 21.0822C188.644 22.076 187.614 23.024 186.618 23.9392C182.602 27.6329 179.165 30.7943 175.624 34.2941C175.623 34.2951 175.622 34.296 175.622 34.297C175.621 34.2971 175.622 34.297 175.622 34.297C175.425 34.4911 175.109 34.4894 174.914 34.2931C174.72 34.0968 174.722 33.7803 174.918 33.5861C182.02 26.5607 189.132 19.8907 196.875 12.6283C201.049 8.71323 205.407 4.62601 210.046 0.218193C210.244 0.0295287 210.558 0.0357188 210.749 0.232076ZM248.945 0.247357C249.131 0.450305 249.118 0.764997 248.916 0.951747C244.28 5.24075 240.347 8.89972 236.945 12.0823C233.197 15.6461 229.471 19.2451 225.77 22.8193C221.748 26.704 217.756 30.5595 213.8 34.3086C213.601 34.4971 213.287 34.4903 213.097 34.2933C212.906 34.0962 212.91 33.7825 213.105 33.5898C219.133 27.6374 224.541 22.3195 236.266 11.348C240.237 7.57261 244.231 3.83636 248.241 0.213724C248.445 0.0293829 248.76 0.0444084 248.945 0.247357ZM286.419 0.225373C286.619 0.0363632 286.934 0.0445736 287.124 0.243743C287.314 0.442912 287.307 0.758143 287.109 0.949025C269.721 17.689 261.42 25.6158 251.981 34.3171C251.981 34.3172 251.981 34.317 251.981 34.3171C251.778 34.5042 251.462 34.4917 251.274 34.2887C251.087 34.0858 251.1 33.7696 251.303 33.5823C256.054 29.1966 261.083 24.3827 267.379 18.3556C272.646 13.3142 278.799 7.42401 286.419 0.225373ZM324.63 0.207596C324.835 0.0374976 325.138 0.0589404 325.318 0.256308C325.498 0.453676 325.491 0.757371 325.302 0.946226C318.014 8.24413 307.575 18.0175 296.994 27.9242C294.716 30.0572 292.431 32.1964 290.17 34.3184C289.973 34.503 289.666 34.4983 289.475 34.3078C289.284 34.1172 289.278 33.8096 289.462 33.6125C294.559 28.1572 299.834 22.8528 304.886 17.993C304.014 18.8145 303.138 19.6397 302.259 20.4681C297.392 25.052 292.424 29.7319 287.53 34.4072C287.335 34.5937 287.027 34.5916 286.835 34.4025C286.642 34.2134 286.634 33.9055 286.817 33.707C293.314 26.6516 300.148 20.4114 308.129 13.1223C312.374 9.2456 316.944 5.07222 321.961 0.32172C322.161 0.132887 322.475 0.140263 322.666 0.338239C322.856 0.536215 322.851 0.850671 322.655 1.04254C318.979 4.63178 315.021 8.41101 310.902 12.3117C316.105 7.49112 320.852 3.33204 324.63 0.207596ZM37.6001 0.270586C37.785 0.472529 37.7731 0.785609 37.5734 0.972911C36.2678 2.19744 35.0174 3.3699 33.8169 4.49555C21.8347 15.7305 14.8253 22.3028 7.59177 29.452C7.58906 29.4546 7.58635 29.4573 7.58365 29.46C7.58364 29.46 7.58365 29.46 7.58365 29.46C7.38725 29.6541 7.07066 29.6523 6.87654 29.4559C6.68242 29.2595 6.68426 28.9429 6.88064 28.7488C6.88063 28.7488 6.88065 28.7488 6.88064 28.7488C7.13615 28.4962 7.3919 28.2434 7.64795 27.9902C9.3519 26.3057 11.07 24.6071 12.8298 22.8772C10.1363 25.2898 7.86216 27.1663 5.6264 28.8974C5.41601 29.0603 5.1149 29.0299 4.94133 28.8282C4.76776 28.6265 4.78253 28.3242 4.97495 28.1405C6.77352 26.4226 8.49603 24.7441 10.388 22.9004C15.4958 17.9232 21.8389 11.7421 34.2489 0.333037C34.448 0.150007 34.7566 0.158446 34.9453 0.352087C35.1341 0.545727 35.1347 0.854378 34.9467 1.04876C31.5134 4.59807 28.505 7.67221 25.8342 10.3606C29.2117 7.19387 32.8611 3.84301 36.8982 0.23539C37.1023 0.0529541 37.4153 0.068644 37.6001 0.270586ZM75.7801 0.268141C75.9655 0.463558 75.9628 0.770749 75.7739 0.962845C69.5033 7.34069 63.4443 12.8831 57.5951 18.2277L57.4321 18.3767C55.8646 19.8089 54.3124 21.2272 52.775 22.6442C52.7679 22.6511 52.7607 22.658 52.7536 22.6649C48.8222 26.4758 44.7868 30.3875 40.6417 34.3353C40.4445 34.5232 40.1331 34.5185 39.9415 34.3249C39.7499 34.1312 39.7486 33.8198 39.9385 33.6245C43.8895 29.5638 47.9387 25.7419 52.0854 21.9198C60.1667 14.0863 67.8268 6.66238 75.086 0.237878C75.2877 0.0593422 75.5946 0.072724 75.7801 0.268141ZM152.138 0.26174C152.332 0.45083 152.341 0.760771 152.156 0.960025C146.648 6.9137 140.847 12.2005 135.128 17.3238C133.258 19.0793 131.554 20.6643 129.981 22.1221C129.045 22.9895 128.156 23.8116 127.306 24.5975C123.27 28.3291 120.115 31.246 117.022 34.3352C116.829 34.5284 116.516 34.5303 116.32 34.3395C116.124 34.1487 116.118 33.8359 116.306 33.6374C121.412 28.2499 126.979 23.2715 132.633 18.2149C132.958 17.924 133.284 17.6329 133.61 17.3414C133.89 17.0901 134.171 16.8386 134.453 16.5867C138.971 12.3463 144.464 7.10997 151.439 0.263628C151.633 0.073487 151.943 0.0726489 152.138 0.26174ZM190.338 0.280036C190.527 0.47928 190.52 0.794084 190.322 0.984757C187.801 3.41185 185.285 5.84676 182.77 8.28099C174.424 16.3584 166.086 24.4282 157.59 32.1799C156.775 32.9292 155.978 33.6525 155.188 34.3584C154.982 34.542 154.667 34.5246 154.483 34.3194C154.299 34.1142 154.315 33.7987 154.52 33.6141C155.325 32.8882 156.129 32.1591 156.931 31.4273C160.185 28.4328 163.712 25.0295 168.228 20.6724C173.578 15.5095 180.317 9.00751 189.633 0.260044C189.833 0.0718614 190.148 0.0807917 190.338 0.280036ZM228.518 0.277916C228.711 0.474398 228.709 0.790321 228.513 0.984161C228.512 0.984786 228.512 0.985213 228.511 0.985838C221.587 7.83346 207.464 21.4724 193.378 34.3584C193.175 34.5441 192.861 34.531 192.674 34.3292C192.487 34.1274 192.498 33.8126 192.699 33.6246L192.703 33.6206L193.629 32.7536C205.261 21.8575 217.01 10.8515 227.811 0.271437C228.008 0.0785366 228.324 0.0814351 228.518 0.277916ZM265.998 0.274855C266.196 0.0820955 266.512 0.0858732 266.705 0.283294C266.898 0.480715 266.894 0.797095 266.697 0.990119C248.83 18.4708 241.09 25.9277 231.559 34.3679C231.356 34.5476 231.047 34.5329 230.862 34.3349C230.678 34.1369 230.684 33.8276 230.877 33.6375C235.048 29.5273 239.23 25.6278 244.088 21.0986C244.609 20.6127 245.138 20.1194 245.676 19.6179C251.224 14.4421 257.693 8.37835 265.995 0.278193C265.996 0.277237 265.997 0.275811 265.998 0.274855C265.998 0.274697 265.998 0.275012 265.998 0.274855ZM304.201 0.263998C304.403 0.083298 304.713 0.0966976 304.898 0.294202C305.084 0.491707 305.079 0.80132 304.886 0.992109C286.006 19.686 278.134 27.0838 269.742 34.3751C269.536 34.5541 269.224 34.5349 269.042 34.3318C268.859 34.1288 268.874 33.817 269.074 33.6313C275.516 27.6499 281.885 21.4991 287.699 15.8838C294.08 9.72149 299.792 4.20424 304.201 0.263998ZM17.1966 0.328445C17.3683 0.529492 17.3538 0.829447 17.1635 1.013C12.6019 5.41334 8.56076 9.24531 4.87628 12.7148C3.88083 13.7601 2.88156 14.7343 1.76503 15.6371C1.55588 15.8063 1.25041 15.7796 1.0737 15.5768C0.896993 15.3741 0.912365 15.0678 1.1085 14.8837C2.10299 13.9504 3.12249 12.9926 4.17078 12.0055C4.74551 11.4011 5.32422 10.7673 5.93332 10.1002C6.35637 9.63683 6.79407 9.15745 7.25529 8.66069C9.50305 6.23972 12.2642 3.45997 16.5153 0.253939C16.7264 0.0947503 17.0249 0.127397 17.1966 0.328445ZM93.5566 0.323062C93.7413 0.524139 93.7305 0.836207 93.5324 1.02409C84.0262 10.0399 77.3336 16.4306 72.2344 21.2997C72.046 21.4796 71.8597 21.6574 71.6756 21.8332C71.6642 21.8446 71.6528 21.8561 71.6415 21.8675C66.8203 26.7007 62.8484 30.6826 58.3883 34.406C58.1801 34.5798 57.8713 34.556 57.6923 34.3522C57.5132 34.1485 57.5293 33.8391 57.7285 33.655C61.3246 30.3311 65.0538 26.7735 70.9759 21.1186C71.3008 20.793 71.6296 20.4633 71.963 20.1294C77.2658 14.8172 83.6779 8.45261 92.856 0.287736C93.06 0.10626 93.3719 0.121986 93.5566 0.323062ZM131.736 0.318653C131.926 0.517911 131.92 0.833963 131.721 1.02501C127.168 5.39729 123.049 9.47472 119.191 13.2947C111.039 21.3656 104.048 28.2871 96.5717 34.4121C96.3668 34.58 96.0664 34.5588 95.887 34.3639C95.7076 34.1689 95.7113 33.8679 95.8956 33.6775C102.907 26.4341 110.488 19.4228 118.237 12.2567C122.473 8.33932 126.759 4.37567 131.029 0.302567C131.229 0.112197 131.545 0.119395 131.736 0.318653ZM169.917 0.318345C170.108 0.512352 170.108 0.822815 169.918 1.01743C166.908 4.10659 162.648 8.05951 157.805 12.5249C156.329 13.9396 154.873 15.3395 153.431 16.7248C147.016 22.8884 140.9 28.7657 134.779 34.3973C134.58 34.5811 134.27 34.5719 134.081 34.3768C133.893 34.1816 133.894 33.8716 134.085 33.6783C140.481 27.1896 147.422 20.7378 153.681 14.9653C154.35 14.3486 155.01 13.7398 155.662 13.1396C156.152 12.6882 156.636 12.2417 157.115 11.8003C160.994 8.08073 165.005 4.25321 169.218 0.303679C169.417 0.117825 169.727 0.124338 169.917 0.318345ZM208.113 0.331156C208.299 0.530342 208.291 0.841921 208.095 1.03163C200.236 8.6465 193.772 14.7304 188.114 20.0388C187.597 20.5244 187.086 21.0035 186.582 21.4767C181.571 26.1767 177.184 30.2913 172.976 34.3916C172.782 34.5799 172.474 34.5808 172.28 34.3936C172.086 34.2063 172.075 33.8985 172.256 33.6982C173.291 32.5524 174.327 31.4325 175.367 30.3304C173.683 31.774 172.003 33.1622 170.294 34.518C170.084 34.6844 169.78 34.6561 169.605 34.454C169.43 34.2518 169.445 33.9474 169.639 33.7633C171.801 31.7157 174.007 29.646 176.439 27.3648C183.025 21.1857 191.267 13.4549 204.756 0.406072C204.952 0.215801 205.265 0.219004 205.458 0.413259C205.651 0.607515 205.652 0.92064 205.46 1.11585C202.561 4.06624 199.879 6.79469 197.364 9.33494C198.779 8.06051 200.241 6.74785 201.756 5.38731C203.562 3.76537 205.444 2.0754 207.413 0.301106C207.615 0.118603 207.926 0.13197 208.113 0.331156ZM246.287 0.323572C246.48 0.516765 246.482 0.828724 246.292 1.02462C235.93 11.7149 224.145 22.5071 211.89 33.7292L211.151 34.4055L211.151 34.4063C210.947 34.5926 210.631 34.5789 210.445 34.3756C210.258 34.1724 210.271 33.8564 210.474 33.6696C210.475 33.6693 210.475 33.669 210.475 33.6688C220.596 24.3565 230.975 14.3993 245.586 0.316613C245.783 0.127282 246.095 0.130379 246.287 0.323572ZM283.77 0.322482C283.966 0.131648 284.279 0.133722 284.473 0.327135C284.666 0.520548 284.668 0.833498 284.478 1.02949C270.362 15.5281 259.84 25.229 249.328 34.418C249.12 34.5994 248.805 34.5787 248.623 34.3717C248.441 34.1647 248.461 33.8495 248.668 33.667C256.885 26.4044 265.262 18.3449 283.77 0.322482ZM73.1349 0.359821C73.325 0.558879 73.3185 0.87421 73.1203 1.06524C65.1282 8.767 51.9163 21.2639 38.6018 33.8578L37.9977 34.4291C37.7971 34.6189 37.4805 34.6103 37.2907 34.4098C37.101 34.2093 37.1096 33.8929 37.3101 33.7031C37.31 33.7031 37.3102 33.703 37.3101 33.7031C39.7225 31.4185 42.4446 28.827 45.8998 25.5375C47.1469 24.3501 48.4896 23.0719 49.9477 21.6843C55.4455 16.4523 62.5838 9.66666 72.4295 0.342174C72.6294 0.152875 72.9447 0.160763 73.1349 0.359821ZM111.326 0.367962C111.513 0.568932 111.504 0.883801 111.304 1.0727C105.802 6.27195 101.211 10.5876 97.2862 14.2748C94.1395 17.3034 91.5148 19.8764 89.2016 22.1481C89.0002 22.3458 88.8011 22.5413 88.6043 22.7347C83.8177 27.4361 80.3342 30.8576 76.1663 34.449C75.9627 34.6244 75.657 34.6075 75.4739 34.4109C75.2908 34.2142 75.2959 33.908 75.4854 33.7175C80.6201 28.5568 85.9896 23.5134 95.0006 15.0497C95.521 14.5609 96.0537 14.0606 96.5991 13.5482M149.507 0.366942C149.696 0.56356 149.692 0.875298 149.499 1.06769L148.998 1.5667C139.172 11.3505 126.627 23.8422 114.353 34.4525C114.146 34.6311 113.835 34.6109 113.653 34.4071C113.471 34.2033 113.486 33.8913 113.687 33.7064C119.48 28.3744 125.228 22.8463 131.045 17.2439L131.619 16.6904C137.248 11.269 142.945 5.78215 148.806 0.34674C149.006 0.161336 149.318 0.170323 149.507 0.366942ZM187.694 0.372496C187.883 0.570959 187.877 0.88473 187.681 1.07589C177.319 11.1542 165.098 22.943 152.55 34.4469C152.348 34.6315 152.036 34.6203 151.848 34.4217C151.661 34.2231 151.667 33.9107 151.863 33.7201L151.874 33.7098L152.187 33.4045C158.827 26.9402 166.004 19.9526 186.991 0.352042C187.191 0.164908 187.505 0.174032 187.694 0.372496ZM225.887 0.383555C226.072 0.585261 226.06 0.898245 225.861 1.08577C215.368 10.9542 208.034 17.8771 201.727 23.8903C197.843 27.594 194.349 30.9525 190.746 34.4416L190.398 34.0824L190.056 33.7172C193.74 30.2729 197.311 26.801 201.012 23.191M201.012 23.191C201.35 22.8608 201.69 22.5294 202.031 22.1968C208.774 15.6175 216.014 8.5531 225.185 0.348899C225.389 0.166402 225.702 0.181848 225.887 0.383555M263.362 0.359753C263.564 0.171193 263.88 0.181157 264.068 0.382024C264.257 0.582891 264.248 0.898813 264.048 1.08814C263.264 1.82756 262.451 2.59098 261.61 3.37676C253.234 11.2558 247.024 17.2571 242.067 22.0477C236.551 27.3782 232.587 31.2096 228.915 34.4609C228.713 34.6396 228.406 34.6261 228.221 34.4304C228.035 34.2347 228.039 33.9272 228.228 33.7353C230.981 30.9447 233.777 28.1884 236.561 25.4942C233.053 28.7571 229.694 31.7348 226.259 34.5644C226.052 34.7349 225.747 34.7117 225.568 34.5118C225.389 34.3119 225.4 34.0066 225.592 33.8197C235.653 24.0481 246.371 13.6407 260.723 0.449381C260.924 0.264963 261.235 0.275193 261.423 0.472383C261.611 0.669574 261.607 0.981087 261.413 1.17283C259.32 3.2454 257.331 5.22031 255.43 7.10749C251.173 11.335 247.36 15.1223 243.806 18.5812C247.631 14.9765 251.338 11.5431 254.776 8.35896C256.947 6.34775 259.011 4.43594 260.93 2.64317C261.721 1.8995 262.531 1.13899 263.361 0.361067C263.361 0.360629 263.362 0.360191 263.362 0.359753ZM302.261 0.393002C302.446 0.597232 302.431 0.912652 302.227 1.09826C298.661 4.34751 293.679 9.14738 288.045 14.5754C287.605 14.9992 287.161 15.427 286.714 15.8581C280.538 21.8065 273.679 28.3958 267.109 34.4571C266.907 34.6433 266.593 34.6319 266.405 34.4314C266.217 34.231 266.226 33.9166 266.425 33.7273C270.611 29.7447 274.786 25.7249 278.851 21.8103C287.153 13.817 294.998 6.26226 301.556 0.357144C301.76 0.172735 302.076 0.188773 302.261 0.393002ZM52.7163 0.39903C52.9085 0.595029 52.9067 0.909332 52.7124 1.10316C50.7798 3.03024 48.6312 5.06018 46.3339 7.18163C44.3376 9.06926 42.199 11.083 39.95 13.2007C39.0193 14.0772 38.0696 14.9714 37.1033 15.8819C31.0686 21.5678 24.382 27.8893 17.5867 34.4692C17.3918 34.6579 17.0821 34.6568 16.8886 34.4668C16.695 34.2768 16.6883 33.9671 16.8734 33.7688C22.8357 27.3817 29.3345 21.3174 35.4826 15.7121C36.7857 14.524 38.0726 13.3569 39.3351 12.2119C41.5275 10.2237 43.6464 8.3021 45.6496 6.45244C47.9826 4.24648 50.1201 2.21386 52.0122 0.389197C52.2098 0.198642 52.5241 0.203031 52.7163 0.39903ZM90.9157 0.417368C91.1002 0.620867 91.086 0.93508 90.8839 1.12109C82.7504 8.6069 76.5365 14.6873 71.1442 19.9638L70.8251 20.2761C65.3604 25.6232 60.7206 30.1537 55.7537 34.4907C55.5511 34.6676 55.2449 34.6526 55.0606 34.4566C54.8764 34.2607 54.8801 33.9541 55.0692 33.7627C66.4768 22.2145 77.5869 11.654 90.2123 0.380238C90.4172 0.197291 90.7313 0.21387 90.9157 0.417368ZM129.1 0.419694C129.284 0.620854 129.273 0.932443 129.075 1.12008C125.751 4.27229 122.291 7.5047 118.727 10.8336C110.859 18.1842 102.486 26.0053 93.9633 34.4729C93.7674 34.6675 93.4508 34.6665 93.2562 34.4706C93.0615 34.2747 93.0626 33.9581 93.2584 33.7635C94.6609 32.37 96.0495 30.968 97.5027 29.5007C104.07 22.8697 111.958 14.9063 128.4 0.38253C128.605 0.202 128.916 0.218533 129.1 0.419694ZM167.282 0.419775C167.468 0.618156 167.461 0.928423 167.267 1.11853C159.184 9.03727 153.018 14.7479 148.109 19.2247C142.934 24.2296 137.552 29.434 132.138 34.4878C131.943 34.6696 131.64 34.6667 131.449 34.4811C131.257 34.2955 131.245 33.9925 131.421 33.7922C134.742 30.0129 138.462 26.6322 143.871 21.725L144.01 21.5988C145.077 20.6305 146.211 19.6021 147.42 18.4989C147.428 18.4911 147.436 18.4833 147.445 18.4755C154.326 11.8206 160.855 5.50606 166.584 0.388458C166.787 0.207489 167.097 0.221395 167.282 0.419775ZM243.652 0.425204C243.842 0.625178 243.834 0.941168 243.634 1.13145C237.151 7.31112 231.819 12.2884 227.324 16.467C220.238 23.1153 214.272 28.7497 208.523 34.4844C208.33 34.6773 208.017 34.6793 207.821 34.489C207.626 34.2987 207.619 33.9864 207.806 33.7876C212.017 29.3162 216.936 24.7485 224.115 18.0827C224.937 17.3189 225.789 16.5276 226.673 15.7057C227.636 14.8027 228.619 13.8811 229.625 12.9382C233.652 9.16192 238.045 5.04364 242.946 0.406352C243.146 0.216795 243.462 0.22523 243.652 0.425204ZM281.135 0.408064C281.333 0.223591 281.641 0.229673 281.832 0.421794C282.022 0.613914 282.025 0.922466 281.838 1.11832C275.832 7.42935 270.007 12.8622 264.206 18.1713C263.239 19.0563 262.272 19.9378 261.306 20.8193C256.474 25.2278 251.642 29.6362 246.706 34.491C246.51 34.6838 246.195 34.6821 246.001 34.4872C245.807 34.2923 245.807 33.9773 246.001 33.7822C252.896 26.8389 260.119 20.0213 281.135 0.408064ZM320.034 0.442878C320.213 0.641371 320.204 0.945512 320.014 1.13336C315.413 5.67963 309.779 10.9567 303.725 16.6263L303.64 16.7057C301.146 19.0414 298.581 21.4439 295.987 23.89C292.307 27.3596 288.568 30.917 284.891 34.4969L284.542 34.1389L284.203 33.7708C287.904 30.3625 291.63 26.7606 295.293 23.1694M295.293 23.1694C296.828 21.6654 298.351 20.1633 299.858 18.6781C300.86 17.6902 301.854 16.7099 302.839 15.7414C308.834 9.84598 314.485 4.38634 319.345 0.39144C319.551 0.221727 319.855 0.244384 320.034 0.442878M32.3259 0.469914C32.4986 0.673824 32.4804 0.977441 32.2846 1.1593C25.9125 7.07982 18.9064 13.7818 11.8278 20.5532C9.62593 22.6595 7.41701 24.7726 5.21797 26.8709C5.02104 27.0588 4.70996 27.0547 4.5181 26.8616C4.32625 26.6685 4.32412 26.3574 4.51331 26.1617C5.30156 25.3462 6.08575 24.5329 6.86712 23.7225C9.41973 21.0749 11.9422 18.4587 14.4779 15.9028C11.0576 19.1381 7.56009 22.3881 4.02748 25.5824C3.82479 25.7657 3.51248 25.7523 3.32623 25.5523C3.13999 25.3524 3.1488 25.0399 3.34603 24.8507C6.14162 22.1695 9.02087 19.3704 11.8308 16.6387C18.7133 9.94776 25.1798 3.66131 28.9817 0.501385C29.1879 0.329997 29.4926 0.35178 29.6723 0.550761C29.8521 0.749742 29.8428 1.05508 29.6514 1.24285C27.7511 3.10702 25.7965 5.01821 23.7975 6.95992C26.3372 4.67442 28.9381 2.47801 31.6391 0.396934C31.8508 0.233863 32.1533 0.266005 32.3259 0.469914ZM70.4938 0.453725C70.682 0.653018 70.6747 0.966758 70.4773 1.15705C60.0074 11.2511 53.0767 17.8051 47.8377 22.7297C46.5839 23.9083 45.4273 24.9933 44.3425 26.0108C44.0401 26.2945 43.7433 26.5729 43.4515 26.8467C40.6621 29.5219 37.993 32.0622 35.3507 34.5238C35.1499 34.7109 34.8359 34.7012 34.6471 34.5021C34.4583 34.303 34.4651 33.989 34.6625 33.7983C37.2326 31.3161 39.7284 28.9686 42.7636 26.1209C44.3312 24.6175 45.9375 23.0708 47.5995 21.4705C48.4393 20.6619 49.2932 19.8396 50.1636 19.0023C55.8194 13.5616 62.1637 7.49058 69.7906 0.430173C69.9918 0.243925 70.3055 0.254431 70.4938 0.453725ZM108.686 0.464608C108.872 0.668635 108.857 0.984526 108.653 1.1705C102.179 7.07923 96.1098 12.9345 90.3031 18.556C89.9351 18.9123 89.5681 19.2677 89.2021 19.6221C83.7957 24.8574 78.6097 29.8792 73.5347 34.5307C73.3316 34.7168 73.0163 34.7036 72.8294 34.5012C72.6426 34.2988 72.6547 33.9834 72.8565 33.7958C76.4509 30.4552 79.8972 27.0951 83.7306 23.3575C89.9989 17.2459 97.3022 10.1252 107.98 0.430979C108.184 0.245532 108.5 0.260581 108.686 0.464608ZM146.868 0.464187C147.056 0.665976 147.045 0.982121 146.844 1.17055C146.843 1.17076 146.844 1.17034 146.844 1.17055M146.868 0.464187C146.68 0.262398 146.364 0.251275 146.162 0.439334L146.868 0.464187ZM185.049 0.46241C185.24 0.660818 185.235 0.976494 185.037 1.1683C179.698 6.34603 175.257 10.7331 171.399 14.544C162.384 23.4498 156.553 29.2093 149.882 34.5603C149.672 34.7282 149.368 34.7009 149.192 34.4985C149.015 34.296 149.031 33.9906 149.226 33.8065C161.855 21.8951 174.893 9.49681 184.343 0.448195C184.542 0.257645 184.858 0.264002 185.049 0.46241ZM223.237 0.468413C223.426 0.666766 223.42 0.980378 223.224 1.1716C212.751 11.3732 204.764 19.007 197.218 26.0718C194.011 29.1521 191.104 31.8813 188.086 34.549C187.881 34.7305 187.567 34.7128 187.384 34.5093C187.2 34.3057 187.214 33.9923 187.416 33.8066C190.48 30.9841 193.48 28.202 196.552 25.3252C198.298 23.6478 200.134 21.8657 202.127 19.9305C207.402 14.8087 213.782 8.61423 222.534 0.447853C222.735 0.26089 223.048 0.270059 223.237 0.468413ZM299.609 0.476714C299.797 0.673843 299.793 0.984994 299.599 1.17668C291.034 9.66826 284.342 15.8539 278.747 20.9947C278.36 21.3506 277.978 21.7014 277.601 22.0476C276.856 22.7311 276.132 23.3965 275.425 24.047C271.65 27.6978 268.1 31.1301 264.469 34.5466C264.272 34.7328 263.961 34.7269 263.771 34.5334C263.58 34.3399 263.579 34.0295 263.768 33.8344C267.1 30.3978 270.629 27.1015 274.736 23.3217C274.788 23.2714 274.84 23.2212 274.892 23.1709C281.608 16.6759 289.06 9.46877 298.91 0.452781C299.11 0.268945 299.421 0.279584 299.609 0.476714ZM50.0861 0.506629C50.2699 0.709839 50.2559 1.02311 50.0547 1.20912C42.3942 8.29262 36.6519 13.9755 31.7336 18.843C31.233 19.3384 30.7409 19.8254 30.2563 20.3045C25.0112 25.4897 20.6238 29.7647 15.6462 33.8925C15.4388 34.0646 15.1323 34.0412 14.9533 33.8398C14.7743 33.6384 14.7871 33.3313 14.9823 33.1455C18.6371 29.6668 22.2101 26.1847 25.7961 22.69C33.3105 15.3666 40.8822 7.98762 49.384 0.467497C49.5893 0.285969 49.9023 0.30342 50.0861 0.506629ZM88.2644 0.501343C88.4539 0.700378 88.4473 1.01502 88.2495 1.20586C82.7997 6.4657 78.259 10.7456 74.4117 14.3235C72.993 15.6777 71.5895 17.019 70.1957 18.3512L69.8175 18.7128C64.2266 24.0566 58.7824 29.2601 53.124 34.5715C52.9291 34.7545 52.6247 34.7518 52.4331 34.5653C52.2415 34.3789 52.2305 34.0747 52.4081 33.8748C55.6429 30.2353 59.1216 27.0132 64.4344 22.1479C64.7551 21.8541 65.0826 21.5544 65.4172 21.2481C67.7881 19.0778 70.5156 16.5812 73.7259 13.5957C78.133 9.38887 82.6887 5.05581 87.56 0.481601C87.7604 0.29349 88.075 0.302307 88.2644 0.501343ZM126.439 0.493221C126.634 0.68515 126.638 0.99772 126.449 1.19506C121.241 6.63105 115.571 11.8986 109.651 17.3414C109.047 17.8964 108.441 18.4531 107.832 19.0121C105.81 20.8692 103.762 22.7507 101.694 24.6704C98.0831 28.0521 94.6316 31.3177 91.3179 34.5671C91.121 34.7601 90.8049 34.7573 90.6115 34.5608C90.418 34.3642 90.4203 34.0481 90.6165 33.8543C94.1127 30.401 97.5904 27.1157 101.012 23.9387C102.479 22.5653 103.971 21.1734 105.489 19.7565C105.988 19.2912 106.49 18.8233 106.994 18.3524C112.824 12.912 119.047 7.07894 125.738 0.492826C125.932 0.301115 126.245 0.301291 126.439 0.493221ZM164.632 0.504408C164.823 0.700038 164.821 1.01233 164.629 1.2059C158.235 7.63202 152.872 12.5871 148.249 16.7478C146.745 18.1017 145.319 19.3715 143.961 20.5805L143.561 20.9369C137.949 25.9347 133.529 29.8973 129.533 34.5403L129.154 34.2141L128.81 33.8508C133.828 29.1071 138.877 24.2964 144.093 19.3261C145.244 18.23 146.402 17.1262 147.57 16.0135C152.188 11.8576 157.539 6.914 163.92 0.500582L164.274 0.853242L164.617 1.21691M147.57 16.0135C152.789 11.0433 158.199 5.89822 163.931 0.489569C164.13 0.302172 164.442 0.308778 164.632 0.504408M202.831 0.522319C203.014 0.724912 203.001 1.0367 202.801 1.22289C198.751 5.0022 194.382 9.23384 189.797 13.6737C182.8 20.4499 175.302 27.7111 167.675 34.5895C167.472 34.7721 167.161 34.7588 166.975 34.5597C166.788 34.3605 166.796 34.0488 166.992 33.8591C168.902 32.0083 170.817 30.1494 172.722 28.3007C183.882 17.4675 194.685 6.98032 202.131 0.480643C202.337 0.301178 202.649 0.319727 202.831 0.522319ZM241.002 0.510333C241.196 0.706679 241.194 1.02272 240.998 1.21673C239.164 3.03254 237.402 4.7622 235.704 6.4166C224.533 17.3799 215.167 26.4775 205.854 34.5991C205.649 34.7779 205.339 34.76 205.156 34.5588C204.973 34.3576 204.984 34.0469 205.182 33.8596C208.24 30.9571 211.329 28.0823 214.584 25.0525C220.549 19.5005 227.073 13.4281 234.995 5.71119C236.244 4.48463 237.517 3.23446 238.815 1.95942C239.305 1.47808 239.799 0.993199 240.296 0.504703C240.493 0.311468 240.809 0.313987 241.002 0.510333ZM279.185 0.511476C279.38 0.705703 279.381 1.02075 279.188 1.21658C274.115 6.36075 268.354 11.7125 262.355 17.2696L261.701 17.875C255.901 23.2478 249.892 28.8133 244.064 34.5818C243.87 34.7738 243.557 34.7747 243.362 34.5839C243.167 34.393 243.161 34.0809 243.349 33.8827C248.371 28.5768 253.482 23.8756 259.168 18.684C259.476 18.4027 259.786 18.12 260.097 17.8356C265.538 12.8699 271.523 7.40778 278.48 0.510411C278.676 0.316772 278.991 0.317248 279.185 0.511476ZM317.381 0.525988C317.569 0.724617 317.563 1.03732 317.367 1.22797C307.73 10.6026 300.845 17.0806 295.42 22.1471C294.469 23.0354 293.563 23.8802 292.695 24.6893C292.364 24.9981 292.039 25.3016 291.718 25.6005C288.586 28.6029 285.44 31.5992 282.241 34.5954C282.041 34.7826 281.728 34.7742 281.538 34.5766C281.348 34.3791 281.353 34.0658 281.548 33.8739C284.424 31.0471 287.397 28.263 291.022 24.882M291.022 24.882C292.854 23.1267 294.682 21.3677 296.515 19.6048C303.073 13.2959 309.684 6.93524 316.68 0.501553C316.881 0.316474 317.194 0.327359 317.381 0.525988M67.857 0.553435C68.0427 0.757416 68.0281 1.07322 67.8244 1.25921C61.8208 6.74164 55.9644 12.3989 50.1455 18.0286L49.6488 18.5092C43.9991 23.9753 38.3817 29.4103 32.7049 34.6193C32.5041 34.8036 32.1927 34.7931 32.0047 34.5957C31.8168 34.3983 31.8215 34.0868 32.0154 33.8952C42.5776 23.4583 53.252 13.1294 67.1513 0.51968C67.3556 0.334351 67.6714 0.349454 67.857 0.553435ZM106.045 0.559967C106.228 0.76366 106.213 1.07662 106.012 1.26201C89.3948 16.5528 79.9434 25.7668 70.9025 34.6124C70.7075 34.8032 70.3956 34.8024 70.2015 34.6107C70.0074 34.419 70.0028 34.1071 70.1911 33.9098C73.7323 30.1993 77.3751 26.5248 81.0792 22.9034C76.7726 26.9138 72.4144 30.9171 68.2467 34.7164C68.0459 34.8994 67.7357 34.8886 67.5482 34.6921C67.3606 34.4956 67.3642 34.1853 67.5563 33.9933C72.0821 29.4684 76.8452 25.0251 82.5094 19.7413C88.1302 14.4979 94.6383 8.42682 102.682 0.627005C102.878 0.436755 103.191 0.439289 103.384 0.632695C103.577 0.826102 103.579 1.13871 103.389 1.33461C100.475 4.32929 97.1485 7.62039 93.5841 11.0647C97.5009 7.46603 101.436 3.94424 105.344 0.518104C105.55 0.337613 105.862 0.356275 106.045 0.559967ZM144.236 0.56969C144.412 0.771647 144.398 1.07641 144.203 1.26082C138.938 6.25877 134.222 10.7704 129.833 14.9689C126.635 18.0292 123.61 20.923 120.673 23.7175C116.982 27.3359 113.109 31.0348 109.071 34.6324C108.867 34.8148 108.553 34.7983 108.369 34.5954C108.184 34.3924 108.198 34.0788 108.399 33.8924C112.24 30.3314 116.029 26.7553 119.977 22.9992C121.28 21.7211 122.562 20.4524 123.82 19.2009C119.468 23.2121 115.091 27.0738 110.836 30.8284C109.796 31.7454 108.764 32.6561 107.742 33.5609C107.305 33.952 106.867 34.3401 106.425 34.7272C106.218 34.9086 105.903 34.8882 105.721 34.6815C105.539 34.4749 105.558 34.1598 105.764 33.9769C106.201 33.5896 106.639 33.2013 107.079 32.812C110.35 29.8796 113.536 26.7731 117.78 22.6353C118.032 22.3896 118.288 22.1402 118.548 21.8871C123.761 16.8055 130.562 10.1972 140.876 0.623582C141.072 0.442187 141.375 0.446058 141.566 0.632381C141.756 0.818704 141.767 1.12191 141.591 1.32153C140.266 2.81718 138.916 4.28988 137.547 5.74116C139.648 3.78883 141.65 2.02361 143.547 0.507563C143.756 0.340337 144.06 0.367732 144.236 0.56969ZM182.423 0.574517C182.602 0.780651 182.582 1.09217 182.379 1.27443C176.03 6.97033 170.682 11.8977 165.919 16.3954C163.843 18.4274 161.798 20.4578 159.769 22.4718C155.572 26.6387 151.446 30.7351 147.267 34.629C147.067 34.8147 146.756 34.8066 146.566 34.6109C146.377 34.4151 146.379 34.1036 146.571 33.9105C150.58 29.8816 154.556 25.9255 158.934 21.6885C157.775 22.739 156.606 23.7953 155.43 24.8585C151.874 28.0718 148.248 31.3485 144.622 34.7211C144.422 34.9074 144.109 34.8982 143.92 34.7006C143.731 34.5029 143.736 34.1901 143.931 33.9984C150.519 27.5236 157.168 21.2725 163.235 15.5958C163.98 14.898 164.717 14.2089 165.444 13.5292C170.633 8.67747 175.311 4.30347 179.052 0.637025C179.245 0.44843 179.552 0.446247 179.747 0.632088C179.942 0.81793 179.955 1.12495 179.776 1.32633C178.353 2.92665 176.865 4.52198 175.32 6.1168C177.406 4.22532 179.537 2.35482 181.724 0.5193C181.933 0.343807 182.244 0.368383 182.423 0.574517ZM220.594 0.561799C220.783 0.760863 220.776 1.07534 220.578 1.2661C215.031 6.62068 210.428 11.1595 206.424 15.1087C197.81 23.6026 191.964 29.3686 185.426 34.656C185.216 34.8258 184.909 34.7982 184.733 34.5938C184.557 34.3893 184.575 34.0817 184.773 33.8991C191.251 27.9472 197.444 21.9898 203.851 15.8267C208.975 10.8973 214.237 5.83634 219.889 0.541413C220.09 0.353633 220.404 0.362735 220.594 0.561799ZM258.779 0.563105C258.97 0.762267 258.964 1.07872 258.765 1.26999C258.587 1.44088 258.407 1.61317 258.227 1.78681C255.956 3.96881 253.547 6.30587 251.023 8.7535C242.805 16.7229 233.379 25.8645 223.632 34.6428C223.429 34.8264 223.115 34.8115 222.929 34.6095C222.744 34.4074 222.756 34.0937 222.956 33.9063C235.487 22.1784 248.371 9.86427 257.55 1.05007C257.725 0.882017 257.899 0.714868 258.072 0.548644C258.271 0.357468 258.588 0.363942 258.779 0.563105ZM296.976 0.578628C297.159 0.782414 297.145 1.09623 296.942 1.28181C287.823 9.65356 281.251 15.9545 275.857 21.1808C274.751 22.2516 273.695 23.2777 272.676 24.2674C268.724 28.1067 265.334 31.4001 261.823 34.6417C261.622 34.8272 261.31 34.8169 261.121 34.6187C260.933 34.4205 260.939 34.1077 261.134 33.9167C273.77 21.5737 288.979 6.99978 296.273 0.539202C296.478 0.357246 296.792 0.374841 296.976 0.578628ZM47.4359 0.59072C47.6254 0.79153 47.6163 1.10794 47.4155 1.29748C40.4331 7.88877 34.9974 13.2405 30.4225 17.7448C23.7327 24.3312 18.8835 29.1055 13.7305 33.2933C13.5192 33.4651 13.2092 33.4361 13.0333 33.2281C12.8575 33.0201 12.8805 32.7096 13.0851 32.5298C17.6886 28.4834 22.1129 24.2021 28.3043 18.2108C33.0897 13.5802 38.9307 7.92798 46.7259 0.573231C46.727 0.572256 46.728 0.571281 46.729 0.570306C46.729 0.570337 46.7291 0.570275 46.729 0.570306C46.9299 0.38082 47.2464 0.389909 47.4359 0.59072ZM85.6247 0.597823C85.8107 0.798217 85.8013 1.11086 85.6035 1.29965L85.0653 1.81338C76.5593 9.93311 63.7744 22.1373 50.4817 34.6628C50.2838 34.8492 49.9732 34.8434 49.7825 34.6496C49.5917 34.4559 49.5908 34.1452 49.7804 33.9503C60.8336 22.5856 73.1694 11.1751 84.9233 0.566801C85.1262 0.383609 85.4387 0.397429 85.6247 0.597823ZM118.755 27.7846C116.243 30.2073 114.027 32.3456 111.727 34.5288C111.531 34.715 111.222 34.7115 111.03 34.5208C110.839 34.3302 110.833 34.0216 111.018 33.8242C116.394 28.0889 122.201 22.7022 132.622 13.0357C135.352 10.5029 138.399 7.67639 141.839 4.47278C143.209 3.19135 144.648 1.84857 146.162 0.439334M118.755 27.7846C124.109 22.6183 130.805 16.1587 142.511 5.2127L118.755 27.7846ZM142.511 5.2127C143.89 3.9284 145.332 2.58324 146.842 1.17184L142.511 5.2127ZM123.802 0.59225C123.994 0.788921 123.991 1.10425 123.796 1.29772C118.196 6.83073 112.475 12.1603 106.73 17.5079C100.995 22.9068 94.9316 28.622 88.672 34.6627C88.4742 34.8537 88.1593 34.849 87.9672 34.6524C87.7751 34.4558 87.7777 34.1409 87.9731 33.9475C93.8238 28.1583 99.7446 22.6435 105.63 17.165L105.82 16.9885C105.896 16.9182 105.971 16.8479 106.047 16.7777C106.237 16.598 106.428 16.4187 106.618 16.2397L106.839 16.0318C112.66 10.5516 118.126 5.40581 123.096 0.583218C123.294 0.391542 123.609 0.395579 123.802 0.59225ZM161.991 0.598447C162.179 0.793232 162.178 1.10273 161.988 1.29625C155.806 7.59988 145.697 17.0506 134.227 27.7729C131.821 30.0224 129.355 32.3279 126.853 34.6719C126.656 34.8562 126.349 34.8514 126.158 34.6612C125.967 34.471 125.961 34.1637 126.145 33.9664C133.344 26.2288 141.309 18.919 156.875 4.63336C158.284 3.3405 159.755 1.99049 161.293 0.577869C161.493 0.394535 161.802 0.403663 161.991 0.598447ZM200.179 0.605157C200.366 0.801229 200.363 1.11056 200.172 1.30272C194.218 7.29293 188.345 12.729 182.51 18.1178L182.006 18.5831C178.981 21.3771 175.964 24.1621 172.95 27.0107C172.926 27.0343 172.902 27.0578 172.878 27.0814C170.003 29.9154 167.563 32.3219 165.038 34.6768C164.838 34.8629 164.526 34.8547 164.337 34.6583C164.148 34.462 164.15 34.1501 164.344 33.9573C166.978 31.3269 169.608 28.793 172.236 26.309C178.082 20.5462 185.763 12.9801 199.482 0.579309C199.683 0.397623 199.992 0.409085 200.179 0.605157ZM238.369 0.612956C238.555 0.812421 238.547 1.1245 238.35 1.31408C227.105 12.1682 219.874 18.9129 214.488 23.9374C209.825 28.2866 206.544 31.347 203.237 34.668C203.044 34.8619 202.731 34.8646 202.535 34.6742C202.338 34.4838 202.331 34.1709 202.519 33.972C212.92 22.9559 223.691 13.2186 235.553 2.49534C236.254 1.86165 236.959 1.22453 237.668 0.583489C237.87 0.400375 238.182 0.413491 238.369 0.612956ZM276.545 0.607415C276.738 0.802729 276.737 1.11665 276.544 1.31106C271.528 6.35256 265.912 11.6021 259.971 17.1345C259.598 17.4821 259.223 17.8307 258.848 18.1805C253.24 23.4013 247.358 28.8767 241.418 34.677C241.222 34.8685 240.908 34.8664 240.715 34.6725C240.521 34.4786 240.52 34.165 240.712 33.9693C244.54 30.0635 248.445 26.4323 253.79 21.4622C259.197 16.4345 266.077 10.0368 275.842 0.598881C276.039 0.408293 276.353 0.4121 276.545 0.607415ZM314.739 0.619215C314.928 0.819908 314.919 1.13619 314.719 1.32581C311.265 4.59076 308.07 7.61318 305.069 10.4532C299.767 15.4853 295.465 19.5944 291.732 23.1607C287.085 27.5996 283.318 31.1977 279.597 34.6881C279.396 34.8763 279.081 34.867 278.892 34.6674C278.703 34.4678 278.71 34.1527 278.909 33.9624C286.764 26.4342 294.51 19.0722 304.363 9.74456C307.262 6.99437 310.461 3.96679 314.032 0.599148C314.031 0.599338 314.032 0.598957 314.032 0.599148C314.233 0.409777 314.549 0.418521 314.739 0.619215ZM27.0148 0.627221C27.2073 0.822963 27.2059 1.13729 27.0118 1.33139C25.7749 2.56801 24.5627 3.78707 23.3663 4.99026C16.557 11.8382 10.2591 18.1717 2.83063 24.2997C2.62284 24.4711 2.31659 24.4471 2.13805 24.2454C1.95951 24.0437 1.97287 23.7368 2.16826 23.5513C3.98171 21.8302 5.79971 20.1218 7.76703 18.2731C12.4507 13.8718 17.9807 8.6751 26.3107 0.618396C26.508 0.42754 26.8223 0.43148 27.0148 0.627221ZM65.212 0.643149C65.3981 0.845172 65.3864 1.15946 65.1858 1.34706C60.9936 5.26775 56.4555 9.63815 51.6872 14.2303C44.8395 20.8251 37.5169 27.8771 30.0617 34.7113C29.8591 34.897 29.5447 34.8845 29.3577 34.6833C29.1706 34.482 29.1809 34.1676 29.3807 33.979C34.4581 29.1902 39.686 24.1682 44.7075 19.3445C52.1481 12.1969 59.1355 5.4847 64.5083 0.611524C64.7118 0.427005 65.026 0.441125 65.212 0.643149ZM217.948 0.65114C218.138 0.848367 218.134 1.16193 217.939 1.35428C204.582 14.5221 193.241 25.2631 182.804 34.7295C182.603 34.9118 182.293 34.9005 182.106 34.704C181.919 34.5075 181.922 34.1976 182.114 34.0057C187.579 28.5368 192.948 23.4908 203.137 13.9139C207.04 10.2452 211.651 5.91155 217.245 0.634491C217.444 0.446488 217.758 0.453912 217.948 0.65114ZM256.137 0.658487C256.326 0.857698 256.319 1.17173 256.121 1.36219C254.532 2.89535 252.646 4.73678 250.524 6.80934C242.844 14.31 232.065 24.8378 220.988 34.736C220.784 34.9181 220.472 34.9029 220.287 34.7018C220.102 34.5008 220.112 34.1884 220.311 34.0004C224.191 30.3211 227.968 26.7022 231.826 23.0054C239.014 16.117 246.484 8.9584 255.434 0.636151C255.635 0.449309 255.949 0.459277 256.137 0.658487ZM294.324 0.663641C294.511 0.862382 294.504 1.17446 294.309 1.36479C277.994 17.2346 269.579 25.142 262.59 31.5952C261.465 32.6401 260.327 33.6878 259.178 34.7366C258.974 34.9225 258.658 34.9084 258.472 34.7049C258.286 34.5015 258.299 34.1857 258.503 33.9991C259.618 32.974 260.744 31.9386 261.909 30.8628C267.33 25.8301 272.474 20.8613 277.33 16.157C277.725 15.7738 278.119 15.3924 278.511 15.0128C283.922 9.76862 288.969 4.87781 293.623 0.636793C293.825 0.45295 294.137 0.4649 294.324 0.663641ZM332.513 0.669691C332.701 0.871608 332.69 1.1877 332.488 1.37598C332.488 1.37623 332.488 1.37648 332.488 1.37673M332.513 0.669691C332.325 0.467774 332.009 0.456368 331.807 0.644204L332.513 0.669691ZM44.796 0.686968C44.9836 0.889396 44.9717 1.20551 44.7694 1.39325C44.0526 2.05869 43.3511 2.70976 42.6645 3.34703C41.8169 4.13383 40.9918 4.8996 40.1884 5.64543C30.4941 14.6779 24.3386 20.6404 19.4343 25.391C16.3564 28.3724 13.7714 30.8765 11.1137 33.3623C10.9155 33.5477 10.6056 33.5412 10.4154 33.3475C10.2253 33.1539 10.2243 32.8439 10.4132 32.6491C17.164 25.6887 24.6611 18.695 39.5297 4.89248C40.9699 3.55057 42.4875 2.14163 44.0897 0.65973C44.2923 0.47235 44.6084 0.484541 44.796 0.686968ZM82.9674 0.675983C83.1614 0.868485 83.1649 1.18107 82.9753 1.37785C79.8811 4.5885 76.3196 7.92014 72.5004 11.4056C69.8202 13.9239 67.2317 16.3282 64.7279 18.6538C64.4954 18.8698 64.2637 19.0851 64.0326 19.2997C58.2101 24.7085 52.8503 29.7023 47.8498 34.7439C47.6569 34.9383 47.3435 34.9414 47.1468 34.7508C46.9501 34.5602 46.9434 34.2469 47.1317 34.048C53.2677 27.5683 59.7325 21.6324 65.8186 16.1158C66.4304 15.5612 67.0382 15.0111 67.6414 14.465C69.0638 13.1775 70.4606 11.9132 71.8229 10.67C75.1581 7.5362 78.6339 4.22724 82.2655 0.673519C82.4609 0.482383 82.7735 0.483481 82.9674 0.675983ZM121.165 0.690706C121.354 0.891032 121.345 1.2066 121.146 1.39638C116.871 5.45931 112.757 9.29619 108.729 13.0524C101.022 20.2405 93.6316 27.1332 86.0348 34.749C85.84 34.9443 85.5238 34.9449 85.3282 34.7504C85.1326 34.5558 85.1315 34.2396 85.3258 34.0438C92.4421 26.8684 100.201 19.6162 110.96 9.55942C113.888 6.82214 117.039 3.87708 120.459 0.669236C120.66 0.480779 120.976 0.49038 121.165 0.690706ZM159.354 0.698169C159.539 0.898374 159.53 1.21038 159.333 1.39916C150.494 9.8636 143.432 16.5432 137.126 22.5075C136.182 23.4003 135.255 24.2771 134.341 25.1415C130.83 28.4637 127.519 31.6021 124.213 34.7605L123.868 34.3989L123.53 34.0302C126.931 30.9161 130.243 27.7338 133.65 24.4187M133.65 24.4187C134.83 23.2708 136.021 22.1071 137.232 20.9247C138.021 20.1533 138.819 19.374 139.627 18.586C145.248 13.1042 151.357 7.20938 158.653 0.665789C158.857 0.483552 159.168 0.497964 159.354 0.698169M197.538 0.700571C197.724 0.899501 197.717 1.21076 197.522 1.40062C189.368 9.32759 183.199 15.2597 178.246 19.9697C173.052 25.0671 167.775 30.1384 162.38 34.782C162.173 34.9601 161.861 34.9393 161.68 34.7351C161.499 34.531 161.515 34.2192 161.716 34.0346C166.013 30.0921 170.573 25.8859 177.551 19.2504C178.212 18.6018 178.872 17.9525 179.53 17.3033C180.158 16.6851 180.784 16.067 181.41 15.4498C186.598 10.3302 191.731 5.26619 196.839 0.670422C197.041 0.488235 197.352 0.50164 197.538 0.700571ZM235.719 0.697936C235.911 0.895699 235.907 1.21151 235.709 1.40402C228.143 8.78851 220.871 15.6212 214.024 22.0532C210.277 25.5738 206.658 28.9745 203.188 32.2799C202.318 33.1091 201.451 33.9385 200.586 34.768C200.386 34.9591 200.07 34.9525 199.879 34.7533C199.688 34.5541 199.694 34.2377 199.893 34.0465C200.757 33.2169 201.63 32.3823 202.512 31.542C206.984 27.2752 211.491 23.022 215.983 18.7821C222.402 12.7238 228.792 6.69277 235.011 0.688374C235.012 0.687746 235.012 0.687117 235.013 0.686488C235.211 0.495053 235.527 0.500174 235.719 0.697936ZM273.913 0.710205C274.1 0.912018 274.089 1.22723 273.888 1.41534C270.387 4.69199 266.6 8.28438 262.62 12.0765C260.155 14.4682 257.857 16.7308 255.668 18.8854C255.226 19.3202 254.789 19.7506 254.355 20.1768C248.824 25.6182 243.939 30.376 238.75 34.792C238.543 34.9677 238.234 34.9468 238.053 34.7448C237.872 34.5428 237.885 34.2334 238.083 34.0474C243.985 28.4816 249.861 22.8714 255.475 17.5111C257.67 15.4159 259.825 13.3588 261.925 11.3574M312.111 0.728361C312.29 0.93643 312.268 1.24982 312.062 1.43058C307.17 5.7125 302.707 9.75871 298.473 13.7158C291.749 20.0769 284.368 27.3587 276.965 34.7686C276.771 34.9636 276.455 34.9642 276.259 34.77C276.064 34.5758 276.062 34.26 276.256 34.0639C283.455 26.775 290.261 20.0217 297.79 12.9853C302.772 8.27301 307.398 4.06121 311.41 0.672396C311.619 0.495315 311.932 0.520292 312.111 0.728361ZM24.3812 0.731073C24.5677 0.932538 24.5568 1.24666 24.3569 1.4348C24.0486 1.72502 23.7336 2.02139 23.4124 2.3237C22.6662 3.02592 21.8859 3.76019 21.075 4.5238C19.7168 5.83243 18.2583 7.26345 16.7199 8.77289C15.993 9.48617 15.2482 10.2169 14.4877 10.9606C10.7356 14.6296 6.61009 18.6032 2.39344 22.2972C2.18928 22.4761 1.8797 22.4594 1.69595 22.2596C1.5122 22.0598 1.52141 21.7499 1.71669 21.5614C8.61881 14.8982 15.1452 8.73397 20.3869 3.79816C21.5618 2.6662 22.6637 1.62379 23.6777 0.700921C23.8807 0.516149 24.1947 0.529608 24.3812 0.731073ZM62.5588 0.726303C62.7471 0.920074 62.7474 1.22841 62.5595 1.42256C59.501 4.5819 54.5594 9.16745 48.7681 14.5415C48.4136 14.8704 48.0559 15.2024 47.6952 15.5371C47.0501 16.1359 46.3954 16.7437 45.7325 17.3599C44.2183 18.8422 42.8012 20.2394 41.4579 21.5645L41.1772 21.8413C35.9553 26.9927 31.8284 31.0639 27.4042 34.817C27.1994 34.9908 26.8938 34.9716 26.7122 34.7736C26.5307 34.5755 26.5381 34.2694 26.729 34.0804C32.8781 27.9911 39.2753 21.9966 45.0422 16.6362C49.5705 12.2037 54.9703 7.00804 61.8628 0.705782C62.0623 0.523443 62.3705 0.532531 62.5588 0.726303ZM100.75 0.735929C100.933 0.929701 100.931 1.23261 100.747 1.42484C96.872 5.46808 91.3538 10.6279 85.1794 16.3623C84.5997 16.9006 84.0142 17.4441 83.4236 17.9923C80.4923 20.7131 77.4368 23.5492 74.3544 26.4477C71.5028 29.2697 68.6419 32.0417 65.6035 34.8094C65.4018 34.9931 65.09 34.9812 64.9029 34.7827C64.7158 34.5841 64.7224 34.2722 64.9178 34.0817C67.8012 31.2709 70.743 28.4711 73.6598 25.7283C75.0292 24.3731 76.3977 23.005 77.7849 21.6184C78.854 20.5498 79.9341 19.4701 81.0341 18.3767C86.5275 12.9167 92.5075 7.12621 100.062 0.698062C100.265 0.525507 100.567 0.542157 100.75 0.735929ZM138.941 0.743956C139.125 0.944206 139.116 1.25546 138.919 1.44395C128.69 11.2469 121.732 17.8389 116.42 22.8547C115.164 24.0407 114 25.1384 112.907 26.1695C111.172 27.8055 109.615 29.2737 108.15 30.6607C106.633 32.0971 105.215 33.4464 103.799 34.8047L103.453 34.4438L103.111 34.0792C104.578 32.7019 106.014 31.3314 107.441 29.9553M107.441 29.9553C109.7 27.7765 111.934 25.584 114.233 23.3291C120.959 16.729 128.231 9.59484 138.241 0.709014C138.445 0.528168 138.756 0.543705 138.941 0.743956M177.11 0.730771C177.305 0.922701 177.309 1.23563 177.12 1.43308C162.258 16.9337 152.389 25.6354 142.489 34.3652L141.969 34.823C141.766 35.0024 141.456 34.9868 141.272 34.7877C141.088 34.5886 141.096 34.2788 141.29 34.0896C147.702 27.851 154.339 21.6306 160.443 15.9111L160.596 15.7677C166.642 10.1022 172.155 4.93631 176.408 0.731495C176.602 0.539164 176.915 0.538841 177.11 0.730771ZM215.301 0.739941C215.492 0.933 215.493 1.24272 215.305 1.43803C209.234 7.7398 203.179 13.4031 197.28 18.8295C196.224 19.8005 195.174 20.7637 194.129 21.7216C189.333 26.1197 184.66 30.4048 180.175 34.8088C179.978 35.0019 179.662 34.9994 179.469 34.8032C179.275 34.6069 179.277 34.291 179.473 34.0969C179.473 34.0964 179.474 34.0958 179.474 34.0953M215.301 0.739941C215.111 0.546883 214.801 0.54089 214.603 0.726434L215.301 0.739941ZM253.495 0.75197C253.679 0.947375 253.676 1.25364 253.488 1.44543C244.096 11.0149 231.631 22.5987 218.349 34.824C218.154 35.0043 217.851 34.9995 217.661 34.8131C217.471 34.6268 217.46 34.3242 217.636 34.1248C226.575 24.0214 237.227 14.3372 252.802 0.718792C253.004 0.541913 253.31 0.556566 253.495 0.75197ZM291.681 0.755626C291.87 0.956641 291.861 1.2729 291.66 1.46218C291.413 1.69483 291.168 1.92582 290.925 2.15517C288.03 4.89161 284.748 8.08352 281.188 11.5457C273.833 18.6986 265.292 27.0051 256.53 34.8321C256.325 35.0154 256.01 34.9984 255.825 34.794C255.641 34.5897 255.657 34.2748 255.86 34.0895C260.239 30.1026 264.514 25.9939 270.276 20.4574C275.389 15.5438 281.672 9.50557 290.236 1.4299C290.484 1.19547 290.73 0.964286 290.972 0.73645C290.973 0.73575 290.974 0.73505 290.974 0.734351C290.974 0.734503 290.974 0.734199 290.974 0.734351C291.175 0.545338 291.492 0.554611 291.681 0.755626ZM329.862 0.753862C330.053 0.95052 330.05 1.26444 329.855 1.45748C316.604 14.5902 308.101 22.4299 301.742 28.2925C299.095 30.7329 296.819 32.8307 294.728 34.8251C294.529 35.0146 294.215 35.0084 294.024 34.8111C293.833 34.6138 293.836 34.2994 294.032 34.1068C300.211 28.029 306.505 22.112 313.713 15.3355C318.401 10.9278 323.476 6.15635 329.158 0.740421C329.357 0.551208 329.671 0.557204 329.862 0.753862ZM42.1402 0.765525C42.3331 0.958932 42.3351 1.27143 42.1447 1.46729C36.4099 7.36376 29.6803 13.6149 22.5326 20.2546C18.4364 24.0595 14.2028 27.9921 9.94045 32.0587C9.93953 32.0595 9.93861 32.0604 9.93769 32.0613C9.93767 32.0613 9.93772 32.0613 9.93769 32.0613C9.73791 32.2519 9.42137 32.2445 9.23075 32.0448C9.04012 31.845 9.04752 31.5285 9.24728 31.3379C13.5867 27.1963 17.9402 23.0882 22.2755 18.997C28.7386 12.8981 35.1616 6.837 41.4384 0.759473C41.6347 0.569422 41.9472 0.572117 42.1402 0.765525ZM80.3232 0.766663C80.5162 0.956906 80.5225 1.26629 80.3374 1.46425C74.4482 7.76288 67.0484 14.5575 59.458 21.5271C55.2828 25.3608 51.0499 29.2475 46.979 33.1337C46.3846 33.7039 45.7908 34.2742 45.1984 34.844C44.9996 35.0353 44.6834 35.0293 44.4919 34.8307C44.3003 34.6321 44.3059 34.3159 44.5042 34.1242C45.1021 33.5462 45.7038 32.9684 46.3086 32.3911C52.3976 26.5508 58.5618 20.7185 64.1502 15.4394C64.9192 14.7129 65.6773 13.997 66.4227 13.293C71.6313 8.3739 76.2239 4.03661 79.6255 0.762526C79.8207 0.574586 80.1302 0.576421 80.3232 0.766663ZM118.507 0.769054C118.702 0.958701 118.709 1.26873 118.524 1.46748C109.471 11.1954 101.638 18.2198 94.4997 24.6213C94.4656 24.6518 94.4316 24.6824 94.3975 24.713C90.6411 28.2419 86.9977 31.6012 83.372 34.8596C83.1693 35.0418 82.8582 35.0281 82.6723 34.8289C82.4864 34.6298 82.4941 34.3184 82.6897 34.1288C86.2558 30.6713 89.9107 27.3913 93.7535 23.9459C101.097 17.0463 108.877 9.4936 117.809 0.769163C118.003 0.579456 118.313 0.579407 118.507 0.769054ZM156.7 0.779859C156.894 0.976165 156.892 1.29213 156.696 1.48615C150.764 7.3626 145.611 12.3503 140.95 16.7863C132.804 24.5949 128.041 28.9437 123.666 32.9373C122.959 33.5833 122.261 34.2201 121.561 34.8607C121.358 35.0468 121.042 35.0332 120.856 34.8302C120.669 34.6272 120.682 34.3114 120.885 34.1244C121.578 33.484 122.274 32.8428 122.972 32.1989C128.306 27.2783 133.813 22.1982 140.26 16.0626C144.465 12.032 149.572 7.07846 155.994 0.774127C156.191 0.580988 156.507 0.583552 156.7 0.779859ZM233.08 0.796048C233.269 0.996646 233.26 1.31254 233.06 1.50214C224.952 9.18067 218.512 15.3126 212.849 20.7041C207.427 25.8667 202.718 30.3506 197.94 34.8635C197.744 35.0484 197.437 35.0451 197.246 34.8559C197.054 34.6668 197.046 34.3598 197.229 34.1615C202.372 28.5689 207.897 23.4686 216.684 15.3578C221.009 11.3654 226.125 6.64361 232.374 0.77464C232.575 0.585872 232.891 0.59545 233.08 0.796048ZM271.269 0.803361C271.454 1.00362 271.445 1.31568 271.248 1.50443C260.903 11.404 252.849 19.0288 245.08 26.3834C242.333 28.9837 239.622 31.5502 236.858 34.1716C236.66 34.3598 236.347 34.3537 236.156 34.1578C235.965 33.9619 235.967 33.649 236.16 33.4555C249.535 20.0635 264.196 6.48693 270.568 0.770985C270.772 0.588695 271.083 0.603106 271.269 0.803361ZM331.807 0.644204C321.585 10.1436 314.732 16.7153 309.47 21.7976L331.807 0.644204ZM309.47 21.7976C308.55 22.6858 307.68 23.5283 306.848 24.3328L309.47 21.7976ZM306.848 24.3328C302.92 28.1329 299.869 31.0848 296.689 34.003L306.848 24.3328ZM311.912 21.3488C306.503 26.7023 302.084 30.9728 297.339 34.7621C297.128 34.9302 296.822 34.9013 296.647 34.6966C296.472 34.4919 296.49 34.1851 296.689 34.003M311.912 21.3488C312.684 20.585 313.476 19.7991 314.293 18.9891L311.912 21.3488ZM314.293 18.9891C319.201 14.1191 324.984 8.38059 332.486 1.37847L314.293 18.9891ZM309.449 0.799746C309.638 0.995839 309.636 1.30768 309.443 1.50064C299.723 11.2307 292.816 17.468 287.492 22.2391C287.218 22.4846 286.948 22.7262 286.683 22.9641C286.299 23.3076 285.924 23.6435 285.557 23.9726C281.843 27.5238 278.381 30.8789 275.051 34.1686C274.86 34.3578 274.553 34.3614 274.357 34.1768C274.161 33.9922 274.146 33.6856 274.324 33.4832C277.311 30.0774 280.563 27.1073 284.879 23.2376C291.731 16.6875 299.438 9.47348 308.748 0.781782C308.947 0.595661 309.259 0.603653 309.449 0.799746ZM21.7078 0.792843C21.9108 0.977671 21.9269 1.29164 21.7437 1.49616C17.6469 6.0704 12.8926 10.3631 7.96555 14.8119C5.98027 16.6044 3.96693 18.4223 1.95725 20.2942C1.75979 20.4781 1.45202 20.4721 1.26181 20.2807C1.0716 20.0893 1.06758 19.7815 1.25272 19.5852C4.11837 16.5468 7.15118 13.8467 10.2594 11.0796C10.4583 10.9025 10.6575 10.7251 10.8571 10.5473C14.1784 7.58823 17.5855 4.51776 21.0042 0.823006C21.1907 0.621481 21.5048 0.608015 21.7078 0.792843ZM59.925 0.82799C60.1117 1.03069 60.0991 1.34617 59.897 1.53343C59.5948 1.81348 59.2864 2.09921 58.972 2.39044C52.0527 8.80052 42.2529 17.8791 31.9985 27.8361C31.0568 28.7587 30.1701 29.6303 29.3202 30.4658C27.9855 31.7778 26.7415 33.0006 25.5177 34.1916C25.3204 34.3836 25.0051 34.3801 24.8122 34.1837C24.6193 33.9873 24.6215 33.672 24.817 33.4782C26.9828 31.3317 29.1509 29.2073 31.2989 27.1215C37.099 21.4391 44.9908 13.817 59.2197 0.79778C59.423 0.611783 59.7384 0.625293 59.925 0.82799ZM98.1098 0.830755C98.2975 1.0331 98.2857 1.34922 98.0835 1.53706C98.0832 1.53739 98.0839 1.53672 98.0835 1.53706C89.7718 9.25915 83.6303 15.2889 78.5577 20.2692C78.1919 20.6284 77.8316 20.9822 77.4764 21.3307C72.1989 26.5097 68.0473 30.5474 63.6766 34.2202C63.4728 34.3915 63.1705 34.373 62.9891 34.1782C62.8076 33.9834 62.8106 33.6806 62.9959 33.4894C70.3869 25.8647 78.4239 18.3743 97.4018 0.805435M97.4035 0.803839C97.4033 0.804041 97.4038 0.803637 97.4035 0.803839C97.606 0.616362 97.9222 0.628409 98.1098 0.830755L97.4035 0.803839ZM136.296 0.835337C136.483 1.03775 136.471 1.3535 136.269 1.54115C134.923 2.79188 133.628 3.99446 132.381 5.1529C126.413 10.7432 121.56 15.511 117.27 19.726C117.016 19.9761 116.763 20.2242 116.512 20.4704C111.157 25.7313 106.645 30.1371 101.866 34.2206C101.662 34.3943 101.358 34.3773 101.176 34.1821C100.993 33.9868 100.996 33.6824 101.183 33.4911C108.878 25.6137 116.965 18.1034 131.539 4.56988C131.593 4.52011 131.646 4.47027 131.7 4.42034C132.946 3.25312 134.241 2.05007 135.589 0.808789M135.589 0.808789C135.589 0.808289 135.59 0.807514 135.59 0.807013C135.793 0.620255 136.109 0.632926 136.296 0.835337M174.471 0.828008C174.663 1.02247 174.663 1.33465 174.472 1.52936C166.314 9.83199 159.921 15.8204 154.462 20.8248C153.203 21.9798 151.993 23.0817 150.824 24.1469C146.925 27.7 143.473 30.846 140.078 34.2002C139.882 34.3938 139.567 34.3925 139.373 34.1974C139.178 34.0023 139.178 33.6868 139.373 33.4917C144.206 28.6396 149.221 23.9413 155.955 17.6314C160.808 13.084 166.554 7.69948 173.77 0.817098C173.968 0.628693 174.28 0.633549 174.471 0.828008ZM212.657 0.831171C212.851 1.0263 212.85 1.34077 212.657 1.53552C204.722 9.51709 191.781 22.1824 178.245 34.2222C178.041 34.4039 177.729 34.3879 177.544 34.1864C177.36 33.9848 177.371 33.6724 177.57 33.4849C180.25 30.9566 182.84 28.5277 185.437 26.0922C193.305 18.7129 201.238 11.2728 211.953 0.825007C212.15 0.633289 212.464 0.636041 212.657 0.831171ZM250.851 0.843174C251.039 1.04177 251.033 1.35473 250.837 1.5455C243.536 8.64705 237.354 14.3849 231.935 19.4136L231.193 20.1023C229.956 21.2511 228.758 22.3634 227.597 23.4472C226.168 24.8283 224.855 26.1029 223.61 27.3113C221.073 29.7741 218.82 31.9619 216.443 34.2156C216.245 34.4031 215.934 34.3977 215.742 34.2034C215.551 34.0091 215.551 33.6975 215.742 33.5028C219.157 30.017 222.816 26.5406 226.908 22.7225C232.226 17.583 239.156 10.9665 250.149 0.81968C250.35 0.63411 250.663 0.644579 250.851 0.843174ZM289.035 0.844851C289.226 1.04358 289.22 1.35923 289.022 1.5507C287.227 3.28546 285.196 5.27696 282.968 7.46181C275.321 14.9616 265.351 24.7397 254.617 34.2314C254.412 34.4125 254.1 34.3955 253.916 34.1931C253.732 33.9908 253.745 33.6782 253.945 33.4915C262.478 25.5183 270.409 17.9434 280.335 8.46207C282.857 6.05347 285.507 3.52185 288.329 0.829417C288.528 0.639223 288.844 0.646125 289.035 0.844851ZM236.218 16.8577C234.638 18.3484 233.024 19.8624 231.382 21.3963C232.929 19.9174 234.538 18.4085 236.218 16.8577ZM214.603 0.726434C193.937 20.1104 186.826 26.8078 179.474 34.0953L214.603 0.726434ZM334.417 1.26503C334.608 1.46216 334.604 1.77627 334.409 1.96889C317.399 18.7373 309.107 26.3223 300.953 33.7818L300.01 34.645L300.007 34.6473C299.804 34.8333 299.489 34.8199 299.302 34.6173C299.115 34.4147 299.128 34.0993 299.33 33.9119C307.796 26.0565 315.785 18.4024 323.438 11.071C326.929 7.72651 330.349 4.44917 333.714 1.25046C333.912 1.0614 334.226 1.06789 334.417 1.26503ZM338.29 1.74179C338.495 1.56746 338.802 1.58772 338.983 1.78758C339.165 1.98743 339.154 2.29487 338.961 2.48247C334.592 6.71288 330.518 10.642 326.609 14.3855C325.916 15.0806 325.21 15.7888 324.491 16.5077C318.733 22.263 312.179 28.6817 305.278 34.4766C305.07 34.6512 304.761 34.6279 304.582 34.4242C304.402 34.2204 304.418 33.9106 304.618 33.7264C311.701 27.184 318.506 20.762 325.908 13.6729C326.112 13.4678 326.315 13.2638 326.518 13.061C331.116 8.44696 335.134 4.41566 338.29 1.74179ZM335.652 1.82914C335.859 1.6589 336.163 1.68186 336.342 1.88121C336.521 2.08056 336.511 2.38548 336.319 2.57272C327.008 11.6746 320.438 17.8292 315.273 22.6288C314.502 23.3444 313.764 24.0296 313.052 24.6898C310.682 26.8885 308.611 28.8098 306.674 30.6496C305.321 31.9707 303.98 33.2738 302.66 34.5466C302.462 34.7371 302.148 34.7326 301.956 34.5365C301.764 34.3405 301.765 34.0262 301.96 33.8324C303.27 32.527 304.588 31.2515 305.973 29.9358C307.9 28.0539 309.853 26.1328 311.81 24.209C320.375 15.7863 328.994 7.31007 335.652 1.82914ZM12.3346 2.47948C12.5273 2.67576 12.5253 2.99082 12.3301 3.18461C11.2044 4.30209 10.0942 5.36904 8.97707 6.42671C6.89379 8.42841 5.08546 10.1334 2.80518 12.2328C2.60325 12.4187 2.28921 12.4071 2.10158 12.2068C1.91395 12.0064 1.92289 11.6923 2.12161 11.503C3.35631 10.3266 4.53509 9.22348 5.6853 8.14711C6.56293 7.32582 7.42393 6.52008 8.28046 5.70923C9.30087 4.7288 10.3878 3.67666 11.6295 2.47103C11.8268 2.27942 12.1419 2.2832 12.3346 2.47948ZM340.159 3.0801C340.346 3.28053 340.337 3.59385 340.139 3.78282C336.818 6.94751 333.863 9.74302 331.209 12.2414C329.72 13.6905 328.22 15.1623 326.704 16.649C326.015 17.3254 325.322 18.0049 324.626 18.6868C319.308 23.8955 313.789 29.2393 307.93 34.3777C307.728 34.5546 307.422 34.5408 307.237 34.3463C307.053 34.1518 307.054 33.846 307.241 33.6535C311.169 29.6074 315.254 25.7944 321.478 19.9843C324.073 17.5624 327.039 14.7935 330.521 11.516M341.332 4.37064C341.524 4.56878 341.519 4.88488 341.322 5.07709C341.321 5.07747 341.321 5.07784 341.32 5.07822M341.332 4.37064C341.141 4.1725 340.824 4.16717 340.626 4.35874L341.332 4.37064ZM340.626 4.35874C338.045 6.84979 334.704 9.98078 330.905 13.5412L340.626 4.35874ZM330.905 13.5412C324.687 19.3687 317.242 26.3465 309.893 33.5519L330.905 13.5412ZM319.502 25.8441C316.114 29.0174 313.242 31.7083 310.59 34.2686C310.392 34.4599 310.077 34.455 309.885 34.2576C309.692 34.0602 309.696 33.7447 309.893 33.5519M319.502 25.8441C320.561 24.8526 321.67 23.8141 322.838 22.7177L319.502 25.8441ZM322.838 22.7177C327.742 18.1141 333.686 12.496 341.32 5.07822L322.838 22.7177ZM343.258 4.98735C343.441 5.19265 343.424 5.50791 343.22 5.69232C340.151 8.45716 337.348 11.0121 334.773 13.3881C327.859 19.818 320.428 27.0124 313.239 34.1713C313.044 34.3655 312.728 34.3656 312.533 34.1714C312.338 33.9773 312.337 33.662 312.53 33.466C317.978 27.9402 324.454 21.5464 334.093 12.6544C337.024 9.92928 339.862 7.34059 342.55 4.94933C342.551 4.94858 342.552 4.94797 342.553 4.94722C342.759 4.76411 343.074 4.78206 343.258 4.98735ZM344.426 6.27287C344.615 6.47078 344.61 6.78409 344.415 6.97568C340.983 10.3362 337.718 13.4078 334.625 16.2744C332.962 17.816 331.349 19.2983 329.785 20.7343C329.268 21.2092 328.757 21.679 328.251 22.1442C323.368 26.6352 319.004 30.695 315.161 34.7627L314.798 34.4193L314.463 34.0479C319.276 29.7104 324.191 24.9608 329.562 19.7704C330.984 18.3969 332.437 16.9925 333.929 15.5568C337.01 12.5911 340.256 9.49141 343.724 6.25299C343.924 6.0661 344.237 6.07496 344.426 6.27287ZM330.28 20.4677C324.89 25.6754 319.948 30.4515 315.132 34.7908C314.933 34.9704 314.628 34.9607 314.44 34.7687C314.253 34.5768 314.25 34.2711 314.434 34.076C318.304 29.9793 322.693 25.8972 327.574 21.4081C328.08 20.943 328.591 20.4735 329.108 19.9991C330.666 18.5674 332.273 17.091 333.929 15.5568M330.28 20.4677C331.696 19.0997 333.142 17.7019 334.625 16.2744L330.28 20.4677ZM345.601 7.56543C345.793 7.7605 345.792 8.07353 345.6 8.26791C343.754 10.1314 342.029 11.8814 340.402 13.5312C340.054 13.8842 339.711 14.2326 339.372 14.5765C341.233 12.9636 343.227 11.2835 345.376 9.52214C345.581 9.35401 345.882 9.37537 346.061 9.57083C346.241 9.76628 346.236 10.0678 346.051 10.2578C340.326 16.1341 335.521 20.548 331.347 24.3279C330.885 24.7462 330.431 25.1565 329.985 25.5601C326.393 28.8067 323.288 31.6141 320.446 34.5805C320.257 34.7777 319.944 34.7868 319.744 34.6008C319.544 34.4148 319.53 34.1027 319.713 33.8998C320.601 32.9156 321.499 31.9296 322.421 30.9355C320.879 32.2575 319.337 33.511 317.744 34.7251C317.532 34.8865 317.231 34.8537 317.059 34.6505C316.887 34.4473 316.905 34.145 317.099 33.9628C325.536 26.0472 334.714 17.3135 344.898 7.555C345.096 7.36572 345.409 7.37036 345.601 7.56543ZM347.23 10.857C347.422 11.0537 347.42 11.3689 347.224 11.5622C343.164 15.5727 339.736 18.8985 336.759 21.7455C331.773 26.5886 327.291 30.8621 323.055 34.5211C322.848 34.6996 322.536 34.6792 322.354 34.4752C322.173 34.2713 322.188 33.9592 322.39 33.7745C322.813 33.3859 323.24 32.9936 323.674 32.5955C327.085 29.4651 330.894 25.9701 336.059 21.0314C337.339 19.7874 338.654 18.5049 340.008 17.1844C342.083 15.1606 344.25 13.0476 346.525 10.8471C346.723 10.6558 347.038 10.6602 347.23 10.857ZM348.405 12.1488C348.6 12.3417 348.603 12.6552 348.412 12.852C340.586 20.9309 334.129 26.7844 327.432 32.8555C327.101 33.1553 326.77 33.4557 326.438 33.7568C326.195 33.9779 325.951 34.199 325.707 34.4203C325.502 34.6057 325.186 34.5901 325 34.3856C324.815 34.1811 324.83 33.865 325.035 33.6795C325.035 33.6796 325.035 33.6794 325.035 33.6795C325.036 33.6787 325.037 33.6776 325.038 33.6769C325.278 33.4591 325.518 33.2415 325.757 33.0239C332.593 26.8136 339.101 20.6408 347.702 12.1483C347.897 11.9558 348.21 11.956 348.405 12.1488ZM348.857 14.1462C349.049 14.3412 349.049 14.6544 348.856 14.8488C343.152 20.6059 338.073 25.3581 333.521 29.561C331.841 31.1331 330.109 32.7329 328.351 34.3282C328.147 34.5131 327.832 34.4986 327.646 34.2957C327.46 34.0928 327.473 33.7778 327.675 33.5909C328.598 32.7367 329.545 31.865 330.516 30.9707C331.277 30.2697 332.054 29.5549 332.846 28.8237C337.268 24.6864 341.334 20.7419 344.6 17.5741C345.927 16.2868 347.122 15.1278 348.154 14.1363C348.352 13.9467 348.665 13.9511 348.857 14.1462ZM348.593 16.8541C348.771 17.0561 348.757 17.363 348.562 17.5482C345.45 20.4935 342.892 23.0001 340.63 25.2171C339.702 26.1266 338.824 26.9874 337.977 27.8098C335.798 30.0915 333.641 32.24 330.959 34.2641C330.743 34.4272 330.436 34.3886 330.267 34.1771C330.098 33.9655 330.128 33.6579 330.335 33.4831C332.672 31.5077 334.831 29.4721 337.263 27.1094C337.66 26.6939 338.059 26.2728 338.463 25.8455L338.518 25.7874C341.12 23.0392 343.947 20.0525 347.9 16.799C348.108 16.6278 348.415 16.6522 348.593 16.8541ZM347.559 20.2161C347.74 20.3994 347.752 20.6902 347.587 20.8879C342.9 26.4992 338.429 31.0888 332.851 34.8808C332.635 35.0275 332.343 34.9836 332.18 34.7801C332.016 34.5765 332.037 34.2817 332.227 34.103C334.131 32.3132 335.892 30.5521 337.613 28.8314C340.643 25.8015 343.548 22.8966 346.888 20.1795C347.087 20.017 347.378 20.0328 347.559 20.2161ZM347.279 22.9067C347.471 23.1047 347.466 23.4207 347.268 23.6129C347.268 23.6134 347.267 23.6139 347.267 23.6144M347.279 22.9067C347.087 22.7086 346.771 22.7031 346.572 22.8945L347.279 22.9067ZM346.572 22.8945C343.131 26.2129 341.062 28.1592 339.172 29.9377L346.572 22.8945ZM339.172 29.9377C338.006 31.0344 336.909 32.0673 335.599 33.3186L339.172 29.9377ZM343.798 27.0047C340.562 30.1781 338.424 32.2755 336.263 34.0652C336.056 34.237 335.749 34.2137 335.57 34.0126C335.391 33.8114 335.404 33.5046 335.599 33.3186M343.798 27.0047C344.831 25.9926 345.975 24.8704 347.267 23.6144L343.798 27.0047Z" fill="#F6927F"/>
<path fill-rule="evenodd" clip-rule="evenodd" d="M5.72078 6.56179C2.65241 9.72441 0.711051 13.7106 1.06592 17.0643C1.06988 17.1017 1.0696 17.1395 1.06508 17.1769C0.618634 20.8694 2.51767 24.943 5.5698 28.0548C8.62049 31.1651 12.7175 33.2056 16.5175 32.9529C16.529 32.9521 16.5406 32.9517 16.5522 32.9518C183.871 33.4408 258.588 33.6102 332.18 32.9519C335.666 32.7692 339.726 31.0269 342.828 28.2032C345.927 25.3817 348.017 21.5321 347.679 17.1554C347.677 17.1347 347.677 17.1138 347.678 17.0931C347.845 13.5866 346.267 9.70742 343.474 6.65734C340.689 3.61526 336.73 1.43828 332.188 1.28206C187.945 1.85171 101.236 2.15798 16.5455 1.282L16.5399 1.28194V1.28191C12.843 1.2018 8.78431 3.40417 5.72078 6.56179ZM16.5587 0.282083C12.4831 0.194932 8.17502 2.59608 5.00306 5.86546C1.851 9.11433 -0.306214 13.3536 0.0656875 17.113C-0.403989 21.1948 1.69178 25.5291 4.85588 28.755C8.03149 31.9927 12.3887 34.2226 16.5664 33.9518C183.879 34.4408 258.599 34.6102 332.2 33.9517L332.207 33.9516C332.211 33.9515 332.216 33.9513 332.221 33.9511C335.968 33.7581 340.247 31.9049 343.501 28.9427C346.753 25.982 349.034 21.8621 348.678 17.1095C348.85 13.2945 347.139 9.17869 344.212 5.98201C341.271 2.77069 337.067 0.446267 332.212 0.282312C332.206 0.2821 332.199 0.282007 332.193 0.282031C187.944 0.851708 101.241 1.15796 16.5587 0.282083Z" fill="#F6927F"/>
</g>
</svg>
