<svg width="119" height="24" viewBox="0 0 119 24" fill="none" xmlns="http://www.w3.org/2000/svg">
<path d="M100.838 6.18253H116.417V7.73848H100.838V6.18253ZM101.775 8.39676H115.48V9.81308H101.775V8.39676ZM99.8006 10.4913H117.475V12.0872H99.8006V10.4913ZM104.468 16.376H112.268V17.4731H104.468V16.376ZM107.361 7.15999H109.834V11.768H107.361V7.15999ZM103.371 5.08539L105.506 4.4271C105.965 4.98565 106.443 5.76362 106.703 6.26232L104.488 7.08019C104.269 6.5416 103.77 5.70378 103.371 5.08539ZM111.63 4.38721L114.263 4.88591C113.704 5.68383 113.166 6.38201 112.727 6.86077L110.672 6.32217C111.011 5.74367 111.43 4.94575 111.63 4.38721ZM112.507 10.7706C113.605 12.5061 115.779 14.0221 118.153 14.7402C117.654 15.199 116.976 16.0369 116.637 16.6154C114.123 15.6579 111.929 13.7029 110.612 11.4289L112.507 10.7706ZM104.768 14.4809H114.143V19.3682H104.768V18.0915H111.73V15.7576H104.768V14.4809ZM104.488 10.8304L106.703 11.4688C105.386 13.8226 103.052 15.7376 100.678 16.8946C100.339 16.4558 99.5413 15.5781 99.0625 15.1791C101.337 14.2615 103.431 12.7055 104.488 10.8304ZM105.745 12.6856H111.55V13.8426H105.745V12.6856ZM102.673 23.2381L102.593 21.6024L103.391 20.9241L108.219 20.0464C108.219 20.605 108.279 21.3829 108.358 21.8019C103.83 22.7594 103.112 22.9588 102.673 23.2381ZM102.673 23.2381C102.514 22.6796 102.055 21.7221 101.676 21.3231C102.115 21.0638 102.573 20.585 102.573 19.6674V14.4809H105.187V21.0239C105.187 21.0239 102.673 22.4202 102.673 23.2381ZM115.579 18.3907L117.115 19.6076C115.699 20.3855 114.004 21.1835 112.687 21.6622L111.63 20.6848C112.887 20.1063 114.582 19.1288 115.579 18.3907ZM108.039 20.6449L108.997 19.2485C111.49 19.8669 115.161 20.9441 117.076 21.6622L116.078 23.278C114.263 22.5399 110.612 21.363 108.039 20.6449Z" fill="white"/>
<path d="M83.569 4.30713L86.0226 5.04521C84.6662 8.09726 82.4519 11.0496 80.2576 12.8648C79.8387 12.3861 78.8812 11.4685 78.3027 11.0496C80.4571 9.51357 82.4519 6.96022 83.569 4.30713ZM83.4892 7.00012H94.0417V9.27419H82.3721L83.4892 7.00012ZM93.164 7.00012H95.5977C95.5977 7.00012 95.5777 7.71825 95.5578 7.99752C95.3783 14.3011 95.1987 16.6749 94.6402 17.4329C94.2213 18.0314 93.7625 18.2309 93.184 18.3506C92.6254 18.4304 91.7876 18.4503 90.87 18.4104C90.8301 17.7322 90.5708 16.7747 90.2317 16.1563C90.9099 16.2161 91.5283 16.2361 91.8674 16.2161C92.1467 16.2361 92.3262 16.1762 92.5057 15.9169C92.8449 15.4381 93.0244 13.3635 93.164 7.45892V7.00012ZM81.5742 10.7105H83.948V19.1684C83.948 20.3055 84.2672 20.5049 86.3418 20.5049C87.3193 20.5049 91.5881 20.5049 92.7252 20.5049C94.3809 20.5049 94.6601 20.1459 94.8995 18.2708C95.478 18.6099 96.4954 18.9889 97.1935 19.1086C96.7746 21.9213 95.9568 22.7391 92.8848 22.7391C91.9672 22.7391 87.1796 22.7391 86.3418 22.7391C82.6514 22.7391 81.5742 22.021 81.5742 19.2083V10.7105ZM82.2724 10.7105H90.0721V17.1337H82.2724V15.0192H87.7382V12.805H82.2724V10.7105Z" fill="white"/>
<path d="M70.9665 6.18254L72.7618 4.94577C73.8589 5.88332 75.1556 7.21984 75.754 8.1574L73.819 9.51387C73.3004 8.55636 72.0437 7.16 70.9665 6.18254ZM57.9005 10.0724H75.9136V12.3465H57.9005V10.0724ZM57.5215 15.7177C59.9352 15.3586 63.7253 14.7004 67.2162 14.062L67.3958 16.2364C64.1642 16.9146 60.6932 17.6128 58.1199 18.1314L57.5215 15.7177ZM61.6906 6.86078H64.1043V20.3457C64.1043 21.6423 63.845 22.3006 63.0271 22.6796C62.2292 23.0586 61.0523 23.1384 59.4165 23.1384C59.3168 22.4602 58.9178 21.383 58.5588 20.7047C59.6958 20.7646 60.8528 20.7646 61.2119 20.7446C61.5709 20.7446 61.6906 20.6449 61.6906 20.3058V6.86078ZM65.78 4.52686L67.3958 6.56156C64.8025 7.35948 61.3914 7.89808 58.4989 8.21725C58.3793 7.6587 58.08 6.76104 57.8008 6.22244C60.6134 5.84343 63.7253 5.22504 65.78 4.52686ZM67.7349 4.56675H70.2483C70.1087 12.6058 71.904 20.7845 73.7193 20.7845C74.1382 20.7845 74.3576 19.8071 74.4773 17.4332C74.976 17.9918 75.7939 18.5503 76.4322 18.8097C76.0532 22.3405 75.2952 23.2182 73.4799 23.2182C69.3507 23.2182 67.7947 13.5234 67.7349 4.56675ZM73.1608 13.0048L75.2753 13.9024C73.2007 17.6128 69.9491 20.585 66.3385 22.5001C65.9795 21.9016 65.3212 21.1037 64.7227 20.5651C68.1338 19.0091 71.3854 16.2962 73.1608 13.0048Z" fill="white"/>
<path d="M44.4194 6.4816H53.9945V15.4383H44.4194V13.3836H51.6605V8.53625H44.4194V6.4816ZM44.6189 9.95256H52.3388V11.9474H44.6189V9.95256ZM49.4862 14.6204C50.3839 17.6924 52.3388 19.9864 55.6502 20.904C55.1116 21.3828 54.4533 22.3204 54.1341 22.9786C50.4637 21.702 48.5088 18.9691 47.3518 15.0393L49.4862 14.6204ZM53.2963 15.5779L54.8123 17.1538C53.775 17.9916 52.3587 18.8494 51.3214 19.388L50.0049 17.8919C51.0023 17.3533 52.4585 16.3359 53.2963 15.5779ZM46.7334 4.74612L48.9676 4.20752C49.4064 5.04534 49.8852 6.20232 50.0647 6.9404L47.7108 7.55879C47.5712 6.82071 47.1523 5.62383 46.7334 4.74612ZM43.1028 23.238L42.8435 21.1634L43.7611 20.4053L48.5088 19.0489C48.5686 19.7072 48.7282 20.6248 48.8678 21.1434C44.3995 22.5597 43.6215 22.8789 43.1028 23.238ZM43.1028 23.238C42.9033 22.7393 42.2451 21.8416 41.8661 21.4825C42.285 21.1235 42.8036 20.4253 42.8036 19.368V6.4816H45.1974V20.6647C45.1974 20.6647 43.1028 22.3403 43.1028 23.238ZM37.7966 6.46165L39.4124 5.00544C40.3899 5.70362 41.7264 6.76087 42.3648 7.49895L40.6492 9.11474C40.0707 8.35671 38.814 7.23962 37.7966 6.46165ZM36.7793 11.708L38.1956 10.0722C39.3127 10.6707 40.8288 11.5883 41.6067 12.2865L40.0907 14.1018C39.4124 13.4036 37.9163 12.3663 36.7793 11.708ZM37.2182 21.2232C38.0759 19.6872 39.2529 17.1937 40.1505 14.8797L42.1054 16.2761C41.3075 18.3906 40.3301 20.6447 39.3925 22.5996L37.2182 21.2232Z" fill="white"/>
<path fill-rule="evenodd" clip-rule="evenodd" d="M14.2656 0.200031C14.5615 -0.0666768 15.0108 -0.0666768 15.3068 0.200031L26.1883 10.006C26.1975 10.0139 26.2064 10.022 26.2152 10.0303L29.3146 12.8234C29.6341 13.1113 29.66 13.604 29.3725 13.9239C29.085 14.2437 28.5929 14.2697 28.2734 13.9818L26.4597 12.3473V20.4156C26.4597 21.3943 26.0275 22.314 25.2904 22.9783C24.5559 23.6402 23.5757 24 22.5686 24H7.00434C5.99727 24 5.0171 23.6402 4.28262 22.9783C3.54543 22.314 3.11326 21.3943 3.11326 20.4156V12.3468L1.29891 13.9818C0.979446 14.2697 0.487391 14.2437 0.199871 13.9239C-0.0876465 13.604 -0.0617485 13.1113 0.257717 12.8234L14.2656 0.200031ZM4.66969 10.9442L14.7862 1.82756L24.9033 10.9447V20.4156C24.9033 20.9248 24.6795 21.4321 24.2492 21.82C23.8161 22.2102 23.2127 22.4416 22.5686 22.4416H18.5132C18.5203 22.4031 18.5259 22.3654 18.5307 22.3291C18.5707 22.0146 18.6152 21.7001 18.6598 21.3856L18.6598 21.3854C18.772 20.6028 18.8858 19.7989 18.9381 18.998C18.9627 18.6181 19.0057 18.6029 19.3301 18.6014C20.0665 18.5968 20.7782 18.4524 21.467 18.3111L21.5254 18.299C22.294 18.1424 22.8183 17.6653 23.0842 16.8796C23.3359 16.1378 23.3946 15.3809 23.4513 14.6481L23.4516 14.6442C23.4563 14.5865 23.4607 14.5301 23.465 14.4745C23.4749 14.3471 23.4844 14.2244 23.4962 14.1016C23.573 13.2822 22.8573 13.1674 22.6195 13.1292L22.6184 13.1291C22.2127 13.0654 21.808 12.9964 21.4035 12.9274C21.3252 12.9141 21.247 12.9007 21.1687 12.8874L21.1487 12.8844C20.6568 12.8008 20.1649 12.7172 19.6714 12.6382C19.2086 12.5637 18.9934 12.4391 18.8505 12.161C18.7275 11.9209 18.5676 11.7142 18.4123 11.5136L18.3991 11.4967C18.3332 11.4117 18.27 11.3303 18.2109 11.2462C17.5237 10.2751 16.5844 9.79186 15.4161 9.81921C14.9795 9.82833 14.5244 9.82681 14.1232 9.82529H14.0648H13.4283C12.0017 9.82985 11.1869 10.3967 10.7042 11.7173C10.5689 12.0881 10.4598 12.468 10.346 12.8692C10.0386 12.5075 9.75261 12.1717 9.46513 11.8373C9.19456 11.5228 8.91939 11.3921 8.64882 11.4483C8.37518 11.506 8.18455 11.7264 8.06464 12.123C7.12279 15.2527 6.14575 18.5882 5.46796 21.9393C5.41808 21.9014 5.36998 21.8616 5.32381 21.82C4.89345 21.4321 4.66969 20.9248 4.66969 20.4156V10.9442ZM6.78484 22.4326C6.78855 22.4052 6.79175 22.3787 6.79481 22.3534C6.79587 22.3453 6.79688 22.3374 6.79787 22.3297C6.80264 22.2924 6.80689 22.259 6.81326 22.2288C7.41435 19.2685 8.24758 16.3857 9.06236 13.5941C9.96783 14.8888 11.3929 15.1578 12.6935 15.2399C12.941 15.2551 13.0609 15.4496 13.2515 15.79L13.3638 15.9891L13.3639 15.9894C13.7052 16.5926 14.0911 17.2748 14.9457 17.5482C14.9595 17.5528 14.9703 17.5574 14.9764 17.5604C14.978 17.5786 14.978 17.6227 14.958 17.7078C14.8058 18.3628 14.4384 18.6895 13.765 18.7655C13.1209 18.8384 12.5567 18.881 12.0401 18.8962C11.4421 18.9129 11.13 19.1986 11.0885 19.77C11.0501 20.2928 10.9948 20.8216 10.9394 21.3337C10.9041 21.665 10.8687 21.9978 10.838 22.3291L10.8303 22.399C10.8287 22.4127 10.8271 22.4269 10.8255 22.4416H7.00434C6.93057 22.4416 6.85734 22.4385 6.78484 22.4326ZM12.2227 22.4416C12.2233 22.438 12.2239 22.4344 12.2246 22.4309V22.4127L12.2296 22.3683C12.3034 21.7181 12.3794 21.048 12.4275 20.3794C12.4337 20.314 12.4398 20.2806 12.4445 20.2639C12.4614 20.2608 12.4936 20.2563 12.5551 20.2563H12.5736C12.8355 20.2563 13.0906 20.2267 13.3389 20.1978C13.3544 20.196 13.3698 20.1943 13.3853 20.1925C13.5759 20.1697 13.7696 20.1469 13.9541 20.1378C14.9303 20.0906 15.6528 19.58 16.1017 18.6166C16.7228 17.2838 16.5768 16.8522 15.2823 16.1821C14.9457 16.0088 14.7842 15.6988 14.6474 15.3979C14.177 14.3585 13.3438 13.8114 12.0986 13.7248C12.0874 13.7239 12.0756 13.723 12.0632 13.7221C11.9227 13.7114 11.7133 13.6954 11.5974 13.6731C11.6158 13.55 11.6743 13.3266 11.725 13.1397L11.7542 13.0318C11.7972 12.8692 11.8387 12.7157 11.8833 12.5637C12.2215 11.4103 12.4921 11.2067 13.6866 11.2036H13.8403C14.0648 11.2021 14.2708 11.2006 14.4599 11.1991H14.5045L14.5146 11.199C15.5117 11.1914 16.0139 11.1876 16.3954 11.4027C16.7851 11.6233 17.1247 12.1053 17.7979 13.0607L17.8097 13.0774L17.9142 13.2248C18.2032 13.6351 18.5491 13.8479 19.038 13.9132C19.5361 13.9816 20.0434 14.0728 20.5338 14.1624C20.9351 14.2369 21.344 14.3098 21.7498 14.3721C22.088 14.4238 22.088 14.4299 22.0558 14.711L22.0538 14.7281C21.9275 15.8494 21.8578 16.4676 21.6222 16.7443C21.4009 17.0042 20.9351 17.0544 20.0081 17.1531C19.8559 17.1683 19.6929 17.1866 19.5176 17.2063L19.3608 17.2246C17.8481 17.3932 17.7128 17.533 17.5499 19.1029C17.4635 19.9303 17.3441 20.7606 17.2288 21.5633L17.224 21.5966L17.1517 22.1042L17.1513 22.1074C17.141 22.1811 17.1237 22.3052 17.1319 22.4416H12.2227Z" fill="white"/>
</svg>
