<svg width="346" height="88" viewBox="0 0 346 88" fill="none" xmlns="http://www.w3.org/2000/svg">
<g clip-path="url(#clip0_2071_29282)">
<path d="M68.8582 60.332C68.8582 60.332 71.4855 57.8816 71.1004 57.2885C70.6224 56.5537 67.4629 58.6067 67.4629 58.6067L68.8582 60.332Z" fill="#7A796E"/>
<path d="M61.5995 53.1392C61.5995 53.1392 62.9812 49.8246 62.3845 49.4433C61.6459 48.9706 59.6152 52.1416 59.6152 52.1416L61.5988 53.1392H61.5995Z" fill="#7A796E"/>
<path d="M39.6852 60.8163C39.6852 60.8163 36.9598 58.4741 37.3211 57.8661C37.7687 57.112 41.0089 59.0363 41.0089 59.0363L39.6852 60.8163Z" fill="#7A796E"/>
<path d="M46.6434 53.3365C46.6434 53.3365 45.1281 50.0811 45.7087 49.6754C46.4279 49.1731 48.585 52.2597 48.585 52.2597L46.6434 53.3365Z" fill="#7A796E"/>
<path d="M69.6916 60.7063C68.0667 55.157 62.9635 57.4831 62.9635 57.4831C62.9635 57.4831 64.2246 52.147 60.1962 51.3671C56.9592 50.7405 54.657 53.0054 54.2312 53.7274C53.8377 53.0705 50.9981 50.678 47.7876 51.8302C43.8527 53.2418 45.5834 57.6976 45.5834 57.6976C45.5834 57.6976 40.4055 55.5434 38.967 61.1436C37.8129 65.638 44.4326 66.1693 44.7203 68.1798C45.008 70.1904 42.5626 96.4679 42.5626 96.4679L67.281 96.1311C67.281 96.1311 63.9569 69.9495 64.1776 67.9306C64.3975 65.9117 70.9966 65.1595 69.6923 60.7063H69.6916Z" fill="#F28840"/>
<path d="M54.444 60.1499C50.8006 60.1499 47.445 62.9255 49.3621 64.8401C51.2799 66.7547 52.4107 64.2657 54.5395 64.2657C56.5527 64.2657 57.6074 66.2756 59.3336 65.1273C61.0598 63.9791 58.5666 60.1499 54.444 60.1499Z" fill="#874538"/>
<path d="M43.3625 60.1723C42.3839 59.5657 41.4995 59.7009 41.0989 60.3997C40.6061 61.2581 41.335 62.0683 42.2903 62.5835C43.2457 63.0986 44.1888 63.004 44.5184 62.407C44.8487 61.81 44.341 60.7796 43.3625 60.1723Z" fill="#874538"/>
<path d="M50.7844 57.1372C51.3295 56.7263 51.2875 55.5787 50.6425 54.6263C49.9968 53.6732 49.1343 53.4375 48.4828 53.9114C47.6822 54.4949 48.0164 55.5311 48.6776 56.3908C49.3388 57.2506 50.2387 57.5481 50.7844 57.1372Z" fill="#874538"/>
<path d="M67.0538 60.1651C66.5855 59.5101 65.692 59.4631 64.7786 60.1644C63.8652 60.8657 63.4633 61.9412 63.8517 62.5028C64.2393 63.0643 65.1876 63.0643 66.0862 62.457C66.9848 61.8491 67.6292 60.9707 67.0531 60.1651H67.0538Z" fill="#874538"/>
<path d="M59.3583 53.7504C58.6629 53.3434 57.8282 53.6641 57.2812 54.6764C56.7341 55.6888 56.807 56.8345 57.3908 57.1893C57.9746 57.5435 58.8403 57.1577 59.4125 56.2368C59.9846 55.3159 60.2136 54.2514 59.3589 53.7504H59.3583Z" fill="#874538"/>
<g opacity="0.3">
<path d="M46.5157 69.7994C46.4764 70.4762 46.439 71.1537 46.388 71.8299C46.3493 72.349 46.3409 72.9453 46.181 73.4367C46.0926 73.7078 46.2758 74.0233 46.4867 74.0948C46.7357 74.1785 46.937 73.9918 47.0254 73.7213C47.2034 73.1726 47.2105 72.5035 47.2563 71.9233C47.3124 71.2168 47.3498 70.5084 47.3911 69.8C47.4311 69.1116 46.5557 69.1161 46.5157 69.8V69.7994Z" fill="#874538"/>
</g>
<g opacity="0.3">
<path d="M48.327 72.7232C48.3986 73.3775 48.4715 74.0312 48.527 74.6881C48.5689 75.1788 48.636 75.9181 48.576 76.289C48.467 76.9626 49.3107 77.2499 49.4197 76.5737C49.5139 75.9889 49.4565 75.3746 49.4101 74.7872C49.3559 74.0969 49.2772 73.4104 49.2017 72.7232C49.1701 72.4341 49.0263 72.1887 48.7644 72.1887C48.5495 72.1887 48.2947 72.4341 48.327 72.7232Z" fill="#874538"/>
</g>
<g opacity="0.3">
<path d="M51.3162 71.0108C51.3981 71.4397 51.5174 71.8583 51.6284 72.2775C51.6871 72.4997 51.7452 72.7225 51.7993 72.9473C51.8213 73.0387 51.8413 73.1302 51.8606 73.2229C51.8684 73.2609 51.8755 73.2989 51.8819 73.3375C51.9097 73.4972 51.88 73.2435 51.8845 73.3652C51.9084 74.0524 52.7837 74.0549 52.7599 73.3652C52.7457 72.9582 52.6192 72.5538 52.5192 72.17C52.3947 71.6921 52.2535 71.2169 52.1606 70.7274C52.0329 70.0557 51.1891 70.3404 51.3168 71.0121L51.3162 71.0108Z" fill="#874538"/>
</g>
<g opacity="0.3">
<path d="M56.2626 70.0131C56.2123 71.4898 56.3742 72.9588 56.3794 74.4342C56.3819 75.1239 57.2573 75.1239 57.2547 74.4342C57.2496 72.9588 57.0877 71.4898 57.138 70.0131C57.1618 69.3234 56.2865 69.326 56.2626 70.0131Z" fill="#874538"/>
</g>
<g opacity="0.3">
<path d="M54.3343 76.0749C54.393 77.097 54.3324 78.1357 54.5252 79.141C54.6536 79.8127 55.498 79.5274 55.369 78.8563C55.1955 77.9496 55.2626 76.9978 55.2097 76.0749C55.1703 75.391 54.2949 75.3865 54.3343 76.0749Z" fill="#874538"/>
</g>
<g opacity="0.3">
<path d="M58.5397 77.4138C58.7642 78.0598 58.8158 78.8042 58.7719 79.4972C58.7281 80.1856 59.6041 80.1804 59.6473 79.4972C59.7041 78.6014 59.5828 77.6998 59.2957 76.8742C59.2022 76.6056 58.8829 76.549 58.6971 76.6823C58.472 76.8433 58.4468 77.1459 58.5404 77.4138H58.5397Z" fill="#874538"/>
</g>
<g opacity="0.3">
<path d="M59.9532 70.2978C60.0855 71.2097 60.617 71.9986 60.6376 72.9369C60.6531 73.6254 61.5285 73.6273 61.513 72.9369C61.4898 71.8743 60.9453 71.0339 60.797 70.0138C60.6983 69.3357 59.8552 69.6236 59.9532 70.2985V70.2978Z" fill="#874538"/>
</g>
<g opacity="0.3">
<path d="M62.3462 78.7124C62.6448 79.9939 62.6997 81.3347 62.9299 82.6343C63.0493 83.3086 63.893 83.0226 63.7737 82.3496C63.5441 81.0501 63.4892 79.7093 63.1899 78.4277C63.0351 77.7657 62.1907 78.0471 62.3462 78.7117V78.7124Z" fill="#874538"/>
</g>
<g opacity="0.3">
<path d="M58.3628 84.2036C58.4247 85.2256 58.5324 86.2438 58.5376 87.2696C58.5408 87.9594 59.4162 87.9594 59.413 87.2696C59.4078 86.2438 59.3001 85.225 59.2381 84.2036C59.1969 83.5203 58.3209 83.5152 58.3628 84.2036Z" fill="#874538"/>
</g>
<g opacity="0.3">
<path d="M50.9517 78.1423C50.895 79.0446 50.8375 79.9461 50.835 80.8522C50.833 81.542 51.7084 81.542 51.7103 80.8522C51.7129 79.9468 51.7703 79.0452 51.8271 78.1423C51.8703 77.4539 50.9949 77.459 50.9517 78.1423Z" fill="#874538"/>
</g>
<g opacity="0.3">
<path d="M45.8903 76.7883C45.7639 77.7291 45.4917 78.6288 45.3652 79.569C45.2743 80.2433 46.118 80.5324 46.209 79.853C46.3354 78.9121 46.6076 78.0125 46.7341 77.0723C46.825 76.398 45.9813 76.1088 45.8903 76.7876V76.7883Z" fill="#874538"/>
</g>
<g opacity="0.3">
<path d="M47.6835 81.2085C47.7428 82.3039 47.8009 83.4 47.917 84.4883C47.9479 84.7775 48.0924 85.0228 48.3543 85.0228C48.5698 85.0228 48.8226 84.7781 48.7917 84.4883C48.6756 83.3993 48.6182 82.3033 48.5582 81.2085C48.5208 80.5239 47.6454 80.5194 47.6828 81.2085H47.6835Z" fill="#874538"/>
</g>
<g opacity="0.3">
<path d="M45.9905 87.3413C46.0421 88.6389 45.9118 89.9301 46.2395 91.1917C46.4098 91.8467 47.2549 91.5665 47.0833 90.9071C46.7801 89.7414 46.913 88.5417 46.8652 87.3413C46.8381 86.6548 45.9628 86.6516 45.9899 87.3413H45.9905Z" fill="#874538"/>
</g>
<g opacity="0.3">
<path d="M50.3679 85.4873C50.3782 86.6155 50.6027 87.7084 50.9084 88.7671C51.0949 89.413 51.9405 89.1348 51.7522 88.4825C51.4722 87.5126 51.2523 86.5215 51.2426 85.4873C51.2361 84.7982 50.3608 84.7969 50.3672 85.4873H50.3679Z" fill="#874538"/>
</g>
<g opacity="0.3">
<path d="M53.7101 82.1355C53.8804 83.1955 53.9836 84.2678 54.0449 85.3452C54.0836 86.0291 54.959 86.0342 54.9203 85.3452C54.8545 84.1737 54.7397 83.0043 54.5545 81.8515C54.4455 81.1753 53.6024 81.4625 53.7108 82.1361L53.7101 82.1355Z" fill="#874538"/>
</g>
<g opacity="0.3">
<path d="M56.22 87.1982C56.4883 88.1468 56.5012 89.3923 56.22 90.3364C56.0264 90.9862 56.8728 91.2637 57.0637 90.621C57.3921 89.5185 57.3766 88.0206 57.0637 86.9136C56.8805 86.2657 56.0348 86.5439 56.22 87.1982Z" fill="#874538"/>
</g>
<g opacity="0.3">
<path d="M60.9401 88.9322C60.9788 88.9831 60.8898 88.8292 60.9491 88.9606C60.9691 89.0121 60.9691 89.0082 60.9491 88.949C60.9646 88.994 60.9775 89.041 60.9904 89.0881C61.0381 89.2613 61.0697 89.441 61.0988 89.62C61.171 90.0566 61.2058 90.5016 61.2329 90.9453C61.2613 91.4142 61.2729 91.8849 61.2633 92.355C61.2562 92.7144 61.2671 92.896 61.1775 93.1903C60.9807 93.8382 61.8264 94.1151 62.0212 93.4743C62.1264 93.1278 62.1289 92.7202 62.138 92.355C62.1515 91.8302 62.1309 91.304 62.0973 90.7811C62.0631 90.253 62.0096 89.723 61.9199 89.2046C61.8574 88.8433 61.7677 88.4544 61.5587 88.1768C61.1762 87.6681 60.5588 88.426 60.9401 88.9329V88.9322Z" fill="#874538"/>
</g>
<g opacity="0.3">
<path d="M61.2336 84.011C61.5774 84.3871 61.7052 84.9899 61.9238 85.4716C62.1973 86.075 62.9534 85.536 62.6799 84.9319C62.4212 84.3607 62.2625 83.7032 61.8529 83.255C61.4336 82.7964 60.813 83.5499 61.2343 84.011H61.2336Z" fill="#874538"/>
</g>
<g opacity="0.3">
<path d="M62.4463 72.3662C62.4554 73.2253 62.6095 74.0727 62.5631 74.9331C62.5257 75.6222 63.401 75.6177 63.4384 74.9331C63.4849 74.0721 63.3307 73.2253 63.3217 72.3662C63.3146 71.6771 62.4392 71.6758 62.4463 72.3662Z" fill="#874538"/>
</g>
<g opacity="0.5">
<path d="M51.9344 61.3901C50.2146 62.1384 49.5057 63.3864 50.0772 63.957C50.6565 64.5353 51.5332 62.7837 52.6485 62.5306C53.6961 62.2929 55.3913 62.1873 55.5055 61.6747C55.6958 60.8188 53.7916 60.5812 51.9344 61.3894V61.3901Z" fill="#F28840"/>
<path d="M41.3354 60.9049C41.0432 61.2456 41.4948 61.7099 41.8186 61.9945C42.0882 62.2315 42.5088 62.5342 42.7494 62.2991C42.99 62.0641 42.5933 61.6893 42.3869 61.4111C42.1805 61.1329 41.5741 60.6267 41.3354 60.9049Z" fill="#F28840"/>
<path d="M48.6986 54.3092C48.2774 54.4644 48.4458 55.0897 48.5896 55.4954C48.7096 55.8335 48.9296 56.3024 49.2547 56.2141C49.5798 56.1259 49.4153 55.6056 49.3701 55.2623C49.325 54.9191 49.0425 54.1823 48.698 54.3092H48.6986Z" fill="#F28840"/>
<path d="M58.8638 54.0748C58.5045 53.8056 58.0697 54.286 57.8065 54.6273C57.5872 54.9113 57.3117 55.3505 57.5627 55.5747C57.8136 55.7994 58.1619 55.3789 58.4264 55.1554C58.6909 54.9319 59.1573 54.2944 58.8638 54.0748Z" fill="#F28840"/>
<path d="M66.5079 60.2485C66.2453 59.8846 65.6867 60.2137 65.3338 60.461C65.0397 60.6671 64.6462 61.0039 64.8184 61.293C64.9907 61.5822 65.4487 61.2847 65.768 61.1501C66.0873 61.0155 66.7227 60.546 66.5079 60.2485Z" fill="#F28840"/>
</g>
</g>
<g clip-path="url(#clip1_2071_29282)">
<path d="M117.049 41.4195C116.853 38.1041 115.985 31.7633 113.396 30.9826C110.833 30.2094 109.663 31.9316 109.663 31.9316C109.663 31.9316 109.027 26.5546 105.691 25.7636C101.567 24.7866 100.309 28.3731 100.309 28.3731C100.309 28.3731 99.0507 24.7866 94.9276 25.7636C91.5916 26.5546 90.9558 31.9316 90.9558 31.9316C90.9558 31.9316 89.7855 30.2094 87.2225 30.9826C84.6331 31.7642 83.7653 38.1041 83.569 41.4195C83.352 45.0724 82.7744 89.3276 82.7744 89.3276H118.74C118.74 89.3276 117.266 45.0724 117.05 41.4186L117.049 41.4195Z" fill="#2D2B2C"/>
<path d="M100.898 39.1184C95.5935 39.1184 90.7078 43.1481 93.4991 45.9277C96.2913 48.7073 97.9378 45.0937 101.037 45.0937C103.968 45.0937 105.504 48.0117 108.017 46.3447C110.53 44.6767 106.901 39.1184 100.898 39.1184Z" fill="#AAA897"/>
<path d="M87.9442 33.3243C86.5073 33.4524 86.1457 34.9923 86.326 36.5555C86.5054 38.1188 87.4051 39.1613 88.3941 39.0566C89.3831 38.9528 90.1927 37.4933 90.1025 35.8253C90.0124 34.1574 89.1135 33.2196 87.9442 33.3243Z" fill="#AAA897"/>
<path d="M96.2473 33.6723C97.2363 33.5685 98.0458 32.109 97.9557 30.4411C97.8655 28.7731 96.9667 27.8353 95.7974 27.9401C94.3595 28.0681 93.9988 29.608 94.1782 31.1713C94.3576 32.7345 95.2574 33.777 96.2463 33.6723H96.2473Z" fill="#AAA897"/>
<path d="M104.936 33.6723C105.925 33.5685 106.735 32.109 106.645 30.4411C106.554 28.7731 105.656 27.8353 104.486 27.9401C103.049 28.0681 102.688 29.608 102.868 31.1713C103.047 32.7345 103.947 33.777 104.936 33.6723Z" fill="#AAA897"/>
<path d="M114.077 35.8266C113.987 34.1586 113.088 33.2208 111.919 33.3256C110.481 33.4536 110.12 34.9935 110.299 36.5568C110.479 38.12 111.378 39.1625 112.367 39.0578C113.356 38.954 114.166 37.4945 114.076 35.8266H114.077Z" fill="#AAA897"/>
<g opacity="0.3">
<path d="M86.3496 50.3177C86.2792 51.3004 86.2125 52.284 86.1223 53.2657C86.0528 54.0192 86.0388 54.885 85.7542 55.5984C85.5973 55.992 85.9232 56.4501 86.2989 56.5539C86.7432 56.6755 87.1019 56.4043 87.2578 56.0116C87.5753 55.215 87.5875 54.2436 87.6692 53.4012C87.7688 52.3756 87.8364 51.3471 87.9096 50.3187C87.981 49.3192 86.4201 49.3258 86.3496 50.3187V50.3177Z" fill="#AAA897"/>
</g>
<g opacity="0.3">
<path d="M89.5753 54.5615C89.703 55.5114 89.8326 56.4604 89.9322 57.414C90.0064 58.1264 90.1256 59.1998 90.0195 59.7383C89.826 60.7163 91.3287 61.1333 91.5241 60.1516C91.6922 59.3026 91.5889 58.4116 91.5072 57.5589C91.4105 56.5567 91.2696 55.56 91.1362 54.5624C91.0799 54.1426 90.8244 53.7864 90.3557 53.7864C89.9735 53.7864 89.5189 54.1426 89.5762 54.5624L89.5753 54.5615Z" fill="#AAA897"/>
</g>
<g opacity="0.3">
<path d="M94.908 52.0769C95.0536 52.6996 95.2668 53.3073 95.464 53.916C95.5692 54.2385 95.6725 54.562 95.7683 54.8883C95.8078 55.0211 95.8435 55.1539 95.8773 55.2885C95.8904 55.3437 95.9036 55.3988 95.9149 55.4549C95.9646 55.6868 95.912 55.3184 95.9195 55.4951C95.9618 56.4927 97.5218 56.4965 97.4796 55.4951C97.4542 54.9042 97.2288 54.3171 97.0503 53.7598C96.8287 53.0661 96.577 52.3761 96.4117 51.6655C96.1844 50.6904 94.6798 51.1036 94.9071 52.0788L94.908 52.0769Z" fill="#AAA897"/>
</g>
<g opacity="0.3">
<path d="M103.719 50.6288C103.628 52.7726 103.917 54.9052 103.926 57.0472C103.931 58.0486 105.491 58.0486 105.486 57.0472C105.477 54.9052 105.188 52.7726 105.279 50.6288C105.321 49.6274 103.761 49.6312 103.719 50.6288Z" fill="#AAA897"/>
</g>
<g opacity="0.3">
<path d="M100.287 59.4276C100.393 60.9113 100.285 62.4194 100.627 63.8789C100.857 64.8541 102.36 64.4399 102.132 63.4656C101.823 62.1492 101.942 60.7674 101.847 59.4276C101.777 58.4346 100.217 58.4281 100.287 59.4276Z" fill="#AAA897"/>
</g>
<g opacity="0.3">
<path d="M107.778 61.3731C108.178 62.3108 108.269 63.3926 108.191 64.3977C108.113 65.3971 109.674 65.3897 109.751 64.3977C109.853 63.0971 109.637 61.7882 109.125 60.5896C108.959 60.1997 108.39 60.1174 108.058 60.311C107.657 60.5447 107.612 60.9841 107.778 61.3731Z" fill="#AAA897"/>
</g>
<g opacity="0.3">
<path d="M110.299 51.0417C110.535 52.3656 111.483 53.511 111.519 54.8732C111.546 55.8727 113.106 55.8755 113.079 54.8732C113.037 53.3305 112.067 52.1104 111.804 50.6294C111.628 49.6449 110.125 50.0628 110.299 51.0427V51.0417Z" fill="#AAA897"/>
</g>
<g opacity="0.3">
<path d="M114.563 63.258C115.095 65.1186 115.193 67.0652 115.603 68.9519C115.815 69.9308 117.319 69.5157 117.107 68.5387C116.698 66.6519 116.6 64.7054 116.068 62.8448C115.792 61.8837 114.287 62.2922 114.563 63.258Z" fill="#AAA897"/>
</g>
<g opacity="0.3">
<path d="M107.464 71.2302C107.574 72.714 107.766 74.1921 107.775 75.6815C107.782 76.6829 109.341 76.6829 109.335 75.6815C109.326 74.1921 109.134 72.714 109.024 71.2302C108.949 70.2382 107.389 70.2307 107.464 71.2302Z" fill="#AAA897"/>
</g>
<g opacity="0.3">
<path d="M94.2535 62.4304C94.152 63.7403 94.0506 65.0501 94.0459 66.3647C94.0421 67.366 95.6022 67.366 95.6059 66.3647C95.6106 65.0501 95.712 63.7412 95.8135 62.4304C95.8905 61.4309 94.3305 61.4384 94.2535 62.4304Z" fill="#AAA897"/>
</g>
<g opacity="0.3">
<path d="M85.2356 60.4635C85.0102 61.8295 84.5256 63.1357 84.2992 64.5007C84.1377 65.4796 85.6404 65.8994 85.8038 64.9139C86.0292 63.548 86.5139 62.2418 86.7402 60.8768C86.9018 59.8979 85.399 59.4781 85.2356 60.4635Z" fill="#AAA897"/>
</g>
<g opacity="0.3">
<path d="M88.4317 66.8821C88.5379 68.4725 88.6402 70.0629 88.8478 71.6448C88.9032 72.0646 89.1605 72.4208 89.6273 72.4208C90.0105 72.4208 90.4623 72.0655 90.4069 71.6448C90.2002 70.0638 90.0969 68.4725 89.9908 66.8821C89.9241 65.8883 88.3641 65.8817 88.4308 66.8821H88.4317Z" fill="#AAA897"/>
</g>
<g opacity="0.3">
<path d="M85.4152 75.7854C85.5063 77.6693 85.2753 79.5439 85.8595 81.3755C86.1628 82.3263 87.6693 81.9196 87.3641 80.9622C86.824 79.27 87.0607 77.5281 86.9762 75.7854C86.9273 74.7887 85.3673 74.784 85.4162 75.7854H85.4152Z" fill="#AAA897"/>
</g>
<g opacity="0.3">
<path d="M93.2169 73.0938C93.2347 74.7318 93.6357 76.3194 94.1805 77.8555C94.513 78.7933 96.0204 78.3894 95.6851 77.4423C95.1854 76.0342 94.7938 74.5953 94.7769 73.0938C94.7656 72.0934 93.2056 72.0915 93.2169 73.0938Z" fill="#AAA897"/>
</g>
<g opacity="0.3">
<path d="M99.1713 68.2275C99.4746 69.7665 99.6597 71.3232 99.7677 72.8873C99.8362 73.8803 101.397 73.8877 101.328 72.8873C101.21 71.1867 101.006 69.4888 100.676 67.8152C100.482 66.8335 98.9787 67.2496 99.1713 68.2285V68.2275Z" fill="#AAA897"/>
</g>
<g opacity="0.3">
<path d="M103.642 75.5776C104.12 76.9548 104.143 78.763 103.642 80.1337C103.297 81.077 104.804 81.48 105.146 80.546C105.731 78.9453 105.704 76.7706 105.146 75.1644C104.82 74.2238 103.313 74.6277 103.642 75.5776Z" fill="#AAA897"/>
</g>
<g opacity="0.3">
<path d="M98.2069 79.9263C98.2144 81.2399 98.4126 82.6059 97.9223 83.8606C97.7683 84.2551 98.0886 84.7123 98.4671 84.8161C98.9085 84.9367 99.2729 84.6675 99.426 84.2738C99.967 82.8892 99.7744 81.3755 99.766 79.9263C99.7603 78.925 98.2003 78.925 98.206 79.9263H98.2069Z" fill="#AAA897"/>
</g>
<g opacity="0.3">
<path d="M91.0315 81.9967C91.1508 83.1533 91.5124 84.263 91.6551 85.413C91.7077 85.8328 91.9707 86.19 92.4356 86.19C92.8207 86.19 93.2677 85.8347 93.2151 85.413C93.0724 84.263 92.7098 83.1495 92.5915 81.9967C92.5483 81.576 92.2693 81.2207 91.812 81.2207C91.4194 81.2207 90.9883 81.5751 91.0324 81.9967H91.0315Z" fill="#AAA897"/>
</g>
<g opacity="0.3">
<path d="M85.1041 84.4812C85.1041 85.332 85.0534 86.2315 85.2356 87.0692C85.4488 88.0481 86.9525 87.633 86.7402 86.6559C86.7055 86.4961 86.6858 86.0678 86.6773 85.7883C86.6632 85.3526 86.6641 84.9169 86.6641 84.4812C86.6641 83.4799 85.1041 83.4799 85.1041 84.4812Z" fill="#AAA897"/>
</g>
<g opacity="0.3">
<path d="M105.594 82.9065C106.075 83.7115 106.266 84.6333 106.556 85.5159C106.866 86.464 108.372 86.0582 108.06 85.1027C107.73 84.092 107.493 83.0448 106.942 82.122C106.428 81.2628 105.079 82.0435 105.595 82.9055L105.594 82.9065Z" fill="#AAA897"/>
</g>
<g opacity="0.3">
<path d="M112.058 78.0938C112.127 78.1677 111.969 77.9442 112.074 78.1349C112.11 78.2097 112.11 78.2041 112.073 78.1181C112.102 78.1836 112.124 78.2518 112.147 78.3201C112.232 78.5716 112.288 78.8324 112.34 79.0923C112.469 79.7262 112.532 80.3723 112.58 81.0165C112.63 81.6971 112.651 82.3806 112.634 83.0631C112.622 83.5848 112.641 83.8485 112.482 84.2757C112.131 85.2163 113.639 85.6183 113.987 84.688C114.174 84.185 114.178 83.5932 114.195 83.0631C114.219 82.3011 114.183 81.5372 114.122 80.7781C114.061 80.0114 113.966 79.2419 113.805 78.4893C113.694 77.9648 113.534 77.4001 113.162 76.9971C112.48 76.2585 111.379 77.3589 112.059 78.0947L112.058 78.0938Z" fill="#AAA897"/>
</g>
<g opacity="0.3">
<path d="M115.916 84.0665C116.013 84.6509 116.09 85.2343 116.096 85.8271C116.108 86.8275 117.668 86.8293 117.656 85.8271C117.648 85.0978 117.539 84.3723 117.421 83.6533C117.351 83.2354 116.838 83.0082 116.461 83.111C116.018 83.2316 115.847 83.6486 115.916 84.0665Z" fill="#AAA897"/>
</g>
<g opacity="0.3">
<path d="M112.578 70.9508C113.19 71.4968 113.418 72.371 113.808 73.0712C114.296 73.9473 115.642 73.1638 115.155 72.2877C114.694 71.4584 114.411 70.5038 113.681 69.8531C112.935 69.1874 111.827 70.2813 112.579 70.9508H112.578Z" fill="#AAA897"/>
</g>
<g opacity="0.3">
<path d="M114.742 54.0452C114.758 55.2924 115.033 56.5228 114.95 57.7719C114.883 58.7723 116.443 58.7658 116.51 57.7719C116.593 56.5228 116.317 55.2924 116.302 54.0452C116.29 53.0448 114.73 53.0429 114.742 54.0452Z" fill="#AAA897"/>
</g>
<g opacity="0.4">
<path d="M97.4265 40.8964C94.9226 41.9829 93.8904 43.7948 94.7225 44.6232C95.5659 45.4628 96.8423 42.9197 98.4662 42.5523C99.9914 42.2073 102.46 42.0539 102.626 41.3097C102.903 40.0671 100.13 39.7221 97.4256 40.8955L97.4265 40.8964Z" fill="white"/>
<path d="M87.9976 34.2022C87.3449 34.1666 87.2077 35.0969 87.1655 35.7205C87.1298 36.2404 87.1533 36.9911 87.6388 37.0603C88.1244 37.1295 88.2061 36.3413 88.3442 35.8589C88.4832 35.3755 88.5311 34.2311 87.9976 34.2022Z" fill="white"/>
<path d="M95.508 31.3662C95.9935 31.4354 96.0752 30.6472 96.2133 30.1648C96.3523 29.6814 96.4002 28.5371 95.8667 28.5081C95.214 28.4725 95.0769 29.4028 95.0346 30.0264C94.9989 30.5463 95.0224 31.297 95.508 31.3662Z" fill="white"/>
<path d="M104.602 28.6106C103.949 28.5751 103.812 29.5054 103.77 30.129C103.735 30.6488 103.757 31.3996 104.243 31.4688C104.729 31.538 104.81 30.7498 104.948 30.2664C105.087 29.783 105.135 28.6387 104.602 28.6097V28.6106Z" fill="white"/>
<path d="M112.264 34.0635C111.611 34.028 111.474 34.9582 111.432 35.5819C111.396 36.1017 111.42 36.8525 111.905 36.9217C112.391 36.9908 112.473 36.2027 112.611 35.7193C112.749 35.2359 112.798 34.0915 112.264 34.0626V34.0635Z" fill="white"/>
</g>
</g>
<g clip-path="url(#clip2_2071_29282)">
<path d="M226.06 30.95C225.804 26.6221 224.674 18.3448 221.302 17.3244C217.965 16.3151 216.441 18.5632 216.441 18.5632C216.441 18.5632 215.613 11.5442 211.269 10.5117C205.898 9.23628 204.261 13.9181 204.261 13.9181C204.261 13.9181 202.622 9.23628 197.252 10.5117C192.907 11.5442 192.079 18.5632 192.079 18.5632C192.079 18.5632 190.555 16.3151 187.218 17.3244C183.846 18.3448 182.716 26.6209 182.46 30.95C182.179 35.7184 181.427 93.489 181.427 93.489H228.261C228.261 93.489 226.342 35.7184 226.061 30.9487L226.06 30.95Z" fill="#F28840"/>
<g opacity="0.5">
<path d="M205.029 27.9465C198.121 27.9465 191.759 33.2068 195.394 36.8353C199.03 40.4639 201.174 35.7467 205.21 35.7467C209.027 35.7467 211.027 39.5558 214.299 37.3797C217.571 35.2023 212.845 27.9465 205.029 27.9465Z" fill="#874538"/>
<path d="M188.159 20.3832C186.286 20.5504 185.817 22.5605 186.05 24.6012C186.285 26.6418 187.456 28.0027 188.744 27.866C190.031 27.7305 191.086 25.8253 190.968 23.648C190.851 21.4706 189.68 20.2465 188.158 20.3832H188.159Z" fill="#874538"/>
<path d="M198.97 20.8374C200.258 20.7019 201.312 18.7967 201.195 16.6194C201.078 14.442 199.907 13.2179 198.384 13.3546C196.513 13.5218 196.042 15.5319 196.276 17.5726C196.511 19.6132 197.681 20.9741 198.969 20.8374H198.97Z" fill="#874538"/>
<path d="M210.286 20.8374C211.574 20.7019 212.628 18.7967 212.51 16.6194C212.393 14.442 211.223 13.2179 209.7 13.3546C207.829 13.5218 207.358 15.5319 207.591 17.5726C207.826 19.6132 208.997 20.9741 210.285 20.8374H210.286Z" fill="#874538"/>
<path d="M222.189 23.6492C222.072 21.4718 220.901 20.2477 219.379 20.3844C217.506 20.5516 217.037 22.5617 217.27 24.6024C217.505 26.643 218.675 28.0039 219.963 27.8672C221.251 27.7317 222.305 25.8265 222.188 23.6492H222.189Z" fill="#874538"/>
</g>
<g opacity="0.6">
<path d="M227.639 79.1948C220.354 79.312 211.839 80.7595 209.992 81.1745C202.138 82.9405 194.633 86.259 186.489 86.2492C185.013 86.2468 183.328 86.1894 181.582 86.0113C181.552 88.2057 181.525 90.1829 181.503 91.861C183.302 91.3912 185.132 90.9335 187.024 90.5881C194.851 89.1613 203.248 90.3025 211.21 90.3025C214.729 90.3025 218.248 90.3025 221.767 90.3025C223.483 90.3025 225.717 90.2378 228.001 89.9266C227.901 86.9217 227.776 83.231 227.639 79.1936V79.1948Z" fill="#B54F30"/>
<path d="M217.697 42.2519C210.429 41.8845 203.169 42.6241 195.969 43.4687C191.318 44.0143 186.761 45.2104 182.191 46.2307C182.138 49.1342 182.083 52.4295 182.026 55.9165C192.683 55.1463 203.58 56.2082 214.242 55.7127C215.761 55.6419 221.54 55.4417 226.794 54.613C226.651 50.5219 226.515 46.7384 226.4 43.5981C223.35 42.7865 220.189 42.3788 217.696 42.2519H217.697Z" fill="#B54F30"/>
<path d="M227.503 75.1733C227.407 72.3772 227.309 69.4797 227.209 66.5774C224.242 65.1409 220.619 65.5437 217.169 65.6938C205.762 66.1905 193.308 67.5514 181.868 66.0917C181.824 69.0367 181.781 71.9842 181.739 74.8304C184.639 74.8963 187.081 75.1001 187.903 75.1684C199.334 76.118 216.36 81.2477 227.501 75.1745L227.503 75.1733Z" fill="#B54F30"/>
</g>
<g opacity="0.2">
<path d="M200.454 30.5222C197.194 31.9404 195.849 34.3057 196.933 35.387C198.031 36.483 199.693 33.1633 201.808 32.6837C203.794 32.2333 207.008 32.0331 207.225 31.0616C207.586 29.4396 203.974 28.9893 200.454 30.521V30.5222Z" fill="white"/>
<path d="M188.176 21.7818C187.326 21.7354 187.147 22.9498 187.092 23.7639C187.047 24.4425 187.076 25.4225 187.709 25.5128C188.341 25.6032 188.447 24.5743 188.627 23.9445C188.807 23.3147 188.871 21.8196 188.176 21.7818Z" fill="white"/>
<path d="M197.956 18.0805C198.588 18.1708 198.694 17.1419 198.874 16.5109C199.055 15.8799 199.118 14.386 198.423 14.3482C197.573 14.3018 197.394 15.5162 197.339 16.3303C197.294 17.0089 197.323 17.9889 197.956 18.0792V18.0805Z" fill="white"/>
<path d="M209.799 14.4847C208.949 14.4383 208.771 15.6527 208.716 16.4668C208.669 17.1454 208.7 18.1254 209.332 18.2157C209.964 18.306 210.071 17.2772 210.251 16.6474C210.432 16.0164 210.494 14.5225 209.799 14.4847Z" fill="white"/>
<path d="M219.775 21.6029C218.925 21.5565 218.746 22.7709 218.691 23.5849C218.645 24.2635 218.675 25.2436 219.308 25.3339C219.94 25.4242 220.046 24.3953 220.226 23.7656C220.407 23.1346 220.47 21.6407 219.775 21.6029Z" fill="white"/>
</g>
</g>
<g clip-path="url(#clip3_2071_29282)">
<path d="M34.9369 52.154C34.7868 49.5815 34.1232 44.6614 32.1431 44.0549C30.1831 43.455 29.2882 44.7913 29.2882 44.7913C29.2882 44.7913 28.802 40.6191 26.2509 40.0054C23.0972 39.2473 22.1355 42.0302 22.1355 42.0302C22.1355 42.0302 21.1731 39.2473 18.0195 40.0054C15.4684 40.6191 14.9822 44.7913 14.9822 44.7913C14.9822 44.7913 14.0873 43.455 12.1273 44.0549C10.1472 44.6614 9.48356 49.5808 9.33345 52.154C9.16826 54.9884 8.72656 89.3275 8.72656 89.3275H36.2297C36.2297 89.3275 35.1028 54.9884 34.9376 52.1533L34.9369 52.154Z" fill="#AAA897"/>
<path d="M22.5873 50.3687C18.5308 50.3687 14.7947 53.4954 16.9292 55.6522C19.0645 57.809 20.3235 55.0051 22.6936 55.0051C24.9351 55.0051 26.1094 57.2693 28.0313 55.9758C29.9525 54.6815 27.1774 50.3687 22.5873 50.3687Z" fill="#FFC0C0"/>
<path d="M12.6808 45.8729C11.5813 45.9722 11.3055 47.1671 11.4427 48.3801C11.5798 49.593 12.2679 50.4019 13.0241 50.3207C13.7804 50.2401 14.3995 49.1077 14.3306 47.8135C14.2616 46.5192 13.5743 45.7916 12.6801 45.8729H12.6808Z" fill="#FFC0C0"/>
<path d="M19.0288 46.1425C19.785 46.0619 20.4041 44.9295 20.3352 43.6352C20.2662 42.341 19.5789 41.6134 18.6847 41.6946C17.5852 41.794 17.3094 42.9889 17.4466 44.2018C17.5845 45.4148 18.2718 46.2237 19.0281 46.1425H19.0288Z" fill="#FFC0C0"/>
<path d="M25.6753 46.1425C26.4315 46.0619 27.0506 44.9295 26.9817 43.6352C26.9127 42.341 26.2254 41.6134 25.3312 41.6946C24.2317 41.794 23.9559 42.9889 24.093 44.2018C24.2302 45.4148 24.9183 46.2237 25.6745 46.1425H25.6753Z" fill="#FFC0C0"/>
<path d="M32.6663 47.8142C32.5973 46.52 31.91 45.7923 31.0158 45.8736C29.9162 45.973 29.6404 47.1678 29.7776 48.3808C29.9155 49.5938 30.6028 50.4027 31.3591 50.3214C32.1154 50.2409 32.7345 49.1084 32.6655 47.8142H32.6663Z" fill="#FFC0C0"/>
</g>
<g clip-path="url(#clip4_2071_29282)">
<path d="M170.824 56.2025C170.824 56.2025 174.19 53.0776 173.697 52.3212C173.084 51.3841 169.036 54.0024 169.036 54.0024L170.824 56.2025Z" fill="#7A796E"/>
<path d="M161.525 47.0296C161.525 47.0296 163.295 42.8033 162.532 42.3163C161.585 41.7127 158.983 45.7574 158.983 45.7574L161.525 47.0296Z" fill="#7A796E"/>
<path d="M133.446 56.8199C133.446 56.8199 129.954 53.833 130.417 53.0577C130.991 52.096 135.142 54.5499 135.142 54.5499L133.446 56.8199Z" fill="#7A796E"/>
<path d="M142.363 47.2812C142.363 47.2812 140.422 43.1296 141.166 42.6122C142.087 41.9716 144.851 45.908 144.851 45.908L142.363 47.2812Z" fill="#7A796E"/>
<path d="M171.893 56.6797C169.811 49.6028 163.273 52.5684 163.273 52.5684C163.273 52.5684 164.888 45.7633 159.727 44.7688C155.58 43.9697 152.63 46.8581 152.085 47.7787C151.581 46.941 147.942 43.89 143.829 45.3593C138.787 47.1595 141.005 52.8419 141.005 52.8419C141.005 52.8419 134.37 50.0947 132.527 57.2365C131.049 62.9682 139.53 63.6457 139.899 66.2097C140.267 68.7737 137.134 102.285 137.134 102.285L168.805 101.855C168.805 101.855 164.546 68.4666 164.828 65.8919C165.11 63.3172 173.565 62.3579 171.894 56.6789L171.893 56.6797Z" fill="#AAA897"/>
<path d="M152.358 55.9697C147.69 55.9697 143.391 59.5094 145.847 61.951C148.304 64.3927 149.753 61.2185 152.48 61.2185C155.06 61.2185 156.411 63.7817 158.623 62.3173C160.834 60.8522 157.64 55.9697 152.358 55.9697Z" fill="#2D2B2C"/>
<path d="M138.159 55.9984C136.905 55.2247 135.772 55.3972 135.259 56.2883C134.627 57.383 135.561 58.4162 136.785 59.0732C138.009 59.7302 139.218 59.6095 139.64 58.8482C140.063 58.0869 139.413 56.7728 138.159 55.9984Z" fill="#2D2B2C"/>
<path d="M147.669 52.1278C148.367 51.6039 148.314 50.1404 147.487 48.9257C146.66 47.7102 145.555 47.4096 144.72 48.0141C143.694 48.7582 144.122 50.0796 144.97 51.176C145.817 52.2724 146.97 52.6518 147.669 52.1278Z" fill="#2D2B2C"/>
<path d="M168.514 55.9898C167.914 55.1546 166.769 55.0946 165.599 55.989C164.429 56.8833 163.915 58.2549 164.411 58.971C164.908 59.6872 166.123 59.6872 167.274 58.9127C168.426 58.1374 169.251 57.0172 168.513 55.9898H168.514Z" fill="#2D2B2C"/>
<path d="M158.652 47.8088C157.761 47.2898 156.691 47.6988 155.99 48.9898C155.289 50.2809 155.383 51.7419 156.131 52.1944C156.879 52.6461 157.988 52.1542 158.721 50.9798C159.454 49.8053 159.748 48.4478 158.652 47.8088H158.652Z" fill="#2D2B2C"/>
<path d="M165.305 73.0564C162.238 74.561 159.631 82.878 154.506 83.9695C148.719 85.2014 145.42 80.4503 139.716 81.6453C139.454 81.7003 139.193 81.7676 138.935 81.8456C138.131 91.6081 137.133 102.285 137.133 102.285L168.803 101.856C168.803 101.856 166.477 83.3412 165.304 73.0564H165.305Z" fill="#2D2B2C"/>
<g opacity="0.5">
<path d="M149.198 57.4762C146.994 58.4305 146.086 60.0221 146.818 60.7497C147.561 61.4872 148.684 59.2534 150.113 58.9306C151.455 58.6276 153.627 58.4929 153.773 57.8392C154.017 56.7477 151.577 56.4446 149.198 57.4753V57.4762Z" fill="#AAA897"/>
<path d="M135.618 56.8574C135.243 57.2918 135.822 57.8839 136.237 58.2469C136.582 58.5492 137.121 58.9352 137.429 58.6354C137.738 58.3356 137.229 57.8577 136.965 57.5029C136.7 57.1481 135.924 56.5026 135.618 56.8574Z" fill="#AAA897"/>
<path d="M145.051 48.4458C144.511 48.6437 144.727 49.4411 144.912 49.9585C145.066 50.3897 145.348 50.9876 145.764 50.8751C146.181 50.7626 145.97 50.099 145.913 49.6612C145.855 49.2235 145.493 48.284 145.052 48.4458H145.051Z" fill="#AAA897"/>
<path d="M158.078 48.1468C157.617 47.8035 157.06 48.4161 156.723 48.8514C156.442 49.2136 156.09 49.7737 156.411 50.0595C156.732 50.3461 157.178 49.8098 157.517 49.5248C157.856 49.239 158.454 48.4268 158.078 48.1468Z" fill="#AAA897"/>
<path d="M167.872 56.0203C167.535 55.5563 166.82 55.976 166.368 56.2913C165.991 56.5542 165.487 56.9837 165.707 57.3524C165.928 57.7212 166.515 57.3418 166.924 57.1701C167.333 56.9985 168.147 56.3998 167.872 56.0203Z" fill="#AAA897"/>
</g>
</g>
<g clip-path="url(#clip5_2071_29282)">
<path d="M277.621 43.9923C277.431 40.7595 276.589 34.5765 274.075 33.8152C271.588 33.0613 270.452 34.7406 270.452 34.7406C270.452 34.7406 269.835 29.4975 266.597 28.7262C262.594 27.7735 261.373 31.2707 261.373 31.2707C261.373 31.2707 260.151 27.7735 256.149 28.7262C252.911 29.4975 252.294 34.7406 252.294 34.7406C252.294 34.7406 251.158 33.0613 248.671 33.8152C246.158 34.5774 245.315 40.7595 245.125 43.9923C244.915 47.5543 244.354 90.7077 244.354 90.7077H279.262C279.262 90.7077 277.832 47.5543 277.622 43.9923H277.621Z" fill="#2D2B2C"/>
<path d="M261.946 41.7485C256.797 41.7485 252.055 45.6779 254.764 48.3883C257.474 51.0987 259.072 47.5751 262.081 47.5751C264.926 47.5751 266.416 50.4204 268.855 48.7949C271.294 47.1685 267.772 41.7485 261.946 41.7485Z" fill="#FFC0C0"/>
<path d="M249.372 36.0988C247.976 36.2237 247.626 37.7243 247.8 39.2496C247.975 40.7739 248.847 41.7904 249.807 41.6883C250.767 41.5871 251.553 40.164 251.465 38.5375C251.378 36.9111 250.506 35.9967 249.371 36.0988H249.372Z" fill="#FFC0C0"/>
<path d="M257.429 36.4381C258.389 36.3369 259.175 34.9137 259.087 33.2873C259 31.6609 258.128 30.7464 256.993 30.8486C255.597 30.9735 255.247 32.475 255.421 33.9993C255.596 35.5236 256.469 36.5402 257.428 36.4381H257.429Z" fill="#FFC0C0"/>
<path d="M265.864 36.4381C266.824 36.3369 267.61 34.9137 267.522 33.2873C267.435 31.6609 266.562 30.7464 265.427 30.8486C264.032 30.9735 263.682 32.475 263.856 33.9993C264.031 35.5236 264.903 36.5402 265.863 36.4381H265.864Z" fill="#FFC0C0"/>
<path d="M274.737 38.5388C274.649 36.9123 273.777 35.9979 272.642 36.1C271.246 36.2249 270.896 37.7255 271.071 39.2508C271.246 40.7751 272.118 41.7916 273.078 41.6895C274.038 41.5883 274.823 40.1652 274.736 38.5388H274.737Z" fill="#FFC0C0"/>
<path d="M262.379 74.2031C260.176 72.0077 254.708 72.6377 254.708 72.6377C250.982 72.6705 248.989 75.3864 249.454 79.0441C249.997 83.3044 257.071 83.5697 259.955 81.7235C262.333 80.201 264.731 76.5479 262.378 74.204L262.379 74.2031Z" fill="#AAA897"/>
<path d="M253.115 67.0951C257.548 65.6884 258.531 61.9851 255.729 58.1169C252.238 53.3005 244.863 56.0191 244.863 56.0191C244.799 60.0068 244.734 64.3063 244.675 68.3915C247.265 68.4116 250.908 67.7953 253.115 67.0951Z" fill="#AAA897"/>
<path d="M272.53 84.1716C268.486 78.2055 262.796 86.1071 264.005 90.7074H274.466C274.278 88.2924 273.495 85.5983 272.529 84.1716H272.53Z" fill="#AAA897"/>
<path d="M278.177 58.8536C274.059 57.8261 267.859 62.2022 272.386 65.9364C274.052 67.3113 276.289 68.6505 278.526 68.8848C278.406 65.3858 278.286 61.9378 278.177 58.8536Z" fill="#AAA897"/>
</g>
<g clip-path="url(#clip6_2071_29282)">
<path d="M335.368 45.4362C335.368 45.4362 338.673 42.3664 338.189 41.6233C337.587 40.7027 333.613 43.2748 333.613 43.2748L335.368 45.4362Z" fill="#7A796E"/>
<path d="M326.239 36.4252C326.239 36.4252 327.977 32.2734 327.227 31.795C326.298 31.202 323.744 35.1754 323.744 35.1754L326.239 36.4252Z" fill="#7A796E"/>
<path d="M298.674 46.0429C298.674 46.0429 295.246 43.1086 295.701 42.347C296.264 41.4022 300.339 43.8129 300.339 43.8129L298.674 46.0429Z" fill="#7A796E"/>
<path d="M307.428 36.6718C307.428 36.6718 305.523 32.5934 306.252 32.0851C307.157 31.4558 309.87 35.3228 309.87 35.3228L307.428 36.6718Z" fill="#7A796E"/>
<path d="M336.416 45.9051C334.372 38.9529 327.953 41.8663 327.953 41.8663C327.953 41.8663 329.54 35.1811 324.473 34.2041C320.401 33.4191 317.505 36.2566 316.97 37.161C316.475 36.3381 312.903 33.3408 308.865 34.7842C303.916 36.5527 306.093 42.1349 306.093 42.1349C306.093 42.1349 299.58 39.4362 297.77 46.4521C296.319 52.0828 304.645 52.7484 305.007 55.2672C305.369 57.786 302.293 90.7067 302.293 90.7067L333.384 90.2847C333.384 90.2847 329.203 57.4843 329.48 54.955C329.756 52.4257 338.057 51.4833 336.416 45.9043V45.9051Z" fill="#874538"/>
<path d="M317.24 45.208C312.657 45.208 308.436 48.6853 310.848 51.0839C313.26 53.4825 314.682 50.3643 317.36 50.3643C319.892 50.3643 321.219 52.8823 323.39 51.4438C325.56 50.0044 322.425 45.208 317.24 45.208Z" fill="#FFC0C0"/>
<path d="M303.3 45.2363C302.07 44.4763 300.957 44.6457 300.453 45.5211C299.833 46.5965 300.75 47.6115 301.952 48.2569C303.154 48.9024 304.34 48.7838 304.754 48.0359C305.17 47.288 304.531 45.9971 303.3 45.2363Z" fill="#FFC0C0"/>
<path d="M312.636 41.434C313.322 40.9193 313.269 39.4816 312.458 38.2883C311.645 37.0943 310.561 36.799 309.741 37.3928C308.734 38.1237 309.155 39.4219 309.986 40.499C310.818 41.576 311.95 41.9488 312.636 41.434Z" fill="#FFC0C0"/>
<path d="M333.102 45.2274C332.513 44.4069 331.389 44.348 330.24 45.2266C329.091 46.1052 328.586 47.4525 329.074 48.1561C329.562 48.8596 330.754 48.8596 331.885 48.0988C333.016 47.3372 333.826 46.2367 333.102 45.2274Z" fill="#FFC0C0"/>
<path d="M323.419 37.191C322.545 36.6811 321.495 37.0828 320.807 38.3511C320.119 39.6194 320.21 41.0547 320.945 41.4993C321.679 41.943 322.768 41.4597 323.488 40.306C324.207 39.1523 324.495 37.8186 323.42 37.191H323.419Z" fill="#FFC0C0"/>
<path d="M311.871 69.6049C315.161 68.5754 314.137 63.361 312.586 61.4271C311.137 59.6207 307.467 58.6937 304.884 59.49C304.706 62.5212 304.372 66.8432 304.003 71.3145C305.028 70.5609 306.067 69.7614 307.239 69.4145C308.814 68.9473 310.437 70.0534 311.871 69.6049Z" fill="#D1A678"/>
<path d="M330.55 66.8601C327.268 67.0352 324.619 67.7912 321.958 70.2471C319.198 72.7941 316.56 75.2468 313.443 77.3622C311.137 78.9274 310.126 80.3175 310.129 83.0752C310.131 85.2874 310.309 88.1338 311.139 90.5857L333.385 90.2839C333.385 90.2839 331.71 77.1484 330.551 66.8609L330.55 66.8601Z" fill="#D1A678"/>
<path d="M314.135 46.6281C311.972 47.5656 311.08 49.1291 311.799 49.844C312.528 50.5685 313.631 48.374 315.033 48.0569C316.351 47.7592 318.483 47.6269 318.627 46.9847C318.866 45.9124 316.471 45.6147 314.135 46.6273V46.6281Z" fill="white"/>
<path d="M300.803 46.0206C300.436 46.4474 301.003 47.0291 301.411 47.3857C301.75 47.6826 302.279 48.0618 302.582 47.7673C302.884 47.4728 302.385 47.0033 302.126 46.6547C301.866 46.3062 301.103 45.672 300.803 46.0206Z" fill="white"/>
<path d="M310.064 37.7565C309.534 37.9509 309.746 38.7343 309.928 39.2426C310.079 39.6662 310.356 40.2535 310.764 40.143C311.173 40.0325 310.966 39.3806 310.911 38.9505C310.854 38.5205 310.498 37.5975 310.065 37.7565H310.064Z" fill="white"/>
<path d="M322.853 37.4636C322.401 37.1263 321.854 37.7282 321.523 38.1558C321.247 38.5116 320.901 39.0619 321.216 39.3426C321.532 39.6242 321.97 39.0974 322.302 38.8174C322.635 38.5366 323.222 37.7387 322.853 37.4636Z" fill="white"/>
<path d="M332.466 45.1974C332.136 44.7415 331.434 45.1538 330.99 45.4636C330.62 45.7218 330.125 46.1437 330.341 46.506C330.557 46.8682 331.134 46.4955 331.535 46.3269C331.937 46.1583 332.736 45.5701 332.466 45.1974H332.466Z" fill="white"/>
</g>
<defs>
<clipPath id="clip0_2071_29282">
<rect width="33.85" height="47.0727" fill="white" transform="translate(37.2891 49.3948)"/>
</clipPath>
<clipPath id="clip1_2071_29282">
<rect width="35.9656" height="63.7332" fill="white" transform="translate(82.7744 25.594)"/>
</clipPath>
<clipPath id="clip2_2071_29282">
<rect width="46.8346" height="83.197" fill="white" transform="translate(181.427 10.2922)"/>
</clipPath>
<clipPath id="clip3_2071_29282">
<rect width="27.5031" height="49.4527" fill="white" transform="translate(8.72656 39.8748)"/>
</clipPath>
<clipPath id="clip4_2071_29282">
<rect width="43.3703" height="60.0309" fill="white" transform="translate(130.375 42.2546)"/>
</clipPath>
<clipPath id="clip5_2071_29282">
<rect width="34.9078" height="62.1465" fill="white" transform="translate(244.354 28.561)"/>
</clipPath>
<clipPath id="clip6_2071_29282">
<rect width="42.577" height="58.973" fill="white" transform="translate(295.659 31.7344)"/>
</clipPath>
</defs>
</svg>
