<svg width="120" height="358" viewBox="0 0 120 358" fill="none" xmlns="http://www.w3.org/2000/svg">
<path d="M7.25912 280.496C24.4165 276.059 38.6636 225.208 40.9725 247.792C42.9529 267.151 26.7431 312.816 27.8492 338.609C28.1397 345.359 36.8739 346.513 39.2679 340.006C39.3413 339.81 47.5474 297.193 53.424 284.821C61.7181 267.368 54.3804 310.359 54.1927 349.353C54.1633 355.661 58.5612 358.815 62.5866 357.819C68.3106 356.399 67.225 350.305 67.6827 341.201C68.5834 323.25 67.7267 281.852 72.9021 284.853C78.0775 287.852 74.771 340.439 78.8491 351.342C80.721 356.346 89.2968 354.955 89.1882 345.707C89.1882 345.479 88.9095 314.412 88.9095 314.195C88.9183 260.211 99.6681 275.248 105.178 314.31C105.776 318.541 106.997 322.316 111.269 322.008C122.3 321.215 111.732 284.994 107.953 261.795C104.653 241.543 96.256 224.116 97.8491 197.565C102.895 129.685 112.651 67.7886 120 0L54.9408 -5.68765e-06C57.021 29.8693 71.4235 168.788 47.0809 188.094C30.4927 201.251 10.0991 261.924 1.09499 273.936C-2.44622 278.657 3.40397 281.494 7.25912 280.499L7.25912 280.496Z" fill="#F8D4B7"/>
<g style="mix-blend-mode:multiply">
<path d="M87.2345 231.026C84.7465 237.228 79.1897 245.264 70.4702 257.059C62.5985 246.974 52.1949 234.593 52.2976 223.342C52.3886 213.254 64.8958 209.669 70.4702 227.45C71.2007 223.84 73.41 219.348 76.4994 217.482C83.2943 213.38 92.4422 218.047 87.2345 231.026Z" fill="#EDD1BA"/>
</g>
</svg>
