<svg width="80" height="8" viewBox="0 0 80 8" fill="none" xmlns="http://www.w3.org/2000/svg">
<path fill-rule="evenodd" clip-rule="evenodd" d="M77.4294 1.41684C77.646 1.57589 77.6982 1.87771 77.5475 2.10021C76.3672 3.84298 75.5212 4.93415 74.8289 5.82701C74.6039 6.11719 74.3952 6.38643 74.1965 6.65027C74.0346 6.86516 73.7318 6.91349 73.5111 6.75963C73.2904 6.60578 73.231 6.3049 73.3767 6.07874C74.5144 4.31237 75.7957 2.69953 76.742 1.50876C76.9092 1.29838 77.2128 1.25778 77.4294 1.41684ZM42.2282 1.72599C42.4356 1.90059 42.466 2.20862 42.2969 2.42044C41.4154 3.52443 40.4974 4.80601 39.6016 6.05656C39.4275 6.29975 39.2541 6.54176 39.082 6.78106C39.046 6.8323 39.0094 6.88318 38.972 6.93389C38.8086 7.1551 38.4973 7.20287 38.2751 7.04082C38.053 6.87878 38.0034 6.56774 38.1641 6.34461C38.1922 6.30558 38.2204 6.26642 38.2486 6.22716C38.3855 6.03218 38.5242 5.81225 38.6841 5.55858C39.198 4.74341 39.9316 3.57988 41.5322 1.77654C41.7122 1.57381 42.0209 1.55139 42.2282 1.72599ZM37.7815 1.72862C38.0011 1.87591 38.0681 2.1688 37.9343 2.39692C37.3078 3.46487 36.6474 4.3282 36.0547 5.06367C35.9204 5.2303 35.7911 5.38857 35.6673 5.5401C35.2844 6.07708 34.9292 6.55485 34.5453 7.00006C34.3732 7.19962 34.0758 7.23139 33.8655 7.07268C33.6551 6.91396 33.6041 6.61925 33.7487 6.39902C34.0537 5.93478 34.4503 5.44829 34.8738 4.93039C34.9699 4.79539 35.069 4.65513 35.172 4.50885C35.2158 4.44663 35.2602 4.3834 35.3054 4.31912C35.7897 3.63063 36.3587 2.82152 37.1052 1.84104C37.2654 1.63061 37.5618 1.58133 37.7815 1.72862ZM33.399 1.77999C33.6076 1.93578 33.6618 2.22558 33.5235 2.44617C32.5531 3.99409 31.6469 5.13263 30.8842 6.09082C30.6528 6.38163 30.4345 6.65583 30.2317 6.91983C30.2059 6.95464 30.1804 6.98803 30.1551 7.01989C29.9846 7.23461 29.673 7.27203 29.4566 7.10377C29.2402 6.93552 29.1996 6.62435 29.3656 6.4062C29.3886 6.376 29.4117 6.34578 29.4349 6.31553C29.5313 6.18479 29.6431 6.01466 29.7859 5.79237C29.8155 5.7464 29.8461 5.69855 29.8779 5.64885C30.0302 5.41111 30.2094 5.13134 30.4224 4.81495C30.9399 4.04627 31.6585 3.05848 32.7249 1.8498C32.8972 1.65457 33.1904 1.6242 33.399 1.77999ZM29.0042 1.82259C29.2174 1.98978 29.2587 2.29638 29.0972 2.51399C28.3919 3.46474 27.8504 4.17082 27.4116 4.74317C26.6789 5.69865 26.232 6.28145 25.7852 7.00771C25.6409 7.24224 25.3341 7.31596 25.099 7.17259C24.8639 7.02922 24.789 6.72275 24.9314 6.48708C25.7305 5.16486 26.3165 4.30551 28.3106 1.89719C28.4834 1.68849 28.791 1.65541 29.0042 1.82259ZM24.5846 1.84571C24.8023 2.00239 24.8576 2.30292 24.7099 2.52682C24.2651 3.2013 23.8381 3.77348 23.4364 4.28836C23.4149 4.31937 23.3933 4.35044 23.3717 4.38159C23.2815 4.51169 23.1904 4.64295 23.0982 4.77518C22.5552 5.55428 21.9797 6.35902 21.335 7.10748C21.1654 7.30437 20.8732 7.33853 20.6628 7.18608C20.4524 7.03362 20.3938 6.74539 20.528 6.52288C20.9935 5.75124 21.5231 5.08705 22.0806 4.38911L22.0991 4.36592C22.2727 4.14861 22.4499 3.92681 22.6306 3.69543C23.0486 3.09322 23.4674 2.494 23.8989 1.94316C24.0644 1.73203 24.3669 1.68903 24.5846 1.84571ZM20.2012 1.8974C20.4149 2.0679 20.452 2.3784 20.2846 2.59448C19.7841 3.24042 19.3173 3.89861 18.8376 4.57504C18.7814 4.65431 18.725 4.73383 18.6683 4.81361C18.1306 5.57099 17.5726 6.34814 16.9426 7.13126C16.7717 7.3437 16.4621 7.38005 16.2466 7.21299C16.0311 7.04592 15.9892 6.73704 16.1524 6.51861C16.6023 5.91633 17.0434 5.29806 17.4756 4.69233C18.175 3.712 18.851 2.76451 19.503 1.97082C19.6766 1.7596 19.9876 1.72689 20.2012 1.8974ZM74.8917 1.88625C75.1125 2.04683 75.1637 2.35491 75.0066 2.57828C74.6357 3.10574 74.3106 3.54928 74.022 3.93159C73.9086 4.09096 73.7963 4.24959 73.6845 4.40748C73.0224 5.34258 72.3786 6.25193 71.6469 7.13855C71.4819 7.33849 71.1914 7.37916 70.9779 7.23222C70.7643 7.08529 70.6984 6.79948 70.8262 6.57391C71.2363 5.84976 71.6245 5.356 72.1291 4.72585C72.1557 4.69263 72.1826 4.65898 72.21 4.62486C72.4904 4.27494 72.8116 3.87409 73.2002 3.36045C73.5118 2.92219 73.8388 2.46816 74.1979 1.9903C74.362 1.77199 74.6708 1.72567 74.8917 1.88625ZM15.7848 1.92266C16.006 2.08737 16.0521 2.40008 15.8878 2.62158C15.4284 3.24081 15.0044 3.80012 14.6119 4.31785C13.8096 5.3761 13.1389 6.26068 12.5674 7.12837C12.4162 7.35791 12.108 7.42236 11.8775 7.27264C11.647 7.12293 11.5805 6.81522 11.7287 6.58372C12.381 5.5649 13.0536 4.68822 13.8768 3.61519C14.2457 3.13446 14.6447 2.61432 15.0857 2.02433C15.2508 1.80343 15.5636 1.75794 15.7848 1.92266ZM70.4828 1.91883C70.7074 2.07733 70.7619 2.38744 70.6048 2.61306C70.5449 2.69908 70.4852 2.78488 70.4257 2.87044C69.3396 4.43111 68.3094 5.91137 67.2403 7.17929C67.0686 7.38301 66.7672 7.41622 66.5552 7.25481C66.3432 7.09339 66.295 6.79407 66.4457 6.57428C67.0167 5.74129 67.6262 4.92348 68.2047 4.15703C68.3173 4.00785 68.4286 3.86082 68.5381 3.71608C68.9941 3.11356 69.4201 2.55059 69.7878 2.03651C69.9477 1.81289 70.2581 1.76032 70.4828 1.91883ZM11.3884 1.96441C11.5965 2.12493 11.6449 2.41922 11.499 2.63789C10.7073 3.82441 9.50769 5.44734 8.14062 7.19666C7.97199 7.41244 7.66116 7.45242 7.44342 7.28633C7.22568 7.12025 7.18205 6.80991 7.34556 6.59023C7.80555 5.97226 8.2481 5.34373 8.6756 4.73659C8.82589 4.52314 8.97433 4.31232 9.12101 4.10554C9.67912 3.31873 10.2144 2.58655 10.7089 2.02869C10.8833 1.83199 11.1802 1.8039 11.3884 1.96441ZM66.1116 1.97889C66.3227 2.15495 66.352 2.46833 66.1774 2.68054C65.2402 3.8193 64.6024 4.73074 64.1038 5.46409C64.0313 5.57073 63.9611 5.67466 63.8928 5.7758C63.5001 6.35696 63.1697 6.84605 62.8264 7.22711C62.6552 7.41721 62.368 7.44735 62.161 7.29694C61.954 7.14654 61.894 6.86413 62.0219 6.64252C62.9401 5.05148 64.0767 3.61598 65.4096 2.03994C65.587 1.83009 65.9006 1.80282 66.1116 1.97889ZM6.97865 1.99566C7.1958 2.15832 7.2436 2.46447 7.08638 2.68558C6.67415 3.26533 6.31107 3.78127 5.98714 4.24156C4.92019 5.75768 4.2781 6.67008 3.70399 7.2709C3.52164 7.46173 3.22236 7.47795 3.02045 7.30794C2.81854 7.13794 2.78356 6.84027 2.94055 6.62808C3.33772 6.09125 3.73137 5.54486 4.12443 4.99929C4.84107 4.00459 5.55575 3.01261 6.28627 2.08623C6.45427 1.87319 6.76151 1.833 6.97865 1.99566ZM61.6705 1.98683C61.8922 2.13851 61.9544 2.4383 61.8114 2.6657C60.4838 4.77661 59.7243 5.6917 58.9246 6.65521C58.7663 6.84586 58.6065 7.03841 58.4404 7.2425M61.6705 1.98683C61.4487 1.83514 61.1468 1.88578 60.9867 2.1015L61.6705 1.98683ZM57.3119 2.05748C57.5134 2.23247 57.5419 2.53483 57.3767 2.74444C56.9291 3.31243 56.482 3.95336 56.0138 4.62452C55.9358 4.73628 55.8572 4.84889 55.778 4.96214C55.228 5.7482 54.6487 6.55952 54.0284 7.28859C53.8503 7.49794 53.5367 7.52427 53.3261 7.34755C53.1156 7.17082 53.0872 6.85731 53.2626 6.64564C53.9045 5.87068 54.5131 4.98234 55.0769 4.15921L55.0973 4.12942C55.6465 3.32778 56.1716 2.56115 56.6226 2.08944C56.807 1.89655 57.1104 1.88249 57.3119 2.05748ZM52.8571 2.05492C53.0802 2.20283 53.1473 2.5002 53.0092 2.72953C52.1629 4.13545 51.4667 5.04906 50.9037 5.73248C50.7221 5.95301 50.5607 6.14259 50.416 6.31258C50.3594 6.37913 50.3053 6.44267 50.2535 6.5039C50.0533 6.76893 49.8485 7.03691 49.6396 7.30637C49.4758 7.51773 49.1747 7.56278 48.9562 7.4086C48.7377 7.25442 48.6792 6.95561 48.8234 6.73042C49.0037 6.44894 49.2253 6.17255 49.4749 5.87557C50.2261 4.88062 50.9122 3.92881 51.517 3.08985C51.7491 2.76778 51.9693 2.46235 52.1765 2.17749C52.334 1.96104 52.634 1.90701 52.8571 2.05492ZM48.4587 2.09356C48.6826 2.2457 48.7448 2.54841 48.5989 2.77648C48.3416 3.17894 48.0397 3.591 47.7274 3.99973C47.6744 4.0747 47.6226 4.14804 47.5719 4.2198C46.8699 5.2132 46.3809 5.90516 45.8816 6.46379C45.7074 6.65859 45.4127 6.68649 45.2051 6.52781C44.9975 6.36912 44.9471 6.07738 45.0894 5.85825C45.4748 5.26489 45.9553 4.64933 46.4196 4.05466L46.4532 4.01164C46.6107 3.8099 46.766 3.61058 46.9164 3.414C47.167 3.05989 47.4487 2.66321 47.7721 2.21468C47.9305 1.9951 48.2348 1.94141 48.4587 2.09356ZM44.0463 2.12287C44.2779 2.27282 44.3442 2.58204 44.1945 2.81383C43.5335 3.83744 42.7419 4.86273 42.007 5.81461C41.835 6.0373 41.6662 6.25598 41.5029 6.46968C41.3387 6.68443 41.0336 6.72985 40.814 6.57223C40.5945 6.41461 40.5399 6.11102 40.6908 5.88681C41.0625 5.33473 41.4569 4.83076 41.8544 4.32282C41.8996 4.26505 41.9449 4.20722 41.9901 4.14927C42.4362 3.57811 42.8913 2.98485 43.3551 2.27035C43.5053 2.03892 43.8146 1.97292 44.0463 2.12287ZM39.6656 2.175C39.8858 2.33526 39.9372 2.64225 39.7813 2.86554C39.2483 3.62884 38.8008 4.21147 38.3855 4.75222L38.3551 4.79183C38.1932 5.00269 38.0363 5.20729 37.8805 5.41471C37.6157 5.77841 37.3553 6.14129 37.1108 6.48987C36.9531 6.71458 36.6438 6.7702 36.4178 6.61449C36.1918 6.45879 36.1335 6.14997 36.2873 5.92261C36.5605 5.51863 36.8194 5.16241 37.0768 4.81961C37.7447 3.90231 38.4372 2.98379 38.9729 2.2772C39.1374 2.06018 39.4454 2.01475 39.6656 2.175ZM60.9867 2.1015C60.057 3.354 59.4256 4.22909 58.9477 4.89143L60.9867 2.1015ZM58.9477 4.89143C58.3861 5.66975 58.0365 6.15431 57.664 6.61231L58.9477 4.89143ZM57.664 6.61231C57.6639 6.61234 57.664 6.61227 57.664 6.61231V6.61231ZM35.2295 2.18908C35.4489 2.32428 35.5296 2.60406 35.4159 2.83531C35.0755 3.52779 34.605 4.11507 34.1316 4.68324C34.0753 4.75085 34.0188 4.81824 33.9624 4.88564C33.8926 4.96908 33.8227 5.05252 33.753 5.13641C33.3816 5.65459 33.0348 6.12832 32.685 6.55515C32.5169 6.76028 32.2178 6.79844 32.0036 6.64209C31.7893 6.48575 31.7344 6.18932 31.8785 5.96662C32.2284 5.42564 32.6047 4.95403 32.9619 4.52356C33.0032 4.46593 33.045 4.40749 33.0873 4.34823C33.1324 4.28497 33.1782 4.22082 33.2246 4.15579C33.6174 3.60515 34.0553 2.99115 34.5685 2.31303C34.724 2.10754 35.0102 2.05388 35.2295 2.18908ZM58.4396 7.24352C58.4395 7.24355 58.4396 7.24348 58.4396 7.24352C58.2653 7.45768 57.9504 7.49002 57.7362 7.31576C57.522 7.1415 57.4897 6.82651 57.664 6.61231M30.8445 2.23752C31.0717 2.39146 31.1323 2.69971 30.9804 2.92822C30.7216 3.31763 30.4549 3.68413 30.1873 4.03832C29.687 4.72213 29.112 5.48754 28.5344 6.2563C28.4546 6.36258 28.3747 6.46892 28.2949 6.57513C28.1324 6.79155 27.8272 6.83936 27.6063 6.683C27.3853 6.52664 27.3289 6.22288 27.479 5.99764C27.9217 5.33318 28.3841 4.7374 28.8329 4.15896L28.8387 4.15158C29.0236 3.91319 29.2063 3.67771 29.386 3.43998C29.6721 3.04881 29.9321 2.68648 30.1527 2.36722C30.3086 2.14146 30.6174 2.08358 30.8445 2.23752ZM26.4899 2.31044C26.6892 2.48464 26.7182 2.78397 26.5561 2.99318C26.1187 3.55746 25.7475 4.05139 25.4249 4.48906C25.3752 4.56589 25.3251 4.64384 25.2744 4.72284L25.2585 4.74758C24.8577 5.372 24.4194 6.05489 23.8559 6.65317C23.6746 6.84569 23.3747 6.8637 23.1716 6.69425C22.9685 6.5248 22.9326 6.22652 23.0895 6.01364C23.2553 5.78874 23.4366 5.53511 23.6433 5.24594C23.9119 4.87008 24.2235 4.43417 24.5998 3.92322C24.9554 3.3734 25.3379 2.81036 25.8045 2.33618C25.9901 2.14752 26.2907 2.13624 26.4899 2.31044ZM22.0518 2.31919C22.2622 2.4722 22.3201 2.76099 22.185 2.98329C21.8034 3.61092 21.3574 4.16215 20.9352 4.67308C20.9006 4.72405 20.8659 4.7752 20.8311 4.82652L20.8274 4.83199C20.4083 5.44984 19.9718 6.09335 19.4662 6.67506C19.2987 6.86773 19.0129 6.90329 18.8033 6.75753C18.5937 6.61178 18.5276 6.33154 18.6499 6.10746C19.0243 5.42165 19.5158 4.82019 19.9899 4.2469C20.01 4.22259 20.0301 4.19833 20.0501 4.1741C20.0784 4.13996 20.1066 4.10589 20.1347 4.07187C20.5158 3.51129 20.918 2.93208 21.379 2.39716C21.5488 2.20009 21.8414 2.16618 22.0518 2.31919ZM17.6714 2.37226C17.8727 2.53717 17.9139 2.82888 17.7661 3.04304C17.0244 4.11767 16.4849 4.83299 16.0639 5.37876C15.9764 5.4922 15.8949 5.59723 15.8184 5.69581C15.6929 5.85753 15.5809 6.00187 15.478 6.13742C15.3509 6.31656 15.2206 6.49749 15.0875 6.67862C14.9263 6.89793 14.6193 6.94802 14.3968 6.79132C14.1742 6.63462 14.1179 6.32869 14.27 6.10301C14.3949 5.91782 14.5272 5.73667 14.6719 5.54548C14.8911 5.23653 15.1009 4.93326 15.3046 4.63881C15.4461 4.43437 15.5845 4.23418 15.7212 4.03929C16.1601 3.41327 16.5831 2.83748 16.9951 2.41144C17.176 2.2244 17.4701 2.20736 17.6714 2.37226ZM72.3747 2.37193C72.5811 2.53667 72.6238 2.83349 72.4722 3.04971C71.7427 4.09037 71.2027 4.7787 70.7816 5.31528L70.7791 5.31859C70.5367 5.62747 70.3401 5.87859 70.17 6.1148C70.052 6.29272 69.933 6.47388 69.8126 6.65832C69.6639 6.88592 69.3607 6.95309 69.1299 6.80955C68.899 6.66601 68.8252 6.36435 68.9636 6.13039C69.0827 5.92897 69.209 5.73929 69.3459 5.54817C70.1032 4.40716 70.8472 3.36016 71.6922 2.42708C71.8695 2.23135 72.1684 2.2072 72.3747 2.37193ZM13.2318 2.38123C13.4539 2.53248 13.5168 2.83223 13.3741 3.05995C12.9431 3.74794 12.4573 4.35824 11.995 4.93811L11.9856 4.94985C11.9379 5.00973 11.8904 5.06929 11.8432 5.12859C11.4559 5.65228 11.0892 6.15188 10.6872 6.7101C10.5295 6.92921 10.2263 6.98351 10.0023 6.83277C9.77832 6.68203 9.71446 6.3807 9.85804 6.15206C10.2246 5.56829 10.6405 5.03418 11.0501 4.51919C11.236 4.26791 11.4264 4.01132 11.6272 3.74074C11.9085 3.36171 12.2101 2.95523 12.5482 2.49748C12.7078 2.28132 13.0097 2.22998 13.2318 2.38123ZM67.9668 2.40441C68.1756 2.56783 68.2206 2.86586 68.0692 3.08358C67.6754 3.64997 67.233 4.2336 66.7908 4.81684L66.7417 4.88168C66.4683 5.24236 66.1952 5.60322 65.9308 5.9638C65.7373 6.2545 65.5564 6.51742 65.3776 6.73718C65.2082 6.94547 64.9044 6.98272 64.6897 6.82156C64.4749 6.6604 64.4258 6.35837 64.5784 6.13745C64.75 5.889 64.9278 5.64092 65.1084 5.39426C65.1479 5.33477 65.1886 5.27304 65.2309 5.20889C65.3351 5.05106 65.4489 4.87863 65.5769 4.68915C65.9917 4.0748 66.5229 3.33392 67.2829 2.46827C67.4579 2.26901 67.758 2.24099 67.9668 2.40441ZM8.83531 2.42252C9.06001 2.58092 9.11468 2.89102 8.95769 3.11671C8.78369 3.36685 8.61775 3.59526 8.4595 3.80623C7.97763 4.46506 7.60099 4.95614 7.28929 5.36256L7.27653 5.37919C6.86204 5.91964 6.57392 6.29653 6.2991 6.72472C6.15397 6.95084 5.85607 7.02184 5.62455 6.88547C5.39304 6.7491 5.31069 6.45414 5.43809 6.21757C5.79465 5.55549 6.18602 5.05192 6.62317 4.51247C6.67867 4.44399 6.73497 4.37485 6.79218 4.30459C7.05668 3.97977 7.34061 3.63108 7.65432 3.2132C7.80541 3.00659 7.96697 2.78329 8.14037 2.54056C8.30017 2.31685 8.61061 2.26412 8.83531 2.42252ZM63.5301 2.41577C63.747 2.55828 63.8188 2.84303 63.6954 3.07134C63.4323 3.55828 63.0203 4.13354 62.5516 4.74885C62.286 5.0975 61.9905 5.474 61.685 5.86311C61.4535 6.15803 61.2163 6.4602 60.9821 6.76297C60.8161 6.97765 60.5091 7.0207 60.2905 6.85998C60.0718 6.69925 60.0213 6.39344 60.1766 6.17091L60.212 6.12012C60.9066 5.12508 61.627 4.09287 62.8627 2.52423C63.0233 2.32037 63.3132 2.27326 63.5301 2.41577ZM4.436 2.46073C4.65894 2.62106 4.71085 2.9312 4.55226 3.1554C4.18015 3.68145 3.29275 4.89672 2.54074 5.88644C2.37868 6.09973 2.07731 6.14741 1.85732 5.99455C1.63733 5.8417 1.57689 5.54263 1.72026 5.31635C1.94492 4.96175 2.20963 4.61285 2.60657 4.08966C2.89991 3.70302 3.26546 3.2212 3.74044 2.57155C3.90252 2.34987 4.21305 2.30039 4.436 2.46073ZM59.1147 2.44469C59.3432 2.58551 59.4197 2.88158 59.2881 3.11549C59.1664 3.33186 58.9866 3.58896 58.7767 3.86868C58.067 4.89482 57.3306 5.89364 56.5683 6.81292C56.3997 7.01629 56.102 7.05339 55.8886 6.89761C55.6752 6.74183 55.6199 6.44694 55.7622 6.22439C56.2193 5.50975 56.7918 4.78082 57.2913 4.14837L57.3208 4.11101C57.5632 3.80399 57.7822 3.5267 57.9656 3.28352C58.1239 3.05439 58.2812 2.82343 58.4375 2.59117C58.5874 2.36852 58.8863 2.30386 59.1147 2.44469ZM54.7307 2.49256C54.9517 2.6431 55.0151 2.94086 54.8747 3.1684C54.2469 4.18548 53.306 5.39137 52.174 6.83746C52.0059 7.0522 51.6967 7.09262 51.479 6.92831C51.2614 6.764 51.2155 6.45558 51.376 6.23506C52.1282 5.2012 53.0536 3.93445 54.049 2.60597C54.2094 2.39198 54.5097 2.34202 54.7307 2.49256ZM50.325 2.52751C50.5538 2.68134 50.6149 2.99139 50.4616 3.22055C49.8935 4.06941 49.3063 4.86601 48.7885 5.5481C48.4486 5.99861 48.1065 6.44233 47.7704 6.87338C47.6012 7.09043 47.2883 7.12989 47.0705 6.96166C46.8527 6.79342 46.8118 6.48077 46.979 6.26215C47.0868 6.12123 47.205 5.96805 47.3317 5.80391C47.5341 5.54174 47.758 5.2516 47.9955 4.93878C48.5635 4.18568 49.1215 3.41816 49.6316 2.66267C49.7859 2.43415 50.0961 2.37368 50.325 2.52751ZM45.9245 2.56552C46.1505 2.72041 46.2098 3.0283 46.0574 3.25599C45.6516 3.86245 45.2965 4.35044 44.9871 4.75483C44.4826 5.44667 44.0951 5.9544 43.7032 6.46794C43.5937 6.61141 43.4839 6.75533 43.3711 6.90385C43.2156 7.10856 42.9302 7.16199 42.7112 7.02738C42.4921 6.89278 42.4109 6.61402 42.5233 6.38281C42.7336 5.95009 43.043 5.57346 43.4197 5.11498C43.4486 5.07978 43.4779 5.04409 43.5076 5.00786C43.7045 4.7677 43.9293 4.49134 44.1862 4.15597C44.4847 3.74643 44.8248 3.27167 45.2326 2.69066C45.39 2.46643 45.6986 2.41063 45.9245 2.56552ZM78.6487 2.77259C78.8631 2.94596 78.8967 3.26017 78.7238 3.47493C78.623 3.60013 78.524 3.72581 78.4267 3.85177C78.0735 4.31195 77.7165 4.81656 77.3618 5.31949L77.316 5.38441C76.8829 5.9988 76.4512 6.61107 76.0519 7.10077C75.8788 7.3132 75.5668 7.34661 75.3526 7.17568C75.1383 7.00475 75.1016 6.6932 75.2703 6.47715C75.6331 6.01244 75.9938 5.50355 76.3779 4.96179C76.4266 4.893 76.4758 4.82367 76.5254 4.75384C76.874 4.26273 77.2412 3.7502 77.6378 3.23729C77.7401 3.1041 77.8425 2.97387 77.9448 2.84789M78.6487 2.77259C78.4343 2.59921 78.12 2.63212 77.9462 2.84614L78.6487 2.77259ZM77.9462 2.84614C77.9458 2.8467 77.9453 2.84733 77.9448 2.84789L77.9462 2.84614Z" fill="#FFEE75" fill-opacity="0.3"/>
<path fill-rule="evenodd" clip-rule="evenodd" d="M76.5987 1.83127C76.8743 2.07223 77.2398 2.45766 77.572 2.8603C77.7632 3.09213 77.935 3.31957 78.0651 3.51574C78.1589 3.65723 78.2175 3.76252 78.25 3.83134C78.166 4.4396 78.0733 4.85312 77.9487 5.13532C77.9435 5.13668 77.9382 5.13805 77.9329 5.13944C77.8318 5.16571 77.7086 5.19772 77.5807 5.23795C77.2934 5.32832 76.9621 5.46536 76.6097 5.71849C74.2875 5.69794 71.9995 5.70669 69.6502 5.73322C60.0518 5.73396 50.6482 5.67084 41.8649 5.61188C26.314 5.5075 12.7077 5.41617 3.40726 5.71542C3.26406 5.63163 3.09446 5.54247 2.92694 5.4544C2.86234 5.42045 2.79806 5.38665 2.73571 5.35339C2.67709 5.32212 2.61875 5.29062 2.56109 5.25886C2.2162 5.03116 1.92848 4.79086 1.73394 4.57018C1.62447 4.446 1.56398 4.34995 1.53206 4.28402C1.54759 4.24956 1.57346 4.20796 1.61523 4.15785C2.11518 3.8302 2.51232 3.38118 2.8378 2.93492C3.10042 2.57485 3.33358 2.1911 3.53597 1.85798C3.54152 1.84885 3.54704 1.83975 3.55255 1.83069C11.4945 1.89367 19.4052 1.84013 27.2939 1.76311C33.3388 1.77801 39.245 1.80944 44.8861 1.83947C57.1382 1.90468 68.14 1.96324 76.5987 1.83127ZM2.22544 2.06505C2.2988 1.91417 2.3729 1.80327 2.4423 1.72833C2.37205 1.84085 2.30013 1.95334 2.22544 2.06505ZM0.820049 3.49003C0.867938 3.14679 0.982949 2.45701 1.22132 1.86477C1.37607 1.48029 1.62079 1.03483 2.0221 0.788253C2.23627 0.656664 2.48825 0.586425 2.76693 0.61043C2.98882 0.629544 3.20518 0.706316 3.41467 0.82707C11.4369 0.752114 19.4814 0.743625 27.2858 0.762846C29.2789 0.743405 31.2711 0.722477 33.2626 0.701556C47.6982 0.549912 62.0909 0.398716 76.4359 0.818154C76.5103 0.708415 76.6162 0.61281 76.7652 0.5532C77.0644 0.433553 77.3564 0.54111 77.5287 0.627591C77.9015 0.814725 78.2994 1.20124 78.6188 1.59272C78.9441 1.99128 79.2494 2.47048 79.3992 2.89966C79.4718 3.10741 79.53 3.36443 79.483 3.61501C79.4589 3.74426 79.4048 3.8804 79.3035 3.9997C79.3694 4.47189 79.3799 4.84816 79.3127 5.14656C79.2692 5.33969 79.1905 5.51432 79.0636 5.66146C78.9378 5.80739 78.7889 5.898 78.649 5.95963C78.6373 5.96476 78.6256 5.96975 78.6138 5.97459C78.1948 6.5396 77.5704 6.74038 76.7699 6.72005C74.4042 6.72893 72.0446 6.733 69.6972 6.73325C66.8152 6.76581 63.8342 6.82525 60.5799 6.89014C48.3769 7.13347 32.3319 7.45341 3.26103 6.71987C3.19423 6.71818 3.12845 6.70312 3.06756 6.67558C2.71107 6.51432 2.36311 6.3236 2.04481 6.11613C1.79627 5.97827 1.53275 5.82029 1.30039 5.64411C1.00995 5.42391 0.693901 5.12123 0.567241 4.72467C0.525795 4.59491 0.507497 4.4657 0.510845 4.33832C0.50919 4.3269 0.507716 4.31545 0.506428 4.30397C0.485341 4.11605 0.514272 3.91608 0.62094 3.73104C0.67487 3.63748 0.742904 3.55769 0.820049 3.49003ZM77.0282 1.49916C77.0239 1.4985 77.0216 1.4978 77.0216 1.49762C77.0215 1.49744 77.0236 1.49777 77.0282 1.49916Z" fill="#FFEE75" fill-opacity="0.3"/>
</svg>
