<svg width="228" height="925" viewBox="0 0 228 925" fill="none" xmlns="http://www.w3.org/2000/svg">
<path opacity="0.3" d="M128.674 819.203C124.423 820.851 118.656 817.12 115.783 810.797C112.919 804.511 113.982 798.064 118.224 796.378C122.429 794.701 128.234 798.424 131.144 804.738C134.045 811.016 132.908 817.48 128.674 819.203ZM102.031 825.354C97.4333 825.67 93.6146 820.35 93.3961 813.453C93.2808 806.493 96.8289 800.611 101.381 800.267C105.97 799.914 109.751 805.242 109.895 812.156C110.085 819.098 106.537 824.981 102.031 825.354ZM144.653 797.459C140.826 800.266 134.285 798.283 129.933 793.204C125.742 787.97 125.283 781.561 129.072 778.763C132.861 775.964 139.357 777.919 143.651 783.09C147.946 788.26 148.339 794.724 144.653 797.459ZM77.5789 812.944C73.067 812.102 70.5869 806.12 72.18 799.59C73.7732 793.06 78.7547 788.456 83.387 789.31C88.0193 790.163 90.4162 796.126 88.9435 802.667C87.2586 809.14 82.2484 813.789 77.5789 812.944ZM74.5279 771.338C73.5702 767.869 75.3584 763.375 78.2276 761.182C84.1923 756.586 93.5546 761.097 100.97 759.385C108.385 757.673 114.837 749.236 122.161 751.039C126.309 752.004 129.998 756.255 130.443 760.391C131.054 766.098 125.072 770.619 122.06 775.593C118.019 782.06 116.572 792.795 109.083 794.524C101.63 796.245 95.4346 787.431 89.1566 783.189C83.9708 779.598 76.191 777.351 74.5279 771.338Z" fill="#C3C8E1"/>
<path opacity="0.3" d="M66.9489 443.945C62.5706 445.217 57.15 440.997 54.8393 434.447C52.5338 427.936 54.1545 421.606 58.5275 420.296C62.8627 418.992 68.3211 423.207 70.6697 429.751C73.013 436.257 71.3166 442.598 66.9489 443.945ZM39.8709 447.751C35.2631 447.665 31.9226 442.032 32.306 435.143C32.7978 428.199 36.8451 422.649 41.4097 422.702C46.0122 422.751 49.3148 428.388 48.8556 435.288C48.4396 442.221 44.3923 447.772 39.8709 447.751ZM84.7617 423.677C80.7052 426.139 74.3614 423.594 70.4689 418.155C66.7497 412.576 66.8508 406.151 70.8695 403.693C74.8881 401.236 81.1887 403.749 85.0162 409.275C88.8436 414.8 88.6721 421.274 84.7617 423.677ZM16.5933 433.257C12.172 432.025 10.2228 425.849 12.379 419.483C14.5352 413.117 19.899 408.965 24.4392 410.219C28.9795 411.473 30.8477 417.621 28.8104 424.01C26.5678 430.311 21.1715 434.506 16.5933 433.257ZM17.1802 391.543C16.5284 388.005 18.7016 383.683 21.751 381.748C28.0935 377.69 37.027 383 44.5634 381.94C52.0998 380.881 59.2622 373.039 66.4013 375.473C70.4492 376.796 73.7542 381.352 73.8367 385.512C73.9481 391.25 67.5949 395.233 64.1607 399.925C59.5713 406.015 57.1947 416.583 49.5825 417.653C42.0083 418.718 36.6047 409.397 30.7204 404.625C25.8673 400.595 18.3129 397.679 17.1802 391.543Z" fill="#C3C8E1"/>
<path opacity="0.3" d="M148.746 83.983C144.187 83.9192 140.237 78.2987 139.942 71.3598C139.641 64.4587 143.042 58.8795 147.607 58.9055C152.134 58.9256 156.121 64.552 156.454 71.4969C156.793 78.404 153.317 83.9713 148.746 83.983ZM121.738 79.7055C117.357 78.2759 115.809 71.9129 118.19 65.4366C120.69 58.9404 126.184 54.8155 130.533 56.2014C134.921 57.5932 136.431 63.9502 133.974 70.4146C131.549 76.9227 126.056 81.0476 121.738 79.7055ZM171.706 69.8083C167.107 70.9771 161.785 66.6881 159.652 60.3487C157.727 53.926 159.702 47.8112 164.263 46.6364C168.825 45.4616 174.115 49.7069 176.16 56.1098C178.205 62.5128 176.148 68.6533 171.706 69.8083ZM103.715 59.0396C99.8475 56.5684 99.789 50.0929 103.712 44.6352C107.636 39.1775 113.979 36.7749 117.954 39.3017C121.929 41.8286 121.918 48.2544 118.102 53.7679C114.115 59.138 107.728 61.5725 103.715 59.0396ZM116.473 19.3198C116.884 15.7452 120.226 12.2476 123.707 11.289C130.959 9.26251 137.95 16.9522 145.467 18.1427C152.984 19.3332 162.126 13.9278 168.241 18.3425C171.726 20.7916 173.554 26.1148 172.417 30.1165C170.846 35.6369 163.606 37.5879 158.95 41.0709C152.78 45.5533 147.418 54.9648 139.825 53.7623C132.271 52.5658 129.828 42.073 125.596 35.7883C122.134 30.516 115.762 25.5186 116.473 19.3198Z" fill="#C3C8E1"/>
<g clip-path="url(#clip0_3663_3024)">
<path opacity="0.3" d="M143.397 550.601C139.914 553.544 133.246 551.893 128.471 546.85C123.716 541.839 122.622 535.398 126.084 532.422C129.514 529.467 136.215 531.098 141.022 536.121C145.809 541.112 146.839 547.594 143.397 550.601ZM120.207 565.091C115.963 566.887 110.62 563.1 108.168 556.65C105.794 550.107 107.233 543.39 111.425 541.583C115.649 539.755 120.959 543.562 123.347 550.052C125.786 556.555 124.347 563.272 120.207 565.091ZM151.426 524.84C148.721 528.74 141.891 528.994 136.122 525.609C130.455 522.025 127.935 516.114 130.606 512.235C133.278 508.356 140.056 508.089 145.8 511.58C151.544 515.07 154.02 521.054 151.426 524.84ZM93.0473 561.319C88.507 561.991 84.2145 557.143 83.5949 550.45C82.9753 543.757 86.1865 537.782 90.8443 537.081C95.5022 536.38 99.7096 541.237 100.447 547.901C100.961 554.57 97.7376 560.598 93.0473 561.319ZM76.6168 522.972C74.5821 520.005 74.8095 515.173 76.8084 512.165C80.9519 505.878 91.2728 507.095 97.7268 503.062C104.181 499.029 107.534 488.952 115.046 488.271C119.282 487.834 124.155 490.652 125.922 494.418C128.358 499.615 124.174 505.837 122.945 511.521C121.229 518.951 123.357 529.572 116.838 533.646C110.351 537.699 101.624 531.382 94.307 529.416C88.2346 527.708 80.1472 528.117 76.6168 522.972Z" fill="#C3C8E1"/>
</g>
<path opacity="0.3" d="M200.053 198.279C195.722 199.703 190.157 195.675 187.619 189.21C185.088 182.783 186.487 176.4 190.811 174.939C195.098 173.484 200.701 177.506 203.276 183.964C205.845 190.384 204.371 196.78 200.053 198.279ZM173.124 203.028C168.516 203.102 164.981 197.59 165.124 190.691C165.373 183.735 169.224 178.046 173.788 177.941C178.389 177.828 181.887 183.347 181.669 190.259C181.495 197.202 177.644 202.891 173.124 203.028ZM217.148 177.402C213.18 180.004 206.751 177.682 202.671 172.382C198.759 166.936 198.636 160.511 202.566 157.915C206.497 155.319 212.881 157.611 216.899 162.999C220.917 168.388 220.972 174.863 217.148 177.402ZM149.355 189.355C144.894 188.278 142.73 182.174 144.663 175.737C146.595 169.299 151.811 164.962 156.392 166.057C160.974 167.152 163.055 173.231 161.242 179.687C159.221 186.062 153.974 190.444 149.355 189.355ZM148.486 147.646C147.711 144.132 149.732 139.737 152.712 137.697C158.909 133.42 168.022 138.415 175.517 137.094C183.012 135.772 189.896 127.685 197.116 129.868C201.208 131.049 204.67 135.487 204.897 139.641C205.209 145.372 198.999 149.574 195.73 154.383C191.356 160.63 189.35 171.274 181.78 172.609C174.247 173.937 168.522 164.811 162.474 160.247C157.484 156.389 149.832 153.739 148.486 147.646Z" fill="#C3C8E1"/>
<g clip-path="url(#clip1_3663_3024)">
<path opacity="0.3" d="M205.215 900.144C201.583 902.9 195.01 900.903 190.506 895.617C186.02 890.364 185.264 883.874 188.878 881.084C192.457 878.312 199.064 880.291 203.601 885.559C208.121 890.793 208.809 897.32 205.215 900.144ZM181.299 913.4C176.966 914.971 171.829 910.91 169.718 904.341C167.689 897.682 169.478 891.05 173.759 889.464C178.073 887.86 183.177 891.94 185.221 898.546C187.317 905.167 185.528 911.8 181.299 913.4ZM214.581 874.838C211.676 878.591 204.841 878.488 199.258 874.805C193.787 870.929 191.579 864.895 194.45 861.16C197.321 857.426 204.104 857.515 209.657 861.301C215.21 865.088 217.37 871.193 214.581 874.838ZM154.373 908.212C149.804 908.645 145.771 903.579 145.503 896.863C145.234 890.146 148.754 884.348 153.442 883.892C158.13 883.435 162.078 888.506 162.465 895.2C162.629 901.886 159.095 907.737 154.373 908.212ZM139.972 869.058C138.096 865.988 138.576 861.174 140.729 858.275C145.196 852.214 155.439 853.969 162.095 850.279C168.752 846.59 172.628 836.702 180.165 836.415C184.418 836.2 189.137 839.269 190.704 843.123C192.865 848.44 188.361 854.435 186.836 860.046C184.734 867.377 186.303 878.095 179.579 881.821C172.89 885.53 164.505 878.765 157.301 876.418C151.326 874.395 143.229 874.38 139.972 869.058Z" fill="#C3C8E1"/>
</g>
<defs>
<clipPath id="clip0_3663_3024">
<rect width="96" height="96" fill="white" transform="translate(65 480.999)"/>
</clipPath>
<clipPath id="clip1_3663_3024">
<rect width="96" height="96" fill="white" transform="translate(128 829)"/>
</clipPath>
</defs>
</svg>
