<svg width="1157" height="825" viewBox="0 0 1157 825" fill="none" xmlns="http://www.w3.org/2000/svg">
<g clip-path="url(#clip0_2621_5622)">
<path opacity="0.3" d="M711.43 99.4777C710.498 103.941 704.227 106.745 697.359 105.711C690.527 104.69 685.7 100.287 686.596 95.811C687.48 91.3709 693.764 88.5301 700.644 89.5287C707.489 90.5142 712.291 94.9886 711.43 99.4777ZM702.078 125.173C699.839 129.201 693.297 129.506 687.394 125.933C681.495 122.239 678.494 116.06 680.684 112.055C682.887 108.013 689.416 107.744 695.293 111.389C701.219 115.011 704.219 121.191 702.078 125.173ZM701.897 74.2345C702.167 78.9723 696.941 83.3784 690.311 84.2619C683.639 84.9265 678.014 81.8209 677.731 77.119C677.448 72.4172 682.625 68.0339 689.3 67.2485C695.976 66.463 701.611 69.6536 701.897 74.2345ZM678.353 138.921C675.189 142.247 668.821 141.069 664.213 136.176C659.604 131.283 658.456 124.598 661.695 121.178C664.934 117.758 671.239 118.995 675.923 123.793C680.434 128.731 681.605 135.465 678.353 138.921ZM641.797 118.82C638.367 117.734 635.571 113.786 635.294 110.185C634.689 102.68 643.571 97.2849 646.174 90.1334C648.777 82.982 645.215 72.9762 650.716 67.8154C653.785 64.8626 659.359 64.0834 663.07 65.9632C668.189 68.559 668.723 76.0382 671.254 81.2732C674.477 88.1846 682.692 95.2446 680.063 102.468C677.447 109.655 666.681 110.051 659.704 113.006C653.868 115.399 647.746 120.7 641.797 118.82Z" fill="#C3C8E1"/>
</g>
<g clip-path="url(#clip1_2621_5622)">
<path opacity="0.3" d="M1040.81 348.644C1037.13 351.337 1030.59 349.225 1026.18 343.861C1021.79 338.531 1021.15 332.028 1024.81 329.302C1028.43 326.594 1035.01 328.687 1039.45 334.034C1043.88 339.346 1044.45 345.884 1040.81 348.644ZM1016.67 361.482C1012.31 362.977 1007.24 358.826 1005.24 352.221C1003.33 345.528 1005.24 338.928 1009.54 337.417C1013.89 335.889 1018.92 340.057 1020.85 346.698C1022.83 353.355 1020.92 359.955 1016.67 361.482ZM1050.62 323.506C1047.65 327.207 1040.81 326.985 1035.3 323.205C1029.89 319.235 1027.79 313.163 1030.73 309.479C1033.66 305.796 1040.44 306.002 1045.93 309.885C1051.41 313.768 1053.47 319.91 1050.62 323.506ZM989.835 355.824C985.258 356.178 981.315 351.041 981.163 344.322C981.012 337.602 984.632 331.865 989.328 331.491C994.023 331.117 997.881 336.255 998.152 342.955C998.2 349.643 994.564 355.431 989.835 355.824ZM976.119 316.424C974.296 313.322 974.86 308.518 977.064 305.657C981.636 299.674 991.847 301.608 998.566 298.035C1005.29 294.462 1009.33 284.643 1016.88 284.489C1021.13 284.348 1025.8 287.499 1027.3 291.379C1029.36 296.733 1024.76 302.649 1023.13 308.232C1020.9 315.525 1022.28 326.269 1015.5 329.877C1008.74 333.468 1000.48 326.558 993.317 324.086C987.378 321.959 979.282 321.803 976.119 316.424Z" fill="#C3C8E1"/>
</g>
<path opacity="0.3" d="M1123.89 810.974C1119.39 811.702 1114.53 806.853 1113.03 800.071C1111.54 793.327 1113.92 787.242 1118.42 786.475C1122.88 785.708 1127.78 790.557 1129.32 797.339C1130.85 804.082 1128.39 810.168 1123.89 810.974ZM1096.55 811.451C1091.99 810.804 1089.36 804.806 1090.58 798.015C1091.92 791.183 1096.61 786.167 1101.13 786.776C1105.7 787.385 1108.29 793.384 1106.99 800.176C1105.73 807.007 1101.04 812.023 1096.55 811.451ZM1144.04 793.027C1139.72 794.977 1133.73 791.677 1130.53 785.804C1127.52 779.814 1128.4 773.449 1132.69 771.5C1136.98 769.551 1142.93 772.813 1146.05 778.763C1149.18 784.714 1148.22 791.118 1144.04 793.027ZM1075.22 794.229C1070.98 792.467 1069.8 786.1 1072.71 780.043C1075.63 773.987 1081.46 770.52 1085.81 772.318C1090.16 774.116 1091.27 780.446 1088.47 786.539C1085.48 792.519 1079.61 796.026 1075.22 794.229ZM1080.88 752.897C1080.67 749.305 1083.35 745.28 1086.61 743.732C1093.4 740.477 1101.62 746.836 1109.23 746.703C1116.84 746.57 1124.91 739.659 1131.69 742.945C1135.55 744.752 1138.28 749.677 1137.85 753.815C1137.26 759.524 1130.47 762.703 1126.49 766.941C1121.19 772.427 1117.55 782.627 1109.86 782.761C1102.21 782.894 1097.99 772.985 1092.73 767.531C1088.4 762.94 1081.26 759.125 1080.88 752.897Z" fill="#C3C8E1"/>
<path opacity="0.3" d="M211.491 39.4252C211.427 43.984 205.807 47.9339 198.868 48.2288C191.966 48.5297 186.387 45.1292 186.413 40.5643C186.433 36.0372 192.06 32.0496 199.005 31.717C205.912 31.3783 211.479 34.8543 211.491 39.4252ZM207.213 66.4326C205.784 70.8139 199.421 72.3616 192.944 69.9807C186.448 67.4804 182.323 61.9871 183.709 57.6376C185.101 53.2503 191.458 51.7403 197.922 54.1969C204.431 56.6216 208.555 62.1149 207.213 66.4326ZM197.316 16.4648C198.485 21.064 194.196 26.3863 187.857 28.5186C181.434 30.4441 175.319 28.4689 174.144 23.9074C172.969 19.346 177.215 14.0554 183.618 12.0107C190.021 9.9659 196.161 12.0226 197.316 16.4648ZM186.547 84.4556C184.076 88.3234 177.601 88.3819 172.143 84.4586C166.685 80.5353 164.283 74.1919 166.81 70.2167C169.336 66.2415 175.762 66.2526 181.276 70.0685C186.646 74.0554 189.08 80.4426 186.547 84.4556ZM146.828 71.6983C143.253 71.287 139.755 67.9452 138.797 64.4634C136.77 57.2116 144.46 50.2208 145.651 42.704C146.841 35.1873 141.436 26.045 145.85 19.9295C148.299 16.4453 153.623 14.6168 157.624 15.7539C163.145 17.3253 165.096 24.5652 168.579 29.2212C173.061 35.3907 182.473 40.7533 181.27 48.3456C180.074 55.9002 169.581 58.3426 163.296 62.5744C158.024 66.0373 153.026 72.409 146.828 71.6983Z" fill="#C3C8E1"/>
<g clip-path="url(#clip2_2621_5622)">
<path opacity="0.3" d="M930.811 298.644C927.131 301.336 920.594 299.225 916.183 293.861C911.789 288.53 911.148 282.028 914.809 279.302C918.436 276.593 925.007 278.687 929.452 284.033C933.88 289.346 934.454 295.884 930.811 298.644ZM906.667 311.481C902.308 312.976 897.243 308.826 895.246 302.221C893.334 295.528 895.239 288.928 899.546 287.417C903.888 285.888 908.919 290.056 910.848 296.697C912.828 303.354 910.923 309.955 906.667 311.481ZM940.617 273.505C937.647 277.207 930.816 276.985 925.298 273.205C919.895 269.234 917.792 263.162 920.728 259.479C923.664 255.795 930.444 256.002 935.93 259.885C941.417 263.768 943.47 269.91 940.617 273.505ZM879.837 305.823C875.26 306.177 871.317 301.041 871.165 294.321C871.014 287.601 874.634 281.865 879.33 281.491C884.025 281.116 887.883 286.255 888.154 292.955C888.202 299.643 884.566 305.431 879.837 305.823ZM866.121 266.424C864.298 263.322 864.862 258.517 867.066 255.656C871.638 249.673 881.849 251.608 888.568 248.035C895.288 244.462 899.336 234.643 906.877 234.488C911.134 234.347 915.798 237.498 917.298 241.378C919.365 246.733 914.757 252.648 913.135 258.232C910.905 265.524 912.286 276.268 905.499 279.877C898.746 283.468 890.481 276.558 883.319 274.085C877.38 271.959 869.284 271.802 866.121 266.424Z" fill="#C3C8E1"/>
</g>
<g clip-path="url(#clip3_2621_5622)">
<path opacity="0.3" d="M1027.75 711.943C1023.34 710.778 1020.87 704.369 1022.26 697.565C1023.64 690.796 1028.29 686.205 1032.71 687.335C1037.1 688.449 1039.61 694.874 1038.25 701.693C1036.91 708.476 1032.19 713.037 1027.75 711.943ZM1002.58 701.259C998.675 698.812 998.713 692.263 1002.59 686.555C1006.59 680.857 1012.92 678.184 1016.8 680.581C1020.72 682.992 1020.65 689.526 1016.7 695.204C1012.77 700.932 1006.45 703.606 1002.58 701.259ZM1053.46 703.744C1048.71 703.765 1044.59 698.316 1044.05 691.649C1043.74 684.952 1047.13 679.496 1051.84 679.46C1056.55 679.423 1060.66 684.823 1061.09 691.53C1061.53 698.237 1058.05 703.698 1053.46 703.744ZM990.092 676.847C986.937 673.513 988.447 667.216 993.574 662.869C998.701 658.523 1005.44 657.726 1008.68 661.14C1011.93 664.553 1010.36 670.786 1005.33 675.212C1000.16 679.458 993.373 680.275 990.092 676.847ZM1012.08 641.393C1013.34 638.024 1017.43 635.439 1021.04 635.351C1028.57 635.139 1033.49 644.292 1040.5 647.265C1047.5 650.239 1057.68 647.206 1062.55 652.969C1065.34 656.188 1065.82 661.795 1063.75 665.403C1060.89 670.379 1053.39 670.521 1048.03 672.774C1040.96 675.631 1033.48 683.465 1026.41 680.462C1019.37 677.473 1019.53 666.701 1016.95 659.58C1014.86 653.626 1009.89 647.236 1012.08 641.393Z" fill="#C3C8E1"/>
</g>
<g clip-path="url(#clip4_2621_5622)">
<path opacity="0.3" d="M84.7827 91.8564C82.8702 95.9952 76.1291 97.3174 69.6701 94.7645C63.2432 92.2325 59.5295 86.8567 61.4099 82.6971C63.2696 78.5696 70.0315 77.2152 76.5113 79.736C82.959 82.236 86.6312 87.6759 84.7827 91.8564ZM69.8901 114.789C66.802 118.21 60.3597 117.036 55.4117 112.227C50.494 107.3 48.9601 100.604 51.9953 97.1944C55.0512 93.7526 61.4728 94.9587 66.3791 99.8322C71.3384 104.694 72.8723 111.391 69.8901 114.789ZM81.1723 65.1156C80.3694 69.7927 74.2864 72.9103 67.6278 72.2798C60.9772 71.4264 56.1945 67.1349 56.9766 62.49C57.7586 57.845 63.7887 54.7386 70.4698 55.4749C77.1509 56.2113 81.9239 60.5877 81.1723 65.1156ZM43.6803 122.848C39.8496 125.377 33.9101 122.796 30.52 116.992C27.1299 111.188 27.515 104.416 31.4403 101.812C35.3656 99.2086 41.2314 101.832 44.716 107.561C48.0003 113.387 47.6264 120.213 43.6803 122.848ZM12.5833 95.0384C9.48503 93.2088 7.64904 88.7333 8.18945 85.1626C9.28779 77.7135 19.156 74.4548 23.301 68.0721C27.4459 61.6894 26.2263 51.1389 32.7467 47.3477C36.4012 45.161 42.008 45.6557 45.2012 48.3221C49.6052 52.003 48.4428 59.4105 49.7309 65.0806C51.3165 72.5399 57.7331 81.2669 53.5465 87.7138C49.3807 94.1285 38.8016 92.092 31.339 93.4017C25.114 94.4208 17.9571 98.209 12.5833 95.0384Z" fill="#C3C8E1"/>
</g>
<g clip-path="url(#clip5_2621_5622)">
<path opacity="0.3" d="M590.447 136.124C589.437 140.57 583.118 143.265 576.269 142.111C569.457 140.97 564.706 136.484 565.681 132.025C566.642 127.601 572.974 124.87 579.837 125.989C586.663 127.093 591.386 131.651 590.447 136.124ZM580.648 161.652C578.339 165.64 571.793 165.831 565.953 162.156C560.119 158.36 557.226 152.129 559.486 148.163C561.76 144.161 568.292 144.005 574.104 147.752C579.966 151.477 582.858 157.708 580.648 161.652ZM581.356 110.719C581.543 115.46 576.241 119.775 569.597 120.542C562.914 121.09 557.344 117.887 557.143 113.181C556.942 108.475 562.195 104.183 568.883 103.514C575.571 102.845 581.15 106.133 581.356 110.719ZM556.686 174.985C553.465 178.254 547.119 176.965 542.596 171.993C538.073 167.021 537.042 160.316 540.34 156.953C543.639 153.59 549.922 154.937 554.521 159.816C558.945 164.832 559.998 171.586 556.686 174.985ZM520.487 154.248C517.076 153.102 514.35 149.106 514.136 145.501C513.661 137.987 522.637 132.748 525.364 125.643C528.091 118.538 524.705 108.471 530.294 103.407C533.414 100.508 539.001 99.8266 542.679 101.771C547.752 104.456 548.155 111.943 550.594 117.221C553.696 124.188 561.787 131.39 559.032 138.567C556.291 145.707 545.52 145.915 538.493 148.747C532.615 151.038 526.403 156.232 520.487 154.248Z" fill="#C3C8E1"/>
</g>
<defs>
<clipPath id="clip0_2621_5622">
<rect width="96" height="96" fill="white" transform="translate(626 53)"/>
</clipPath>
<clipPath id="clip1_2621_5622">
<rect width="96" height="96" fill="white" transform="translate(964 277)"/>
</clipPath>
<clipPath id="clip2_2621_5622">
<rect width="96" height="96" fill="white" transform="translate(854 227)"/>
</clipPath>
<clipPath id="clip3_2621_5622">
<rect width="96" height="96" fill="white" transform="translate(980 627)"/>
</clipPath>
<clipPath id="clip4_2621_5622">
<rect width="96" height="96" fill="white" transform="translate(0 37)"/>
</clipPath>
<clipPath id="clip5_2621_5622">
<rect width="96" height="96" fill="white" transform="translate(505 89)"/>
</clipPath>
</defs>
</svg>
