<svg width="44" height="44" viewBox="0 0 44 44" fill="none" xmlns="http://www.w3.org/2000/svg">
<path d="M38.2122 14.4322C38.0975 14.2949 37.954 14.1845 37.792 14.1088C37.6299 14.033 37.4532 13.9937 37.2743 13.9938H12.6309L11.7021 8.88695C11.6509 8.60536 11.5026 8.35065 11.2829 8.16724C11.0632 7.98383 10.7861 7.88334 10.4999 7.8833H6.72209C6.39797 7.8833 6.08713 8.01206 5.85794 8.24124C5.62876 8.47043 5.5 8.78128 5.5 9.1054C5.5 9.42952 5.62876 9.74036 5.85794 9.96955C6.08713 10.1987 6.39797 10.3275 6.72209 10.3275H9.47178L13.3763 31.7585C13.4914 32.394 13.7722 32.9879 14.1906 33.4801C13.6132 34.0194 13.1965 34.708 12.9866 35.4697C12.7767 36.2313 12.7819 37.0362 13.0015 37.7951C13.2212 38.554 13.6467 39.2373 14.2309 39.7691C14.8152 40.3009 15.5353 40.6605 16.3114 40.8081C17.0876 40.9556 17.8894 40.8853 18.628 40.6049C19.3667 40.3246 20.0132 39.8451 20.496 39.2198C20.9788 38.5944 21.2789 37.8475 21.3631 37.062C21.4474 36.2764 21.3124 35.4829 20.9731 34.7694H27.9115C27.6381 35.3418 27.4967 35.9682 27.4976 36.6025C27.4976 37.4485 27.7484 38.2755 28.2184 38.9789C28.6884 39.6823 29.3564 40.2305 30.138 40.5543C30.9196 40.878 31.7796 40.9627 32.6093 40.7977C33.439 40.6326 34.2012 40.2253 34.7994 39.6271C35.3976 39.0289 35.8049 38.2667 35.97 37.437C36.135 36.6073 36.0503 35.7472 35.7266 34.9657C35.4028 34.1841 34.8546 33.5161 34.1512 33.0461C33.4478 32.5761 32.6208 32.3252 31.7749 32.3252H16.983C16.6968 32.3252 16.4197 32.2247 16.2 32.0413C15.9803 31.8578 15.832 31.6031 15.7808 31.3216L15.2966 28.6589H33.0168C33.8754 28.6588 34.7067 28.3573 35.3658 27.8071C36.0249 27.2569 36.47 26.4927 36.6235 25.648L38.4811 15.4343C38.5125 15.2578 38.5047 15.0765 38.4583 14.9033C38.4118 14.7301 38.3278 14.5693 38.2122 14.4322ZM18.943 36.6025C18.943 36.9651 18.8354 37.3195 18.634 37.621C18.4326 37.9224 18.1463 38.1574 17.8113 38.2961C17.4764 38.4349 17.1078 38.4712 16.7522 38.4004C16.3966 38.3297 16.07 38.1551 15.8136 37.8988C15.5572 37.6424 15.3826 37.3158 15.3119 36.9602C15.2412 36.6046 15.2775 36.236 15.4162 35.901C15.555 35.5661 15.7899 35.2798 16.0914 35.0783C16.3928 34.8769 16.7473 34.7694 17.1098 34.7694C17.596 34.7694 18.0623 34.9625 18.406 35.3063C18.7498 35.6501 18.943 36.1164 18.943 36.6025ZM33.608 36.6025C33.608 36.9651 33.5005 37.3195 33.2991 37.621C33.0976 37.9224 32.8113 38.1574 32.4764 38.2961C32.1414 38.4349 31.7728 38.4712 31.4172 38.4004C31.0616 38.3297 30.735 38.1551 30.4786 37.8988C30.2223 37.6424 30.0477 37.3158 29.977 36.9602C29.9062 36.6046 29.9425 36.236 30.0813 35.901C30.22 35.5661 30.455 35.2798 30.7564 35.0783C31.0579 34.8769 31.4123 34.7694 31.7749 34.7694C32.261 34.7694 32.7273 34.9625 33.0711 35.3063C33.4149 35.6501 33.608 36.1164 33.608 36.6025Z" fill="#C3C8E1"/>
<path d="M34.3677 3.3667C33.3987 3.3667 32.8094 3.55576 32.4694 3.71618C32.033 3.49847 31.5344 3.3667 30.9677 3.3667C30.401 3.3667 29.9024 3.49847 29.466 3.71618C29.126 3.55576 28.5367 3.3667 27.5677 3.3667C25.8677 3.3667 24.7344 7.95003 24.7344 9.09587C24.7344 9.57139 25.4824 10.0068 26.5137 10.1844C26.8764 11.4677 28.5877 12.4474 30.6844 12.5334V10.0813C30.35 9.8693 29.8344 9.48545 29.8344 9.09587C29.8344 8.52295 30.9677 8.52295 30.9677 8.52295C30.9677 8.52295 32.101 8.52295 32.101 9.09587C32.101 9.48545 31.5854 9.8693 31.251 10.0813V12.5334C33.3477 12.4474 35.059 11.4677 35.4217 10.1844C36.453 10.0068 37.201 9.57139 37.201 9.09587C37.201 7.95003 36.0677 3.3667 34.3677 3.3667ZM26.5194 9.02139C26.236 8.95264 26.015 8.87243 25.8677 8.80941C26.0094 7.22243 27.1144 4.7417 27.596 4.51253C27.902 4.51253 28.1344 4.54691 28.344 4.57555C27.154 5.89899 26.6837 7.97295 26.5194 9.02139ZM29.2677 7.95003C29.1174 7.95003 28.9733 7.88967 28.867 7.78223C28.7607 7.67479 28.701 7.52906 28.701 7.37712C28.701 7.06774 28.956 6.8042 29.2677 6.8042C29.418 6.8042 29.5621 6.86456 29.6684 6.972C29.7747 7.07945 29.8344 7.22517 29.8344 7.37712C29.8344 7.69795 29.5794 7.95003 29.2677 7.95003ZM32.6677 7.95003C32.5174 7.95003 32.3733 7.88967 32.267 7.78223C32.1607 7.67479 32.101 7.52906 32.101 7.37712C32.101 7.06774 32.356 6.8042 32.6677 6.8042C32.818 6.8042 32.9621 6.86456 33.0684 6.972C33.1747 7.07945 33.2344 7.22517 33.2344 7.37712C33.2344 7.69795 32.9794 7.95003 32.6677 7.95003ZM35.416 9.02139C35.2517 7.97295 34.7814 5.89899 33.5914 4.57555C33.801 4.54691 34.0334 4.51253 34.3394 4.51253C34.821 4.7417 35.926 7.22243 36.0677 8.80941C35.926 8.87243 35.705 8.95264 35.416 9.02139Z" fill="#C3C8E1"/>
<path d="M22.4635 3.07325C22.3217 3.00596 22.1626 2.98432 22.0081 3.01128C21.8535 3.03825 21.7111 3.1125 21.6001 3.2239C21.5934 3.23059 21.5877 3.23681 21.582 3.24351L20.7605 4.19523C19.9183 3.66569 18.9447 3.38488 17.9512 3.38488C16.9576 3.38488 15.9841 3.66569 15.1419 4.19523L14.318 3.24351C14.3123 3.23681 14.3066 3.23059 14.2999 3.2239C14.1889 3.1125 14.0465 3.03825 13.8919 3.01128C13.7374 2.98432 13.5783 3.00596 13.4365 3.07325C13.3041 3.13859 13.1928 3.2403 13.1156 3.36659C13.0383 3.49288 12.9983 3.63858 13.0001 3.7868V7.97345C13.0001 10.3169 14.9067 12.26 17.3579 12.5322C17.3846 12.5351 17.4116 12.5324 17.4372 12.5241C17.4628 12.5159 17.4863 12.5022 17.5063 12.4842C17.5262 12.4661 17.5422 12.444 17.553 12.4193C17.5639 12.3946 17.5694 12.3679 17.5692 12.3409V10.8105L16.9305 10.1682C16.8581 10.0975 16.8156 10.0015 16.812 9.90021C16.8084 9.79888 16.8438 9.70006 16.911 9.62438C16.9459 9.58701 16.9879 9.55707 17.0346 9.53634C17.0813 9.51561 17.1316 9.50452 17.1826 9.50371C17.2336 9.50291 17.2843 9.51242 17.3316 9.53167C17.3788 9.55092 17.4218 9.57952 17.4579 9.61577L17.95 10.1103L18.4421 9.6153C18.4782 9.57904 18.5212 9.55044 18.5684 9.53119C18.6157 9.51194 18.6664 9.50243 18.7174 9.50323C18.7684 9.50404 18.8187 9.51513 18.8654 9.53586C18.9121 9.55659 18.9541 9.58653 18.989 9.6239C19.0562 9.69958 19.0916 9.7984 19.088 9.89973C19.0844 10.0011 19.0419 10.0971 18.9695 10.1677L18.3308 10.81V12.3404C18.3306 12.3674 18.3361 12.3941 18.347 12.4188C18.3578 12.4435 18.3738 12.4656 18.3937 12.4837C18.4137 12.5018 18.4372 12.5154 18.4628 12.5236C18.4884 12.5319 18.5154 12.5347 18.5421 12.5317C20.9933 12.2596 22.8999 10.3169 22.8999 7.97345V3.7868C22.9017 3.63858 22.8617 3.49288 22.7844 3.36659C22.7072 3.2403 22.5959 3.13859 22.4635 3.07325ZM15.8558 8.73865C15.7428 8.73865 15.6324 8.70499 15.5385 8.64193C15.4446 8.57887 15.3714 8.48924 15.3281 8.38437C15.2849 8.2795 15.2736 8.16411 15.2956 8.05278C15.3177 7.94146 15.3721 7.8392 15.4519 7.75894C15.5318 7.67867 15.6336 7.62401 15.7444 7.60187C15.8552 7.57973 15.97 7.59109 16.0744 7.63453C16.1787 7.67797 16.2679 7.75152 16.3307 7.8459C16.3934 7.94028 16.4269 8.05124 16.4269 8.16475C16.4269 8.31696 16.3668 8.46293 16.2597 8.57056C16.1525 8.67819 16.0073 8.73865 15.8558 8.73865ZM16.8077 5.67782C16.8077 5.7793 16.7676 5.87661 16.6962 5.94836C16.6248 6.02012 16.5279 6.06043 16.4269 6.06043C16.326 6.06043 16.2291 6.02012 16.1577 5.94836C16.0863 5.87661 16.0462 5.7793 16.0462 5.67782V4.76914C16.0462 4.66767 16.0863 4.57035 16.1577 4.4986C16.2291 4.42684 16.326 4.38653 16.4269 4.38653C16.5279 4.38653 16.6248 4.42684 16.6962 4.4986C16.7676 4.57035 16.8077 4.66767 16.8077 4.76914V5.67782ZM18.3308 5.67782C18.3308 5.7793 18.2906 5.87661 18.2192 5.94836C18.1478 6.02012 18.051 6.06043 17.95 6.06043C17.849 6.06043 17.7522 6.02012 17.6808 5.94836C17.6094 5.87661 17.5692 5.7793 17.5692 5.67782V4.53001C17.5692 4.42854 17.6094 4.33122 17.6808 4.25947C17.7522 4.18772 17.849 4.14741 17.95 4.14741C18.051 4.14741 18.1478 4.18772 18.2192 4.25947C18.2906 4.33122 18.3308 4.42854 18.3308 4.53001V5.67782ZM19.0923 5.67782V4.76914C19.0923 4.66767 19.1324 4.57035 19.2038 4.4986C19.2752 4.42684 19.3721 4.38653 19.4731 4.38653C19.574 4.38653 19.6709 4.42684 19.7423 4.4986C19.8137 4.57035 19.8538 4.66767 19.8538 4.76914V5.67782C19.8538 5.7793 19.8137 5.87661 19.7423 5.94836C19.6709 6.02012 19.574 6.06043 19.4731 6.06043C19.3721 6.06043 19.2752 6.02012 19.2038 5.94836C19.1324 5.87661 19.0923 5.7793 19.0923 5.67782ZM20.0442 8.73865C19.9312 8.73865 19.8208 8.70499 19.7269 8.64193C19.633 8.57887 19.5598 8.48924 19.5165 8.38437C19.4733 8.2795 19.462 8.16411 19.484 8.05278C19.5061 7.94146 19.5605 7.8392 19.6403 7.75894C19.7202 7.67867 19.822 7.62401 19.9328 7.60187C20.0436 7.57973 20.1584 7.59109 20.2628 7.63453C20.3671 7.67797 20.4563 7.75152 20.5191 7.8459C20.5819 7.94028 20.6154 8.05124 20.6154 8.16475C20.6154 8.31696 20.5552 8.46293 20.4481 8.57056C20.341 8.67819 20.1957 8.73865 20.0442 8.73865Z" fill="#C3C8E1"/>
</svg>
