<svg width="788" height="742" viewBox="0 0 788 742" fill="none" xmlns="http://www.w3.org/2000/svg">
<g opacity="0.15">
<path fill-rule="evenodd" clip-rule="evenodd" d="M715.217 293.018C714.521 294.07 713.109 294.356 712.058 293.658C698.061 284.37 684.771 275.553 672.131 267.168C532.835 174.76 472.524 134.75 415.282 93.8242C414.257 93.0916 414.009 91.6668 414.726 90.6327C415.444 89.5986 416.858 89.3422 417.893 90.0585C474.405 129.133 531.075 166.932 588.884 205.491C630.088 232.974 671.872 260.844 714.588 289.836C715.632 290.544 715.913 291.966 715.217 293.018ZM712.11 281.114C711.412 282.16 710.003 282.442 708.955 281.745C653.527 244.888 595.082 205.381 535.055 164.806C498.4 140.029 461.154 114.852 423.646 89.6374C422.613 88.9431 422.317 87.5484 422.979 86.495C423.641 85.4416 425.019 85.114 426.084 85.7569C445.706 97.5999 464.793 109.658 485.613 123.3C466.978 110.266 449.414 97.82 431.91 85.3811C431.909 85.3804 431.908 85.3797 431.907 85.379C430.875 84.6458 430.627 83.212 431.352 82.1758C432.077 81.1395 433.502 80.8927 434.535 81.6244C524.946 145.663 615.098 206.003 708.339 265.985C709.403 266.669 709.717 268.089 709.042 269.158C708.366 270.227 706.956 270.541 705.89 269.86C668.109 245.73 635.388 224.476 606.326 205.291C617.705 213.146 629.758 221.476 642.587 230.343C663.375 244.71 686.201 260.486 711.501 277.933C712.537 278.648 712.809 280.068 712.11 281.114ZM705.917 257.283C705.23 258.332 703.83 258.629 702.776 257.948C664.948 233.523 629.773 209.543 595.98 186.238C587.46 180.363 579.027 174.53 570.662 168.743C569.281 167.788 567.903 166.835 566.526 165.882C523.704 136.265 482.576 107.896 440.321 81.2245L441.532 79.2783L442.848 77.4021C483.491 106.289 525.438 134.049 573.668 165.966C581.758 171.32 590.024 176.79 598.49 182.402C632.29 205.712 667.439 229.675 705.238 254.081L704.007 256.014L702.727 257.915C663.427 231.081 628.265 207.64 595.98 186.238M598.49 182.402C630.75 203.786 665.915 227.23 705.287 254.114C706.324 254.821 706.604 256.234 705.917 257.283M702.83 245.35C702.149 246.414 700.738 246.722 699.676 246.037C642.757 209.329 576.592 164.221 506.255 116.27C486.061 102.503 465.524 88.5021 444.763 74.3982C443.719 73.6884 443.439 72.2643 444.137 71.2129C444.836 70.1616 446.25 69.8789 447.3 70.5807C473.522 88.1056 498.896 105.47 525.992 124.012C574.355 157.107 628.203 193.956 702.145 242.175C703.204 242.865 703.51 244.285 702.83 245.35ZM699.673 233.522C698.952 234.554 697.536 234.805 696.503 234.084C656.546 206.213 616.039 179.433 575.541 152.658L574.702 152.103C533.932 125.149 493.175 98.1923 453.049 70.1566C452.021 69.4389 451.755 68.0266 452.45 66.9849C453.145 65.9432 454.544 65.6579 455.592 66.3442C469.663 75.5582 483.471 84.535 497.262 93.5007C557.896 132.921 618.199 172.126 699.127 230.327C700.15 231.063 700.394 232.489 699.673 233.522ZM696.592 221.585C695.886 222.63 694.472 222.902 693.427 222.194C612.297 167.18 532.781 113.671 461.398 65.9589C460.352 65.2597 460.059 63.845 460.741 62.7887C461.424 61.7323 462.827 61.4289 463.885 62.1088C538.444 109.997 613.419 161.132 695.995 218.397C697.032 219.116 697.299 220.541 696.592 221.585ZM693.541 209.597C692.889 210.649 691.523 210.988 690.454 210.363C642.38 182.215 595.653 149.279 550.146 117.202C526.98 100.873 504.13 84.767 481.579 69.6284C477.6 66.9763 473.658 64.3553 469.714 61.7387C468.66 61.0396 468.366 59.6159 469.056 58.5567C469.746 57.4975 471.16 57.2029 472.217 57.8983C476.223 60.5355 480.235 63.2048 484.253 65.9023C510.024 83.079 537.409 101.574 577.395 128.578C607.304 148.777 644.262 173.737 692.868 206.467C693.895 207.159 694.193 208.544 693.541 209.597ZM690.383 197.772C689.677 198.811 688.269 199.081 687.227 198.379C658.534 179.043 631.467 160.915 605.428 143.477C559.575 112.769 516.913 84.1978 474.192 54.9312C473.154 54.2202 472.877 52.8026 473.571 51.7542C474.265 50.7058 475.671 50.4181 476.722 51.1095C555.628 103.018 625.955 149.513 689.805 194.59C690.832 195.315 691.09 196.734 690.383 197.772ZM687.294 185.848C686.602 186.884 685.213 187.172 684.166 186.497C664.285 173.681 638.057 155.701 608.183 135.222C604.226 132.509 600.204 129.752 596.126 126.958C561.236 103.057 522.094 76.3782 482.55 50.739C481.506 50.0622 481.187 48.6732 481.831 47.6088C482.475 46.5445 483.846 46.1932 484.922 46.8171C542.58 80.2594 596.425 118.525 683.624 180.493L686.711 182.686C687.727 183.408 687.986 184.813 687.294 185.848ZM736.228 385.728C735.529 386.78 734.114 387.062 733.064 386.359C709.471 370.568 686.454 355.202 663.95 340.191C648.625 330.063 632.772 319.628 616.502 308.918C535.706 255.735 444.593 195.761 356.414 132.743C355.388 132.01 355.141 130.583 355.86 129.549C356.579 128.515 357.995 128.261 359.03 128.98C444.171 188.146 533.318 247.583 632.248 313.542C643.477 321.029 654.833 328.6 666.323 336.265M733.118 373.829C732.421 374.862 731.031 375.143 729.987 374.463C558.342 262.655 477.294 206.46 411.689 160.973C395.481 149.735 380.216 139.151 364.76 128.543C363.718 127.828 363.445 126.402 364.15 125.354C364.855 124.306 366.271 124.031 367.317 124.74C416.141 157.81 464.554 189.791 511.632 220.89C590.455 272.96 665.539 322.559 732.549 370.665C733.562 371.391 733.814 372.797 733.118 373.829ZM723.816 338.097C723.115 339.143 721.706 339.422 720.659 338.723C668.334 303.797 612.958 266.366 556.335 228.092C500.166 190.125 442.77 151.328 385.904 113.323C384.853 112.62 384.563 111.196 385.257 110.139C385.95 109.082 387.365 108.792 388.419 109.491C510.713 190.518 627.152 268.439 723.211 334.916C724.246 335.632 724.516 337.052 723.816 338.097ZM720.719 326.179C720.023 327.232 718.609 327.518 717.557 326.818C625.002 265.204 562.47 222.185 515.016 189.537C487.558 170.647 465.148 155.23 444.89 141.693C427.811 130.447 411.275 119.789 394.271 109.135C393.202 108.465 392.869 107.054 393.527 105.978C394.184 104.901 395.584 104.563 396.66 105.222C413.16 115.326 429.365 125.809 447.24 137.752C482.134 160.727 519.284 186.149 567.251 218.976C608.421 247.151 657.561 280.779 720.085 322.995C721.132 323.702 721.416 325.126 720.719 326.179ZM717.617 314.275C716.924 315.319 715.524 315.607 714.474 314.922C638.919 265.583 569.779 218.508 501.786 172.214C469.19 150.02 436.858 128.006 404.209 106.009C403.645 105.629 403.081 105.249 402.517 104.869C401.467 104.161 401.183 102.733 401.884 101.679C402.584 100.625 404.003 100.344 405.053 101.051C405.054 101.051 405.054 101.051 405.054 101.051C405.615 101.429 406.176 101.807 406.736 102.185C434.315 120.758 462.645 139.583 492.554 159.456C557.218 202.423 629.256 250.291 717.008 311.103C718.039 311.817 718.31 313.23 717.617 314.275ZM714.524 302.351C713.832 303.407 712.419 303.7 711.365 303.004C633.235 251.508 564.554 204.881 497.576 159.411C468.549 139.706 439.843 120.217 410.826 100.644C409.778 99.9371 409.494 98.5125 410.191 97.4588C410.888 96.4051 412.302 96.1196 413.354 96.8205C443.703 117.046 473.005 136.88 509.524 161.6C558.249 194.581 619.822 236.26 713.875 299.169C714.925 299.872 715.215 301.295 714.524 302.351ZM680.347 171.434C679.615 172.462 678.193 172.699 677.166 171.965C659.472 159.31 632.705 141.594 601.481 120.926C600.232 120.1 598.976 119.268 597.713 118.432C573.661 102.511 547.148 84.9393 520.252 66.6723C510.015 59.9432 500.303 53.3488 490.764 46.4484C489.745 45.7113 489.503 44.2881 490.223 43.258C490.943 42.2279 492.354 41.9753 493.388 42.6917C503.169 49.4717 512.999 56.2061 522.781 62.8493C532.269 69.0858 542.226 75.4491 552.953 82.3043C558.106 85.5973 563.436 89.0038 568.978 92.5642C598.437 111.492 633.76 134.711 679.823 168.231C680.844 168.974 681.078 170.406 680.347 171.434ZM738.634 406.975C737.94 408.028 736.528 408.317 735.476 407.62C608.117 323.343 527.806 268.405 466.4 226.4C454.212 218.062 442.768 210.234 431.849 202.787C401.461 182.385 372.524 163.021 343.659 143.794C342.61 143.095 342.316 141.677 343.002 140.619C343.687 139.561 345.095 139.261 346.152 139.948C374.67 158.446 402.202 177.022 434.257 198.883C498.943 242.312 570.187 290.439 661.263 351.962C685.37 368.247 710.867 385.47 737.998 403.793C739.044 404.5 739.329 405.922 738.634 406.975ZM735.507 395.102C734.793 396.138 733.381 396.399 732.342 395.687C630.446 325.755 556.995 276.603 498.198 237.496C486.484 229.704 475.351 222.311 464.689 215.231C421.841 186.778 386.612 163.383 351.942 139.551C350.903 138.837 350.629 137.416 351.329 136.369C352.028 135.321 353.438 135.04 354.486 135.739C384.831 155.96 414.984 175.995 444.53 195.626C558.13 271.108 662.766 340.633 734.942 391.912C735.969 392.642 736.221 394.065 735.507 395.102ZM726.22 359.355C725.522 360.398 724.117 360.68 723.07 359.987C635.311 301.913 538.68 236.467 441.312 170.521C418.574 155.121 395.797 139.694 373.082 124.327C372.039 123.621 371.755 122.202 372.446 121.149C373.138 120.097 374.547 119.806 375.6 120.497C507.524 207.134 634.105 292.543 725.618 356.178C726.65 356.895 726.918 358.311 726.22 359.355ZM723.106 347.456C722.406 348.488 721.012 348.765 719.97 348.08C717.268 346.303 714.563 344.524 711.856 342.744C602.877 271.081 489.822 196.737 381.354 120.076C380.321 119.346 380.068 117.915 380.788 116.877C381.509 115.839 382.93 115.586 383.966 116.311C450.507 162.893 517.953 207.532 577.364 246.703C581.669 249.542 585.932 252.352 590.15 255.132C644.115 290.701 690.649 321.372 722.542 344.287C723.555 345.015 723.806 346.424 723.106 347.456ZM673.466 156.929C672.761 157.959 671.364 158.229 670.325 157.537C634.578 133.731 605.931 114.076 581.162 97.082C579.931 96.2378 578.711 95.4002 577.499 94.5689C574.755 92.813 572.063 91.0953 569.42 89.4107C567.226 88.0131 565.066 86.6379 562.936 85.2821C538.692 69.8508 518.398 56.9343 499.028 42.1905C498.052 41.4474 497.828 40.0648 498.52 39.0528C499.211 38.0408 500.574 37.7577 501.612 38.4104C526.08 53.7935 550.327 70.3712 580.013 90.7353C605.492 107.042 635.479 126.668 672.914 153.756C673.926 154.488 674.172 155.899 673.466 156.929ZM741.037 428.228C740.346 429.279 738.94 429.57 737.887 428.881C628.24 357.09 488.34 262.107 345.501 164.819C339.337 160.626 333.176 156.429 327.019 152.229C325.973 151.515 325.697 150.086 326.403 149.036C327.109 147.986 328.529 147.712 329.576 148.425C329.576 148.426 329.577 148.426 329.577 148.426C329.587 148.433 329.596 148.439 329.606 148.446C335.757 152.637 341.905 156.824 348.047 161.008C419.637 209.706 491.442 257.783 560.576 304.071C623.451 346.169 684.117 386.788 740.406 425.052C741.447 425.759 741.729 427.177 741.037 428.228ZM737.947 416.298C737.265 417.363 735.852 417.668 734.79 416.979C641.418 356.397 562.907 302.605 489.979 252.638C436.666 216.11 386.336 181.627 335.367 148.03M737.947 416.298C738.63 415.233 738.324 413.811 737.264 413.12L737.947 416.298ZM737.264 413.12C654.106 358.94 583.358 310.743 518.847 266.572L737.264 413.12ZM518.847 266.572C511.815 261.757 504.858 256.99 497.966 252.269L518.847 266.572ZM497.966 252.269C441.635 213.675 389.709 178.099 337.85 144.177L497.966 252.269ZM335.365 148.029C335.363 148.028 335.361 148.026 335.359 148.025C334.303 147.329 334.004 145.906 334.691 144.845C335.378 143.783 336.792 143.485 337.85 144.177M743.434 449.484C742.739 450.538 741.327 450.827 740.274 450.13L740.259 450.119L730.764 443.833C664.131 399.721 608.587 362.949 560.326 330.847C581.531 345.442 602.024 359.616 621.677 373.209C666.755 404.388 707.413 432.509 742.088 455.643C743.142 456.346 743.432 457.772 742.736 458.83C742.041 459.887 740.623 460.175 739.57 459.472C739.569 459.472 739.569 459.472 739.569 459.472C739.554 459.462 739.538 459.452 739.523 459.442C546.689 330.87 448.291 264.073 371.798 212.146C347.094 195.376 324.675 180.156 302.098 164.908C301.06 164.208 300.771 162.801 301.448 161.749C302.124 160.696 303.517 160.386 304.577 161.053C331.993 178.311 359.118 195.772 385.774 213.219C360.171 195.606 335.525 178.429 310.368 160.656C309.344 159.933 309.085 158.518 309.787 157.48C310.489 156.442 311.892 156.166 312.935 156.86C378.099 200.228 442.17 243.474 545.942 313.516C599.243 349.493 663.018 392.539 742.796 446.302C743.843 447.008 744.128 448.43 743.434 449.484ZM740.318 437.6C739.611 438.646 738.194 438.917 737.15 438.206C710.3 419.932 678.178 398.165 642.183 373.847C615.823 356.211 588.224 337.861 559.805 318.966C553.768 314.952 547.694 310.914 541.587 306.853C469.643 259.007 393.136 207.981 318.696 156.444C317.66 155.728 317.391 154.307 318.092 153.262C318.794 152.217 320.204 151.939 321.25 152.639C438.73 231.271 554.014 308.748 644.716 370.026C678.742 392.792 710.713 414.376 739.717 434.409C740.757 435.127 741.025 436.554 740.318 437.6ZM666.566 142.447C665.859 143.492 664.443 143.764 663.399 143.055C651.685 135.101 640.754 127.733 630.502 120.857C617.156 112.057 604.663 104.037 592.741 96.3837C588.694 93.7853 584.712 91.2293 580.785 88.6992C556.288 72.917 533.925 58.1492 511.128 40.5193C510.14 39.7552 509.939 38.3382 510.676 37.3316C511.413 36.3251 512.817 36.0989 513.835 36.8228C534.566 51.5729 556.87 66.372 585.132 85.124C599.399 94.591 615.186 105.065 633.054 117.05C643.461 123.912 654.389 131.251 665.965 139.257C667.004 139.976 667.272 141.401 666.566 142.447ZM663.468 130.535C662.767 131.577 661.361 131.855 660.315 131.158C644.454 120.586 630.755 111.482 618.626 103.42C577.933 76.3732 554.903 61.0665 527.127 41.4784C526.096 40.7518 525.84 39.3266 526.553 38.2878C527.266 37.249 528.68 36.9862 529.72 37.6994C549.471 51.2514 570.34 65.1223 591.072 78.9017C615.925 95.4202 640.58 111.807 662.873 127.355C663.904 128.074 664.169 129.492 663.468 130.535ZM656.605 116.001C655.94 117.062 654.551 117.388 653.484 116.733C635.189 105.515 616.808 92.7841 597.941 79.6306C596.774 78.8172 595.606 78.0021 594.435 77.1856C584.462 70.2295 574.344 63.1726 564.009 56.1631C555.642 50.5168 547.517 45.1265 539.323 39.8695C538.258 39.1862 537.942 37.7661 538.617 36.6963C539.293 35.6265 540.703 35.3116 541.77 35.9927C550.408 41.5098 558.868 47.1318 567.181 52.7767C575.445 58.3573 583.966 64.1991 593.014 70.4022C611.145 82.8319 631.392 96.7122 655.917 112.849C656.963 113.537 657.269 114.94 656.605 116.001ZM742.029 468.183C741.331 469.238 739.913 469.522 738.862 468.817C699.433 442.376 663.226 418.112 629.589 395.57C486.641 299.775 390.102 235.08 289.973 166.566C288.932 165.853 288.656 164.43 289.356 163.381C290.056 162.332 291.468 162.051 292.517 162.753C335.252 191.333 377.293 219.703 436.507 259.662C505.452 306.186 597.677 368.421 741.387 464.992M742.029 468.183C742.728 467.128 742.442 465.701 741.392 464.995L742.029 468.183ZM741.392 464.995C741.391 464.995 741.39 464.994 741.39 464.994L741.392 464.995ZM649.543 101.752C648.795 102.686 647.456 102.88 646.47 102.198C635.876 94.8673 626.394 88.2173 617.726 82.1381C614.458 79.8464 611.306 77.6359 608.254 75.5005C607.019 74.7535 605.773 74.0026 604.519 73.2476C603.757 72.7888 602.992 72.3286 602.224 71.8669C586.418 62.3578 569.53 52.198 555.047 40.63C554.111 39.8823 553.902 38.5375 554.568 37.5431C555.234 36.5487 556.551 36.2394 557.59 36.8333C574.07 46.2495 590.23 57.2987 610.739 71.645C625.718 80.7017 639.663 89.4758 649.327 98.6345C650.198 99.4595 650.292 100.818 649.543 101.752ZM737.521 474.969C736.822 476.023 735.404 476.306 734.354 475.6C478.621 303.931 380.299 237.878 281.669 170.794C280.628 170.086 280.347 168.669 281.038 167.618C281.729 166.567 283.134 166.276 284.187 166.964C414.515 252.179 542.705 339.586 639.899 405.859C677.394 431.424 710.275 453.845 736.887 471.781C737.937 472.488 738.221 473.915 737.521 474.969ZM736.812 484.327C736.113 485.369 734.709 485.65 733.662 484.956C653.429 431.784 582.955 384.849 517.962 341.241C578.13 382.15 648.579 430.51 735.507 490.49C736.542 491.204 736.815 492.623 736.117 493.669C735.419 494.715 734.011 494.998 732.963 494.302C602.817 407.962 511.995 346.506 440.155 297.66C425.862 287.941 412.321 278.722 399.372 269.906C347.232 234.41 304.689 205.446 261.268 176.695C260.218 175.999 259.92 174.584 260.6 173.525C261.279 172.465 262.683 172.158 263.744 172.837C310.896 202.994 357.395 233.349 411.322 269.337C362.832 236.466 316.32 204.679 269.543 172.446C268.513 171.737 268.236 170.329 268.921 169.283C269.605 168.237 270.999 167.938 272.053 168.612C405.61 253.945 536.493 341.804 736.215 481.15C737.245 481.868 737.511 483.285 736.812 484.327ZM635.161 81.9738C634.481 83.0184 633.095 83.3235 632.04 82.6607C628.389 80.3677 624.896 78.1876 621.548 76.0977C601.944 63.8609 587.285 54.7105 574.714 44.0453C573.779 43.2518 573.628 41.8607 574.37 40.8871C575.113 39.9136 576.487 39.7018 577.49 40.4063C585.344 45.9221 593.591 51.3768 602.746 57.432L603.226 57.7495C612.566 63.9274 622.839 70.7275 634.538 78.8186C635.563 79.5277 635.84 80.9291 635.161 81.9738ZM735.423 503.004C734.734 504.052 733.333 504.346 732.28 503.663C667.914 461.913 572.861 397.437 465.429 324.564C396.795 278.008 323.108 228.025 249.143 178.351C248.096 177.648 247.807 176.227 248.498 175.172C249.189 174.117 250.599 173.824 251.654 174.516C424.045 287.664 592.887 402.722 734.797 499.833C735.833 500.542 736.112 501.955 735.423 503.004ZM734.709 512.367C734.007 513.418 732.589 513.696 731.541 512.987C705.261 495.231 679.384 477.731 653.85 460.459C600.167 424.394 549.591 390.853 501.344 358.856C406.151 295.726 320.024 238.607 236.985 179.981C235.961 179.258 235.701 177.844 236.402 176.805C237.104 175.767 238.506 175.49 239.55 176.184C363.364 258.397 487.273 342.228 619.87 431.937C631.94 440.103 644.081 448.317 656.302 456.584C681.512 473.52 707.414 491.017 734.089 509.178C735.135 509.889 735.412 511.317 734.709 512.367ZM734.005 521.717C733.301 522.768 731.882 523.044 730.834 522.333C598.934 432.847 484.02 354.909 372.806 280.321C321.866 246.219 275.259 215.177 228.728 184.242C227.674 183.541 227.381 182.116 228.074 181.057C228.767 179.999 230.183 179.708 231.238 180.407C279.303 212.256 326.974 244.064 375.345 276.504C470.394 340.134 580.526 414.415 733.377 518.52M734.005 521.717C734.71 520.667 734.433 519.238 733.387 518.526L734.005 521.717ZM733.387 518.526C733.386 518.525 733.384 518.524 733.383 518.524L733.387 518.526ZM729.514 528.484C728.819 529.539 727.405 529.828 726.352 529.129C682.869 500.297 643.398 474.004 607.318 449.876C598.012 443.712 588.642 437.508 579.214 431.267C463.064 354.37 338.218 271.717 216.562 185.871C215.538 185.148 215.278 183.733 215.979 182.695C216.681 181.656 218.083 181.38 219.127 182.073C262.641 210.977 305.997 240.496 358.579 276.296C375.048 287.509 392.422 299.338 410.989 311.957C464.853 348.566 528.771 391.833 609.792 446.016C650.897 473.242 690.771 499.709 728.872 525.3C729.921 526.005 730.208 527.429 729.514 528.484ZM728.807 537.838C728.113 538.885 726.71 539.173 725.659 538.484C682.412 510.123 643.075 484.175 607.051 460.283C649.326 489.084 688.522 516.271 723.719 541.472C724.739 542.202 724.988 543.621 724.278 544.655C723.567 545.688 722.161 545.953 721.122 545.248C687.773 522.623 655.866 500.958 625.154 480.105C523.632 411.171 435.176 351.11 350.909 294.584C350.551 294.346 350.193 294.109 349.835 293.872C299.729 260.658 248.215 226.509 196.188 191.79C195.137 191.089 194.846 189.667 195.536 188.61C196.226 187.552 197.638 187.258 198.694 187.952C250.069 221.702 300.924 255.535 353.401 290.736C378.144 307.138 402.544 323.313 426.493 339.217C379.472 307.311 339.823 280.101 303.66 255.284C297.898 251.329 292.223 247.435 286.622 243.593C259.336 225.083 231.872 206.358 204.473 187.549C203.431 186.834 203.158 185.408 203.862 184.36C204.566 183.312 205.982 183.037 207.029 183.744C233.925 201.923 260.619 220.196 289.201 239.804C363.065 289.91 435.627 338.439 502.066 382.779C513.598 390.475 524.945 398.045 536.083 405.475C612.817 456.664 679.609 501.221 728.191 534.663C729.226 535.376 729.5 536.791 728.807 537.838ZM719.795 551.409C719.101 552.458 717.695 552.746 716.644 552.055C604.159 478.099 499.546 408.793 398.722 340.718C413.61 350.903 428.774 361.295 444.274 371.915C523.189 425.991 610.781 486.012 714.64 554.998C715.693 555.698 715.987 557.122 715.296 558.18C714.606 559.239 713.192 559.533 712.136 558.838C599.839 484.91 504.602 420.266 417.536 360.962C408.098 354.534 398.756 348.167 389.498 341.859C313.356 289.974 242.952 241.998 171.966 195.123C170.915 194.429 170.615 193.015 171.292 191.955C171.97 190.895 173.372 190.585 174.434 191.26C217.046 218.361 259.355 246.29 303.141 275.756C263.122 248.366 223.51 220.999 184.035 193.427C183.005 192.708 182.74 191.291 183.44 190.249C184.14 189.207 185.545 188.928 186.591 189.624C201.699 199.669 216.705 209.636 231.851 219.695C348.805 297.374 474.099 380.594 719.172 548.232C720.211 548.942 720.489 550.36 719.795 551.409ZM710.777 564.989C710.077 566.039 708.663 566.319 707.614 565.616C635.605 517.357 562.221 467.683 488.043 417.471C456.892 396.385 425.602 375.204 394.214 353.994C387.477 349.497 380.872 345.091 374.389 340.767C360.025 331.188 346.259 322.016 332.989 313.175C268.763 270.383 216.156 235.333 163.623 199.325C162.584 198.613 162.308 197.193 163.005 196.144C163.703 195.096 165.112 194.812 166.161 195.509C243.168 246.603 320.24 298.473 396.734 350.165C477.17 403.858 576.327 470.398 710.158 561.803C711.201 562.515 711.477 563.939 710.777 564.989ZM706.267 571.782C705.561 572.828 704.146 573.101 703.101 572.392C424.839 383.663 300.674 300.69 190.8 227.267C178.869 219.295 167.107 211.435 155.335 203.564C154.286 202.863 153.995 201.443 154.684 200.387C155.372 199.33 156.781 199.034 157.837 199.724C328.105 310.93 499.781 426.283 705.666 568.594C706.705 569.311 706.974 570.737 706.267 571.782ZM701.764 578.567C701.06 579.614 699.646 579.889 698.6 579.184C630.495 533.248 562.656 487.885 495.284 442.833C376.091 363.13 258.36 284.403 143.197 205.213C142.159 204.499 141.886 203.079 142.584 202.031C143.283 200.984 144.692 200.702 145.74 201.399C163.513 213.22 181.34 225.067 199.268 236.983C349.784 337.017 507.49 441.829 701.158 575.381C702.197 576.097 702.468 577.521 701.764 578.567ZM693.476 582.759C692.792 583.815 691.387 584.117 690.329 583.433C649.227 556.89 607.593 529.324 565.406 501.001C604.11 527.572 644.964 555.913 688.358 586.401C689.386 587.123 689.647 588.54 688.944 589.58C688.241 590.62 686.836 590.895 685.791 590.197L673.137 581.739C382.11 387.205 254.43 301.86 126.575 213.66C125.537 212.944 125.266 211.522 125.967 210.476C126.669 209.43 128.08 209.151 129.127 209.852C172.237 238.721 216.203 267.689 262.582 298.246C316.178 333.559 372.996 370.994 435.436 412.851C430.649 409.583 425.854 406.309 421.052 403.028C330.563 342.167 232.94 276.223 134.896 209.443C133.854 208.733 133.575 207.313 134.27 206.263C134.965 205.212 136.374 204.926 137.425 205.62C225.654 263.942 311.436 322.567 395.042 379.704C404.589 386.229 414.108 392.735 423.6 399.218C525.612 467.829 618.558 529.98 692.82 579.586C693.868 580.286 694.16 581.702 693.476 582.759ZM680.64 593.796C679.939 594.844 678.527 595.123 677.479 594.421C671.086 590.137 664.553 585.759 657.887 581.293C516.213 486.369 314.386 351.14 114.474 215.329C113.432 214.621 113.15 213.201 113.844 212.15C114.539 211.099 115.948 210.81 117 211.504C340.749 359.144 564.544 511.26 680.028 590.611C681.068 591.326 681.341 592.748 680.64 593.796ZM676.129 600.586C675.424 601.633 674.007 601.906 672.962 601.197C526.937 502.17 419.36 430.379 332.368 372.326C241.204 311.489 172.648 265.739 106.145 219.54C105.11 218.822 104.843 217.401 105.546 216.357C106.249 215.313 107.659 215.037 108.705 215.739C147.425 241.728 186.18 267.455 228.047 295.248C337.557 367.946 468.36 454.778 675.523 597.397C676.564 598.113 676.835 599.539 676.129 600.586ZM667.82 604.809C667.115 605.858 665.697 606.131 664.651 605.421C602.717 563.375 535.429 518.264 465.078 471.169C440.853 455.107 417.104 439.412 393.757 423.983C289.273 354.932 192.844 291.206 97.8156 223.751C96.7892 223.023 96.536 221.6 97.2482 220.564C97.9604 219.527 99.3719 219.264 100.411 219.974C213.536 297.295 328.337 374.132 436.821 446.739C447.079 453.605 457.28 460.433 467.419 467.219C530.322 508.924 596.472 553.125 667.21 601.619C668.252 602.333 668.526 603.761 667.82 604.809ZM659.524 609.013C658.833 610.065 657.426 610.357 656.373 609.667C541.856 534.699 425.54 455.95 310.138 377.56C239.677 330.214 166.29 280.594 93.3445 230.56C92.3031 229.846 92.0294 228.421 92.7323 227.372C93.4353 226.324 94.8502 226.047 95.8973 226.753C154.39 266.185 213.57 306.4 273.069 346.832C286.268 355.802 299.483 364.781 312.709 373.766C369.628 412.013 424.634 448.774 475.958 483.075C545.042 529.245 607.457 570.958 658.89 605.836C659.932 606.543 660.215 607.961 659.524 609.013ZM647.395 610.702C646.691 611.745 645.281 612.019 644.236 611.316C546.159 545.325 465.831 492.084 397.656 447.021C469.788 495.228 549.965 549.645 642.298 614.305C643.332 615.029 643.593 616.455 642.881 617.496C642.17 618.537 640.754 618.802 639.713 618.089C506.571 526.907 389.707 447.941 278.653 373.579C271.422 368.807 264.263 364.084 257.17 359.404C194.514 318.068 136.999 280.122 80.5317 241.571C79.4907 240.86 79.2127 239.44 79.9095 238.39C80.6063 237.34 82.0164 237.056 83.0666 237.753C120.502 262.596 157.872 287.437 195.615 312.595C155.98 285.634 120.211 260.591 84.9751 234.742C83.9727 234.007 83.733 232.604 84.4348 231.579C85.1366 230.554 86.5244 230.28 87.5635 230.962C292.775 365.608 494.94 501.805 646.8 607.517C647.834 608.237 648.1 609.658 647.395 610.702ZM630.778 619.146C630.079 620.188 628.674 620.468 627.627 619.772C525.624 552.008 431.497 488.127 340.772 426.555L339.715 425.838C248.661 364.044 161.021 304.571 72.2491 245.814C71.1951 245.116 70.8987 243.694 71.5865 242.634C72.2741 241.575 73.6865 241.277 74.7441 241.969C80.0815 245.461 85.416 248.951 90.7521 252.441C238.505 349.098 387.445 446.531 630.183 615.968C631.213 616.687 631.478 618.104 630.778 619.146ZM618.664 620.807C617.96 621.855 616.544 622.13 615.498 621.423C478.167 528.554 376.541 460.557 294.077 405.382C202.554 344.145 134.636 298.702 67.7077 252.579C66.6761 251.868 66.4003 250.457 67.0884 249.411C67.7764 248.365 69.1736 248.07 70.2262 248.749C243.699 360.686 418.755 480.834 589.047 597.711C598.732 604.358 608.401 610.994 618.054 617.618C619.095 618.333 619.368 619.759 618.664 620.807ZM606.562 622.456C605.868 623.508 604.458 623.796 603.406 623.101C451.09 522.496 344.33 449.432 257.435 389.963C214.82 360.8 176.983 334.905 140.893 310.635C113.563 292.464 86.5789 274.634 59.4412 256.832C58.385 256.139 58.0824 254.719 58.7646 253.657C59.4468 252.594 60.8567 252.289 61.9177 252.975C88.883 270.402 115.531 288.058 143.217 306.675C241.822 372.229 344.925 442.196 476.03 531.164C516.44 558.587 559.511 587.815 605.93 619.276C606.974 619.983 607.256 621.404 606.562 622.456ZM594.449 624.121C593.754 625.174 592.342 625.462 591.289 624.764C439.664 524.213 248.192 394.943 54.9033 263.595C53.8615 262.888 53.58 261.469 54.2726 260.418C54.9652 259.367 56.3727 259.077 57.4252 259.768C156.118 324.609 253.259 390.425 382.226 477.805C444.178 519.78 513.473 566.73 593.813 620.938C594.86 621.644 595.144 623.067 594.449 624.121ZM578.524 623.235C577.824 624.279 576.418 624.56 575.37 623.864C431.065 527.953 270.914 419.588 109.124 310.114C89.5649 296.88 69.9819 283.629 50.4002 270.382C49.3552 269.675 49.0718 268.254 49.7661 267.201C50.4604 266.148 51.8714 265.86 52.9237 266.556C240.786 390.768 429.731 517.315 577.92 620.055C578.954 620.772 579.223 622.19 578.524 623.235ZM558.797 619.774C558.094 620.823 556.677 621.1 555.63 620.392C408.702 521.11 308.172 453.752 231.436 402.337C154.545 350.818 101.543 315.305 49.6891 279.72C48.6521 279.009 48.3761 277.591 49.0705 276.544C49.7649 275.496 51.1706 275.209 52.2211 275.9C168.527 352.429 291.388 434.191 558.182 616.585C559.226 617.298 559.501 618.725 558.797 619.774ZM542.864 618.899C542.152 619.932 540.744 620.195 539.706 619.489C456.826 563.052 384.914 514.251 319.478 470.059C308.543 462.783 297.429 455.391 286.158 447.894C211.598 398.304 130.209 344.173 48.9964 289.075C47.9525 288.367 47.6709 286.946 48.3661 285.894C49.0612 284.842 50.472 284.555 51.5237 285.252C137.252 342.016 222.078 398.751 321.996 466.229C412.21 526.262 490.197 578.418 542.306 615.714C543.327 616.445 543.576 617.865 542.864 618.899ZM526.963 617.983C526.266 619.02 524.869 619.302 523.823 618.616C397.53 535.722 291.277 463.422 190.911 395.127C142.537 362.211 95.5308 330.225 48.3077 298.433M526.963 617.983C527.66 616.945 527.401 615.535 526.379 614.812L526.963 617.983ZM526.379 614.812C403.962 528.215 290.791 453.475 182.316 381.837L526.379 614.812ZM182.316 381.837C137.801 352.44 94.0777 323.564 50.8307 294.606L182.316 381.837ZM48.3051 298.431C48.3035 298.43 48.3019 298.429 48.3003 298.428C47.2507 297.721 46.9661 296.295 47.6642 295.24C48.3624 294.186 49.7794 293.902 50.8307 294.606M507.256 614.499C506.566 615.55 505.161 615.843 504.107 615.156C418.905 559.574 350.184 514.612 292.478 476.448C356.409 519.173 419.732 561.697 483.106 605.311C484.148 606.028 484.418 607.457 483.71 608.504C483.002 609.551 481.583 609.821 480.538 609.108C417.498 566.055 334.547 510.356 243.51 449.26C177.786 405.387 111.238 360.963 43.0848 314.552C42.0398 313.84 41.7622 312.414 42.4642 311.363C43.1663 310.313 44.5831 310.034 45.6314 310.741C88.4438 339.607 131.311 368.42 173.199 396.546C124.209 363.139 83.6214 334.476 43.7175 305.162C42.7075 304.42 42.4742 303.002 43.1935 301.978C43.9127 300.953 45.3182 300.701 46.35 301.412C105.175 341.938 164.099 381.291 235.998 429.309C308.573 477.78 394.368 535.079 506.622 611.324C507.663 612.031 507.946 613.448 507.256 614.499ZM463.998 605.033C463.298 606.084 461.881 606.364 460.832 605.658C363.094 539.897 289.252 490.09 228.717 449.26C152.587 397.91 97.5019 360.755 42.3981 323.911C41.352 323.211 41.0594 321.796 41.7424 320.74C42.4252 319.684 43.8286 319.381 44.8868 320.062C123.683 370.729 201.623 423.778 328.782 510.326C368.371 537.272 412.731 567.465 463.374 601.844C464.42 602.554 464.699 603.981 463.998 605.033ZM444.264 601.596C443.552 602.639 442.132 602.903 441.091 602.186C311.337 512.848 214.224 448.216 127.251 390.331C99.1967 371.661 72.1977 353.692 45.4985 335.822C44.4551 335.124 44.1617 333.713 44.8401 332.658C45.5186 331.602 46.9166 331.294 47.9765 331.966C154.708 399.695 259.039 469.804 443.676 598.401C444.714 599.124 444.976 600.552 444.264 601.596ZM424.571 598.085C423.889 599.14 422.489 599.444 421.431 598.767C277.247 506.548 185.82 442.99 106.711 387.996C87.0969 374.361 68.2404 361.252 49.5243 348.363C49.2088 348.146 48.8933 347.929 48.5779 347.712C47.5349 346.993 47.2657 345.562 47.9767 344.515C48.6877 343.468 50.1097 343.202 51.153 343.92C51.4861 344.149 51.8191 344.379 52.1522 344.608C109.627 384.176 168.02 423.319 274.802 494.898C316.28 522.702 365.058 555.4 423.918 594.917C424.962 595.618 425.252 597.03 424.571 598.085ZM404.828 594.661C404.122 595.711 402.702 595.985 401.655 595.272C401.655 595.271 401.654 595.271 401.653 595.271M404.828 594.661C405.534 593.612 405.259 592.182 404.213 591.469L404.828 594.661ZM86.9576 378.199C78.5906 372.475 70.2277 366.729 61.8625 360.953C60.8212 360.234 59.4001 360.497 58.6871 361.542C57.9741 362.586 58.2386 364.016 59.2783 364.738C67.589 370.505 75.8764 376.197 84.3403 381.961C134.573 416.326 185.036 449.962 237.039 484.623C280.876 513.842 325.807 543.79 372.615 575.519C381.979 581.879 391.65 588.458 401.645 595.265M375.044 571.628C281.243 507.91 218.352 466.044 169.793 433.719C137.458 412.193 111.478 394.898 86.9576 378.199M404.213 591.469C394.402 584.771 384.682 578.161 375.044 571.628L404.213 591.469ZM385.123 591.18C384.432 592.234 383.024 592.527 381.969 591.836C373.123 586.038 363.445 579.533 353.039 572.441C335.221 560.297 315.269 546.43 293.699 531.439C232.141 488.655 157.404 436.713 81.4976 389.519L82.6954 387.564L84.0068 385.685C152.013 433.799 220.476 479.099 286.969 523.096C310.159 538.44 333.109 553.626 355.717 568.718C366.072 575.775 375.687 582.238 384.457 587.986L383.213 589.911L381.945 591.82M355.717 568.718C365.37 575.161 374.961 581.588 384.482 588.002C385.527 588.707 385.814 590.126 385.123 591.18M338.749 569.819C338.043 570.862 336.629 571.133 335.585 570.425C282.962 534.744 243.026 508.152 209.823 486.044C170.858 460.099 141.166 440.328 111.122 419.286C110.106 418.575 109.834 417.183 110.507 416.143C111.18 415.103 112.554 414.791 113.61 415.439C186.715 460.303 261.263 512.67 311.166 547.725C321.238 554.8 330.306 561.17 338.156 566.631C339.191 567.351 339.456 568.775 338.749 569.819Z" fill="#C3C8E1"/>
<path fill-rule="evenodd" clip-rule="evenodd" d="M572.447 39.1898C528.039 24.6102 487.828 42.0552 446.837 69.1695C432.998 78.3237 419.181 88.5015 405.124 98.8555C398.345 103.849 391.51 108.884 384.59 113.864C363.384 129.127 341.48 143.805 318.358 154.849L318.352 154.851C294.437 166.2 266.406 173.485 237.691 179.698C228.016 181.791 218.276 183.76 208.579 185.721C189.396 189.599 170.385 193.443 152.384 198.144C98.1296 212.311 54.8118 233.845 46.2133 285.508C46.2064 285.55 46.1982 285.592 46.1889 285.633C35.1298 335.048 64.2376 374.517 107.691 410.108C129.369 427.864 154.432 444.5 179.479 460.792C182.23 462.582 184.981 464.367 187.727 466.15C209.942 480.568 231.846 494.785 250.883 509.269C309.344 553.708 364.794 583.628 429.743 593.769L429.752 593.771C444.317 596.104 459.012 598.839 473.689 601.571C508.377 608.027 542.972 614.465 575.561 615.551C621.787 617.09 663.298 607.801 694.385 572.72C694.406 572.696 694.428 572.672 694.45 572.649C694.468 572.631 694.485 572.613 694.503 572.596C729.603 538.531 739.781 492.96 738.094 443.663C736.461 395.905 723.707 345.009 711.993 298.263C711.604 296.708 711.215 295.159 710.829 293.614L710.817 293.569L710.818 293.569C709.306 286.975 707.801 280.267 706.278 273.48C696.62 230.443 686.245 184.212 668.96 143.533C648.978 96.5062 619.919 57.2985 572.447 39.1898ZM715.267 292.527C713.766 285.978 712.268 279.302 710.75 272.535C701.102 229.531 690.627 182.837 673.163 141.737C652.926 94.1113 623.147 53.5973 574.006 34.8719C573.973 34.8593 573.94 34.8475 573.906 34.8365C527.368 19.5335 485.549 38.0517 444.317 65.3258C430.383 74.5427 416.405 84.8384 402.294 95.2323C395.537 100.209 388.75 105.208 381.922 110.123C360.773 125.344 339.136 139.828 316.39 150.693C292.974 161.804 265.376 169.002 236.717 175.202C227.176 177.266 217.505 179.222 207.84 181.177C188.577 185.072 169.341 188.962 151.223 193.693C96.8813 207.883 50.8382 230.052 41.7149 284.673C30.0785 336.81 61.1277 377.891 104.81 413.67C126.708 431.605 151.968 448.365 177.004 464.651C179.758 466.442 182.509 468.228 185.252 470.008C207.491 484.443 229.242 498.56 248.132 512.932L248.133 512.933C306.912 557.614 363.066 588.007 429.046 598.311C443.347 600.603 457.888 603.308 472.483 606.024C507.324 612.508 542.475 619.049 575.424 620.146C622.298 621.707 665.395 612.309 697.744 575.849C734.086 540.538 744.372 493.476 742.663 443.519C741.012 395.258 728.151 343.939 716.473 297.338C716.069 295.728 715.667 294.124 715.267 292.527Z" fill="#C3C8E1"/>
</g>
</svg>
