<svg width="770" height="670" viewBox="0 0 770 670" fill="none" xmlns="http://www.w3.org/2000/svg">
<g opacity="0.15">
<path fill-rule="evenodd" clip-rule="evenodd" d="M84.3653 540.068C83.7929 539.167 84.0863 537.992 85.0217 537.438C404.367 348.461 521.221 278.589 634.114 209.005M84.3653 540.068C84.9377 540.969 86.1607 541.257 87.102 540.712L84.3653 540.068ZM87.102 540.712C128.254 516.908 168.749 493.312 208.753 469.831L87.102 540.712ZM634.12 209.002C634.12 209.002 634.121 209.001 634.121 209.001C635.049 208.429 636.284 208.687 636.881 209.578C637.478 210.468 637.21 211.654 636.283 212.227C615.437 225.104 594.625 237.918 573.818 250.683C595.03 238.306 616.212 226.054 637.399 213.93C638.335 213.394 639.547 213.678 640.121 214.568C640.695 215.458 640.419 216.626 639.502 217.191C465.589 324.319 292.94 426.118 112.781 532.345L100.52 539.575L100.508 539.582C99.5703 540.135 98.3433 539.856 97.7637 538.958C97.1841 538.06 97.4701 536.881 98.4033 536.322C135.851 513.885 172.587 491.718 208.753 469.831M77.7681 537.153C77.1841 536.257 77.4663 535.076 78.399 534.514C78.4013 534.512 78.4036 534.511 78.4059 534.51C103.551 519.356 127.465 504.993 150.237 491.356C168.665 480.245 188.341 468.365 209.086 455.84C250.221 431.003 295.56 403.629 343.708 374.68C266.702 420.65 180.13 472.044 77.2831 532.81C76.3482 533.363 75.1238 533.087 74.5418 532.193C73.9598 531.299 74.2385 530.122 75.1657 529.558C185.241 462.595 282.001 405.197 372.35 351.675C376.839 349.016 381.312 346.367 385.77 343.726C460.745 299.315 531.48 257.416 602.015 214.703C611.72 208.813 621.4 202.932 631.079 197.048C632.01 196.481 633.244 196.747 633.835 197.641C634.426 198.535 634.15 199.719 633.22 200.286C633.219 200.286 633.218 200.287 633.218 200.287M604.168 217.933C557.182 246.451 509.617 275.197 458.761 305.768C515.787 271.759 574.937 236.733 634.331 201.989C635.255 201.448 636.461 201.713 637.048 202.587C637.636 203.46 637.392 204.623 636.498 205.21C577.911 243.627 516.354 279.727 419.698 336.411C351.69 376.294 266.306 426.367 152.355 494.608C125.6 510.739 101.472 525.251 80.5173 537.765C79.5822 538.324 78.3523 538.05 77.7681 537.153M604.168 217.933C613.849 212.071 623.525 206.194 633.208 200.293L604.168 217.933ZM107.765 539.862C107.188 538.964 107.475 537.789 108.407 537.23C283.768 432.131 411.576 355.601 529.902 284.945C567.421 262.202 602.125 241.375 637.221 220.923C638.16 220.376 639.384 220.66 639.96 221.559C640.535 222.458 640.246 223.635 639.312 224.191C603.709 245.409 568.313 266.525 532.025 288.193C513.699 299.302 494.697 310.87 474.645 323.078C460.477 331.703 445.785 340.647 430.435 349.974C348.904 399.519 248.866 459.852 110.502 540.496C109.564 541.043 108.341 540.759 107.765 539.862ZM67.9378 529.268C67.349 528.373 67.6271 527.189 68.5593 526.624C212.304 439.457 316.555 376.326 400.57 325.934C381.172 337.494 361.612 349.144 341.875 360.899C269.854 404.089 180.295 457.685 64.0678 526.94C63.1323 527.498 61.9027 527.223 61.3195 526.326C60.7362 525.429 61.0194 524.248 61.9524 523.687C158.242 465.753 249.538 411.379 337.304 359.108C338.12 358.622 338.936 358.136 339.752 357.65C380.472 333.23 415.587 312.136 446.747 293.418C521.113 248.745 572.948 217.607 624.655 187.111C625.591 186.559 626.816 186.837 627.397 187.732C627.977 188.628 627.696 189.805 626.767 190.367C580.731 218.211 534.09 246.204 486.586 274.603C538.071 244.069 582.795 217.95 627.898 192.058C628.84 191.517 630.06 191.808 630.63 192.709C631.201 193.61 630.906 194.784 629.971 195.336C451.6 300.775 266.803 411.198 70.694 529.866C70.6922 529.867 70.6941 529.866 70.6923 529.867C69.7597 530.431 68.5267 530.163 67.9378 529.268ZM117.773 540.778C117.189 539.883 117.468 538.704 118.398 538.14C206.625 484.617 363.947 390.792 534.823 288.885C568.508 268.796 602.72 248.393 637.033 227.922C637.966 227.365 639.193 227.637 639.779 228.529C640.364 229.422 640.089 230.6 639.162 231.167C506.66 312.211 372.475 391.815 247.699 465.837C203.993 491.765 161.44 517.009 120.519 541.389C119.585 541.946 118.357 541.673 117.773 540.778ZM54.6988 523.38C54.1226 522.479 54.415 521.3 55.3523 520.746C207.578 430.664 396.823 317.029 594.379 198.404C604.503 192.325 614.648 186.234 624.811 180.131C625.744 179.571 626.975 179.842 627.561 180.737C628.148 181.632 627.869 182.813 626.938 183.378C421.486 307.971 216.363 430.936 57.442 524.014C56.502 524.565 55.2749 524.281 54.6988 523.38ZM131.152 539.637C130.582 538.742 130.868 537.574 131.792 537.016C286.074 443.839 463.127 337.183 636.878 234.905C637.812 234.355 639.033 234.63 639.615 235.522C640.197 236.413 639.923 237.588 639 238.154C597.701 263.51 556.439 288.826 515.202 314.007C559.172 287.6 599.551 263.54 640.106 239.864C641.034 239.322 642.244 239.592 642.828 240.471C643.413 241.351 643.157 242.517 642.254 243.096C629.618 251.194 616.91 259.168 604.003 267.131C615.981 260.29 627.951 253.531 639.971 246.832C640.916 246.305 642.128 246.606 642.689 247.506C643.25 248.407 642.953 249.573 642.022 250.123C624.795 260.294 607.587 270.42 589.635 280.983C536.725 312.116 477.357 347.049 392.033 398.149C387.277 401.049 382.481 403.973 377.643 406.923C311.747 447.101 238.025 492.051 150.522 544.109C149.588 544.665 148.361 544.392 147.777 543.498C147.193 542.604 147.471 541.425 148.399 540.86C248.593 479.881 326.413 432.929 389.878 394.92C410.779 382.178 430.915 369.913 450.483 358.048C447.325 359.885 444.142 361.737 440.933 363.605C435.447 366.798 429.883 370.037 424.236 373.327C348.732 418.856 259.538 472.59 143.911 541.178C142.978 541.731 141.756 541.459 141.171 540.57C140.586 539.68 140.857 538.504 141.778 537.935C160.039 526.65 177.649 515.835 194.653 505.452C174.397 517.162 154.138 528.778 133.874 540.289C132.934 540.823 131.721 540.532 131.152 539.637ZM51.4835 518.427C50.9013 517.527 51.1883 516.346 52.1247 515.787C68.733 505.877 85.0943 496.127 101.224 486.525C304.909 365.096 438.763 284.816 561.685 211.094C581.861 198.993 601.743 187.069 621.591 175.168C622.522 174.61 623.749 174.878 624.337 175.769C624.925 176.661 624.652 177.84 623.727 178.409C506.188 250.695 385.632 322.211 249.926 402.715C203.017 430.542 154.298 459.443 103.268 489.821C87.3641 499.302 71.0347 509.034 54.2517 519.033C54.2462 519.037 54.2405 519.04 54.2349 519.043C54.2346 519.044 54.2341 519.044 54.2338 519.044C53.2969 519.602 52.0657 519.326 51.4835 518.427ZM559.868 634.477C559.314 633.586 559.599 632.435 560.51 631.879C568.338 627.092 577.633 621.749 587.893 615.851C606.99 604.872 629.429 591.972 651.976 577.168C652.861 576.587 654.065 576.78 654.706 577.605C655.346 578.431 655.194 579.594 654.361 580.241C649.806 583.779 645.053 587.224 639.905 590.714C643.893 588.465 647.921 586.24 651.962 584.067C652.86 583.583 653.994 583.835 654.581 584.648C655.167 585.461 655.014 586.569 654.226 587.206C637.702 600.568 618.929 611.514 572.549 636.078C571.602 636.58 570.411 636.266 569.862 635.372C569.314 634.477 569.606 633.326 570.523 632.775C574.844 630.176 580.327 626.748 586.674 622.778C589.202 621.197 591.867 619.531 594.651 617.797C585.225 623.007 574.631 628.725 562.555 635.171C561.611 635.675 560.421 635.368 559.868 634.477ZM48.2574 513.462C47.6815 512.565 47.9672 511.39 48.8973 510.831C66.7125 500.126 84.0297 489.72 100.884 479.592C156.609 446.107 207.276 415.661 254.162 387.51C258.736 384.708 263.311 381.906 267.886 379.102C231.34 400.805 196.848 421.211 165.204 439.897C127.725 462.115 88.6969 485.138 47.788 509.124M256.458 390.655C401.346 303.662 510.119 238.591 620.474 173.469C621.405 172.919 621.703 171.752 621.141 170.851C620.579 169.95 619.367 169.65 618.422 170.178C600.798 180.027 583.237 189.991 565.73 200.048C582.918 189.56 600.121 179.03 617.283 168.488C618.209 167.919 618.481 166.74 617.894 165.848C617.306 164.956 616.078 164.688 615.147 165.247C568.321 193.344 521.463 221.618 473.339 250.656C378.082 308.133 277.867 368.601 163.135 436.616C133.024 454.396 105.49 470.619 81.2177 484.921C68.438 492.451 56.5623 499.448 45.6902 505.86C44.7514 506.414 44.4576 507.593 45.0336 508.495C45.6096 509.397 46.8379 509.681 47.7782 509.13C47.7796 509.129 47.7811 509.128 47.7826 509.127M256.458 390.655C188.11 432.513 119.817 474.055 50.9935 514.096C50.0552 514.642 48.8333 514.358 48.2574 513.462M579.848 636.251C579.315 635.345 579.631 634.197 580.56 633.663C582.961 632.283 585.271 630.955 587.497 629.676C598.725 623.222 607.781 618.018 615.349 613.627C620.968 610.183 626.727 606.605 632.53 602.999C640.045 598.329 647.634 593.613 655.091 589.082C656.004 588.527 657.212 588.77 657.816 589.631C658.42 590.492 658.202 591.657 657.323 592.261C646.151 599.935 636.414 605.889 617.449 616.89C604.762 624.665 592.735 631.787 582.526 637C581.569 637.489 580.382 637.156 579.848 636.251ZM556.617 629.466C556.082 628.545 556.423 627.382 557.379 626.864C576.664 616.408 594.559 605.794 611.552 595.394C614.7 593.382 617.657 591.462 620.451 589.633C622.859 588.057 625.152 586.545 627.345 585.098C638.709 577.604 647.422 571.858 655.797 568.007C656.748 567.57 657.89 567.918 658.405 568.803C658.919 569.687 658.627 570.803 657.74 571.35C651.639 575.107 645.458 578.954 639.172 582.866C630.896 588.017 622.436 593.282 613.732 598.608C599.979 607.399 582.595 617.938 559.324 630.213C558.362 630.721 557.152 630.387 556.617 629.466ZM589.883 637.211C589.333 636.347 589.577 635.222 590.441 634.641C603.852 625.622 622.868 614.549 644.806 602.12C645.716 601.604 646.887 601.858 647.478 602.699C648.068 603.54 647.875 604.678 647.035 605.294C632.061 616.286 619.391 624.284 592.521 637.907C591.589 638.379 590.434 638.075 589.883 637.211ZM167.944 538.312C167.364 537.412 167.652 536.232 168.588 535.675C187.647 524.318 207.693 512.433 228.553 500.093C295.581 460.197 361.084 420.822 425.824 381.906C497.728 338.684 568.691 296.027 639.758 253.848C640.69 253.295 641.912 253.566 642.498 254.455C643.083 255.345 642.813 256.52 641.892 257.09C603.577 280.805 564.803 304.443 526.233 327.724C564.823 304.601 602.222 282.447 639.608 260.824C640.548 260.281 641.768 260.567 642.342 261.465C642.916 262.362 642.628 263.536 641.698 264.093C614.263 280.524 586.782 296.994 558.386 314.014C489.658 355.206 415.562 399.615 323.742 454.471C282.308 479.225 237.264 506.107 187.475 535.781L186.421 534.152L185.373 532.519C234.069 503.753 279.138 476.791 321.519 451.282M321.519 451.282C354.871 431.208 386.558 412.034 417.041 393.589C439.055 380.268 460.441 367.328 481.371 354.704C414.305 394.898 348.652 433.662 287.969 469.493C268.286 481.115 249.126 492.428 230.61 503.381C210.773 515.189 190.806 527.04 170.69 538.936C169.752 539.49 168.523 539.211 167.944 538.312M550.068 626.634C549.485 625.762 549.729 624.603 550.62 624.018C594.438 595.214 621.493 579.857 644.122 567.468C648.014 565.26 651.907 563.132 655.876 561.063C656.839 560.561 658.044 560.898 658.576 561.818C659.108 562.738 658.769 563.898 657.815 564.416C657.188 564.757 656.559 565.099 655.929 565.442C652.73 567.182 649.476 568.951 646.125 570.786C635.878 576.598 625.597 582.985 613.798 590.351C613.112 590.779 612.421 591.21 611.725 591.645C595.934 601.504 577.396 613.08 552.777 627.244C551.851 627.777 550.651 627.507 550.068 626.634ZM543.469 623.72C542.873 622.853 543.105 621.689 543.992 621.094C554.659 613.939 564.239 607.702 572.968 602.172C562.105 608.69 550.994 615.142 539.514 621.4C538.585 621.907 537.404 621.621 536.836 620.752C536.267 619.883 536.513 618.738 537.392 618.155C545.4 612.85 553.523 607.529 561.776 602.22C561.55 602.347 561.324 602.474 561.098 602.601C552.317 607.531 542.962 612.783 532.928 618.452C531.991 618.982 530.784 618.694 530.214 617.804C529.643 616.915 529.919 615.751 530.834 615.187C563.065 595.311 590.382 579.187 616.4 563.829C632.159 554.527 647.441 545.506 663.05 536.104C663.955 535.559 665.148 535.794 665.755 536.639C666.363 537.483 666.171 538.636 665.319 539.256C659.992 543.131 654.636 546.861 649.163 550.524C652.62 548.686 656.103 546.862 659.61 545.053C660.569 544.559 661.764 544.892 662.297 545.803C662.831 546.714 662.507 547.867 661.568 548.395C643.394 558.64 625.573 569.72 607.403 581.017C605.597 582.14 603.788 583.265 601.975 584.391C601.268 584.83 600.561 585.269 599.853 585.709C612.856 578.031 623.917 571.917 634.494 566.071C642.843 561.456 650.89 557.009 659.352 552.09C660.289 551.545 661.509 551.828 662.086 552.723C662.662 553.618 662.379 554.791 661.452 555.352C634.28 571.786 609.26 586.753 546.19 624.295C545.27 624.843 544.064 624.588 543.469 623.72ZM41.817 503.545C41.2363 502.646 41.523 501.466 42.4578 500.907C108.542 461.402 174.793 421.635 241.169 381.793C364.419 307.812 488.098 233.575 611.931 160.281C612.864 159.729 614.087 160.002 614.671 160.893C615.254 161.784 614.981 162.96 614.058 163.527C468.28 253.159 320.231 340.862 46.9106 502.776L44.5728 504.161C44.5721 504.161 44.5714 504.162 44.5707 504.162L44.5638 504.166C43.6266 504.721 42.3977 504.443 41.817 503.545ZM523.559 614.802C523.025 613.886 523.357 612.729 524.303 612.205C554.412 595.538 579.11 581.072 601.598 567.416C609.104 562.752 616.481 558.119 623.726 553.569C636.149 545.767 648.186 538.207 659.823 531.148C660.749 530.586 661.974 530.846 662.568 531.73C663.163 532.614 662.904 533.792 661.989 534.371C642.826 546.477 624.219 558.216 603.783 570.628C579.302 585.84 553.392 601.424 526.255 615.551C525.294 616.051 524.093 615.717 523.559 614.802ZM35.2172 500.631C34.6302 499.747 34.8916 498.574 35.8041 497.999C60.5916 482.365 88.3547 465.139 118.532 446.635C91.6603 462.518 63.7718 479.03 34.7314 496.269C33.7954 496.825 32.5673 496.548 31.9851 495.652C31.4029 494.755 31.6863 493.575 32.6187 493.014C300.419 331.853 452.881 240.65 605.488 150.359C606.418 149.809 607.636 150.078 608.222 150.963C608.808 151.848 608.545 153.02 607.632 153.595C587.154 166.475 566.664 179.221 545.998 191.955C566.869 179.74 587.802 167.512 608.721 155.312C609.663 154.762 610.891 155.05 611.465 155.954C612.038 156.858 611.74 158.037 610.798 158.588C518.49 212.564 425.242 268.794 324.056 329.811C236.199 382.79 142.358 439.378 37.9512 501.233C37.022 501.783 35.8042 501.515 35.2172 500.631ZM517.038 612.01C516.421 611.14 516.65 609.955 517.551 609.356C528.025 602.395 538.563 595.794 549.11 589.424C558.806 583.394 567.796 577.896 576.217 572.817C576.086 572.893 575.955 572.969 575.824 573.045C559.52 582.916 540.194 594.293 516.477 607.628C515.531 608.16 514.316 607.86 513.753 606.957C513.19 606.054 513.49 604.885 514.426 604.337C535.695 591.878 553.85 581.329 569.557 572.203C570.975 571.379 572.373 570.567 573.751 569.766C585.79 562.477 596.177 556.009 605.47 550.179C608.397 548.342 611.217 546.568 613.947 544.85C631.595 533.747 645.488 525.006 660.253 517.117C661.176 516.624 662.34 516.906 662.908 517.761C663.477 518.616 663.254 519.747 662.4 520.343C651.766 527.758 639.942 535.227 624.797 544.318C629.205 541.791 633.491 539.344 637.697 536.943C645.322 532.59 652.683 528.388 660.024 524.138C660.953 523.6 662.16 523.873 662.742 524.753C663.324 525.632 663.068 526.797 662.165 527.375C641.228 540.786 619.585 553.141 597.742 565.61C595.712 566.768 593.681 567.928 591.649 569.089C578.215 576.766 564.719 584.529 551.257 592.658C541.529 598.708 531.09 605.293 519.798 612.527C518.887 613.111 517.654 612.881 517.038 612.01ZM507.179 604.083C506.588 603.209 506.832 602.043 507.728 601.456C519.153 593.971 529.667 587.123 539.399 580.835C529.832 586.389 520.323 591.89 510.91 597.334C508.358 598.81 505.814 600.282 503.277 601.749C502.336 602.294 501.114 602.006 500.541 601.106C499.968 600.206 500.26 599.032 501.194 598.477C510.523 592.935 520.188 587.207 530.12 581.321C570.668 557.29 615.669 530.621 660.486 503.198C661.409 502.634 662.633 502.887 663.232 503.767C663.831 504.647 663.581 505.825 662.671 506.409C656.697 510.245 650.675 514.063 644.617 517.861C649.997 515.122 655.245 512.558 660.511 510.081C661.459 509.636 662.604 509.975 663.126 510.855C663.649 511.736 663.367 512.854 662.484 513.408C625.784 536.434 590.75 557.055 548.109 582.152C536.051 589.249 523.386 596.704 509.902 604.673C508.978 605.218 507.769 604.957 507.179 604.083ZM201.52 532.037C200.926 531.146 201.196 529.963 202.122 529.392C295.117 472.042 394.44 413.199 495.446 353.36C543.224 325.055 591.379 296.527 639.418 267.828C640.347 267.273 641.568 267.539 642.158 268.424C642.747 269.309 642.484 270.485 641.569 271.06C627.48 279.914 613.358 288.706 599.247 297.42C612.753 289.68 625.994 282.195 639.302 274.785C640.247 274.259 641.458 274.56 642.019 275.46C642.58 276.361 642.283 277.527 641.353 278.076C546.821 333.931 452.857 390.357 354.636 449.338C311.082 475.492 266.691 502.148 221.043 529.481C220.109 530.04 218.88 529.768 218.294 528.873C217.708 527.978 217.987 526.797 218.918 526.233C264.706 498.466 305.123 473.898 341.285 451.917C349.615 446.853 357.719 441.927 365.61 437.131C358.596 441.243 351.665 445.304 344.825 449.312C291.129 480.776 243.029 508.96 204.275 532.622C203.346 533.19 202.114 532.928 201.52 532.037ZM32.1531 488.666C31.5708 487.774 31.847 486.598 32.7718 486.033C173.8 399.765 280.083 336.538 368.73 284.165C387.971 272.798 406.38 261.943 424.133 251.474C488.171 213.712 543.665 180.988 598.844 147.444M32.1531 488.666C32.7354 489.559 33.9582 489.834 34.8925 489.283L32.1531 488.666ZM34.8925 489.283C319.401 321.392 460.761 236.548 600.998 150.674L34.8925 489.283ZM598.849 147.441C598.851 147.44 598.853 147.439 598.854 147.438C599.785 146.872 601.018 147.137 601.609 148.029C602.2 148.922 601.927 150.105 600.998 150.674M497.295 596.103C496.753 595.204 497.056 594.055 497.977 593.512C519.038 581.074 539.669 568.447 560.179 555.893C565.395 552.7 570.603 549.512 575.809 546.334C549.596 561.891 522.357 577.541 493.424 593.864C492.49 594.391 491.288 594.107 490.715 593.223C490.143 592.34 490.408 591.18 491.314 590.609C552.592 551.968 590.067 530.387 619.546 513.411C633.396 505.435 645.48 498.476 657.439 491.241C658.361 490.683 659.58 490.939 660.177 491.816C660.773 492.692 660.527 493.866 659.623 494.452C644.725 504.117 629.721 513.584 614.465 522.978C616.105 522.003 617.747 521.029 619.389 520.057C631.922 512.444 644.569 505.064 657.361 498.18C658.318 497.665 659.529 497.988 660.073 498.902C660.617 499.816 660.292 500.98 659.344 501.51C646.627 508.61 634.062 515.881 621.568 523.272C608.197 531.394 594.934 539.795 581.722 548.163C580.807 548.742 579.893 549.321 578.979 549.9C552.568 566.625 526.343 583.137 499.975 596.831C499.024 597.325 497.836 597.002 497.295 596.103ZM28.928 483.703C28.3472 482.807 28.629 481.63 29.5586 481.068C188.969 384.705 307.442 314.069 410.257 252.9C483.204 208.641 538.553 175.151 595.679 142.448C596.619 141.91 597.837 142.199 598.408 143.097C598.978 143.995 598.689 145.166 597.76 145.722C549.676 174.489 501.752 202.992 450.507 233.47C438.004 240.906 425.303 248.46 412.354 256.164C408.662 258.404 404.926 260.672 401.141 262.968C313.756 315.993 200.955 384.441 31.6701 484.324C30.7342 484.876 29.5089 484.599 28.928 483.703ZM487.512 588.293C486.917 587.41 487.174 586.231 488.088 585.652C523.12 563.452 553.607 545.605 580.855 529.812C581.047 529.701 581.238 529.59 581.429 529.479C594.481 521.715 605.896 514.962 616.394 508.752C630.024 500.689 642.109 493.54 654.224 486.278C655.151 485.723 656.372 485.986 656.963 486.869C657.554 487.752 657.295 488.927 656.383 489.505C636.792 501.91 615.719 514.108 592.297 527.665C589.406 529.339 586.478 531.033 583.513 532.752C559.486 547.045 529.908 564.77 490.258 588.872C489.333 589.434 488.107 589.176 487.512 588.293ZM480.908 585.373C480.323 584.521 480.536 583.378 481.392 582.774C489.22 577.249 498.014 571.417 507.607 565.315C498.077 570.846 487.9 576.735 476.993 583.028C476.056 583.569 474.841 583.286 474.265 582.393C473.69 581.501 473.968 580.331 474.89 579.768C493.521 568.381 514.963 555.845 538.033 542.358C574.363 521.119 614.731 497.52 654.517 472.327C655.437 471.745 656.675 471.988 657.283 472.87C657.891 473.753 657.64 474.941 656.721 475.526C641.605 485.143 626.783 494.45 608.975 505.319C612.861 503.094 616.776 500.853 620.714 498.6C631.797 492.257 643.067 485.807 654.424 479.272C655.364 478.731 656.584 479.019 657.156 479.917C657.728 480.816 657.438 481.988 656.508 482.544C640.842 491.903 624.922 501.68 608.13 511.993C572.503 533.873 532.952 558.164 483.588 585.972C482.671 586.488 481.493 586.225 480.908 585.373ZM235.072 525.726C234.485 524.83 234.766 523.646 235.699 523.083C243.998 518.073 252.14 513.157 260.132 508.333C432.124 404.501 534.664 342.597 639.103 281.793C640.04 281.247 641.261 281.529 641.838 282.425C642.415 283.32 642.132 284.494 641.204 285.055C555.643 336.775 467.053 389.523 389.023 435.983C330.902 470.59 278.639 501.708 237.851 526.314C237.843 526.319 237.835 526.324 237.827 526.329C237.827 526.329 237.827 526.329 237.826 526.329C236.893 526.893 235.66 526.623 235.072 525.726ZM29.1137 476.74C28.5186 475.852 28.782 474.671 29.703 474.095C67.8503 450.266 112.912 422.674 162.998 392.381C122.411 416.582 77.8707 443.101 28.623 472.374C27.6868 472.93 26.4578 472.654 25.8755 471.756C25.2932 470.859 25.5774 469.679 26.511 469.118C149.387 395.331 251.394 334.48 343.239 279.691C385.15 254.69 424.944 230.951 463.64 207.822C507.938 181.207 546.761 157.889 585.8 134.582M585.806 134.578C585.808 134.577 585.81 134.576 585.812 134.574C586.747 134.016 587.977 134.29 588.561 135.187C589.145 136.084 588.862 137.265 587.929 137.827C547.644 162.072 507.343 186.216 465.77 211.066C463.29 212.556 460.793 214.056 458.278 215.567C430.549 232.228 400.611 250.215 367.13 270.3C439.384 227.457 515.609 182.56 592.438 137.5C593.374 136.951 594.596 137.229 595.176 138.123C595.755 139.016 595.477 140.191 594.551 140.755C492.824 202.689 389.811 263.837 293.404 320.998C288.642 323.821 283.896 326.635 279.167 329.438C188.156 383.396 103.47 433.603 31.8656 477.32C30.9384 477.886 29.7086 477.627 29.1137 476.74M471.028 577.411C470.463 576.506 470.765 575.333 471.705 574.787C490.202 564.018 512.563 550.406 537.203 535.406C542.394 532.246 547.686 529.024 553.064 525.755C583.96 506.973 617.685 486.621 651.371 467.319C652.318 466.777 653.543 467.073 654.109 467.981C654.676 468.888 654.369 470.065 653.424 470.609C633.787 481.921 613.447 494.42 590.664 508.419C585.844 511.381 580.914 514.41 575.859 517.51C546.921 535.251 513.897 555.268 473.759 578.076C472.814 578.613 471.594 578.316 471.028 577.411ZM464.437 574.511C463.854 573.62 464.128 572.446 465.05 571.878C494.429 553.8 525.349 535.52 557.571 516.471C587.798 498.601 619.171 480.053 651.494 460.358C652.42 459.794 653.648 460.053 654.243 460.937C654.838 461.822 654.579 463.002 653.662 463.58C613.176 489.089 571.8 513.47 498.898 556.428C488.938 562.297 478.39 568.513 467.175 575.126C466.241 575.676 465.02 575.402 464.437 574.511ZM461.204 569.53C460.63 568.63 460.921 567.454 461.857 566.899C478.371 557.102 493.282 548.262 506.855 540.215C578.023 498.024 612.41 477.638 648.255 455.407C649.178 454.834 650.411 455.086 651.012 455.97C651.613 456.855 651.356 458.039 650.438 458.619C608.342 485.201 563.84 512.048 463.943 570.169C463.003 570.716 461.778 570.431 461.204 569.53ZM22.6476 466.784C22.0724 465.884 22.3618 464.708 23.2954 464.152C120.675 406.113 251.318 327.905 391.991 243.691C453.817 206.523 518.049 168.005 582.586 129.614M22.6476 466.784C23.223 467.683 24.4467 467.967 25.3862 467.42L22.6476 466.784ZM582.589 129.613C582.591 129.612 582.592 129.611 582.594 129.61C583.53 129.053 584.76 129.329 585.342 130.228C585.924 131.126 585.639 132.307 584.703 132.867C520.569 171.238 456.386 209.661 394.163 246.911C365.694 264.026 337.732 280.856 310.485 297.256C198.67 364.557 98.8891 424.615 25.3862 467.42M255.223 520.515C254.664 519.62 254.953 518.46 255.874 517.906C307.82 486.613 358.995 456.355 409.66 426.398C477.892 386.055 545.199 346.259 612.212 305.222C621.1 299.757 629.997 294.283 638.888 288.809C638.889 288.808 638.89 288.807 638.891 288.807C639.819 288.235 641.053 288.494 641.65 289.384C642.246 290.274 641.979 291.459 641.052 292.032C632.167 297.526 623.278 302.995 614.383 308.442C599.31 317.71 584.26 326.952 569.302 336.121C592.486 322.405 615.662 308.906 638.786 295.76C639.725 295.226 640.937 295.515 641.508 296.409C642.078 297.303 641.795 298.47 640.873 299.03C544.466 357.542 448.304 414.917 350.206 473.211C324.902 488.454 299.736 503.448 274.753 518.017C273.813 518.565 272.588 518.28 272.012 517.38C271.437 516.48 271.729 515.303 272.664 514.747C297.889 499.775 322.952 484.896 347.89 470.077C355.897 465.254 363.919 460.405 371.957 455.534C328.021 481.579 289.055 504.116 257.928 521.194C256.985 521.712 255.782 521.41 255.223 520.515ZM454.576 566.573C454.023 565.676 454.317 564.519 455.238 563.968C472.059 553.918 489.795 543.37 508.259 532.389C517.187 527.079 526.285 521.668 535.532 516.163C537.924 514.678 540.33 513.184 542.749 511.681C543.492 511.22 544.237 510.757 544.983 510.293C577.873 489.866 613.085 468.046 648.508 448.37C649.449 447.847 650.653 448.143 651.217 449.037C651.781 449.93 651.496 451.091 650.577 451.65C611.533 475.354 573.483 498.084 537.672 519.402C508.382 537.585 481.055 554.414 457.275 567.267C456.329 567.778 455.13 567.47 454.576 566.573ZM448.01 563.707C447.423 562.839 447.66 561.68 448.544 561.09C480.772 539.565 520.117 516.708 563.891 491.278C590.68 475.716 619.127 459.191 648.615 441.417C649.543 440.858 650.767 441.121 651.359 442.007C651.951 442.892 651.689 444.07 650.772 444.645C600.177 476.428 550.55 506.431 450.719 564.305C449.796 564.839 448.598 564.575 448.01 563.707ZM444.765 558.713C444.192 557.824 444.466 556.658 445.381 556.092C493.194 526.537 534.727 502.042 574.033 478.86C590.155 469.352 605.902 460.064 621.555 450.739C629.481 445.976 637.44 441.205 645.397 436.45C646.331 435.891 647.561 436.165 648.146 437.061C648.73 437.957 648.449 439.138 647.516 439.701C639.553 444.506 631.607 449.264 623.641 454.01C604.297 465.633 585.132 477.212 566.639 488.384C520.042 516.536 477.705 542.114 447.484 559.353C446.548 559.887 445.339 559.602 444.765 558.713ZM22.8248 459.813C22.2387 458.919 22.5157 457.739 23.4444 457.173C159.739 374.16 291.976 295.583 420.033 219.488C472.726 188.177 524.712 157.285 575.982 126.679C576.915 126.122 578.141 126.393 578.727 127.285C579.313 128.177 579.038 129.356 578.113 129.923C483.535 187.859 387.762 244.771 271.532 313.84C199.056 356.907 118.627 404.702 25.5728 460.419C24.6396 460.977 23.411 460.707 22.8248 459.813ZM438.153 555.78C437.576 554.887 437.856 553.715 438.78 553.152C456.218 542.529 472.865 532.321 488.93 522.469C493.604 519.603 498.229 516.766 502.809 513.959C483.874 525.087 462.379 537.494 437.643 551.461C436.702 551.992 435.49 551.699 434.923 550.803C434.355 549.907 434.643 548.741 435.568 548.184C453.886 537.159 471.853 526.394 489.493 515.85C470.663 526.737 450.208 538.255 427.612 550.571C426.662 551.088 425.455 550.778 424.902 549.873C424.35 548.969 424.656 547.806 425.59 547.263C457.649 528.643 491.817 507.941 527.597 486.262L529.135 485.33C565.469 463.316 603.449 440.317 642.527 417.504C643.461 416.959 644.678 417.235 645.258 418.124C645.839 419.013 645.567 420.185 644.648 420.753C631.854 428.671 619.168 436.647 606.175 444.817C589.39 455.371 572.092 466.248 553.387 477.734C574.139 465.364 594.439 453.256 614.33 441.34C624.908 435.003 635.371 428.72 645.724 422.481L646.787 424.104L647.816 425.748C637.549 431.671 627.407 437.821 616.474 444.577M583.078 465.361C604.017 452.956 624.656 441.038 645.623 429.432C646.564 428.912 647.766 429.208 648.329 430.1C648.893 430.992 648.61 432.152 647.693 432.712C640.064 437.364 632.308 442.14 623.935 447.295C587.681 469.617 539.877 499.049 440.884 556.412C439.947 556.955 438.729 556.673 438.153 555.78M583.078 465.361C587.8 462.425 592.311 459.611 596.654 456.902C603.638 452.546 610.187 448.461 616.474 444.577M285.42 516.283C284.832 515.395 285.101 514.218 286.021 513.646C363.518 465.554 427.206 427.981 483.744 394.859C490.673 390.8 497.494 386.808 504.219 382.872C552.38 354.686 595.647 329.363 638.551 302.786C639.475 302.214 640.707 302.467 641.308 303.351C641.909 304.235 641.652 305.419 640.734 305.999C612.855 323.616 584.598 340.989 555.924 358.317C585.462 340.82 611.824 325.33 638.429 309.75C639.37 309.198 640.599 309.484 641.174 310.388C641.749 311.291 641.452 312.471 640.511 313.023C640.511 313.023 640.511 313.023 640.51 313.023M285.42 516.283C286.008 517.172 287.232 517.44 288.162 516.884L285.42 516.283ZM288.162 516.884C330.061 491.844 371.021 467.77 411.133 444.196L288.162 516.884ZM411.133 444.196C430.649 432.725 449.965 421.373 469.09 410.085L411.133 444.196ZM22.9878 452.815C22.4072 451.917 22.692 450.738 23.6248 450.178C78.4477 417.264 129.352 386.777 177.301 358.102C130.366 385.754 80.2068 415.045 25.8813 446.457C24.9407 447.001 23.7186 446.714 23.1458 445.814C22.573 444.914 22.8643 443.74 23.798 443.185C56.9552 423.478 93.5212 401.658 132.698 378.235C91.0088 402.535 54.7538 423.336 26.0293 439.482C25.0882 440.01 23.8787 439.717 23.3124 438.822C22.7461 437.927 23.0323 436.761 23.9555 436.204C114.38 381.612 198.478 331.735 278.717 284.146C376.563 226.115 468.671 171.487 559.515 115.864C560.442 115.297 561.672 115.555 562.268 116.442C562.864 117.33 562.601 118.512 561.68 119.088C524.762 142.163 487.668 165.116 451.01 187.609C489.084 164.824 527.604 141.793 566.147 118.786C567.079 118.23 568.305 118.5 568.892 119.392C569.478 120.283 569.204 121.462 568.279 122.03C506.271 160.107 443.876 198.371 376.249 239.292C444.42 198.6 508.471 160.336 572.751 121.722C573.684 121.162 574.914 121.431 575.501 122.325C576.088 123.219 575.811 124.4 574.882 124.966C423.733 217.072 276.181 305.349 25.7327 453.436C24.796 453.99 23.5686 453.712 22.9878 452.815ZM421.748 545.012C421.132 544.136 421.371 542.947 422.282 542.354C437.6 532.382 451.826 523.187 465.116 514.671C448.075 524.994 432.242 534.428 417.812 542.656C416.867 543.194 415.647 542.899 415.08 541.996C414.513 541.092 414.813 539.919 415.751 539.37C429.128 531.547 445.293 521.969 463.456 511.141C475.965 503.562 489.131 495.502 502.882 487.084C507.068 484.521 511.309 481.925 515.602 479.299C553.369 456.197 595.149 430.811 639.493 405.546C640.434 405.01 641.649 405.301 642.218 406.198C642.788 407.095 642.5 408.264 641.572 408.821C632.177 414.455 622.756 420.108 613.363 425.748C623.349 420.401 633.054 415.373 642.806 410.456C643.756 409.977 644.932 410.305 645.467 411.2C646.002 412.094 645.704 413.234 644.793 413.78C615.272 431.467 585.108 449.227 556.231 466.23C504.494 496.692 456.889 524.721 424.516 545.534C423.601 546.122 422.363 545.889 421.748 545.012ZM298.789 515.127C298.225 514.234 298.51 513.072 299.429 512.514C369.002 470.302 423.544 437.393 469.09 410.085M298.789 515.127C299.353 516.021 300.558 516.317 301.499 515.794L298.789 515.127ZM301.499 515.794C320.222 505.382 338.578 494.922 356.627 484.443L301.499 515.794ZM356.627 484.443C342.748 492.923 329.248 501.243 316.191 509.38C315.278 509.949 315.008 511.115 315.585 512.002C316.161 512.889 317.372 513.17 318.306 512.632C369.96 482.933 425.971 448.958 484.214 413.63C517.542 393.414 551.601 372.754 585.993 352.199C604.06 341.517 622.21 330.775 640.351 320.005C641.287 319.449 641.578 318.271 641.002 317.371C640.425 316.47 639.198 316.187 638.259 316.738C620.027 327.423 601.848 338.204 583.774 349.007C573.897 354.847 564.044 360.669 554.229 366.468C530.036 380.764 506.076 394.921 482.572 408.861C492.248 402.927 501.872 397.013 511.454 391.124C554.971 364.381 597.636 338.162 640.505 313.027M408.473 539.066C407.904 538.162 408.203 536.987 409.143 536.437C450.447 512.287 484.837 491.855 514.599 474.009C531.196 464.015 548.052 453.822 565.062 443.537C576.85 436.409 588.712 429.236 600.612 422.055C614.211 413.824 627.041 406.085 639.623 398.578C640.559 398.019 641.79 398.294 642.373 399.192C642.956 400.09 642.672 401.272 641.737 401.832C628.746 409.622 615.75 417.449 602.795 425.267C597.011 428.768 591.087 432.358 584.982 436.057C564.713 448.34 542.457 461.826 516.752 477.24C479.904 499.429 444.325 520.647 411.21 539.719C410.267 540.262 409.043 539.97 408.473 539.066ZM401.835 536.092C401.292 535.179 401.615 534.017 402.56 533.486C440.008 512.465 489.002 482.745 543.073 449.943C543.528 449.668 543.983 449.391 544.438 449.115C575.677 429.736 607.428 410.168 639.822 391.572C640.763 391.032 641.981 391.321 642.553 392.22C643.124 393.118 642.834 394.29 641.903 394.846C609.332 414.29 577.163 433.801 546.576 452.356C543.309 454.383 540.046 456.408 536.788 458.43C531.556 461.679 526.335 464.92 521.126 468.148C481.687 492.587 442.92 516.272 404.543 536.816C403.587 537.327 402.379 537.005 401.835 536.092ZM398.642 531.18C398.068 530.276 398.365 529.097 399.306 528.546C439.816 504.813 482.941 478.818 526.49 452.567C563.325 430.363 600.463 407.977 636.578 386.623C637.511 386.071 638.732 386.344 639.316 387.234C639.9 388.123 639.629 389.298 638.709 389.867C570.155 432.252 501.626 473.232 401.388 531.819C401.388 531.819 401.387 531.819 401.387 531.82C400.445 532.37 399.216 532.084 398.642 531.18ZM325.574 512.888C325.008 511.998 325.288 510.837 326.203 510.276C425.864 449.131 508.186 400.494 589.028 352.731C605.396 343.06 621.703 333.426 638.082 323.73C639.016 323.177 640.241 323.452 640.824 324.346C641.407 325.24 641.128 326.417 640.201 326.982C617.829 340.596 595.329 354.378 572.798 368.18C569.378 370.275 565.957 372.37 562.536 374.466C587.421 359.747 612.612 345.082 637.949 330.697C638.885 330.166 640.093 330.452 640.665 331.34C641.237 332.229 640.963 333.394 640.048 333.959C604.376 356.017 567.043 378.178 512.909 410.314C472.312 434.413 422.266 464.122 356.385 503.602C350.309 507.259 344.292 510.868 338.34 514.424C337.404 514.983 336.173 514.708 335.589 513.81C335.006 512.912 335.29 511.731 336.224 511.17C336.226 511.169 336.227 511.169 336.228 511.168C342.36 507.488 348.362 503.889 354.238 500.368C371.335 490.08 388.917 479.405 406.906 468.457C380.343 484.076 354.079 499.193 328.282 513.55C327.342 514.073 326.139 513.779 325.574 512.888ZM375.436 524.435C374.846 523.543 375.118 522.361 376.046 521.792C393.303 511.207 409.789 501.25 425.619 491.792C431.621 488.166 437.638 484.533 443.669 480.894C422.309 493.344 398.465 507.003 371.518 522.129C370.582 522.654 369.381 522.367 368.81 521.481C368.24 520.596 368.51 519.436 369.418 518.868C380.798 511.748 394.105 503.639 408.916 494.734C393.013 503.824 378.232 512.054 364.871 519.214C363.923 519.722 362.726 519.41 362.175 518.512C361.624 517.613 361.922 516.458 362.846 515.91C439.65 470.332 492.817 438.295 535.448 412.606C573.622 389.604 603.348 371.692 634.033 353.706C634.964 353.16 636.18 353.433 636.763 354.32C637.346 355.206 637.08 356.377 636.165 356.949C596.315 381.874 556.218 406.736 518.149 429.916C543.359 414.995 569.624 399.402 595.997 383.567C608.62 375.988 621.267 368.353 633.835 360.711L634.905 362.33L635.946 363.967C623.331 371.357 611.045 378.83 598.278 386.721C589.506 392.143 580.506 397.763 571.016 403.689C560.176 410.458 548.696 417.626 536.185 425.356C569.611 405.408 603.302 385.45 637.086 365.653C638.014 365.109 639.224 365.378 639.81 366.258C640.396 367.137 640.141 368.305 639.236 368.884C598.734 394.832 557.422 418.944 511.202 445.92C485.126 461.139 457.487 477.27 427.551 495.157C410.972 505.174 394.511 515.138 378.189 525.029C377.258 525.593 376.027 525.327 375.436 524.435ZM392.06 528.293C391.467 527.417 391.713 526.247 392.614 525.661C407.923 515.706 423.35 505.791 438.914 495.934C421.284 506.305 404.284 516.334 388.177 525.943C387.245 526.499 386.02 526.229 385.434 525.339C384.847 524.449 385.118 523.272 386.041 522.702C423.43 499.627 463.393 476.076 504.727 451.717L507.224 450.246C549.451 425.36 593.085 399.623 636.883 372.664C637.808 372.095 639.039 372.35 639.637 373.236C640.236 374.122 639.976 375.304 639.056 375.882C628.159 382.731 617.161 389.558 606.111 396.348C616.271 390.72 626.504 385.134 636.816 379.593C637.767 379.082 638.97 379.398 639.518 380.302C640.067 381.207 639.759 382.366 638.826 382.907C588.579 412.059 537.63 442.813 482.735 475.949C454.603 492.931 425.434 510.538 394.792 528.876C393.868 529.428 392.654 529.169 392.06 528.293ZM345.578 514.7C345.007 513.802 345.298 512.63 346.229 512.075C379.752 492.08 411.147 473.422 440.901 455.739C513.988 412.301 577.179 374.746 637.723 337.719C638.651 337.151 639.883 337.411 640.477 338.3C641.072 339.189 640.806 340.372 639.882 340.946C600.335 365.488 560.321 389.951 521.08 413.606C524.693 411.509 528.22 409.467 531.667 407.474C538.576 403.479 545.161 399.682 551.474 396.043C569.719 385.525 585.682 376.323 600.588 367.44C612.228 360.373 623.232 353.597 634.146 346.749C635.066 346.172 636.299 346.416 636.905 347.296C637.512 348.176 637.264 349.361 636.351 349.947C625.388 356.986 614.362 363.746 602.699 370.696C578.279 385.522 551.057 401.632 516.033 422.36C476.091 445.997 426.003 475.64 358.347 516.234C357.418 516.791 356.194 516.525 355.604 515.638C355.014 514.751 355.279 513.574 356.198 513.001C377.583 499.645 397.196 487.551 415.274 476.527C392.082 490.119 369.656 503.121 348.307 515.35C347.366 515.889 346.148 515.599 345.578 514.7ZM26.8777 429.822C26.299 428.925 26.5833 427.748 27.5143 427.188C138.203 360.6 227.602 307.625 304.932 261.801C333.513 244.865 360.446 228.905 386.195 213.597C443.215 179.259 499.741 145.098 556.302 110.9C557.232 110.337 558.461 110.602 559.052 111.492C559.643 112.382 559.373 113.563 558.449 114.134C504.27 147.61 449.65 180.382 388.33 216.839C272.305 286.708 154.224 357.312 29.6181 430.448C28.6809 430.999 27.4563 430.719 26.8777 429.822ZM27.0442 422.834C26.4624 421.935 26.7502 420.753 27.687 420.195C27.6874 420.195 27.6877 420.194 27.688 420.194M27.0442 422.834C27.6259 423.734 28.8569 424.011 29.7941 423.453L27.0442 422.834ZM348.832 228.131C422.919 183.672 488.13 144.54 553.094 105.929C554.029 105.374 555.255 105.648 555.839 106.542C556.423 107.437 556.144 108.615 555.215 109.179C433.08 183.377 311.917 255.496 161.385 345.096C137.563 359.276 113.005 373.893 87.5917 389.026C68.9464 400.143 49.6988 411.609 29.7941 423.453M348.832 228.131C273.306 273.453 188.556 324.311 85.4403 385.794L348.832 228.131ZM85.4403 385.794C66.675 396.967 47.4429 408.423 27.6955 420.19L85.4403 385.794ZM27.2079 415.837C26.6312 414.935 26.9258 413.755 27.8659 413.201C27.8661 413.201 27.8663 413.201 27.8665 413.201C27.9387 413.158 28.011 413.116 28.0831 413.074C176.081 325.968 346.495 223.383 521.221 118.201C529.629 113.14 538.046 108.073 546.472 103.001C547.406 102.439 548.638 102.71 549.225 103.606C549.811 104.503 549.531 105.686 548.597 106.249C526.032 119.868 503.148 133.725 479.162 148.248C373.288 212.356 245.956 289.456 29.9545 416.471C29.0142 417.024 27.7845 416.74 27.2079 415.837ZM30.7782 406.84C30.1928 405.949 30.4656 404.772 31.3894 404.203C251.177 269.032 395.853 181.552 539.906 100.04C540.848 99.5072 542.062 99.8011 542.629 100.7C543.196 101.598 542.904 102.767 541.975 103.321C492.99 132.533 443.541 162.198 387.075 196.071C296.375 250.48 187.574 315.749 33.5208 407.447C32.5884 408.002 31.3637 407.731 30.7782 406.84ZM34.3306 397.82C33.7461 396.923 34.0281 395.742 34.9609 395.18C123.715 341.683 202.34 294.374 275.308 250.647C286.009 244.181 296.304 237.958 306.232 231.957C407.458 170.768 470.392 132.726 533.292 97.1071C534.236 96.5727 535.453 96.8682 536.019 97.7694C536.584 98.6707 536.288 99.8409 535.355 100.392C452.405 149.345 369.428 198.766 277.466 253.875C214.062 292.188 136.442 339.014 37.0805 398.431C36.1455 398.99 34.9152 398.717 34.3306 397.82ZM37.8885 388.803C37.3037 387.908 37.5838 386.727 38.5149 386.164C133.861 328.457 208.649 283.268 269.873 246.422C280.923 239.73 291.912 233.082 302.85 226.475C290.187 233.933 277.712 241.263 265.463 248.454C194.212 291.42 122.006 334.782 47.5695 378.379C46.6401 378.923 45.4273 378.653 44.843 377.77C44.2587 376.888 44.5181 375.719 45.4262 375.143C89.7668 346.998 154.217 309.204 229.169 265.25C235.505 261.535 241.915 257.776 248.395 253.974C253.347 251.069 258.34 248.14 263.371 245.187C277.228 236.83 291.048 228.489 304.843 220.163C376.799 176.736 448.049 133.734 520.04 91.2588C520.972 90.7089 522.192 90.9814 522.776 91.8701C523.359 92.7588 523.09 93.9326 522.171 94.5026C499.633 108.481 477.054 122.314 454.601 135.941C478.548 121.902 502.529 107.993 526.676 94.1788C527.622 93.6377 528.846 93.9337 529.412 94.8405C529.978 95.7474 529.673 96.9227 528.73 97.4681C460.172 137.112 392.275 177.285 272.013 249.661C255.227 259.827 238.297 270.094 221.181 280.475C163.651 315.365 104.01 351.536 40.6371 389.413C39.7027 389.972 38.4734 389.699 37.8885 388.803ZM48.3992 368.756C47.8098 367.866 48.0793 366.687 49.0024 366.116C86.2328 343.095 135.709 312.973 192.986 278.485C148.105 305.161 102.126 332.375 54.6877 360.344C53.7501 360.897 52.5229 360.617 51.9436 359.719C51.3642 358.82 51.6507 357.642 52.5844 357.083C121.636 315.763 181.52 279.686 236.098 246.806C334.971 187.24 416.43 138.165 503.435 87.4165C504.372 86.8703 505.592 87.1505 506.17 88.0445C506.748 88.9385 506.468 90.1122 505.542 90.6749C454.397 121.763 402.915 152.874 350.431 184.408C401.906 153.867 455.776 122.106 510.044 90.3523C510.045 90.352 510.045 90.3517 510.046 90.3515C510.987 89.8006 512.216 90.0865 512.79 90.9901C513.365 91.8938 513.068 93.0732 512.127 93.6249C396.848 161.202 281.924 230.402 131.84 320.773C106.041 336.308 79.2033 352.468 51.1462 369.353C50.2158 369.912 48.9887 369.646 48.3992 368.756ZM58.8972 348.69C58.3118 347.795 58.59 346.615 59.5195 346.051C160.374 284.766 240.197 237.412 309.13 196.615C314.882 193.21 320.558 189.852 326.164 186.535C359.977 166.528 391.242 148.029 421.257 130.094C445.36 115.591 469.449 101.049 493.402 86.5257C494.333 85.9612 495.565 86.227 496.156 87.1198C496.746 88.0126 496.472 89.1954 495.544 89.7636C471.852 104.258 448.034 118.612 423.376 133.345C344.236 180.966 264.942 228.17 189.791 272.907C145.329 299.375 102.317 324.981 61.645 349.298C60.7113 349.856 59.4827 349.584 58.8972 348.69ZM65.8363 337.633C65.2581 336.734 65.5473 335.555 66.4826 334.998C85.7251 323.539 104.052 312.626 121.542 302.212C302.246 194.609 393.656 140.178 483.4 85.6233C484.328 85.059 485.557 85.3208 486.151 86.2092C486.744 87.0975 486.478 88.2787 485.556 88.8522C369.249 161.181 251.518 230.667 68.5803 338.262C67.6418 338.814 66.4144 338.533 65.8363 337.633ZM76.1749 324.56C75.5983 323.661 75.8862 322.485 76.8191 321.927C136.08 286.511 189.605 254.168 239.463 224.042C326.031 171.733 401.544 126.105 476.827 82.6662C477.759 82.1283 478.969 82.4058 479.548 83.2904C480.126 84.175 479.861 85.3412 478.951 85.9134C360.382 160.462 240.433 230.813 78.9145 325.192C77.9759 325.741 76.7515 325.458 76.1749 324.56ZM83.1233 313.523C82.5408 312.624 82.8272 311.442 83.7631 310.883C106.325 297.402 127.493 284.744 147.418 272.821C176.349 255.473 205.232 238.101 234.15 220.708C242.723 215.551 251.298 210.393 259.879 205.234C212.977 232.938 158.648 264.714 92.8044 303.106C91.866 303.653 90.6428 303.37 90.0665 302.472C89.4902 301.575 89.7771 300.399 90.7086 299.841C157.911 259.57 214.214 226.121 263.979 196.557C337.91 152.636 397.409 117.288 456.776 80.8819C457.701 80.3151 458.928 80.5699 459.527 81.4526C460.125 82.3353 459.87 83.5156 458.955 84.0965C433.914 100.004 408.7 115.709 381.598 132.281C409.814 115.457 438.193 98.6186 466.812 81.7678C467.751 81.2146 468.981 81.4969 469.558 82.3987C470.136 83.3005 469.843 84.4805 468.904 85.0351C468.903 85.0356 468.903 85.036 468.902 85.0365M83.1233 313.523C83.7057 314.421 84.9367 314.698 85.8734 314.139L83.1233 313.523ZM85.8734 314.139C107.157 301.456 128.377 288.76 149.569 276.053L85.8734 314.139ZM149.569 276.053C208.645 240.702 256.791 211.821 297.936 187.139C369.089 144.456 419.303 114.334 468.897 85.0391M100.401 289.398C99.8299 288.502 100.117 287.331 101.045 286.773C155.146 254.282 199.818 227.517 237.557 204.944C246.839 199.217 256.055 193.516 265.221 187.846C270.353 184.671 275.47 181.506 280.573 178.351C293.608 170.295 306.558 162.307 319.466 154.403C274.266 181.794 228.222 209.639 180.153 238.057C154.981 253.348 131.478 267.23 110.043 279.018C109.093 279.54 107.881 279.231 107.327 278.325C106.772 277.418 107.081 276.252 108.02 275.711C131.901 261.937 155.194 248.308 178.028 234.809C199.508 221.761 222.222 207.676 245.931 192.973C250.595 190.081 255.298 187.164 260.037 184.227C287.54 167.184 316.271 149.449 345.865 131.656C322.42 145.625 298.817 159.555 275.071 173.561L270.156 176.46C219.723 206.206 168.653 236.327 117.072 267.927C116.146 268.494 114.917 268.237 114.32 267.352C113.723 266.467 113.983 265.285 114.901 264.707C179.535 224.046 286.369 161.009 402.336 92.5823C410.451 87.7944 418.61 82.98 426.802 78.1451C427.735 77.5946 428.956 77.868 429.54 78.7581C430.123 79.6481 429.851 80.8227 428.93 81.3911C408.044 94.2802 387.013 107.026 365.848 119.714C391.287 104.611 417.289 89.5675 443.632 74.9709C444.576 74.4477 445.783 74.7483 446.344 75.6461C446.905 76.544 446.612 77.7074 445.686 78.2598C417.955 94.8029 390.327 111.478 362.52 128.314C391.567 110.938 420.647 94.0744 450.255 77.8987C451.199 77.3829 452.4 77.6862 452.958 78.5814C453.515 79.4766 453.226 80.6353 452.305 81.1893C423.614 98.4601 395.453 115.245 358.525 137.255C327.146 155.957 289.437 178.433 239.695 208.185M124.658 254.277C124.067 253.399 124.319 252.229 125.222 251.647C139.793 242.26 156.064 231.906 173.688 220.853C161.017 228.294 147.92 235.942 134.318 243.836C133.377 244.382 132.154 244.096 131.58 243.195C131.006 242.295 131.298 241.12 132.233 240.565C141.725 234.93 151.714 229.007 162.138 222.827C176.564 214.274 191.822 205.227 207.747 195.767C186.73 208.006 164.723 220.337 141.195 232.829C140.251 233.33 139.063 233.021 138.511 232.131C137.959 231.241 138.243 230.092 139.152 229.535C178.908 205.174 217.909 182.073 256.368 159.293C286.521 141.434 316.341 123.771 345.932 105.852C346.859 105.291 348.084 105.551 348.677 106.436C349.271 107.32 349.011 108.498 348.096 109.076C340.613 113.796 333.172 118.505 325.741 123.208C298.958 140.159 272.312 157.023 244.356 173.986C274.004 156.313 305.342 137.544 337.463 118.119C337.925 117.838 338.388 117.557 338.851 117.276C350.203 110.381 361.513 103.513 372.883 96.621C373.815 96.0562 375.047 96.3229 375.637 97.2168C376.227 98.1108 375.951 99.2941 375.021 99.8609C365.612 105.593 356.24 111.285 346.929 116.924C365.526 106.298 384.38 95.7127 403.295 85.3205C404.239 84.802 405.442 85.1037 406.001 85.9993C406.56 86.8948 406.271 88.0549 405.349 88.6091C300.862 151.46 196.097 214.032 127.388 254.869C126.463 255.419 125.248 255.156 124.658 254.277ZM148.86 219.08C148.305 218.206 148.563 217.067 149.447 216.494C164.398 206.794 178.413 197.979 191.762 189.789C183.954 194.39 175.415 199.316 165.82 204.732C162.376 206.7 158.812 208.7 155.115 210.732C154.16 211.257 152.942 210.941 152.392 210.025C151.842 209.11 152.167 207.94 153.119 207.41C156.819 205.349 160.37 203.359 163.787 201.43C177.659 193.504 189.585 186.104 200.449 179.296C201.744 178.484 203.024 177.681 204.291 176.886C216.267 169.372 227.065 162.596 237.879 156.71C238.813 156.202 239.999 156.494 240.564 157.371C241.129 158.248 240.87 159.397 239.978 159.971C232.116 165.03 224.341 169.981 215.983 175.159C228.843 167.507 241.185 160.336 253.293 153.373C265.858 145.785 278.761 138.304 291.961 131.251C292.915 130.742 294.118 131.061 294.664 131.969C295.209 132.877 294.895 134.036 293.957 134.573C288.984 137.421 284.025 140.253 279.06 143.088C271.21 147.571 263.344 152.063 255.38 156.643C242.706 164.298 230.361 172.074 218.376 179.645C217.412 180.254 216.451 180.862 215.491 181.468C192.759 195.833 171.319 209.381 151.524 219.765C150.589 220.256 149.416 219.954 148.86 219.08Z" fill="#C3C8E1"/>
<path fill-rule="evenodd" clip-rule="evenodd" d="M358.365 513.88C382.639 518.231 405.922 530.493 428.451 545.488C442.766 555.016 456.915 565.749 470.855 576.324C478.817 582.363 486.71 588.35 494.528 594.033C516.153 609.751 537.309 623.225 558.387 629.738C579.342 636.212 600.179 635.798 621.39 623.759C661.421 597.783 664.389 553.759 657.334 503.187C654.954 486.128 651.46 468.482 647.931 450.655C646.232 442.078 644.526 433.46 642.931 424.844C638.041 398.423 634.221 372.118 635.094 347.649C634.44 332.248 635.264 316.943 636.344 301.873C636.592 298.408 636.853 294.958 637.114 291.522C637.991 279.959 638.855 268.559 639.159 257.298C639.945 228.138 636.951 200.282 620.786 174.199C585.704 124.333 531.093 91.1647 467.485 84.0444L467.474 84.043C440.873 80.9085 414.65 86.9016 388.278 96.4645C375.096 101.244 361.917 106.9 348.658 112.727C346.264 113.779 343.867 114.837 341.467 115.897C330.609 120.689 319.688 125.508 308.715 129.941C294.181 136.745 279.625 142.862 265.435 148.824C263.349 149.701 261.27 150.574 259.201 151.446C243.023 158.261 227.401 164.978 212.806 172.444C183.626 187.37 158.706 205.214 141.923 232.551C141.902 232.586 141.879 232.621 141.855 232.655C134.886 242.505 127.328 252.802 119.523 263.436C94.1896 297.949 66.2595 336.001 47.4648 373.782C22.873 423.217 14.353 471.334 46.9689 510.026L47.0019 510.065L47.0014 510.065C62.5771 529.567 83.0674 538.254 106.836 540.636C130.697 543.027 157.783 539.053 186.353 533.222C196.559 531.14 206.97 528.816 217.475 526.471C236.242 522.282 255.308 518.027 274.032 514.961C303.28 510.172 332.073 508.207 358.365 513.88ZM43.8475 512.418C60.2223 532.907 81.8088 541.983 106.423 544.45C130.954 546.908 158.569 542.813 187.185 536.973C197.553 534.857 208.036 532.517 218.57 530.165C237.245 525.996 256.079 521.791 274.705 518.741C303.783 513.98 331.98 512.109 357.525 517.628C357.549 517.633 357.574 517.638 357.598 517.642C381.055 521.839 403.794 533.741 426.176 548.639C440.408 558.111 454.356 568.694 468.215 579.208C476.2 585.266 484.155 591.302 492.117 597.089C513.782 612.836 535.396 626.662 557.165 633.388C579.041 640.147 601.111 639.744 623.478 627.03C623.512 627.01 623.545 626.99 623.578 626.969C665.771 599.625 668.362 553.35 661.294 502.68C658.899 485.518 655.37 467.692 651.829 449.804C650.136 441.253 648.44 432.688 646.864 424.175C641.977 397.773 638.221 371.775 639.089 347.711C639.091 347.663 639.091 347.614 639.089 347.566C638.438 332.36 639.249 317.203 640.329 302.137C640.575 298.708 640.834 295.282 641.094 291.86C641.972 280.28 642.846 268.758 643.152 257.399C643.947 227.932 640.946 199.201 624.189 172.192C624.17 172.161 624.149 172.13 624.128 172.1C588.42 121.317 532.777 87.4956 467.956 80.2368C440.425 76.9935 413.493 83.2219 386.864 92.8775C373.545 97.707 360.261 103.41 346.994 109.241C344.587 110.298 342.182 111.36 339.776 112.422C328.904 117.22 318.038 122.015 307.113 126.427C307.079 126.441 307.045 126.456 307.012 126.471C292.541 133.248 278.049 139.337 263.838 145.309C261.75 146.186 259.669 147.061 257.594 147.935C241.417 154.75 225.67 161.518 210.926 169.06C181.445 184.14 155.821 202.388 138.514 230.55C131.639 240.267 124.152 250.466 116.399 261.028C91.0316 295.585 62.8152 334.025 43.8597 372.129C19.1112 421.878 9.71746 471.91 43.8475 512.418Z" fill="#C3C8E1"/>
</g>
</svg>
