<svg width="574" height="624" viewBox="0 0 574 624" fill="none" xmlns="http://www.w3.org/2000/svg">
<path fill-rule="evenodd" clip-rule="evenodd" d="M108.669 619.625C107.819 619.221 107.511 618.103 107.98 617.123C268.023 282.912 326.257 160.034 381.574 39.6357M108.669 619.625C109.518 620.03 110.591 619.57 111.068 618.595L108.669 619.625ZM111.068 618.595C131.94 575.971 152.402 533.888 172.537 492.177L111.068 618.595ZM381.576 39.63C381.577 39.6294 381.577 39.6288 381.577 39.6282C382.032 38.6388 383.1 38.1471 383.964 38.5296C384.827 38.9121 385.159 40.0242 384.706 41.014C374.505 63.2687 364.301 85.4536 354.079 107.595C364.789 85.5372 375.533 63.598 386.339 41.7601C386.816 40.795 387.878 40.3378 388.724 40.7329C389.57 41.128 389.888 42.2293 389.438 43.2074C304.193 228.628 217.501 409.016 127.038 597.25L120.882 610.061L120.875 610.074C120.405 611.053 119.333 611.523 118.479 611.125C117.626 610.726 117.311 609.61 117.775 608.628C136.417 569.212 154.633 530.419 172.537 492.177M102.266 621.008C101.41 620.614 101.091 619.497 101.553 618.513C101.555 618.51 101.556 618.508 101.557 618.506C114.035 591.968 125.923 566.77 137.262 542.807C146.404 523.355 156.157 502.571 166.441 480.659C186.832 437.208 209.306 389.318 233.229 338.559C194.818 419.474 151.507 510.208 99.921 617.767C99.452 618.744 98.3842 619.216 97.5302 618.822C96.6763 618.428 96.3564 617.317 96.8142 616.334C151.151 499.657 199.58 398.28 244.833 303.68C247.082 298.98 249.322 294.297 251.555 289.629C289.11 211.129 324.541 137.067 359.449 62.461C364.246 52.1853 369.028 41.9315 373.807 31.6747C374.267 30.6877 375.337 30.2029 376.198 30.5915C377.059 30.9802 377.385 32.0952 376.926 33.0826C376.925 33.0832 376.925 33.0839 376.925 33.0846M362.573 63.8554C339.35 113.606 315.784 163.87 290.512 217.479C318.973 157.585 348.606 95.6634 378.554 33.8314C379.02 32.869 380.069 32.3997 380.918 32.7734C381.767 33.1471 382.107 34.2277 381.685 35.2096C354.026 99.5583 323.027 163.717 274.354 264.455C240.107 335.337 197.11 424.328 140.369 544.239C127.096 572.481 115.11 597.922 104.661 619.944C104.194 620.927 103.123 621.403 102.266 621.008M362.573 63.8554C367.364 53.6165 372.145 43.3674 376.92 33.0949L362.573 63.8554ZM126.589 606.183C125.738 605.783 125.425 604.668 125.889 603.688C213.17 419.088 276.814 284.604 335.826 160.255C354.384 120.552 371.645 83.997 389.377 47.5242C389.851 46.5479 390.923 46.0836 391.774 46.4852C392.625 46.8869 392.937 48.0035 392.471 48.9839C374.696 86.3651 357.034 123.546 338.936 161.681C329.871 181.075 320.495 201.223 310.601 222.485C303.61 237.507 296.36 253.086 288.779 269.348C248.508 355.725 198.887 461.338 128.985 605.143C128.51 606.118 127.44 606.583 126.589 606.183ZM91.1179 620.2C90.2581 619.809 89.9348 618.693 90.3958 617.706C161.48 465.566 213.072 355.297 254.871 266.824C245.186 287.191 235.418 307.722 225.56 328.439C189.726 404.275 145.114 498.488 87.0816 620.511C86.6145 621.493 85.5431 621.968 84.6868 621.573C83.8304 621.177 83.5124 620.06 83.9757 619.076C131.799 517.532 177.395 421.705 221.228 329.583C221.635 328.726 222.043 327.869 222.451 327.012C242.711 284.136 260.167 247.131 275.656 214.294C312.623 135.927 338.389 81.304 364.35 27.2732C364.82 26.2952 365.889 25.8248 366.743 26.2205C367.596 26.6161 367.914 27.7291 367.454 28.7116C344.656 77.3772 321.459 126.507 297.784 176.456C323.555 122.52 346.126 75.995 369.092 29.4395C369.572 28.467 370.644 28.0098 371.492 28.4161C372.34 28.8223 372.646 29.9396 372.177 30.9175C282.732 217.499 190.605 411.762 93.5113 619.121C93.5104 619.122 93.5114 619.12 93.5104 619.122C93.0487 620.108 91.9777 620.591 91.1179 620.2ZM134.71 601.246C133.854 600.853 133.534 599.74 133.993 598.755C177.613 505.358 256.126 340.123 341.404 160.654C358.215 125.275 375.289 89.3422 392.41 53.2976C392.876 52.3176 393.943 51.8415 394.8 52.2321C395.656 52.6227 395.979 53.7333 395.523 54.7178C330.314 195.521 263.156 336.113 200.707 466.847C178.832 512.64 157.535 557.224 137.102 600.183C136.636 601.164 135.566 601.639 134.71 601.246ZM78.2521 622.943C77.3993 622.54 77.0893 621.42 77.5591 620.439C153.848 461.127 247.943 261.739 346.17 53.5948C351.203 42.929 356.247 32.2402 361.3 21.5326C361.765 20.5491 362.835 20.0702 363.693 20.4623C364.551 20.8543 364.873 21.9693 364.412 22.9546C262.817 240.411 160.736 456.363 80.6521 621.901C80.1784 622.88 79.1048 623.346 78.2521 622.943ZM144.492 592.732C143.647 592.33 143.337 591.223 143.795 590.246C220.262 427.261 308.139 240.442 395.462 59.0404C395.931 58.0654 396.996 57.5953 397.849 57.987C398.702 58.3787 399.024 59.4857 398.57 60.4682C378.289 104.432 358.019 148.342 337.706 192.129C359.566 145.799 379.727 103.406 400.198 61.225C400.667 60.2595 401.72 59.7918 402.57 60.1725C403.419 60.5531 403.752 61.6424 403.32 62.624C397.268 76.3503 391.106 90.0173 384.785 103.788C390.9 91.453 397.046 79.1889 403.258 66.9438C403.747 65.9809 404.816 65.5372 405.657 65.9482C406.498 66.3592 406.799 67.4721 406.332 68.4455C397.688 86.4554 389.038 104.418 380.013 123.157C353.417 178.387 323.573 240.358 281.089 330.146C278.744 335.192 276.38 340.281 273.995 345.415C241.507 415.337 205.162 493.563 161.435 585.364C160.968 586.344 159.9 586.819 159.044 586.426C158.189 586.034 157.867 584.921 158.325 583.938C207.772 477.712 246.364 395.539 277.964 328.754C288.269 306.577 298.202 285.222 307.879 264.511C306.282 267.79 304.673 271.096 303.05 274.43C300.276 280.127 297.464 285.907 294.61 291.775C257.155 371.481 212.888 465.599 155.014 586.741C154.548 587.718 153.483 588.191 152.629 587.803C151.774 587.414 151.449 586.308 151.9 585.325C160.834 565.826 169.481 547.077 177.857 529.022C167.58 549.997 157.257 570.897 146.884 591.715C146.403 592.681 145.337 593.134 144.492 592.732ZM73.5276 620.756C72.671 620.358 72.3554 619.239 72.8226 618.255C81.1087 600.807 89.2776 583.629 97.3352 566.703C199.008 352.81 265.604 211.859 326.761 82.4199C336.8 61.1738 346.691 40.2379 356.568 19.3404C357.031 18.3596 358.098 17.8809 358.955 18.2692C359.812 18.6575 360.138 19.7668 359.684 20.7522C302.018 145.974 241.68 272.284 173.759 414.468C150.282 463.616 125.898 514.661 100.405 568.212C92.4669 584.913 84.3146 602.058 75.9343 619.677C75.9316 619.683 75.9287 619.689 75.9259 619.695C75.9257 619.695 75.9255 619.696 75.9253 619.696C75.4575 620.68 74.3842 621.154 73.5276 620.756ZM517.608 426.298C516.777 425.89 516.474 424.797 516.922 423.83C520.776 415.512 525.505 405.911 530.726 395.314C540.443 375.589 551.86 352.413 562.496 327.632C562.913 326.66 563.928 326.133 564.796 326.438C565.664 326.742 566.075 327.771 565.728 328.767C563.827 334.217 561.732 339.703 559.354 345.45C561.403 341.366 563.494 337.279 565.618 333.227C566.09 332.326 567.077 331.886 567.898 332.212C568.719 332.537 569.103 333.521 568.786 334.484C562.133 354.679 552.65 374.195 528.098 420.399C527.597 421.343 526.537 421.765 525.709 421.352C524.88 420.938 524.582 419.84 525.038 418.874C527.185 414.318 529.849 408.431 532.933 401.616C534.161 398.901 535.456 396.04 536.812 393.056C531.921 402.623 526.361 413.264 519.992 425.336C519.494 426.279 518.438 426.705 517.608 426.298ZM68.7895 618.566C67.9387 618.167 67.6254 617.053 68.0877 616.073C76.9422 597.297 85.549 579.045 93.9259 561.282C121.621 502.551 146.803 449.15 170.116 399.752C172.366 394.889 174.615 390.024 176.864 385.157C158.584 423.467 141.296 459.56 125.418 492.645C106.653 531.901 87.0613 572.687 66.4585 615.32M173.312 400.996C245.355 248.349 299.548 133.942 354.936 18.5978C355.404 17.6241 355.103 16.5105 354.261 16.0998C353.419 15.689 352.35 16.1339 351.862 17.0978C342.767 35.0724 333.771 53.1036 324.86 71.1806C333.33 52.9356 341.793 34.6486 350.218 16.3745C350.672 15.389 350.347 14.2791 349.49 13.8906C348.632 13.5021 347.565 13.9811 347.102 14.9624C323.811 64.2819 300.575 113.763 276.711 164.58C229.475 265.168 179.781 370.991 122.336 491.162C107.228 522.644 93.3976 551.402 81.2049 576.754C74.7855 590.103 68.8201 602.507 63.3615 613.867C62.8901 614.848 63.1992 615.97 64.0523 616.373C64.9054 616.777 65.98 616.31 66.4536 615.33C66.4543 615.329 66.4551 615.327 66.4558 615.326M173.312 400.996C139.701 473.67 105.987 546.056 71.1839 617.527C70.7094 618.502 69.6401 618.966 68.7895 618.566M533.795 416.398C532.974 415.967 532.696 414.858 533.168 413.899C534.39 411.419 535.566 409.032 536.698 406.735C542.412 395.138 547.02 385.786 550.854 377.936C553.615 371.96 556.424 365.795 559.254 359.582C562.919 351.537 566.621 343.412 570.304 335.512C570.755 334.545 571.795 334.057 572.651 334.411C573.507 334.765 573.868 335.833 573.466 336.821C568.349 349.374 563.557 359.719 553.952 379.388C547.715 392.882 541.69 405.472 536.197 415.486C535.683 416.424 534.617 416.829 533.795 416.398ZM512.83 424.084C512 423.642 511.734 422.507 512.235 421.545C522.334 402.137 531.291 383.388 539.651 365.326C541.161 361.911 542.565 358.678 543.886 355.612C545.024 352.97 546.103 350.444 547.135 348.028C552.481 335.512 556.579 325.916 561.278 318.046C561.812 317.152 562.849 316.786 563.647 317.211C564.444 317.635 564.727 318.704 564.291 319.651C561.301 326.155 558.289 332.776 555.226 339.511C551.193 348.377 547.071 357.441 542.789 366.692C536.193 381.613 527.595 400.011 515.254 423.153C514.743 424.111 513.66 424.526 512.83 424.084ZM541.957 411.482C541.141 411.095 540.818 410.045 541.219 409.085C547.449 394.172 557.06 374.417 568.306 351.905C568.772 350.972 569.789 350.513 570.626 350.859C571.463 351.205 571.83 352.236 571.464 353.211C564.927 370.608 558.805 384.273 544.304 410.549C543.8 411.461 542.773 411.869 541.957 411.482ZM172.215 570.785C171.36 570.385 171.046 569.266 171.514 568.284C181.029 548.274 191.065 527.277 201.522 505.449C235.008 435.113 267.557 366.065 299.728 297.821C335.458 222.026 370.721 147.222 406.28 72.7462C406.747 71.7697 407.811 71.2956 408.665 71.6837C409.52 72.0717 409.845 73.177 409.395 74.1609C390.666 115.103 371.549 156.243 352.427 196.978C371.636 156.36 390.369 117.201 409.333 78.4806C409.809 77.5076 410.879 77.0466 411.728 77.448C412.578 77.8494 412.889 78.9631 412.426 79.9423C398.765 108.813 385.088 137.741 370.954 167.634C336.748 239.983 299.869 317.984 254.089 414.499C233.43 458.053 210.959 505.377 186.102 557.654L184.551 556.933L183.003 556.205C207.431 505.284 229.884 457.88 250.929 413.179M250.929 413.179C267.49 378.001 283.179 344.496 298.271 312.266C309.171 288.988 319.759 266.376 330.14 244.279C296.759 314.877 263.817 383.516 233.369 446.96C223.493 467.538 213.88 487.57 204.599 506.945C194.688 527.761 184.698 548.686 174.613 569.732C174.143 570.713 173.07 571.184 172.215 570.785M506.502 425.507C505.657 425.131 505.319 424.054 505.739 423.075C526.394 374.89 540.249 347.104 552.045 324.233C554.039 320.237 556.07 316.305 558.186 312.378C558.699 311.425 559.78 311.014 560.607 311.458C561.435 311.901 561.7 313.032 561.201 313.993C560.873 314.625 560.545 315.259 560.215 315.894C558.542 319.117 556.84 322.397 555.094 325.784C549.844 336.304 544.829 347.309 539.09 359.968C538.757 360.703 538.421 361.445 538.082 362.192C530.402 379.135 521.387 399.026 508.864 424.464C508.393 425.42 507.347 425.882 506.502 425.507ZM500.099 426.891C499.246 426.527 498.896 425.453 499.309 424.468C504.272 412.622 508.815 402.136 513.025 392.705C507.621 404.147 501.997 415.675 496.001 427.256C495.515 428.194 494.477 428.632 493.644 428.251C492.812 427.869 492.481 426.803 492.894 425.832C496.649 416.993 500.487 408.076 504.43 399.094C504.314 399.325 504.197 399.556 504.081 399.788C499.559 408.762 494.742 418.322 489.592 428.605C489.111 429.566 488.051 430.017 487.208 429.621C486.365 429.224 486.049 428.125 486.497 427.149C502.285 392.768 515.994 364.212 529.051 337.015C536.959 320.541 544.628 304.566 552.376 288.096C552.825 287.141 553.85 286.655 554.701 286.994C555.552 287.333 555.928 288.376 555.554 289.361C553.212 295.522 550.782 301.581 548.232 307.652C550.059 304.202 551.912 300.75 553.791 297.295C554.305 296.351 555.376 295.943 556.2 296.378C557.024 296.812 557.298 297.93 556.816 298.89C547.476 317.498 538.788 336.581 529.929 356.038C529.049 357.972 528.167 359.909 527.282 361.85C526.937 362.606 526.592 363.363 526.247 364.12C532.771 350.526 538.511 339.299 543.999 328.565C548.331 320.091 552.506 311.924 556.787 303.14C557.262 302.167 558.329 301.703 559.179 302.101C560.03 302.499 560.345 303.61 559.886 304.59C546.429 333.314 533.963 359.629 502.454 425.813C501.995 426.778 500.951 427.256 500.099 426.891ZM59.3283 614.19C58.4731 613.791 58.158 612.673 58.6239 611.69C91.5616 542.207 124.509 472.416 157.518 402.494C218.811 272.66 280.318 142.374 342.371 12.7654C342.839 11.7888 343.904 11.3162 344.758 11.7066C345.612 12.097 345.936 13.2044 345.483 14.1877C273.953 169.477 199.799 324.493 62.9006 610.677L61.7297 613.125C61.7294 613.126 61.729 613.126 61.7286 613.127L61.7252 613.134C61.2558 614.116 60.1834 614.588 59.3283 614.19ZM480.721 430.965C479.895 430.527 479.624 429.401 480.115 428.44C495.726 397.861 508.173 372.134 519.284 348.318C522.944 340.282 526.52 332.345 530.032 324.55C536.053 311.183 541.887 298.233 547.641 285.914C548.099 284.934 549.16 284.449 550.019 284.828C550.878 285.206 551.214 286.307 550.772 287.295C541.516 307.97 532.522 328.033 522.424 349.679C510.485 375.886 497.614 403.206 483.137 430.043C482.625 430.993 481.548 431.404 480.721 430.965ZM52.9243 615.574C52.0709 615.191 51.7397 614.094 52.181 613.11C64.1653 586.387 77.7171 556.686 92.547 524.581C79.072 552.689 65.0991 581.882 50.5698 612.318C50.1015 613.299 49.0305 613.772 48.1751 613.376C47.3196 612.98 47.0022 611.864 47.4652 610.881C180.456 328.438 256.418 168.084 332.906 8.38646C333.372 7.41356 334.432 6.9404 335.285 7.32435C336.138 7.70831 336.468 8.80694 336.026 9.79043C326.109 31.8386 316.122 53.7854 305.994 75.8219C316.516 54.0897 327.079 32.3104 337.644 10.5627C338.119 9.58316 339.195 9.11916 340.048 9.52606C340.9 9.93298 341.205 11.0568 340.73 12.0368C294.175 108.117 247.919 206.556 197.726 313.375C154.144 406.122 107.594 505.187 55.3023 614.511C54.8369 615.484 53.7777 615.957 52.9243 615.574ZM474.433 432.404C473.563 432.049 473.202 430.96 473.624 429.964C478.526 418.384 483.641 407.06 488.869 395.918C493.595 385.534 498.02 375.981 502.196 367.091C502.13 367.227 502.064 367.362 501.998 367.498C493.928 384.742 484.216 404.919 472.012 429.174C471.525 430.141 470.453 430.588 469.61 430.176C468.767 429.764 468.467 428.647 468.938 427.673C479.655 405.517 488.842 386.674 496.79 370.372C497.508 368.901 498.215 367.45 498.913 366.019C504.871 353.286 509.931 342.156 514.438 332.162C515.858 329.014 517.223 325.978 518.545 323.038C527.089 304.034 533.816 289.073 541.601 274.308C542.088 273.385 543.112 272.953 543.938 273.323C544.764 273.692 545.106 274.735 544.718 275.703C539.899 287.74 534.188 300.497 526.656 316.451C528.902 311.904 531.091 307.491 533.238 303.16C537.132 295.309 540.891 287.73 544.612 280.124C545.083 279.161 546.137 278.697 546.984 279.079C547.831 279.461 548.163 280.55 547.731 281.53C537.702 304.269 526.65 326.553 515.495 349.043C514.459 351.132 513.422 353.223 512.384 355.317C505.528 369.155 498.662 383.098 491.99 397.319C487.248 407.737 482.201 418.993 476.793 431.257C476.357 432.247 475.303 432.759 474.433 432.404ZM463.244 431.579C462.392 431.206 462.05 430.124 462.473 429.14C467.87 416.597 472.855 405.086 477.493 394.472C472.65 404.398 467.826 414.248 463.052 423.996C461.757 426.639 460.467 429.275 459.18 431.903C458.703 432.877 457.632 433.338 456.782 432.934C455.932 432.53 455.623 431.414 456.09 430.435C460.756 420.654 465.596 410.532 470.57 400.13C490.874 357.666 513.409 310.538 535.46 262.905C535.914 261.924 536.972 261.435 537.832 261.807C538.693 262.18 539.035 263.276 538.6 264.265C535.743 270.761 532.841 277.269 529.901 283.782C532.799 278.511 535.676 273.458 538.605 268.465C539.132 267.566 540.168 267.19 540.97 267.607C541.772 268.024 542.063 269.089 541.634 270.039C523.836 309.507 506.228 346.082 484.796 390.598C478.736 403.186 472.37 416.408 465.608 430.511C465.145 431.477 464.095 431.951 463.244 431.579ZM195.215 546.654C194.354 546.27 194.024 545.158 194.477 544.17C240.03 444.969 289.776 340.968 340.366 235.205C364.296 185.177 388.414 134.755 412.367 84.2596C412.83 83.2834 413.891 82.8058 414.746 83.1884C415.602 83.5711 415.933 84.6715 415.49 85.6565C408.663 100.82 401.784 115.952 394.877 131.014C401.76 117.084 408.556 103.51 415.436 89.9595C415.925 88.9971 416.994 88.5537 417.834 88.9647C418.675 89.3756 418.976 90.4881 418.509 91.4613C371.095 190.324 324.376 289.327 275.542 392.815C253.887 438.705 231.816 485.476 209.084 533.508C208.619 534.49 207.549 534.968 206.692 534.575C205.835 534.183 205.513 533.068 205.973 532.083C228.616 483.62 248.576 440.795 266.434 402.478C270.548 393.652 274.55 385.065 278.448 376.704C274.915 384.013 271.423 391.234 267.977 398.361C240.925 454.304 216.693 504.417 197.602 545.565C197.144 546.551 196.076 547.039 195.215 546.654ZM45.1327 607.624C44.2792 607.232 43.9579 606.123 44.413 605.141C113.814 455.27 166.927 343.77 211.393 251.066C221.044 230.944 230.287 211.709 239.201 193.16C271.355 126.249 299.219 68.2646 326.467 9.79556M45.1327 607.624C45.9862 608.017 47.0526 607.546 47.5215 606.569L45.1327 607.624ZM47.5215 606.569C190.319 309.198 260.622 160.292 329.593 11.1886L47.5215 606.569ZM326.47 9.79034C326.471 9.78837 326.472 9.78645 326.473 9.78449C326.932 8.79829 328.001 8.31331 328.862 8.70062C329.722 9.08791 330.049 10.2011 329.593 11.1886M452.011 430.725C451.186 430.304 450.897 429.202 451.359 428.239C461.926 406.219 472.075 384.288 482.165 362.485C484.731 356.941 487.293 351.404 489.857 345.877C476.741 373.347 462.876 401.474 448.014 431.107C447.534 432.064 446.48 432.516 445.638 432.125C444.796 431.735 444.474 430.644 444.912 429.668C474.542 363.612 493.593 324.874 508.579 294.402C515.62 280.086 521.764 267.594 527.685 254.951C528.142 253.976 529.196 253.492 530.054 253.863C530.911 254.235 531.254 255.325 530.825 256.312C523.744 272.591 516.491 288.769 509.012 305.032C509.832 303.312 510.653 301.592 511.476 299.874C517.668 286.598 524.053 273.446 530.776 260.614C531.279 259.654 532.357 259.228 533.191 259.66C534.026 260.092 534.304 261.219 533.814 262.186C527.248 275.15 520.877 288.167 514.614 301.24C508.008 315.404 501.611 329.731 495.24 344.003C494.799 344.991 494.358 345.979 493.917 346.966C481.179 375.494 468.486 403.744 454.405 429.793C453.897 430.732 452.836 431.145 452.011 430.725ZM40.3962 605.435C39.5423 605.039 39.2246 603.926 39.6852 602.943C118.654 434.469 177.788 310.053 229.165 202.187C265.228 124.961 292.632 66.4384 321.762 7.54572C322.242 6.57598 323.31 6.11965 324.157 6.52294C325.004 6.92624 325.314 8.03862 324.851 9.01626C300.895 59.5912 276.942 109.862 251.33 163.616C245.081 176.732 238.733 190.055 232.263 203.64C230.437 207.549 228.59 211.505 226.719 215.512C183.522 308.029 127.761 427.454 42.7891 604.382C42.3193 605.36 41.25 605.831 40.3962 605.435ZM440.933 429.95C440.074 429.573 439.737 428.473 440.177 427.485C457.067 389.632 472.434 357.883 486.24 329.635C486.337 329.437 486.434 329.238 486.531 329.04C493.054 315.347 498.775 303.403 504.037 292.418C510.869 278.155 516.927 265.511 522.956 252.756C523.418 251.78 524.477 251.301 525.333 251.681C526.189 252.061 526.524 253.159 526.084 254.144C516.634 275.305 505.95 297.137 494.074 321.405C492.608 324.401 491.123 327.434 489.621 330.507C477.614 355.714 462.891 386.848 443.31 428.861C442.853 429.842 441.793 430.328 440.933 429.95ZM434.523 431.332C433.686 430.974 433.331 429.928 433.716 428.953C437.233 420.037 441.355 410.326 445.97 399.942C441.145 409.828 435.984 420.371 430.444 431.655C429.969 432.624 428.904 433.084 428.056 432.688C427.208 432.292 426.891 431.187 427.345 430.208C436.518 410.416 447.333 388.1 458.97 364.09C477.295 326.279 497.657 284.266 516.847 241.293C517.291 240.299 518.354 239.794 519.223 240.163C520.092 240.533 520.438 241.638 519.997 242.632C512.726 258.996 505.541 274.942 496.767 293.847C498.748 289.84 500.745 285.805 502.753 281.746C508.405 270.322 514.153 258.704 519.929 246.969C520.407 245.998 521.477 245.539 522.325 245.942C523.174 246.345 523.483 247.459 523.019 248.437C515.208 264.903 507.392 281.853 499.147 299.731C481.654 337.663 462.235 379.772 436.858 430.297C436.387 431.235 435.361 431.69 434.523 431.332ZM218.18 522.508C217.321 522.115 217 520.998 217.462 520.012C221.577 511.246 225.613 502.646 229.575 494.205C314.838 312.543 365.67 204.239 418.465 95.7474C418.939 94.7737 420.007 94.3092 420.857 94.707C421.708 95.1048 422.023 96.216 421.564 97.1965C379.178 187.622 334.927 280.598 295.951 362.491C266.92 423.49 240.814 478.34 220.587 521.407C220.583 521.416 220.578 521.424 220.574 521.433C220.574 521.433 220.574 521.433 220.574 521.433C220.111 522.419 219.039 522.9 218.18 522.508ZM37.3772 599.691C36.5162 599.31 36.1825 598.204 36.6302 597.215C55.178 556.275 77.3404 508.366 102.145 455.419C81.8872 498.044 59.639 544.789 35.0169 596.434C34.5489 597.415 33.4773 597.889 32.6215 597.493C31.7656 597.096 31.4486 595.979 31.9127 594.996C93.0054 465.53 143.906 358.38 189.736 261.905C210.649 217.881 230.507 176.081 249.794 135.397C271.813 88.712 291.113 47.8026 310.585 6.78051M310.588 6.77398C310.589 6.77183 310.59 6.7697 310.591 6.76756C311.057 5.78466 312.129 5.30876 312.986 5.70386C313.842 6.099 314.161 7.21589 313.697 8.20019C293.693 50.6893 273.63 93.1059 252.907 136.816C251.675 139.429 250.434 142.06 249.184 144.711C235.401 173.935 220.521 205.485 203.865 240.746C240.036 165.059 278.333 85.4554 317.02 5.37712C317.492 4.40204 318.558 3.93401 319.411 4.32862C320.263 4.72325 320.582 5.8329 320.125 6.81459C269.931 114.683 218.392 222.644 170.126 323.628C167.742 328.616 165.366 333.587 162.999 338.54C117.433 433.87 75.0339 522.573 39.7594 598.6C39.3026 599.584 38.2381 600.072 37.3772 599.691M423.302 430.49C422.456 430.078 422.156 428.957 422.631 427.981C431.981 408.767 443.016 385.057 455.174 358.93C457.735 353.427 460.347 347.816 463.003 342.117C478.26 309.379 494.982 273.764 512.152 239.022C512.634 238.046 513.712 237.59 514.56 238.004C515.408 238.418 515.706 239.544 515.226 240.521C505.244 260.822 495.26 282.484 484.078 306.746C481.712 311.88 479.292 317.129 476.808 322.507C462.585 353.292 446.25 388.238 425.706 429.479C425.222 430.451 424.148 430.903 423.302 430.49ZM416.911 431.882C416.058 431.491 415.735 430.384 416.187 429.402C430.596 398.094 446.1 365.749 462.257 332.042C477.413 300.422 493.144 267.602 509.086 233.315C509.542 232.333 510.605 231.846 511.465 232.225C512.325 232.604 512.661 233.706 512.217 234.694C492.632 278.32 471.848 321.539 435.23 397.687C430.227 408.09 424.929 419.109 419.297 430.826C418.829 431.802 417.764 432.272 416.911 431.882ZM412.16 429.683C411.309 429.279 411 428.161 411.468 427.181C419.733 409.878 427.198 394.26 433.994 380.043C469.626 305.5 486.842 269.483 504.343 231.144C504.794 230.156 505.857 229.66 506.722 230.036C507.586 230.411 507.926 231.515 507.482 232.506C487.145 277.916 465.075 324.903 414.559 428.646C414.084 429.622 413.011 430.086 412.16 429.683ZM27.8785 595.297C27.0273 594.895 26.7162 593.779 27.1822 592.799C75.7974 490.552 140.862 353.099 210.922 205.093C241.643 139.918 273.603 72.2842 305.855 4.58128M27.8785 595.297C28.7296 595.699 29.801 595.235 30.2758 594.259L27.8785 595.297ZM305.857 4.57814C305.857 4.57664 305.858 4.57511 305.859 4.57358C306.327 3.59099 307.399 3.11696 308.256 3.51431C309.112 3.91166 309.428 5.03022 308.962 6.01383C277.011 73.4727 245.045 141.002 214.056 206.468C199.91 236.48 186.026 265.972 172.496 294.711C116.973 412.649 67.4265 517.894 30.2758 594.259M231.327 506.855C230.49 506.447 230.187 505.344 230.643 504.373C256.425 449.561 282.084 396.024 307.487 343.021C341.697 271.64 375.444 201.227 408.401 129.976C412.762 120.508 417.126 111.028 421.485 101.551C421.485 101.549 421.486 101.548 421.486 101.547C421.941 100.558 423.009 100.067 423.872 100.449C424.736 100.832 425.068 101.943 424.615 102.933C420.27 112.423 415.909 121.894 411.535 131.352C404.139 147.409 396.749 163.431 389.396 179.343C401.017 155.082 412.73 131.002 424.563 107.237C425.043 106.272 426.108 105.818 426.953 106.218C427.798 106.619 428.11 107.725 427.654 108.701C380.003 210.78 332.024 311.799 282.972 414.66C270.413 441.36 257.846 467.78 245.228 493.752C244.753 494.729 243.681 495.193 242.829 494.791C241.977 494.388 241.667 493.27 242.135 492.289C254.756 465.854 267.296 439.585 279.765 413.437C283.739 404.988 287.714 396.51 291.69 388.006C269.691 434.023 249.926 474.381 233.718 505.87C233.227 506.825 232.164 507.263 231.327 506.855ZM405.715 431.048C404.881 430.636 404.582 429.532 405.042 428.563C413.428 410.881 422.293 392.277 431.521 372.91C435.983 363.544 440.531 354.001 445.15 344.296C446.317 341.737 447.491 339.162 448.671 336.573C449.034 335.777 449.397 334.98 449.761 334.181C465.806 298.979 483.006 261.332 501.343 225.302C501.83 224.344 502.892 223.901 503.731 224.305C504.571 224.708 504.879 225.81 504.425 226.784C485.13 268.131 466.157 308.125 448.268 345.705C433.975 377.047 420.579 406.179 408.108 430.079C407.611 431.029 406.549 431.46 405.715 431.048ZM399.359 432.452C398.512 432.082 398.168 431.01 398.581 430.03C413.618 394.316 433.53 353.483 455.683 308.056C469.24 280.255 483.637 250.734 498.269 219.611C498.729 218.632 499.791 218.15 500.649 218.531C501.506 218.913 501.839 220.015 501.395 221.001C476.875 275.443 452.293 327.896 401.715 431.4C401.248 432.356 400.205 432.822 399.359 432.452ZM394.593 430.25C393.748 429.855 393.429 428.756 393.877 427.778C417.266 376.718 438.118 333.319 457.852 292.246C465.946 275.399 473.852 258.944 481.669 242.512C485.608 234.158 489.569 225.78 493.535 217.414C494.001 216.432 495.072 215.955 495.929 216.349C496.786 216.744 497.106 217.86 496.643 218.844C492.694 227.254 488.738 235.615 484.76 243.978C475.145 264.365 465.649 284.614 456.485 304.153C433.394 353.387 412.415 398.119 396.977 429.225C396.498 430.188 395.438 430.644 394.593 430.25ZM24.8497 589.552C23.9925 589.16 23.6699 588.048 24.128 587.063C91.3628 442.513 157.487 303.858 221.521 169.585C247.87 114.333 273.865 59.8238 299.438 5.95113C299.903 4.97105 300.97 4.49464 301.827 4.88468C302.683 5.27478 303.007 6.38499 302.551 7.36958C256.046 107.944 208.157 208.367 150.037 330.241C113.797 406.236 73.5797 490.571 27.2403 588.483C26.7756 589.465 25.7068 589.943 24.8497 589.552ZM388.17 431.626C387.321 431.23 387.004 430.122 387.46 429.142C396.061 410.646 404.241 392.935 412.136 375.842C414.433 370.87 416.706 365.949 418.957 361.077C409.432 380.831 398.518 403.074 385.816 428.418C385.333 429.382 384.267 429.832 383.424 429.429C382.58 429.025 382.272 427.917 382.731 426.941C391.827 407.621 400.772 388.709 409.565 370.164C400.011 389.663 389.494 410.595 377.69 433.388C377.194 434.346 376.123 434.779 375.287 434.36C374.451 433.942 374.159 432.826 374.632 431.857C390.858 398.589 407.762 362.441 425.464 324.585L426.225 322.958C444.201 284.518 462.997 244.345 482.723 203.7C483.194 202.729 484.257 202.263 485.107 202.653C485.958 203.044 486.281 204.147 485.832 205.128C479.577 218.798 473.432 232.455 467.139 246.443C459.009 264.512 450.631 283.134 441.446 303.048C451.805 281.256 461.936 259.935 471.839 239C477.105 227.867 482.307 216.843 487.444 205.917L489 206.629L490.538 207.375C485.323 217.997 480.308 228.731 474.959 240.405M458.686 276.183C469.174 254.258 479.651 232.897 490.523 211.603C491.011 210.648 492.071 210.206 492.91 210.609C493.748 211.012 494.058 212.111 493.606 213.084C489.845 221.18 486.042 229.448 481.937 238.373C464.162 277.018 440.724 327.973 390.56 430.589C390.085 431.56 389.019 432.022 388.17 431.626M458.686 276.183C460.988 271.126 463.183 266.288 465.297 261.631C468.696 254.14 471.882 247.117 474.959 240.405M252.653 486.296C251.797 485.91 251.469 484.805 251.918 483.82C289.743 400.908 321.713 334.348 350.2 275.449C353.691 268.231 357.129 261.129 360.52 254.126C384.798 203.977 406.61 158.923 427.573 113.06C428.024 112.073 429.087 111.578 429.951 111.953C430.815 112.328 431.155 113.433 430.712 114.423C417.248 144.506 403.382 174.607 389.176 204.906C403.971 173.98 417.233 146.479 430.64 118.769C431.114 117.788 432.19 117.322 433.043 117.728C433.896 118.133 434.203 119.257 433.73 120.237C433.729 120.238 433.729 120.238 433.729 120.238M252.653 486.296C253.509 486.682 254.573 486.205 255.037 485.227L252.653 486.296ZM255.037 485.227C275.923 441.178 296.525 398.445 316.701 356.597L255.037 485.227ZM316.701 356.597C326.518 336.236 336.234 316.084 345.832 296.093L316.701 356.597ZM21.7976 583.793C20.9431 583.395 20.6271 582.279 21.0909 581.296C48.3516 523.539 73.6972 469.971 97.5906 419.546C74.0131 468.567 48.6983 520.744 21.1384 577.003C20.6612 577.977 19.59 578.437 18.7404 578.034C17.8909 577.63 17.5818 576.514 18.0486 575.535C34.6266 540.764 52.8698 502.349 72.3946 461.155C51.3338 504.485 32.8677 541.899 18.0849 571.27C17.6006 572.232 16.536 572.681 15.6936 572.277C14.8512 571.874 14.5424 570.768 15.0001 569.792C59.8263 474.282 101.922 386.179 142.086 302.119C191.064 199.613 237.169 103.119 281.85 6.53639C282.306 5.5511 283.371 5.06214 284.232 5.44241C285.094 5.82266 285.428 6.92911 284.981 7.91802C267.036 47.55 248.901 87.1818 230.893 126.194C249.859 86.1417 269.056 45.6382 288.283 5.13976C288.748 4.16009 289.814 3.68364 290.67 4.073C291.526 4.46242 291.851 5.57166 291.397 6.55629C260.948 72.5711 230.288 138.957 196.806 210.462C230.811 138.834 262.746 71.5085 294.7 3.77006C295.164 2.78712 296.233 2.30795 297.09 2.69854C297.948 3.08911 298.272 4.2023 297.814 5.18777C223.272 165.529 149.761 320.728 24.193 582.738C23.7233 583.718 22.6523 584.19 21.7976 583.793ZM370.652 432.214C369.78 431.854 369.424 430.755 369.856 429.758C377.12 412.992 383.897 397.475 390.262 383.039C381.83 401.066 373.924 417.689 366.551 432.539C366.069 433.511 364.995 433.964 364.148 433.554C363.302 433.144 363 432.024 363.473 431.047C370.219 417.123 378.315 400.195 387.382 381.123C393.57 367.888 400.046 353.892 406.81 339.273C408.869 334.823 410.955 330.314 413.068 325.752C431.653 285.617 452.291 241.356 474.957 195.739C475.438 194.771 476.506 194.317 477.352 194.72C478.198 195.123 478.507 196.234 478.045 197.211C473.37 207.104 468.685 217.027 464.015 226.923C469.274 216.927 474.463 207.35 479.737 197.835C480.252 196.908 481.306 196.507 482.124 196.927C482.942 197.348 483.231 198.44 482.777 199.399C468.081 230.47 452.923 261.966 438.412 292.118C412.414 346.139 388.492 395.845 373.019 431.066C372.582 432.061 371.523 432.574 370.652 432.214ZM262.42 477.775C261.581 477.371 261.272 476.269 261.727 475.295C296.121 401.641 323.167 344.047 345.832 296.093M262.42 477.775C263.26 478.179 264.322 477.735 264.809 476.777L262.42 477.775ZM264.809 476.777C274.496 457.724 283.877 438.839 293.015 420.113L264.809 476.777ZM293.015 420.113C286.18 434.854 279.565 449.25 273.207 463.248C272.763 464.227 273.085 465.324 273.932 465.715C274.778 466.106 275.838 465.647 276.313 464.682C302.593 411.326 330.287 352.036 359.085 290.383C375.563 255.103 392.403 219.05 409.547 182.893C418.606 163.992 427.701 144.996 436.777 125.982C437.245 125.001 436.934 123.882 436.081 123.48C435.229 123.078 434.156 123.545 433.682 124.524C424.498 143.52 415.398 162.565 406.389 181.567C401.437 191.899 396.495 202.204 391.572 212.468C379.438 237.772 367.421 262.829 355.656 287.452C360.411 277.158 365.134 266.909 369.837 256.704C391.196 210.358 412.136 164.92 433.726 120.244M357.732 434.931C356.883 434.522 356.58 433.4 357.053 432.422C377.886 389.432 395.084 353.375 409.894 322.037C418.133 304.528 426.482 286.711 434.907 268.732C440.745 256.271 446.621 243.733 452.521 231.166C459.253 216.786 465.616 203.24 471.894 190.022C472.361 189.038 473.433 188.563 474.29 188.959C475.147 189.355 475.464 190.474 474.999 191.458C468.535 205.136 462.083 218.848 455.66 232.529C452.797 238.645 449.866 244.914 446.846 251.373C436.819 272.819 425.809 296.367 413.018 323.432C394.726 362.307 376.969 399.674 360.135 433.906C359.656 434.881 358.581 435.339 357.732 434.931ZM351.271 436.288C350.438 435.857 350.159 434.732 350.646 433.766C369.931 395.498 394.154 343.634 420.887 286.395C421.112 285.914 421.337 285.432 421.562 284.95C436.812 251.533 452.371 217.674 468.866 184.236C469.345 183.265 470.414 182.808 471.262 183.211C472.11 183.615 472.419 184.728 471.955 185.706C455.709 219.931 439.802 253.982 424.679 286.361C423.084 289.856 421.492 293.347 419.903 296.833C417.349 302.433 414.802 308.019 412.257 313.588C392.991 355.755 373.901 396.929 353.684 435.338C353.18 436.295 352.104 436.719 351.271 436.288ZM346.582 434.122C345.73 433.716 345.423 432.592 345.897 431.612C366.308 389.41 387.705 343.892 409.312 297.928C427.588 259.049 446.014 219.851 464.121 182.068C464.589 181.093 465.653 180.621 466.506 181.01C467.36 181.399 467.685 182.504 467.235 183.487C433.703 256.704 399.553 328.769 348.987 433.081C348.986 433.082 348.986 433.082 348.986 433.083C348.511 434.063 347.435 434.528 346.582 434.122ZM282.024 460.765C281.185 460.365 280.873 459.267 281.323 458.293C330.284 352.235 371.575 266.145 412.125 181.601C420.335 164.484 428.515 147.43 436.721 130.287C437.19 129.308 438.257 128.836 439.112 129.229C439.966 129.623 440.287 130.734 439.829 131.717C428.788 155.435 417.724 179.361 406.645 203.32C404.963 206.957 403.281 210.594 401.599 214.232C414.074 188.195 426.808 162.027 439.782 136.004C440.262 135.042 441.322 134.588 442.166 134.983C443.01 135.378 443.327 136.477 442.88 137.454C425.432 175.555 406.755 214.681 379.67 271.418C359.359 313.965 334.321 366.416 301.528 435.765C298.511 442.174 295.518 448.509 292.549 454.766C292.083 455.749 291.011 456.225 290.153 455.83C289.296 455.434 288.979 454.316 289.444 453.331C289.444 453.33 289.445 453.329 289.445 453.328C292.496 446.869 295.482 440.549 298.407 434.364C306.897 416.333 315.586 397.714 324.464 378.642C311.106 406.36 297.75 433.503 284.41 459.765C283.924 460.721 282.864 461.166 282.024 460.765ZM325.655 441.826C324.795 441.439 324.468 440.327 324.924 439.34C333.403 420.978 341.574 403.561 349.466 386.921C352.44 380.58 355.423 374.224 358.414 367.855C347.623 390.056 335.469 414.645 321.591 442.182C321.109 443.138 320.053 443.587 319.212 443.193C318.371 442.8 318.052 441.708 318.493 440.732C324.021 428.51 330.584 414.394 337.943 398.78C329.827 415.164 322.185 430.214 315.15 443.593C314.651 444.542 313.587 444.969 312.756 444.553C311.924 444.138 311.628 443.033 312.09 442.066C350.524 361.582 376.908 305.475 398.063 260.486C417.007 220.201 431.759 188.831 447.215 156.858C447.684 155.887 448.745 155.418 449.596 155.805C450.447 156.192 450.774 157.292 450.329 158.274C430.968 201.067 411.387 243.948 392.605 284.317C405.238 257.932 418.379 230.403 431.492 202.618C437.768 189.319 444.038 175.961 450.244 162.642L451.803 163.347L453.347 164.081C446.991 177.223 440.926 190.244 434.68 203.878C430.389 213.246 426.012 222.903 421.397 233.086C416.125 244.717 410.542 257.035 404.42 270.393C421.096 235.274 437.97 199.998 454.99 164.8C455.458 163.833 456.512 163.364 457.362 163.744C458.212 164.124 458.546 165.214 458.113 166.196C438.715 210.187 417.858 253.152 394.524 301.219C381.359 328.338 367.406 357.081 352.481 388.55C344.266 406.067 336.118 423.476 328.043 440.745C327.583 441.73 326.514 442.213 325.655 441.826ZM340.205 435.519C339.35 435.146 339.008 434.059 339.435 433.073C346.701 416.326 354.076 399.545 361.582 382.732C352.718 401.133 344.185 418.899 336.148 435.819C335.683 436.798 334.617 437.274 333.762 436.886C332.906 436.498 332.58 435.391 333.032 434.406C351.338 394.508 371.411 352.763 392.171 309.587L393.425 306.979C414.635 262.869 436.54 217.272 458.018 170.593C458.471 169.606 459.535 169.115 460.398 169.493C461.26 169.87 461.598 170.976 461.152 171.965C455.873 183.693 450.505 195.462 445.082 207.23C450.348 196.908 455.69 186.578 461.112 176.242C461.612 175.288 462.682 174.861 463.515 175.282C464.348 175.704 464.637 176.817 464.164 177.785C438.718 229.899 413.459 283.709 386.244 341.687C372.296 371.399 357.835 402.206 342.572 434.44C342.112 435.412 341.059 435.891 340.205 435.519ZM298.247 450.883C297.4 450.479 297.092 449.366 297.556 448.388C314.286 413.177 329.983 380.256 344.86 349.055C381.404 272.415 412.999 206.152 442.797 141.818C443.253 140.832 444.32 140.343 445.181 140.726C446.043 141.108 446.375 142.217 445.924 143.206C426.622 185.516 406.924 228.029 387.455 269.447C389.285 265.699 391.073 262.044 392.822 258.475C396.327 251.32 399.673 244.509 402.88 237.982C412.15 219.113 420.261 202.604 427.704 186.953C433.456 174.627 438.851 162.897 444.143 151.159C444.589 150.17 445.65 149.669 446.516 150.037C447.383 150.406 447.73 151.506 447.293 152.499C442.049 164.418 436.63 176.148 430.807 188.392C418.739 214.254 405.097 242.743 387.545 279.4C367.529 321.201 342.427 373.624 308.774 444.88C308.312 445.859 307.249 446.338 306.392 445.955C305.535 445.571 305.205 444.467 305.651 443.482C316.05 420.534 325.658 399.613 334.57 380.429C322.888 404.594 311.526 427.846 300.644 449.86C300.164 450.831 299.094 451.287 298.247 450.883ZM14.3518 562.966C13.499 562.568 13.1836 561.454 13.646 560.472C68.625 443.751 113.395 350.132 152.122 269.151C166.435 239.221 179.923 211.017 192.795 184.011C221.101 123.855 249.106 64.1227 277.122 4.33874C277.583 3.35578 278.649 2.87306 279.508 3.2587C280.367 3.64429 280.696 4.75324 280.244 5.73993C253.734 63.5868 226.565 121.113 195.911 185.426C138.313 307.832 79.4662 431.999 16.7461 561.919C16.2744 562.896 15.2045 563.364 14.3518 562.966ZM11.3072 557.214C10.4508 556.815 10.1359 555.695 10.6036 554.712C10.6038 554.711 10.6039 554.711 10.6041 554.71M11.3072 557.214C12.1635 557.612 13.2371 557.138 13.7053 556.155L11.3072 557.214ZM170.63 216.98C207.48 138.944 239.914 70.2576 272.396 2.13386C272.863 1.15399 273.932 0.679881 274.787 1.07305C275.643 1.46619 275.963 2.57881 275.504 3.56255C215.168 132.941 154.636 260.083 79.4323 418.044C67.5311 443.042 55.2624 468.812 42.5689 495.484C33.2626 515.065 23.6508 535.27 13.7053 556.155M170.63 216.98C133.065 296.53 90.9123 385.797 39.445 494.087L170.63 216.98ZM39.445 494.087C30.072 513.782 20.4674 533.97 10.6079 554.703L39.445 494.087ZM8.25617 551.455C7.40229 551.051 7.0932 549.928 7.56576 548.947C7.56583 548.947 7.56595 548.946 7.56607 548.946C7.60232 548.871 7.63875 548.795 7.67499 548.72C82.0607 394.217 166.675 214.46 253.43 30.1549C257.605 21.2865 261.784 12.4075 265.968 3.52028C266.432 2.53511 267.503 2.05527 268.362 2.44825C269.221 2.84126 269.542 3.95845 269.079 4.94406C257.891 28.7749 246.565 52.9794 234.694 78.3487C182.295 190.33 119.276 325.006 10.6582 550.409C10.1854 551.391 9.10999 551.859 8.25617 551.455ZM6.9194 542.143C6.06404 541.754 5.73952 540.646 6.19273 539.661C114.021 305.505 185.68 152.583 259.569 4.8478C260.052 3.88145 261.12 3.43054 261.964 3.83648C262.809 4.24235 263.115 5.35411 262.651 6.32991C238.204 57.7776 213.604 109.855 185.514 169.32C140.394 264.839 86.2685 379.421 9.30656 541.079C8.84071 542.057 7.77476 542.533 6.9194 542.143ZM5.55853 532.824C4.70137 532.429 4.38208 531.313 4.84496 530.328C48.8819 436.652 87.9306 353.735 124.251 276.926C129.553 265.62 134.653 254.738 139.571 244.247C189.718 137.266 220.894 70.7547 253.145 6.22462C253.629 5.25641 254.7 4.80553 255.545 5.21428C256.39 5.62305 256.693 6.73874 256.224 7.71444C214.593 94.418 173.153 181.514 127.378 278.316C95.9625 345.313 57.468 427.271 7.95289 531.758C7.48699 532.741 6.41568 533.218 5.55853 532.824ZM4.20342 523.503C3.34656 523.11 3.02614 521.995 3.48708 521.011C50.687 420.186 87.7452 341.162 118.148 276.589C123.617 264.9 129.058 253.283 134.478 241.726C128.116 254.95 121.841 267.964 115.676 280.736C80.3321 355.954 44.4329 432.033 6.92298 509.569C6.45468 510.538 5.39813 511.006 4.54767 510.623C3.69716 510.241 3.36623 509.147 3.80363 508.165C25.1601 460.217 57.6163 393.046 95.3612 314.929C98.5516 308.326 101.78 301.645 105.042 294.89C107.536 289.728 110.049 284.523 112.581 279.277C119.455 264.649 126.307 250.053 133.147 235.484C168.824 159.493 204.151 84.2473 240.287 9.00774C240.755 8.03355 241.818 7.56216 242.671 7.95055C243.524 8.33894 243.849 9.44249 243.4 10.4254C232.397 34.5312 221.295 58.5437 210.197 82.3174C222.258 57.362 234.404 32.4934 246.722 7.60726C247.204 6.6325 248.281 6.17774 249.129 6.59076C249.976 7.00367 250.275 8.12853 249.797 9.10524C215.018 80.1046 180.987 151.158 121.266 277.998C112.96 295.753 104.588 313.672 96.1243 331.79C67.6769 392.683 38.1857 455.811 6.59635 522.438C6.1306 523.42 5.06034 523.897 4.20342 523.503ZM3.19239 501.306C2.33455 500.92 2.00653 499.812 2.458 498.826C20.6669 459.061 45.0796 406.598 73.5148 346.174C51.0754 393.239 28.035 441.364 4.2138 490.926C3.74299 491.906 2.67132 492.376 1.81738 491.977C0.96344 491.578 0.648902 490.461 1.11399 489.479C35.5123 416.843 65.2332 353.653 92.3207 296.062C141.392 191.731 181.821 105.775 225.759 15.317C226.232 14.3435 227.299 13.878 228.15 14.2739C229.001 14.6699 229.318 15.7793 228.861 16.7601C203.602 70.9518 178.095 125.354 152.008 180.667C177.769 126.73 204.82 70.4468 232.18 13.9446C232.18 13.9442 232.181 13.9437 232.181 13.9432C232.655 12.963 233.731 12.4974 234.584 12.9031C235.437 13.3087 235.744 14.4323 235.27 15.4128C177.205 135.54 120.152 256.778 45.6424 415.11C32.8346 442.327 19.5111 470.639 5.5779 500.231C5.11592 501.212 4.05022 501.692 3.19239 501.306ZM2.16287 479.101C1.30608 478.709 0.984375 477.595 1.44346 476.611C51.2601 369.764 91.2102 286.129 125.755 213.983C128.637 207.963 131.482 202.023 134.292 196.156C151.238 160.772 166.908 128.053 181.872 96.5009C193.842 71.0815 205.784 45.6387 217.631 20.2878C218.091 19.3024 219.16 18.8187 220.02 19.2067C220.88 19.5947 221.206 20.7079 220.749 21.6949C209.091 46.8737 197.273 72.0102 184.98 97.9311C145.676 181.394 106.064 264.606 68.5226 343.47C46.3113 390.13 24.8244 435.267 4.55441 478.034C4.08904 479.016 3.01972 479.493 2.16287 479.101ZM2.48452 466.211C1.63093 465.81 1.31832 464.692 1.78548 463.71C11.3963 443.513 20.55 424.279 29.286 405.922C119.544 216.265 165.202 120.326 209.52 25.232C209.979 24.2483 211.044 23.7629 211.904 24.1457C212.764 24.5286 213.096 25.636 212.646 26.6236C155.948 151.181 96.8634 274.245 4.88248 465.163C4.41064 466.142 3.33806 466.611 2.48452 466.211ZM4.50747 449.758C3.65562 449.358 3.3431 448.242 3.80813 447.261C33.349 384.96 59.8702 328.402 84.5744 275.719C127.468 184.246 164.884 104.454 203.117 26.5668C203.591 25.6022 204.648 25.1405 205.495 25.5285C206.343 25.9163 206.668 27.0112 206.227 27.9908C148.796 155.63 88.3959 280.652 6.90401 448.716C6.43042 449.693 5.35937 450.159 4.50747 449.758ZM4.8452 436.879C3.9886 436.481 3.67256 435.362 4.13914 434.378C15.387 410.661 25.9356 388.401 35.8614 367.441C50.2574 336.979 64.6052 306.525 78.9705 276.033C83.2289 266.994 87.4889 257.952 91.7522 248.905C68.2231 297.95 40.8258 354.505 7.56843 422.951C7.09441 423.926 6.02424 424.391 5.17296 423.991C4.32167 423.591 4.00865 422.476 4.47231 421.496C37.9234 350.757 66.0809 291.728 90.9684 239.553C127.942 162.042 157.698 99.6608 186.871 36.4974C187.325 35.5141 188.386 35.0239 189.248 35.3993C190.109 35.7747 190.448 36.8751 190.008 37.8643C177.953 64.9532 165.673 91.976 152.333 120.772C166.416 91.1403 180.619 61.4033 194.999 31.5213C195.471 30.5401 196.546 30.0713 197.4 30.4739C198.254 30.8764 198.565 31.9981 198.094 32.9799C198.093 32.9807 198.093 32.9815 198.092 32.9824M4.8452 436.879C5.70179 437.276 6.77481 436.801 7.24245 435.818L4.8452 436.879ZM7.24245 435.818C17.8682 413.472 28.4404 391.151 38.9853 368.838L7.24245 435.818ZM38.9853 368.838C68.4143 306.695 92.3657 255.991 112.834 212.661C148.231 137.729 173.211 84.8472 198.09 32.9871M7.19297 407.54C6.34572 407.139 6.03509 406.027 6.4965 405.049C33.3936 348.044 55.6316 301.026 74.4359 261.335C78.9806 251.432 83.4872 241.586 87.9693 231.794C90.4788 226.311 92.9806 220.846 95.4772 215.396C101.854 201.476 108.196 187.661 114.544 173.937C92.1841 221.762 69.3808 270.433 45.2778 320.718C32.8418 347.382 21.0511 371.958 9.90185 393.665C9.40772 394.627 8.33466 395.063 7.4961 394.644C6.65755 394.224 6.36617 393.105 6.84289 392.134C18.9741 367.431 30.718 343.179 42.1675 319.293C52.7794 296.54 63.8698 272.248 75.4465 246.891C77.724 241.902 80.0202 236.872 82.3354 231.805C95.7698 202.4 109.836 171.738 124.539 140.539C112.833 165.153 100.987 189.824 89.0662 214.638L86.5985 219.774C61.2786 272.476 35.6393 325.842 10.2775 380.695C9.82227 381.68 8.75911 382.169 7.89764 381.791C7.03616 381.413 6.69961 380.309 7.14437 379.32C38.4407 309.723 92.0645 198.064 150.272 76.8592C154.345 68.3782 158.441 59.8505 162.553 51.2872C163.021 50.3121 164.085 49.8407 164.938 50.2305C165.791 50.6203 166.115 51.7258 165.664 52.7087C155.438 74.9955 145.034 97.2491 134.502 119.531C147.228 92.8684 160.415 65.9339 174.067 39.1686C174.557 38.2092 175.623 37.7677 176.462 38.1766C177.302 38.5855 177.604 39.6938 177.142 40.6665C163.305 69.7961 149.607 98.974 135.844 128.384C150.316 97.8329 165.046 67.6789 180.496 37.7817C180.989 36.8284 182.051 36.3928 182.887 36.8012C183.723 37.2096 184.025 38.3123 183.569 39.283C169.323 69.5465 155.264 99.1159 136.828 137.891C121.163 170.838 102.338 210.432 77.5528 262.747M9.91956 365.338C9.06614 364.962 8.7282 363.872 9.15969 362.888C16.1151 347.02 23.9399 329.404 32.4892 310.454C26.1127 323.669 19.5025 337.293 12.6153 351.402C12.139 352.378 11.0671 352.84 10.2167 352.437C9.36621 352.033 9.05688 350.916 9.52455 349.936C14.2738 339.988 19.2749 329.524 24.4936 318.605C31.7157 303.495 39.3545 287.512 47.3193 270.817C36.6959 292.652 25.3528 315.123 12.9117 338.587C12.4127 339.528 11.3579 339.952 10.5289 339.545C9.70004 339.137 9.39659 338.046 9.84352 337.079C29.3883 294.796 48.924 253.963 68.189 213.696C83.2926 182.126 98.2298 150.905 112.874 119.606C113.333 118.626 114.394 118.142 115.253 118.521C116.112 118.9 116.447 120.002 116.004 120.989C112.387 129.056 108.796 137.092 105.211 145.116C92.2885 174.038 79.432 202.811 65.6125 232.409C80.4132 201.276 96.016 168.298 111.924 134.344C112.153 133.854 112.382 133.364 112.61 132.874C118.219 120.85 123.807 108.872 129.431 96.84C129.892 95.854 130.962 95.3707 131.822 95.7598C132.682 96.149 133.007 97.2638 132.548 98.2507C127.908 108.231 123.277 118.157 118.669 128.006C128.161 108.85 137.87 89.5816 147.714 70.4344C148.205 69.4791 149.268 69.0411 150.105 69.4489C150.942 69.8568 151.246 70.9606 150.788 71.9322C98.8862 182.108 46.6433 292.217 12.2901 364.268C11.8273 365.239 10.7729 365.715 9.91956 365.338ZM12.5701 323.105C11.7456 322.712 11.4274 321.643 11.8473 320.678C18.9531 304.34 25.7404 289.25 32.2987 275.045C28.3761 283.201 24.0392 292.035 19.1115 301.864C17.3536 305.411 15.5183 309.053 13.5948 312.796C13.0978 313.763 12.0166 314.198 11.1774 313.769C10.3382 313.34 10.0574 312.208 10.5496 311.238C12.4627 307.47 14.2926 303.844 16.0472 300.344C23.1275 286.055 28.9487 273.296 34.2215 261.619C34.8498 260.228 35.4705 258.851 36.0849 257.489C41.8929 244.608 47.1294 232.996 52.7818 222.094C53.2702 221.152 54.3158 220.716 55.1489 221.106C55.9819 221.496 56.304 222.573 55.878 223.543C52.1227 232.101 48.3853 240.521 44.3021 249.456C50.7278 235.963 56.9733 223.155 63.1331 210.646C69.3605 197.373 75.8978 183.994 82.8576 170.794C83.3603 169.84 84.4318 169.416 85.2638 169.842C86.0959 170.268 86.3803 171.385 85.9025 172.351C83.3672 177.479 80.8354 182.586 78.3004 187.699C74.2927 195.783 70.2767 203.883 66.2252 212.11C59.9439 225.5 53.9699 238.8 48.1812 251.731C47.7157 252.771 47.2514 253.809 46.7882 254.844C35.8098 279.374 25.4563 302.509 14.932 322.148C14.4344 323.076 13.3946 323.497 12.5701 323.105Z" fill="#C3C8E1"/>
</svg>

