<svg width="572" height="478" viewBox="0 0 572 478" fill="none" xmlns="http://www.w3.org/2000/svg">
<path fill-rule="evenodd" clip-rule="evenodd" d="M438.93 97.8391C439.005 98.8549 438.245 99.7352 437.23 99.809C423.711 100.791 410.875 101.725 398.668 102.614C264.14 112.403 205.893 116.642 149.153 118.778C148.137 118.817 147.276 118.029 147.223 117.014C147.17 115.998 147.946 115.136 148.961 115.082C204.321 112.123 259.152 108.271 315.085 104.342C354.953 101.541 395.38 98.7006 436.958 96.1167C437.974 96.0536 438.855 96.8232 438.93 97.8391ZM431.071 91.7681C431.141 92.7819 430.381 93.6578 429.368 93.7304C375.794 97.5706 318.987 101.209 260.643 104.946C225.015 107.228 188.813 109.546 152.425 111.97C151.423 112.037 150.545 111.292 150.448 110.292C150.35 109.292 151.068 108.401 152.065 108.286C170.436 106.157 188.571 104.429 208.595 102.858C190.266 103.738 172.911 104.465 155.598 105.167C155.597 105.167 155.596 105.167 155.595 105.167C154.574 105.208 153.708 104.415 153.659 103.394C153.611 102.374 154.398 101.512 155.419 101.469C244.74 97.7096 332.07 91.7148 421.195 83.9649C422.212 83.8765 423.113 84.6283 423.21 85.645C423.306 86.6618 422.561 87.5595 421.545 87.6512C385.518 90.9031 354.14 93.4916 326.119 95.5946C337.26 94.9909 349.066 94.3575 361.631 93.6832C381.993 92.5907 404.35 91.3911 429.111 90.0372C430.126 89.9817 431 90.7543 431.071 91.7681ZM415.353 79.6014C415.432 80.6114 414.685 81.4925 413.676 81.5785C377.473 84.6652 343.184 86.7248 310.11 88.5334C301.771 88.9895 293.509 89.4295 285.313 89.8661C283.961 89.9381 282.61 90.0101 281.261 90.082C239.307 92.3182 199.052 94.5156 158.915 98.3543L158.727 96.5123L158.64 94.6635C198.842 93.0371 239.321 90.0456 285.861 86.606C293.667 86.0291 301.644 85.4396 309.819 84.8418C342.9 83.033 377.164 80.9754 413.339 77.8911L413.507 79.7348L413.629 81.5819C375.297 83.8564 341.282 86.2542 310.11 88.5334M309.819 84.8418C340.965 82.5641 374.984 80.1663 413.386 77.8877C414.397 77.8277 415.273 78.5914 415.353 79.6014M407.491 73.5025C407.582 74.5191 406.833 75.4124 405.817 75.4996C351.365 80.1721 286.866 84.0464 218.299 88.165C198.614 89.3474 178.594 90.55 158.38 91.7973C157.363 91.8601 156.481 91.0885 156.408 90.0715C156.335 89.0544 157.098 88.175 158.114 88.1046C183.503 86.3447 208.27 84.9005 234.719 83.3584C281.926 80.6059 334.487 77.5412 405.487 71.8116C406.503 71.7296 407.4 72.4859 407.491 73.5025ZM399.637 67.5046C399.686 68.5205 398.906 69.3805 397.891 69.4306C358.629 71.3676 319.554 74.2727 280.487 77.1772L279.677 77.2374C240.348 80.1614 201.026 83.078 161.574 84.993C160.564 85.042 159.697 84.2713 159.626 83.2623C159.555 82.2533 160.308 81.3796 161.315 81.3001C174.845 80.234 188.09 79.1466 201.318 78.0606C259.48 73.2856 317.325 68.5366 397.712 65.7332C398.728 65.6978 399.587 66.4888 399.637 67.5046ZM391.778 61.4002C391.843 62.4166 391.074 63.2892 390.058 63.3528C311.116 68.2928 233.947 73.3961 164.831 78.1851C163.818 78.2552 162.932 77.4961 162.847 76.4839C162.761 75.4716 163.506 74.5845 164.518 74.4958C235.748 68.2505 308.846 63.874 389.823 59.6582C390.839 59.6052 391.713 60.3837 391.778 61.4002ZM383.912 55.2477C384.015 56.2422 383.31 57.1341 382.32 57.2624C337.74 63.0341 291.656 65.0795 246.774 67.0717C223.926 68.0857 201.391 69.086 179.523 70.5569C175.674 70.8288 171.865 71.1017 168.055 71.3789C167.038 71.4529 166.147 70.6888 166.064 69.671C165.982 68.6532 166.739 67.7661 167.757 67.6884C171.616 67.3937 175.494 67.1167 179.391 66.8547C204.319 65.0948 230.929 63.3794 269.782 60.8748C298.844 59.0014 334.755 56.6864 381.937 53.5809C382.934 53.5153 383.808 54.2532 383.912 55.2477ZM376.059 49.253C376.12 50.2655 375.356 51.1339 374.344 51.2002C346.484 53.0241 320.259 54.8171 295.03 56.542C250.603 59.5794 209.269 62.4053 167.553 64.8165C166.539 64.8751 165.663 64.1062 165.588 63.0933C165.513 62.0805 166.269 61.2019 167.281 61.1243C243.27 55.2997 311.111 50.2548 374.119 47.5051C375.132 47.4609 375.997 48.2404 376.059 49.253ZM368.2 43.1605C368.27 44.1641 367.526 45.0347 366.524 45.1209C347.508 46.7564 321.891 48.2288 292.713 49.9059C288.848 50.128 284.92 50.3538 280.938 50.5839C246.869 52.5529 208.715 54.8487 170.818 58.0075C169.818 58.0909 168.928 57.3611 168.813 56.3629C168.699 55.3647 169.401 54.4624 170.396 54.3295C223.707 47.2057 276.966 45.0474 363.214 41.5522L366.267 41.4284C367.272 41.3877 368.131 42.1569 368.2 43.1605ZM498.11 146.694C498.183 147.712 497.419 148.591 496.402 148.661C473.548 150.23 451.27 151.786 429.497 153.315C414.715 154.416 399.445 155.583 383.773 156.78C305.948 162.724 218.185 169.427 130.793 172.736C129.776 172.774 128.914 171.985 128.862 170.969C128.811 169.953 129.589 169.091 130.605 169.039C214.157 164.77 300.399 158.695 396.106 151.953C406.97 151.188 417.955 150.414 429.073 149.633M490.251 140.628C490.316 141.632 489.567 142.499 488.565 142.58C323.812 155.959 244.34 160.104 180.009 163.459C164.117 164.288 149.148 165.069 134.046 165.928C133.028 165.986 132.15 165.21 132.082 164.192C132.015 163.174 132.784 162.299 133.801 162.234C181.29 159.238 227.978 155.749 273.38 152.356C349.396 146.675 421.806 141.263 488.326 138.887C489.331 138.851 490.186 139.624 490.251 140.628ZM466.674 122.394C466.742 123.408 465.981 124.282 464.968 124.353C414.328 127.894 360.504 131.342 305.468 134.867C250.874 138.364 195.086 141.938 140.028 145.754C139.01 145.825 138.122 145.058 138.043 144.04C137.964 143.022 138.724 142.138 139.741 142.063C257.8 133.404 370.587 125.652 464.717 120.66C465.731 120.606 466.605 121.38 466.674 122.394ZM458.813 116.308C458.889 117.326 458.127 118.207 457.11 118.279C367.618 124.648 306.468 128.061 260.062 130.651C233.211 132.149 211.296 133.372 191.683 134.733C175.23 135.987 159.414 137.349 143.301 138.944C142.288 139.044 141.379 138.307 141.267 137.294C141.155 136.282 141.882 135.374 142.894 135.263C158.414 133.565 173.932 132.256 191.237 131.054C224.851 128.49 261.113 126.377 307.935 123.648C348.122 121.306 396.088 118.51 456.836 114.587C457.854 114.522 458.738 115.291 458.813 116.308ZM450.956 110.235C451.03 111.245 450.278 112.121 449.269 112.202C376.688 118.013 309.317 122.1 243.065 126.119C211.304 128.046 179.799 129.957 148.101 132.036C147.553 132.072 147.006 132.108 146.458 132.143C145.439 132.21 144.553 131.438 144.479 130.418C144.406 129.398 145.173 128.518 146.192 128.451C146.192 128.451 146.193 128.451 146.193 128.451C146.737 128.415 147.282 128.379 147.826 128.343C174.598 126.582 201.974 124.611 230.874 122.53C293.36 118.03 362.971 113.016 449.001 108.51C450.012 108.457 450.883 109.225 450.956 110.235ZM443.095 104.145C443.175 105.162 442.418 106.047 441.401 106.124C366.111 111.828 299.255 115.975 234.058 120.019C205.803 121.772 177.859 123.505 149.676 125.338C148.658 125.404 147.773 124.634 147.698 123.616C147.622 122.599 148.384 121.717 149.402 121.646C178.758 119.572 207.252 117.765 242.764 115.513C290.146 112.509 350.022 108.713 441.111 102.433C442.128 102.363 443.015 103.128 443.095 104.145ZM356.65 37.3835C356.691 38.4019 355.9 39.2562 354.882 39.2944C337.341 39.9522 311.511 41.8591 281.378 44.0834C280.173 44.1724 278.961 44.2619 277.742 44.3518C254.53 46.0646 228.933 47.9384 202.748 49.5575C192.892 50.3165 183.438 50.9022 173.942 51.2073C172.928 51.2399 172.071 50.4496 172.022 49.4359C171.973 48.4221 172.749 47.563 173.763 47.51C183.352 47.0089 192.952 46.4539 202.474 45.8652C211.61 45.1612 221.106 44.3067 231.337 43.3861C236.252 42.9439 241.336 42.4864 246.63 42.023C274.778 39.5598 308.786 36.9406 354.735 35.5957C355.753 35.5659 356.61 36.3651 356.65 37.3835ZM510.135 159.081C510.212 160.097 509.453 160.979 508.438 161.054C385.543 170.139 307.161 174.723 247.23 178.228C235.334 178.924 224.165 179.577 213.52 180.214C184.052 182.195 156.023 184.122 128.108 186.1C127.093 186.172 126.205 185.411 126.12 184.396C126.036 183.382 126.786 182.495 127.8 182.41C155.134 180.138 181.878 178.402 213.13 176.53C275.857 172.314 345.089 167.859 433.593 162.164C457.019 160.656 481.795 159.062 508.159 157.362C509.175 157.297 510.058 158.065 510.135 159.081ZM502.278 153.04C502.334 154.055 501.561 154.92 500.546 154.977C400.985 160.647 329.838 165.537 273.003 169.605C261.68 170.415 250.924 171.193 240.624 171.937C199.229 174.93 165.194 177.391 131.299 179.296C130.284 179.353 129.408 178.58 129.337 177.566C129.266 176.551 130.027 175.674 131.041 175.603C160.393 173.528 189.528 171.429 218.078 169.373C327.85 161.465 428.959 154.182 500.342 151.281C501.358 151.24 502.222 152.025 502.278 153.04ZM478.702 134.788C478.772 135.8 478.014 136.674 477.004 136.749C392.32 143.009 298.334 148.942 203.631 154.921C181.516 156.317 159.361 157.716 137.277 159.122C136.262 159.187 135.38 158.42 135.302 157.406C135.224 156.391 135.979 155.509 136.993 155.43C263.967 145.597 386.925 137.618 476.75 133.056C477.762 133.004 478.633 133.777 478.702 134.788ZM470.84 128.724C470.903 129.73 470.15 130.595 469.147 130.673C466.545 130.872 463.941 131.073 461.334 131.273C356.397 139.336 247.536 147.701 140.458 152.318C139.438 152.362 138.57 151.573 138.518 150.553C138.465 149.534 139.247 148.67 140.266 148.621C205.734 145.504 270.82 140.697 328.078 136.367C332.227 136.054 336.336 135.742 340.4 135.434C392.404 131.494 437.247 128.097 468.916 126.978C469.922 126.943 470.778 127.719 470.84 128.724ZM345.098 31.5153C345.156 32.5219 344.398 33.3848 343.392 33.4561C308.824 35.9101 280.837 37.5076 256.637 38.8889C255.435 38.9575 254.242 39.0256 253.059 39.0932C250.441 39.3271 247.875 39.5597 245.355 39.7897C243.266 39.9805 241.208 40.1695 239.179 40.3558C216.086 42.4763 196.757 44.2513 177.115 44.4025C176.125 44.4101 175.3 43.6375 175.241 42.6491C175.183 41.6607 175.913 40.8065 176.898 40.7105C200.109 38.4486 223.77 37.0591 252.771 35.4013C277.084 33.2297 305.912 30.9513 343.179 29.761C344.186 29.7288 345.039 30.5088 345.098 31.5153ZM522.161 171.473C522.238 172.486 521.485 173.367 520.472 173.447C415.046 181.759 278.862 190.202 139.663 198.624C133.658 198.991 127.654 199.354 121.65 199.713C120.631 199.774 119.749 198.996 119.681 197.977C119.614 196.957 120.385 196.08 121.405 196.019C121.405 196.019 121.406 196.019 121.406 196.019C121.416 196.018 121.425 196.017 121.434 196.017C127.429 195.655 133.421 195.293 139.407 194.93C209.142 190.67 278.706 185.906 345.684 181.319C406.598 177.147 465.373 173.122 520.19 169.756C521.204 169.693 522.083 170.46 522.161 171.473ZM514.3 165.378C514.39 166.395 513.638 167.289 512.621 167.373C423.116 174.804 346.448 179.23 275.233 183.341C223.172 186.347 174.024 189.184 124.906 192.904M514.3 165.378C514.21 164.36 513.312 163.602 512.294 163.685L514.3 165.378ZM512.294 163.685C432.469 170.159 363.52 174.324 300.538 177.979L512.294 163.685ZM300.538 177.979C293.673 178.378 286.878 178.77 280.148 179.159L300.538 177.979ZM280.148 179.159C225.141 182.335 174.435 185.264 124.589 189.215L280.148 179.159ZM124.905 192.905C124.903 192.905 124.9 192.905 124.898 192.905C123.881 192.982 122.987 192.221 122.902 191.203C122.817 190.185 123.571 189.296 124.589 189.215M534.184 183.871C534.262 184.887 533.503 185.77 532.486 185.845L532.471 185.846L523.308 186.521C459.001 191.262 405.395 195.215 358.744 198.551C379.483 197.398 399.561 196.328 418.815 195.302C462.98 192.948 502.813 190.824 536.366 188.471C537.385 188.399 538.275 189.168 538.353 190.187C538.431 191.206 537.668 192.091 536.649 192.162C536.649 192.162 536.649 192.162 536.649 192.162C536.634 192.164 536.619 192.165 536.604 192.166C350.051 205.305 254.27 211.248 179.812 215.869C155.765 217.361 133.942 218.715 112.004 220.129C110.996 220.194 110.117 219.439 110.029 218.431C109.941 217.424 110.677 216.538 111.683 216.441C137.701 213.92 163.635 211.673 189.262 209.648C164.225 211.046 140.014 212.25 115.183 213.326C114.172 213.369 113.308 212.593 113.244 211.583C113.18 210.573 113.939 209.703 114.948 209.631C177.95 205.14 240.194 201.111 341.007 194.585C392.788 191.233 454.745 187.223 532.206 182.153C533.223 182.086 534.107 182.854 534.184 183.871ZM526.329 177.817C526.394 178.835 525.623 179.708 524.606 179.77C498.447 181.361 467.199 183.327 432.219 185.576C406.687 187.333 380.013 189.247 352.546 191.217C346.711 191.636 340.841 192.057 334.938 192.48C265.397 197.46 191.375 202.663 118.419 206.519C117.404 206.573 116.531 205.798 116.463 204.784C116.395 203.769 117.158 202.895 118.171 202.825C231.974 195.014 343.805 187.55 431.949 181.883C464.906 179.615 495.967 177.607 524.37 176.075C525.388 176.02 526.264 176.799 526.329 177.817ZM333.544 25.6719C333.609 26.6891 332.839 27.5622 331.822 27.6252C320.419 28.3316 309.805 29.0253 299.867 29.6982C287.004 30.6701 275.071 31.7193 263.683 32.7206C259.817 33.0605 256.014 33.3949 252.258 33.7189C228.832 35.7398 207.267 37.355 184.013 37.3553C183.005 37.3553 182.178 36.5492 182.151 35.5419C182.125 34.5346 182.909 33.6963 183.916 33.656C204.43 32.8361 225.972 31.2703 253.268 29.2864C267.048 28.2849 282.295 27.1767 299.616 26.0041C309.647 25.2465 320.245 24.5355 331.586 23.9307C332.603 23.8764 333.478 24.6548 333.544 25.6719ZM325.686 19.5912C325.753 20.6037 324.993 21.4763 323.981 21.5477C308.638 22.6307 295.4 23.5824 283.679 24.4251C244.353 27.2524 222.097 28.8524 194.698 30.0624C193.682 30.1073 192.815 29.3233 192.757 28.3073C192.699 27.2914 193.472 26.4244 194.487 26.3665C213.784 25.2654 233.952 23.8154 253.988 22.3751C278.005 20.6484 301.832 18.9355 323.736 17.8538C324.749 17.8038 325.619 18.5787 325.686 19.5912ZM314.13 13.6964C314.23 14.7025 313.504 15.5973 312.5 15.7066C295.284 17.5795 277.267 18.528 258.732 19.4465C257.585 19.5033 256.437 19.56 255.287 19.6168C245.487 20.1006 235.545 20.5914 225.489 21.2194C217.361 21.7464 209.513 22.3176 201.688 23.0075C200.671 23.0972 199.769 22.3458 199.671 21.3286C199.574 20.3115 200.319 19.4131 201.336 19.3214C209.573 18.578 217.749 17.9894 225.841 17.4881C233.871 16.9706 242.193 16.4924 251.031 15.9846C268.74 14.9671 288.515 13.8308 312.135 12.0221C313.142 11.9449 314.03 12.6903 314.13 13.6964ZM542.52 196.513C542.595 197.532 541.83 198.414 540.81 198.483C502.591 201.072 467.503 203.461 434.904 205.68C296.373 215.109 202.816 221.478 105.083 227.18C104.067 227.239 103.188 226.466 103.117 225.45C103.046 224.434 103.809 223.556 104.824 223.486C146.211 220.63 187.05 217.982 244.571 214.253C311.544 209.911 401.133 204.102 540.534 194.791M542.52 196.513C542.445 195.493 541.558 194.723 540.538 194.791L542.52 196.513ZM540.538 194.791C540.538 194.791 540.537 194.791 540.537 194.791L540.538 194.791ZM302.588 8.08122C302.572 9.04786 301.813 9.83387 300.848 9.88512C290.466 10.4361 281.131 10.8727 272.598 11.2718C269.381 11.4223 266.277 11.5674 263.275 11.7113C262.118 11.8445 260.952 11.9803 259.779 12.1176C259.066 12.2011 258.35 12.285 257.633 12.3693C242.849 14.1043 227.055 15.958 212.1 15.7233C211.133 15.7081 210.336 14.9519 210.27 13.9874C210.205 13.0229 210.892 12.1749 211.849 12.0407C227.016 9.91353 242.785 8.98788 262.958 8.01969C276.99 6.40463 290.222 5.12007 300.912 6.19632C301.875 6.29327 302.605 7.11458 302.588 8.08122ZM542.992 203.076C543.066 204.095 542.301 204.976 541.282 205.045C293.306 221.728 197.941 228.11 101.87 233.985C100.857 234.047 99.9773 233.281 99.8996 232.268C99.822 231.255 100.575 230.374 101.587 230.293C226.84 220.339 351.811 212.842 446.565 207.158C483.117 204.966 515.173 203.043 541.013 201.352C542.033 201.286 542.918 202.057 542.992 203.076ZM547.159 209.406C547.228 210.417 546.47 211.291 545.459 211.365C467.999 217.037 399.847 221.874 336.835 226.127C395.435 222.534 464.274 218.62 549.369 213.989C550.382 213.934 551.257 214.706 551.327 215.719C551.398 216.732 550.64 217.608 549.627 217.682C423.934 226.827 335.626 232.44 265.658 236.729C251.737 237.583 238.543 238.384 225.926 239.15C175.123 242.234 133.67 244.751 91.7623 247.836C90.7489 247.911 89.8598 247.154 89.7707 246.141C89.6816 245.129 90.4258 244.239 91.4377 244.148C136.421 240.117 181.086 236.534 233.273 232.88C186.096 235.839 140.715 238.512 94.9466 241.033C93.9387 241.088 93.0672 240.326 92.9877 239.319C92.9083 238.312 93.6502 237.433 94.6553 237.342C222.028 225.868 348.941 217.329 545.21 207.671C546.222 207.621 547.091 208.395 547.159 209.406ZM283.644 2.55131C283.727 3.55441 282.993 4.43432 281.992 4.53233C278.529 4.87137 275.224 5.20428 272.055 5.52344C253.501 7.39212 239.628 8.78946 226.339 8.18668C225.35 8.14184 224.567 7.32791 224.56 6.33885C224.554 5.3498 225.326 4.53534 226.314 4.48981C234.05 4.13338 242.007 3.54327 250.839 2.88819L251.302 2.85385C260.314 2.18557 270.228 1.45443 281.689 0.843026C282.694 0.789437 283.562 1.54821 283.644 2.55131ZM555.493 222.026C555.571 223.037 554.822 223.917 553.812 224.001C492.119 229.131 399.618 234.905 295.072 241.431C228.281 245.6 156.573 250.076 84.8409 254.887C83.8252 254.955 82.94 254.189 82.86 253.174C82.78 252.159 83.5353 251.275 84.5502 251.196C250.441 238.303 415.009 228.386 553.528 220.31C554.539 220.251 555.415 221.016 555.493 222.026ZM559.66 228.362C559.73 229.38 558.962 230.258 557.944 230.324C532.404 231.965 507.248 233.57 482.424 235.152C430.356 238.636 381.516 242.197 334.925 245.594C243 252.297 159.829 258.361 77.8855 261.936C76.8748 261.98 76.0108 261.205 75.9458 260.195C75.8808 259.185 76.6389 258.315 77.6478 258.242C197.261 249.589 317.734 241.923 446.654 233.719C458.39 232.972 470.195 232.221 482.076 231.464C506.528 229.828 531.698 228.208 557.69 226.63C558.708 226.568 559.59 227.343 559.66 228.362ZM563.827 234.684C563.896 235.703 563.126 236.581 562.107 236.644C433.741 244.646 321.919 251.633 214.112 258.932C164.763 262.315 119.69 265.512 74.7189 268.739C73.7002 268.812 72.8097 268.046 72.7293 267.027C72.6489 266.009 73.4091 265.123 74.4276 265.048C120.829 261.646 166.959 258.413 213.848 255.239C305.927 248.926 412.892 241.966 561.847 232.951M563.827 234.684C563.757 233.665 562.876 232.889 561.856 232.95L563.827 234.684ZM561.856 232.95C561.855 232.95 561.854 232.951 561.853 232.951L561.856 232.95ZM564.3 241.227C564.378 242.244 563.618 243.128 562.601 243.202C520.613 246.267 482.44 248.972 447.5 251.384C438.516 252.044 429.473 252.711 420.375 253.381C308.277 261.644 187.788 270.526 67.7582 275.792C66.7473 275.836 65.8831 275.06 65.8181 274.05C65.753 273.04 66.5113 272.17 67.5203 272.097C109.563 269.063 151.809 266.499 203.044 263.39C219.091 262.417 236.02 261.389 254.101 260.277C306.553 257.051 368.71 253.112 447.173 247.695C486.85 244.779 525.367 241.986 562.319 239.51C563.337 239.442 564.223 240.21 564.3 241.227ZM568.467 247.553C568.541 248.565 567.787 249.442 566.777 249.521C525.172 252.771 487.255 255.63 452.467 258.166C493.668 255.677 532.107 253.68 567.013 252.389C568.025 252.352 568.885 253.135 568.942 254.147C568.998 255.158 568.231 256.022 567.22 256.085C534.765 258.109 503.704 260.033 473.807 261.885C374.977 268.008 288.868 273.342 207.176 278.866C206.831 278.891 206.485 278.916 206.14 278.942C157.761 282.479 108.023 286.117 57.6757 289.642C56.659 289.713 55.7709 288.948 55.6895 287.932C55.6082 286.915 56.3642 286.03 57.3803 285.951C106.833 282.129 155.995 278.616 206.868 275.176C230.758 273.429 254.317 271.706 277.454 270.034C231.691 272.883 192.951 275.09 157.618 277.103C151.987 277.424 146.443 277.74 140.971 278.053C114.418 279.709 87.6437 281.316 60.8698 282.838C59.8522 282.895 58.9742 282.119 58.9062 281.102C58.8382 280.084 59.6058 279.209 60.6229 279.144C86.7649 277.468 112.824 275.953 140.746 274.357C212.628 269.872 282.9 265.023 347.196 260.523C358.356 259.742 369.336 258.971 380.113 258.215C454.36 253.004 518.988 248.468 566.506 245.829C567.519 245.773 568.393 246.542 568.467 247.553ZM569.415 260.678C569.49 261.691 568.735 262.57 567.722 262.648C459.416 270.978 358.43 278.39 260.47 284.716C275 283.867 289.81 283.013 304.946 282.14C382.011 277.696 467.55 272.762 567.896 265.519C568.914 265.445 569.804 266.21 569.886 267.227C569.968 268.245 569.211 269.132 568.194 269.209C460.021 277.465 367.321 283.223 282.473 288.355C273.275 288.911 264.169 289.46 255.146 290.004C180.932 294.477 112.311 298.614 43.8608 303.741C42.848 303.817 41.9583 303.062 41.8672 302.05C41.7762 301.037 42.518 300.146 43.5292 300.053C84.1065 296.312 124.899 293.25 167.393 290.441C128.328 292.715 89.5344 294.803 50.7272 296.694C49.7147 296.743 48.8458 295.968 48.7784 294.957C48.711 293.945 49.4702 293.072 50.4812 293C65.0834 291.952 79.5816 290.905 94.2151 289.849C207.211 281.689 328.267 272.947 567.449 258.955C568.462 258.896 569.34 259.665 569.415 260.678ZM570.363 273.811C570.434 274.828 569.67 275.706 568.654 275.775C498.868 280.523 427.506 285.047 355.372 289.62C325.08 291.54 294.652 293.469 264.147 295.427C257.627 295.882 251.236 296.331 244.963 296.772C231.066 297.749 217.752 298.692 204.917 299.6C142.798 303.996 91.9173 307.596 40.6105 310.549C39.5957 310.607 38.7186 309.836 38.6461 308.822C38.5735 307.807 39.3328 306.929 40.3465 306.856C114.722 301.45 189.522 296.507 263.864 291.735C341.712 286.294 437.85 279.811 568.395 272.081C569.412 272.021 570.292 272.794 570.363 273.811ZM570.839 280.38C570.904 281.397 570.135 282.271 569.119 282.334C298.341 299.251 178.128 307.592 71.7509 314.973C60.2003 315.774 48.8128 316.564 37.4135 317.353C36.3979 317.423 35.5112 316.66 35.429 315.645C35.3468 314.629 36.1 313.744 37.1147 313.663C200.691 300.579 367.214 289.449 568.881 278.64C569.898 278.585 570.773 279.363 570.839 280.38ZM571.314 286.941C571.381 287.957 570.615 288.832 569.599 288.898C503.451 293.202 437.757 297.74 372.515 302.247C257.089 310.22 143.079 318.095 30.48 324.404C29.4653 324.461 28.5894 323.689 28.5182 322.674C28.447 321.66 29.2071 320.783 30.2207 320.711C47.4001 319.481 64.6271 318.242 81.9526 316.996C227.407 306.534 379.809 295.573 569.354 285.204C570.371 285.148 571.246 285.925 571.314 286.941ZM568.093 293.715C568.178 294.728 567.43 295.615 566.417 295.701C527.079 299.052 486.897 302.012 445.987 304.762C483.809 302.614 523.876 300.535 566.624 298.571C567.637 298.524 568.503 299.301 568.568 300.313C568.633 301.325 567.872 302.195 566.86 302.265L554.608 303.114C272.817 322.629 149.189 331.191 24.0404 338.016C23.025 338.071 22.1499 337.296 22.081 336.281C22.0122 335.266 22.7753 334.391 23.7898 334.322C65.5573 331.464 107.921 328.247 152.609 324.854C204.25 320.932 258.996 316.774 319.514 312.664C314.845 312.941 310.168 313.218 305.484 313.495C217.682 319.324 122.816 325.43 27.2698 331.209C26.2547 331.271 25.3751 330.501 25.3002 329.487C25.2253 328.472 25.9831 327.592 26.9971 327.517C112.104 321.183 195.797 316.252 277.367 311.445C286.683 310.897 295.97 310.349 305.229 309.802C404.212 303.231 494.219 297.013 566.108 292.011C567.122 291.941 568.008 292.701 568.093 293.715ZM565.349 307.11C565.419 308.126 564.655 309.002 563.64 309.071C557.444 309.493 551.114 309.925 544.654 310.365C407.366 319.722 211.786 333.051 17.1414 345.062C16.1263 345.125 15.2457 344.356 15.1697 343.342C15.0937 342.327 15.8509 341.446 16.865 341.37C232.564 325.138 450.502 311.743 563.386 305.378C564.403 305.32 565.279 306.094 565.349 307.11ZM565.822 313.678C565.889 314.695 565.12 315.57 564.102 315.634C422.012 324.519 317.906 331.808 233.723 337.702C145.501 343.879 79.1583 348.524 13.9037 351.869C12.8889 351.921 12.0167 351.145 11.9501 350.13C11.8835 349.116 12.6473 348.243 13.6611 348.175C51.2052 345.647 88.6424 342.934 129.086 340.004C234.872 332.339 361.227 323.184 563.861 311.939C564.878 311.883 565.755 312.66 565.822 313.678ZM562.604 320.482C562.671 321.501 561.901 322.376 560.883 322.439C500.595 326.179 435.377 330.606 367.224 335.278C343.832 336.987 320.926 338.694 298.407 340.372C197.629 347.884 104.621 354.816 10.6665 358.675C9.65174 358.717 8.78778 357.933 8.73063 356.919C8.67349 355.905 9.4445 355.039 10.4582 354.979C120.834 348.483 232.041 340.847 337.127 333.632C347.064 332.95 356.946 332.272 366.768 331.598C427.506 327.162 491.549 322.716 560.639 318.745C561.657 318.687 562.536 319.464 562.604 320.482ZM559.384 327.268C559.462 328.281 558.708 329.163 557.695 329.243C447.592 337.931 334.474 345.093 222.118 352.032C153.771 356.598 82.4331 361.158 11.174 365.235C10.1566 365.293 9.27844 364.518 9.20962 363.501C9.14081 362.484 9.9073 361.608 10.9241 361.541C67.7248 357.832 125.351 354.283 183.288 350.716C196.14 349.924 209.008 349.132 221.885 348.337C277.097 344.648 330.354 340.955 380.046 337.51C446.934 332.872 507.364 328.682 557.411 325.551C558.425 325.488 559.306 326.254 559.384 327.268ZM552.476 334.34C552.542 335.355 551.777 336.227 550.763 336.294C455.585 342.594 378.03 348.271 312.269 353.166C382.107 348.324 460.147 343.474 551.002 339.161C552.019 339.113 552.889 339.895 552.949 340.912C553.009 341.929 552.236 342.798 551.22 342.857C421.224 350.388 307.65 357.682 200.057 365.047C193.085 365.57 186.184 366.09 179.346 366.605C118.948 371.155 63.5053 375.331 8.43203 378.602C7.41667 378.663 6.53777 377.892 6.46432 376.877C6.39086 375.862 7.15034 374.983 8.16473 374.91C44.3233 372.284 80.4393 369.69 116.949 367.114C78.3414 369.474 43.1479 371.148 7.8968 372.043C6.89389 372.069 6.04818 371.291 5.99008 370.289C5.93199 369.287 6.68271 368.427 7.68261 368.349C205.135 352.974 401.408 340.097 550.524 332.6C551.539 332.549 552.41 333.326 552.476 334.34ZM546.039 347.947C546.107 348.959 545.348 349.832 544.337 349.905C445.777 357.012 354.162 362.708 265.858 368.199L264.83 368.263C176.206 373.774 90.9078 379.082 5.24009 385.406C4.22297 385.481 3.33167 384.719 3.24739 383.702C3.16308 382.685 3.91763 381.797 4.93426 381.716C10.0649 381.31 15.1926 380.904 20.3217 380.498C162.345 369.244 305.51 357.899 544.09 346.211C545.102 346.161 545.971 346.936 546.039 347.947ZM539.127 354.995C539.195 356.012 538.427 356.888 537.409 356.953C403.908 365.477 305.475 372.25 225.602 377.745C136.954 383.844 71.1692 388.37 5.68094 391.973C4.67146 392.028 3.79914 391.263 3.72186 390.255C3.64455 389.246 4.39091 388.368 5.39801 388.282C171.381 374.082 342.429 364.345 508.821 354.873C518.284 354.335 527.732 353.797 537.163 353.259C538.18 353.201 539.059 353.977 539.127 354.995ZM532.216 362.029C532.293 363.044 531.535 363.925 530.52 364.001C383.635 374.986 279.424 381.058 194.602 386.001C153.005 388.424 116.071 390.576 81.0544 392.903C54.6396 394.799 28.6141 396.74 2.50466 398.776C1.48844 398.855 0.594291 398.097 0.505116 397.081C0.415929 396.065 1.16526 395.173 2.18094 395.087C27.9958 392.897 53.7205 391.01 80.5827 389.225C175.882 382.385 276.231 376.141 403.833 368.201C443.163 365.754 485.083 363.146 530.243 360.309C531.258 360.245 532.14 361.014 532.216 362.029ZM525.307 369.078C525.383 370.095 524.624 370.977 523.607 371.051C377.19 381.73 191.161 393.749 2.9471 405.34C1.93276 405.402 1.05266 404.635 0.975808 403.621C0.898971 402.607 1.65413 401.726 2.66726 401.648C97.6708 394.308 192.165 388.359 317.619 380.461C377.882 376.667 445.29 372.423 523.329 367.359C524.346 367.293 525.23 368.062 525.307 369.078ZM514.705 376.382C514.774 377.395 514.014 378.269 513.002 378.342C373.547 388.369 217.83 398.268 60.5196 408.269C41.5022 409.478 22.4615 410.689 3.42342 411.901C2.4074 411.966 1.52475 411.198 1.44821 410.182C1.37162 409.166 2.12994 408.285 3.1451 408.209C184.373 394.742 367.444 382.231 512.75 374.649C513.763 374.596 514.635 375.369 514.705 376.382ZM500.405 383.919C500.475 384.937 499.707 385.813 498.689 385.879C355.896 395.047 258.477 401.687 184.116 406.754C109.605 411.832 58.2441 415.333 7.57968 418.219C6.56645 418.277 5.69057 417.508 5.61651 416.495C5.54242 415.483 6.29782 414.604 7.30959 414.527C119.325 405.952 238.107 397.482 498.438 382.185C499.457 382.125 500.336 382.901 500.405 383.919ZM489.804 391.233C489.86 392.245 489.091 393.109 488.079 393.17C407.318 398.066 337.327 402.42 273.744 406.519C263.173 407.273 252.429 408.042 241.534 408.822C169.464 413.981 90.7916 419.612 11.7558 424.539C10.74 424.602 9.85848 423.833 9.78296 422.818C9.70743 421.802 10.4662 420.922 11.4812 420.847C94.2222 414.753 176.373 409.087 273.46 402.828C360.678 396.606 436.203 391.393 487.875 389.474C488.888 389.437 489.748 390.221 489.804 391.233ZM479.202 398.505C479.269 399.513 478.517 400.383 477.51 400.461C355.979 409.905 252.467 416.214 154.691 422.173C107.566 425.046 61.7723 427.837 15.9358 430.858M479.202 398.505C479.135 397.498 478.273 396.725 477.265 396.768L479.202 398.505ZM477.265 396.768C356.378 401.929 247.247 410.099 142.644 417.929L477.265 396.768ZM142.644 417.929C99.719 421.142 57.5564 424.299 15.6571 427.167L142.644 417.929ZM15.9334 430.859C15.9318 430.859 15.9302 430.859 15.9287 430.859C14.9099 430.926 14.0241 430.155 13.9491 429.137C13.8742 428.118 14.6385 427.236 15.6571 427.167M464.904 406.018C464.982 407.031 464.23 407.912 463.219 407.994C381.397 414.583 315.337 419.812 259.665 423.944C321.562 419.651 382.972 415.53 444.954 412.081C445.973 412.024 446.85 412.804 446.916 413.823C446.981 414.841 446.208 415.715 445.189 415.776C383.698 419.419 303.256 424.821 214.988 430.769C151.379 435.215 86.9722 439.715 20.56 443.739C19.5416 443.801 18.6602 443.026 18.5896 442.008C18.5191 440.99 19.286 440.112 20.304 440.045C61.8804 437.333 103.465 434.56 144.086 431.833C96.3256 434.696 56.2692 436.438 16.3282 437.427C15.3173 437.452 14.4683 436.661 14.4215 435.651C14.3747 434.64 15.1474 433.785 16.1569 433.729C73.7098 430.555 130.748 426.582 200.344 421.734C270.595 416.841 353.643 411.057 462.932 404.302C463.946 404.24 464.825 405.005 464.904 406.018ZM432.621 421.345C432.692 422.364 431.926 423.243 430.908 423.31C336.06 429.589 264.341 434.255 205.546 438.079C131.604 442.89 78.1022 446.37 24.742 450.058C23.729 450.128 22.8436 449.369 22.7581 448.356C22.6725 447.344 23.4187 446.457 24.4301 446.369C99.7369 439.805 175.672 435.186 299.561 427.65C338.132 425.304 381.352 422.675 430.648 419.617C431.666 419.554 432.549 420.327 432.621 421.345ZM418.328 428.901C418.388 429.92 417.613 430.79 416.594 430.846C289.672 437.882 195.78 444.574 111.691 450.567C84.5678 452.501 58.4644 454.361 32.6012 456.137C31.5906 456.206 30.7068 455.45 30.6186 454.44C30.5305 453.43 31.2707 452.542 32.2792 452.449C133.839 442.982 235.041 436.223 416.376 427.151C417.395 427.1 418.268 427.883 418.328 428.901ZM404.025 436.389C404.111 437.4 403.367 438.287 402.358 438.377C264.803 450.702 175.07 455.271 97.4284 459.225C78.1779 460.205 59.6709 461.147 41.362 462.161C41.0534 462.178 40.7448 462.195 40.4362 462.212C39.4159 462.268 38.5377 461.487 38.4747 460.467C38.4116 459.447 39.1876 458.573 40.2081 458.517C40.5339 458.499 40.8597 458.481 41.1855 458.463C97.4036 455.343 153.998 451.498 257.492 444.467C297.691 441.736 344.967 438.525 402.045 434.688C403.057 434.62 403.94 435.379 404.025 436.389ZM389.734 443.958C389.802 444.978 389.03 445.854 388.01 445.916C388.01 445.916 388.009 445.916 388.008 445.916M389.734 443.958C389.666 442.939 388.785 442.161 387.765 442.222L389.734 443.958ZM79.9837 462.726C71.8174 463.203 63.6431 463.665 55.4524 464.108C54.4327 464.163 53.6558 465.034 53.7163 466.053C53.7767 467.073 54.6518 467.856 55.6715 467.803C63.8232 467.382 71.9226 466.923 80.1706 466.424C129.198 463.559 178.012 460.113 228.315 456.563C270.72 453.57 314.183 450.503 359.723 447.645C368.84 447.082 378.26 446.506 388.001 445.917M359.352 443.959C268.026 449.599 207.216 453.926 160.264 457.267C128.999 459.492 103.878 461.28 79.9837 462.726M387.765 442.222C378.197 442.791 368.729 443.37 359.352 443.959L387.765 442.222ZM375.438 451.471C375.518 452.486 374.763 453.369 373.749 453.449C365.24 454.116 355.852 454.742 345.709 455.352C328.341 456.397 308.761 457.397 287.592 458.477C227.18 461.56 153.835 465.303 82.0873 472.657L81.8868 470.817L81.7962 468.968C148.955 466.105 215.017 461.218 279.178 456.472C301.554 454.817 323.7 453.179 345.58 451.65C355.673 451.042 365.001 450.421 373.436 449.759L373.593 451.604L373.726 453.45M345.58 451.65C354.923 450.997 364.217 450.364 373.46 449.758C374.475 449.691 375.359 450.456 375.438 451.471M335.294 460.738C335.358 461.754 334.589 462.626 333.574 462.689C282.37 465.895 243.753 468.639 211.646 470.92C173.967 473.597 145.255 475.637 115.691 477.038C114.692 477.086 113.831 476.331 113.747 475.334C113.663 474.337 114.386 473.458 115.38 473.351C184.189 465.891 257.623 462.513 306.781 460.252C316.702 459.795 325.635 459.384 333.341 458.994C334.357 458.943 335.23 459.722 335.294 460.738Z" fill="#C3C8E1"/>
</svg>
