<svg width="96" height="96" viewBox="0 0 96 96" fill="none" xmlns="http://www.w3.org/2000/svg">
<g opacity="0.5" filter="url(#filter0_d_1940_4803)">
<rect x="8" y="8" width="80" height="80" rx="40" fill="white"/>
<path fill-rule="evenodd" clip-rule="evenodd" d="M67.0607 46.9393C67.6464 47.5251 67.6464 48.4749 67.0607 49.0607L50.0607 66.0607C49.4749 66.6464 48.5251 66.6464 47.9393 66.0607C47.3536 65.4749 47.3536 64.5251 47.9393 63.9393L62.3787 49.5H30C29.1716 49.5 28.5 48.8284 28.5 48C28.5 47.1716 29.1716 46.5 30 46.5H62.3787L47.9393 32.0607C47.3536 31.4749 47.3536 30.5251 47.9393 29.9393C48.5251 29.3536 49.4749 29.3536 50.0607 29.9393L67.0607 46.9393Z" fill="#7782B8"/>
</g>
<defs>
<filter id="filter0_d_1940_4803" x="0" y="0" width="96" height="96" filterUnits="userSpaceOnUse" color-interpolation-filters="sRGB">
<feFlood flood-opacity="0" result="BackgroundImageFix"/>
<feColorMatrix in="SourceAlpha" type="matrix" values="0 0 0 0 0 0 0 0 0 0 0 0 0 0 0 0 0 0 127 0" result="hardAlpha"/>
<feOffset/>
<feGaussianBlur stdDeviation="4"/>
<feComposite in2="hardAlpha" operator="out"/>
<feColorMatrix type="matrix" values="0 0 0 0 0.466667 0 0 0 0 0.509804 0 0 0 0 0.721569 0 0 0 1 0"/>
<feBlend mode="normal" in2="BackgroundImageFix" result="effect1_dropShadow_1940_4803"/>
<feBlend mode="normal" in="SourceGraphic" in2="effect1_dropShadow_1940_4803" result="shape"/>
</filter>
</defs>
</svg>
