<svg width="128" height="98" viewBox="0 0 128 98" fill="none" xmlns="http://www.w3.org/2000/svg">
<mask id="mask0_2621_5492" style="mask-type:luminance" maskUnits="userSpaceOnUse" x="0" y="18" width="80" height="80">
<path d="M80 18H0V98H80V18Z" fill="white"/>
</mask>
<g mask="url(#mask0_2621_5492)">
<path fill-rule="evenodd" clip-rule="evenodd" d="M50.3598 23.6041C51.2257 24.3505 51.3403 25.6505 50.6184 26.537C49.9659 27.3382 48.8957 28.3104 48.0063 29.1067C47.1413 29.8812 45.8133 29.812 45.0334 28.952C44.2535 28.0919 44.3142 26.7635 45.1694 25.9782C46.1436 25.0835 46.8314 24.4268 47.4208 23.7805C48.1912 22.9358 49.4939 22.8576 50.3598 23.6041ZM54.9632 28.3027C55.7172 29.0659 55.7791 30.2731 55.1072 31.1095C53.9553 32.5431 52.3785 33.8805 50.8976 35.1367C50.7093 35.2963 50.5226 35.4547 50.3385 35.6118C49.9576 36.0013 49.5669 36.4038 49.1685 36.8142C47.9607 38.0585 46.6822 39.3756 45.3935 40.6237C44.6038 41.3884 43.3596 41.4195 42.5328 40.6951C41.706 39.9707 41.5732 38.7332 42.2275 37.8499C43.8128 35.7097 45.7391 33.9888 47.4518 32.5233C47.4598 32.5152 47.4678 32.507 47.4757 32.4988C49.0808 30.8609 50.6799 29.2836 52.1584 28.1248C53.0028 27.463 54.2092 27.5395 54.9632 28.3027ZM24.7952 30.8154C25.6173 31.6029 25.667 32.9004 24.9077 33.7486C21.6377 37.4016 19.8412 39.2816 17.422 41.0387C16.5254 41.6899 15.2779 41.5373 14.5647 40.6891C13.8516 39.8409 13.9154 38.5857 14.711 37.8142C16.2974 36.2757 17.6189 34.9804 18.9812 33.6452C19.8921 32.7524 20.8212 31.8417 21.8599 30.8285C22.6748 30.0336 23.9732 30.0278 24.7952 30.8154ZM29.3226 35.4488C30.1371 36.28 30.1256 37.6134 29.297 38.4305C27.0637 40.6325 25.338 42.2443 23.9626 43.529C23.7107 43.7642 23.4706 43.9885 23.2413 44.2035C21.7468 45.604 20.7605 46.5618 19.9005 47.5946C19.164 48.4793 17.8546 48.611 16.9566 47.8909C16.0586 47.1707 15.9028 45.864 16.6063 44.9529C17.5653 43.711 18.7555 42.5539 20.2683 41.1408C20.6203 40.812 20.9929 40.4665 21.3894 40.0989C22.7258 38.8598 24.3342 37.3686 26.341 35.4141C27.1747 34.6021 28.5081 34.6177 29.3226 35.4488ZM31.4286 42.3717C32.2148 43.1842 32.2215 44.4718 31.444 45.2925C30.7381 46.0375 30.0943 46.6458 29.5262 47.1577C29.4617 47.2226 29.396 47.2886 29.3293 47.3558L29.3288 47.3562C28.5203 48.1697 27.5807 49.114 26.58 50.0457C25.7961 50.7755 24.59 50.8029 23.7738 50.1094C22.9576 49.4159 22.7898 48.2213 23.3834 47.3298C24.0275 46.3624 24.8622 45.6283 25.6312 44.9582C25.6951 44.9025 25.7596 44.8464 25.8245 44.7899C26.0788 44.5689 26.3416 44.3403 26.6161 44.0946C27.3045 43.4023 27.9626 42.7457 28.5099 42.2603C29.3557 41.5101 30.6424 41.5592 31.4286 42.3717ZM68.9383 42.3631C69.7504 43.1928 69.7404 44.5224 68.9159 45.3398C67.7694 46.4764 66.6249 47.6411 65.6181 48.6688C65.488 48.8015 65.36 48.9323 65.2343 49.0607C64.6455 49.6619 64.1089 50.2099 63.6637 50.6582C63.459 50.8662 63.2808 51.0445 63.1357 51.1847C62.3002 51.9928 60.9687 51.9737 60.1567 51.142C59.3447 50.3102 59.3576 48.9786 60.1855 48.1628C60.3319 48.0185 60.498 47.8525 60.682 47.6672C60.9606 47.3837 61.3028 47.0301 61.7015 46.6183C61.9317 46.3805 62.1807 46.1232 62.4471 45.8488C63.4679 44.7974 64.6987 43.5422 65.9618 42.3216C66.7966 41.5149 68.1262 41.5334 68.9383 42.3631ZM73.1768 46.5231C73.9889 47.3528 73.9789 48.6824 73.1544 49.4998C72.0125 50.6318 70.3019 52.3861 68.7194 54.0132C68.5024 54.2364 68.2874 54.4576 68.0764 54.6746C67.1112 55.6674 66.231 56.5729 65.6301 57.1822C65.398 57.4189 65.2132 57.6047 65.0891 57.7247C64.2535 58.5328 62.922 58.5137 62.1101 57.682C61.2981 56.8502 61.3109 55.5186 62.1388 54.7028C62.2698 54.5737 62.4487 54.3938 62.6668 54.1725C63.0835 53.7466 63.6752 53.1334 64.3692 52.4143C64.7347 52.0355 65.1286 51.6274 65.5401 51.2018C67.1238 49.5641 68.9319 47.7074 70.2003 46.4817C71.0352 45.6749 72.3647 45.6934 73.1768 46.5231ZM47.3962 53.9606C48.0664 54.8155 47.9788 56.0394 47.1934 56.79C42.4051 61.3667 39.3061 64.3297 36.9004 66.6998C35.6693 67.9983 34.3401 69.3651 32.8954 70.7617C32.0693 71.5603 30.7564 71.5518 29.9406 70.7427C29.1249 69.9336 29.1058 68.6207 29.8976 67.7882C31.1232 66.4996 32.3759 65.2295 33.885 63.7419C34.6293 62.956 35.3424 62.1899 36.0348 61.446C36.639 60.7969 37.2274 60.1647 37.8072 59.551C40.0814 57.1433 42.2659 54.9689 44.6 53.4824C45.5163 52.8988 46.7259 53.1057 47.3962 53.9606ZM16.9099 56.1192C17.7714 56.9041 17.8341 58.2387 17.0499 59.1009C15.6133 60.6806 12.8366 63.3108 10.3295 65.6855C10.147 65.8584 9.96595 66.0299 9.78693 66.1995C8.99282 66.9521 7.75541 66.9735 6.93573 66.2489C6.11605 65.5242 5.9856 64.2935 6.63513 63.4131C7.81249 61.8173 9.16675 60.5837 10.4239 59.4902C10.6292 59.3117 10.8306 59.1378 11.0286 58.9669C12.0811 58.0586 13.0343 57.2358 13.928 56.2567C14.7137 55.3958 16.0483 55.3342 16.9099 56.1192ZM51.8095 58.4664C52.5616 59.3334 52.4835 60.6423 51.6337 61.4137C49.99 62.9058 48.5061 64.3174 47.1419 65.655C46.36 66.4486 45.5355 67.2991 44.6635 68.1988L44.4594 68.4095C42.8367 70.0835 41.0735 71.8978 39.1658 73.7619C37.7237 75.211 36.3272 76.5502 34.8892 77.7682C34.0077 78.5148 32.6899 78.4145 31.9316 77.5432C31.1732 76.6719 31.2556 75.3529 32.1167 74.5828C33.5365 73.313 34.8899 72.0346 36.183 70.7717C37.0638 69.8861 37.9822 68.9386 38.9692 67.9202L39.1656 67.7175C40.6561 66.1798 42.2863 64.5023 44.1431 62.6806C45.8313 60.9679 47.4114 59.4305 48.867 58.2242C49.7507 57.4919 51.0575 57.5995 51.8095 58.4664ZM21.5065 60.8425C22.3681 61.6274 22.4308 62.962 21.6466 63.8243C20.21 65.4039 17.4332 68.0341 14.9262 70.4088C14.7437 70.5817 14.5626 70.7532 14.3836 70.9229C13.5895 71.6754 12.3521 71.6969 11.5324 70.9722C10.7127 70.2476 10.5823 69.0169 11.2318 68.1365C12.4092 66.5407 13.7634 65.3071 15.0206 64.2136C15.2258 64.035 15.4273 63.8611 15.6253 63.6903C16.6777 62.7819 17.631 61.9592 18.5246 60.98C19.3103 60.1191 20.6449 60.0576 21.5065 60.8425ZM56.2075 62.9606C57.0165 63.7916 57.0038 65.1196 56.1791 65.935C54.2241 67.8681 52.1658 69.9484 50.0322 72.1047C44.4519 77.7445 38.3569 83.9044 32.251 89.3111C31.3899 90.0736 30.077 90.0067 29.2978 89.1608C28.5187 88.3148 28.5597 87.0009 29.3903 86.2053C31.8321 83.8661 34.0947 81.6242 36.8009 78.9426C37.4164 78.3327 38.0549 77.7 38.7237 77.0383C42.3287 73.4712 46.7913 69.0821 53.2334 62.9088C54.0707 62.1064 55.3986 62.1295 56.2075 62.9606ZM60.633 67.4932C61.467 68.2898 61.5075 69.6082 60.724 70.4546C50.6585 81.3285 45.0952 86.3838 36.7419 93.8847C35.8929 94.647 34.5919 94.5971 33.8039 93.7719C33.0158 92.9466 33.0259 91.6447 33.8266 90.8317C37.4894 87.1127 41.0236 83.7334 44.6978 80.2201C44.8668 80.0585 45.0361 79.8967 45.2057 79.7344C49.0672 76.0417 53.1059 72.1687 57.6705 67.5378C58.4801 66.7164 59.799 66.6965 60.633 67.4932ZM65.1448 72.1076C65.9329 72.8928 65.9766 74.1547 65.2448 74.9926C62.3675 78.2868 56.9261 83.8261 50.7278 89.1784C49.8768 89.9133 48.5992 89.8524 47.8219 89.04C47.0446 88.2276 47.0402 86.9486 47.8119 86.1308C48.1453 85.7776 48.5022 85.3875 48.9038 84.9484C51.0348 82.6188 54.4266 78.9108 62.2594 72.0182C63.0946 71.2833 64.3567 71.3224 65.1448 72.1076Z" fill="#7782B8"/>
<path fill-rule="evenodd" clip-rule="evenodd" d="M42.5303 31.6663C43.1676 33.7532 43.5137 35.6246 43.7608 37.1875C43.8354 37.6594 43.8992 38.0869 43.9573 38.476C44.1112 39.5077 44.2249 40.2693 44.393 40.8727C44.4713 41.1539 44.5381 41.3117 44.5822 41.3951C44.6616 41.3901 44.7979 41.3715 45.0079 41.3131C45.3977 41.2046 45.9341 40.9895 46.6656 40.6176C46.8755 40.511 47.1049 40.4503 47.3388 40.4387C47.385 40.3981 47.4613 40.3209 47.5687 40.1827C47.902 39.7537 48.2753 39.0637 48.7418 38.0793C48.9217 37.6996 49.1117 37.2832 49.3137 36.8407C50.0179 35.2976 50.8668 33.4373 51.9366 31.7098C51.0177 27.1684 49.1509 24.2239 46.6105 23.39C45.7058 23.1047 45.1808 23.1069 44.8791 23.1854C44.6452 23.2462 44.3802 23.3924 44.0768 23.8901C43.7443 24.4355 43.4221 25.3207 43.1467 26.7023C42.8882 27.9996 42.6892 29.6355 42.5303 31.6663ZM44.6391 41.4775C44.6386 41.4797 44.6298 41.4726 44.6142 41.4494C44.6318 41.4637 44.6396 41.4753 44.6391 41.4775ZM44.0402 19.9593C45.2054 19.6563 46.4312 19.8371 47.6236 20.2144L47.6382 20.219C52.185 21.7037 54.4291 26.6363 55.3385 31.7587C55.4133 32.18 55.3232 32.6138 55.0869 32.9705C53.9999 34.6115 53.1814 36.4015 52.4064 38.0966C52.1872 38.5761 51.9714 39.0479 51.754 39.5066C51.2884 40.4893 50.7816 41.4804 50.201 42.2277C49.7197 42.8472 48.9507 43.6024 47.8592 43.747C47.1529 44.0915 46.5013 44.3575 45.9015 44.5244C45.221 44.7137 44.4908 44.8089 43.772 44.6495C42.1058 44.2799 41.4804 42.8384 41.182 41.7674C40.9536 40.9478 40.7953 39.8832 40.6294 38.7685C40.5773 38.4179 40.5244 38.0624 40.4684 37.708C40.2211 36.1439 39.8836 34.3467 39.2551 32.3593C39.1911 32.1569 39.1663 31.9441 39.1821 31.7324C39.3493 29.498 39.5675 27.607 39.8777 26.0507C40.1843 24.5123 40.6019 23.1863 41.2307 22.155C41.8885 21.076 42.8063 20.2802 44.0402 19.9593ZM17.111 28.3862C16.4775 28.0939 15.7922 28.0954 15.1791 28.3123C14.5048 28.5508 13.9758 29.0208 13.5867 29.4825C12.7974 30.4192 12.1954 31.7813 11.8776 33.2618C11.2452 36.2069 11.6292 40.1981 14.7189 43.2384C15.0264 43.6847 15.317 44.1598 15.6414 44.6901C15.8603 45.0479 16.0946 45.4309 16.3599 45.8472C17.0016 46.8544 17.7755 47.9676 18.7321 48.8572C19.7067 49.7636 20.953 50.5136 22.5208 50.6336C24.0693 50.7522 25.6733 50.2365 27.3429 49.1328C28.5937 48.39 29.5534 47.4881 30.17 46.374C30.7967 45.2416 30.9941 44.0253 30.9338 42.7936C30.8197 40.4613 29.7455 37.7774 28.5802 34.9455C27.8473 33.0287 27.0729 31.606 26.166 30.5907C25.2121 29.5227 24.1577 28.9574 23.012 28.6973C22.0196 28.4719 20.9775 28.4878 20.075 28.5015C20.0219 28.5023 19.9693 28.5031 19.9172 28.5039C19.0062 28.5169 18.1061 28.5225 17.111 28.3862ZM15.1366 33.9616C14.6666 36.1505 15.002 38.9051 17.1441 40.947C17.2227 41.0219 17.2937 41.1042 17.3562 41.1928C17.7508 41.7523 18.1721 42.4392 18.5731 43.0928C18.78 43.4301 18.9815 43.7585 19.171 44.056C19.7815 45.014 20.3699 45.8284 21.0021 46.4162C21.6162 46.9873 22.1851 47.2648 22.7753 47.31C23.373 47.3558 24.2569 47.1833 25.5335 46.3329C25.5594 46.3157 25.5858 46.2992 25.6126 46.2834C26.5069 45.7574 26.9878 45.24 27.2535 44.7599C27.5158 44.286 27.6417 43.7165 27.6045 42.9565C27.5239 41.3109 26.7245 39.1951 25.4896 36.1943L25.4731 36.1543C24.805 34.4032 24.2047 33.3988 23.6799 32.8113C23.199 32.2728 22.7611 32.0585 22.2738 31.9478C21.6917 31.8156 21.0246 31.8217 19.9648 31.8369C18.9624 31.8512 17.7231 31.8649 16.3018 31.6354C16.253 31.6275 16.2048 31.6175 16.1572 31.6054C16.1502 31.6134 16.143 31.6218 16.1357 31.6305C15.7899 32.0409 15.3741 32.8554 15.1366 33.9616ZM63.1282 49.8774C63.4693 51.2373 63.6044 52.4699 63.6744 53.5209C63.7039 53.9646 63.7226 54.3938 63.7391 54.7715C63.7452 54.9118 63.751 55.0449 63.757 55.1691C63.7802 55.6552 63.8056 56.0092 63.8492 56.2853C63.8615 56.3629 63.8736 56.4251 63.8846 56.4742C63.9422 56.4744 64.0167 56.4718 64.1107 56.4633C64.4388 56.4336 64.9093 56.3418 65.5736 56.1492C66.0702 56.0053 66.6033 56.1005 67.0182 56.4024C67.3907 56.1145 67.8459 55.7051 68.3323 55.1873C69.1385 54.329 69.8788 53.3339 70.3266 52.4511C70.5507 52.0092 70.6706 51.6556 70.7145 51.4027C70.7385 51.264 70.7341 51.1916 70.731 51.1667C70.5199 50.726 70.5127 50.2142 70.7124 49.767C71.4475 48.1212 71.6537 47.1064 71.6439 46.4981C71.6359 45.997 71.489 45.7931 71.2932 45.6223C71.0001 45.3667 70.5094 45.132 69.6628 44.8369C69.4747 44.7713 69.2649 44.7016 69.0405 44.627C68.3987 44.4137 67.638 44.1609 66.9266 43.8526C66.2685 43.6394 65.8008 43.5442 65.4754 43.5159C65.2401 43.4955 65.1165 43.5134 65.0663 43.5248C65.0307 43.5798 64.9609 43.7215 64.8781 44.0416C64.7974 44.3538 64.7319 44.7217 64.6469 45.208L64.6427 45.2319C64.5626 45.6905 64.4682 46.2312 64.3348 46.7953C64.1099 47.7465 63.7638 48.8159 63.1282 49.8774ZM65.0916 43.4946C65.0919 43.4961 65.0866 43.5034 65.0748 43.5123C65.0854 43.4976 65.0913 43.4932 65.0916 43.4946ZM63.7498 40.4584C64.9792 39.9427 66.4588 40.1877 68.0432 40.7107C68.0945 40.7276 68.1448 40.747 68.1942 40.7688C68.7718 41.0239 69.3342 41.2108 69.952 41.4161C70.21 41.5019 70.4777 41.5909 70.7602 41.6894C71.6187 41.9887 72.662 42.393 73.4843 43.1103C74.4039 43.9124 74.9539 45.0154 74.9768 46.4446C74.9957 47.6234 74.6568 48.9748 74.0065 50.5447C74.0997 51.0451 74.0743 51.537 73.9987 51.9728C73.8794 52.6599 73.6141 53.3384 73.2994 53.959C72.6693 55.2012 71.7169 56.4528 70.7619 57.4695C69.8353 58.4559 68.7484 59.39 67.7871 59.8438C67.5335 59.9636 67.2247 60.0811 66.8845 60.1363C66.5515 60.1903 66.0622 60.2041 65.5604 59.966C65.3897 59.885 65.2426 59.7901 65.116 59.6854C64.8713 59.7297 64.6363 59.7627 64.4109 59.7831C63.7949 59.8388 63.1467 59.8107 62.5375 59.5778C61.1011 59.0287 60.701 57.7203 60.5566 56.8048C60.482 56.3322 60.4509 55.8176 60.4274 55.3283C60.4203 55.1781 60.4138 55.0293 60.4073 54.8797C60.3913 54.5145 60.3752 54.1452 60.3484 53.7423C60.2747 52.635 60.1262 51.4064 59.7246 50.0695C59.5742 49.5688 59.6675 49.0265 59.9766 48.6048C60.5593 47.8097 60.8749 46.9419 61.0909 46.0284C61.2004 45.5653 61.2801 45.1105 61.3633 44.6343L61.3683 44.6057C61.4462 44.1595 61.5329 43.6636 61.651 43.2068C61.8833 42.3088 62.3638 41.0397 63.7498 40.4584ZM41.982 53.0609C42.1049 53.1524 42.2487 53.2642 42.4149 53.3988C43.2807 54.1001 44.477 55.1935 45.938 56.5613C46.4784 57.0672 47.0516 57.6074 47.6518 58.1731C50.2571 60.6285 53.3714 63.5635 56.5205 66.2535C56.9423 66.6191 57.4671 67.1953 58.1789 68.0385C58.5004 68.4193 58.8462 68.8377 59.2273 69.2988L59.3285 69.4212C59.7006 69.8714 60.103 70.3576 60.5373 70.8741C60.9582 71.7559 61.719 72.2379 62.2574 72.5118C62.5751 72.6735 62.9019 72.805 63.1672 72.9097C63.216 72.9289 63.2626 72.9472 63.3073 72.9648C63.528 73.0515 63.7027 73.1201 63.869 73.1953C63.961 73.2368 64.0312 73.2724 64.0842 73.3015C64.0578 73.3777 64.0155 73.4811 63.9477 73.6162C63.7538 74.0027 63.7178 74.4495 63.8472 74.8621C63.9356 75.144 63.9416 75.6178 63.7242 76.3406C63.5124 77.0451 63.1353 77.8305 62.667 78.635C62.3652 79.1537 62.0387 79.658 61.7179 80.1291C61.3054 80.0182 60.871 79.9752 60.4541 79.9742C59.3068 79.9714 57.8391 80.2946 56.5299 81.0417C56.2794 81.0618 56.0498 81.1189 55.9336 81.1478L55.9262 81.1496C55.719 81.2011 55.4896 81.265 55.2362 81.3356C54.4797 81.5464 53.5093 81.8168 52.2747 81.9935C52.0421 82.0268 51.8192 82.1089 51.6206 82.2344C50.2229 83.1175 49.294 83.0771 47.9892 83.0205C47.9099 83.017 47.8293 83.0135 47.7472 83.0102C47.0012 82.9797 46.0777 82.9607 45.0428 83.2224C44.2646 83.4192 43.4781 83.7592 42.6569 84.2963C42.6231 84.2854 42.5893 84.2749 42.5556 84.2647C42.0223 84.1032 41.2987 83.9632 40.5781 84.0016C39.9306 84.036 38.7635 84.2539 38.1322 85.359C37.8529 85.8479 37.7629 86.3661 37.7902 86.878C36.3673 87.4742 35.4552 88.1866 34.8446 88.8148C34.4844 88.8299 34.1338 88.9617 33.8494 89.1978C32.8259 90.0477 31.1219 90.1793 29.8428 89.4781C29.2422 89.1489 28.7818 88.6582 28.5331 88.0138C28.3372 87.5064 28.2405 86.8193 28.3971 85.9176C28.4907 85.8663 28.5822 85.8089 28.6693 85.7443C28.9069 85.5681 29.2186 85.2606 29.3742 84.7788C29.5359 84.2782 29.453 83.8277 29.3365 83.5215C29.1675 83.0774 28.8379 82.7325 28.7329 82.6226C28.726 82.6154 28.7201 82.6092 28.7152 82.604C28.6718 82.5578 28.6335 82.5177 28.5989 82.4814C28.4965 82.3738 28.4264 82.3002 28.3497 82.2058C28.1806 81.9975 28.1609 81.8992 28.1654 81.8006C28.1719 81.6557 28.2597 81.1653 29.0572 80.2446C29.3077 79.9555 29.4511 79.5889 29.4633 79.2065C29.4832 78.581 29.6405 77.9106 29.9083 76.8424L29.9276 76.7653C30.1816 75.7529 30.4966 74.4967 30.7273 72.8929C31.8522 66.3538 33.2965 61.7278 34.5491 58.6621C35.1765 57.1266 35.7527 55.99 36.2118 55.2043C36.4416 54.811 36.6376 54.5134 36.791 54.3017C36.8676 54.1961 36.9299 54.117 36.9769 54.061C37.0265 54.0022 37.0479 53.9823 37.0421 53.9877C37.0606 53.9705 37.0787 53.9528 37.0963 53.9348C37.1504 53.944 37.2032 53.9527 37.2519 53.9603C38.4104 54.1404 40.085 54.199 41.982 53.0609ZM37.5703 52.727C37.5702 52.7268 37.5703 52.7272 37.5703 52.727V52.727ZM54.9056 84.8712C55.5304 85.4053 56.4609 85.4059 57.0873 84.8556C57.3456 84.6288 57.5712 84.4242 57.7454 84.2493C57.7717 84.2228 57.7991 84.1948 57.8269 84.1656C58.4125 83.7449 59.1469 83.4719 59.8108 83.3622C59.8107 83.85 60.0243 84.3307 60.4275 84.6577C61.0827 85.1892 62.0316 85.1473 62.6374 84.5602C62.9491 84.2581 63.2618 83.8833 63.4642 83.4326C63.5983 83.2473 63.7524 83.0337 63.9276 82.7875C64.4198 82.0958 65.0091 81.2377 65.548 80.3117C66.0822 79.3938 66.5993 78.355 66.9164 77.3005C67.1694 76.459 67.3289 75.4964 67.1818 74.5325C67.5081 73.6664 67.6004 72.739 67.1748 71.8551C66.7 70.8691 65.7772 70.3995 65.241 70.1573C64.9912 70.0446 64.7249 69.9401 64.505 69.8539C64.4652 69.8383 64.427 69.8233 64.3906 69.809C64.1291 69.7058 63.9324 69.6241 63.7689 69.5409C63.6363 69.4734 63.5663 69.4251 63.5333 69.3991C63.4666 69.2254 63.3712 69.064 63.251 68.9215C62.7646 68.3454 62.3164 67.8041 61.8978 67.2976L61.7947 67.1729C61.4165 66.7153 61.0595 66.2833 60.726 65.8883C60.0132 65.0438 59.3389 64.2842 58.698 63.7297L58.6899 63.7227C55.608 61.0904 52.5672 58.2248 49.9621 55.7698C49.3547 55.1975 48.7711 54.6475 48.2161 54.1279C46.7659 52.7703 45.4857 51.5965 44.5129 50.8085C44.0379 50.4238 43.5629 50.0702 43.1387 49.8374C42.9383 49.7274 42.6347 49.5791 42.2801 49.5134C41.968 49.4555 41.2814 49.4123 40.6982 49.913C39.4559 50.8357 38.5046 50.7816 37.7639 50.6665C37.6127 50.643 37.5133 50.6244 37.4019 50.6037C37.3168 50.5878 37.2246 50.5706 37.097 50.5489C36.8999 50.5154 36.5402 50.4561 36.1688 50.4875C35.7403 50.5238 35.0877 50.7024 34.6375 51.3407C34.4714 51.5761 34.3725 51.8217 34.3145 52.0521C34.0103 52.4344 33.678 52.9336 33.3339 53.5225C32.785 54.4617 32.1415 55.7418 31.4634 57.4013C30.1066 60.7221 28.5994 65.5923 27.4382 72.3512L27.4309 72.3974C27.2247 73.8399 26.9431 74.9629 26.6881 75.9795L26.6643 76.0745C26.4661 76.865 26.2624 77.6775 26.1738 78.5046C25.3437 79.5714 24.8824 80.6113 24.8354 81.65C24.7911 82.6302 25.1247 83.3895 25.487 83.9343C25.447 84.0161 25.4135 84.1017 25.387 84.1905C24.831 86.0551 24.8621 87.7601 25.4234 89.2141C25.9844 90.6675 27.0236 91.7341 28.2405 92.4011C30.1913 93.4704 32.7226 93.5719 34.7731 92.5476C35.3051 92.6782 35.7674 92.528 36.0537 92.3666C36.3172 92.218 36.4902 92.0319 36.5571 91.9582C36.6392 91.8678 36.711 91.7752 36.7546 91.7184C36.7818 91.6831 36.8063 91.6508 36.8296 91.6202C36.8973 91.5312 36.9544 91.456 37.0341 91.3609C37.376 90.9525 38.1721 90.1342 40.2427 89.551C40.7128 89.4185 41.1013 89.0865 41.3052 88.6427C41.4864 88.2485 41.5059 87.8013 41.3638 87.3959C41.4431 87.4136 41.5193 87.4337 41.5898 87.455C41.6451 87.4717 41.6911 87.4875 41.7276 87.501C41.8978 87.6481 42.0983 87.7613 42.3193 87.8305C42.8501 87.9968 43.429 87.8873 43.8624 87.5385C44.6936 86.8696 45.3369 86.5863 45.8601 86.454C46.4014 86.3171 46.9188 86.3125 47.6111 86.3407C47.6978 86.3443 47.7863 86.3483 47.8764 86.3524C49.2198 86.4136 50.9446 86.4922 53.0906 85.2409C53.7517 85.1344 54.3683 85.0015 54.9056 84.8712ZM41.8316 87.5443C41.8319 87.5444 41.8333 87.5452 41.8316 87.5443V87.5443ZM13.0692 54.7871C15.5635 55.3249 18.4358 57.1338 19.7247 60.5716C19.7982 60.7676 19.833 60.9721 19.8307 61.1748C19.8779 61.257 19.943 61.366 20.0319 61.51C20.0698 61.5713 20.1107 61.637 20.154 61.7066C20.5034 62.2672 21.013 63.085 21.392 64.0004C21.8247 65.0455 22.1562 66.3687 21.8825 67.8149C21.6021 69.2969 20.7308 70.6765 19.1861 71.8881C18.9922 72.0402 18.7669 72.1474 18.5265 72.202C17.135 72.518 15.9562 72.7836 14.9732 72.9105C13.98 73.0388 13.0082 73.0532 12.0684 72.7399C11.0997 72.4171 10.3576 71.8122 9.70061 71.0571C9.08053 70.3445 8.46455 69.412 7.77234 68.3083C7.60671 68.0705 7.50151 67.7877 7.4788 67.4821C7.47459 67.4271 7.47313 67.3721 7.47436 67.3173C7.48788 64.6894 6.97176 62.4971 6.57345 60.8051C6.51122 60.5408 6.45186 60.2886 6.39785 60.049C6.30091 59.6188 6.20913 59.1739 6.16698 58.7741C6.13168 58.4394 6.08881 57.8242 6.35369 57.2372C6.50903 56.8929 6.7735 56.5504 7.17706 56.3124C7.46642 56.1418 7.76049 56.0642 8.02156 56.0357C8.41804 55.5031 8.955 55.1633 9.47558 54.9551C10.5424 54.5283 11.8442 54.5229 13.0692 54.7871ZM10.8052 66.8684C11.3927 67.7936 11.8288 68.4249 12.2153 68.8691C12.6314 69.3473 12.9024 69.5043 13.1225 69.5777C13.3713 69.6606 13.7639 69.7057 14.5463 69.6047C15.2662 69.5117 16.1639 69.3187 17.4031 69.0387C18.2274 68.3193 18.5142 67.6872 18.6073 67.1951C18.7169 66.6162 18.6049 65.9825 18.3122 65.2755C18.0451 64.6306 17.6851 64.0503 17.3257 63.4711C17.2821 63.401 17.2386 63.3309 17.1953 63.2606C17.0211 62.9785 16.7947 62.6077 16.649 62.2569C16.5758 62.0809 16.4741 61.7984 16.4506 61.4619C16.4483 61.4295 16.4467 61.3956 16.446 61.3604C15.5624 59.4083 13.8557 58.3666 12.3666 58.0455C11.641 57.8891 11.1004 57.933 10.8087 58.0176C10.7842 58.5031 10.5478 58.9601 10.1523 59.2605C10.011 59.3679 9.85593 59.4503 9.69329 59.507C9.7294 59.663 9.76882 59.8293 9.8106 60.0056C10.1892 61.6032 10.7609 64.0156 10.8052 66.8684ZM19.7272 60.9779C19.7234 60.9676 19.7236 60.9692 19.7272 60.9779V60.9779Z" fill="#7782B8"/>
</g>
<mask id="mask1_2621_5492" style="mask-type:luminance" maskUnits="userSpaceOnUse" x="70" y="-10" width="68" height="68">
<path d="M137.199 16.973L96.9727 -9.19922L70.8005 31.0274L111.027 57.1996L137.199 16.973Z" fill="white"/>
</mask>
<g mask="url(#mask1_2621_5492)">
<path fill-rule="evenodd" clip-rule="evenodd" d="M120.459 10.0938C120.651 10.7524 120.283 11.4436 119.63 11.6531C119.04 11.8425 118.183 11.9813 117.476 12.0907C116.787 12.1971 116.142 11.7279 116.032 11.0403C115.921 10.3526 116.386 9.70454 117.073 9.58942C117.855 9.45827 118.416 9.35308 118.924 9.22095C119.587 9.04825 120.268 9.43512 120.459 10.0938ZM121.237 13.9625C121.366 14.5929 121.003 15.2203 120.391 15.4209C119.343 15.765 118.113 15.9216 116.957 16.0687C116.81 16.0874 116.664 16.106 116.52 16.1248C116.201 16.196 115.873 16.2706 115.539 16.3466C114.524 16.5771 113.451 16.8211 112.394 17.0271C111.747 17.1533 111.111 16.7618 110.933 16.1271C110.754 15.4924 111.092 14.8266 111.71 14.5965C113.207 14.039 114.739 13.8039 116.079 13.6273C116.086 13.6258 116.093 13.6243 116.099 13.6228C117.442 13.3244 118.762 13.0544 119.885 12.9554C120.526 12.8989 121.107 13.3321 121.237 13.9625ZM105.246 5.35603C105.401 6.02099 105.002 6.68967 104.343 6.86778C101.503 7.6348 99.985 7.9924 98.1938 8.08447C97.5299 8.11859 96.9525 7.63369 96.8714 6.97387C96.7903 6.31404 97.233 5.70378 97.8854 5.57612C99.1865 5.32153 100.275 5.10255 101.396 4.87682C102.147 4.72589 102.912 4.57194 103.765 4.4023C104.435 4.26921 105.09 4.69107 105.246 5.35603ZM106.006 9.16712C106.144 9.85153 105.702 10.5183 105.018 10.658C103.175 11.0346 101.78 11.2805 100.668 11.4765C100.464 11.5124 100.27 11.5467 100.085 11.5797C98.8749 11.795 98.0656 11.9539 97.2953 12.1919C96.6356 12.3958 95.9341 12.0337 95.7181 11.3777C95.5022 10.7218 95.8513 10.0138 96.5031 9.78582C97.3916 9.47508 98.3686 9.28265 99.5916 9.067C99.8761 9.01683 100.176 8.96502 100.496 8.90989C101.573 8.72407 102.87 8.50044 104.519 8.17418C105.203 8.03865 105.869 8.48271 106.006 9.16712ZM104.801 13.3372C104.93 14.003 104.512 14.6527 103.853 14.8109C103.254 14.9546 102.731 15.0499 102.278 15.1214C102.225 15.1329 102.17 15.1447 102.114 15.1566L102.114 15.1567C101.441 15.3012 100.66 15.4686 99.8521 15.6097C99.2192 15.7202 98.6038 15.3394 98.4202 14.7237C98.2367 14.1079 98.5431 13.4523 99.1332 13.1982C99.7736 12.9225 100.433 12.8265 101.039 12.7411C101.09 12.734 101.14 12.7269 101.192 12.7198C101.392 12.6918 101.599 12.6628 101.817 12.6291C102.39 12.5062 102.935 12.3913 103.369 12.3263C104.04 12.2258 104.671 12.6715 104.801 13.3372ZM123.664 25.6048C123.801 26.2877 123.361 26.953 122.679 27.0943C121.731 27.2907 120.774 27.5019 119.932 27.6893C119.823 27.7135 119.716 27.7374 119.611 27.7608C119.118 27.8705 118.669 27.9705 118.298 28.0502C118.127 28.0878 117.979 28.1192 117.861 28.1423C117.176 28.2752 116.513 27.83 116.377 27.1461C116.241 26.4622 116.683 25.7969 117.366 25.6575C117.487 25.6328 117.624 25.6037 117.778 25.5707C118.01 25.5193 118.298 25.4535 118.633 25.3768C118.827 25.3326 119.036 25.2847 119.26 25.2338C120.117 25.0391 121.147 24.8107 122.181 24.6101C122.865 24.4776 123.527 24.9219 123.664 25.6048ZM124.435 29.0833C124.571 29.7662 124.131 30.4315 123.45 30.5728C122.505 30.7684 121.071 31.0909 119.743 31.3913C119.561 31.4326 119.38 31.4734 119.203 31.5135C118.393 31.697 117.654 31.8643 117.153 31.9741C116.959 32.0172 116.805 32.0502 116.703 32.0699C116.019 32.2029 115.356 31.7576 115.219 31.0738C115.083 30.3899 115.525 29.7245 116.208 29.5851C116.317 29.5631 116.465 29.5311 116.647 29.4912C116.996 29.4134 117.494 29.2986 118.079 29.1641C118.386 29.0932 118.718 29.0168 119.064 28.9375C120.396 28.6321 121.913 28.29 122.951 28.0887C123.635 27.9561 124.298 28.4004 124.435 29.0833ZM109.038 24.3886C109.096 25.0378 108.651 25.6245 108.011 25.7451C104.106 26.4798 101.578 26.9559 99.5932 27.3605C98.5494 27.6107 97.4339 27.8631 96.2506 28.0928C95.574 28.224 94.9166 27.7902 94.7711 27.1165C94.6256 26.4428 95.0455 25.7763 95.716 25.6168C96.7538 25.3698 97.7992 25.141 99.0446 24.8867C99.676 24.735 100.285 24.5831 100.877 24.4355C101.393 24.3068 101.896 24.1815 102.388 24.0625C104.319 23.5959 106.129 23.2172 107.789 23.2334C108.44 23.2397 108.981 23.7394 109.038 24.3886ZM93.0028 15.5C93.1793 16.1765 92.7742 16.8681 92.0978 17.0451C90.8587 17.3694 88.602 17.7835 86.5645 18.1574C86.4162 18.1847 86.2691 18.2117 86.1235 18.2384C85.478 18.357 84.8488 17.963 84.6737 17.3304C84.4987 16.6978 84.8357 16.0363 85.4503 15.8061C86.5643 15.3889 87.6489 15.2117 88.6387 15.0731C88.8003 15.0505 88.9585 15.0289 89.114 15.0078C89.9403 14.8954 90.6888 14.7935 91.4585 14.5935C92.1352 14.4177 92.8264 14.8234 93.0028 15.5ZM109.783 28.0982C109.878 28.7802 109.41 29.4129 108.731 29.5227C107.416 29.7353 106.208 29.9596 105.085 30.1859C104.432 30.3291 103.739 30.4871 103.006 30.6542L102.835 30.6933C101.471 31.0042 99.9911 31.3396 98.422 31.6528C97.2229 31.9097 96.0825 32.1262 94.961 32.2682C94.2736 32.3552 93.6438 31.8737 93.5475 31.1874C93.4512 30.5012 93.9241 29.8649 94.609 29.7594C95.7383 29.5854 96.8371 29.3853 97.9005 29.1734C98.633 29.0162 99.4048 28.8402 100.234 28.6511L100.399 28.6134C101.652 28.3278 103.02 28.0176 104.55 27.7091C105.959 27.4002 107.257 27.1441 108.383 27.0138C109.067 26.9346 109.689 27.4163 109.783 28.0982ZM93.769 19.3789C93.9454 20.0555 93.5403 20.7471 92.8639 20.9241C91.6248 21.2484 89.3681 21.6625 87.3307 22.0364C87.1823 22.0636 87.0352 22.0906 86.8897 22.1174C86.2442 22.236 85.615 21.8419 85.4399 21.2094C85.2648 20.5768 85.6018 19.9153 86.2164 19.6851C87.3305 19.2678 88.415 19.0906 89.4049 18.952C89.5665 18.9294 89.7247 18.9079 89.8801 18.8868C90.7064 18.7743 91.4549 18.6725 92.2246 18.4725C92.9013 18.2966 93.5925 18.7023 93.769 19.3789ZM110.525 31.797C110.66 32.4795 110.219 33.1431 109.537 33.2833C107.922 33.6158 106.206 33.9884 104.428 34.3746C99.7772 35.3849 94.6973 36.4882 89.8583 37.2093C89.1759 37.311 88.5376 36.8478 88.4226 36.1675C88.3075 35.4872 88.7581 34.84 89.4359 34.7116C91.429 34.3343 93.3001 33.9472 95.5381 33.4842C96.0471 33.3789 96.5752 33.2696 97.1279 33.1557C100.108 32.5415 103.787 31.7945 109.046 30.7979C109.73 30.6684 110.39 31.1144 110.525 31.797ZM111.267 35.524C111.426 36.1974 111.015 36.8736 110.344 37.0429C101.726 39.2176 97.2744 39.9395 90.6203 40.9783C89.944 41.0839 89.3061 40.6332 89.1799 39.9604C89.0536 39.2876 89.4846 38.6362 90.1531 38.4894C93.2115 37.8177 96.0941 37.2747 99.0909 36.7102C99.2288 36.6842 99.3669 36.6582 99.5052 36.6321C102.655 36.0386 105.953 35.4124 109.763 34.5772C110.439 34.429 111.108 34.8506 111.267 35.524ZM112.026 39.3204C112.166 39.9731 111.775 40.622 111.133 40.8038C108.608 41.519 104.06 42.5241 99.1924 43.1876C98.5241 43.2787 97.9016 42.8301 97.7765 42.1673C97.6514 41.5044 98.0676 40.8599 98.7232 40.7011C99.0064 40.6326 99.3134 40.5532 99.6591 40.4638C101.493 39.9896 104.411 39.2347 110.605 38.3315C111.265 38.2351 111.887 38.6677 112.026 39.3204Z" fill="#7782B8"/>
<path fill-rule="evenodd" clip-rule="evenodd" d="M113.885 11.5853C113.522 12.8433 113.084 13.8975 112.697 14.7642C112.58 15.0259 112.473 15.2618 112.374 15.4764C112.114 16.0456 111.922 16.4657 111.809 16.8242C111.757 16.9912 111.739 17.0924 111.734 17.1488C111.775 17.1722 111.85 17.2074 111.975 17.2468C112.206 17.3197 112.546 17.3871 113.036 17.4394C113.176 17.4544 113.311 17.499 113.433 17.5697C113.469 17.5644 113.533 17.5505 113.632 17.5162C113.94 17.4095 114.353 17.1847 114.91 16.8423C115.125 16.7102 115.356 16.563 115.603 16.4065C116.462 15.861 117.497 15.2033 118.6 14.6847C119.624 12.1004 119.648 10.009 118.644 8.75863C118.282 8.31916 118.017 8.1485 117.84 8.08923C117.703 8.04329 117.522 8.03014 117.206 8.18114C116.861 8.34659 116.409 8.6863 115.819 9.29093C115.264 9.8587 114.629 10.6162 113.885 11.5853ZM111.735 17.2088C111.734 17.2097 111.732 17.2033 111.732 17.1865C111.736 17.1995 111.736 17.2078 111.735 17.2088ZM118.474 6.19258C119.159 6.42145 119.716 6.91339 120.192 7.49321L120.198 7.50031C121.998 9.73446 121.513 12.949 120.295 15.8223C120.194 16.0585 120.007 16.2472 119.772 16.3493C118.688 16.8188 117.691 17.4511 116.747 18.0499C116.48 18.2193 116.217 18.386 115.958 18.5455C115.402 18.8873 114.823 19.2198 114.287 19.4057C113.842 19.5598 113.208 19.6879 112.612 19.4035C112.144 19.3456 111.73 19.2662 111.373 19.1539C110.969 19.0265 110.571 18.8355 110.262 18.5201C109.545 17.7891 109.702 16.8597 109.902 16.2235C110.056 15.7367 110.324 15.1495 110.605 14.5347C110.694 14.3414 110.784 14.1453 110.871 13.9488C111.259 13.0814 111.677 12.0673 112.011 10.8623C112.045 10.7396 112.102 10.6245 112.179 10.5232C112.994 9.45433 113.723 8.57486 114.388 7.89378C115.045 7.22051 115.689 6.69035 116.343 6.37747C117.026 6.05014 117.748 5.95022 118.474 6.19258ZM102.176 1.61962C101.953 1.26539 101.608 1.04191 101.229 0.950403C100.812 0.849741 100.392 0.912984 100.045 1.01787C99.3422 1.23064 98.5939 1.71863 97.9498 2.35908C96.6683 3.63309 95.5557 5.7657 96.1147 8.3053C96.1233 8.63036 96.1141 8.9643 96.1037 9.33713C96.0967 9.58865 96.0892 9.85788 96.0864 10.154C96.0796 10.8705 96.1046 11.6834 96.2945 12.4437C96.4881 13.2183 96.8694 14.0032 97.6185 14.5765C98.3583 15.1427 99.3336 15.4082 100.534 15.3994C101.406 15.4352 102.184 15.2956 102.858 14.9371C103.544 14.5728 104.041 14.0257 104.414 13.3866C105.119 12.1765 105.457 10.4755 105.797 8.67027C106.056 7.46662 106.132 6.49788 106.008 5.69064C105.878 4.84152 105.533 4.21231 105.042 3.70666C104.616 3.26865 104.087 2.9357 103.629 2.64734C103.602 2.63037 103.575 2.61355 103.549 2.59688C103.086 2.30538 102.632 2.01375 102.176 1.61962ZM99.3596 3.77722C98.4071 4.72412 97.6747 6.21898 98.0838 7.94657C98.0988 8.0099 98.1076 8.07454 98.11 8.13957C98.1254 8.55 98.1125 9.03323 98.1003 9.49308C98.094 9.73037 98.0879 9.96143 98.0859 10.173C98.0794 10.8545 98.1089 11.4565 98.2345 11.9589C98.3564 12.447 98.5517 12.7727 98.8337 12.9885C99.1193 13.207 99.6202 13.4095 100.54 13.3996C100.559 13.3994 100.578 13.3997 100.596 13.4005C101.218 13.4287 101.629 13.3258 101.92 13.1713C102.207 13.0188 102.456 12.7736 102.686 12.3793C103.184 11.5255 103.474 10.2 103.835 8.28708L103.84 8.26159C104.077 7.16244 104.103 6.46101 104.032 5.99388C103.966 5.56575 103.816 5.31472 103.607 5.09967C103.358 4.84275 103.02 4.62756 102.482 4.28843C101.974 3.96768 101.346 3.56914 100.706 2.9887C100.684 2.96881 100.664 2.94799 100.644 2.92632C100.637 2.92806 100.631 2.92992 100.625 2.9319C100.316 3.02513 99.8409 3.2987 99.3596 3.77722ZM118.284 27.4817C118.011 28.2771 117.676 28.9411 117.367 29.4925C117.237 29.7252 117.106 29.9472 116.99 30.1425C116.948 30.215 116.907 30.2839 116.869 30.3482C116.722 30.6003 116.619 30.7866 116.55 30.9397C116.531 30.9827 116.517 31.0179 116.506 31.0462C116.535 31.0652 116.574 31.0883 116.624 31.1148C116.798 31.2072 117.065 31.3149 117.462 31.4355C117.759 31.5256 117.996 31.7478 118.106 32.0354C118.387 32.0124 118.75 31.9555 119.164 31.8543C119.85 31.6865 120.548 31.4283 121.062 31.1309C121.319 30.982 121.495 30.8434 121.6 30.7306C121.657 30.6688 121.679 30.6309 121.685 30.6173C121.723 30.3267 121.887 30.0669 122.134 29.9074C123.042 29.3203 123.477 28.8775 123.672 28.5684C123.831 28.3138 123.824 28.1633 123.782 28.0133C123.718 27.7889 123.548 27.5104 123.219 27.085C123.146 26.9904 123.063 26.8867 122.975 26.7758C122.722 26.4586 122.422 26.0826 122.165 25.6948C121.904 25.3723 121.7 25.1714 121.545 25.0508C121.434 24.9635 121.366 24.932 121.337 24.9213C121.301 24.9374 121.22 24.9858 121.073 25.1197C120.93 25.2503 120.777 25.4138 120.575 25.6305L120.565 25.6412C120.375 25.8456 120.151 26.0866 119.899 26.3266C119.475 26.7313 118.951 27.1558 118.284 27.4817ZM121.359 24.9145C121.359 24.9153 121.354 24.9172 121.345 24.9178C121.355 24.9139 121.36 24.9137 121.359 24.9145ZM121.678 22.9487C122.465 23.0917 123.129 23.6989 123.754 24.4803C123.775 24.5055 123.794 24.5318 123.811 24.5589C124.018 24.8761 124.24 25.1541 124.483 25.4595C124.585 25.587 124.691 25.7193 124.8 25.8613C125.134 26.2927 125.526 26.8373 125.705 27.467C125.905 28.1712 125.821 28.9058 125.365 29.632C124.989 30.2309 124.376 30.7996 123.536 31.3762C123.419 31.6583 123.245 31.8974 123.065 32.0918C122.78 32.3983 122.425 32.6526 122.063 32.8617C121.34 33.2802 120.452 33.598 119.639 33.7967C118.85 33.9896 117.998 34.1037 117.366 34.0174C117.2 33.9947 117.006 33.9527 116.817 33.8692C116.632 33.7874 116.381 33.6343 116.207 33.3504C116.147 33.2538 116.105 33.158 116.075 33.0639C115.938 33.0061 115.809 32.9458 115.689 32.8823C115.361 32.7088 115.044 32.4826 114.814 32.1661C114.271 31.4201 114.498 30.6313 114.725 30.1237C114.842 29.8616 114.995 29.5927 115.143 29.339C115.189 29.2611 115.234 29.1841 115.28 29.1068C115.391 28.918 115.504 28.727 115.622 28.5156C115.947 27.9347 116.275 27.2683 116.51 26.4647C116.598 26.1637 116.822 25.9215 117.116 25.8106C117.669 25.6015 118.112 25.2683 118.519 24.8796C118.726 24.6826 118.914 24.48 119.112 24.2678L119.124 24.255C119.309 24.0562 119.515 23.8351 119.724 23.6441C120.134 23.2686 120.791 22.7876 121.678 22.9487ZM106.61 22.1641C106.642 22.2503 106.678 22.3536 106.717 22.4756C106.923 23.1115 107.167 24.0527 107.454 25.2185C107.56 25.6497 107.672 26.1089 107.788 26.5897C108.295 28.6767 108.901 31.1715 109.604 33.5544C109.697 33.8763 109.772 34.3377 109.854 34.9946C109.891 35.2913 109.928 35.6147 109.969 35.9713L109.98 36.066C110.02 36.4141 110.063 36.7902 110.113 37.192C110.036 37.7731 110.261 38.2644 110.442 38.5783C110.549 38.7635 110.67 38.9366 110.769 39.076C110.787 39.1017 110.805 39.1261 110.821 39.1496C110.904 39.2653 110.969 39.357 111.029 39.4492C111.061 39.5002 111.085 39.5411 111.102 39.5731C111.064 39.6027 111.009 39.6409 110.93 39.6866C110.706 39.8176 110.542 40.0304 110.472 40.2802C110.424 40.4509 110.273 40.6911 109.927 40.9835C109.59 41.2684 109.143 41.54 108.645 41.7913C108.323 41.9534 107.994 42.1002 107.679 42.2321C107.507 42.0413 107.303 41.8776 107.094 41.7407C106.518 41.364 105.674 41.0463 104.771 40.9936C104.639 40.9218 104.505 40.8754 104.437 40.8519L104.433 40.8504C104.311 40.8085 104.175 40.7656 104.025 40.7182C103.575 40.5767 102.999 40.3951 102.32 40.0801C102.193 40.0207 102.054 39.9891 101.913 39.9872C100.921 39.974 100.467 39.6498 99.8296 39.1944C99.7908 39.1667 99.7515 39.1386 99.7112 39.11C99.3461 38.8507 98.888 38.539 98.282 38.332C97.8263 38.1764 97.3196 38.09 96.731 38.0914C96.7176 38.0748 96.704 38.0585 96.6904 38.0423C96.4751 37.7867 96.157 37.4796 95.7822 37.2631C95.4453 37.0685 94.7872 36.7963 94.1082 37.1454C93.8079 37.2999 93.5931 37.531 93.4393 37.7973C92.5289 37.6316 91.8371 37.6914 91.3246 37.8076C91.1385 37.6973 90.9192 37.6489 90.6989 37.6746C89.9062 37.7671 89.0064 37.2757 88.5926 36.5047C88.3983 36.1426 88.3273 35.7453 88.4131 35.3398C88.4806 35.0206 88.6567 34.6435 89.0304 34.2413C89.0943 34.2461 89.1591 34.2472 89.224 34.2432C89.4011 34.2323 89.6584 34.1797 89.8943 33.9883C90.1394 33.7895 90.2451 33.5359 90.2866 33.3438C90.347 33.0652 90.2941 32.7839 90.2772 32.6943C90.2761 32.6884 90.2752 32.6833 90.2744 32.6792C90.2677 32.6417 90.2616 32.609 90.2561 32.5794C90.2397 32.4918 90.2286 32.4319 90.2209 32.3593C90.204 32.1993 90.2263 32.1434 90.2608 32.0953C90.3115 32.0246 90.516 31.8067 91.2182 31.6047C91.4388 31.5412 91.6308 31.4038 91.762 31.2155C91.9767 30.9075 92.2751 30.6218 92.7591 30.1723L92.7941 30.1399C93.253 29.7139 93.8224 29.1853 94.463 28.4543C97.1679 25.5342 99.4074 23.6806 101.04 22.5488C101.858 21.982 102.519 21.599 103.007 21.3541C103.252 21.2315 103.447 21.146 103.594 21.0897C103.667 21.0616 103.724 21.0422 103.766 21.0295C103.81 21.0161 103.828 21.0132 103.823 21.014C103.838 21.0113 103.853 21.0084 103.867 21.0051C103.892 21.0274 103.915 21.049 103.937 21.0688C104.461 21.5384 105.284 22.1157 106.61 22.1641ZM104.501 20.5528C104.501 20.5527 104.501 20.5529 104.501 20.5528V20.5528ZM102.702 42.3879C102.841 42.8608 103.309 43.1655 103.804 43.0938C104.008 43.0642 104.188 43.0352 104.333 43.0042C104.355 42.9995 104.378 42.9944 104.402 42.9888C104.834 42.9688 105.292 43.0718 105.662 43.2339C105.502 43.4791 105.453 43.7907 105.548 44.0871C105.704 44.5687 106.195 44.8581 106.691 44.7611C106.947 44.7111 107.227 44.625 107.476 44.4646C107.604 44.4152 107.751 44.3583 107.92 44.2918C108.394 44.105 108.971 43.8663 109.545 43.577C110.114 43.2902 110.713 42.937 111.218 42.5105C111.62 42.1702 112.015 41.7383 112.257 41.2055C112.704 40.8767 113.054 40.4406 113.129 39.8568C113.213 39.2057 112.903 38.6677 112.712 38.3705C112.624 38.2321 112.524 38.0924 112.441 37.9771C112.427 37.9563 112.412 37.9362 112.399 37.9171C112.301 37.7796 112.229 37.6742 112.174 37.5789C112.129 37.5016 112.11 37.4544 112.102 37.4305C112.125 37.3214 112.13 37.209 112.116 37.098C112.06 36.6492 112.011 36.2304 111.967 35.8387L111.956 35.7423C111.915 35.3885 111.877 35.0544 111.839 34.7467C111.756 34.0888 111.666 33.4862 111.525 32.9977L111.523 32.9916C110.835 30.6597 110.243 28.2238 109.736 26.1371C109.618 25.6506 109.505 25.1831 109.396 24.7402C109.11 23.5831 108.851 22.574 108.619 21.8595C108.506 21.5107 108.383 21.1775 108.246 20.9216C108.181 20.8007 108.077 20.6269 107.92 20.4778C107.782 20.3466 107.451 20.1002 106.994 20.1612C106.068 20.2187 105.607 19.8803 105.272 19.5801C105.204 19.5188 105.16 19.4769 105.111 19.43C105.073 19.3942 105.033 19.3554 104.975 19.3027C104.887 19.2214 104.726 19.0739 104.529 18.9682C104.301 18.8463 103.915 18.7225 103.48 18.8962C103.319 18.9602 103.189 19.0514 103.085 19.1483C102.807 19.241 102.476 19.3833 102.11 19.5668C101.527 19.8595 100.785 20.2926 99.901 20.9053C98.1324 22.1312 95.7814 24.0871 92.9864 27.1058L92.9676 27.1267C92.392 27.7845 91.883 28.2571 91.4223 28.6849L91.3792 28.7249C91.021 29.0575 90.6527 29.3994 90.3376 29.7864C89.5712 30.0512 88.9991 30.4232 88.6357 30.9301C88.2927 31.4085 88.212 31.8995 88.216 32.2919C88.1691 32.32 88.1243 32.352 88.0819 32.388C87.1924 33.1438 86.6502 34.0112 86.4568 34.926C86.2634 35.8404 86.437 36.7167 86.8307 37.4503C87.4618 38.6262 88.7014 39.5054 90.0675 39.6612C90.2923 39.9009 90.5739 39.9766 90.7707 39.9891C90.9518 40.0006 91.0996 39.9636 91.1574 39.9485C91.2282 39.9298 91.2946 39.9068 91.3351 39.8925C91.3603 39.8836 91.3832 39.8754 91.405 39.8677C91.4681 39.845 91.5214 39.8259 91.5926 39.8042C91.8981 39.7107 92.5661 39.5596 93.7981 39.9438C94.0778 40.031 94.3817 39.9912 94.6295 39.8347C94.8495 39.6958 95.0056 39.4773 95.0668 39.2269C95.1009 39.2617 95.1326 39.2968 95.1611 39.3306C95.1834 39.3571 95.2014 39.3801 95.2154 39.3988C95.2528 39.5284 95.3166 39.651 95.4051 39.7581C95.6176 40.0154 95.9445 40.1497 96.2765 40.1161C96.9133 40.0517 97.3294 40.1197 97.6358 40.2244C97.9528 40.3326 98.2144 40.4996 98.5533 40.7403C98.5957 40.7704 98.6389 40.8014 98.6828 40.8329C99.3383 41.3032 100.18 41.907 101.668 41.98C102.036 42.1427 102.389 42.2776 102.702 42.3879ZM95.2535 39.4546C95.2536 39.4548 95.254 39.4556 95.2535 39.4546V39.4546ZM91.5072 13.5728C92.5854 14.6592 93.438 16.5086 92.9614 18.659C92.9343 18.7816 92.8848 18.8957 92.8174 18.9969C92.8142 19.0537 92.8113 19.1298 92.8089 19.2313C92.8079 19.2745 92.807 19.3209 92.806 19.3701C92.7982 19.7663 92.787 20.3442 92.6781 20.9286C92.5537 21.5957 92.2876 22.3695 91.6769 23.0071C91.051 23.6606 90.1616 24.0693 88.9885 24.1731C88.8412 24.1862 88.6929 24.1664 88.5542 24.1152C87.7511 23.8188 87.0715 23.5667 86.5357 23.3089C85.9944 23.0485 85.501 22.7378 85.1309 22.2728C84.7495 21.7935 84.5742 21.2466 84.4908 20.6519C84.4122 20.0907 84.4075 19.4203 84.4205 18.6388C84.415 18.4651 84.4546 18.2884 84.5432 18.1274C84.5591 18.0983 84.5763 18.0702 84.5949 18.0431C85.4614 16.726 85.919 15.4548 86.2723 14.4737C86.3274 14.3204 86.3801 14.1742 86.4313 14.036C86.5233 13.788 86.6227 13.5342 86.7323 13.3194C86.824 13.1396 87.0038 12.8162 87.329 12.6077C87.5197 12.4854 87.7647 12.3997 88.0455 12.412C88.2468 12.4209 88.4201 12.4781 88.5606 12.5492C88.9342 12.4111 89.3154 12.4159 89.6453 12.4815C90.3213 12.6159 90.9776 13.0391 91.5072 13.5728ZM86.4166 18.9071C86.4093 19.5645 86.422 20.0246 86.4711 20.3744C86.5238 20.751 86.6087 20.9186 86.6954 21.0275C86.7934 21.1507 86.9761 21.3018 87.4025 21.5069C87.7949 21.6957 88.3094 21.8924 89.0241 22.157C89.6739 22.065 90.025 21.8409 90.2328 21.6239C90.4772 21.3687 90.6282 21.0134 90.7123 20.5621C90.789 20.1505 90.7978 19.7409 90.8066 19.332C90.8076 19.2825 90.8087 19.233 90.8099 19.1836C90.8146 18.9847 90.8221 18.7242 90.8635 18.5001C90.8843 18.3876 90.9256 18.2123 91.0238 18.0354C91.0333 18.0184 91.0436 18.0008 91.0548 17.9829C91.2491 16.7122 90.7317 15.63 90.088 14.9814C89.7743 14.6653 89.4881 14.5105 89.3138 14.4577C89.1426 14.6937 88.8742 14.8462 88.5771 14.8679C88.4709 14.8757 88.366 14.8663 88.2656 14.8417C88.2328 14.9319 88.1982 15.0284 88.1615 15.1307C87.8293 16.058 87.3275 17.4581 86.4166 18.9071ZM92.8297 18.8641C92.8312 18.8576 92.8308 18.8585 92.8297 18.8641V18.8641Z" fill="#7782B8"/>
</g>
</svg>
